<svg xmlns="http://www.w3.org/2000/svg" viewBox="0 0 160 160">
    <defs>
        <style>
            .cls-1{fill:#fff}.cls-2{fill:none}.cls-3{clip-path:url(#clip-path)}.cls-4,.cls-5,.cls-6,.cls-8{fill:#2b3991}.cls-12,.cls-13,.cls-4{opacity:.1}.cls-5{opacity:.2}.cls-6,.cls-7{opacity:.5}.cls-9{fill:#f7931d}.cls-10{fill:#fdb797}.cls-11{clip-path:url(#clip-path-2)}.cls-14{fill:#333}.cls-15{fill:#535461}
        </style>
        <clipPath id="clip-path">
            <path id="Rectangle_217" d="M0 0h160v160H0z" class="cls-1" data-name="Rectangle 217" transform="translate(445 747)"/>
        </clipPath>
        <clipPath id="clip-path-2">
            <path id="Path_687" d="M82.176 64.608s5.648 1.7 13.562-.848 24.3 3.674 24.3 3.674 13 0 32.214-8.2c0 0-8.758 8.477-2.56 13.562s.566 12.435-6.781 15.261-7.91 8.477-7.36 13.846 0 .282 0 .282-22.042-3.955-27.693 9.6l-27.944-44.07s-1.696-3.395 2.262-3.107z" class="cls-2" data-name="Path 687"/>
        </clipPath>
    </defs>
    <g id="img-taksit" class="cls-3" transform="translate(-445 -747)">
        <g id="Homepage-Icons-06" transform="translate(445 749.801)">
            <path id="Path_656" d="M92.96 31.12c-10.256-.358-20.026-3.667-29.354-7.29s-18.56-7.638-28.579-9.558c-6.442-1.235-13.8-1.408-18.992 2.048-5 3.325-6.608 9.053-7.475 14.374-.64 4-1.037 8.218.752 11.965 1.242 2.6 3.446 4.8 4.97 7.283 5.306 8.672 1.555 19.366-4.192 27.84-2.694 3.974-5.824 7.766-7.9 11.99s-3.048 9.07-1.23 13.383 6.1 7.488 10.762 9.744c9.462 4.589 20.6 5.9 31.478 6.646 24.064 1.645 48.253.931 72.381.218 8.928-.262 17.9-.531 26.678-1.92 4.88-.768 9.92-1.984 13.456-4.922a11.27 11.27 0 0 0 2.6-14.72c-5.053-7.843-19.021-9.792-22.557-18.208-1.942-4.637.054-9.8 2.88-14.08 6.061-9.219 16.218-17.306 16.752-27.84.368-7.235-4.515-14.483-12.067-17.92-7.914-3.59-18.88-3.139-24.723 2.8-6.018 6.125-16.581 8.481-25.64 8.167z" class="cls-4" data-name="Path 656"/>
            <path id="Rectangle_409" d="M0 0h62v37H0z" class="cls-1" data-name="Rectangle 409" transform="translate(14 98.199)"/>
            <circle id="Ellipse_184" cx="29.891" cy="29.891" r="29.891" class="cls-5" data-name="Ellipse 184" transform="translate(23.162 28.845)"/>
            <path id="Path_657" d="M42.845 52.781a4.208 4.208 0 0 1-.429 1.882 4.547 4.547 0 0 1-1.2 1.51 5.962 5.962 0 0 1-1.816 1.011 6.633 6.633 0 0 1-2.262.374 5.237 5.237 0 0 1-4.234-1.76 7.406 7.406 0 0 1-1.491-4.918 10.026 10.026 0 0 1 .419-3.011 6.336 6.336 0 0 1 1.213-2.256 5.277 5.277 0 0 1 1.92-1.421 6.342 6.342 0 0 1 2.56-.5 7.04 7.04 0 0 1 4.845 1.837l-2.24 2.33a3.875 3.875 0 0 0-2.659-1.03 2.342 2.342 0 0 0-1.661.563 2.192 2.192 0 0 0-.64 1.6 3.634 3.634 0 0 1 2.314-.64 6.519 6.519 0 0 1 2.134.32 5.267 5.267 0 0 1 1.69.928 4.387 4.387 0 0 1 1.126 1.411 3.939 3.939 0 0 1 .406 1.77zm-5.7 1.738a1.8 1.8 0 0 0 .7-.141 1.9 1.9 0 0 0 .976-.938 1.523 1.523 0 0 0 .147-.659 1.459 1.459 0 0 0-.534-1.139 2 2 0 0 0-2.56 0 1.459 1.459 0 0 0-.534 1.139 1.523 1.523 0 0 0 .147.659 1.9 1.9 0 0 0 .976.938 1.8 1.8 0 0 0 .685.141z" class="cls-1" data-name="Path 657"/>
            <path id="Path_658" d="M53.069 43.8h3.818l5.273 13.566h-4.24l-.928-2.646h-4.051l-.9 2.656h-4.265zm3.251 8.429l-1.354-4.2-1.414 4.2z" class="cls-1" data-name="Path 658"/>
            <path id="Path_659" d="M62.31 58.381a5.555 5.555 0 0 0 1.67.32 1.3 1.3 0 0 0 1.437-1.338l-4.1-10.051H65.5l2.144 6.976 1.734-6.976h3.8L69.363 58.56a4.605 4.605 0 0 1-.73 1.347 4.694 4.694 0 0 1-1.126 1.034 5.363 5.363 0 0 1-1.446.659 5.879 5.879 0 0 1-1.651.227 6.109 6.109 0 0 1-2.1-.362z" class="cls-1" data-name="Path 659"/>
            <path id="Path_660" d="M40.035 66.118H37.12v6.867h-2.781v-6.867h-2.921v-2.16h8.618z" class="cls-1" data-name="Path 660"/>
            <path id="Path_661" d="M42.131 73.114a3.149 3.149 0 0 1-1.04-.166 2.614 2.614 0 0 1-.835-.451 2.1 2.1 0 0 1-.55-.682 1.872 1.872 0 0 1-.2-.851 1.811 1.811 0 0 1 .243-.928 2.275 2.275 0 0 1 .669-.723 3.162 3.162 0 0 1 1.021-.47 4.765 4.765 0 0 1 1.306-.166 3.888 3.888 0 0 1 1.51.253v-.2a.819.819 0 0 0-.32-.7 1.693 1.693 0 0 0-.989-.227 3.677 3.677 0 0 0-1.184.182 6.281 6.281 0 0 0-1.142.541l-.784-1.5a6.678 6.678 0 0 1 3.379-.851 4.6 4.6 0 0 1 2.768.714 2.477 2.477 0 0 1 .96 2.134v1.3a.749.749 0 0 0 .115.477.582.582 0 0 0 .4.157v2.035c-.221.042-.426.074-.621.1a4.581 4.581 0 0 1-.522.032 2.1 2.1 0 0 1-1.1-.237 1.082 1.082 0 0 1-.493-.691l-.058-.243a3.373 3.373 0 0 1-1.155.87 3.3 3.3 0 0 1-1.376.3zm.813-1.731a1.949 1.949 0 0 0 .5-.067 1.981 1.981 0 0 0 .458-.186 1.1 1.1 0 0 0 .256-.224.381.381 0 0 0 .1-.246v-.5a4.259 4.259 0 0 0-.528-.128 3.143 3.143 0 0 0-.512-.051 1.485 1.485 0 0 0-.829.218.64.64 0 0 0-.32.547.541.541 0 0 0 .25.458 1.066 1.066 0 0 0 .625.178z" class="cls-1" data-name="Path 661"/>
            <path id="Path_662" d="M53.414 72.986l-1.7-2.442-.544.534V73h-2.71v-9.28h2.71v5.075l2-2.48h2.854l-2.584 2.907 2.838 3.763z" class="cls-1" data-name="Path 662"/>
            <path id="Path_663" d="M59.763 73.114a6.549 6.549 0 0 1-1.919-.288 4.454 4.454 0 0 1-1.6-.832l.925-1.45a7.382 7.382 0 0 0 1.35.64 3.651 3.651 0 0 0 1.19.227c.381 0 .57-.106.57-.32a.358.358 0 0 0-.221-.3 3.971 3.971 0 0 0-.864-.294 13.793 13.793 0 0 1-1.334-.4 3.908 3.908 0 0 1-.867-.426 1.28 1.28 0 0 1-.621-1.171 1.965 1.965 0 0 1 .227-.941 2.358 2.358 0 0 1 .64-.749 2.989 2.989 0 0 1 .96-.49 4.16 4.16 0 0 1 1.232-.173 6.343 6.343 0 0 1 1.578.192 4.16 4.16 0 0 1 1.5.774l-1.027 1.45a7.758 7.758 0 0 0-1.171-.579 2.637 2.637 0 0 0-.883-.17.826.826 0 0 0-.4.083.275.275 0 0 0-.157.259.352.352 0 0 0 .23.32 4.09 4.09 0 0 0 .9.275 11.107 11.107 0 0 1 1.37.4 3.718 3.718 0 0 1 .893.458 1.469 1.469 0 0 1 .477.56 1.7 1.7 0 0 1 .144.717 1.974 1.974 0 0 1-.214.928 2.019 2.019 0 0 1-.621.7 2.982 2.982 0 0 1-.982.445 5.12 5.12 0 0 1-1.305.155z" class="cls-1" data-name="Path 663"/>
            <path id="Path_664" d="M63.814 65.738V63.7h2.707v2.035zm0 7.248V66.3h2.707v6.688z" class="cls-1" data-name="Path 664"/>
            <path id="Path_665" d="M73.155 72.618a8.906 8.906 0 0 1-1.219.362 5.882 5.882 0 0 1-1.28.147 3.664 3.664 0 0 1-.87-.1 2.01 2.01 0 0 1-.72-.32 1.6 1.6 0 0 1-.483-.6 2.054 2.054 0 0 1-.179-.915v-3.067h-.928v-1.818h.924v-2.1h2.71v2.1h1.469v1.818h-1.465v2.214a.586.586 0 0 0 .157.464.64.64 0 0 0 .426.131 2.1 2.1 0 0 0 .458-.058 3.162 3.162 0 0 0 .515-.157z" class="cls-1" data-name="Path 665"/>
            <circle id="Ellipse_185" cx="1.021" cy="1.021" r="1.021" class="cls-6" data-name="Ellipse 185" transform="translate(30.256 23.322)"/>
            <circle id="Ellipse_186" cx="1.021" cy="1.021" r="1.021" class="cls-6" data-name="Ellipse 186" transform="translate(41.824 88.627)"/>
            <circle id="Ellipse_187" cx="1.021" cy="1.021" r="1.021" class="cls-6" data-name="Ellipse 187" transform="translate(139.45 27.731)"/>
            <path id="Path_666" d="M61.76 25.885a.64.64 0 0 1-.349-.755.173.173 0 0 0 0-.07.311.311 0 0 0-.56-.2.166.166 0 0 0-.035.061.64.64 0 0 1-.755.346h-.067a.32.32 0 0 0-.208.563.3.3 0 0 0 .061.035.64.64 0 0 1 .346.752.272.272 0 0 0 0 .07.313.313 0 0 0 .563.2.41.41 0 0 0 .035-.064.621.621 0 0 1 .752-.346h.07a.32.32 0 0 0 .208-.563.221.221 0 0 0-.061-.029z" class="cls-6" data-name="Path 666"/>
            <path id="Path_667" d="M143.3 105.52a.621.621 0 0 1-.349-.752.273.273 0 0 0 0-.07.313.313 0 0 0-.563-.2.408.408 0 0 0-.035.064.64.64 0 0 1-.752.349.278.278 0 0 0-.07-.016.313.313 0 0 0-.2.563.249.249 0 0 0 .064.035.64.64 0 0 1 .358.742.5.5 0 0 0 0 .067.313.313 0 0 0 .563.2.231.231 0 0 0 .035-.061.64.64 0 0 1 .755-.349.25.25 0 0 0 .067 0 .313.313 0 0 0 .2-.563.377.377 0 0 0-.073-.009z" class="cls-6" data-name="Path 667"/>
            <circle id="Ellipse_188" cx="1.021" cy="1.021" r="1.021" class="cls-6" data-name="Ellipse 188" transform="translate(112.294 51.827)"/>
            <circle id="Ellipse_189" cx="1.021" cy="1.021" r="1.021" class="cls-6" data-name="Ellipse 189" transform="translate(85.421 40.134)"/>
            <circle id="Ellipse_190" cx="1.021" cy="1.021" r="1.021" class="cls-6" data-name="Ellipse 190" transform="translate(119.232 113.574)"/>
            <g id="Group_177" class="cls-7" data-name="Group 177">
                <path id="Rectangle_394" d="M0 0h.509v2.886H0z" class="cls-8" data-name="Rectangle 394" transform="translate(18.646 38.227)"/>
                <path id="Rectangle_395" d="M0 0h2.886v.509H0z" class="cls-8" data-name="Rectangle 395" transform="translate(17.459 39.414)"/>
            </g>
            <g id="Group_178" class="cls-7" data-name="Group 178">
                <path id="Rectangle_396" d="M0 0h.509v2.886H0z" class="cls-8" data-name="Rectangle 396" transform="translate(20.499 81.718)"/>
                <path id="Rectangle_397" d="M0 0h2.886v.509H0z" class="cls-8" data-name="Rectangle 397" transform="translate(19.312 82.909)"/>
            </g>
            <g id="Group_179" class="cls-7" data-name="Group 179">
                <path id="Rectangle_398" d="M0 0h.509v2.886H0z" class="cls-8" data-name="Rectangle 398" transform="translate(121.44 41.155)"/>
                <path id="Rectangle_399" d="M0 0h2.886v.509H0z" class="cls-8" data-name="Rectangle 399" transform="translate(120.253 42.346)"/>
            </g>
            <path id="Path_668" d="M65.194 121.539v-1.6l-.931 1.6zm0 0" class="cls-9" data-name="Path 668"/>
            <path id="Path_669" d="M33 119.936l-.928 1.6H33zm0 0" class="cls-9" data-name="Path 669"/>
            <path id="Path_670" d="M39.1 122.24a.877.877 0 0 0-.016-.976.515.515 0 0 0-.39-.173.509.509 0 0 0-.32.112.64.64 0 0 0-.221.541.714.714 0 0 0 .163.49.515.515 0 0 0 .41.2.438.438 0 0 0 .384-.189zm0 0" class="cls-9" data-name="Path 670"/>
            <path id="Path_671" d="M47.459 122.413a.518.518 0 0 0 .394-.154.723.723 0 0 0 0-.861.534.534 0 0 0-.39-.144.525.525 0 0 0-.39.144.592.592 0 0 0-.147.435.608.608 0 0 0 .141.426.522.522 0 0 0 .4.154zm0 0" class="cls-9" data-name="Path 671"/>
            <path id="Path_672" d="M50.378 119.773a.47.47 0 0 0-.32.1.669.669 0 0 0-.214.557.774.774 0 0 0 .134.5.518.518 0 0 0 .416.163.538.538 0 0 0 .285-.083.618.618 0 0 0 .25-.557.8.8 0 0 0-.144-.5.515.515 0 0 0-.41-.182zm0 0" class="cls-9" data-name="Path 672"/>
            <path id="Path_673" d="M47.459 120.694a.448.448 0 0 0 .339-.128.458.458 0 0 0 .128-.32.467.467 0 0 0-.128-.349.458.458 0 0 0-.339-.122.493.493 0 0 0-.349.122.464.464 0 0 0-.122.349.454.454 0 0 0 .122.32.483.483 0 0 0 .349.128zm0 0" class="cls-9" data-name="Path 673"/>
            <path id="Path_674" d="M70.909 122.419a.445.445 0 0 0 .384-.189.794.794 0 0 0 .138-.477.736.736 0 0 0-.157-.5.515.515 0 0 0-.39-.173.544.544 0 0 0-.32.112.64.64 0 0 0-.211.541.714.714 0 0 0 .163.49.506.506 0 0 0 .41.2zm0 0" class="cls-9" data-name="Path 674"/>
            <path id="Path_675" d="M17.776 122.07a.442.442 0 0 0 .861 0 3.536 3.536 0 0 0 .09-.822 1.347 1.347 0 0 0 0-.16 3.6 3.6 0 0 0-.1-1 .413.413 0 0 0-.429-.32.426.426 0 0 0-.432.32 3.4 3.4 0 0 0-.1 1 4.582 4.582 0 0 0 .022.579 2.183 2.183 0 0 0 .08.4zm0 0" class="cls-9" data-name="Path 675"/>
            <path id="Path_676" d="M54.355 109.4a4.845 4.845 0 0 0 6.474.781h2.061a.176.176 0 0 0 .042-.045 5.161 5.161 0 0 0 .9-.909h-3.59a5.7 5.7 0 0 1-.4-.73h4.478a6.01 6.01 0 0 0 .39-.96h-5.19c-.022-.08-.054-.15-.074-.224-.042-.2-.061-.4-.083-.6h5.53a6.2 6.2 0 0 0 .074-.742c0-.067-.019-.134-.019-.2h-5.655a5.467 5.467 0 0 1 .08-.8h5.485a5 5 0 0 0-.278-.944h-4.97a5.913 5.913 0 0 1 .336-.822h4.218c-.083-.141-.2-.262-.3-.4a4.574 4.574 0 0 0-.422-.55h-2.911c.054-.077.115-.144.176-.218a4.9 4.9 0 0 0-7.494 5.12 4.838 4.838 0 0 0 1.142 2.24zm0 0" class="cls-9" data-name="Path 676"/>
            <path id="Path_677" d="M18.448 129.238c-.048.189-.1.419-.157.614l-.253.813h.842l-.259-.813c-.061-.198-.121-.425-.173-.614z" class="cls-9" data-name="Path 677"/>
            <path id="Path_678" d="M32.3 131.338a.32.32 0 0 0 .342.342.493.493 0 0 0 .474-.32.368.368 0 0 0 0-.131v-.32c-.416-.029-.816.067-.816.429z" class="cls-9" data-name="Path 678"/>
            <path id="Path_679" d="M27.792 130.054c-.426 0-.6.416-.6.813 0 .461.23.806.592.806s.582-.32.582-.816c.002-.371-.166-.803-.574-.803z" class="cls-9" data-name="Path 679"/>
            <path id="Path_680" d="M76.87 95.462a4.442 4.442 0 0 0-3.133-1.28H15.923a4.544 4.544 0 0 0-4.512 4.573v33.616a4.573 4.573 0 0 0 2.608 4.125 4.413 4.413 0 0 0 1.9.438h57.819a4.451 4.451 0 0 0 3.133-1.28 4.57 4.57 0 0 0 1.386-3.274V98.742a4.586 4.586 0 0 0-1.386-3.28zm-48.736 24.724a.826.826 0 0 1-.2.557.758.758 0 0 1-.256.2.525.525 0 0 1 .288.17.915.915 0 0 1 .278.707 1.187 1.187 0 0 1-.32.835 1.251 1.251 0 0 1-.96.362 1.187 1.187 0 0 1-1.1-.518 1.485 1.485 0 0 1-.182-.72h.717a.861.861 0 0 0 .074.371.5.5 0 0 0 .49.269.544.544 0 0 0 .371-.147.55.55 0 0 0 .157-.426.49.49 0 0 0-.3-.5 1.673 1.673 0 0 0-.538-.067v-.522a1.469 1.469 0 0 0 .5-.074.365.365 0 0 0 .2-.262.493.493 0 0 0 .045-.17.483.483 0 0 0-.128-.349.432.432 0 0 0-.349-.134.442.442 0 0 0-.378.163.656.656 0 0 0-.115.442h-.7a2.077 2.077 0 0 1 .1-.531 1.3 1.3 0 0 1 .282-.4 1.191 1.191 0 0 1 .339-.2 1.644 1.644 0 0 1 .49-.067 1.28 1.28 0 0 1 .858.275.9.9 0 0 1 .32.666.448.448 0 0 1 .017.07zm-2.682-5.744v-1.869h2.109a3.315 3.315 0 0 1-2.109 1.869zm2.384-3.168v.054h-2.383V108.9h2.387zm-5.69-5.994h2.368a3.306 3.306 0 0 1 3.162 2.371H24.2v3.677h-2.053zm0 7.293H24.2v2.027h-2.053zM20.9 105.43v2.221h-2.228a3.315 3.315 0 0 1 2.228-2.221zm-2.374 5.843V108.9H20.9v2.429h-2.378zm2.374 1.3v1.869a3.341 3.341 0 0 1-2.115-1.869zm-3.974 8.515a2.931 2.931 0 0 1 .282-1.424 1.056 1.056 0 0 1 1-.5 1.059 1.059 0 0 1 1 .518 2.915 2.915 0 0 1 .275 1.28v.144a2.912 2.912 0 0 1-.285 1.421 1.056 1.056 0 0 1-1 .5 1.066 1.066 0 0 1-1-.5 2.048 2.048 0 0 1-.2-.56 4.013 4.013 0 0 1-.076-.879zm2.349 10.97l-.3-.938H17.92l-.285.938h-.611l1.056-3.3h.771l1.072 3.3zm.781-12.211a2.985 2.985 0 0 0 .48-.045.7.7 0 0 0 .358-.192.848.848 0 0 0 .173-.416h.608v3.725h-.749v-2.56h-.87zm1.92 12.211l-.029-.378a.854.854 0 0 1-.771.429 1.091 1.091 0 0 1-1.024-1.216 1.141 1.141 0 0 1 1.066-1.28.758.758 0 0 1 .672.32v-1.344h.6v2.8c0 .243 0 .509.019.672zm2.464-12.115a.48.48 0 0 0-.381-.15.448.448 0 0 0-.451.25 1.232 1.232 0 0 0-.083.458h-.707a1.766 1.766 0 0 1 .176-.768.982.982 0 0 1 .371-.371.864.864 0 0 1 .224-.09 1.354 1.354 0 0 1 .464-.106 1.331 1.331 0 0 1 .941.32 1.139 1.139 0 0 1 .346.867 1.171 1.171 0 0 1-.243.736 2.41 2.41 0 0 1-.525.47l-.291.2c-.186.131-.32.227-.381.282a.983.983 0 0 0-.17.208h1.629v.64h-2.56a1.773 1.773 0 0 1 .154-.682.442.442 0 0 0 .019-.051 2.016 2.016 0 0 1 .736-.784 7.071 7.071 0 0 0 .659-.518.771.771 0 0 0 .227-.538.64.64 0 0 0-.147-.378zm.486 12.16a1.894 1.894 0 0 1-.9-.208l.138-.5a1.641 1.641 0 0 0 .8.208c.381 0 .6-.179.6-.448s-.166-.4-.582-.55c-.547-.2-.893-.483-.893-.96 0-.544.448-.96 1.168-.96a1.686 1.686 0 0 1 .787.166l-.141.483a1.427 1.427 0 0 0-.659-.157c-.384 0-.544.2-.544.4 0 .256.189.371.64.544.573.214.848.506.848.979 0 .554-.406 1.011-1.251 1.011zm2.838 0a1.152 1.152 0 0 1-1.2-1.222 1.174 1.174 0 0 1 1.232-1.261 1.142 1.142 0 0 1 1.184 1.222 1.178 1.178 0 0 1-1.21 1.267zm3.2-.81a3.58 3.58 0 0 1-.829 1.53 1.28 1.28 0 0 1-.64.32l-.138-.506a.976.976 0 0 0 .349-.166 1.014 1.014 0 0 0 .32-.374.25.25 0 0 0 .032-.109.285.285 0 0 0-.029-.118l-.877-2.186h.666l.426 1.28c.051.147.1.32.138.461.032-.134.077-.32.128-.467l.371-1.28h.64zm2.262.758l-.045-.266h-.016a.867.867 0 0 1-.7.32.707.707 0 0 1-.749-.707c0-.6.534-.906 1.414-.9v-.038c0-.157-.064-.416-.483-.416a1.28 1.28 0 0 0-.64.176l-.118-.39a1.712 1.712 0 0 1 .864-.211.892.892 0 0 1 .982 1.008v.858a3.29 3.29 0 0 0 .038.573zm.928-9.946h-.419v.8h-.72v-.8h-1.489v-.64l1.373-2.259h.822v2.326h.419zm1.894 9.946l-.029-.378a.858.858 0 0 1-.774.429 1.091 1.091 0 0 1-1.021-1.216 1.141 1.141 0 0 1 1.066-1.28.758.758 0 0 1 .672.32v-1.344h.6v2.8c0 .243 0 .509.019.672zm.659-9.45a1.216 1.216 0 0 1-.992.4 1.315 1.315 0 0 1-.867-.282 1.12 1.12 0 0 1-.384-.813h.736a.714.714 0 0 0 .163.368.5.5 0 0 0 .362.134.483.483 0 0 0 .413-.2.758.758 0 0 0 .141-.483.813.813 0 0 0-.134-.48.467.467 0 0 0-.416-.2.739.739 0 0 0-.23.035.426.426 0 0 0-.256.227l-.659-.032.262-2.061h2.048v.624H35.37l-.128.816a1.6 1.6 0 0 1 .262-.147 1.027 1.027 0 0 1 .384-.061 1.123 1.123 0 0 1 1.152 1.219 1.427 1.427 0 0 1-.346.928zm2.976 0a1.139 1.139 0 0 1-.96.4 1.123 1.123 0 0 1-1.037-.586 2.467 2.467 0 0 1-.256-1.19 6.57 6.57 0 0 1 .032-.694 2.166 2.166 0 0 1 .25-.794 1.354 1.354 0 0 1 .419-.432 1.139 1.139 0 0 1 .618-.163 1.232 1.232 0 0 1 .829.266 1 1 0 0 1 .349.707h-.737a.352.352 0 0 0-.067-.2.4.4 0 0 0-.358-.173.522.522 0 0 0-.506.4 2.6 2.6 0 0 0-.118.659.813.813 0 0 1 .32-.24 1.111 1.111 0 0 1 .41-.07 1.075 1.075 0 0 1 .819.32 1.238 1.238 0 0 1 .32.861 1.466 1.466 0 0 1-.33.947zm3.274-2.806a5.933 5.933 0 0 0-.96 1.434 5.258 5.258 0 0 0-.278.854 3.338 3.338 0 0 0-.128.816h-.765a4.55 4.55 0 0 1 .659-2.08 4.624 4.624 0 0 1 .678-.938H40.32v-.659h2.634zm5.459 2.88a1.376 1.376 0 0 1-.96.32 1.28 1.28 0 0 1-.96-.32 1.11 1.11 0 0 1-.32-.8 1.162 1.162 0 0 1 .141-.566.874.874 0 0 1 .413-.384.886.886 0 0 1-.346-.39 1.03 1.03 0 0 1-.086-.39.909.909 0 0 1 .32-.694 1.225 1.225 0 0 1 .867-.288 1.206 1.206 0 0 1 .858.288.909.909 0 0 1 .32.694 1.085 1.085 0 0 1-.083.39.746.746 0 0 1-.349.365 1.046 1.046 0 0 1 .416.41 1.2 1.2 0 0 1 .138.566 1.072 1.072 0 0 1-.378.806zm3.12-.518a1.2 1.2 0 0 1-1.206.858 1.232 1.232 0 0 1-.755-.25 1 1 0 0 1-.384-.72h.733a.41.41 0 0 0 .141.262.394.394 0 0 0 .3.106.525.525 0 0 0 .509-.4 2.484 2.484 0 0 0 .1-.64.861.861 0 0 1-.214.2 1 1 0 0 1-.506.122 1.139 1.139 0 0 1-.787-.32 1.114 1.114 0 0 1-.346-.883 1.373 1.373 0 0 1 .346-.96 1.19 1.19 0 0 1 .9-.371 1.149 1.149 0 0 1 1.165.755 2.8 2.8 0 0 1 .186 1.12 3.289 3.289 0 0 1-.189 1.136zm2.342.749h-.758v-2.56h-.88v-.5a3.015 3.015 0 0 0 .49-.045.71.71 0 0 0 .358-.192.848.848 0 0 0 .173-.416h.608zm3.651 0h-2.56a1.782 1.782 0 0 1 .176-.739 2.1 2.1 0 0 1 .739-.784 6.463 6.463 0 0 0 .659-.518.781.781 0 0 0 .224-.538.592.592 0 0 0-.128-.39.461.461 0 0 0-.378-.157.454.454 0 0 0-.451.25 1.28 1.28 0 0 0-.086.458h-.714a1.722 1.722 0 0 1 .176-.768 1.069 1.069 0 0 1 1.037-.563 1.334 1.334 0 0 1 .944.32 1.139 1.139 0 0 1 .346.867 1.152 1.152 0 0 1-.243.736 2.592 2.592 0 0 1-.534.477l-.294.2c-.182.131-.32.227-.378.282a.893.893 0 0 0-.17.208h1.626zm-4.371-13.024a6.16 6.16 0 0 1-1.091-2.24 6.291 6.291 0 0 1-.2-1.482 6.144 6.144 0 0 1 9.75-5 6.042 6.042 0 0 1 7.178-.352 6.269 6.269 0 0 1 1.92 2.067 6.115 6.115 0 0 1-8.842 8.054 6.08 6.08 0 0 1-8.72-1.043zm9.885 12.762a1.242 1.242 0 0 1-.96.362 1.174 1.174 0 0 1-1.1-.518 1.536 1.536 0 0 1-.182-.72h.72a.8.8 0 0 0 .074.371.49.49 0 0 0 .486.269.518.518 0 0 0 .371-.147.534.534 0 0 0 .16-.426.483.483 0 0 0-.3-.49 1.581 1.581 0 0 0-.528-.067v-.522a1.5 1.5 0 0 0 .5-.074.429.429 0 0 0 .237-.432.464.464 0 0 0-.122-.349.448.448 0 0 0-.349-.134.461.461 0 0 0-.384.163.758.758 0 0 0-.115.442h-.682a1.949 1.949 0 0 1 .1-.531 1.3 1.3 0 0 1 .282-.4 1.21 1.21 0 0 1 .342-.2 1.619 1.619 0 0 1 .486-.067 1.309 1.309 0 0 1 .861.275.922.922 0 0 1 .32.742.838.838 0 0 1-.2.557.64.64 0 0 1-.256.189c.067 0 .16.061.288.176a.906.906 0 0 1 .282.707 1.187 1.187 0 0 1-.333.829zm3.293-.531h-.416v.8h-.714v-.8h-1.475v-.64l1.373-2.259h.816v2.326h.422zm2.56.5a1.216 1.216 0 0 1-.992.4 1.315 1.315 0 0 1-.874-.282 1.082 1.082 0 0 1-.378-.813h.726a.714.714 0 0 0 .163.368.543.543 0 0 0 .774-.061.749.749 0 0 0 .141-.483.768.768 0 0 0-.128-.48.47.47 0 0 0-.416-.2.739.739 0 0 0-.23.035.426.426 0 0 0-.256.227l-.659-.032.262-2.061h2.048v.624h-1.525l-.134.816a1.6 1.6 0 0 1 .269-.147 1.027 1.027 0 0 1 .384-.061 1.139 1.139 0 0 1 .8.32 1.155 1.155 0 0 1 .349.909 1.427 1.427 0 0 1-.333.912zm2.976 0a1.149 1.149 0 0 1-.96.4 1.1 1.1 0 0 1-1.037-.589 2.378 2.378 0 0 1-.262-1.19 4.977 4.977 0 0 1 .038-.688 2.128 2.128 0 0 1 .25-.794 1.312 1.312 0 0 1 .419-.438 1.12 1.12 0 0 1 .614-.163 1.229 1.229 0 0 1 .829.266 1.024 1.024 0 0 1 .349.707h-.752a.381.381 0 0 0-.064-.2.416.416 0 0 0-.362-.176.525.525 0 0 0-.506.4 2.72 2.72 0 0 0-.115.64.79.79 0 0 1 .32-.24 1.1 1.1 0 0 1 .41-.07 1.085 1.085 0 0 1 .816.32 1.226 1.226 0 0 1 .32.861 1.456 1.456 0 0 1-.314.954z" class="cls-9" data-name="Path 680"/>
            <path id="Path_681" d="M35.414 130.083c-.387 0-.6.342-.6.784s.214.758.6.758a.534.534 0 0 0 .518-.426.761.761 0 0 0 .019-.176v-.358a.906.906 0 0 0 0-.16.528.528 0 0 0-.537-.422z" class="cls-9" data-name="Path 681"/>
            <path id="Path_682" d="M21.357 130.083c-.387 0-.6.342-.6.784s.214.758.6.758a.534.534 0 0 0 .518-.426.761.761 0 0 0 .019-.176v-.358a.906.906 0 0 0 0-.16.528.528 0 0 0-.534-.422z" class="cls-9" data-name="Path 682"/>
            <path id="Path_683" d="M75.706 85.99h-.019l-.96-1.222L73.19 86.3l.173.256-.2.045s3.1 5.987 3.616 3.715a5.787 5.787 0 0 0-1.073-4.326z" class="cls-10" data-name="Path 683"/>
            <path id="Path_684" d="M82.176 64.608s5.648 1.7 13.562-.848 24.3 3.674 24.3 3.674 13 0 32.214-8.2c0 0-8.758 8.477-2.56 13.562s.566 12.435-6.781 15.261-7.91 8.477-7.36 13.846 0 .282 0 .282-22.042-3.955-27.693 9.6l-27.944-44.07s-1.696-3.395 2.262-3.107z" class="cls-8" data-name="Path 684"/>
            <g id="Group_180" class="cls-11" data-name="Group 180">
                <path id="Path_685" d="M68.173 56.288l70.358 50.579 4.24-12.432z" class="cls-12" data-name="Path 685"/>
                <path id="Path_686" d="M72.41 72.112l39 39.562 5.651-4.24z" class="cls-12" data-name="Path 686"/>
            </g>
            <g id="Group_181" class="cls-13" data-name="Group 181">
                <path id="Path_688" d="M83.808 68.6s5.651 1.7 13.562-.848 24.3 3.674 24.3 3.674 10.515 0 26.611-5.962a19.925 19.925 0 0 1 4.189-6.189c-19.219 8.2-32.214 8.2-32.214 8.2s-16.39-6.218-24.3-3.674-13.565.848-13.565.848c-3.955-.282-2.259 3.107-2.259 3.107l1.162 1.834c.242-.627.917-1.11 2.514-.99z" data-name="Path 688"/>
                <path id="Path_689" d="M149.93 72.835a7.124 7.124 0 0 1-.81-.774 5.573 5.573 0 0 0 2.224 4.73 8.929 8.929 0 0 1 1.248 1.235 6.376 6.376 0 0 0-2.662-5.191z" data-name="Path 689"/>
            </g>
            <path id="Path_690" d="M92.435 125.187l-.522 2.608H89.83l.522-3.648z" class="cls-10" data-name="Path 690"/>
            <path id="Path_691" d="M92.39 125.549l-.144.442-2.058-.589.147-.294z" class="cls-12" data-name="Path 691"/>
            <path id="Path_692" d="M78.893 125.187l.522 2.608H81.5l-.522-3.648z" class="cls-10" data-name="Path 692"/>
            <path id="Path_693" d="M78.886 125.549l.147.586 2.054-.733v-.294z" class="cls-12" data-name="Path 693"/>
            <path id="Path_694" d="M96.842 54.31a5.8 5.8 0 0 0-1.891-4.048c-1.834-1.437-.461 5.162-.461 5.162z" class="cls-10" data-name="Path 694"/>
            <path id="Path_695" d="M81.5 127.274h-2.6l-.518 1.565s-2.662-.058-2.6.518 1.5 1.565 5.206.522l1.043-1.04s.507-.519-.531-1.565z" class="cls-14" data-name="Path 695"/>
            <path id="Path_696" d="M89.83 127.274h2.6l.522 1.565s2.662-.058 2.6.518-1.5 1.565-5.21.522l-1.04-1.04s-.515-.519.528-1.565z" class="cls-14" data-name="Path 696"/>
            <path id="Path_697" d="M92.95 91.859H78.374c-4.746 12.5-4.16 18.24-4.16 18.24l4.16 15.626 3.126-.525-3.126-15.619c2.6-2.141 7.29-10.416 7.29-10.416s4.685 8.269 7.286 10.416l-3.13 15.622 3.13.522 4.16-15.625s.59-5.742-4.16-18.241z" class="cls-15" data-name="Path 697"/>
            <path id="Path_698" d="M78.374 92.061s8.269 3.13 14.579 0z" class="cls-12" data-name="Path 698"/>
            <path id="Path_699" d="M77.914 73.162l-4.16 4.16 1.565 8.32-2.083 1.565-3.652-10.919s-1.1-2.022.518-3.126l6.253-6.253s2.682-1.8 4.525-.874-3 7.062-3 7.062" class="cls-9" data-name="Path 699"/>
            <path id="Path_700" d="M77.85 73.11l.522 18.749s8.269 3.13 14.582 0l-.522-17.648-.131-.582.1-.288 6.256-5.181c1.715-.944.81-3.062.81-3.062l-2.619-11.229-2.221 1.363.784 8.448-4.458 3.68h-.112v.029l-11.424-.522" class="cls-9" data-name="Path 700"/>
            <rect id="Rectangle_400" width="4.166" height="4.688" class="cls-10" data-name="Rectangle 400" rx="1.77" transform="translate(83.61 64.288)"/>
            <path id="Path_701" d="M83.741 66.288a4.688 4.688 0 0 0 4.026-.448 2.1 2.1 0 0 0-1.958-1.373 2.093 2.093 0 0 0-2.068 1.821z" class="cls-12" data-name="Path 701"/>
            <circle id="Ellipse_191" cx="4.688" cy="4.688" r="4.688" class="cls-10" data-name="Ellipse 191" transform="translate(80.483 56.995)"/>
            <path id="Path_702" d="M81.92 59.1a2.435 2.435 0 0 1-.874-.048 1.952 1.952 0 0 1-.726-.49 3.5 3.5 0 0 1-1.126-2.221 2.32 2.32 0 0 1 1.069-2.163 3.326 3.326 0 0 1 3.328.522c.854.56 1.872 1.28 2.787.832a6.238 6.238 0 0 0 .81-.592 2.77 2.77 0 0 1 3.5.586 4.667 4.667 0 0 1 .96 3.642 15.806 15.806 0 0 1-1.091 3.709 1.824 1.824 0 0 1-.352.64c-.547.563-1.578.125-1.939-.573-.64-1.219 0-3.328-1.488-4.038-1.2-.548-3.578.108-4.858.194z" class="cls-12" data-name="Path 702"/>
            <path id="Path_703" d="M81.987 58.982a2.512 2.512 0 0 1-.874-.048 1.952 1.952 0 0 1-.736-.483 3.5 3.5 0 0 1-1.126-2.221 2.317 2.317 0 0 1 1.069-2.15 3.319 3.319 0 0 1 3.328.522c.854.56 1.872 1.28 2.787.832a6.238 6.238 0 0 0 .81-.592 2.767 2.767 0 0 1 3.5.586 4.666 4.666 0 0 1 .96 3.638 15.776 15.776 0 0 1-1.094 3.712 1.814 1.814 0 0 1-.349.64c-.55.563-1.581.125-1.942-.576-.64-1.216 0-3.325-1.485-4.035-1.184-.567-3.577.093-4.848.175z" class="cls-14" data-name="Path 703"/>
            <ellipse id="Ellipse_192" cx=".522" cy="1.04" class="cls-10" data-name="Ellipse 192" rx=".522" ry="1.04" transform="translate(87.254 60.643)"/>
            <path id="Path_704" d="M77.859 73.11l1.322.618-1.322 1.616z" class="cls-12" data-name="Path 704"/>
            <path id="Path_705" d="M92.39 73.338l-.88.979.589.88.342-.979z" class="cls-12" data-name="Path 705"/>
            <path id="Path_706" d="M85.76 68.56v.848s-6.186-1.13-6.342-2.826l4.083.282z" class="cls-8" data-name="Path 706"/>
            <path id="Path_707" d="M85.76 68.56v.848s6.186-1.13 6.342-2.826l-4.1.3z" class="cls-8" data-name="Path 707"/>
            <path id="Path_708" d="M123.555 77.763l20.346 4.8-7.347 3.11z" class="cls-12" data-name="Path 708"/>
            <path id="Path_709" d="M79.43 66.624s0-1.776 1.184-1.776 2.368 3.552 2.368 3.552z" class="cls-8" data-name="Path 709"/>
        </g>
    </g>
</svg>
