<svg xmlns="http://www.w3.org/2000/svg" xmlns:xlink="http://www.w3.org/1999/xlink" viewBox="0 0 160 160">
    <defs>
        <style>
            .cls-1,.cls-10,.cls-20{fill:#fff}.cls-2{clip-path:url(#clip-path)}.cls-3,.cls-8{fill:#2b3991}.cls-17,.cls-3{opacity:.1}.cls-4{fill:none;stroke:#263238;stroke-miterlimit:10;stroke-width:1.36px}.cls-5{fill:url(#linear-gradient)}.cls-6{fill:#263238}.cls-7{fill:url(#linear-gradient-2)}.cls-9{fill:url(#linear-gradient-3)}.cls-10{opacity:.5}.cls-11{fill:#ffe0d6}.cls-12,.cls-15,.cls-19,.cls-20{opacity:.2}.cls-13{fill:#242449}.cls-14{fill:#f7931d}.cls-16{fill:#535461}.cls-18{fill:#383f4d}.cls-19{fill:#e75f7e}.cls-21{fill:snow}
        </style>
        <clipPath id="clip-path">
            <path id="Rectangle_2" d="M0 0h160v160H0z" class="cls-1" data-name="Rectangle 2" transform="translate(445 747)"/>
        </clipPath>
        <linearGradient id="linear-gradient" x1="-.485" x2="-.485" y1="-5.84" y2="-5.003" gradientUnits="objectBoundingBox">
            <stop offset="0" stop-color="gray" stop-opacity=".251"/>
            <stop offset=".54" stop-color="gray" stop-opacity=".122"/>
            <stop offset="1" stop-color="gray" stop-opacity=".102"/>
        </linearGradient>
        <linearGradient id="linear-gradient-2" x1=".416" x2=".416" y1="-16.708" y2="-14.283" xlink:href="#linear-gradient"/>
        <linearGradient id="linear-gradient-3" x1=".978" x2=".978" y1="-5.434" y2="-4.542" xlink:href="#linear-gradient"/>
    </defs>
    <g id="img-bedava-bilet" class="cls-2" transform="translate(-445 -747)">
        <g id="Homepage-Icons-05" transform="translate(445 748.915)">
            <path id="Path_527" d="M92.96 31.12c-10.256-.358-20.026-3.667-29.354-7.29s-18.56-7.638-28.579-9.558c-6.442-1.235-13.8-1.408-18.992 2.048-5 3.325-6.608 9.053-7.475 14.374-.64 4-1.037 8.218.752 11.965 1.242 2.6 3.446 4.8 4.97 7.283 5.306 8.672 1.555 19.366-4.192 27.84-2.694 3.974-5.824 7.766-7.9 11.99s-3.048 9.07-1.23 13.383 6.1 7.488 10.762 9.744c9.462 4.589 20.6 5.9 31.478 6.646 24.064 1.645 48.253.931 72.381.218 8.928-.262 17.9-.531 26.678-1.92 4.88-.768 9.92-1.984 13.456-4.922a11.27 11.27 0 0 0 2.6-14.72c-5.053-7.843-19.021-9.792-22.557-18.208-1.942-4.637.054-9.8 2.88-14.08 6.061-9.219 16.218-17.306 16.752-27.84.368-7.235-4.515-14.483-12.067-17.92-7.914-3.59-18.88-3.139-24.723 2.8-6.018 6.125-16.581 8.481-25.64 8.167z" class="cls-3" data-name="Path 527"/>
            <path id="Line_1" d="M0 8.474L1.194 0" class="cls-4" data-name="Line 1" transform="translate(91.338 20.31)"/>
            <path id="Path_528" d="M85.034 83.341l-3.19-.3 9.139-63.92 3.434.368z" class="cls-5" data-name="Path 528"/>
            <path id="Rectangle_366" d="M0 0h55.126v1.424H0z" class="cls-6" data-name="Rectangle 366" transform="rotate(-81.39 89.595 -6.61)"/>
            <path id="Path_529" d="M135.731 46.6C85.315 3.6 42.2 36.138 42.2 36.138z" class="cls-7" data-name="Path 529"/>
            <path id="Path_530" d="M132.726 45.4c-46.941-40-87.1-9.7-87.1-9.7z" class="cls-8" data-name="Path 530"/>
            <path id="Path_531" d="M29.347 71.142l2.573 7.843 2.694 8.221 2.573 7.843 2.694 8.218 2.573 7.843 2.7 8.221 2.573 7.843 2.694 8.218 2.573 7.843 2.451 7.472 43.75-14.349-2.451-7.472-2.573-7.843-2.694-8.221-2.577-7.843-2.7-8.218-2.573-7.843-2.689-8.218-2.573-7.846-2.695-8.217-2.57-7.843z" class="cls-9" data-name="Path 531"/>
            <path id="Rectangle_367" d="M0 0h44.086v80.95H0z" class="cls-8" data-name="Rectangle 367" transform="rotate(-18.2 240.129 -60.303)"/>
            <path id="Rectangle_368" d="M0 0h44.086v7.981H0z" class="cls-10" data-name="Rectangle 368" transform="rotate(-18.2 240.131 -60.319)"/>
            <path id="Rectangle_369" d="M0 0h44.086v7.981H0z" class="cls-10" data-name="Rectangle 369" transform="rotate(-18.2 291.202 -68.439)"/>
            <path id="Rectangle_370" d="M0 0h44.086v7.981H0z" class="cls-10" data-name="Rectangle 370" transform="rotate(-18.2 342.273 -76.584)"/>
            <path id="Rectangle_371" d="M0 0h44.086v7.981H0z" class="cls-10" data-name="Rectangle 371" transform="rotate(-18.2 393.346 -84.717)"/>
            <path id="Rectangle_372" d="M0 0h44.086v7.981H0z" class="cls-10" data-name="Rectangle 372" transform="rotate(-18.2 444.414 -92.863)"/>
            <path id="Path_532" d="M63.958 91.222s8.256-10.72 2.08-13.7a20.02 20.02 0 0 0-12.6-1.261l.64 1.984s15.734 1.638 5.837 10.483z" class="cls-11" data-name="Path 532"/>
            <path id="Path_533" d="M50.909 95.5s-13-3.741-9.789-9.8a20.035 20.035 0 0 1 9.44-8.486l.64 1.984S39.491 89.834 52.7 91.1z" class="cls-11" data-name="Path 533"/>
            <path id="Path_534" d="M41.664 85.52a20.025 20.025 0 0 1 8.89-8.256v-.054a20.1 20.1 0 0 0-9.415 8.49c-3.213 6.054 9.789 9.8 9.789 9.8l.125-.3c-2.211-.714-12.253-4.282-9.389-9.68z" class="cls-12" data-name="Path 534"/>
            <path id="Path_535" d="M65.5 77.7a20.034 20.034 0 0 0-12.054-1.386v-.054a20.113 20.113 0 0 1 12.611 1.261c6.173 2.973-2.077 13.7-2.077 13.7l-.285-.17C65.027 89.168 71 80.355 65.5 77.7z" class="cls-12" data-name="Path 535"/>
            <circle id="Ellipse_167" cx="10.262" cy="10.262" r="10.262" class="cls-13" data-name="Ellipse 167" transform="translate(42.784 69.722)"/>
            <path id="Path_536" d="M62.819 109.779c-3.677 1.2-6.49 2.794-7.68-.874L51.226 97a7.04 7.04 0 0 1 4.48-8.87 7.04 7.04 0 0 1 8.874 4.48l3.914 11.914c1.206 3.665-2.001 4.042-5.675 5.255z" class="cls-14" data-name="Path 536"/>
            <g id="Group_136" class="cls-15" data-name="Group 136">
                <path id="Path_537" d="M63.36 109.6l-.272.09c.909-.291 1.779-.538 2.56-.8-.717.23-1.491.448-2.288.71z" data-name="Path 537"/>
                <path id="Path_538" d="M55.68 108.72l-3.914-11.91A7.04 7.04 0 0 1 56 88.029c-.09.026-.179.051-.272.083a7.04 7.04 0 0 0-4.48 8.87l3.914 11.91c.944 2.88 2.88 2.525 5.44 1.658-2.33.74-4.055.842-4.922-1.83z" data-name="Path 538"/>
            </g>
            <path id="Path_539" d="M68.819 105.5s8.458 7.3 8.506 13.629a24.426 24.426 0 0 0 .2 3.094l.928 9.018-3.84 1.066-1.494-11.3a3.84 3.84 0 0 0-.7-1.75l-3.28-4.48a2.826 2.826 0 0 0-3.168-1.021 2.826 2.826 0 0 0-1.8 3.571 2.5 2.5 0 0 0 .15.371l3.315 6.72 3.062 14.2-3.818 1.222s-3.2-10.954-5.872-16.074a110.817 110.817 0 0 1-5.459-13.907z" class="cls-16" data-name="Path 539"/>
            <rect id="Rectangle_373" width="3.04" height="5.699" class="cls-11" data-name="Rectangle 373" rx="1.36" transform="rotate(-18.2 295.077 -123.802)"/>
            <path id="Path_540" d="M53.741 86.982a2.718 2.718 0 0 0 2.851-.925" class="cls-12" data-name="Path 540"/>
            <circle id="Ellipse_168" cx="7.03" cy="7.03" r="7.03" class="cls-11" data-name="Ellipse 168" transform="translate(46.016 72.954)"/>
            <path id="Path_541" d="M46.461 75.146s.64 5.594 12.5-.3l-4.368-3.571-4.269.406z" class="cls-13" data-name="Path 541"/>
            <path id="Path_542" d="M56.1 82.582c.131.4-.6 1.194-1.69 1.555s-2.15.147-2.282-.253.71-.832 1.808-1.19 2.032-.502 2.164-.112z" class="cls-1" data-name="Path 542"/>
            <rect id="Rectangle_374" width="1.52" height=".381" class="cls-17" data-name="Rectangle 374" rx=".17" transform="rotate(-18.2 279.852 -123.796)"/>
            <circle id="Ellipse_169" cx=".381" cy=".381" r=".381" class="cls-18" data-name="Ellipse 169" transform="translate(49.005 78.803)"/>
            <circle id="Ellipse_170" cx=".381" cy=".381" r=".381" class="cls-18" data-name="Ellipse 170" transform="translate(55.142 76.79)"/>
            <path id="Path_543" d="M47.139 79.04l.525 1.6a.678.678 0 0 0 .851.435l2.685-.883a.682.682 0 0 0 .438-.851l-.525-1.6a.678.678 0 0 0-.874-.429l-2.675.877a.682.682 0 0 0-.425.851zm3.616 1.008l-1.958.64a.682.682 0 0 1-.851-.435l-.346-1.069a.682.682 0 0 1 .435-.851l1.958-.64a.678.678 0 0 1 .848.435l.349 1.072a.682.682 0 0 1-.438.851z" class="cls-14" data-name="Path 543"/>
            <rect id="Rectangle_375" width="3.421" height="2.659" class="cls-19" data-name="Rectangle 375" rx=".608" transform="rotate(-18.2 268.858 -108.654)"/>
            <path id="Path_544" d="M51.27 78.643l-.17-.1s1.152-1.622 2.653-.864l-.083.17c-1.34-.681-2.361.737-2.4.794z" class="cls-14" data-name="Path 544"/>
            <ellipse id="Ellipse_171" cx=".57" cy="1.331" class="cls-11" data-name="Ellipse 171" rx=".57" ry="1.331" transform="rotate(-4.97 911.048 -642.006)"/>
            <ellipse id="Ellipse_172" cx=".57" cy="1.331" class="cls-11" data-name="Ellipse 172" rx=".57" ry="1.331" transform="rotate(-31.35 167.515 -39.844)"/>
            <path id="Path_545" d="M46.749 74.88l-.288.259s.64 5.594 12.5-.3l-.435-.358c-9.326 4.466-11.352 1.548-11.777.399z" class="cls-20" data-name="Path 545"/>
            <path id="Path_546" d="M53.277 77.027l.522 1.6a.682.682 0 0 0 .851.435l2.678-.877a.682.682 0 0 0 .435-.851l-.515-1.6a.685.685 0 0 0-.848-.434l-2.678.864a.678.678 0 0 0-.442.854zm3.613 1.008l-1.955.64a.682.682 0 0 1-.854-.435l-.352-1.072a.678.678 0 0 1 .435-.848l1.958-.64a.682.682 0 0 1 .851.435l.349 1.072a.682.682 0 0 1-.435.851z" class="cls-14" data-name="Path 546"/>
            <rect id="Rectangle_376" width="3.421" height="2.659" class="cls-19" data-name="Rectangle 376" rx=".608" transform="rotate(-18.2 265.647 -128.855)"/>
            <g id="Group_137" class="cls-15" data-name="Group 137">
                <path id="Path_547" d="M61.731 123.539a109.752 109.752 0 0 1-5.459-13.907l-.723.237a109.444 109.444 0 0 0 5.462 13.907c2.682 5.12 5.869 16.064 5.869 16.064l.723-.237s-3.193-10.963-5.872-16.064z" data-name="Path 547"/>
            </g>
            <path id="Path_548" d="M66.88 139.84l1.194 3.6 5.651-.454a1.176 1.176 0 0 0-.592-1.8 6.389 6.389 0 0 1-2.454-2.6z" class="cls-21" data-name="Path 548"/>
            <path id="Path_549" d="M74.493 131.347l-.362 3.331 5.354 1.862a1.177 1.177 0 0 0 .186-1.891 6.363 6.363 0 0 1-1.19-3.363z" class="cls-21" data-name="Path 549"/>
            <path id="Path_550" d="M67.242 139.725l-.362.115 1.19 3.6 5.651-.454.051-.093-5.344.429z" class="cls-12" data-name="Path 550"/>
            <ellipse id="Ellipse_173" cx="15.84" cy="55.814" class="cls-3" data-name="Ellipse 173" rx="15.84" ry="55.814" transform="rotate(-86.98 66.036 37.327)"/>
            <circle id="Ellipse_174" cx="5.443" cy="5.443" r="5.443" class="cls-14" data-name="Ellipse 174" transform="translate(135.731 28.784)"/>
        </g>
    </g>
</svg>
