<svg xmlns="http://www.w3.org/2000/svg" xmlns:xlink="http://www.w3.org/1999/xlink" viewBox="0 0 160 160">
  <defs>
    <style>
      .cls-1, .cls-28 {
        fill: #fff;
      }

      .cls-2 {
        fill: none;
      }

      .cls-3 {
        fill: #f4ebe1;
      }

      .cls-4 {
        clip-path: url(#clip-path);
      }

      .cls-20, .cls-31, .cls-5, .cls-6 {
        fill: #2b3991;
      }

      .cls-19, .cls-5 {
        opacity: 0.1;
      }

      .cls-6 {
        opacity: 0.2;
      }

      .cls-7 {
        fill: #333;
      }

      .cls-8 {
        fill: #535461;
      }

      .cls-9 {
        fill: #484f5b;
      }

      .cls-10 {
        fill: #f7931d;
      }

      .cls-11 {
        fill: #fffff1;
      }

      .cls-12 {
        fill: #3d213c;
      }

      .cls-13 {
        fill: #f7c1a3;
      }

      .cls-14 {
        clip-path: url(#clip-path-2);
      }

      .cls-15 {
        clip-path: url(#clip-path-3);
      }

      .cls-16 {
        fill: #a6caa2;
      }

      .cls-17 {
        fill: #a3cedf;
      }

      .cls-18 {
        fill: #f2d263;
      }

      .cls-21 {
        fill: #455a64;
      }

      .cls-22, .cls-29 {
        fill: #c7ecf9;
      }

      .cls-23, .cls-32 {
        opacity: 0.3;
      }

      .cls-24 {
        fill: #eaefed;
      }

      .cls-25, .cls-26, .cls-27, .cls-28, .cls-29, .cls-30, .cls-31, .cls-32, .cls-33, .cls-34, .cls-35 {
        fill-rule: evenodd;
      }

      .cls-25 {
        fill: url(#linear-gradient);
      }

      .cls-26 {
        fill: #ccc;
      }

      .cls-27 {
        fill: #404041;
      }

      .cls-30 {
        fill: url(#linear-gradient-2);
      }

      .cls-33 {
        fill: #363638;
      }

      .cls-34 {
        fill: #525458;
      }

      .cls-35 {
        fill: #696b6f;
      }
    </style>
    <clipPath id="clip-path">
      <rect id="Rectangle_2" data-name="Rectangle 2" class="cls-1" width="160" height="160" transform="translate(445 747)"/>
    </clipPath>
    <clipPath id="clip-path-2">
      <path id="Path_1912" data-name="Path 1912" class="cls-2" d="M85.016,61.769l-.08-.029L74.609,66.259l-9.242-4.48-.086-.042L54.645,65.92v25.43l10.689-3.514,8.212,3.447L84.389,87.97l9.678,2.944.07-25.862Z"/>
    </clipPath>
    <clipPath id="clip-path-3">
      <rect id="Rectangle_453" data-name="Rectangle 453" class="cls-3" width="30.169" height="45.847" transform="translate(50.578 90.935) rotate(-88.89)"/>
    </clipPath>
    <linearGradient id="linear-gradient" x1="0.083" y1="0.501" x2="1.64" y2="0.501" gradientUnits="objectBoundingBox">
      <stop offset="0" stop-color="#6a8991"/>
      <stop offset="0.53" stop-color="#335c64"/>
      <stop offset="1" stop-color="#02383c"/>
    </linearGradient>
    <linearGradient id="linear-gradient-2" x1="-0.244" y1="0.5" x2="1.271" y2="0.5" gradientUnits="objectBoundingBox">
      <stop offset="0" stop-color="#bc352e"/>
      <stop offset="0.13" stop-color="#dd4d2f"/>
      <stop offset="0.21" stop-color="#be4a2b"/>
      <stop offset="0.33" stop-color="#d35a39"/>
      <stop offset="0.46" stop-color="#ec6b4e"/>
      <stop offset="0.62" stop-color="#ee5f3c"/>
      <stop offset="0.91" stop-color="#ed4e2c"/>
      <stop offset="1" stop-color="#bc4c24"/>
    </linearGradient>
  </defs>
  <g id="img-tatil-paketleri" class="cls-4" transform="translate(-445 -747)">
    <g id="Homepage-Icons-16" transform="translate(444.783 750.921)">
      <g id="Layer_1" data-name="Layer 1">
        <path id="Path_1882" data-name="Path 1882" class="cls-5" d="M93.186,31.123c-10.26-.358-20.031-3.668-29.36-7.29s-18.562-7.639-28.582-9.559c-6.442-1.235-13.8-1.408-18.994,2.048-5,3.325-6.609,9.054-7.476,14.376-.64,4-1.037,8.218.752,11.966,1.242,2.6,3.447,4.8,4.97,7.284C19.8,58.62,16.053,69.315,10.3,77.79,7.61,81.758,4.48,85.55,2.4,89.775s-3.04,9.076-1.223,13.39,6.1,7.489,10.763,9.745c9.46,4.589,20.6,5.9,31.481,6.647,24.063,1.645,48.257.931,72.384.218,8.932-.262,17.9-.531,26.684-1.92,4.877-.768,9.921-1.984,13.441-4.922a11.271,11.271,0,0,0,2.6-14.721c-5.04-7.834-19-9.783-22.543-18.2-1.946-4.637.051-9.8,2.88-14.081,6.061-9.22,16.219-17.307,16.754-27.843.368-7.236-4.516-14.485-12.068-17.922-7.911-3.591-18.882-3.139-24.726,2.8C112.811,29.081,102.243,31.437,93.186,31.123Z"/>
        <path id="Path_1883" data-name="Path 1883" class="cls-6" d="M137.613,122.472H26.982c-3.5,0-6.365.774-6.365,1.725h0c0,.656,1.376,1.229,3.383,1.52H14.254c-3.5,0-6.362.778-6.362,1.725h0c0,.96,2.88,1.725,6.362,1.725h3.4c-.96.3-1.523.688-1.523,1.114v.691c0,.96,2.88,1.722,6.362,1.722h109c3.5,0,6.362-.774,6.362-1.722v-.691c0-.96-2.88-1.725-6.362-1.725l-7.412.038a6.567,6.567,0,0,0,2.1-.362c1.078-.426,1.127-1.072.6-1.6a3.274,3.274,0,0,0-2.24-.726l13.1.022c3.5,0,6.362-.774,6.362-1.722h0C143.985,123.247,141.133,122.472,137.613,122.472Z"/>
        <path id="Path_1884" data-name="Path 1884" class="cls-7" d="M72.89,127.3l-.326,1.683-3.53,1.13-1.271-1.959,1.927-1.408,3.527-1.13Z"/>
        <path id="Path_1885" data-name="Path 1885" class="cls-8" d="M80.468,85.358l-7.306,41.431-3.3.122L67.9,98.1l-.928-14.309Z"/>
        <path id="Path_1886" data-name="Path 1886" class="cls-8" d="M90.46,84.92l-4.695,40.609-3.027.269-3.207-31.12-2.544-9.172Z"/>
        <path id="Path_1887" data-name="Path 1887" class="cls-7" d="M82.721,125.41l.147,1.747,3.428,1.456,1.488-1.888L86,125.122Z"/>
        <path id="Path_1888" data-name="Path 1888" class="cls-9" d="M67.763,86.107l-1.495-4.784L67.763,75.9l22.7.787V84.92Z"/>
        <path id="Path_1889" data-name="Path 1889" class="cls-10" d="M93.494,87.3a28.2,28.2,0,0,1-.365,3.543,2.106,2.106,0,0,1-.534,1.28,1.609,1.609,0,0,1-2.035-.2,13.681,13.681,0,0,1-1.386-1.747C87.509,88.165,84.6,87.855,82,87.695l-5.709-.355a17.616,17.616,0,0,0-5.191.192c-3.245.778-6.183,3.4-9.47,2.807a18.5,18.5,0,0,1,1.885-2.154c1.03-.848.922-.96.922-2.387q0-4.112.381-8.215c.458-4.976,2.455-9.281,3.949-13.995A61.188,61.188,0,0,1,71.2,56.623c.8-1.747,2.24-4.311,3.984-5.12a5.175,5.175,0,0,1,1.895-.358l5.853-.352a4.4,4.4,0,0,1,2.1.211,4.945,4.945,0,0,1,2.035,2.528A52.043,52.043,0,0,1,91.554,68c.586,3.543.758,7.162,1.28,10.66A46.524,46.524,0,0,1,93.494,87.3Z"/>
        <path id="Path_1890" data-name="Path 1890" class="cls-11" d="M80.03,63.827a23.423,23.423,0,0,0,.294,4.042c.5,3.815,1.28,7.588,2.058,11.351.4,1.92.806,3.84,1.194,5.761a14.365,14.365,0,0,0,.582,2.88c.051.112,1.213,1.242.723,1.36-3.84.925-7.86-1.869-11.719-.96-1.955.451-3.936,1.824-5.786,1.05a1.03,1.03,0,0,1-.563-.451,1.3,1.3,0,0,1,.08-1.014,15.934,15.934,0,0,0,1.386-4.935,41.331,41.331,0,0,1,.48-5.367,51.055,51.055,0,0,1,2.611-9.012l5.821-16.245a2.256,2.256,0,0,1,.41-.8,1.626,1.626,0,0,1,.864-.419,12.647,12.647,0,0,1,4.692-.458c.4,1.664-.96,4.618-1.447,6.193A26.91,26.91,0,0,0,80.03,63.827Z"/>
        <path id="Path_1891" data-name="Path 1891" class="cls-12" d="M75.188,40.244a6.6,6.6,0,0,0-.374,3.043.938.938,0,0,1-.141.781c-.211.2.051.55-.16.346a5.048,5.048,0,0,1-1-1.2,10.721,10.721,0,0,1-.291-2.039,2.96,2.96,0,0,1,.32-1.738,3.463,3.463,0,0,1,.742-.755,4.365,4.365,0,0,1,1.28-.822c.842-.285,1.415-.051.739.659A5.332,5.332,0,0,0,75.188,40.244Z"/>
        <path id="Path_1892" data-name="Path 1892" class="cls-13" d="M82.219,51.048l-3.52.845a21.363,21.363,0,0,1-.765-3.066c-1.059-.026-2.323-.186-2.832-1.219a3.569,3.569,0,0,1-.275-1.056l-.682-4.5a4.429,4.429,0,0,1-.048-1.562,3.1,3.1,0,0,1,1.642-1.92,6.828,6.828,0,0,1,6.18-.509,3.4,3.4,0,0,1,1.4,1.056,5.352,5.352,0,0,1,.714,2.749l.192,2.663c.074,1.018.09,2.2-.618,2.848-.374.342-.906.474-1.213.893C81.867,48.993,82.321,50.1,82.219,51.048Z"/>
        <path id="Path_1893" data-name="Path 1893" class="cls-12" d="M74.692,47.464a3.706,3.706,0,0,0,1.735,2.147,5.357,5.357,0,0,0,3.059.234l1.687-.2c1.421-.17,2.8-.557,3.316-2.151a4.592,4.592,0,0,0,.067-2.32,1.485,1.485,0,0,0-.23-.6.525.525,0,0,0-.531-.227c-.246.074-.358.365-.49.6a1.261,1.261,0,0,1-1.408.682,2.16,2.16,0,0,1-.451-.234c-.058-.038-.115-.077-.176-.112a3.648,3.648,0,0,0-1.936-.445c-.576,0-1.44-.083-1.789.461l-.611.944a1.363,1.363,0,0,1-.288.355,1.056,1.056,0,0,1-1.44-.253,1.92,1.92,0,0,1-.131-.522.848.848,0,0,0-.214-.483c-.493-.451-.5.381-.474.662A5.844,5.844,0,0,0,74.692,47.464Zm3.892-.3a1.6,1.6,0,0,0,1.44-.048c.243-.115.413.3.17.413a1.987,1.987,0,0,1-1.763.048C78.183,47.46,78.337,47.044,78.583,47.166Z"/>
        <path id="Path_1894" data-name="Path 1894" class="cls-12" d="M73,37.9a8.081,8.081,0,0,1-.378-1.075,2.24,2.24,0,0,0,1.1-.064c-.029-.218-.061-.432-.09-.64s2.384-.64,2.579-.7c1.824-.419,3.492-.806,5.306-.054a5.082,5.082,0,0,1,3.1,3.386,7.767,7.767,0,0,1-.506,5.12A10.723,10.723,0,0,0,84,42.052a3.677,3.677,0,0,0-.55-1.082,4.736,4.736,0,0,0-1.9-1.491,9.156,9.156,0,0,0-3.783-.717,9.87,9.87,0,0,0-3.693.528c-.528.227-.6.378-1.008-.128A9.518,9.518,0,0,1,72.426,38Z"/>
        <path id="Path_1895" data-name="Path 1895" class="cls-10" d="M67.184,70.275c1.187-2.256,1.84-4.688,2.931-7.041.675-1.459,1.424-2.88,2.205-4.292.221-.394,2.08-4.106,2.336-4.055a4.442,4.442,0,0,0-2.88.576,14.382,14.382,0,0,0-2.467,1.84l-1.6,1.392a3.706,3.706,0,0,0-1.28,1.773c-.858,1.975-1.786,3.917-2.589,5.914-.656,1.629-1.837,3.869-1.191,5.665.32.906.79,1.463,1.863,1.219A3.425,3.425,0,0,0,66.4,71.629C66.675,71.187,66.941,70.727,67.184,70.275Z"/>
        <path id="Path_1896" data-name="Path 1896" class="cls-1" d="M84.923,61.347l-10.3,4.509-9.1-4.407-.227-.112L54.277,65.67V91.858l11.041-3.632,8.209,3.447,10.865-3.322,10.039,3.056L94.5,64.8Z"/>
        <g id="Group_225" data-name="Group 225" class="cls-14">
          <rect id="Rectangle_451" data-name="Rectangle 451" class="cls-3" width="30.169" height="45.847" transform="translate(50.578 90.935) rotate(-88.89)"/>
          <g id="Group_224" data-name="Group 224" class="cls-15">
            <path id="Path_1897" data-name="Path 1897" class="cls-16" d="M92.876,61.4,89.685,78.663l-10.766-4.8,2.615-14.011Z"/>
            <path id="Path_1898" data-name="Path 1898" class="cls-17" d="M59.247,62.595c-.64,1.415-1,2.938-1.507,4.407a38.475,38.475,0,0,1-3.84,7.53q-1.309,2.128-2.688,4.208A7.543,7.543,0,0,0,50.1,80.888c-.4,1.53.211,3.123.816,4.586a1.306,1.306,0,0,0,1.488-.2,3.805,3.805,0,0,0,.883-1.328q2.743-5.815,4.989-11.841c1.479-3.975,3.3-8.276,4-12.465C60.806,58.655,59.7,61.619,59.247,62.595Z"/>
            <path id="Path_1899" data-name="Path 1899" class="cls-1" d="M94.5,59.526c-.64,0-1.28.022-1.92.048L86.056,94.566l1.837.342Z"/>
            <path id="Path_1900" data-name="Path 1900" class="cls-1" d="M82.5,59.02l-.938-.08-6.49,34.8.918.17Z"/>
            <path id="Path_1901" data-name="Path 1901" class="cls-1" d="M98.182,82.145,55.509,62.783l-.8.925,44.068,20.1Z"/>
            <path id="Path_1902" data-name="Path 1902" class="cls-16" d="M55.711,67.648a5.391,5.391,0,0,1-1.965,2.88c-1.2.694-2.711.358-4.007-.125a3.475,3.475,0,0,1-2.24-1.757,3.778,3.778,0,0,1,.381-2.73l2.365-5.85a2.368,2.368,0,0,1,.416-.746A2.24,2.24,0,0,1,52,58.773c1.6-.25,5.965-1,6.4,1.21.208,1.043-.64,2.416-.989,3.332Q56.568,65.485,55.711,67.648Z"/>
            <path id="Path_1903" data-name="Path 1903" class="cls-1" d="M80.347,66.6,65.766,61.01l-2.045.006,16.606,6.529Z"/>
            <path id="Path_1904" data-name="Path 1904" class="cls-1" d="M72.026,64.281l-1.783,5.188.874.4,2.115-5.111Z"/>
            <path id="Path_1905" data-name="Path 1905" class="cls-1" d="M89.7,85.269l6.788,2.893L96.46,89.81l-6.97-3.386Z"/>
            <path id="Path_1906" data-name="Path 1906" class="cls-1" d="M93.193,66.585l3.725,1.306-.054,1.021-4.116-1.4Z"/>
            <path id="Path_1907" data-name="Path 1907" class="cls-1" d="M91.9,72.711l6.058,1.354-.074,1.021-6.692-1.453Z"/>
            <path id="Path_1908" data-name="Path 1908" class="cls-1" d="M70.72,71.015,61.628,91.164l-1.6-.045,9.518-20.642Z"/>
            <path id="Path_1909" data-name="Path 1909" class="cls-1" d="M66.678,76.7,60.38,74.3l-6.874,16.69,1.181.022,6.285-14.984L77.31,84.069l.416-.989Z"/>
            <path id="Path_1910" data-name="Path 1910" class="cls-1" d="M83.285,76.5,79.268,92.517l1.84.038,3.786-16.027Z"/>
            <path id="Path_1911" data-name="Path 1911" class="cls-3" d="M90.04,60.034l-2.663,8.679-4.039-2.333.6-6.2Z"/>
            <rect id="Rectangle_452" data-name="Rectangle 452" class="cls-18" width="43.699" height="3.171" transform="matrix(0.856, 0.517, -0.517, 0.856, 49.427, 73.051)"/>
          </g>
        </g>
        <path id="Path_1913" data-name="Path 1913" class="cls-19" d="M84.606,87.775l9.463,2.88.067-25.42L85.16,62.006Z"/>
        <path id="Path_1914" data-name="Path 1914" class="cls-19" d="M65.475,87.637l8.215,3.447,1.047-24.556L65.4,62.006Z"/>
        <path id="Path_1915" data-name="Path 1915" class="cls-13" d="M43.63,106.221l-.086,7.71c.1,3.418-.426,6.855-.32,10.276a8.825,8.825,0,0,1,.029,2.394c-.2.778-.8.9-1.424.512-.838-.518-.7-1.725-.842-2.605-.384-2.423-.832-4.832-1.235-7.252-.2-1.184.211-2.845.122-4.045l-1.223-6.452Z"/>
        <path id="Path_1916" data-name="Path 1916" class="cls-8" d="M34.982,93.785l3.293,14.881.7,14.056L44.2,122.6,45.62,83.291l-10.126.186Z"/>
        <path id="Path_1917" data-name="Path 1917" class="cls-13" d="M47.761,107.3l.442,7.681c.035,2.138.32,4.256.534,6.378.2,1.971-.112,4.023.9,5.815.32.56.96.934,1.408.253.346-.525.141-1.4.208-2,.269-2.439.6-4.864.893-7.3.141-1.194-.339-2.835-.32-4.039l.922-6.5Z"/>
        <path id="Path_1918" data-name="Path 1918" class="cls-8" d="M54.37,92.876l.426,14.446-2.231,14.609-5.312.16.234-15.809L44.676,93.17l-.944-8.583,8.43-1.011Z"/>
        <path id="Path_1919" data-name="Path 1919" class="cls-13" d="M44.887,54.674l3.162.96a20.9,20.9,0,0,0,.854-2.819c.96.022,2.131-.067,2.65-1a3.482,3.482,0,0,0,.3-.96q.429-2.08.851-4.16a4.132,4.132,0,0,0,.125-1.45,2.9,2.9,0,0,0-1.4-1.875,6.12,6.12,0,0,0-5.61-.755,3.143,3.143,0,0,0-1.344.915,5.081,5.081,0,0,0-.794,2.525q-.154,1.232-.32,2.467a3.322,3.322,0,0,0,.416,2.679c.32.32.8.48,1.059.883C45.313,52.776,44.843,53.787,44.887,54.674Z"/>
        <path id="Path_1920" data-name="Path 1920" class="cls-12" d="M51.387,44.862a1.773,1.773,0,0,1,.067.256c.07.461-.115.928-.048,1.389.112.73.838,1.28.832,2.019,0,.6-.5,1.088-.64,1.674-.15.64.154,1.325-.026,1.952A4.3,4.3,0,0,1,50.52,53.8c.125-.122,1.046.093,1.312,0,.41-.16.477-.294.656-.659a8.269,8.269,0,0,1,.4-1.114c.294-.445.787-.72,1.027-1.2.32-.662.09-1.466.246-2.189.24-1.091,1.376-1.959,1.216-3.066-.093-.64-.618-1.146-.854-1.76a8.618,8.618,0,0,1-.282-1.463,1.671,1.671,0,0,0-.762-1.226c-.25-.122-.534-.141-.794-.24a10.141,10.141,0,0,1-1.2-.787,2.5,2.5,0,0,0-2.307.592,1.128,1.128,0,0,0-.067,1.5C49.6,43.079,51.026,43.87,51.387,44.862Z"/>
        <path id="Path_1921" data-name="Path 1921" class="cls-12" d="M42.846,40.068a12.68,12.68,0,0,0-1.347.6,3.653,3.653,0,0,0-1.3,2.448,17.606,17.606,0,0,0-.73,2.384,2.151,2.151,0,0,0,.512,1.651c.515.534,1.427.768,1.571,1.495.154.79-.778,1.584-.426,2.307.192.4.685.541,1.008.845a3.571,3.571,0,0,1,.662,1.312c.176.464.477.96.96,1.043a4.109,4.109,0,0,0,.083-2.055c-.115-.426-.528-1.251-.035-1.6.32-.32.96-.32,1.063-.752a1.04,1.04,0,0,0-.15-.6,2.579,2.579,0,0,1,.224-2.343,3.354,3.354,0,0,1,1.939-1.4c.922-.259.822-.49,1.213-1.258.358-.707.813-.806,1.536-.96a1.441,1.441,0,0,0,1.191-.778,1.673,1.673,0,0,0,.371-1.347,2.88,2.88,0,0,0-.7-1.03,3.71,3.71,0,0,0-2.131-1.421c-.483-.051-.96.093-1.453.035-.32-.038-.64-.163-.96-.23a2.56,2.56,0,0,0-1.639.192c-.5.246-.55.592-.877,1.008A1.642,1.642,0,0,1,42.846,40.068Z"/>
        <path id="Path_1922" data-name="Path 1922" class="cls-12" d="M45.31,37.363c.176-.5.243-1.184-.221-1.443-.253-.144-.573-.093-.845-.2-.576-.227-.64-.989-.87-1.568a.474.474,0,0,0-.154-.227.711.711,0,0,0-.387-.061c-.608-.032-.96-.7-1.479-1.014a1.431,1.431,0,0,0-1.92.566c-.138.278-.179.6-.32.874-.538,1.136-2.375,1.331-2.637,2.56-.179.829.5,1.773.038,2.49-.288.458-.986.682-1.008,1.223a.749.749,0,0,0,.64.7,1.479,1.479,0,0,0,.992-.256c.477-.285.867-.691,1.325-1a1.882,1.882,0,0,1,1.565-.362c.515.157.915.64,1.453.656.429,0,.8-.32,1.232-.346a3.865,3.865,0,0,1,1.162.285c.39.093.912-.022.992-.416a.941.941,0,0,1,.058-.285c.128-.24.56-.147.691-.387-.15-.355-.461-.294-.534-.736A2.336,2.336,0,0,1,45.31,37.363Z"/>
        <path id="Path_1923" data-name="Path 1923" class="cls-10" d="M47.1,54.037a7.767,7.767,0,0,1,4.039.074c1,.435.986,1.706,1.21,2.663,1.811,7.681,2.461,15.441,3.107,23.257l.438,5.3c.1,1.187.2,2.375.253,3.565-.266.227-.579-.2-.765-.493a2.8,2.8,0,0,0-1.2-.922,17.687,17.687,0,0,0-7.966-1.568,50.888,50.888,0,0,0-8.132.96,5.965,5.965,0,0,0-2.759.96,8.343,8.343,0,0,0-1.21,1.363,1.418,1.418,0,0,1-.832.6,1.037,1.037,0,0,1-1.034-.723,2.97,2.97,0,0,1-.064-1.354,63.786,63.786,0,0,1,3.52-15.384c.96-2.56,1.53-5.332,2.384-7.937s1.728-5.12,2.624-7.655v-.029a6.309,6.309,0,0,1,1.181-2.6c.989-1.034,1.463-.211,2.583,0A8.321,8.321,0,0,0,47.1,54.037Z"/>
        <path id="Path_1924" data-name="Path 1924" class="cls-13" d="M58.677,46.878c0-.029-.022-.054-.032-.08a6.183,6.183,0,0,0-1.735-2.24.342.342,0,0,0-.118-.07.355.355,0,0,0-.154,0,3.2,3.2,0,0,0-1.338.49.381.381,0,0,0-.2.352.454.454,0,0,0,.176.221c.118.1.48.288.509.442s-.173.227-.288.285c.054.211.112.426.17.64.032.122.061.509.157.6l1.456,1.357,1.389-.538A4.428,4.428,0,0,0,58.677,46.878Z"/>
        <path id="Path_1925" data-name="Path 1925" class="cls-10" d="M51.627,54.978a1.323,1.323,0,0,1,1.037.358,10.791,10.791,0,0,0,2.487,1.28c.554-.042,1.107-.061,1.658-.051,2.3.038,1.5-1.562,1.078-3.069-.125-.438-1.453-5.255-1.475-5.252l2.915-.39.71,1.5L62,53.512c.522,1.1,1.6,2.077,1.728,3.341.134,1.191-1.338,2.922-2.151,3.735a7.745,7.745,0,0,1-1.309.986,69.963,69.963,0,0,1-6.525,3.69.755.755,0,0,1-.32.106c-.246,0-.426-.227-.56-.438a13.169,13.169,0,0,1-1.882-8.849C51.038,55.621,51.2,55.1,51.627,54.978Z"/>
        <path id="Path_1926" data-name="Path 1926" class="cls-7" d="M41.191,125.791l-.566,1.255,2.311,2.275,2.224.214.784-1.133L43.1,125.631Z"/>
        <rect id="Rectangle_454" data-name="Rectangle 454" class="cls-20" width="16.93" height="22.799" transform="translate(44.116 66.777)"/>
        <path id="Path_1927" data-name="Path 1927" class="cls-21" d="M48.891,89.58v-5.9a3.626,3.626,0,0,1,7.249,0v5.9Z"/>
        <path id="Path_1928" data-name="Path 1928" class="cls-22" d="M52.392,80.744h.246a2.81,2.81,0,0,1,2.81,2.81v6.023H49.585V83.553a2.81,2.81,0,0,1,2.807-2.81Z"/>
        <rect id="Rectangle_455" data-name="Rectangle 455" class="cls-22" width="3.693" height="3.693" transform="translate(46.142 69.014)"/>
        <path id="Path_1929" data-name="Path 1929" class="cls-1" d="M49.617,69.014l-3.476,3.428V71.053l2.067-2.039Z"/>
        <path id="Path_1930" data-name="Path 1930" class="cls-1" d="M49.835,69.626v.694l-2.419,2.387h-.7Z"/>
        <rect id="Rectangle_456" data-name="Rectangle 456" class="cls-22" width="3.693" height="3.693" transform="translate(50.734 69.014)"/>
        <path id="Path_1931" data-name="Path 1931" class="cls-1" d="M54.21,69.014l-3.476,3.428V71.053L52.8,69.014Z"/>
        <path id="Path_1932" data-name="Path 1932" class="cls-1" d="M54.427,69.626v.694L52,72.708h-.7Z"/>
        <rect id="Rectangle_457" data-name="Rectangle 457" class="cls-22" width="3.693" height="3.693" transform="translate(55.448 69.014)"/>
        <path id="Path_1933" data-name="Path 1933" class="cls-1" d="M58.921,69.014l-3.472,3.428V71.053l2.067-2.039Z"/>
        <path id="Path_1934" data-name="Path 1934" class="cls-1" d="M59.138,69.626v.694l-2.419,2.387h-.7Z"/>
        <rect id="Rectangle_458" data-name="Rectangle 458" class="cls-22" width="3.693" height="3.693" transform="translate(46.142 74.487)"/>
        <path id="Path_1935" data-name="Path 1935" class="cls-1" d="M49.617,74.487l-3.476,3.424V76.526l2.067-2.039Z"/>
        <path id="Path_1936" data-name="Path 1936" class="cls-1" d="M49.835,75.1v.691l-2.419,2.387h-.7Z"/>
        <rect id="Rectangle_459" data-name="Rectangle 459" class="cls-22" width="3.693" height="3.693" transform="translate(50.734 74.487)"/>
        <path id="Path_1937" data-name="Path 1937" class="cls-1" d="M54.21,74.487l-3.476,3.424V76.526L52.8,74.487Z"/>
        <path id="Path_1938" data-name="Path 1938" class="cls-1" d="M54.427,75.1v.691L52,78.177h-.7Z"/>
        <rect id="Rectangle_460" data-name="Rectangle 460" class="cls-22" width="3.693" height="3.693" transform="translate(55.448 74.487)"/>
        <path id="Path_1939" data-name="Path 1939" class="cls-1" d="M58.921,74.487l-3.472,3.424V76.526l2.067-2.039Z"/>
        <path id="Path_1940" data-name="Path 1940" class="cls-1" d="M59.138,75.1v.691l-2.419,2.387h-.7Z"/>
        <rect id="Rectangle_461" data-name="Rectangle 461" class="cls-20" width="19.32" height="3.821" rx="1.805" transform="translate(42.865 62.956)"/>
        <rect id="Rectangle_462" data-name="Rectangle 462" class="cls-21" width="4.151" height="0.65" rx="0.31" transform="translate(45.915 68.368)"/>
        <rect id="Rectangle_463" data-name="Rectangle 463" class="cls-21" width="4.151" height="0.65" rx="0.31" transform="translate(45.915 73.837)"/>
        <rect id="Rectangle_464" data-name="Rectangle 464" class="cls-21" width="4.151" height="0.65" rx="0.31" transform="translate(50.507 73.837)"/>
        <rect id="Rectangle_465" data-name="Rectangle 465" class="cls-21" width="4.151" height="0.65" rx="0.31" transform="translate(50.507 68.368)"/>
        <rect id="Rectangle_466" data-name="Rectangle 466" class="cls-21" width="4.151" height="0.65" rx="0.31" transform="translate(55.218 68.368)"/>
        <rect id="Rectangle_467" data-name="Rectangle 467" class="cls-21" width="4.151" height="0.65" rx="0.31" transform="translate(55.218 73.837)"/>
        <rect id="Rectangle_468" data-name="Rectangle 468" class="cls-20" width="0.698" height="1.383" transform="translate(45.915 61.574)"/>
        <rect id="Rectangle_469" data-name="Rectangle 469" class="cls-20" width="0.698" height="1.383" transform="translate(58.572 61.574)"/>
        <rect id="Rectangle_470" data-name="Rectangle 470" class="cls-20" width="13.355" height="5.533" transform="translate(45.915 56.04)"/>
        <rect id="Rectangle_471" data-name="Rectangle 471" class="cls-23" width="13.355" height="5.533" transform="translate(45.915 56.04)"/>
        <path id="Path_1941" data-name="Path 1941" class="cls-24" d="M49.483,60.274H49V57.209h.48v1.315h.547V57.209h.49v3.066h-.49V58.962h-.547Z"/>
        <path id="Path_1942" data-name="Path 1942" class="cls-24" d="M50.834,57.945a.733.733,0,1,1,1.463,0v1.6a.733.733,0,1,1-1.463,0Zm.48,1.626c0,.218.1.3.25.3s.25-.083.25-.3V57.925c0-.221-.1-.3-.25-.3s-.25.083-.25.3Z"/>
        <path id="Path_1943" data-name="Path 1943" class="cls-24" d="M52.466,57.209h1.488v.438h-.509v2.627h-.48V57.647h-.506Z"/>
        <path id="Path_1944" data-name="Path 1944" class="cls-24" d="M54.648,58.5h.659v.438h-.659v.906h.832v.438H54.165V57.218H55.48v.438h-.832Z"/>
        <path id="Path_1945" data-name="Path 1945" class="cls-24" d="M55.778,57.209h.48v2.637h.794v.438h-1.28Z"/>
        <rect id="Rectangle_472" data-name="Rectangle 472" class="cls-21" width="0.563" height="9.054" transform="translate(52.302 80.526)"/>
        <path id="Path_1946" data-name="Path 1946" class="cls-21" d="M54.485,86.149a.275.275,0,1,1-.275-.275.275.275,0,0,1,.275.275Z"/>
        <path id="Path_1947" data-name="Path 1947" class="cls-21" d="M51.288,86.149a.278.278,0,1,1-.275-.275.275.275,0,0,1,.275.275Z"/>
        <rect id="Rectangle_473" data-name="Rectangle 473" class="cls-23" width="16.93" height="1.111" transform="translate(44.116 66.777)"/>
        <path id="Path_1948" data-name="Path 1948" class="cls-13" d="M40.295,82.344a1.09,1.09,0,0,0,.038.109,8.42,8.42,0,0,0,2.282,3.076.342.342,0,0,0,.368.093A4.352,4.352,0,0,0,44.814,85a.525.525,0,0,0,.272-.47.566.566,0,0,0-.234-.32c-.157-.134-.64-.406-.675-.618s.243-.3.4-.374c-.07-.291-.141-.579-.208-.87-.042-.166-.07-.691-.2-.813l-1.952-1.863-1.9.7A6.479,6.479,0,0,0,40.295,82.344Z"/>
        <path id="Path_1949" data-name="Path 1949" class="cls-10" d="M39.069,56.991c-.09.259-.166.518-.243.774q-1.6,5.524-3.223,11.054a4.763,4.763,0,0,0,.32,3.783l1.037,2.333q1.261,2.848,2.528,5.7l.912,2.055,3.968-.442q-1.171-4.586-2.346-9.172c-.9-3.52,2.211-7.889,3.165-11.447a8.838,8.838,0,0,0,.224-5.213c-.6-1.664-2.493-2.976-4.135-2.323A4.309,4.309,0,0,0,39.069,56.991Z"/>
        <path id="Path_1950" data-name="Path 1950" class="cls-7" d="M49.045,125.775l-.442,1.3,2.519,2.042h2.234l.672-1.2-3.1-2.483Z"/>
        <path id="Path_1951" data-name="Path 1951" class="cls-10" d="M115.787,55.685l.112.061c1.789.979,2.858,4.439,3.463,6.471a41.556,41.556,0,0,1,1.357,16.024c-.275,2.96-.682,5.9-1.146,8.842-.128.81-1.757,8-1.415,8.231a63.938,63.938,0,0,0-10.919-6.02c-3.84-1.539-8-.134-12.129.262,2.381-9.1,5.364-20.584,9.034-29.19a24.384,24.384,0,0,1,1.367-3.1c.666-1.1,1.491-1.338,2.56-1.9a6.426,6.426,0,0,1,1.13-.5A9.232,9.232,0,0,1,115.787,55.685Z"/>
        <path id="Path_1952" data-name="Path 1952" class="cls-13" d="M96.169,55.116l-.851-2.8,1.162-.419,1,1.783.458-.458.442,2.487-1.149.6Z"/>
        <path id="Path_1953" data-name="Path 1953" class="cls-10" d="M106.848,56.3l-5.277,5.264-3.066-6.753L96.287,56.13l3.658,14.344,9.713-7.181Z"/>
        <path id="Path_1954" data-name="Path 1954" class="cls-13" d="M116.654,85.65l-3.194,20.565,1.139,15.278-2.327.726-2.087-14.149-4.442-25.087Z"/>
        <path id="Path_1955" data-name="Path 1955" class="cls-7" d="M112.273,122.219l-.256,1.539.586,2.925,1.92-.163.362-4.333-.285-.694Z"/>
        <path id="Path_1956" data-name="Path 1956" class="cls-13" d="M97.836,85.038l1.027,17.445,4.343,24.383,2.352-.029-1.046-22.607,3.053-20.844Z"/>
        <path id="Path_1957" data-name="Path 1957" class="cls-7" d="M103.245,126.45l-3.008,1.975.374,1.475,5.508-1.178-.448-2.128Z"/>
        <path id="Path_1958" data-name="Path 1958" class="cls-8" d="M97.318,87.653l.1,20.248,2.768,13.649,6.308-.912-.186-15.777,1.309-17.333-.646-2.624-9.121.928Z"/>
        <path id="Path_1959" data-name="Path 1959" class="cls-8" d="M108.506,105.159l1.952,14.36,5.482-.765-1.258-13.668,2.035-17.48-1.194-4.733-9.214,1.389Z"/>
        <path id="Path_1960" data-name="Path 1960" class="cls-10" d="M96.844,88.917c7.009.506,15.918,3.159,20.936,5.2,1.629-10.388-.419-22.495-1.6-32.912-.218-1.888-.211-4.512-.89-5.463-1.159-1.616-5.149-1.552-6.426.253-1.863,2.64-2.733,7.124-3.805,10.193C102.621,73.14,98.7,81.787,96.844,88.917Z"/>
        <path id="Path_1961" data-name="Path 1961" class="cls-25" d="M129.378,77.246a6.25,6.25,0,0,1,1.335,2.666S128.415,78.926,129.378,77.246Z"/>
        <path id="Path_1962" data-name="Path 1962" class="cls-26" d="M129.34,77.441l.832,1.139-.33-.272.115.33.176.115.115.2v.211h-.077l.192.115v.115l-.038.058h-.25l-.176-.192-.288-.211-.291-.31v-.307l-.1-.349Z"/>
        <path id="Path_1963" data-name="Path 1963" class="cls-27" d="M131.305,85.192l1-.058-1.408-4.544-5.085-2.125-4.692.173-20.463.086-5.777.912L93.9,85.192Z"/>
        <path id="Path_1964" data-name="Path 1964" class="cls-28" d="M116.676,70.544l-.989.234-.477.32s2.746.56,5.569,4.6l4-.49S122.283,72.327,116.676,70.544Z"/>
        <path id="Path_1965" data-name="Path 1965" class="cls-29" d="M116.676,70.544l-.989.234-.477.32s2.746.56,5.569,4.6l4-.49S122.283,72.327,116.676,70.544Z"/>
        <path id="Path_1966" data-name="Path 1966" class="cls-30" d="M95.049,73.85l-.237-.131c-.429-.022-1.92,3.437-1.28,3.952C93.522,77.671,95.564,75.633,95.049,73.85Z"/>
        <path id="Path_1967" data-name="Path 1967" class="cls-31" d="M96.191,71.463c.253-.483-1.146-.56-.883-.922,0,0,13.246-2.128,21.368,0l-.989.234a10.789,10.789,0,0,1,5.223,4.637l3.9-.432c3.412.771,7.133,1.379,8.26,5.143l-.042,3.2.349.349-.09,1.216-.432.131a7.066,7.066,0,0,1-1.411.275s.25-4.855-4.237-4.8c-4.256-.128-4.212,4.384-4.212,4.384H102.23a3.956,3.956,0,0,0-4.48-4.384c-4.116.154-3.543,4.909-3.543,4.909l-.611-.176s-.608-3.78-.736-4.951a3.7,3.7,0,0,0,.435-1.523S94.281,73.46,96.191,71.463Z"/>
        <path id="Path_1968" data-name="Path 1968" class="cls-31" d="M133.529,82.395,133.3,84.9l-.432.131a7.066,7.066,0,0,1-1.411.275s.25-4.855-4.237-4.8c-4.256-.128-4.212,4.384-4.212,4.384H102.23a3.956,3.956,0,0,0-4.48-4.384c-4.116.154-3.543,4.909-3.543,4.909l-1.018-.256s-.221-1.4-.429-2.752a8.378,8.378,0,0,1,.96-.138,4.852,4.852,0,0,1,4.445-3.463c3.421-.211,4.932,3.309,5.29,5.242l18.242-.093c1.194-6.8,8-6.353,10.58-1.677C132.256,82.273,133.132,82.344,133.529,82.395Z"/>
        <path id="Path_1969" data-name="Path 1969" class="cls-32" d="M133.529,82.395,133.3,84.9l-.432.131a7.066,7.066,0,0,1-1.411.275s.25-4.855-4.237-4.8c-4.256-.128-4.212,4.384-4.212,4.384H102.23a3.956,3.956,0,0,0-4.48-4.384c-4.116.154-3.543,4.909-3.543,4.909l-1.018-.256s-.221-1.4-.429-2.752a8.378,8.378,0,0,1,.96-.138,4.852,4.852,0,0,1,4.445-3.463c3.421-.211,4.932,3.309,5.29,5.242l18.242-.093c1.194-6.8,8-6.353,10.58-1.677C132.256,82.273,133.132,82.344,133.529,82.395Z"/>
        <path id="Path_1970" data-name="Path 1970" class="cls-29" d="M99.292,71.367c-1.3.112-1.645,3-1.847,4.244h10.523l.522-4.957c-1.706.019-7.662.131-9.2.72Zm20.444,4.244a9.6,9.6,0,0,0-8.145-4.932c-.9-.032-1.8-.042-2.669-.038l-.349,4.97Z"/>
        <path id="Path_1971" data-name="Path 1971" class="cls-31" d="M117.7,74.333a1.6,1.6,0,0,0,.173,1.738S120.3,75.114,117.7,74.333Z"/>
        <path id="Path_1972" data-name="Path 1972" class="cls-28" d="M132.492,79.559a4.666,4.666,0,0,0-2.73-2.723c-1.216-.122-1.245.768-.752,1.6S131.686,80.913,132.492,79.559Z"/>
        <path id="Path_1973" data-name="Path 1973" class="cls-28" d="M108.7,76.983V76.83a.237.237,0,0,1,.2-.259h2.307a.234.234,0,0,1,.2.256v.154Z"/>
        <path id="Path_1974" data-name="Path 1974" class="cls-28" d="M103.949,77.047v-.154c0-.144.086-.259.2-.259h2.307a.234.234,0,0,1,.2.256v.154Z"/>
        <path id="Path_1975" data-name="Path 1975" class="cls-33" d="M124.85,86.638a3.252,3.252,0,1,0-.022-4.6,3.251,3.251,0,0,0,.022,4.6Zm3.972-.64h0a2.368,2.368,0,1,1,0-3.351,2.368,2.368,0,0,1,0,3.351Z"/>
        <path id="Path_1976" data-name="Path 1976" class="cls-28" d="M127.125,81.64a2.688,2.688,0,1,1-2.675,2.7,2.688,2.688,0,0,1,2.675-2.7Z"/>
        <path id="Path_1977" data-name="Path 1977" class="cls-34" d="M127.125,81.96a2.368,2.368,0,1,0,2.381,2.355A2.368,2.368,0,0,0,127.125,81.96Z"/>
        <path id="Path_1978" data-name="Path 1978" class="cls-35" d="M127.612,84.965a.822.822,0,1,0-.582.242A.822.822,0,0,0,127.612,84.965Z"/>
        <path id="Path_1979" data-name="Path 1979" class="cls-28" d="M126.873,86.927l-.141-1.8L125.368,86.3l-.237-.214,1.162-1.373-1.792-.134v-.336l1.792-.15-1.175-1.36.237-.243,1.373,1.162.134-1.792h.336l.15,1.792,1.363-1.175.24.24-1.162,1.373,1.792.131v.339l-1.792.147,1.175,1.363-.237.24-1.389-1.184-.131,1.8Zm0-2.154h.32l.227-.227v-.32L127.193,84h-.32l-.227.227v.32Z"/>
        <path id="Path_1980" data-name="Path 1980" class="cls-33" d="M95.868,86.638a3.252,3.252,0,1,0-.026-4.6A3.251,3.251,0,0,0,95.868,86.638ZM99.84,86h0a1.762,1.762,0,1,1,.01,0Z"/>
        <path id="Path_1981" data-name="Path 1981" class="cls-28" d="M98.144,81.64a2.688,2.688,0,1,1-2.675,2.7,2.688,2.688,0,0,1,2.675-2.7Z"/>
        <path id="Path_1982" data-name="Path 1982" class="cls-34" d="M98.144,81.96a2.368,2.368,0,1,0,2.381,2.355A2.368,2.368,0,0,0,98.144,81.96Z"/>
        <path id="Path_1983" data-name="Path 1983" class="cls-35" d="M98.63,84.965a.822.822,0,1,0-.582.242A.822.822,0,0,0,98.63,84.965Z"/>
        <path id="Path_1984" data-name="Path 1984" class="cls-28" d="M97.888,86.927l-.15-1.792-1.36,1.175-.24-.237L97.3,84.7l-1.8-.134v-.336l1.792-.15-1.175-1.36.237-.243,1.373,1.162.131-1.792H98.2l.15,1.792,1.36-1.175.24.24-1.159,1.373,1.792.131v.339l-1.8.147,1.178,1.363-.24.24-1.37-1.168-.131,1.8Zm0-2.154h.32l.224-.227v-.32L98.2,84h-.32l-.224.227v.32Z"/>
        <path id="Path_1985" data-name="Path 1985" class="cls-13" d="M117.093,48.7c-.96-3.61-5.959-5.143-7.377-1.1a8.3,8.3,0,0,0-.544,3.792,4.086,4.086,0,0,0,1.987,3.127h.019l-.192.979a.32.32,0,0,0,0,.208.285.285,0,0,0,.2.109l1.146.243a1.245,1.245,0,0,0,.573.032,1.066,1.066,0,0,0,.64-1.014,1.845,1.845,0,0,1,.019-.32A5.42,5.42,0,0,0,117.093,48.7Z"/>
        <path id="Path_1986" data-name="Path 1986" class="cls-12" d="M109.77,48.712a4.568,4.568,0,0,0-.39,3.069c.144,1.034.029,1.994.262,2.992-.106.157-.346.054-.5-.061q-1.315-1.008-2.6-2.055a.771.771,0,0,1-.224-.243.806.806,0,0,1-.048-.419,13.229,13.229,0,0,1,2.88-7.063c.762-1.075,2.8-2.263,3.956-.979a2.16,2.16,0,0,1,.429,1.088,1.8,1.8,0,0,1,.022.7c-.211.918-1.072.867-1.744,1.162A4.65,4.65,0,0,0,109.77,48.712Z"/>
        <path id="Path_1987" data-name="Path 1987" class="cls-12" d="M116.171,50.565a8.759,8.759,0,0,1-.429,2.49c-.083.266-.592.88-.608,1.059-.045.518,1.021,1.738,1.3,2.192l5.008-2.781a.81.81,0,0,0,.336-.275.848.848,0,0,0,.08-.39,17.046,17.046,0,0,0-1.6-7.4c-1.014-2.387-3.261-4.33-5.921-4.16-2.147.134-3.648,1.719-2.864,3.933.592,1.671,2.669,2.026,3.8,3.165A2.787,2.787,0,0,1,116.171,50.565Z"/>
        <path id="Path_1988" data-name="Path 1988" class="cls-13" d="M123.346,83.544l-.979,2.6-1.117-.387.282-1.93-.608.064,1.1-2.115,1.213.243Z"/>
        <path id="Path_1989" data-name="Path 1989" class="cls-10" d="M114.571,58.655a2.506,2.506,0,0,0-.214.682,4.608,4.608,0,0,0,.707,3.066,46.308,46.308,0,0,0,3.232,4l3.52,4.628-.4,11.329,2.429.358,3.091-13.588c-1.661-1.971-3.29-3.892-4.816-5.949-1.37-1.85-2.461-4.119-4.564-5.236A2.064,2.064,0,0,0,114.571,58.655Z"/>
      </g>
    </g>
  </g>
</svg>
