<svg xmlns="http://www.w3.org/2000/svg" xmlns:xlink="http://www.w3.org/1999/xlink" viewBox="0 0 160 160">
  <defs>
    <style>
      .cls-1 {
        fill: #fff;
      }

      .cls-2 {
        clip-path: url(#clip-path);
      }

      .cls-3, .cls-8 {
        fill: #2b3991;
      }

      .cls-15, .cls-3, .cls-4, .cls-5, .cls-6 {
        opacity: 0.1;
      }

      .cls-4, .cls-5, .cls-6 {
        fill: none;
        stroke: #2b3991;
        stroke-miterlimit: 10;
      }

      .cls-4 {
        stroke-width: 0.349px;
      }

      .cls-5 {
        stroke-width: 0.413px;
      }

      .cls-6 {
        stroke-width: 0.4px;
      }

      .cls-7 {
        fill: #f7931d;
      }

      .cls-9 {
        fill: #666c91;
        opacity: 0.2;
      }

      .cls-10 {
        fill: #00cabf;
      }

      .cls-11 {
        fill: #009890;
      }

      .cls-12 {
        fill: #f4f4f4;
      }

      .cls-12, .cls-13, .cls-17, .cls-18 {
        opacity: 0.3;
      }

      .cls-13 {
        fill: #00726b;
      }

      .cls-14 {
        fill: #3d213c;
      }

      .cls-15 {
        fill: #ff9f90;
      }

      .cls-16 {
        fill: #f7c1a3;
      }

      .cls-17, .cls-19 {
        fill: #ff8652;
      }

      .cls-20 {
        fill: #f7aa2f;
      }

      .cls-21 {
        fill: #ff4e42;
      }

      .cls-22 {
        fill: #ed8e1d;
      }

      .cls-23 {
        opacity: 0.5;
      }

      .cls-24 {
        fill: #f9f7f6;
      }
    </style>
    <clipPath id="clip-path">
      <rect id="Rectangle_2" data-name="Rectangle 2" class="cls-1" width="160" height="160" transform="translate(445 747)"/>
    </clipPath>
  </defs>
  <g id="img-yat-kiralama" class="cls-2" transform="translate(-445 -747)">
    <g id="Homepage-Icons-15" transform="translate(444.783 750.653)">
      <path id="Path_1395" data-name="Path 1395" class="cls-3" d="M93.186,31.123c-10.26-.358-20.031-3.668-29.36-7.29s-18.562-7.639-28.582-9.559c-6.442-1.235-13.8-1.408-18.994,2.048-5,3.325-6.609,9.054-7.476,14.376-.64,4-1.037,8.218.752,11.966,1.242,2.6,3.447,4.8,4.97,7.284C19.8,58.62,16.053,69.315,10.3,77.79,7.61,81.758,4.48,85.55,2.4,89.775s-3.04,9.076-1.223,13.39,6.1,7.489,10.763,9.745c9.46,4.589,20.6,5.9,31.481,6.647,24.063,1.645,48.257.931,72.384.218,8.932-.262,17.9-.531,26.684-1.92,4.877-.768,9.921-1.984,13.441-4.922a11.271,11.271,0,0,0,2.6-14.721c-5.04-7.834-19-9.783-22.543-18.2-1.946-4.637.051-9.8,2.88-14.081,6.061-9.22,16.219-17.307,16.754-27.843.368-7.236-4.516-14.485-12.068-17.922-7.911-3.591-18.882-3.139-24.726,2.8C112.811,29.081,102.243,31.437,93.186,31.123Z"/>
      <path id="Path_1396" data-name="Path 1396" class="cls-3" d="M128.79,65.155a.912.912,0,0,0,.182-.509c0-1.1-2.24-2-5.031-2s-5.031.893-5.031,2a.96.96,0,0,0,.208.57c-3.095.346-5.178.992-5.178,1.735,0,1.1,4.605,2,10.3,2s10.3-.9,10.3-2C134.525,66.166,132.172,65.481,128.79,65.155Z"/>
      <path id="Path_1397" data-name="Path 1397" class="cls-3" d="M96.985,44.647a.867.867,0,0,0,.16-.49c0-1.059-2.16-1.92-4.823-1.92S87.5,43.1,87.5,44.158a.883.883,0,0,0,.189.544c-2.967.32-4.964.96-4.964,1.664,0,1.059,4.416,1.92,9.879,1.92s9.879-.861,9.879-1.92C102.486,45.617,100.24,44.961,96.985,44.647Z"/>
      <path id="Path_1398" data-name="Path 1398" class="cls-3" d="M36.426,29.4a1.018,1.018,0,0,0,.189-.579c0-1.258-2.56-2.275-5.725-2.275s-5.725,1.018-5.725,2.275a1.091,1.091,0,0,0,.237.64c-3.52.4-5.879,1.136-5.879,1.981,0,1.258,5.248,2.275,11.726,2.275S42.974,32.7,42.974,31.446C42.954,30.556,40.289,29.763,36.426,29.4Z"/>
      <path id="Path_1399" data-name="Path 1399" class="cls-4" d="M71.735,45.124a.669.669,0,0,1,.822.246,2.083,2.083,0,0,1,.285.886,2.418,2.418,0,0,1-.285,1.994A6.477,6.477,0,0,1,77.9,43.937"/>
      <path id="Path_1400" data-name="Path 1400" class="cls-5" d="M30.662,41.421a.515.515,0,0,1,.64.189,1.45,1.45,0,0,1,.218.675A1.822,1.822,0,0,1,31.3,43.8a4.954,4.954,0,0,1,4.077-3.293"/>
      <path id="Path_1401" data-name="Path 1401" class="cls-6" d="M121.947,52.776a.5.5,0,0,1,.608.182,1.443,1.443,0,0,1,.211.656,1.77,1.77,0,0,1-.211,1.472,4.8,4.8,0,0,1,3.956-3.2"/>
      <path id="Path_1402" data-name="Path 1402" class="cls-3" d="M139.565,33.014a1.018,1.018,0,0,0,.182-.563c0-1.219-2.483-2.208-5.553-2.208s-5.543.989-5.543,2.208a1.05,1.05,0,0,0,.23.64c-3.415.381-5.716,1.094-5.716,1.92,0,1.219,5.085,2.208,11.374,2.208s11.374-.989,11.374-2.208C145.9,34.131,143.313,33.373,139.565,33.014Z"/>
      <path id="Path_1403" data-name="Path 1403" class="cls-6" d="M117.451,42.394a.5.5,0,0,1,.608.179,1.456,1.456,0,0,1,.211.656,1.766,1.766,0,0,1-.211,1.472,4.8,4.8,0,0,1,3.956-3.2"/>
      <path id="Path_1404" data-name="Path 1404" class="cls-3" d="M38.048,59.574a1.047,1.047,0,0,0,.186-.563c0-1.219-2.487-2.205-5.556-2.205s-5.553.986-5.553,2.205a1.04,1.04,0,0,0,.23.64c-3.415.381-5.716,1.094-5.716,1.92,0,1.219,5.085,2.208,11.374,2.208s11.374-.989,11.374-2.208C44.382,60.69,41.8,59.935,38.048,59.574Z"/>
      <path id="Path_1405" data-name="Path 1405" class="cls-7" d="M104.56,108.388a31.213,31.213,0,0,1-6.02,18.267c-3.735,5.14-8.081,7.537-13.95,9.921a26,26,0,0,1-7.015,1.69c-2.512.32-4.887,1.6-7.441.566a2.906,2.906,0,0,1-1.539-1.171c-.39-.685.042-1.52-.253-2.055-.848-1.543-4.026-1.242-5.482-1.338-2.317-.154-6.372.144-8.218-1.421-.88-.742-1.28-2.026-2.112-2.88-.72-.723-1.856-1.191-2.56-1.92s-1.255-1.955.243-2.189c1.069-.17,1.971,1.155,3.2.909.182-1.683-2.24-2.368-3.255-3.38-.838-.851-3.149-3.616-2.88-4.765,1.488-.371,2.842.912,4.407.672.64-1.949-3.9-2.967-5.191-3.453-3.738-1.4-3.424-3.933-3.424-7.46a30.806,30.806,0,0,1,3.88-14.965c1.787-3.2,4.655-8.1,8.322-9.37,2.1-.73,2.346,1.344,4.183.944,1.565-.339,2.4-2.439,3.972-2.81,1.37-.32,2.88,1.735,4.228,2.605.877.563,2.007,1.3,2.695-.051.563-1.1-.688-1.683-.64-2.493.064-1.546,3.447-1.751,4.935-1.741a8.437,8.437,0,0,1,5.492,1.546c1.568,1.037,3.808,3.671,5.927,3.146-.125-1.619-2.183-3.059-3.45-3.9-1.05-.694-4-1.539-3.956-2.992,2.938-.694,7.5,1.751,10.059,3.168a30.777,30.777,0,0,1,15.864,26.911Z"/>
      <path id="Path_1406" data-name="Path 1406" class="cls-8" d="M49.643,104.682c.794.144,1.523.234,2.109.285,2.215.186,4.506.406,6.721.381,3.284-.038,6.644-.819,9.959-1.072,2.32-.179,4.522-.771,6.865-1.143a73.771,73.771,0,0,0,9.767-1.786c3.178-.96,6.417-2.24,9.767-2.407,2.525-.134,4.922.934,7.5.96a101.627,101.627,0,0,1,22.22,2.295c3.405.794,6.925,1.427,10.116,3.053,2.451,1.245,6.289,3.744,7.21,6.433.771,2.24-.086,8.094-3.581,5.815.96-.685.838-2.49.192-3.447-.72-1.066-2.4-1.389-3.629-1.549-.89-.118-3.2-.118-3.095,1.072.054.669,1.539,1.767,1.763,2.56.384,1.367-.352,2.477-1.059,3.661-.4.675-2,2.439-2.471.672-.352-1.319,1.757-1.447.752-2.919-.707-1.04-2.24-.938-3.376-.886.861,1.437,1.3,1.92.883,3.741a6.253,6.253,0,0,1-2.541,3.732c-2.042,1.482-5.706,1.863-7.918.474-1.415-.89-2.752-2.6-.576-3.77.57-.32,2.221-.464,2.163.538-.032.528-1.85.877-.81,1.882.589.573,1.837-.019,2.291-.422a2.108,2.108,0,0,0,.682-1.984c-.138-2.275-2.013-2.765-3.936-2.88-3.648-.23-6.164.506-8.7,3.178-1.123,1.181-1.843,2.733-.938,4.272.72,1.226,2.48,1.463,3.04,2.6-1.533,1.146-6.8-1.443-8.343-2.064a52.873,52.873,0,0,0-8.932-2.487c-12.126-2.522-25.414-3.072-37.645-.621-5.46,1.095-10.846,2.192-16.229,3.341-2.461.525-4.909,1-7.361,1.5-3.008.64-7.361,1.2-10.113-.426a2.453,2.453,0,0,1-.64-3.885c.826-.96,3.482-1.578,3.52.25-.858.058-1.549-.7-1.971.346-1.1,2.714,5.373,1.143,6.081-1.139.755-2.48-3.991-5.018-5.165-6.906-2.979-4.8-3.175-13.016-.557-17.867C26.883,92.085,32.8,86.12,40.151,86.45c3.84.173,8.474,1.248,11.38,3.856,1.786,1.6,2.3,5.469.621,7.4a3.619,3.619,0,0,1-3.258,1.1c-1.123-.435-1.664-3.082.08-2.544-.1.666-.7,1.1-.493,1.875,3.107,1.6,4.378-5.508-.365-5.047-3.111.3-6.906,3.946-5.911,7.316C42.958,102.925,46.724,104.157,49.643,104.682Z"/>
      <path id="Path_1407" data-name="Path 1407" class="cls-9" d="M23.612,110.18a10.7,10.7,0,0,1-.406-3.389c.486-7.242,5-16.373,12.859-17.6,2.119-.32,11.422-1.789,11.39,2.135-4.461-2.445-8.481,1.773-8.481,5.956,0,5,3.463,7.745,8.167,7.94.141,3.7-10.7.525-11.873-1.28s-1.037-3.978-1.6-5.956c-3.54-.518-4.013,4.356-3.876,6.522.067,1.03.019,4.452-1.421,3.7-.918-.483-.778-3.367-.96-4.317-3.84.339-.621,6.589.064,8.375.458,1.191,1.725,3.143-.058,3.242C25.314,115.611,24,111.588,23.612,110.18Z"/>
      <path id="Path_1408" data-name="Path 1408" class="cls-9" d="M107.85,102.861c3.184.355,6.4-.525,9.662-.048,2.368.342,4.586,1.235,6.916,1.763,4.007.912,7.239,2.925,10.843,4.932-2.051,1.015-5.357-2.071-7.389-.982-1.568.842,2.272,4.388,2.7,5.671-1.562.877-3.223-.784-4.48-1.383-.554-.259-2.051-1.027-2.579-.406-.64.749.579,1.968.918,2.49.986,1.5,2.314,3.562,2.272,5.412a3.056,3.056,0,0,1-3.661,2.8c.477-1.514,1.847-2.211.9-4.068a9.172,9.172,0,0,0-3.091-3.495c-1.216-.714-7.9-2.026-6.49-3.879.726-.96,2.176-.851,2.685-2.339.566-1.655-1.034-1.936-2.451-2.288a18.312,18.312,0,0,0-4.548-.742c-.986,0-4.34.672-4.135-1.107-2.4-1.331-5.572-.09-8.116.374-2.359.429-5.716,1.693-8.116,1.178.9.067,1.92-.659,2.845-.864,1.28-.282,2.528-.55,3.786-.9,2.061-.579,4.823-.73,6.682-1.546Z"/>
      <path id="Path_1409" data-name="Path 1409" class="cls-10" d="M105.146,95.638c-15.624-10.209-53.736,9.863-56.1,18.114C60.767,114.251,92.972,113.886,105.146,95.638Z"/>
      <path id="Path_1410" data-name="Path 1410" class="cls-11" d="M105.411,95.814c-.086-.061-.176-.118-.266-.176-12.161,18.242-44.379,18.623-56.1,18.114a2.067,2.067,0,0,0,.208,1.824C90.888,116.942,107.879,99.068,105.411,95.814Z"/>
      <path id="Path_1411" data-name="Path 1411" class="cls-12" d="M84.024,96.969c7.9-.208,17.621-4.653,15.08-.96s.422,3.152,1.216,3.364c1.341.352-2.88,2.6-5.623,3s-5.556-2.522-7.969-1.907-7-.848-3.8-1.578S82.209,97,84.024,96.969Z"/>
      <path id="Path_1412" data-name="Path 1412" class="cls-13" d="M59.558,105.661c4.964.813-11.809,4.5-2.88,5.917,7.159,1.133,10.881-4.6,9.867-2.56s-.589,1.655,4.551,1.059c0,0,3.146,2.88,11.345-.8s8.689-6.551,5.248-6.119c0,0-6.295-.64-4.97-1.648s-6.9-2.035-9.066-1S57.663,105.347,59.558,105.661Z"/>
      <path id="Path_1413" data-name="Path 1413" class="cls-11" d="M51.2,112.836S81.483,94.3,103.261,96.428C103.251,96.428,90.453,94.5,51.2,112.836Z"/>
      <path id="Path_1414" data-name="Path 1414" class="cls-14" d="M75.284,49.515c4.4-2.471,4.205-2.4,12.084,3.732,1.338.906,3.748-4.356,6.977-1.792s1.744,2.208.845,3.469,2.858,2.147.074,3.043-2.739,1.6-5.5-.413,3.367,2.064,0,2.714-3.4-1.664-5.306-1.706c0,0-10.017,2.061-10.983-2.439C73.479,56.124,72.368,50.926,75.284,49.515Z"/>
      <path id="Path_1415" data-name="Path 1415" class="cls-15" d="M84.85,53.842c-2.41.87-3.658,2.778-.189,2.528s4.359-1.754,3.943-.026,1.6-.32,3.133-1.191,2.359-2.8.438-2.071-3.082,1.459-2.947.682-1.178-.08-1.92.262S86,53.426,84.85,53.842Z"/>
      <path id="Path_1416" data-name="Path 1416" class="cls-15" d="M75.6,53.154c-2.346.906-1.84,2.007-.566,1.9s2.474-.55,1.725-.717-.573-.282-.109-.736S76.071,52.971,75.6,53.154Z"/>
      <path id="Path_1417" data-name="Path 1417" class="cls-15" d="M90.69,52.69c-2.144,1.235,1.792-2.211,3.111-1S91.359,52.3,90.69,52.69Z"/>
      <path id="Path_1418" data-name="Path 1418" class="cls-16" d="M114.772,82.283A9.841,9.841,0,0,1,113,79.131s-2.528-1.2-1.779-.438,1.5,2.829,1.2,2.807a.09.09,0,0,1-.038,0c-.5-.278-4.2-4.429-5.655-4.538-1.5-.115-6.484-6.122-8.087-8.862a12.324,12.324,0,0,1-9.2-.694l-.371-.15c-1.789-.749-9.39-4.068-8.9-6.285,0,0,3.165.221,7.066.794,5.22.765,11.751,2.16,13.761,4.5,0,0,5.226,5.162,6.177,8.657a3.776,3.776,0,0,1,.147.877,14.518,14.518,0,0,1,5.975,2.163C113.291,77.943,114.993,80.686,114.772,82.283Z"/>
      <path id="Path_1419" data-name="Path 1419" class="cls-17" d="M112.378,81.483c-.5-.278-4.2-4.429-5.655-4.538-1.5-.115-6.484-6.122-8.087-8.862a12.324,12.324,0,0,1-9.2-.694l-.371-.15c-3.293-1.13-3-2.794-1.335-1.811,2.208,1.312,5.562,2.992,9.162,1.9s5.815,3.52,8.548,7.156,1.8.733,3.84,2.97a28.389,28.389,0,0,1,3.1,4.029Z"/>
      <path id="Path_1420" data-name="Path 1420" class="cls-16" d="M76.375,66.5s-6.529,5.761-8.871,6.081c0,0-2.589,2.32-8.894-4.8-1.184-.288-4.266-2.131-8.119-.41,0,0-1.379.138-1.021-.23a6.01,6.01,0,0,1,1.7-.826c-.186.058-4.272,1.245-2.487-.288,0,0-1.648-.829,2.1-1.149,0,0,6.212.365,3.015-1.28-2.88-1.495-.88-1.383,1.319-.387.234.1.467.214.7.339a15.174,15.174,0,0,1,3.2,1.747s5.7,1.741,7.546,3.991c0,0,4.144-5.671,8.993-7.3a8.5,8.5,0,0,1,1.2-.32,5.05,5.05,0,0,1,.96,2.087A2.632,2.632,0,0,1,76.375,66.5Z"/>
      <path id="Path_1421" data-name="Path 1421" class="cls-17" d="M76.375,66.5s-6.529,5.761-8.871,6.081c0,0-2.589,2.32-8.894-4.8-1.184-.288-4.266-2.131-8.119-.41,0,0-1.379.138-1.021-.23,3.367-1.373,3.78-2.205,7.319-.682,4.263,1.837,3.069,1.3,5.825,3.84s.922-.339,2.906.96-.189.461,4.016-1.757c2.349-1.239,5.9-4.432,8.151-5.761A2.59,2.59,0,0,1,76.375,66.5Z"/>
      <path id="Path_1422" data-name="Path 1422" class="cls-16" d="M91.244,84.027l-.029.022h0c-.691.464-11.774,7.94-14.024,10.372A11.8,11.8,0,0,1,73,97.584c-2.6,6.045-10.6,10.5-10.6,10.5.454,1.28-.291,1.8-.291,1.8-2.016,1.584-7.361.077-7.361.077l1.123-.362,3.84-1.239a2.032,2.032,0,0,0,.374-.278c2.477-2.2,11.745-15.317,11.745-15.317a8.7,8.7,0,0,1,1.072-2.685c2.4-4.557,13.035-8.81,13.035-8.81l.3.157,2.221,1.165,2.64,1.383Z"/>
      <path id="Path_1423" data-name="Path 1423" class="cls-17" d="M91.209,84.049c-.691.464-11.774,7.94-14.024,10.372A11.8,11.8,0,0,1,73,97.584c-2.589,6.045-10.59,10.5-10.59,10.5.454,1.28-.291,1.8-.291,1.8-2.016,1.584-7.361.077-7.361.077l1.123-.362c3.9.5,2.109.944,7.434-2.72,6.081-4.183,3.84-6.081,7.662-8.206s5.533-9.377,9.995-10.932,3.277-5.015,7.041-5.165a3.453,3.453,0,0,1,.483.016,4.58,4.58,0,0,1,2.64,1.383Z"/>
      <g id="Group_218" data-name="Group 218" class="cls-18">
        <path id="Path_1424" data-name="Path 1424" class="cls-19" d="M73.245,92.434s0-.019-.016-.022S73.248,92.441,73.245,92.434Z"/>
        <path id="Path_1425" data-name="Path 1425" class="cls-19" d="M73.255,92.5l-.006-.01.013.026Z"/>
        <path id="Path_1426" data-name="Path 1426" class="cls-19" d="M73.229,92.521c.029.035,0,0,.019,0h0l-.019-.029S73.239,92.527,73.229,92.521Z"/>
        <path id="Path_1427" data-name="Path 1427" class="cls-19" d="M73.156,92.453Z"/>
        <path id="Path_1428" data-name="Path 1428" class="cls-19" d="M73.159,92.453Z"/>
        <path id="Path_1429" data-name="Path 1429" class="cls-19" d="M73.152,92.469v-.016h0S73.143,92.457,73.152,92.469Z"/>
        <path id="Path_1430" data-name="Path 1430" class="cls-19" d="M73.168,92.489Z"/>
        <path id="Path_1431" data-name="Path 1431" class="cls-19" d="M73.162,92.489h0C73.162,92.473,73.168,92.489,73.162,92.489Z"/>
        <path id="Path_1432" data-name="Path 1432" class="cls-19" d="M73.168,92.489s.016,0,.019.022S73.172,92.469,73.168,92.489Z"/>
        <path id="Path_1433" data-name="Path 1433" class="cls-19" d="M73.255,92.559Z"/>
        <path id="Path_1434" data-name="Path 1434" class="cls-19" d="M73.117,92.466l.026.029h0a.054.054,0,0,1-.026-.029Z"/>
        <path id="Path_1435" data-name="Path 1435" class="cls-19" d="M73.143,92.489V92.5S73.149,92.5,73.143,92.489Z"/>
        <path id="Path_1436" data-name="Path 1436" class="cls-19" d="M73.2,92.537l-.013-.029.013.032Z"/>
        <path id="Path_1437" data-name="Path 1437" class="cls-19" d="M73.1,92.476l-.013-.019.016.029Z"/>
        <path id="Path_1438" data-name="Path 1438" class="cls-19" d="M73.095,92.489a.368.368,0,0,0-.026-.032v.032Z"/>
        <path id="Path_1439" data-name="Path 1439" class="cls-19" d="M73.092,92.5v-.019Z"/>
        <path id="Path_1440" data-name="Path 1440" class="cls-19" d="M73.14,92.511l-.019-.019.016.022Z"/>
        <path id="Path_1441" data-name="Path 1441" class="cls-19" d="M73.136,92.514Z"/>
        <path id="Path_1442" data-name="Path 1442" class="cls-19" d="M73.14,92.514Z"/>
        <path id="Path_1443" data-name="Path 1443" class="cls-19" d="M73.175,92.527a.106.106,0,0,0,.029.045C73.194,92.556,73.184,92.546,73.175,92.527Z"/>
        <path id="Path_1444" data-name="Path 1444" class="cls-19" d="M73.159,92.537h0v-.019Z"/>
        <path id="Path_1445" data-name="Path 1445" class="cls-19" d="M73.162,92.546l0-.01h0Z"/>
        <path id="Path_1446" data-name="Path 1446" class="cls-19" d="M73.114,92.521Z"/>
        <path id="Path_1447" data-name="Path 1447" class="cls-19" d="M73.127,92.517Z"/>
        <path id="Path_1448" data-name="Path 1448" class="cls-19" d="M73.095,92.549l0,0,0,0Z"/>
        <path id="Path_1449" data-name="Path 1449" class="cls-19" d="M73.13,92.54Z"/>
        <path id="Path_1450" data-name="Path 1450" class="cls-19" d="M73.092,92.517Z"/>
        <path id="Path_1451" data-name="Path 1451" class="cls-19" d="M73.12,92.514Z"/>
        <path id="Path_1452" data-name="Path 1452" class="cls-19" d="M73.12,92.514v.016h0S73.124,92.517,73.12,92.514Z"/>
        <path id="Path_1453" data-name="Path 1453" class="cls-19" d="M73.184,92.7c0-.019-.022-.042,0-.026a1.056,1.056,0,0,0-.086-.115.1.1,0,0,1,.016.032.141.141,0,0,1,.035.038c0,.016,0,0-.019,0s.019.042.045.08V92.69Z"/>
        <path id="Path_1454" data-name="Path 1454" class="cls-19" d="M73.1,92.553h0l-.022-.022a.048.048,0,0,0,0,.026h0Z"/>
        <path id="Path_1455" data-name="Path 1455" class="cls-19" d="M73.114,92.54a.173.173,0,0,0,.035.058v-.032c0-.013,0,0-.022-.022h0v.016S73.111,92.546,73.114,92.54Z"/>
        <path id="Path_1456" data-name="Path 1456" class="cls-19" d="M73.232,92.623Z"/>
        <path id="Path_1457" data-name="Path 1457" class="cls-19" d="M73.22,92.61h0v.019A.045.045,0,0,0,73.2,92.6h0s-.035-.029-.035-.035a.359.359,0,0,0,.054.042Z"/>
        <path id="Path_1458" data-name="Path 1458" class="cls-19" d="M73.172,92.581h0l.016.016h0A.035.035,0,0,1,73.172,92.581Z"/>
        <path id="Path_1459" data-name="Path 1459" class="cls-19" d="M73.085,92.54l-.016-.022.019.035Z"/>
        <path id="Path_1460" data-name="Path 1460" class="cls-19" d="M73.079,92.549l-.013-.019.006.013Z"/>
        <path id="Path_1461" data-name="Path 1461" class="cls-19" d="M72.528,93.023Z"/>
        <path id="Path_1462" data-name="Path 1462" class="cls-19" d="M72.554,93.033Z"/>
        <path id="Path_1463" data-name="Path 1463" class="cls-19" d="M72.868,92.684c-.016-.019-.032-.048-.019-.026v.026A.037.037,0,0,1,72.868,92.684Z"/>
        <path id="Path_1464" data-name="Path 1464" class="cls-19" d="M72.768,92.9Z"/>
        <path id="Path_1465" data-name="Path 1465" class="cls-19" d="M72.772,93.01v-.016a.026.026,0,0,0,0,.016Z"/>
        <path id="Path_1466" data-name="Path 1466" class="cls-19" d="M72.4,92.94h-.026A.022.022,0,0,0,72.4,92.94Z"/>
        <path id="Path_1467" data-name="Path 1467" class="cls-19" d="M73,92.617H72.98S73.005,92.636,73,92.617Z"/>
        <path id="Path_1468" data-name="Path 1468" class="cls-19" d="M72.688,92.754v.016Z"/>
        <path id="Path_1469" data-name="Path 1469" class="cls-19" d="M72.967,92.61Z"/>
        <path id="Path_1470" data-name="Path 1470" class="cls-19" d="M72.378,92.441Z"/>
        <path id="Path_1471" data-name="Path 1471" class="cls-19" d="M72.669,92.409Z"/>
        <path id="Path_1472" data-name="Path 1472" class="cls-19" d="M73.037,92.565Z"/>
        <path id="Path_1473" data-name="Path 1473" class="cls-19" d="M73.108,92.649Z"/>
        <path id="Path_1474" data-name="Path 1474" class="cls-19" d="M73.044,92.767Z"/>
        <path id="Path_1475" data-name="Path 1475" class="cls-19" d="M73.047,92.572Z"/>
        <path id="Path_1476" data-name="Path 1476" class="cls-19" d="M73.04,92.562Z"/>
        <path id="Path_1477" data-name="Path 1477" class="cls-19" d="M73.037,92.569Z"/>
        <path id="Path_1478" data-name="Path 1478" class="cls-19" d="M72.423,92.671Z"/>
        <path id="Path_1479" data-name="Path 1479" class="cls-19" d="M72.935,92.965v0h0Z"/>
        <path id="Path_1480" data-name="Path 1480" class="cls-19" d="M72.935,92.988v-.026l-.035-.07Z"/>
        <path id="Path_1481" data-name="Path 1481" class="cls-19" d="M72.471,92.991v.026c-.032.026-.032,0-.045.038.054-.064.035.022.083-.048v.019h0c0,.038.042-.048.048-.032a.029.029,0,0,1,0,.029l.022-.016H72.6a.189.189,0,0,0,.026-.035v.019l.016-.016c0,.019-.022.038-.026.032-.029.08.016-.016,0,.035h0v.064c0,.029,0-.077.022-.093h0v.058a.278.278,0,0,0,.026-.045v.058c0,.026,0-.048.022-.054s.019,0,.035-.022,0,.026,0,.035v-.016c0,.016,0-.038.016-.048s0,.067.026,0v.038a.221.221,0,0,0,.022-.074v.022a.23.23,0,0,1,0-.093.17.17,0,0,0,0-.035v-.022a.112.112,0,0,1,0,.038h0a.176.176,0,0,1,0,.061v.051h0v.026l.022.022v-.134a.13.13,0,0,0,.022.086c0-.035,0,.022-.022.016s0,.019,0,.026v-.038c0,.029,0,.022.019.032-.019-.058,0-.042,0-.064v0h0s.032,0,0-.064a.641.641,0,0,0,.026.07l-.054-.173c0,.045.067.141.07.166h0l-.032-.061.042.058a.32.32,0,0,1-.029-.074.751.751,0,0,1,.032.07l-.019-.067a.479.479,0,0,0,.035.07h0c.016,0-.032-.093-.019-.093a.368.368,0,0,0,.045.086,1.653,1.653,0,0,0-.074-.189v-.006c.022.051.064.157.077.2s0,.022.019.016a.038.038,0,0,1,0,.032h.022c-.022-.038,0-.045-.029-.074v.045c-.022-.035-.048-.109-.035-.106s.035.064.042.077,0-.029,0-.022v.022s-.019-.054,0-.022.032.042.019.022-.1-.17-.118-.2l.048.051c.022.032.042.083.061.109s0-.026,0-.029,0,.032.019.026,0,0-.016-.035,0,0,.016,0a.381.381,0,0,1-.048-.1l.019.026h.035a.157.157,0,0,1,.026.032v-.022c.026.029,0,0,.026.045a.227.227,0,0,1,0-.051c-.019-.029,0,0,0,.016a.493.493,0,0,1-.058-.122c0-.016.022.026.019.019s-.038-.083,0-.058a.442.442,0,0,1,.051.074c0,.016-.019,0-.022,0h0c0-.019.026,0,.051,0a.077.077,0,0,0-.016-.032h0c-.019-.022-.016-.035-.026-.045s-.019-.045,0-.038l.026.032h0c.019.016.038.038,0,0l-.019-.019c0-.019-.026-.054,0-.048l-.029-.029c.035.042,0,0,.022.051-.032-.042-.016,0-.048-.048v.019h0v.045c0,.013,0,0-.016-.022v.019c-.016-.022-.032-.035-.035-.051h0s-.019-.016-.016,0,0,.029,0,0v.022h0s0,.048-.029,0,0,.016,0,0v-.019h0c-.035-.051-.022,0-.035,0l.016.029v.048c0,.026-.022,0-.029,0h0c-.038-.051,0,.048-.026,0h0v-.026h0l.019.035c-.022-.042,0,.019-.026-.029,0,.026,0,.026.019.074h0l-.019-.035v.051a.214.214,0,0,1-.029-.061v.058c0-.019-.035,0-.054-.032.022.07,0-.029,0,.026v-.019a.24.24,0,0,0,0-.035h0a.042.042,0,0,0,0-.022v.122a.089.089,0,0,1,0-.042s0-.019,0,.022h0v.016h0v.006c-.016.067,0-.042,0,0v.016a.525.525,0,0,0,.019-.1c0-.042,0,.042-.022.051a.553.553,0,0,0,.022-.061c0-.019-.035.074-.019.029,0,.016,0,.035-.022.045s.026-.064,0,0h0l-.054.1c.064-.1-.051.038.016-.051h0s-.019,0-.038.029l.016-.019c0-.019,0-.016-.035,0l.026-.022c-.016,0,.042-.045,0-.026h0c-.038,0,.077-.061-.032,0H72.57a.487.487,0,0,0-.064.035c-.016.013.032-.029.038-.026h0c.058-.022.019-.019.058-.035s.029-.032.032-.042h-.061c.064,0,.026-.029.045-.032s-.026,0-.019-.019-.048,0-.045,0c.083.016.038,0,.1,0-.038,0,0-.019-.064-.022h.051c-.029-.016.026-.022.016-.038h.013s-.061-.016-.022,0h-.026c.058,0-.029-.067.077-.067h-.019c-.038,0,0,0-.038-.026h0a1.373,1.373,0,0,0-.157-.042c.048.019-.083,0,0,.026h-.032c.026,0,.029,0,0,.016h0c0,.019-.022.019-.045.035h.006c.042.016,0,0,.051,0-.058,0,0,.029-.074.016h-.006a.088.088,0,0,0,.019.064h.016c.022.019-.019,0,0,.026h-.032c-.019,0,.022,0,.07.029h-.022c.019,0,.032,0,.038.016s-.035,0-.061,0,.048.026-.029.029h.093c-.006,0-.083,0-.083.019-.019,0,.019,0,0,.019h.048v-.016s.07,0,.045.026h-.032s0-.016-.051-.022.038.016,0,0c.067,0,0,.019.045.026H72.4c.035,0-.026.022,0,.032s.035,0,.054-.026-.074.029-.058.058.016-.022.029-.019a.093.093,0,0,1-.032.026c0,.016.029,0,.048,0-.032.016.016,0,.029,0h-.029c0,.026.061-.019.042,0h-.07c.026,0,.022,0,0,.019s.048-.022.051-.016-.026,0-.019.019-.038.016,0,0h-.026v.022h.042a.045.045,0,0,1-.026.016h.022a.121.121,0,0,1-.058.026h.032a.116.116,0,0,1-.026.029c0,.019.051,0,.042,0h0s-.016.045.019.032l-.026.035c.016,0,.032-.045.054-.045s-.022.032-.026.042.054-.038.042,0S72.474,92.991,72.471,92.991Zm.125.045h0c.016-.022,0-.01,0,0Zm.192-.083Zm.243-.355h0s-.006,0,0,0Zm0,0h0s.016.013.013.006Zm-.416.038Z"/>
        <path id="Path_1482" data-name="Path 1482" class="cls-19" d="M72.772,93Z"/>
        <path id="Path_1483" data-name="Path 1483" class="cls-19" d="M72.4,92.937h0l0,0Z"/>
        <path id="Path_1484" data-name="Path 1484" class="cls-19" d="M73.076,92.885Z"/>
        <path id="Path_1485" data-name="Path 1485" class="cls-19" d="M73.05,92.54Z"/>
        <path id="Path_1486" data-name="Path 1486" class="cls-19" d="M73.191,92.668Z"/>
        <path id="Path_1487" data-name="Path 1487" class="cls-19" d="M73.111,92.62h0C73.1,92.6,73.1,92.607,73.111,92.62Z"/>
        <path id="Path_1488" data-name="Path 1488" class="cls-19" d="M73.12,92.623Z"/>
        <path id="Path_1489" data-name="Path 1489" class="cls-19" d="M73.044,92.585v-.019C73.015,92.54,73.047,92.6,73.044,92.585Z"/>
        <path id="Path_1490" data-name="Path 1490" class="cls-19" d="M73.159,92.687l-.019-.026.013.022Z"/>
        <path id="Path_1491" data-name="Path 1491" class="cls-19" d="M73.124,92.684Z"/>
        <path id="Path_1492" data-name="Path 1492" class="cls-19" d="M73.127,92.677Z"/>
        <path id="Path_1493" data-name="Path 1493" class="cls-19" d="M73.159,92.7l-.006-.006,0,0Z"/>
        <path id="Path_1494" data-name="Path 1494" class="cls-19" d="M73.069,92.713Z"/>
        <path id="Path_1495" data-name="Path 1495" class="cls-19" d="M73.133,92.773l-.016-.019.019.035Z"/>
        <path id="Path_1496" data-name="Path 1496" class="cls-19" d="M73.12,92.809s0,.029.016.022S73.13,92.809,73.12,92.809Z"/>
        <path id="Path_1497" data-name="Path 1497" class="cls-19" d="M73.015,92.8h0l-.032-.054Z"/>
        <path id="Path_1498" data-name="Path 1498" class="cls-19" d="M73.012,92.975V92.93C73.012,92.908,72.989,92.94,73.012,92.975Z"/>
        <path id="Path_1499" data-name="Path 1499" class="cls-19" d="M72.992,92.93Z"/>
        <path id="Path_1500" data-name="Path 1500" class="cls-19" d="M72.708,92.4h.013l-.019,0Z"/>
        <path id="Path_1501" data-name="Path 1501" class="cls-19" d="M72.666,92.38h0Z"/>
        <path id="Path_1502" data-name="Path 1502" class="cls-19" d="M72.592,93.129h0v-.016Z"/>
        <path id="Path_1503" data-name="Path 1503" class="cls-19" d="M72.5,93.052h0l.019-.032Z"/>
        <path id="Path_1504" data-name="Path 1504" class="cls-19" d="M72.4,93.033Z"/>
      </g>
      <path id="Path_1505" data-name="Path 1505" class="cls-20" d="M87.97,77.447a18.727,18.727,0,0,1-3.744,4.247l3.268,2.058s2.032-4.276,1.776-6.205S87.97,77.447,87.97,77.447Z"/>
      <path id="Path_1506" data-name="Path 1506" class="cls-8" d="M87.221,80.6a.5.5,0,0,0-.342-.022.5.5,0,0,0,0-.352c-.032-.032-.218.035-.384.182-.032-.211-.118-.358-.2-.371s-.2.157-.266.394a1.062,1.062,0,0,0-.2-.2c-.166.182-.32.362-.509.534a1.13,1.13,0,0,0,.278.32,1.014,1.014,0,0,0,.534.23h.118a.986.986,0,0,0,.563-.17C87.106,80.968,87.263,80.648,87.221,80.6Z"/>
      <path id="Path_1507" data-name="Path 1507" class="cls-8" d="M84.91,82.12l.186.115c0-.07,0-.125-.038-.138A.188.188,0,0,0,84.91,82.12Z"/>
      <path id="Path_1508" data-name="Path 1508" class="cls-21" d="M88.463,80.734c-.029.045,0,.189.118.342.042-.118.08-.237.122-.358C88.581,80.7,88.488,80.7,88.463,80.734Z"/>
      <path id="Path_1509" data-name="Path 1509" class="cls-21" d="M87.909,82.523c-.032-.211-.118-.362-.2-.371s-.2.154-.266.39c-.157-.2-.349-.32-.4-.266a.432.432,0,0,0-.048.32c-.166-.051-.32-.048-.336,0a.873.873,0,0,0,.355.592,1.014,1.014,0,0,0,.534.23h.077c.106-.237.266-.6.442-1.027A.889.889,0,0,0,87.909,82.523Z"/>
      <path id="Path_1510" data-name="Path 1510" class="cls-8" d="M87.928,79h.08a1,1,0,0,0,.566-.17c.3-.179.461-.493.419-.547a.49.49,0,0,0-.346-.022.5.5,0,0,0,0-.352c-.032-.032-.218.035-.381.182-.035-.211-.122-.362-.2-.371s-.2.154-.266.39a1.245,1.245,0,0,0-.157-.16c-.125.179-.282.4-.461.64a1.091,1.091,0,0,0,.186.176,1,1,0,0,0,.534.23Z"/>
      <path id="Path_1511" data-name="Path 1511" class="cls-16" d="M82.248,55.09c-.438,2.339-1.847,4-2.445,3.924-2.746-.368-2.56-4.615-2.381-6.212.038-.374.08-.6.08-.6,1.6-3.7,4.8.362,4.8.362a7.552,7.552,0,0,1-.054,2.528Z"/>
      <path id="Path_1512" data-name="Path 1512" class="cls-16" d="M78.519,57.391s-.186,2.467-.531,4.3c0,0,2.627.7,3.2-.358a27.955,27.955,0,0,1-.5-3.562C80.74,57.077,78.519,57.391,78.519,57.391Z"/>
      <path id="Path_1513" data-name="Path 1513" class="cls-16" d="M95.471,76.7a1.309,1.309,0,0,1-.7,1.085,6.721,6.721,0,0,1-5.485.838,6.842,6.842,0,0,1-1.671-.669c-.816-1.168-2.24-.909-3.8-2.435l-.554-.55c-.771-.774-1.488-1.546-2.141-2.282A51.48,51.48,0,0,1,76.372,66.5l-.054-2.535-.048-2.2,1.725-.982,4.384.32c1.239,2.141,6.641,6.1,6.641,6.1C91.772,75,95.471,76.7,95.471,76.7Z"/>
      <g id="Group_219" data-name="Group 219" class="cls-18">
        <path id="Path_1514" data-name="Path 1514" class="cls-19" d="M80.51,58.428v-.022S80.516,58.434,80.51,58.428Z"/>
        <path id="Path_1515" data-name="Path 1515" class="cls-19" d="M80.5,58.5,80.5,58.5l.01.026Z"/>
        <path id="Path_1516" data-name="Path 1516" class="cls-19" d="M80.462,58.533c.029.032,0-.016.029,0h0l-.019-.032S80.475,58.537,80.462,58.533Z"/>
        <path id="Path_1517" data-name="Path 1517" class="cls-19" d="M80.388,58.466Z"/>
        <path id="Path_1518" data-name="Path 1518" class="cls-19" d="M80.391,58.463Z"/>
        <path id="Path_1519" data-name="Path 1519" class="cls-19" d="M80.379,58.485v-.016h-.016C80.347,58.469,80.366,58.473,80.379,58.485Z"/>
        <path id="Path_1520" data-name="Path 1520" class="cls-19" d="M80.391,58.517Z"/>
        <path id="Path_1521" data-name="Path 1521" class="cls-19" d="M80.388,58.492h0C80.388,58.473,80.391,58.5,80.388,58.492Z"/>
        <path id="Path_1522" data-name="Path 1522" class="cls-19" d="M80.395,58.5a.032.032,0,0,1,.019.026S80.4,58.485,80.395,58.5Z"/>
        <path id="Path_1523" data-name="Path 1523" class="cls-19" d="M80.484,58.565Z"/>
        <path id="Path_1524" data-name="Path 1524" class="cls-19" d="M80.327,58.489l.022.029h0S80.327,58.5,80.327,58.489Z"/>
        <path id="Path_1525" data-name="Path 1525" class="cls-19" d="M80.356,58.517v.019A.034.034,0,0,0,80.356,58.517Z"/>
        <path id="Path_1526" data-name="Path 1526" class="cls-19" d="M80.417,58.559l-.01-.035.006.035Z"/>
        <path id="Path_1527" data-name="Path 1527" class="cls-19" d="M80.311,58.5l-.01-.019.013.032Z"/>
        <path id="Path_1528" data-name="Path 1528" class="cls-19" d="M80.3,58.514c0-.019-.016-.026-.019-.038a.07.07,0,0,0,0,.035A.012.012,0,0,1,80.3,58.514Z"/>
        <path id="Path_1529" data-name="Path 1529" class="cls-19" d="M80.286,58.53a.067.067,0,0,0,0-.019Z"/>
        <path id="Path_1530" data-name="Path 1530" class="cls-19" d="M80.343,58.54a.048.048,0,0,0-.016-.019Z"/>
        <path id="Path_1531" data-name="Path 1531" class="cls-19" d="M80.343,58.54Z"/>
        <path id="Path_1532" data-name="Path 1532" class="cls-19" d="M80.347,58.54Z"/>
        <path id="Path_1533" data-name="Path 1533" class="cls-19" d="M80.388,58.565a.047.047,0,0,0,.022.048A.342.342,0,0,1,80.388,58.565Z"/>
        <path id="Path_1534" data-name="Path 1534" class="cls-19" d="M80.366,58.565h0v-.019Z"/>
        <path id="Path_1535" data-name="Path 1535" class="cls-19" d="M80.366,58.575v-.01h0Z"/>
        <path id="Path_1536" data-name="Path 1536" class="cls-19" d="M80.308,58.565v.016h0S80.327,58.546,80.308,58.565Z"/>
        <path id="Path_1537" data-name="Path 1537" class="cls-19" d="M80.327,58.546Z"/>
        <path id="Path_1538" data-name="Path 1538" class="cls-19" d="M80.27,58.581l0,.006,0-.006Z"/>
        <path id="Path_1539" data-name="Path 1539" class="cls-19" d="M80.327,58.565Z"/>
        <path id="Path_1540" data-name="Path 1540" class="cls-19" d="M80.279,58.546Z"/>
        <path id="Path_1541" data-name="Path 1541" class="cls-19" d="M80.327,58.543Z"/>
        <path id="Path_1542" data-name="Path 1542" class="cls-19" d="M80.327,58.543Z"/>
        <path id="Path_1543" data-name="Path 1543" class="cls-19" d="M80.327,58.741v-.026a.413.413,0,0,0-.067-.128.054.054,0,0,1,0,.035s.032.019.035.042,0,0-.022,0,0,.045.029.086v-.019S80.327,58.738,80.327,58.741Z"/>
        <path id="Path_1544" data-name="Path 1544" class="cls-19" d="M80.286,58.581h0l-.022-.026a.064.064,0,0,0,0,.029h.016Z"/>
        <path id="Path_1545" data-name="Path 1545" class="cls-19" d="M80.3,58.565a.179.179,0,0,0,.026.064v-.038c0-.013,0,0-.019-.022h0v.019S80.3,58.565,80.3,58.565Z"/>
        <path id="Path_1546" data-name="Path 1546" class="cls-19" d="M80.433,58.652Z"/>
        <path id="Path_1547" data-name="Path 1547" class="cls-19" d="M80.42,58.642h0v.016a.029.029,0,0,0,0-.026h0a.086.086,0,0,1-.035-.032Z"/>
        <path id="Path_1548" data-name="Path 1548" class="cls-19" d="M80.363,58.617v.016h.019A.057.057,0,0,1,80.363,58.617Z"/>
        <path id="Path_1549" data-name="Path 1549" class="cls-19" d="M80.263,58.572l-.013-.026.013.038Z"/>
        <path id="Path_1550" data-name="Path 1550" class="cls-19" d="M80.247,58.581l-.01-.022,0,.016Z"/>
        <path id="Path_1551" data-name="Path 1551" class="cls-19" d="M79.31,58.965Z"/>
        <path id="Path_1552" data-name="Path 1552" class="cls-19" d="M79.342,58.975Z"/>
        <path id="Path_1553" data-name="Path 1553" class="cls-19" d="M79.883,58.7c0-.019-.016-.054,0-.029V58.7Z"/>
        <path id="Path_1554" data-name="Path 1554" class="cls-19" d="M79.607,58.885h0V58.86Z"/>
        <path id="Path_1555" data-name="Path 1555" class="cls-19" d="M79.6,58.982v-.019Z"/>
        <path id="Path_1556" data-name="Path 1556" class="cls-19" d="M79.137,58.946v.022A.043.043,0,0,1,79.137,58.946Z"/>
        <path id="Path_1557" data-name="Path 1557" class="cls-19" d="M80.1,58.652h-.016C80.071,58.652,80.11,58.674,80.1,58.652Z"/>
        <path id="Path_1558" data-name="Path 1558" class="cls-19" d="M79.39,58.69Z"/>
        <path id="Path_1559" data-name="Path 1559" class="cls-19" d="M80.078,58.645Z"/>
        <path id="Path_1560" data-name="Path 1560" class="cls-19" d="M78.6,58.649Z"/>
        <path id="Path_1561" data-name="Path 1561" class="cls-19" d="M78.625,58.329Z"/>
        <path id="Path_1562" data-name="Path 1562" class="cls-19" d="M80.187,58.6Z"/>
        <path id="Path_1563" data-name="Path 1563" class="cls-19" d="M80.244,58.69Z"/>
        <path id="Path_1564" data-name="Path 1564" class="cls-19" d="M80.091,58.815Z"/>
        <path id="Path_1565" data-name="Path 1565" class="cls-19" d="M80.2,58.607Z"/>
        <path id="Path_1566" data-name="Path 1566" class="cls-19" d="M80.19,58.594Z"/>
        <path id="Path_1567" data-name="Path 1567" class="cls-19" d="M80.183,58.6Z"/>
        <path id="Path_1568" data-name="Path 1568" class="cls-19" d="M78.913,58.748Z"/>
        <path id="Path_1569" data-name="Path 1569" class="cls-19" d="M79.819,58.988Z"/>
        <path id="Path_1570" data-name="Path 1570" class="cls-19" d="M79.806,59.01v0Z"/>
        <path id="Path_1571" data-name="Path 1571" class="cls-19" d="M79.236,58.953v.029c-.022.035-.029.019-.029.054.026-.083.045,0,.067-.077v.019h0c0,.045.026-.058.038-.042a.032.032,0,0,1,0,.029l.019-.016h.019a.2.2,0,0,1,.022-.038s0,0,0,.019l.016-.019c0,.022,0,.042-.022.038,0,.083,0-.019.026.032h0c0,.048,0,.032.016.064s0-.077,0-.1,0,0,.016,0v.064a.059.059,0,0,1,.022-.045c.022-.016,0,.035,0,.061v-.054s.022,0,.042-.019,0,.026,0,.035v-.029s0-.038.019-.048,0,.064.032,0v.042a.176.176,0,0,0,.035-.064v.026a.23.23,0,0,1,.019-.093V58.77a.074.074,0,0,1,0,.035h0a.131.131,0,0,1,0,.058v.022a.319.319,0,0,0,0,.077h0a.136.136,0,0,1,0,.016h0V59l.019.032a.4.4,0,0,1,.054-.128.839.839,0,0,0,0,.093c0-.042-.019.019-.029,0s0,.022,0,.029l.026-.038v.035c0-.061.016-.042.026-.061s0,.045,0,.038c0,.048.016-.074.029-.035h.019a.046.046,0,0,0,.054-.051v.074l.019-.179a.884.884,0,0,1,0,.179h.019a.266.266,0,0,1,0-.07.564.564,0,0,0,.026.07.221.221,0,0,1,0-.08.674.674,0,0,1,0,.08v-.074a.358.358,0,0,0,0,.077h.019v-.016c.019,0,0-.1.022-.1a.32.32,0,0,0,.019.1v-.211a1.6,1.6,0,0,1,0,.218c0,.016,0,.022.019.019a.029.029,0,0,1,0,.032h.029v-.08L79.947,59v-.115a.451.451,0,0,1,.016.086s0-.029,0-.019v.022s0-.058.022-.019.026.048.022.026a1.82,1.82,0,0,1-.058-.227.407.407,0,0,1,.038.064.2.2,0,0,0,.026.118.054.054,0,0,1,0-.032v.029c0-.006.019,0,0-.035s0,0,.019,0a.266.266,0,0,1,0-.109.1.1,0,0,0,0,.029c.019,0,.032.016.048,0a.064.064,0,0,1,.019.038s0-.022,0-.026v0c0-.016-.019,0-.019,0a.279.279,0,0,1-.016-.138c0-.016.016.032.016.026s0-.093.019-.064a.425.425,0,0,1,.035.083c0,.016-.022,0-.029,0h0c0-.019.045,0,.07,0a.07.07,0,0,0,0-.035h0c-.016-.022,0-.038-.016-.048s0-.051,0-.042l.019.032h0c0,.016.038.038.022,0l-.019-.019v-.058c0,.006,0,0-.026-.032.029.048-.022,0,0,.058-.029-.045-.019,0-.045-.051v.019h0v.048c0-.026-.029-.038-.026-.058h-.022v.022h0s0,.054-.048,0h0v-.022H80c-.026-.061-.035,0-.048,0v.032l-.019.022v.029c0,.022-.026,0-.038,0h0c-.029-.058-.026.051-.048,0h0v-.016a.054.054,0,0,1,0,.016V58.6h0v.035a.042.042,0,0,1,0,.019c0-.048,0,.019-.019-.032,0,.026-.016.022-.016.077h0v.013a.1.1,0,0,1,0-.067c0,.045,0,.019-.022.064v-.026s0,.035-.016,0-.051,0-.08-.048v.026a.182.182,0,0,1,0-.042s-.019-.029-.029.019a.1.1,0,0,1,0-.035h0v-.022c0-.022-.016.054-.022.106,0-.026,0-.022-.016,0v-.038s-.029-.026-.032,0h-.022c0,.048,0,0-.022.016h0c-.016-.035,0,.016-.026-.026v.029c0,.067,0-.038-.029-.016v-.083c0-.038,0,.038-.022.045s0-.051,0-.058-.038.064-.038.022v.042c0,.01,0-.064-.026-.016h0a.148.148,0,0,0-.038.045c.019-.1-.054.035-.029-.058h-.019s-.022,0-.035.032a.035.035,0,0,1,0-.019c0-.026,0-.022-.045.019V58.6s0-.054-.042-.029h0c-.035.026,0-.1-.067,0l-.022.022a.2.2,0,0,0-.022.064v-.042h0c.026-.054,0-.029,0-.064-.038,0-.054-.058-.083-.074l-.016.042h0s0-.035.019-.029-.022,0-.029.022.032-.045.026-.048h0s-.022.032-.029.026,0-.026,0-.029h0V58.5l-.022.032c.019-.061-.038-.048-.035-.07s-.029,0-.038,0-.019.045-.026.035c.045-.07,0-.042.029-.1-.016.038-.029,0-.051.048a.069.069,0,0,1,.022-.048c.022-.019-.026-.042-.051-.045a.122.122,0,0,1-.026.035l.019-.051s-.038.051-.026,0,0,.022,0,.022c0-.07-.109-.022-.083-.131,0,.022,0,.022-.016.019s0,.019-.026.032v-.045c-.029.029-.016,0-.045.019h0a1.354,1.354,0,0,0-.1.134c.042-.035-.029.077.032.029,0,0-.016,0-.022.026s.029-.019.029,0h0c.026,0,.019.038.035.07l.016-.026a.035.035,0,0,1,0,.026c.032-.032,0,0,.022-.051-.029.054.035.029,0,.09,0,0,.016-.032.022-.026v.042h0c0,.022.026,0,.022.016v-.016c.032,0,.048.038.09.022h0c.032,0,0,.022.032.022h.026c.006,0,0,.032-.022.045.032,0,.019,0,.058-.051v.022s.022-.026.035-.026,0,.035-.035.051.058-.026.032.045c.038-.051,0-.042,0-.051s.029-.038.035-.029-.029.08,0,.086h0c0,.019.022,0,0,.016.022-.032,0,0,.032-.038h-.019s.048-.054.051-.022l-.022.022h0a.072.072,0,0,0-.048.029c-.026.029.032-.026,0,.022.038-.058,0,0,.048-.026v.026h0l-.022.032c.022-.026,0,.032.022.022s0-.035,0-.058-.019.077,0,.077,0-.022,0-.035a.151.151,0,0,1,0,.038c.022,0,0-.029.026-.042,0,.035,0,0,.026-.019v.029c.016.026.032-.058.042-.026l-.026.035h0v.029c.019-.019.019,0,.029,0s.019-.051.029-.048,0,.026,0,.026-.022.038-.016,0v.026c0,.022,0,0,.019,0l.032-.032a.077.077,0,0,1,0,.029.017.017,0,0,1,.019-.016c.019,0-.019.048-.032.054l.029-.019v.042c0,.01.042-.038.048-.016h0s0,.042.038,0V58.9c.016,0,0-.054.032-.064s0,.035,0,.048.038-.058.042-.019A.113.113,0,0,1,79.236,58.953Zm.154.019h0c0-.022,0-.013,0,0Zm.237-.042Zm.538-.294h0s-.006,0,0,0Zm0,0h0s.013.016.016.01Zm-1.21-.1h0s.01.026.016.026Z"/>
        <path id="Path_1572" data-name="Path 1572" class="cls-19" d="M79.6,58.969Z"/>
        <path id="Path_1573" data-name="Path 1573" class="cls-19" d="M79.14,58.94h0l0,.006Z"/>
        <path id="Path_1574" data-name="Path 1574" class="cls-19" d="M80.071,58.946Z"/>
        <path id="Path_1575" data-name="Path 1575" class="cls-19" d="M80.212,58.565Z"/>
        <path id="Path_1576" data-name="Path 1576" class="cls-19" d="M80.353,58.709Z"/>
        <path id="Path_1577" data-name="Path 1577" class="cls-19" d="M80.26,58.658c0,.022,0,0,.016,0h0C80.26,58.633,80.26,58.645,80.26,58.658Z"/>
        <path id="Path_1578" data-name="Path 1578" class="cls-19" d="M80.276,58.665Z"/>
        <path id="Path_1579" data-name="Path 1579" class="cls-19" d="M80.187,58.623V58.6C80.187,58.61,80.18,58.642,80.187,58.623Z"/>
        <path id="Path_1580" data-name="Path 1580" class="cls-19" d="M80.3,58.732l-.013-.026.006.022Z"/>
        <path id="Path_1581" data-name="Path 1581" class="cls-19" d="M80.251,58.732Z"/>
        <path id="Path_1582" data-name="Path 1582" class="cls-19" d="M80.26,58.725Z"/>
        <path id="Path_1583" data-name="Path 1583" class="cls-19" d="M80.292,58.745l0,0h-.01Z"/>
        <path id="Path_1584" data-name="Path 1584" class="cls-19" d="M80.158,58.761h0C80.158,58.745,80.164,58.77,80.158,58.761Z"/>
        <path id="Path_1585" data-name="Path 1585" class="cls-19" d="M80.219,58.831a.042.042,0,0,1,0-.019v.035Z"/>
        <path id="Path_1586" data-name="Path 1586" class="cls-19" d="M80.193,58.85v.026C80.193,58.869,80.206,58.853,80.193,58.85Z"/>
        <path id="Path_1587" data-name="Path 1587" class="cls-19" d="M80.03,58.847h0l-.016-.061Z"/>
        <path id="Path_1588" data-name="Path 1588" class="cls-19" d="M79.921,59.02v-.048C79.921,58.946,79.911,58.982,79.921,59.02Z"/>
        <path id="Path_1589" data-name="Path 1589" class="cls-19" d="M79.921,58.972Z"/>
        <path id="Path_1590" data-name="Path 1590" class="cls-19" d="M78.628,58.287l0-.016-.01.019Z"/>
        <path id="Path_1591" data-name="Path 1591" class="cls-19" d="M78.587,58.316l.026-.032-.026.026S78.593,58.306,78.587,58.316Z"/>
        <path id="Path_1592" data-name="Path 1592" class="cls-19" d="M79.4,59.055Z"/>
        <path id="Path_1593" data-name="Path 1593" class="cls-19" d="M79.291,59h0l.006-.035Z"/>
        <path id="Path_1594" data-name="Path 1594" class="cls-19" d="M79.185,59.02Z"/>
      </g>
      <g id="Group_220" data-name="Group 220" class="cls-18">
        <path id="Path_1595" data-name="Path 1595" class="cls-19" d="M89,76.574a.021.021,0,0,0-.019-.019Z"/>
        <path id="Path_1596" data-name="Path 1596" class="cls-19" d="M89.026,76.628l-.006-.006.016.019Z"/>
        <path id="Path_1597" data-name="Path 1597" class="cls-19" d="M89.013,76.641h0l-.026-.026S89.023,76.647,89.013,76.641Z"/>
        <path id="Path_1598" data-name="Path 1598" class="cls-19" d="M88.939,76.58Z"/>
        <path id="Path_1599" data-name="Path 1599" class="cls-19" d="M88.939,76.58Z"/>
        <path id="Path_1600" data-name="Path 1600" class="cls-19" d="M88.943,76.59h-.016S88.93,76.58,88.943,76.59Z"/>
        <path id="Path_1601" data-name="Path 1601" class="cls-19" d="M88.968,76.615Z"/>
        <path id="Path_1602" data-name="Path 1602" class="cls-19" d="M88.968,76.6Z"/>
        <path id="Path_1603" data-name="Path 1603" class="cls-19" d="M88.968,76.6a.051.051,0,0,1,.022.022S88.968,76.6,88.968,76.6Z"/>
        <path id="Path_1604" data-name="Path 1604" class="cls-19" d="M89.045,76.676Z"/>
        <path id="Path_1605" data-name="Path 1605" class="cls-19" d="M88.917,76.583s.016.019.026.029h0a.035.035,0,0,1-.026-.029Z"/>
        <path id="Path_1606" data-name="Path 1606" class="cls-19" d="M88.943,76.612Z"/>
        <path id="Path_1607" data-name="Path 1607" class="cls-19" d="M89,76.654l-.022-.029.019.029Z"/>
        <path id="Path_1608" data-name="Path 1608" class="cls-19" d="M88.907,76.59l-.013-.016.019.026Z"/>
        <path id="Path_1609" data-name="Path 1609" class="cls-19" d="M88.9,76.6a.1.1,0,0,0-.029-.032.144.144,0,0,1,.019.029S88.895,76.586,88.9,76.6Z"/>
        <path id="Path_1610" data-name="Path 1610" class="cls-19" d="M88.907,76.612Z"/>
        <path id="Path_1611" data-name="Path 1611" class="cls-19" d="M88.943,76.625l-.019-.019Z"/>
        <path id="Path_1612" data-name="Path 1612" class="cls-19" d="M88.943,76.628Z"/>
        <path id="Path_1613" data-name="Path 1613" class="cls-19" d="M88.946,76.625Z"/>
        <path id="Path_1614" data-name="Path 1614" class="cls-19" d="M88.968,76.641a.185.185,0,0,0,.035.042.481.481,0,0,1-.035-.042Z"/>
        <path id="Path_1615" data-name="Path 1615" class="cls-19" d="M88.968,76.65h0l-.019-.019Z"/>
        <path id="Path_1616" data-name="Path 1616" class="cls-19" d="M88.972,76.657l0-.006,0,0Z"/>
        <path id="Path_1617" data-name="Path 1617" class="cls-19" d="M88.927,76.628Z"/>
        <path id="Path_1618" data-name="Path 1618" class="cls-19" d="M88.936,76.628Z"/>
        <path id="Path_1619" data-name="Path 1619" class="cls-19" d="M88.923,76.65l0,0,0,0Z"/>
        <path id="Path_1620" data-name="Path 1620" class="cls-19" d="M88.946,76.647Z"/>
        <path id="Path_1621" data-name="Path 1621" class="cls-19" d="M88.914,76.625Z"/>
        <path id="Path_1622" data-name="Path 1622" class="cls-19" d="M88.933,76.625Z"/>
        <path id="Path_1623" data-name="Path 1623" class="cls-19" d="M88.933,76.625Z"/>
        <path id="Path_1624" data-name="Path 1624" class="cls-19" d="M89.029,76.785c-.016-.019-.029-.038,0-.019s-.064-.077-.093-.112a.223.223,0,0,1,.019.029l.038.038h-.019c-.019,0,.026.038.054.074h0a.049.049,0,0,0,0-.01Z"/>
        <path id="Path_1625" data-name="Path 1625" class="cls-19" d="M88.933,76.654h0l-.022-.022.016.022h0Z"/>
        <path id="Path_1626" data-name="Path 1626" class="cls-19" d="M88.933,76.647a.638.638,0,0,0,.045.051l-.019-.029-.022-.022h0S88.936,76.65,88.933,76.647Z"/>
        <path id="Path_1627" data-name="Path 1627" class="cls-19" d="M89.045,76.727Z"/>
        <path id="Path_1628" data-name="Path 1628" class="cls-19" d="M89.032,76.718h.016a.07.07,0,0,0-.022-.022h0l-.035-.032Z"/>
        <path id="Path_1629" data-name="Path 1629" class="cls-19" d="M88.988,76.686h0L89,76.7h0A.065.065,0,0,1,88.988,76.686Z"/>
        <path id="Path_1630" data-name="Path 1630" class="cls-19" d="M88.914,76.641l-.019-.022.026.032Z"/>
        <path id="Path_1631" data-name="Path 1631" class="cls-19" d="M88.911,76.647l-.016-.019.01.01Z"/>
        <path id="Path_1632" data-name="Path 1632" class="cls-19" d="M88.6,77.015Z"/>
        <path id="Path_1633" data-name="Path 1633" class="cls-19" d="M88.619,77.025Z"/>
        <path id="Path_1634" data-name="Path 1634" class="cls-19" d="M88.805,76.718c0-.022-.022-.054,0-.029v.026S88.8,76.711,88.805,76.718Z"/>
        <path id="Path_1635" data-name="Path 1635" class="cls-19" d="M88.751,76.894Z"/>
        <path id="Path_1636" data-name="Path 1636" class="cls-19" d="M88.754,77.006V76.99A.025.025,0,0,0,88.754,77.006Z"/>
        <path id="Path_1637" data-name="Path 1637" class="cls-19" d="M88.5,77.006l-.016.026A.2.2,0,0,0,88.5,77.006Z"/>
        <path id="Path_1638" data-name="Path 1638" class="cls-19" d="M88.872,76.689Z"/>
        <path id="Path_1639" data-name="Path 1639" class="cls-19" d="M88.687,76.743Z"/>
        <path id="Path_1640" data-name="Path 1640" class="cls-19" d="M88.856,76.679Z"/>
        <path id="Path_1641" data-name="Path 1641" class="cls-19" d="M88.293,76.785Z"/>
        <path id="Path_1642" data-name="Path 1642" class="cls-19" d="M88.491,76.583Z"/>
        <path id="Path_1643" data-name="Path 1643" class="cls-19" d="M88.885,76.65Z"/>
        <path id="Path_1644" data-name="Path 1644" class="cls-19" d="M88.968,76.734Z"/>
        <path id="Path_1645" data-name="Path 1645" class="cls-19" d="M88.933,76.83Z"/>
        <path id="Path_1646" data-name="Path 1646" class="cls-19" d="M88.895,76.66Z"/>
        <path id="Path_1647" data-name="Path 1647" class="cls-19" d="M88.888,76.647Z"/>
        <path id="Path_1648" data-name="Path 1648" class="cls-19" d="M88.885,76.654Z"/>
        <path id="Path_1649" data-name="Path 1649" class="cls-19" d="M88.447,76.849Z"/>
        <path id="Path_1650" data-name="Path 1650" class="cls-19" d="M88.863,76.993h0v0Z"/>
        <path id="Path_1651" data-name="Path 1651" class="cls-19" d="M88.863,77.015v-.022l-.026-.077Z"/>
        <path id="Path_1652" data-name="Path 1652" class="cls-19" d="M88.559,77.012v.022c-.019.035-.022.022-.029.054.032-.077.029,0,.058-.08v.019h0c0,.042.026-.058.029-.045a.042.042,0,0,1,0,.029V77h0s0-.032.016-.042,0,0,0,.019h0v.035c-.016.083,0-.019,0,.032h0V77.1a.528.528,0,0,1,0-.1h0v.061a.079.079,0,0,1,.016-.048.355.355,0,0,1,0,.061v-.058c0-.006,0,0,.022-.022s0,.026,0,.035v-.029h0v-.048c0-.01,0,.064.016,0a.18.18,0,0,1,0,.042.2.2,0,0,0,0-.07v.029a.474.474,0,0,1,0-.1.164.164,0,0,1,0-.032h0a.349.349,0,0,1,0,.061v.051h0v.013h0a.093.093,0,0,1,0,.029v-.061h0s.026,0,0-.058c0,0,.016.061.016.07l-.016-.086-.019-.09a1.355,1.355,0,0,1,.048.176h0a.552.552,0,0,1-.022-.067.412.412,0,0,0,.029.064.582.582,0,0,1-.022-.074s.022.067.026.074l-.016-.07a.6.6,0,0,0,.029.077h0a.51.51,0,0,1-.019-.1.39.39,0,0,0,.042.09l-.07-.189V76.74c.022.051.061.16.074.2s0,.022,0,.019a.061.061,0,0,1,0,.029h.016c-.016-.038,0-.042-.026-.074v.045c-.016-.038-.042-.112-.032-.109s.032.07.038.083,0-.029,0-.022v.022s-.019-.051,0-.019.029.045.019.022-.093-.173-.109-.2l.042.058c.019.032.038.08.054.109v-.029s.016.032.016.026,0,0-.016-.032h0a.641.641,0,0,1-.048-.093l.016.026s.022.016.029,0l.026.035V76.81s0,0,.026.042a.287.287,0,0,1-.022-.045c-.019-.032,0,0,0,0a.765.765,0,0,1-.064-.118s.022.029.019.019-.048-.08-.019-.051a.6.6,0,0,1,.054.074c.016.019-.019-.016-.019,0h0c0-.019,0,0,.038,0a.118.118,0,0,0-.019-.032h0c-.016-.019-.016-.032-.026-.042s-.026-.042,0-.032l.022.029h0l-.019-.019c0-.016-.032-.051-.022-.042l-.029-.032c.038.045,0,0,.032.048l-.048-.048h0v.016c.016.022,0,.026.019.038s0,0-.019-.022v.019a.352.352,0,0,1-.038-.051h0c.016,0,0,.029,0,0v.016h0v-.022h0c-.035-.058,0,0-.022-.019v.074c0,.022-.016,0-.019,0h0c-.032-.058,0,.045-.016,0h0v-.026h0v.051c-.019-.045,0,0-.019-.032,0,.026,0,.019.019.07h0v.016a.092.092,0,0,0-.019-.064.4.4,0,0,1,0,.061v-.022h0c0-.032-.019,0-.035-.042v0a.145.145,0,0,1,0-.035h0v.083h0a.15.15,0,0,1,0-.038v.016h0v.016h0v.006h0a.808.808,0,0,1,0-.093.029.029,0,0,1,0-.016v-.01c0-.006-.019.067,0,.029a.416.416,0,0,1,0,.042h0a.23.23,0,0,0-.022.048c.032-.1-.032.042,0-.048h0l-.022.035a.106.106,0,0,1,0-.019c0-.022,0-.016-.026.022v-.029c0,.016.016-.045,0,0h0c-.026.029.035-.077-.029,0l-.022.022a.406.406,0,0,0-.035.054c-.006.016,0-.032.019-.035h0c.035-.048,0-.022.029-.054s0-.035,0-.045l-.029.035h0s.022-.026.026-.022-.019,0-.026.019.038-.035.038-.038h0s-.026.026-.029.022l.019-.022h0l-.022.029c-.016,0,0,0-.032.026.045-.048,0-.032.016-.048s-.022,0-.022,0-.035.032-.035.026c.067-.054.022-.029.07-.07-.032.029,0,0-.058.038s.026-.019.038-.032a.018.018,0,0,0,0-.026l-.038.026L88.4,76.5s-.054.035-.026,0l-.019.016c.035-.042-.061,0,.022-.07h-.022l-.038.022.035-.026c-.038.016,0,0-.042,0h0c-.042.019-.09.051-.144.08.048-.022-.064.048,0,.016a.083.083,0,0,1-.029,0h.022v.045h.022c.038-.019,0,0,.038-.032-.048.038,0,.019-.045.058,0,0,.029-.019.032,0h.006l-.035.029h0c.022,0,0,.029.048,0h0c.026,0,0,.016,0,.016h.019a.47.47,0,0,1-.035.032c-.013.01.019,0,.061-.042v.019l.032-.022c-.016,0-.022.029-.045.042s.048-.022,0,.032c.051-.042.019-.032.032-.038s.038-.032.035-.026-.054.061-.048.067h0l.035-.032h0s.054-.045.042-.019l-.022.019h0s-.016,0-.045.026.032-.022,0,0c.048-.048,0,0,.042-.022l-.022.022h.016l-.026.026c.022-.019,0,.029,0,.019s.022-.029.032-.048-.045.064-.026.064,0-.019.016-.029a.061.061,0,0,1,0,.032.471.471,0,0,1,.032-.038c.013-.013,0,0,.022-.016l-.016.026c0,.022.038-.048.032-.026l-.026.032h0l-.022.029c.019-.019.019,0,.016,0a.233.233,0,0,1,.035-.045c0,.019-.016.026,0,.026s-.029.032,0,0l-.016.022h0l.029-.029a.071.071,0,0,1-.016.026H88.4a.233.233,0,0,1-.035.048l.022-.019a.118.118,0,0,1-.016.035s.038-.032.035,0h0s0,.038.019,0v.042s0-.054.032-.064,0,.035,0,.048.035-.058.029-.022S88.562,77.009,88.559,77.012Zm.086,0h0c0-.022,0-.006,0,.006Zm.118-.067h0s0,0,0,.006Zm.128-.275h0s-.006,0,0,.006Zm0,0h0s.013.022.01.016Zm-.32,0h0s0,.029,0,.022Z"/>
        <path id="Path_1653" data-name="Path 1653" class="cls-19" d="M88.754,76.993a.022.022,0,0,0,0-.016.035.035,0,0,0,0,.016Z"/>
        <path id="Path_1654" data-name="Path 1654" class="cls-19" d="M88.507,77h0l0,0Z"/>
        <path id="Path_1655" data-name="Path 1655" class="cls-19" d="M88.968,76.945Z"/>
        <path id="Path_1656" data-name="Path 1656" class="cls-19" d="M88.888,76.631Z"/>
        <path id="Path_1657" data-name="Path 1657" class="cls-19" d="M89.026,76.762Z"/>
        <path id="Path_1658" data-name="Path 1658" class="cls-19" d="M88.968,76.711h0C88.939,76.689,88.946,76.7,88.968,76.711Z"/>
        <path id="Path_1659" data-name="Path 1659" class="cls-19" d="M88.968,76.714Z"/>
        <path id="Path_1660" data-name="Path 1660" class="cls-19" d="M88.895,76.67s-.019-.029,0-.019S88.9,76.686,88.895,76.67Z"/>
        <path id="Path_1661" data-name="Path 1661" class="cls-19" d="M89,76.775l-.019-.026.016.019Z"/>
        <path id="Path_1662" data-name="Path 1662" class="cls-19" d="M88.968,76.766Z"/>
        <path id="Path_1663" data-name="Path 1663" class="cls-19" d="M88.968,76.762Z"/>
        <path id="Path_1664" data-name="Path 1664" class="cls-19" d="M89.007,76.785l0-.006H89Z"/>
        <path id="Path_1665" data-name="Path 1665" class="cls-19" d="M88.943,76.785Z"/>
        <path id="Path_1666" data-name="Path 1666" class="cls-19" d="M89,76.849V76.83l.019.032Z"/>
        <path id="Path_1667" data-name="Path 1667" class="cls-19" d="M89,76.862s0,.029.016.026A.179.179,0,0,0,89,76.862Z"/>
        <path id="Path_1668" data-name="Path 1668" class="cls-19" d="M88.917,76.852h0l-.029-.058Z"/>
        <path id="Path_1669" data-name="Path 1669" class="cls-19" d="M88.923,77.018v-.045C88.923,76.948,88.907,76.98,88.923,77.018Z"/>
        <path id="Path_1670" data-name="Path 1670" class="cls-19" d="M88.911,76.974Z"/>
        <path id="Path_1671" data-name="Path 1671" class="cls-19" d="M88.517,76.561l.013-.006-.019.01Z"/>
        <path id="Path_1672" data-name="Path 1672" class="cls-19" d="M88.475,76.58l.035-.019-.035.016S88.482,76.574,88.475,76.58Z"/>
        <path id="Path_1673" data-name="Path 1673" class="cls-19" d="M88.648,77.1Z"/>
        <path id="Path_1674" data-name="Path 1674" class="cls-19" d="M88.584,77.054h0l.01-.035Z"/>
        <path id="Path_1675" data-name="Path 1675" class="cls-19" d="M88.514,77.076Z"/>
      </g>
      <path id="Path_1676" data-name="Path 1676" class="cls-16" d="M87.048,90.472C84.27,91.7,81.089,92.9,79.207,92.914c0,0,4.388,11.864,3.015,15.473,0,0-3.466,2.029-5.367,2.122,0,0,.1-.15.288-.4a16.681,16.681,0,0,1,2.88-2.989s-.483-.746-1.171-1.92C76.66,101.443,72.4,93.3,75.111,90.8a27.933,27.933,0,0,1,8.071-5.812,15.912,15.912,0,0,1,1.8-.666,11.994,11.994,0,0,1,2.983-.534l2.919,2.624,1.6,1.431S89.976,89.17,87.048,90.472Z"/>
      <g id="Group_221" data-name="Group 221" class="cls-18">
        <path id="Path_1677" data-name="Path 1677" class="cls-19" d="M75.882,92.994h-.026S75.885,93,75.882,92.994Z"/>
        <path id="Path_1678" data-name="Path 1678" class="cls-19" d="M75.911,93.068l-.01-.006.019.019Z"/>
        <path id="Path_1679" data-name="Path 1679" class="cls-19" d="M75.885,93.129c.042.016,0-.019.022-.019h0l-.032-.019S75.9,93.129,75.885,93.129Z"/>
        <path id="Path_1680" data-name="Path 1680" class="cls-19" d="M75.789,93.09Z"/>
        <path id="Path_1681" data-name="Path 1681" class="cls-19" d="M75.793,93.087Z"/>
        <path id="Path_1682" data-name="Path 1682" class="cls-19" d="M75.789,93.129H75.77C75.751,93.129,75.773,93.109,75.789,93.129Z"/>
        <path id="Path_1683" data-name="Path 1683" class="cls-19" d="M75.815,93.129Z"/>
        <path id="Path_1684" data-name="Path 1684" class="cls-19" d="M75.8,93.129v.016h0C75.783,93.145,75.809,93.129,75.8,93.129Z"/>
        <path id="Path_1685" data-name="Path 1685" class="cls-19" d="M75.812,93.129h.029C75.853,93.129,75.812,93.1,75.812,93.129Z"/>
        <path id="Path_1686" data-name="Path 1686" class="cls-19" d="M75.927,93.129Z"/>
        <path id="Path_1687" data-name="Path 1687" class="cls-19" d="M75.751,93.129a.185.185,0,0,0,.035.016h0Z"/>
        <path id="Path_1688" data-name="Path 1688" class="cls-19" d="M75.786,93.154Z"/>
        <path id="Path_1689" data-name="Path 1689" class="cls-19" d="M75.86,93.157l-.026-.029.026.032Z"/>
        <path id="Path_1690" data-name="Path 1690" class="cls-19" d="M75.735,93.164l-.016-.016.026.022Z"/>
        <path id="Path_1691" data-name="Path 1691" class="cls-19" d="M75.732,93.18s-.032,0-.038-.019,0,0,.022.026S75.716,93.177,75.732,93.18Z"/>
        <path id="Path_1692" data-name="Path 1692" class="cls-19" d="M75.729,93.2v-.016Z"/>
        <path id="Path_1693" data-name="Path 1693" class="cls-19" d="M75.786,93.177a.042.042,0,0,0-.029,0h.026Z"/>
        <path id="Path_1694" data-name="Path 1694" class="cls-19" d="M75.783,93.18Z"/>
        <path id="Path_1695" data-name="Path 1695" class="cls-19" d="M75.786,93.177Z"/>
        <path id="Path_1696" data-name="Path 1696" class="cls-19" d="M75.828,93.164a.093.093,0,0,0,.048.029A.272.272,0,0,1,75.828,93.164Z"/>
        <path id="Path_1697" data-name="Path 1697" class="cls-19" d="M75.815,93.189Z"/>
        <path id="Path_1698" data-name="Path 1698" class="cls-19" d="M75.821,93.2l0-.006h-.006Z"/>
        <path id="Path_1699" data-name="Path 1699" class="cls-19" d="M75.757,93.205v.016S75.761,93.2,75.757,93.205Z"/>
        <path id="Path_1700" data-name="Path 1700" class="cls-19" d="M75.773,93.193Z"/>
        <path id="Path_1701" data-name="Path 1701" class="cls-19" d="M75.745,93.257l0,0,0,0Z"/>
        <path id="Path_1702" data-name="Path 1702" class="cls-19" d="M75.783,93.215Z"/>
        <path id="Path_1703" data-name="Path 1703" class="cls-19" d="M75.735,93.218Z"/>
        <path id="Path_1704" data-name="Path 1704" class="cls-19" d="M75.767,93.193Z"/>
        <path id="Path_1705" data-name="Path 1705" class="cls-19" d="M75.767,93.193Z"/>
        <path id="Path_1706" data-name="Path 1706" class="cls-19" d="M75.885,93.356c-.019,0-.035-.032,0-.029a.419.419,0,0,0-.128-.067.051.051,0,0,1,.029.026.087.087,0,0,1,.051.016c.016.016,0,0-.026,0s.032.035.074.058v-.016Z"/>
        <path id="Path_1707" data-name="Path 1707" class="cls-19" d="M75.757,93.247h-.035l.022.019h0Z"/>
        <path id="Path_1708" data-name="Path 1708" class="cls-19" d="M75.764,93.231a.259.259,0,0,0,.058.038s0-.016-.026-.029,0,0-.029,0h0v.022S75.764,93.237,75.764,93.231Z"/>
        <path id="Path_1709" data-name="Path 1709" class="cls-19" d="M75.921,93.228Z"/>
        <path id="Path_1710" data-name="Path 1710" class="cls-19" d="M75.9,93.228h.019s0-.016-.026-.016h0a.09.09,0,0,1-.048,0Z"/>
        <path id="Path_1711" data-name="Path 1711" class="cls-19" d="M75.847,93.234v.016h.026S75.847,93.237,75.847,93.234Z"/>
        <path id="Path_1712" data-name="Path 1712" class="cls-19" d="M75.732,93.25l-.022-.016.029.029Z"/>
        <path id="Path_1713" data-name="Path 1713" class="cls-19" d="M75.729,93.266l-.022-.013.01.013Z"/>
        <path id="Path_1714" data-name="Path 1714" class="cls-19" d="M75.06,93.926Z"/>
        <path id="Path_1715" data-name="Path 1715" class="cls-19" d="M75.092,93.954Z"/>
        <path id="Path_1716" data-name="Path 1716" class="cls-19" d="M75.508,93.586c-.019,0-.051-.032-.029-.016l.019.019A.007.007,0,0,1,75.508,93.586Z"/>
        <path id="Path_1717" data-name="Path 1717" class="cls-19" d="M75.4,93.868h0v-.026Z"/>
        <path id="Path_1718" data-name="Path 1718" class="cls-19" d="M75.428,93.977h-.016Z"/>
        <path id="Path_1719" data-name="Path 1719" class="cls-19" d="M74.909,93.791h-.026S74.887,93.8,74.909,93.791Z"/>
        <path id="Path_1720" data-name="Path 1720" class="cls-19" d="M75.649,93.414h-.019C75.645,93.417,75.665,93.426,75.649,93.414Z"/>
        <path id="Path_1721" data-name="Path 1721" class="cls-19" d="M75.252,93.708Z"/>
        <path id="Path_1722" data-name="Path 1722" class="cls-19" d="M75.62,93.423Z"/>
        <path id="Path_1723" data-name="Path 1723" class="cls-19" d="M74.721,93.209Z"/>
        <path id="Path_1724" data-name="Path 1724" class="cls-19" d="M74.961,93Z"/>
        <path id="Path_1725" data-name="Path 1725" class="cls-19" d="M75.684,93.318Z"/>
        <path id="Path_1726" data-name="Path 1726" class="cls-19" d="M75.783,93.359Z"/>
        <path id="Path_1727" data-name="Path 1727" class="cls-19" d="M75.738,93.551Z"/>
        <path id="Path_1728" data-name="Path 1728" class="cls-19" d="M75.7,93.321Z"/>
        <path id="Path_1729" data-name="Path 1729" class="cls-19" d="M75.687,93.314Z"/>
        <path id="Path_1730" data-name="Path 1730" class="cls-19" d="M75.681,93.321Z"/>
        <path id="Path_1731" data-name="Path 1731" class="cls-19" d="M74.887,93.49Z"/>
        <path id="Path_1732" data-name="Path 1732" class="cls-19" d="M75.642,93.852v0h0Z"/>
        <path id="Path_1733" data-name="Path 1733" class="cls-19" d="M75.642,93.878c-.016-.032,0-.029,0-.029l-.054-.054Z"/>
        <path id="Path_1734" data-name="Path 1734" class="cls-19" d="M74.989,93.865v.026c-.042.016-.038,0-.058.029.064-.054.045.035.106-.026v.019h0c-.016.042.051-.035.058,0a.022.022,0,0,1,0,.026h.051l.035-.029v.016H75.2c0,.022-.026.035-.032.026-.035.08.019,0,.026.048h-.019v.077c0-.019,0-.086.022-.1s0,.016.019,0,0,.026,0,.029l-.016.035c.019,0,.022-.026.035-.042s0,.038,0,.064,0-.051.026-.051a.061.061,0,0,0,.054-.019c.022-.019,0,.026,0,.038V94h0v-.051c0-.01.029.064.042,0a.164.164,0,0,1,0,.042.182.182,0,0,0,.026-.074l.019.019a.227.227,0,0,1,0-.093l-.016-.029v-.026a.1.1,0,0,1,0,.035h0a.109.109,0,0,1,.019.054v-.019a.32.32,0,0,0,0,.074h0a.022.022,0,0,0,0,.016v-.016l.019.042v-.019l.035.016c0-.048-.016-.112,0-.141a.528.528,0,0,0,.048.08c-.029-.032,0,.029-.026.026a.045.045,0,0,1,0,.026v-.045c0,.026,0,0,.029.026-.035-.051,0-.048,0-.067s.022.035,0,.038c.038.032-.026-.07,0-.045h0s.016-.016.026,0h0c.019,0,.045-.035,0-.077l.045.058-.045-.077-.051-.074c.029.035.112.106.118.134h0l-.051-.048a.321.321,0,0,0,.064.035s-.058-.058-.051-.061l.054.054-.038-.061a.32.32,0,0,0,.058.054v-.019h0c.019,0-.061-.08-.045-.09s.064.064.077.061a1.175,1.175,0,0,1-.131-.157h0v-.026a1.479,1.479,0,0,1,.134.17H75.7a.091.091,0,0,1,.019.029h.026c-.035-.026-.022-.042-.048-.064l.016.051c-.032-.029-.08-.09-.067-.1a.4.4,0,0,1,.067.058s0-.032,0-.026v.019c.019,0-.035-.048,0-.032s.051.026.032,0a1.869,1.869,0,0,1-.186-.141l.07.026c.032,0,.064.061.093.077l-.019-.022s.026.022.029,0,0,0-.026-.026h0a.249.249,0,0,1-.077-.077l.026.019s.035,0,.045-.022a.106.106,0,0,1,.038.019v-.022c0-.006,0,0,.042.032-.022,0-.022-.029-.032-.045s0,0,0,.026a.32.32,0,0,1-.093-.1c0-.016.032,0,.026,0s-.067-.067-.022-.064a.352.352,0,0,1,.077.048c0,.016-.026,0-.029,0h.019c0-.019.026-.032.061-.032a.109.109,0,0,0-.029-.026h0c-.026,0-.026-.029-.038-.029s-.035-.038,0-.042l.035.019h0c.022,0,.054,0,0-.019h-.026c0-.016-.042-.045-.029-.048s0,0-.038,0c.051.022,0,.019.042.042-.048-.019-.026,0-.067-.016h.016c.026.019,0,.029.026.042s0,0-.022-.016l.016.019c-.026-.016-.048-.016-.054-.035H75.6c.006,0,.019.029,0,0V93.3h0s.022.051-.029.038v.019h-.022s-.029,0,0,.019c-.058-.032-.032.019-.048.019l.026.019v.032l.022.019c0,.019-.029,0-.035,0h0c-.058-.029.016.054-.029.035h0a.042.042,0,0,0,0,.016l-.026-.019h0l.026.026a.032.032,0,0,0,0,.016c-.038-.029,0,.019-.038,0,.016.019,0,.029.035.067h0l-.029-.026.029.045a.138.138,0,0,1-.048-.048c.022.042,0,.019.026.061v0c0-.016-.042.026-.083,0,.042.064-.022-.022,0,.029a.109.109,0,0,1-.019-.038c0,.022-.022-.019,0,.026v-.032h0a.032.032,0,0,1,0-.022.32.32,0,0,0,.029.1v.019c0-.016-.016-.032,0-.038s-.022-.019,0,.019h0v.016h0c0-.035,0,.016-.019-.026v.032c0,.064,0-.042-.019-.019v-.077h0s0,.035-.022.042.019-.048.019-.054-.038.058-.022.019a.2.2,0,0,1-.026.038s.026-.061,0-.022h0a.069.069,0,0,0-.048.026c.07-.077-.061,0,0-.054h-.042s0-.022-.045,0l.026-.019c-.019,0,.026-.045,0-.042h0c-.042,0,.054-.08-.051-.035h-.029c0,.022-.045.019-.061.035s.022-.032.032-.026h0c.054-.022,0-.029.045-.045-.016-.032,0-.074,0-.106l-.042.019h0s.032-.016.032,0-.026,0-.032,0,.051,0,.051-.019h-.042s.026,0,.029-.016h0v-.016l-.032.019c-.019,0,0-.016-.038,0,.058-.029,0-.058.022-.07s-.029,0-.029-.022-.045.019-.045,0c.083-.016.032-.026.086-.048-.035.016-.016-.026-.067,0a.07.07,0,0,0,.048-.019c-.035,0,0-.045,0-.064a.08.08,0,0,1-.042,0l.051-.022h-.054c.042-.054-.061-.083.029-.147h-.064l.038-.026c-.042,0,0-.019-.045-.016h0a1.224,1.224,0,0,0-.16.035c.054,0-.074.038,0,.042h-.032c-.013,0,.032,0,.022.016h0a.1.1,0,0,1-.022.074h.026l-.016.016c.045,0,0-.019.048-.022-.058.019,0,.045-.058.064h.042a.083.083,0,0,1-.042.019h0V93.2h0c.022.022,0,.061.048.077h0c.032,0,0,.016,0,.035h.022s-.026.019-.045,0h.1c.01,0-.032.016-.061,0s.061.019,0,.048c.064,0,.029-.029.045-.026a.188.188,0,0,0,.045,0s-.077.035-.07.051h0s.026,0,0,.026h.048s.074,0,.051.016h-.138c-.038,0,.042,0,0,.019.064-.016,0,.022.048.016h-.045c.035,0-.019.029,0,.032s.032,0,.051-.032-.067.042-.045.064,0-.022.026-.019a.074.074,0,0,1-.022.026c0,.016.026,0,.045,0-.029.019.019,0,.032,0H74.89c0,.029.061-.019.048,0h-.074c.029,0,.026,0,.022.019s.048-.022.054,0-.029,0-.019.019-.042,0-.019,0h-.026c-.016,0,0,.019,0,.026h.045a.109.109,0,0,1-.061.022h.026s-.022.026-.029.026.054,0,.048.026h0c0,.016,0,.045.022.038l-.029.035s.035-.045.064-.035-.026.029-.032.038.064-.022.048,0S75,93.868,74.989,93.865Zm.166.109s-.022.019-.019,0,.016-.013.019,0Zm.282-.061h0s-.006-.006,0,0ZM75.684,93.362Zm.019,0h0s0,0,0,0Zm-.64.029h0s-.016,0-.01,0Z"/>
        <path id="Path_1735" data-name="Path 1735" class="cls-19" d="M75.425,93.964v-.016A.019.019,0,0,0,75.425,93.964Z"/>
        <path id="Path_1736" data-name="Path 1736" class="cls-19" d="M74.916,93.788Z"/>
        <path id="Path_1737" data-name="Path 1737" class="cls-19" d="M75.805,93.66h-.016S75.8,93.663,75.805,93.66Z"/>
        <path id="Path_1738" data-name="Path 1738" class="cls-19" d="M75.69,93.279Z"/>
        <path id="Path_1739" data-name="Path 1739" class="cls-19" d="M75.885,93.318Z"/>
        <path id="Path_1740" data-name="Path 1740" class="cls-19" d="M75.78,93.327H75.8C75.767,93.3,75.773,93.314,75.78,93.327Z"/>
        <path id="Path_1741" data-name="Path 1741" class="cls-19" d="M75.8,93.321Z"/>
        <path id="Path_1742" data-name="Path 1742" class="cls-19" d="M75.7,93.337h-.019C75.652,93.3,75.7,93.359,75.7,93.337Z"/>
        <path id="Path_1743" data-name="Path 1743" class="cls-19" d="M75.853,93.366l-.026-.016.019.016Z"/>
        <path id="Path_1744" data-name="Path 1744" class="cls-19" d="M75.812,93.391Z"/>
        <path id="Path_1745" data-name="Path 1745" class="cls-19" d="M75.815,93.378Z"/>
        <path id="Path_1746" data-name="Path 1746" class="cls-19" d="M75.857,93.382l-.006,0-.006.006Z"/>
        <path id="Path_1747" data-name="Path 1747" class="cls-19" d="M75.757,93.465Z"/>
        <path id="Path_1748" data-name="Path 1748" class="cls-19" d="M75.847,93.487h-.022l.035.022Z"/>
        <path id="Path_1749" data-name="Path 1749" class="cls-19" d="M75.847,93.516s.019.032.022.019S75.847,93.516,75.847,93.516Z"/>
        <path id="Path_1750" data-name="Path 1750" class="cls-19" d="M75.713,93.609h0l-.051-.038Z"/>
        <path id="Path_1751" data-name="Path 1751" class="cls-19" d="M75.741,93.81c.019,0-.026-.029,0-.022s-.019,0-.026-.016S75.709,93.785,75.741,93.81Z"/>
        <path id="Path_1752" data-name="Path 1752" class="cls-19" d="M75.713,93.769Z"/>
        <path id="Path_1753" data-name="Path 1753" class="cls-19" d="M74.989,92.969,75,92.962l-.019.006Z"/>
        <path id="Path_1754" data-name="Path 1754" class="cls-19" d="M74.941,92.962h0Z"/>
        <path id="Path_1755" data-name="Path 1755" class="cls-19" d="M75.156,94.063h0v-.019Z"/>
        <path id="Path_1756" data-name="Path 1756" class="cls-19" d="M75.021,93.948h0l.022-.029Z"/>
        <path id="Path_1757" data-name="Path 1757" class="cls-19" d="M74.906,93.887Z"/>
      </g>
      <g id="Group_222" data-name="Group 222" class="cls-18">
        <path id="Path_1758" data-name="Path 1758" class="cls-19" d="M87.048,90.472C84.27,91.7,81.089,92.9,79.207,92.914c0,0,4.388,11.864,3.015,15.473,0,0-3.466,2.029-5.367,2.122,0,0,.1-.15.288-.4,3.613-1.347,5.7-2.144,4.464-5.149-1.335-3.261-6.589-13.294-2.861-13.736a27.186,27.186,0,0,0,8.532-2.989h0c.992-.5,1.962-1.015,2.88-1.514a7.042,7.042,0,0,1,.7-.32l1.6,1.431S89.976,89.17,87.048,90.472Z"/>
        <path id="Path_1759" data-name="Path 1759" class="cls-19" d="M92.457,87.832s-2.48,1.338-5.418,2.64a2.173,2.173,0,0,1,.23-2.24h0c1.069-1.325.426-2.723-2.307-3.924a12,12,0,0,1,2.983-.534L90.863,86.4Z"/>
      </g>
      <path id="Path_1760" data-name="Path 1760" class="cls-17" d="M89.288,78.622a6.768,6.768,0,0,1-1.671-.669c-.819-1.171-2.24-.909-3.8-2.435-.189-.182-.374-.368-.554-.55.688-.579,1.037-1.213.534-1.8A7.572,7.572,0,0,1,85.6,74.407c2.951,2.6-.528.909,1.28,2.01A7.288,7.288,0,0,1,89.288,78.622Z"/>
      <path id="Path_1761" data-name="Path 1761" class="cls-17" d="M83.265,74.967c-.176-.176-.346-.352-.518-.528-.576-.6-1.117-1.184-1.623-1.757a5.994,5.994,0,0,1,2.672.48h0C84.3,73.754,83.953,74.388,83.265,74.967Z"/>
      <path id="Path_1762" data-name="Path 1762" class="cls-17" d="M83.8,73.162a5.994,5.994,0,0,0-2.672-.48,51.324,51.324,0,0,1-4.749-6.18l-.272-1.69c.621-.906.9-1.363,2.157.867A50.13,50.13,0,0,0,83.8,73.162Z"/>
      <path id="Path_1763" data-name="Path 1763" class="cls-7" d="M84.958,70.243A18.322,18.322,0,0,1,82.689,71a1.427,1.427,0,0,0,.2-1.28c.394-.109.816-.234,1.207-.365a2.24,2.24,0,0,0,.867.886Z"/>
      <path id="Path_1764" data-name="Path 1764" class="cls-7" d="M82.689,71a6.21,6.21,0,0,1-.7.138,1.28,1.28,0,0,0,.115-1.216c.23-.054.5-.125.778-.2A1.427,1.427,0,0,1,82.689,71Z"/>
      <path id="Path_1765" data-name="Path 1765" class="cls-7" d="M85.87,69.863c-.243.106-.56.24-.912.381a2.24,2.24,0,0,1-.867-.886c.234-.08.458-.163.64-.243a2.746,2.746,0,0,0,1.139.749Z"/>
      <path id="Path_1766" data-name="Path 1766" class="cls-7" d="M79.227,67.408l-1.341.176-.851-4.573L76.753,61.5l.73-.416.506,1.821Z"/>
      <path id="Path_1767" data-name="Path 1767" class="cls-20" d="M77.482,61.081l.506,1.821a.435.435,0,0,1-.4.128,5.007,5.007,0,0,1-.557-.019L76.753,61.5Z"/>
      <path id="Path_1768" data-name="Path 1768" class="cls-7" d="M86.363,65.187l-1.61.016-1.943-2.419-1.4-1.738.966.074,1.635,1.667Z"/>
      <path id="Path_1769" data-name="Path 1769" class="cls-20" d="M84.017,62.787a1.05,1.05,0,0,1-.669.026.88.88,0,0,0-.538-.029l-1.4-1.738.96.074Z"/>
      <path id="Path_1770" data-name="Path 1770" class="cls-7" d="M87.394,70.167a2.935,2.935,0,0,1-1.44.141,1.469,1.469,0,0,1-.32-.1,1.549,1.549,0,0,1-.64-.531,2.24,2.24,0,0,1-.272-.522,5.325,5.325,0,0,1-.259-1.92,12.213,12.213,0,0,1,.291-2.282c.64-.589,3.344,1.258,3.344,1.258.15.1.288.192.413.285C91.849,68.96,87.394,70.167,87.394,70.167Z"/>
      <path id="Path_1771" data-name="Path 1771" class="cls-8" d="M86.219,66.425c-.042.058.064.32.32.509a.864.864,0,0,0,.461.2h.1a.867.867,0,0,0,.486-.147c.262-.157.4-.426.362-.474a.413.413,0,0,0-.294-.019.51.51,0,0,0,0-.32c-.026-.042-.189.029-.32.157-.029-.182-.1-.32-.176-.32s-.176.131-.227.336c-.134-.173-.3-.266-.349-.23a.384.384,0,0,0-.038.288C86.363,66.387,86.245,66.39,86.219,66.425Z"/>
      <path id="Path_1772" data-name="Path 1772" class="cls-8" d="M84.718,68.23c-.042.058.064.32.32.509a.829.829,0,0,0,.461.2h.1a.842.842,0,0,0,.49-.131c.262-.154.4-.426.362-.474a.413.413,0,0,0-.294-.019.436.436,0,0,0,0-.3c-.026-.022-.189.029-.32.157-.029-.182-.1-.32-.173-.32s-.179.131-.23.32c-.134-.173-.3-.262-.349-.23a.384.384,0,0,0-.038.288C84.862,68.192,84.744,68.2,84.718,68.23Z"/>
      <path id="Path_1773" data-name="Path 1773" class="cls-8" d="M87.835,68.166a.378.378,0,0,0-.042.288c-.144-.045-.262-.042-.288,0a.691.691,0,0,0,.32.509.854.854,0,0,0,.458.2.089.089,0,0,0,.042,0h.061a.835.835,0,0,0,.486-.144c.262-.157.4-.426.362-.474a.419.419,0,0,0-.3-.019.428.428,0,0,0,0-.3c-.029-.026-.189.029-.32.157-.029-.182-.1-.32-.173-.32s-.179.131-.23.32C88.05,68.218,87.883,68.125,87.835,68.166Z"/>
      <path id="Path_1774" data-name="Path 1774" class="cls-8" d="M87.343,70.016c-.042-.029-.189.029-.32.157-.029-.182-.1-.32-.176-.32s-.173.131-.227.32c-.134-.17-.3-.262-.349-.23a.4.4,0,0,0-.038.291c-.147-.048-.266-.045-.291,0a.09.09,0,0,0,0,.061,2.861,2.861,0,0,0,1.447-.128C87.368,70.087,87.368,70.032,87.343,70.016Z"/>
      <path id="Path_1775" data-name="Path 1775" class="cls-8" d="M84.459,66.918a1.088,1.088,0,0,0,.32-.134c.262-.154.4-.426.362-.474a.413.413,0,0,0-.294-.019.436.436,0,0,0,0-.3c-.026-.022-.176.026-.32.144C84.488,66.374,84.488,66.64,84.459,66.918Z"/>
      <path id="Path_1776" data-name="Path 1776" class="cls-22" d="M88.495,66.489c-.3.32-1.184.026-1.856-.467-1.127-.819-.694.813-1.4.474-.368-.179-.582.339-.794.733a12.213,12.213,0,0,1,.291-2.282c.64-.589,3.344,1.258,3.344,1.258C88.232,66.3,88.37,66.4,88.495,66.489Z"/>
      <path id="Path_1777" data-name="Path 1777" class="cls-7" d="M82.395,71.149a1.555,1.555,0,0,1-.621.589,5.287,5.287,0,0,1-1.965.538c-2.019.211-2.525-.941-2.477-2.256a10.507,10.507,0,0,1,.912-3.392c.589-.352,2.106,1,2.743,1.616.179.17.288.285.288.285a6.646,6.646,0,0,1,.81.938,2.679,2.679,0,0,1,.39.8,1.149,1.149,0,0,1-.08.883Z"/>
      <path id="Path_1778" data-name="Path 1778" class="cls-8" d="M77.927,69.162h.1a.864.864,0,0,0,.49-.144c.262-.157.4-.429.362-.474s-.144-.048-.3-.022a.416.416,0,0,0,0-.3c-.029-.022-.189.029-.32.157-.029-.182-.1-.32-.173-.32s-.176.131-.227.32a.934.934,0,0,0-.186-.176c-.067.237-.131.486-.186.742A.87.87,0,0,0,77.927,69.162Z"/>
      <path id="Path_1779" data-name="Path 1779" class="cls-8" d="M79.95,68.662c-.045.058.061.32.32.512a.88.88,0,0,0,.461.2h.1a.842.842,0,0,0,.486-.147.886.886,0,0,0,.32-.32c-.048-.058-.1-.115-.157-.173h-.1a.58.58,0,0,0,.016-.1l-.112-.112-.061-.061a.915.915,0,0,0-.182.128c-.029-.182-.1-.32-.173-.32s-.179.131-.23.32c-.134-.173-.3-.266-.349-.23a.384.384,0,0,0-.042.288C80.094,68.624,79.972,68.627,79.95,68.662Z"/>
      <path id="Path_1780" data-name="Path 1780" class="cls-8" d="M79.313,66.979c-.138-.173-.3-.266-.349-.23s-.061.141-.042.288c-.144-.045-.266-.042-.291,0a.7.7,0,0,0,.32.509.874.874,0,0,0,.461.2h.1A.842.842,0,0,0,80,67.6a.919.919,0,0,0,.15-.112,7.745,7.745,0,0,0-.8-.586A.693.693,0,0,0,79.313,66.979Z"/>
      <path id="Path_1781" data-name="Path 1781" class="cls-8" d="M79.428,70.781c-.029-.182-.1-.32-.176-.32s-.176.131-.227.336c-.138-.173-.3-.262-.349-.23a.371.371,0,0,0-.042.288c-.144-.045-.266-.042-.291,0a.711.711,0,0,0,.32.512.9.9,0,0,0,.461.2.179.179,0,0,0,.042,0h.061a.842.842,0,0,0,.486-.147c.262-.154.4-.426.362-.474a.432.432,0,0,0-.294-.019.459.459,0,0,0,0-.3A.51.51,0,0,0,79.428,70.781Z"/>
      <path id="Path_1782" data-name="Path 1782" class="cls-8" d="M82.216,70.989c-.029-.182-.1-.32-.173-.32s-.176.131-.23.32c-.134-.173-.3-.266-.346-.23s-.061.141-.042.288c-.147-.045-.266-.042-.291,0a.7.7,0,0,0,.32.509,1.015,1.015,0,0,0,.32.173,1.363,1.363,0,0,0,.739-.912A.64.64,0,0,0,82.216,70.989Z"/>
      <path id="Path_1783" data-name="Path 1783" class="cls-22" d="M80.987,68.243c-.214.893-.858.09-2.163-.32-1.175-.365-1.117,1.9-1.491,2.093a10.507,10.507,0,0,1,.912-3.392C78.833,66.275,80.35,67.632,80.987,68.243Z"/>
      <path id="Path_1784" data-name="Path 1784" class="cls-7" d="M90.568,89.512l-.208-.253-4.58-5.642s2.88-3.546,2.512-5.312c0,0,6.813.381,7.165-1.6,0,0,.163.189.41.518C97.494,79.367,102.765,87.637,90.568,89.512Z"/>
      <path id="Path_1785" data-name="Path 1785" class="cls-7" d="M90.568,89.512l-.208-.253c1.389-.512,3.572-.88,2.845-1.511-.986-.854.077-1.469,2.666-1.981s1.216-1.946.186-5.207c-.707-2.24-.6-2.909-.189-3.344C97.494,79.367,102.765,87.637,90.568,89.512Z"/>
      <path id="Path_1786" data-name="Path 1786" class="cls-8" d="M88.168,83.736a.183.183,0,0,0,.058,0h.083a1.2,1.2,0,0,0,.678-.2c.365-.214.554-.592.5-.659a.573.573,0,0,0-.41-.026.638.638,0,0,0,0-.422c-.035-.035-.262.038-.461.218-.038-.253-.144-.432-.24-.445s-.246.186-.32.47c-.189-.24-.419-.368-.486-.32s-.083.2-.054.4c-.2-.064-.371-.058-.406,0a.99.99,0,0,0,.429.71,1.219,1.219,0,0,0,.627.278Z"/>
      <path id="Path_1787" data-name="Path 1787" class="cls-8" d="M89.192,80.235c-.058.08.086.454.426.71a1.229,1.229,0,0,0,.64.275.176.176,0,0,0,.058,0h.08a1.184,1.184,0,0,0,.678-.2c.368-.214.557-.592.506-.659a.586.586,0,0,0-.413-.026.6.6,0,0,0,0-.422c-.038-.035-.262.042-.458.218-.042-.253-.144-.432-.243-.445s-.246.186-.32.47c-.192-.24-.419-.368-.486-.32s-.083.2-.058.4C89.394,80.18,89.228,80.187,89.192,80.235Z"/>
      <path id="Path_1788" data-name="Path 1788" class="cls-8" d="M89.218,86.261a1.194,1.194,0,0,0,.64.275.122.122,0,0,0,.058,0H90a1.2,1.2,0,0,0,.678-.2c.365-.214.554-.592.5-.659a.573.573,0,0,0-.41-.026.639.639,0,0,0,0-.422c-.035-.035-.262.042-.461.218-.038-.253-.141-.432-.24-.445s-.246.186-.32.47c-.189-.24-.419-.368-.483-.32s-.086.2-.058.4c-.2-.064-.371-.058-.406,0A.96.96,0,0,0,89.218,86.261Z"/>
      <path id="Path_1789" data-name="Path 1789" class="cls-8" d="M86.875,84.942h0l.029.035A.1.1,0,0,0,86.875,84.942Z"/>
      <path id="Path_1790" data-name="Path 1790" class="cls-8" d="M92.953,88.763a.579.579,0,0,0-.413-.029.6.6,0,0,0,0-.422c-.038-.035-.259.042-.458.218-.042-.253-.144-.432-.243-.445s-.246.186-.32.47c-.192-.24-.419-.368-.486-.32a.528.528,0,0,0-.058.4c-.2-.064-.368-.061-.4,0a.968.968,0,0,0,.429.71l.125.086q.941-.17,1.738-.387C92.943,88.907,92.978,88.8,92.953,88.763Z"/>
      <path id="Path_1791" data-name="Path 1791" class="cls-8" d="M92.053,84.03h.138a1.181,1.181,0,0,0,.678-.2c.365-.218.554-.6.506-.659a.579.579,0,0,0-.413-.029.619.619,0,0,0,0-.422c-.038-.035-.262.042-.458.221-.042-.256-.144-.435-.243-.445s-.246.186-.32.467c-.189-.24-.419-.368-.483-.32a.518.518,0,0,0-.058.4c-.2-.064-.371-.061-.406,0a.979.979,0,0,0,.429.71,1.2,1.2,0,0,0,.63.275Z"/>
      <path id="Path_1792" data-name="Path 1792" class="cls-8" d="M97.417,80.43c-.051.035-.083.2-.058.4-.2-.064-.368-.058-.4,0a.99.99,0,0,0,.429.71,1.21,1.21,0,0,0,.64.275.118.118,0,0,0,.058,0h.109a10.014,10.014,0,0,0-.368-1.162C97.651,80.478,97.475,80.388,97.417,80.43Z"/>
      <path id="Path_1793" data-name="Path 1793" class="cls-8" d="M95.747,77.361a.522.522,0,0,0-.058.406c-.2-.064-.371-.061-.406,0a.979.979,0,0,0,.429.71,1.2,1.2,0,0,0,.64.278.173.173,0,0,0,.058,0h.083a.864.864,0,0,0,.365-.058c-.256-.432-.506-.81-.723-1.12C95.971,77.406,95.8,77.322,95.747,77.361Z"/>
      <path id="Path_1794" data-name="Path 1794" class="cls-8" d="M92.53,78.446a.122.122,0,0,0,.032,0h.051a1.165,1.165,0,0,0,.678-.2,1.312,1.312,0,0,0,.342-.3,11.675,11.675,0,0,1-1.712.272,1.117,1.117,0,0,0,.55.218Z"/>
      <path id="Path_1795" data-name="Path 1795" class="cls-8" d="M97.82,85.6c-.109,0-.246.186-.32.47-.189-.24-.419-.368-.483-.32a.525.525,0,0,0-.058.4c-.2-.061-.368-.058-.406,0a.978.978,0,0,0,.429.71l.038.026a4.858,4.858,0,0,0,.886-1.223.163.163,0,0,0-.086-.064Z"/>
      <path id="Path_1796" data-name="Path 1796" class="cls-8" d="M87.3,85.394a.17.17,0,0,0-.093-.038l.093.115a.1.1,0,0,0,0-.077Z"/>
      <path id="Path_1797" data-name="Path 1797" class="cls-8" d="M93.074,80.529c-.058.077.086.454.429.71a1.21,1.21,0,0,0,.64.275h.141a1.174,1.174,0,0,0,.675-.2c.368-.218.557-.6.506-.659a.579.579,0,0,0-.416-.006.585.585,0,0,0,0-.419c-.038-.032-.262.038-.458.218-.042-.256-.144-.435-.243-.445s-.246.186-.32.467c-.192-.24-.419-.368-.486-.32a.531.531,0,0,0-.058.4C93.276,80.475,93.109,80.478,93.074,80.529Z"/>
      <path id="Path_1798" data-name="Path 1798" class="cls-8" d="M93.1,86.555a1.219,1.219,0,0,0,.64.275H93.8a.07.07,0,0,0,.035,0h.048a1.187,1.187,0,0,0,.678-.2c.365-.218.554-.6.506-.659a.579.579,0,0,0-.413-.029.607.607,0,0,0,0-.419c-.038-.032-.262.038-.461.218-.038-.256-.141-.432-.24-.445s-.246.186-.32.467c-.189-.24-.419-.368-.483-.32a.531.531,0,0,0-.058.4c-.2-.064-.368-.061-.406,0A.94.94,0,0,0,93.1,86.555Z"/>
      <path id="Path_1799" data-name="Path 1799" class="cls-8" d="M95.935,84.321a.118.118,0,0,0,.058,0h.08a1.19,1.19,0,0,0,.678-.2c.365-.214.554-.592.506-.659a.586.586,0,0,0-.413-.026.6.6,0,0,0,0-.422c-.038-.035-.259.042-.458.218-.042-.253-.144-.432-.243-.445s-.246.186-.32.47c-.189-.24-.419-.368-.483-.32s-.083.2-.058.4c-.2-.064-.368-.058-.406,0a.978.978,0,0,0,.429.71,1.229,1.229,0,0,0,.63.278Z"/>
      <path id="Path_1800" data-name="Path 1800" class="cls-17" d="M82.248,55.09c-.4-.32-.755-.941-1.36-1.543-.96-.934-.915-.678-1.847-.6a3.559,3.559,0,0,1-1.619-.15c.038-.374.08-.6.08-.6,1.6-3.7,4.8.362,4.8.362a7.552,7.552,0,0,1-.054,2.528Z"/>
      <path id="Path_1801" data-name="Path 1801" class="cls-14" d="M78.8,52.3c1.159.291,1.165-.822,2.941,1.027.64.662,1.709,1.338,2.263-.64s-.659-3.271-3.063-3.45-2.973-.32-3.309.64-2.151,1.043-1.827,2.074S76.926,51.845,78.8,52.3Z"/>
      <g id="Group_223" data-name="Group 223" class="cls-23">
        <path id="Path_1802" data-name="Path 1802" class="cls-24" d="M93.065,75.965a.135.135,0,0,1,.022-.016S93.058,75.969,93.065,75.965Z"/>
        <path id="Path_1803" data-name="Path 1803" class="cls-24" d="M92.908,75.9l.01-.006-.035,0Z"/>
        <path id="Path_1804" data-name="Path 1804" class="cls-24" d="M92.809,75.8c-.022.042.042.032.051.061h0l.032-.019C92.857,75.847,92.809,75.821,92.809,75.8Z"/>
        <path id="Path_1805" data-name="Path 1805" class="cls-24" d="M92.809,75.668c0,.016-.022,0,0,.019h0Z"/>
        <path id="Path_1806" data-name="Path 1806" class="cls-24" d="M92.809,75.681Z"/>
        <path id="Path_1807" data-name="Path 1807" class="cls-24" d="M92.761,75.639h.026v-.026S92.761,75.617,92.761,75.639Z"/>
        <path id="Path_1808" data-name="Path 1808" class="cls-24" d="M92.722,75.649Z"/>
        <path id="Path_1809" data-name="Path 1809" class="cls-24" d="M92.761,75.655h-.026C92.735,75.639,92.748,75.655,92.761,75.655Z"/>
        <path id="Path_1810" data-name="Path 1810" class="cls-24" d="M92.767,75.671c0,.016,0,.029-.019.026C92.783,75.719,92.809,75.693,92.767,75.671Z"/>
        <path id="Path_1811" data-name="Path 1811" class="cls-24" d="M92.764,75.825v.022h.019S92.773,75.812,92.764,75.825Z"/>
        <path id="Path_1812" data-name="Path 1812" class="cls-24" d="M92.681,75.527a.038.038,0,0,1-.019.032h.019A.047.047,0,0,1,92.681,75.527Z"/>
        <path id="Path_1813" data-name="Path 1813" class="cls-24" d="M92.661,75.565h-.026S92.655,75.575,92.661,75.565Z"/>
        <path id="Path_1814" data-name="Path 1814" class="cls-24" d="M92.687,75.681l.051,0-.058-.006Z"/>
        <path id="Path_1815" data-name="Path 1815" class="cls-24" d="M92.62,75.473l.026-.01-.042.01Z"/>
        <path id="Path_1816" data-name="Path 1816" class="cls-24" d="M92.575,75.434c.019,0,0-.032.029-.032a.1.1,0,0,0-.054,0C92.565,75.4,92.572,75.412,92.575,75.434Z"/>
        <path id="Path_1817" data-name="Path 1817" class="cls-24" d="M92.521,75.4Z"/>
        <path id="Path_1818" data-name="Path 1818" class="cls-24" d="M92.61,75.527a.045.045,0,0,0,0-.032v.026Z"/>
        <path id="Path_1819" data-name="Path 1819" class="cls-24" d="M92.6,75.527Z"/>
        <path id="Path_1820" data-name="Path 1820" class="cls-24" d="M92.61,75.527Z"/>
        <path id="Path_1821" data-name="Path 1821" class="cls-24" d="M92.658,75.623c-.019,0-.051,0-.045.029S92.629,75.626,92.658,75.623Z"/>
        <path id="Path_1822" data-name="Path 1822" class="cls-24" d="M92.6,75.565v.019a.051.051,0,0,1,.019-.016Z"/>
        <path id="Path_1823" data-name="Path 1823" class="cls-24" d="M92.581,75.562l.016,0-.006-.01Z"/>
        <path id="Path_1824" data-name="Path 1824" class="cls-24" d="M92.533,75.444a.045.045,0,0,1-.035,0,.141.141,0,0,0,.026.035S92.546,75.453,92.533,75.444Z"/>
        <path id="Path_1825" data-name="Path 1825" class="cls-24" d="M92.565,75.485Z"/>
        <path id="Path_1826" data-name="Path 1826" class="cls-24" d="M92.405,75.341v.006l0,0Z"/>
        <path id="Path_1827" data-name="Path 1827" class="cls-24" d="M92.521,75.473h0S92.517,75.469,92.521,75.473Z"/>
        <path id="Path_1828" data-name="Path 1828" class="cls-24" d="M92.489,75.383v0Z"/>
        <path id="Path_1829" data-name="Path 1829" class="cls-24" d="M92.565,75.476Z"/>
        <path id="Path_1830" data-name="Path 1830" class="cls-24" d="M92.565,75.476h0Z"/>
        <path id="Path_1831" data-name="Path 1831" class="cls-24" d="M92.258,75.437a.029.029,0,0,1,.051.022c.032,0,.077-.064.093-.112h-.042c-.042,0,0,.061,0,.064a.085.085,0,0,0-.016-.045c0,.032-.061,0-.086.042h.029S92.255,75.428,92.258,75.437Z"/>
        <path id="Path_1832" data-name="Path 1832" class="cls-24" d="M92.434,75.38h0a.115.115,0,0,1,0-.048.045.045,0,0,0-.035,0l.032.035Z"/>
        <path id="Path_1833" data-name="Path 1833" class="cls-24" d="M92.489,75.415c-.022,0-.048,0-.058.038s.029,0,.051,0c-.038-.026.019,0,0-.035H92.5v-.026h0l-.045-.022a.151.151,0,0,0,.029.045Z"/>
        <path id="Path_1834" data-name="Path 1834" class="cls-24" d="M92.556,75.677Z"/>
        <path id="Path_1835" data-name="Path 1835" class="cls-24" d="M92.553,75.652h.019s.029,0,.022-.022h0v-.061A.231.231,0,0,0,92.553,75.652Z"/>
        <path id="Path_1836" data-name="Path 1836" class="cls-24" d="M92.508,75.527l-.038-.016v.032h0C92.489,75.559,92.489,75.543,92.508,75.527Z"/>
        <path id="Path_1837" data-name="Path 1837" class="cls-24" d="M92.412,75.332l.022-.019-.042.013Z"/>
        <path id="Path_1838" data-name="Path 1838" class="cls-24" d="M92.373,75.3l.019-.016-.022,0Z"/>
        <path id="Path_1839" data-name="Path 1839" class="cls-24" d="M90.29,73.287Z"/>
        <path id="Path_1840" data-name="Path 1840" class="cls-24" d="M90.335,73.348Z"/>
        <path id="Path_1841" data-name="Path 1841" class="cls-24" d="M91.529,74.388c0-.029.022-.067,0-.048l-.019.022a.022.022,0,0,1,.019.026Z"/>
        <path id="Path_1842" data-name="Path 1842" class="cls-24" d="M90.863,73.818Z"/>
        <path id="Path_1843" data-name="Path 1843" class="cls-24" d="M90.767,73.876v-.029A.045.045,0,0,0,90.767,73.876Z"/>
        <path id="Path_1844" data-name="Path 1844" class="cls-24" d="M90.012,72.906H89.98C89.992,72.925,90,72.909,90.012,72.906Z"/>
        <path id="Path_1845" data-name="Path 1845" class="cls-24" d="M92,74.935a.109.109,0,0,0,0-.038C91.989,74.922,91.98,74.948,92,74.935Z"/>
        <path id="Path_1846" data-name="Path 1846" class="cls-24" d="M90.546,73.14h-.019S90.543,73.146,90.546,73.14Z"/>
        <path id="Path_1847" data-name="Path 1847" class="cls-24" d="M91.961,74.868h0a.048.048,0,0,1,.029.019A.027.027,0,0,0,91.961,74.868Z"/>
        <path id="Path_1848" data-name="Path 1848" class="cls-24" d="M89.2,71.437Z"/>
        <path id="Path_1849" data-name="Path 1849" class="cls-24" d="M89.234,70.883Z"/>
        <path id="Path_1850" data-name="Path 1850" class="cls-24" d="M92.233,75.149Z"/>
        <path id="Path_1851" data-name="Path 1851" class="cls-24" d="M92.194,75.261Z"/>
        <path id="Path_1852" data-name="Path 1852" class="cls-24" d="M91.765,74.887Z"/>
        <path id="Path_1853" data-name="Path 1853" class="cls-24" d="M92.236,75.169Z"/>
        <path id="Path_1854" data-name="Path 1854" class="cls-24" d="M92.245,75.159Z"/>
        <path id="Path_1855" data-name="Path 1855" class="cls-24" d="M92.223,75.14Z"/>
        <path id="Path_1856" data-name="Path 1856" class="cls-24" d="M89.688,72.192h0C89.672,72.186,89.676,72.189,89.688,72.192Z"/>
        <path id="Path_1857" data-name="Path 1857" class="cls-24" d="M91.122,74.356h0v0Z"/>
        <path id="Path_1858" data-name="Path 1858" class="cls-24" d="M91.08,74.337c.035,0,.038,0,.042.016l.051-.058Z"/>
        <path id="Path_1859" data-name="Path 1859" class="cls-24" d="M90.776,73.869Z"/>
        <path id="Path_1860" data-name="Path 1860" class="cls-24" d="M90.018,72.906v0l-.006,0Z"/>
        <path id="Path_1861" data-name="Path 1861" class="cls-24" d="M91.58,74.868a.022.022,0,0,1,0-.019A.018.018,0,0,0,91.58,74.868Z"/>
        <path id="Path_1862" data-name="Path 1862" class="cls-24" d="M92.322,75.207H92.3a.026.026,0,0,1,0,.022S92.319,75.207,92.322,75.207Z"/>
        <path id="Path_1863" data-name="Path 1863" class="cls-24" d="M92.338,75.489Z"/>
        <path id="Path_1864" data-name="Path 1864" class="cls-24" d="M92.268,75.3c-.016,0,0,.022.016.029h0C92.309,75.309,92.29,75.306,92.268,75.3Z"/>
        <path id="Path_1865" data-name="Path 1865" class="cls-24" d="M92.287,75.335Z"/>
        <path id="Path_1866" data-name="Path 1866" class="cls-24" d="M92.194,75.14s.026-.019.022,0S92.149,75.121,92.194,75.14Z"/>
        <path id="Path_1867" data-name="Path 1867" class="cls-24" d="M92.22,75.37l.016-.026-.022.01Z"/>
        <path id="Path_1868" data-name="Path 1868" class="cls-24" d="M92.14,75.265v.022h0S92.146,75.258,92.14,75.265Z"/>
        <path id="Path_1869" data-name="Path 1869" class="cls-24" d="M92.169,75.287h.019A.029.029,0,0,0,92.169,75.287Z"/>
        <path id="Path_1870" data-name="Path 1870" class="cls-24" d="M92.185,75.351v-.01l-.013-.013Z"/>
        <path id="Path_1871" data-name="Path 1871" class="cls-24" d="M91.948,75.057l-.026-.016v.022C91.922,75.069,91.945,75.066,91.948,75.057Z"/>
        <path id="Path_1872" data-name="Path 1872" class="cls-24" d="M91.945,75.181a.077.077,0,0,1,0-.026l-.029.026Z"/>
        <path id="Path_1873" data-name="Path 1873" class="cls-24" d="M91.881,75.124h-.022C91.887,75.124,91.893,75.149,91.881,75.124Z"/>
        <path id="Path_1874" data-name="Path 1874" class="cls-24" d="M91.628,74.765l.006,0,.048-.042Z"/>
        <path id="Path_1875" data-name="Path 1875" class="cls-24" d="M91.26,74.567c0,.035.035-.019.042.016s0-.029,0-.032S91.285,74.541,91.26,74.567Z"/>
        <path id="Path_1876" data-name="Path 1876" class="cls-24" d="M91.311,74.567Z"/>
        <path id="Path_1877" data-name="Path 1877" class="cls-24" d="M89.237,70.8l0-.022-.016.019Z"/>
        <path id="Path_1878" data-name="Path 1878" class="cls-24" d="M89.176,70.778l.035-.019h-.038S89.183,70.771,89.176,70.778Z"/>
        <path id="Path_1879" data-name="Path 1879" class="cls-24" d="M90.386,73.54h0v-.022Z"/>
        <path id="Path_1880" data-name="Path 1880" class="cls-24" d="M90.242,73.274l0,.006.022-.029Z"/>
        <path id="Path_1881" data-name="Path 1881" class="cls-24" d="M90.063,73.088a.1.1,0,0,1,.022.026C90.088,73.124,90.1,73.063,90.063,73.088Z"/>
      </g>
    </g>
  </g>
</svg>
