<svg xmlns="http://www.w3.org/2000/svg" xmlns:xlink="http://www.w3.org/1999/xlink" viewBox="0 0 160 160">
    <defs>
        <style>
            .cls-1{fill:#fff}.cls-2,.cls-9{fill:none}.cls-3{clip-path:url(#clip-path)}.cls-21,.cls-4,.cls-7{fill:#2b3991}.cls-4{opacity:.1}.cls-5{opacity:.5}.cls-6{fill:url(#linear-gradient)}.cls-7{opacity:.3}.cls-8{clip-path:url(#clip-path-2)}.cls-9{stroke:#fff;stroke-miterlimit:10;stroke-width:.653px}.cls-10{fill:#dbdbdb}.cls-11{fill:url(#linear-gradient-2)}.cls-12{fill:#f7931d}.cls-13{fill:url(#linear-gradient-3)}.cls-14{fill:#3d213c}.cls-15{fill:#fda57d}.cls-16{fill:#4d8af0}.cls-17{fill:#535461}.cls-18{fill:#333}.cls-19{fill:#b0bec5}.cls-20{opacity:.05}
        </style>
        <clipPath id="clip-path">
            <path id="Rectangle_2" d="M0 0h160v160H0z" class="cls-1" data-name="Rectangle 2" transform="translate(445 747)"/>
        </clipPath>
        <linearGradient id="linear-gradient" x1="1.159" x2="1.946" y1="-4.379" y2="-3.346" gradientUnits="objectBoundingBox">
            <stop offset="0" stop-color="gray" stop-opacity=".251"/>
            <stop offset=".54" stop-color="gray" stop-opacity=".122"/>
            <stop offset="1" stop-color="gray" stop-opacity=".102"/>
        </linearGradient>
        <clipPath id="clip-path-2">
            <path id="Path_555" d="M86.022 30.592a4.627 4.627 0 0 1-4.55 3.942l-19.7.048a4.627 4.627 0 0 1-4.563-3.92l-10.435.022a2.17 2.17 0 0 0-2.163 2.173l.23 93.44a2.163 2.163 0 0 0 2.17 2.16l49.846-.122a2.166 2.166 0 0 0 2.163-2.17l-.227-93.44a2.166 2.166 0 0 0-2.154-2.16z" class="cls-2" data-name="Path 555"/>
        </clipPath>
        <linearGradient id="linear-gradient-2" x1="4.61" x2="4.61" y1="-13.223" y2="-12.219" xlink:href="#linear-gradient"/>
        <linearGradient id="linear-gradient-3" x1="3.274" x2="3.274" y1="-8.967" y2="-7.967" xlink:href="#linear-gradient"/>
    </defs>
    <g id="img-rota" class="cls-3" transform="translate(-445 -747)">
        <g id="Homepage-Icons-07" transform="translate(445 749.097)">
            <path id="Path_551" d="M92.96 31.12c-10.256-.358-20.026-3.667-29.354-7.29s-18.56-7.638-28.579-9.558c-6.442-1.235-13.8-1.408-18.992 2.048-5 3.325-6.608 9.053-7.475 14.374-.64 4-1.037 8.218.752 11.965 1.242 2.6 3.446 4.8 4.97 7.283 5.306 8.672 1.555 19.366-4.192 27.84-2.694 3.974-5.824 7.766-7.9 11.99s-3.048 9.07-1.23 13.383 6.1 7.488 10.762 9.744c9.462 4.589 20.6 5.9 31.478 6.646 24.064 1.645 48.253.931 72.381.218 8.928-.262 17.9-.531 26.678-1.92 4.88-.768 9.92-1.984 13.456-4.922a11.27 11.27 0 0 0 2.6-14.72c-5.053-7.843-19.021-9.792-22.557-18.208-1.942-4.637.054-9.8 2.88-14.08 6.061-9.219 16.218-17.306 16.752-27.84.368-7.235-4.515-14.483-12.067-17.92-7.914-3.59-18.88-3.139-24.723 2.8-6.018 6.125-16.581 8.481-25.64 8.167z" class="cls-4" data-name="Path 551"/>
            <g id="Group_138" class="cls-5" data-name="Group 138">
                <path id="Path_552" d="M98.765 26.6l-54.165.13a2.24 2.24 0 0 0-2.24 2.24l.25 101.3a2.24 2.24 0 0 0 2.24 2.221l54.163-.131a2.24 2.24 0 0 0 2.221-2.24L101 28.816a2.24 2.24 0 0 0-2.23-2.218z" class="cls-6" data-name="Path 552"/>
            </g>
            <rect id="Rectangle_377" width="57.034" height="102.944" class="cls-1" data-name="Rectangle 377" rx="2.221" transform="translate(43.169 28.115)"/>
            <path id="Path_553" d="M86.022 30.592a4.627 4.627 0 0 1-4.55 3.942l-19.7.048a4.627 4.627 0 0 1-4.563-3.92l-10.435.022a2.17 2.17 0 0 0-2.163 2.173l.23 93.44a2.163 2.163 0 0 0 2.17 2.16l49.846-.122a2.166 2.166 0 0 0 2.163-2.17l-.227-93.44a2.166 2.166 0 0 0-2.154-2.16z" class="cls-7" data-name="Path 553"/>
            <g id="Group_139" class="cls-8" data-name="Group 139">
                <path id="Path_554" d="M29.891 36.95l77.562 63.523 1.018-51.987-87.6-3.1 13.836 13.26 87.734 6.742-91.382 23.031 82.752 26.861-.31 10.179-85.389-5.078 2.586 25.67 37.494-3.351L88.3 18.6" class="cls-9" data-name="Path 554"/>
            </g>
            <rect id="Rectangle_378" width="12.71" height=".794" class="cls-10" data-name="Rectangle 378" rx=".326" transform="rotate(-.86 2161.708 -4302.441)"/>
            <circle id="Ellipse_175" cx=".477" cy=".477" r=".477" class="cls-10" data-name="Ellipse 175" transform="translate(79.757 31.568)"/>
            <path id="Path_556" d="M90.918 59.357c-.755 5.44-11.974 16.861-11.974 16.861S70.461 62.08 71.21 56.64a9.949 9.949 0 1 1 19.709 2.73z" class="cls-11" data-name="Path 556"/>
            <path id="Path_557" d="M90.269 59.52c-.71 5.12-11.229 15.824-11.229 15.824S71.082 62.08 71.789 56.96a9.331 9.331 0 1 1 18.535 2.17c-.017.137-.036.27-.055.39z" class="cls-12" data-name="Path 557"/>
            <ellipse id="Ellipse_176" cx="4.675" cy="4.662" class="cls-1" data-name="Ellipse 176" rx="4.675" ry="4.662" transform="rotate(-82.13 73.196 -12.786)"/>
            <g id="Group_140" class="cls-5" data-name="Group 140">
                <path id="Path_558" d="M120.861 84.323A29.738 29.738 0 0 1 124.573 93c.88-15.68-3.891-10.09-4.352-9.824v-.019l-1.6.922a3.67 3.67 0 0 0-2.56-1.079 3.555 3.555 0 0 0-1.92.57c-1.142.026-2.045.6-2.045 1.318a.871.871 0 0 0 .074.336 4.134 4.134 0 0 0 2.461 6.861l.419 2.989-.659.522a3.667 3.667 0 0 0-1.421 2.662c-.061 1.107.4 2.378 2.467 3.024 0 0-.038.381-.106.986l-3.52 7.04s-1.408 3.226.1 3.322c2.17-.378 1.792-1.226 2.074-1.981l.163-.563h.832c-.675 3.686-2.88 16.355-2.656 23.821v2.157l-.141 1.069-4.051 1.216a1.018 1.018 0 0 0 .32 1.994l5.728-.192a1.018 1.018 0 0 0 .976-1.018v-2.9h1.044v-2.33l1.037-12.429.134-.32.122 1.6 4.656 10.362 1.034 1.811.454-.243-.137 1.716-1.888 1.638a1.021 1.021 0 0 0-.262 1.19 1.024 1.024 0 0 0 1.354.5l.029-.016 5.142-2.528a1.018 1.018 0 0 0 .477-1.334l-.451-1a1.03 1.03 0 0 0-.71-.573l-.979-.976.339-.182-.768-1.808-4.659-10.88-.192-6.118a4.134 4.134 0 0 0 1.952-4.234h.3s-.659-3.84-1-8.026c0-.134-.022-.269-.032-.406v-.64s-.035-.2-.1-.515c-.365-4.138-.928-7.421-4.022-7.792l-.03.02v-1.28a4.672 4.672 0 0 0 2.006-3.936 5.011 5.011 0 0 0-.6-2.387l1.443-.835z" class="cls-13" data-name="Path 558"/>
            </g>
            <ellipse id="Ellipse_177" cx="3.843" cy="4.394" class="cls-14" data-name="Ellipse 177" rx="3.843" ry="4.394" transform="translate(112.314 83.85)"/>
            <path id="Path_559" d="M115.3 134.976v2.259h-3.014l.253-1.926z" class="cls-15" data-name="Path 559"/>
            <path id="Path_560" d="M123.581 133.216l-.243 3.014h.16a4.835 4.835 0 0 0 3.222-1.222l.886-.787-2.259-2.259z" class="cls-15" data-name="Path 560"/>
            <path id="Path_561" d="M117.3 119.158l.253 3.264 4.518 10.042 3.514-1.757-4.518-10.544-.25-8.035H116.8z" class="cls-16" data-name="Path 561"/>
            <path id="Path_562" d="M117.3 119.158l.253 3.264 4.518 10.042 3.514-1.757-4.518-10.544-.25-8.035H116.8z" class="cls-17" data-name="Path 562"/>
            <path id="Path_563" d="M116.3 100.832l-4.266 8.534s-1.366 3.13.1 3.222c2.1-.368 1.738-1.19 2.013-1.92l2.656-9.078z" class="cls-15" data-name="Path 563"/>
            <circle id="Ellipse_178" cx="4.016" cy="4.016" r="4.016" class="cls-15" data-name="Ellipse 178" transform="translate(111.35 84.675)"/>
            <path id="Path_564" d="M118.058 94.557l-2.816 1.466-.7-4.982h3.517z" class="cls-15" data-name="Path 564"/>
            <path id="Path_565" d="M115.3 109.12s-3.011 15.565-2.762 24.1h3.762l1-12.054 2.762-6.528a4.222 4.222 0 0 0 2.512-5.517z" class="cls-17" data-name="Path 565"/>
            <path id="Rectangle_379" d="M0 0h3.766v2.611H0z" class="cls-16" data-name="Rectangle 379" transform="translate(112.531 132.867)"/>
            <path id="Rectangle_380" d="M0 0h3.766v2.611H0z" class="cls-17" data-name="Rectangle 380" transform="translate(112.531 132.867)"/>
            <path id="Path_566" d="M121.971 132.23l1.046 2.006 3.325-1.75-.89-2.064z" class="cls-17" data-name="Path 566"/>
            <path id="Path_567" d="M112.64 136.272l-4.16 1.254a.989.989 0 0 0-.7.96.989.989 0 0 0 .989.989h.032l5.555-.186a.989.989 0 0 0 .96-.989v-1.066a.989.989 0 0 0-.989-.989h-1.376a.96.96 0 0 0-.311.027z" class="cls-18" data-name="Path 567"/>
            <path id="Path_568" d="M118.08 93.283l-3.539 2.787a3.555 3.555 0 0 0-1.386 2.589c-.058 1.072.384 2.3 2.39 2.931 0 0-.752 8.032-2.006 8.534h9.539s-.64-3.718-.976-7.782c-.38-4.697-.659-8.662-4.022-9.059z" class="cls-12" data-name="Path 568"/>
            <path id="Path_569" d="M118.058 98.32l2.262 4.019-.253 9.037s-1.254 2.01-.25 2.259a1.82 1.82 0 0 0 2.259-2.01v-10.291s-.752-4.269-1.507-5.274z" class="cls-15" data-name="Path 569"/>
            <path id="Path_570" d="M124.842 134.365l-3.3 2.861a.989.989 0 0 0-.253 1.152.989.989 0 0 0 1.309.5h.029l4.986-2.458a.982.982 0 0 0 .464-1.28l-.438-.976a.989.989 0 0 0-1.3-.49l-1.254.566a.918.918 0 0 0-.243.125z" class="cls-18" data-name="Path 570"/>
            <path id="Path_571" d="M120.077 85.626l-.909.451-.64-1.11.9-.48z" class="cls-14" data-name="Path 571"/>
            <path id="Path_572" d="M119.427 84.48s6.026-6.352 4.774 9.066a35.623 35.623 0 0 0-4.125-7.926z" class="cls-14" data-name="Path 572"/>
            <ellipse id="Ellipse_179" cx="3.478" cy="3.843" class="cls-14" data-name="Ellipse 179" rx="3.478" ry="3.843" transform="translate(113.046 84.4)"/>
            <ellipse id="Ellipse_180" cx="2.058" cy="1.283" class="cls-14" data-name="Ellipse 180" rx="2.058" ry="1.283" transform="translate(112.314 84.4)"/>
            <path id="Rectangle_381" d="M0 0h11.664v1.165H0z" class="cls-19" data-name="Rectangle 381" transform="translate(39.088 97.99)"/>
            <path id="Rectangle_382" d="M0 0h11.664v1.165H0z" class="cls-19" data-name="Rectangle 382" transform="translate(43.325 112.163)"/>
            <path id="Rectangle_383" d="M0 0h5.978v1.312H0z" class="cls-19" data-name="Rectangle 383" transform="translate(52.656 119.014)"/>
            <path id="Rectangle_384" d="M0 0h5.978v.874H0z" class="cls-19" data-name="Rectangle 384" transform="translate(55.718 126.16)"/>
            <path id="Path_573" d="M52.525 95.885s-7.542.877-5.261 5.44a51.841 51.841 0 0 1 3.462 9.251l3.99-.832s-1.578-7.456-2.979-8.32l3.77-.7z" class="cls-15" data-name="Path 573"/>
            <path id="Path_574" d="M51.738 101.411l3.77-.7-2.982-4.822-.24.032 2.96 4.8-3.77.7c1.4.874 2.982 8.32 2.982 8.32l-3.747.781v.051l3.99-.832s-1.562-7.456-2.963-8.33z" class="cls-20" data-name="Path 574"/>
            <path id="Path_575" d="M53.12 108.9a10.134 10.134 0 0 1-5.862 1.539s-1.882.854.778 1.536 6.954.2 7.29-.32-.138-2.3-.925-3.03-1.281.275-1.281.275z" class="cls-21" data-name="Path 575"/>
            <path id="Path_576" d="M59.277 106.582a13.8 13.8 0 0 0 1.053 5.875l.877 11.84H64s0-5.789 1.318-8.858-.7-6.493-.7-6.493l-.176-3.52z" class="cls-15" data-name="Path 576"/>
            <circle id="Ellipse_181" cx="3.594" cy="3.594" r="3.594" class="cls-15" data-name="Ellipse 181" transform="translate(57.437 66.33)"/>
            <path id="Rectangle_385" d="M0 0h4.384v3.946H0z" class="cls-15" data-name="Rectangle 385" transform="translate(58.576 71.766)"/>
            <path id="Path_577" d="M62.96 123.421a10.106 10.106 0 0 1-6.051.266s-2.016.438.438 1.667 6.755 1.664 7.194 1.226.352-2.282-.262-3.158-1.319-.001-1.319-.001z" class="cls-21" data-name="Path 577"/>
            <path id="Path_578" d="M51.779 82.861l-5.168 13.328s-3.946 1.053-1.92 2.986c0 0-.352-1.843 2.454-1.318a6.746 6.746 0 0 1 .79 1.757c0 .438.9-1.469.538-2.4a21.389 21.389 0 0 1 4.368-7.427s2.192-3.859 2.106-6.49z" class="cls-15" data-name="Path 578"/>
            <path id="Path_579" d="M69.146 78.125s2.806 1.315 4.208.877c1-.32 2.077-2.294 2.624-3.421a1.7 1.7 0 0 1 1.328-.96c1.043-.125 2.506-.112 2.1 1.043a4.061 4.061 0 0 1-2.63 2.282l-2.88 4.032H68.8z" class="cls-15" data-name="Path 579"/>
            <circle id="Ellipse_182" cx="3.683" cy="3.683" r="3.683" class="cls-14" data-name="Ellipse 182" transform="translate(56.691 65.933)"/>
            <ellipse id="Ellipse_183" cx="2.72" cy="1.536" class="cls-14" data-name="Ellipse 183" rx="2.72" ry="1.536" transform="translate(59.584 64.794)"/>
            <path id="Path_580" d="M59.293 107.914v.442l5.27-.675v-.5z" class="cls-20" data-name="Path 580"/>
            <path id="Path_581" d="M51.926 95.981l-.355.07 1.7 5.072.214-.038z" class="cls-20" data-name="Path 581"/>
            <path id="Path_582" d="M70.592 78.685l.346.109.112 3.187h-.458z" class="cls-20" data-name="Path 582"/>
            <path id="Path_583" d="M51.619 83.274l-.118.3 3.117 1.949.09-.342z" class="cls-20" data-name="Path 583"/>
            <path id="Path_584" d="M55.222 93.965l-.515.2s8.64 4.192 11.5.518l-.1-.32s-2.619 3.512-10.885-.398z" class="cls-20" data-name="Path 584"/>
            <path id="Path_585" d="M50.989 94.7l2.451 6.963q1.76-.575 3.56-1.013a5.882 5.882 0 0 1 1.843-.2c-.49.09-.413.41-.547.9a4.535 4.535 0 0 0-.064 1.5 25.575 25.575 0 0 1-.2 5.069 38.976 38.976 0 0 1 7.869-.877 25.239 25.239 0 0 1-.73-4.339 4.982 4.982 0 0 1 0-1.155 7.423 7.423 0 0 1 .49-1.494 11.93 11.93 0 0 0 .752-3.52 3.235 3.235 0 0 0-.147-1.376 2.451 2.451 0 0 0-1.318-1.258 6.4 6.4 0 0 0-1.811-.419 52.045 52.045 0 0 0-6.992-.211 4.342 4.342 0 0 0-2.157.678c-.288.132-2.888 1.092-2.999.752z" class="cls-21" data-name="Path 585"/>
            <path id="Path_586" d="M55.536 76.022a14.832 14.832 0 0 0-3.654 3.158l-2.749 2.947a40.94 40.94 0 0 1 3.91 2.1 2.762 2.762 0 0 1 1.174 1.1 2.666 2.666 0 0 1 .042 1.6 25.331 25.331 0 0 1-1.974 6.08 22.906 22.906 0 0 1 6.435 2.086 3.839 3.839 0 0 0 1.571.64 3.3 3.3 0 0 0 1.014-.122l5-1.123a.708.708 0 0 0 .64-.5 13.508 13.508 0 0 0 1.686-6.08 10.642 10.642 0 0 1-.083-2.986c.237-.973 1.235-1.878 2.166-1.514l.41-4.691a1.656 1.656 0 0 0-.355-1.478 3.1 3.1 0 0 0-1.034-.358 6.861 6.861 0 0 1-1.469-.96c-1.331-.874-3.056-.771-4.646-.64a17.951 17.951 0 0 1-4.035.131 6.378 6.378 0 0 0-4.049.61z" class="cls-21" data-name="Path 586"/>
        </g>
    </g>
</svg>
