<svg xmlns="http://www.w3.org/2000/svg" viewBox="0 0 160 160">
    <defs>
        <style>
            .cls-1{fill:#fff}.cls-2,.cls-5,.cls-6,.cls-7{fill:none}.cls-3{clip-path:url(#clip-path)}.cls-4,.cls-8{fill:#2b3991}.cls-17,.cls-24,.cls-4,.cls-5,.cls-6,.cls-7{opacity:.1}.cls-5,.cls-6,.cls-7{stroke:#2b3991;stroke-miterlimit:10}.cls-5{stroke-width:.349px}.cls-6{stroke-width:.413px}.cls-7{stroke-width:.4px}.cls-9{fill:#edeeee}.cls-10{fill:#f7931d}.cls-11,.cls-12{opacity:.3}.cls-13{opacity:.48}.cls-14{fill:#82d2f4}.cls-15{clip-path:url(#clip-path-2)}.cls-16{fill:#535461}.cls-18{fill:#33363d}.cls-19{fill:#63667e}.cls-20{fill:#ffa2a2}.cls-21{fill:#ced7e7}.cls-22{fill:#333}.cls-23{fill:#3d213c}
        </style>
        <clipPath id="clip-path">
            <path id="Rectangle_2" d="M0 0h160v160H0z" class="cls-1" data-name="Rectangle 2" transform="translate(445 747)"/>
        </clipPath>
        <clipPath id="clip-path-2">
            <path id="Rectangle_408" d="M0 0h58.947v55.232H0z" class="cls-2" data-name="Rectangle 408" transform="translate(12.89 43.453)"/>
        </clipPath>
    </defs>
    <g id="img-yunanistan-ic-hat-biletleri" class="cls-3" transform="translate(-445 -747)">
        <g id="Homepage-Icons-08" transform="translate(445 749.827)">
            <path id="Path_710" d="M92.96 31.12c-10.256-.358-20.026-3.667-29.354-7.29s-18.56-7.638-28.579-9.558c-6.442-1.235-13.8-1.408-18.992 2.048-5 3.325-6.608 9.053-7.475 14.374-.64 4-1.037 8.218.752 11.965 1.242 2.6 3.446 4.8 4.97 7.283 5.306 8.672 1.555 19.366-4.192 27.84-2.694 3.974-5.824 7.766-7.9 11.99s-3.048 9.07-1.23 13.383 6.1 7.488 10.762 9.744c9.462 4.589 20.6 5.9 31.478 6.646 24.064 1.645 48.253.931 72.381.218 8.928-.262 17.9-.531 26.678-1.92 4.88-.768 9.92-1.984 13.456-4.922a11.27 11.27 0 0 0 2.6-14.72c-5.053-7.843-19.021-9.792-22.557-18.208-1.942-4.637.054-9.8 2.88-14.08 6.061-9.219 16.218-17.306 16.752-27.84.368-7.235-4.515-14.483-12.067-17.92-7.914-3.59-18.88-3.139-24.723 2.8-6.018 6.125-16.581 8.481-25.64 8.167z" class="cls-4" data-name="Path 710"/>
            <path id="Path_711" d="M128.778 65.149a.912.912 0 0 0 .182-.509c0-1.1-2.24-2-5.03-2s-5.03.893-5.03 2a.96.96 0 0 0 .208.57c-3.094.346-5.178.992-5.178 1.734 0 1.1 4.6 2 10.3 2s10.3-.9 10.3-2c-.018-.784-2.37-1.469-5.752-1.795z" class="cls-4" data-name="Path 711"/>
            <path id="Path_712" d="M96.976 44.643a.867.867 0 0 0 .16-.49c0-1.059-2.16-1.92-4.822-1.92s-4.822.858-4.822 1.92a.883.883 0 0 0 .189.544c-2.966.32-4.963.96-4.963 1.664 0 1.059 4.416 1.92 9.878 1.92s9.878-.861 9.878-1.92c.003-.748-2.244-1.404-5.498-1.718z" class="cls-4" data-name="Path 712"/>
            <path id="Path_713" d="M36.422 29.4a1.018 1.018 0 0 0 .189-.579c0-1.258-2.56-2.275-5.725-2.275s-5.725 1.018-5.725 2.275a1.091 1.091 0 0 0 .237.64c-3.52.4-5.878 1.136-5.878 1.981 0 1.258 5.248 2.275 11.725 2.275S42.97 32.7 42.97 31.443c-.02-.889-2.685-1.683-6.548-2.043z" class="cls-4" data-name="Path 713"/>
            <path id="Path_714" d="M71.728 45.12a.669.669 0 0 1 .822.246 2.083 2.083 0 0 1 .285.886 2.418 2.418 0 0 1-.285 1.994 6.477 6.477 0 0 1 5.344-4.314" class="cls-5" data-name="Path 714"/>
            <path id="Path_715" d="M30.659 41.418a.515.515 0 0 1 .64.189 1.45 1.45 0 0 1 .218.675A1.822 1.822 0 0 1 31.3 43.8a4.954 4.954 0 0 1 4.077-3.293" class="cls-6" data-name="Path 715"/>
            <path id="Path_716" d="M121.936 52.771a.5.5 0 0 1 .608.182 1.443 1.443 0 0 1 .211.656 1.77 1.77 0 0 1-.211 1.472 4.8 4.8 0 0 1 3.955-3.2" class="cls-7" data-name="Path 716"/>
            <path id="Path_717" d="M139.552 33.011a1.018 1.018 0 0 0 .182-.563c0-1.219-2.483-2.208-5.552-2.208s-5.542.989-5.542 2.208a1.05 1.05 0 0 0 .23.64c-3.414.381-5.715 1.094-5.715 1.92 0 1.219 5.085 2.208 11.373 2.208s11.373-.989 11.373-2.208c-.016-.88-2.601-1.638-6.349-1.997z" class="cls-4" data-name="Path 717"/>
            <path id="Path_718" d="M117.44 42.39a.5.5 0 0 1 .608.179 1.456 1.456 0 0 1 .211.656 1.766 1.766 0 0 1-.211 1.472A4.8 4.8 0 0 1 122 41.5" class="cls-7" data-name="Path 718"/>
            <path id="Path_719" d="M38.045 59.568A1.046 1.046 0 0 0 38.23 59c0-1.219-2.486-2.2-5.555-2.2s-5.552.986-5.552 2.2a1.04 1.04 0 0 0 .23.64c-3.414.381-5.715 1.094-5.715 1.92 0 1.219 5.085 2.208 11.373 2.208s11.373-.989 11.373-2.208c-.006-.875-2.592-1.63-6.339-1.992z" class="cls-4" data-name="Path 719"/>
            <path id="Path_720" d="M34.2 99.731l4.582-4.582h26.035l-4.346 4.586z" class="cls-8" data-name="Path 720"/>
            <path id="Path_721" d="M60.48 100.781H34.208a1.046 1.046 0 0 1-.739-1.789l4.576-4.592a1.053 1.053 0 0 1 .739-.32h26.035a1.05 1.05 0 0 1 .762 1.77l-4.346 4.586a1.053 1.053 0 0 1-.755.346zm-23.741-2.1h23.29l2.358-2.49H39.219z" class="cls-8" data-name="Path 721"/>
            <path id="Path_722" d="M123.3 129.056H60.182L34.2 99.731h89.1l6.832 10.323a7.862 7.862 0 0 1 0 8.678z" class="cls-8" data-name="Path 722"/>
            <path id="Path_723" d="M123.3 130.106H60.182a1.053 1.053 0 0 1-.784-.355l-25.98-29.325a1.046 1.046 0 0 1 .784-1.741H123.3a1.043 1.043 0 0 1 .874.47L131 109.478a8.89 8.89 0 0 1 0 9.834l-6.842 10.323a1.05 1.05 0 0 1-.864.47zM60.656 128h62.08l6.522-9.853a6.806 6.806 0 0 0 0-7.52l-6.522-9.853h-86.2z" class="cls-8" data-name="Path 723"/>
            <path id="Path_724" d="M123.3 81.834H77.437l-16.963 17.9H123.3z" class="cls-9" data-name="Path 724"/>
            <path id="Path_725" d="M123.3 87.36H73.184a1.05 1.05 0 0 1 0-2.1H123.3a1.05 1.05 0 1 1 0 2.1z" class="cls-8" data-name="Path 725"/>
            <path id="Path_726" d="M123.3 91.782H68.954a1.05 1.05 0 0 1 0-2.1H123.3a1.05 1.05 0 1 1 0 2.1z" class="cls-8" data-name="Path 726"/>
            <path id="Path_727" d="M123.3 96.2H64.819a1.05 1.05 0 1 1 0-2.1H123.3a1.05 1.05 0 1 1 0 2.1z" class="cls-8" data-name="Path 727"/>
            <path id="Path_728" d="M123.3 100.781H60.48a1.05 1.05 0 0 1-.762-1.77l16.96-17.9a1.04 1.04 0 0 1 .762-.32h45.86a1.046 1.046 0 0 1 1.05 1.046v17.9a1.05 1.05 0 0 1-1.05 1.044zm-60.384-2.1h59.324V82.88H77.888z" class="cls-8" data-name="Path 728"/>
            <path id="Rectangle_401" d="M0 0h22.931v8.528H0z" class="cls-8" data-name="Rectangle 401" transform="translate(77.437 73.306)"/>
            <path id="Path_729" d="M100.365 82.88H77.44a1.05 1.05 0 0 1-1.05-1.05v-8.524a1.05 1.05 0 0 1 1.05-1.05h22.928a1.05 1.05 0 0 1 1.05 1.05v8.528a1.05 1.05 0 0 1-1.053 1.046zm-21.882-2.1h20.835v-6.428H78.483z" class="cls-8" data-name="Path 729"/>
            <path id="Path_730" d="M53.59 110.922a3.933 3.933 0 1 1 3.93-3.93 3.933 3.933 0 0 1-3.93 3.93zm0-5.76a.761.761 0 1 0 0-.006z" class="cls-10" data-name="Path 730"/>
            <path id="Path_731" d="M62.72 110.922a3.933 3.933 0 1 1 3.93-3.93 3.933 3.933 0 0 1-3.93 3.93zm0-5.76a.761.761 0 1 0 0-.006z" class="cls-10" data-name="Path 731"/>
            <path id="Path_732" d="M71.837 110.922a3.933 3.933 0 1 1 3.933-3.93 3.933 3.933 0 0 1-3.933 3.93zm0-5.76a.761.761 0 1 0 0-.006z" class="cls-10" data-name="Path 732"/>
            <path id="Path_733" d="M99.008 110.922a3.933 3.933 0 1 1 3.93-3.93 3.933 3.933 0 0 1-3.93 3.93zm0-5.76a.761.761 0 1 0 0-.006z" class="cls-10" data-name="Path 733"/>
            <path id="Path_734" d="M108.131 110.922a3.933 3.933 0 1 1 3.933-3.93 3.933 3.933 0 0 1-3.933 3.93zm0-5.76a.762.762 0 1 0 0-.006z" class="cls-10" data-name="Path 734"/>
            <path id="Path_735" d="M117.254 110.922a3.933 3.933 0 1 1 3.933-3.93 3.933 3.933 0 0 1-3.933 3.93zm0-5.76a.761.761 0 1 0 0-.006z" class="cls-10" data-name="Path 735"/>
            <path id="Path_736" d="M56.736 122.662H53.59a1.05 1.05 0 1 1 0-2.1h3.146a1.05 1.05 0 0 1 0 2.1z" class="cls-8" data-name="Path 736"/>
            <path id="Path_737" d="M118.858 122.662h-6.218a1.05 1.05 0 0 1 0-2.1h6.214a1.05 1.05 0 0 1 0 2.1zm-12.426 0h-6.211a1.05 1.05 0 1 1 0-2.1h6.211a1.05 1.05 0 1 1 0 2.1zm-12.426 0H87.8a1.05 1.05 0 0 1 0-2.1h6.211a1.05 1.05 0 1 1 0 2.1zm-12.422 0H75.37a1.05 1.05 0 0 1 0-2.1h6.23a1.05 1.05 0 0 1 0 2.1zm-12.426 0h-6.211a1.05 1.05 0 1 1 0-2.1h6.211a1.05 1.05 0 1 1 0 2.1z" class="cls-8" data-name="Path 737"/>
            <path id="Path_738" d="M128.214 122.662h-3.146a1.05 1.05 0 0 1 0-2.1h3.146a1.05 1.05 0 0 1 0 2.1z" class="cls-8" data-name="Path 738"/>
            <path id="Rectangle_402" d="M0 0h13.066v19.565H0z" class="cls-10" data-name="Rectangle 402" transform="translate(106.304 62.269)"/>
            <path id="Rectangle_403" d="M0 0h13.066v4.266H0z" class="cls-8" data-name="Rectangle 403" transform="translate(106.304 62.269)"/>
            <path id="Rectangle_404" d="M0 0h22.931v8.528H0z" class="cls-11" data-name="Rectangle 404" transform="translate(77.437 73.306)"/>
            <g id="Group_182" class="cls-12" data-name="Group 182">
                <path id="Rectangle_405" d="M0 0h13.066v4.266H0z" data-name="Rectangle 405" transform="translate(106.304 62.269)"/>
            </g>
            <path id="Path_739" d="M119.36 82.88H106.3a1.046 1.046 0 0 1-1.046-1.05V62.269a1.046 1.046 0 0 1 1.046-1.05h13.06a1.05 1.05 0 0 1 1.05 1.05v19.565a1.05 1.05 0 0 1-1.05 1.046zm-12.016-2.1h10.97V63.312h-10.96z" class="cls-8" data-name="Path 739"/>
            <path id="Path_740" d="M60.48 100.781H34.208a1.046 1.046 0 0 1-.739-1.789l4.576-4.592a1.053 1.053 0 0 1 .739-.32h26.035a1.05 1.05 0 0 1 .762 1.77l-4.346 4.586a1.053 1.053 0 0 1-.755.346zm-23.741-2.1h23.29l2.358-2.49H39.219z" class="cls-11" data-name="Path 740"/>
            <path id="Path_741" d="M123.3 130.106H60.182a1.053 1.053 0 0 1-.784-.355l-25.98-29.325a1.046 1.046 0 0 1 .784-1.741H123.3a1.043 1.043 0 0 1 .874.47L131 109.478a8.89 8.89 0 0 1 0 9.834l-6.842 10.323a1.05 1.05 0 0 1-.864.47zM60.656 128h62.08l6.522-9.853a6.806 6.806 0 0 0 0-7.52l-6.522-9.853h-86.2z" class="cls-11" data-name="Path 741"/>
            <path id="Path_742" d="M123.3 100.781H60.48a1.05 1.05 0 0 1-.762-1.77l16.96-17.9a1.04 1.04 0 0 1 .762-.32h45.86a1.046 1.046 0 0 1 1.05 1.046v17.9a1.05 1.05 0 0 1-1.05 1.044zm-60.384-2.1h59.324V82.88H77.888z" class="cls-11" data-name="Path 742"/>
            <path id="Path_743" d="M100.365 82.88H77.44a1.05 1.05 0 0 1-1.05-1.05v-8.524a1.05 1.05 0 0 1 1.05-1.05h22.928a1.05 1.05 0 0 1 1.05 1.05v8.528a1.05 1.05 0 0 1-1.053 1.046zm-21.882-2.1h20.835v-6.428H78.483z" class="cls-11" data-name="Path 743"/>
            <g id="Group_183" class="cls-12" data-name="Group 183">
                <path id="Path_744" d="M56.736 122.662H53.59a1.05 1.05 0 1 1 0-2.1h3.146a1.05 1.05 0 0 1 0 2.1z" data-name="Path 744"/>
                <path id="Path_745" d="M118.858 122.662h-6.218a1.05 1.05 0 0 1 0-2.1h6.214a1.05 1.05 0 0 1 0 2.1zm-12.426 0h-6.211a1.05 1.05 0 1 1 0-2.1h6.211a1.05 1.05 0 1 1 0 2.1zm-12.426 0H87.8a1.05 1.05 0 0 1 0-2.1h6.211a1.05 1.05 0 1 1 0 2.1zm-12.422 0H75.37a1.05 1.05 0 0 1 0-2.1h6.23a1.05 1.05 0 0 1 0 2.1zm-12.426 0h-6.211a1.05 1.05 0 1 1 0-2.1h6.211a1.05 1.05 0 1 1 0 2.1z" data-name="Path 745"/>
                <path id="Path_746" d="M128.214 122.662h-3.146a1.05 1.05 0 0 1 0-2.1h3.146a1.05 1.05 0 0 1 0 2.1z" data-name="Path 746"/>
            </g>
            <path id="Path_747" d="M119.36 82.88H106.3a1.046 1.046 0 0 1-1.046-1.05V62.269a1.046 1.046 0 0 1 1.046-1.05h13.06a1.05 1.05 0 0 1 1.05 1.05v19.565a1.05 1.05 0 0 1-1.05 1.046zm-12.016-2.1h10.97V63.312h-10.96z" class="cls-11" data-name="Path 747"/>
            <g id="Group_188" class="cls-12" data-name="Group 188">
                <g id="Group_184" class="cls-13" data-name="Group 184">
                    <path id="Path_748" d="M93.635 136.656h47a.794.794 0 0 0 .794-.79.8.8 0 0 0-.794-.794h-47a.794.794 0 0 0-.79.794.794.794 0 0 0 .79.79z" class="cls-14" data-name="Path 748"/>
                </g>
                <g id="Group_185" class="cls-13" data-name="Group 185">
                    <path id="Path_749" d="M89.2 136.656h1.162a.794.794 0 0 0 .794-.79.8.8 0 0 0-.794-.794H89.2a.8.8 0 0 0-.794.794.794.794 0 0 0 .794.79z" class="cls-14" data-name="Path 749"/>
                </g>
                <g id="Group_186" class="cls-13" data-name="Group 186">
                    <path id="Path_750" d="M49.747 140.883h45.738a.848.848 0 0 0 .845-.845.845.845 0 0 0-.845-.845H49.747a.845.845 0 0 0-.845.845.848.848 0 0 0 .845.845z" class="cls-14" data-name="Path 750"/>
                </g>
                <g id="Group_187" class="cls-13" data-name="Group 187">
                    <path id="Path_751" d="M44.57 140.883h2.115a.848.848 0 0 0 .845-.845.845.845 0 0 0-.845-.845H44.57a.845.845 0 0 0-.845.845.848.848 0 0 0 .845.845z" class="cls-14" data-name="Path 751"/>
                </g>
            </g>
            <g id="Group_190" class="cls-15" data-name="Group 190">
                <path id="Path_752" d="M47.59 92.576s-.038 3.667-.426 4.16-2.406.026-2.406.026l.147-4.032a6.72 6.72 0 0 1-.32-2.2 3.519 3.519 0 0 1 .022-.512 4.58 4.58 0 0 1 .051-.474l-.976-3.2a11.189 11.189 0 0 0-1.341-3.117 21.239 21.239 0 0 0 .32 3.52A18.07 18.07 0 0 1 42.96 90s.682 3.315.726 3.52a9.461 9.461 0 0 0 .614 1.136A4.434 4.434 0 0 0 44.323 96a5.459 5.459 0 0 1 .566 2.09c-.138.294-2.589-.115-2.589-.342a7.389 7.389 0 0 0-.349-1.1l-.109-.3c-.1-.278-.182-.49-.182-.49a42.636 42.636 0 0 1-1.44-4.026c-.019-.074-.042-.141-.061-.211l-.061-.237a6.586 6.586 0 0 1-.157-.787 1.619 1.619 0 0 1 0-.394c.16-1.069-.864-3.475-.864-3.475s-1.158-3.68-1.363-3.862a11.051 11.051 0 0 1-.544-2.723 9.481 9.481 0 0 0-.1-.64 1.466 1.466 0 0 0-.045-.259c-.141-.717-.32-1.456-.32-1.456l2.56-1.683 6.7-.726s.186 1.437.422 3.018l.048.32a33.384 33.384 0 0 0 .666 3.578c.384 1.181.384 4.7.5 6.5a36.483 36.483 0 0 1-.011 3.781z" class="cls-16" data-name="Path 752"/>
                <path id="Path_753" d="M41 77.456l.842 4.3h.4l-.8-4.454z" class="cls-17" data-name="Path 753"/>
                <path id="Path_754" d="M37.066 79.482a1.517 1.517 0 0 0-.045-.259A1.409 1.409 0 0 0 38.16 77.5h.275a1.692 1.692 0 0 1-1.369 1.982z" class="cls-17" data-name="Path 754"/>
                <path id="Path_755" d="M46.429 78.72a7.609 7.609 0 0 1-2.429.189c-.4-.218-.79-1.386-.79-1.386l.362-.058s-.32 1.715 2.81.922z" class="cls-17" data-name="Path 755"/>
                <path id="Path_756" d="M46.294 77.3a7.584 7.584 0 0 1-2.787.445h-.349c-2.029.064-4.4-.051-5.344-.106l-.414-.029.829-.573 1.363-.5 2.88-.563 3.674-.1.035.32z" class="cls-18" data-name="Path 756"/>
                <path id="Path_757" d="M43.52 77.76h-.349a11.014 11.014 0 0 0-.6-1.6l.384-.051z" class="cls-19" data-name="Path 757"/>
                <path id="Path_758" d="M28.038 79.008s-.16.186-.406.438c-.749.758-2.288 2.115-2.56.72a2.757 2.757 0 0 1 1.51-2.714 2.973 2.973 0 0 1 .262-.15z" class="cls-20" data-name="Path 758"/>
                <path id="Path_759" d="M41.8 62.666s-.87-.547-1.03-.5 0 .784 0 .784a2.112 2.112 0 0 1-.96.922 13.578 13.578 0 0 0-1.344.806 2.41 2.41 0 0 0-1.853.614 1.494 1.494 0 0 1-1.2.2c-.672-.186-.707-1.107-.611-1.456.074-.275 1.2-.986 1.68-1.28l.218-.131s2.182-.074 2.675-1a1.834 1.834 0 0 1 .64-.7l.061-.035h.024a2 2 0 0 1 .739-.234 2.2 2.2 0 0 1 .961 2.01z" class="cls-21" data-name="Path 759"/>
                <path id="Path_760" d="M41.8 62.666s-.87-.547-1.03-.5 0 .784 0 .784a2.112 2.112 0 0 1-.96.922 13.578 13.578 0 0 0-1.344.806 2.41 2.41 0 0 0-1.853.614 1.494 1.494 0 0 1-1.2.2c-.672-.186-.707-1.107-.611-1.456.074-.275 1.2-.986 1.68-1.28l.218-.131s2.182-.074 2.675-1a1.834 1.834 0 0 1 .64-.7l.061-.035h.024a2 2 0 0 1 .739-.234 2.2 2.2 0 0 1 .961 2.01z" class="cls-10" data-name="Path 760"/>
                <path id="Path_761" d="M41.8 62.666s-.87-.547-1.03-.5 0 .784 0 .784a2.112 2.112 0 0 1-.96.922 13.578 13.578 0 0 0-1.344.806 2.41 2.41 0 0 0-1.853.614 1.494 1.494 0 0 1-1.2.2c-.672-.186-.707-1.107-.611-1.456.074-.275 1.2-.986 1.68-1.28l.218-.131s2.182-.074 2.675-1a1.834 1.834 0 0 1 .64-.7l.061-.035h.024a2 2 0 0 1 .739-.234 2.2 2.2 0 0 1 .961 2.01z" class="cls-17" data-name="Path 761"/>
                <path id="Path_762" d="M46.163 76.2c-.406-.387-2.95.32-2.95.32a17.6 17.6 0 0 1-3.088.582 5.2 5.2 0 0 1-.547 0 3.2 3.2 0 0 0-1.638.467l-.122.077-.419-.026.829-.573 1.363-.5 2.88-.56 3.674-.1z" class="cls-17" data-name="Path 762"/>
                <path id="Path_763" d="M27.632 79.446a2.03 2.03 0 0 0-1.04-1.994 2.971 2.971 0 0 1 .262-.15l1.184 1.706s-.16.186-.406.438z" class="cls-17" data-name="Path 763"/>
                <path id="Path_764" d="M55.77 64.029a4.39 4.39 0 0 0-2.544 1.181 2.954 2.954 0 0 1-2.294.861 7.277 7.277 0 0 1-2.726.774 2.031 2.031 0 0 0-1.357.39 3.264 3.264 0 0 1-.454.362 1.341 1.341 0 0 0-.675 1.347 13.12 13.12 0 0 1 .077 1.5c-.016 1.411.23 3.869.23 3.869s.544 2.134.134 1.747-2.95.32-2.95.32a17.526 17.526 0 0 1-3.088.582 4.463 4.463 0 0 1-.547 0 3.2 3.2 0 0 0-1.638.47 6.832 6.832 0 0 0-1.178.848 6.057 6.057 0 0 1-.112-3.181 2.019 2.019 0 0 0-.048-1L35.942 72a4.179 4.179 0 0 0-2.112 1.76 14.468 14.468 0 0 1-4.41 3.885.941.941 0 0 0-.573.512 2.394 2.394 0 0 1-.6.758 2.832 2.832 0 0 0-.6.685 2.06 2.06 0 0 0-1.11-2.294 1.52 1.52 0 0 0 .861-1.021 4.4 4.4 0 0 1 1.408-1.658 9.221 9.221 0 0 1 1.869-2.427 9.776 9.776 0 0 0 1.92-1.974A4.6 4.6 0 0 1 34 67.427s1.28-.547 1.408-1a4.653 4.653 0 0 1 .39-.752c.173-.291.371-.6.531-.845l.285-.429 2.038-.019h.371l1.085-2.045s.387-.384 1.056.07a1.078 1.078 0 0 0 .64.179 1.878 1.878 0 0 0 .861-.272c2.589-.7 3.677.64 3.677.64a7.728 7.728 0 0 1 1.885 0c.09.154 1.024 0 1.024 0l2.474-.243 3.818-.614z" class="cls-10" data-name="Path 764"/>
                <path id="Path_765" d="M40.87 63.36l-1.158 1.92s-3.158 2.294-2.7.5a3 3 0 0 0 .08-.925 2.725 2.725 0 0 0-.038-.358 5.917 5.917 0 0 0-.435-1.437 1.631 1.631 0 0 0-.074-.16l-.106-.218a6.9 6.9 0 0 0-.5-.854s3.43-2.794 3.542-1.046a3.622 3.622 0 0 0 .266 1.149l.029.064a3.52 3.52 0 0 0 .806 1.142 2.267 2.267 0 0 0 .288.224z" class="cls-20" data-name="Path 765"/>
                <path id="Path_766" d="M36.282 65.117l.534 1.6 2.173.352 1.245-1.37s.717-1.024.762-1.046a8.378 8.378 0 0 0 .16-1l.131-.55-.838-.285-1.182 1.282-.483.3-.538.131-1.766.512z" class="cls-10" data-name="Path 766"/>
                <path id="Path_767" d="M41.8 62.8a4.48 4.48 0 0 0-.752.048.64.64 0 0 0-.278.24 2.112 2.112 0 0 1-.96.922 13.6 13.6 0 0 0-1.344.81 2.4 2.4 0 0 0-1.853.614 1.523 1.523 0 0 1-.842.256c.173-.294.371-.6.531-.845.733-.08 2.282-.365 2.282-.365l.042-.086c.144-.294.64-1.28.81-1.6s.864-1.456.886-1.491l-.64.589.342-.829.064-.035h.019a2.016 2.016 0 0 1 .742-.234 2.179 2.179 0 0 1 .934 1.821 1.447 1.447 0 0 1 .016.186z" class="cls-17" data-name="Path 767"/>
                <path id="Path_768" d="M36.48 62.627l.17.371-.045.032c-.022-.054-.048-.106-.074-.16l-.106-.218.051-.029z" class="cls-17" data-name="Path 768"/>
                <path id="Path_769" d="M40.586 63.11a2.259 2.259 0 0 1-.762.64 13.013 13.013 0 0 0-1.344.81 2.419 2.419 0 0 0-1.392.282 2.725 2.725 0 0 0-.038-.358c.73-.115 1.549-.266 1.549-.266s.64-1.328.851-1.683c.074-.122.2-.32.32-.554a3.52 3.52 0 0 0 .816 1.13z" class="cls-17" data-name="Path 769"/>
                <path id="Path_770" d="M41.8 62.666a4.422 4.422 0 0 0-.752.045.64.64 0 0 0-.278.243 2.112 2.112 0 0 1-.96.922 13.579 13.579 0 0 0-1.344.806 2.41 2.41 0 0 0-1.853.614 1.494 1.494 0 0 1-1.2.2c-.672-.186-.707-1.107-.611-1.456.074-.275 1.2-.986 1.68-1.28l.166.374a10.616 10.616 0 0 1-1.1.739c-.726.432-.358.9-.358.9a3.623 3.623 0 0 1 .79-.051c.374.022 2.6-.384 2.6-.384s.64-1.331.851-1.686.864-1.456.886-1.491l-.643.592.342-.832.064-.035h.019a1.952 1.952 0 0 1 .742-.23 2.2 2.2 0 0 1 .959 2.01z" class="cls-10" data-name="Path 770"/>
                <path id="Path_771" d="M39.75 61.907a2.586 2.586 0 0 1-3.2.96 7.36 7.36 0 0 0-.6-1.072s3.43-2.794 3.542-1.046a3.562 3.562 0 0 0 .259 1.158z" class="cls-17" data-name="Path 771"/>
                <path id="Path_772" d="M40.1 60.365a1.829 1.829 0 0 1 0 .189 2.6 2.6 0 1 1 0-.189z" class="cls-20" data-name="Path 772"/>
                <path id="Path_773" d="M33.376 68.707a6.64 6.64 0 0 0 1.28 1.654 4.8 4.8 0 0 1 1.114 1.5 4.819 4.819 0 0 0-2.394-3.154z" class="cls-17" data-name="Path 773"/>
                <path id="Path_774" d="M32.49 71.386a5.779 5.779 0 0 1 3.011 0z" class="cls-17" data-name="Path 774"/>
                <path id="Path_775" d="M31.763 74.365l2.154-.742s-1.379.988-2.154.742z" class="cls-17" data-name="Path 775"/>
                <path id="Path_776" d="M28.038 77.267s.931-.045 1.226.253c0 0-.909.067-1.226-.253z" class="cls-17" data-name="Path 776"/>
                <path id="Path_777" d="M49.773 62.9s-2.09 1.238-2.182 3.238z" class="cls-17" data-name="Path 777"/>
                <path id="Path_778" d="M52.294 64.778a20.95 20.95 0 0 0-3.021.794 4.656 4.656 0 0 1-1.363.41s3.748-.5 4.384-1.204z" class="cls-17" data-name="Path 778"/>
                <path id="Path_779" d="M44.7 75.738a30.507 30.507 0 0 1-4.589 1.21 5.574 5.574 0 0 1-.566 0 3.363 3.363 0 0 0-1.7.483l-1.034.218s-.682-.538.259-1.754a6.92 6.92 0 0 0 1.107-3.133l4.192-1.072a8.7 8.7 0 0 0 1.673 1.81c.54.247 1.004 1.879.658 2.238z" class="cls-17" data-name="Path 779"/>
                <path id="Path_780" d="M44.55 75.792a29.116 29.116 0 0 1-4.429 1.174 4.46 4.46 0 0 1-.547 0 3.2 3.2 0 0 0-1.635.47c-.6.131-1 .211-1 .211s-.659-.522.25-1.706a6.753 6.753 0 0 0 1.07-3.041l4.041-1.044a8.663 8.663 0 0 0 1.6 1.754c.51.243.983 1.833.65 2.182z" class="cls-10" data-name="Path 780"/>
                <path id="Path_781" d="M41.28 90.682l-1.168.688a6.4 6.4 0 0 1-.154-.784 4.519 4.519 0 0 0 1.322.096z" class="cls-17" data-name="Path 781"/>
                <path id="Path_782" d="M40.163 91.61a17.684 17.684 0 0 0 1.92-.458 6.47 6.47 0 0 1-1.866.666 10.74 10.74 0 0 0-.054-.208z" class="cls-17" data-name="Path 782"/>
                <path id="Path_783" d="M42.435 90.976a.854.854 0 0 1-.342.173c.207-.099.342-.173.342-.173z" class="cls-17" data-name="Path 783"/>
                <path id="Path_784" d="M43.142 96.688a8.092 8.092 0 0 1-1.187-.051l-.109-.3a4.762 4.762 0 0 0 1.28 0c.394-.103.509.303.016.351z" class="cls-17" data-name="Path 784"/>
                <path id="Path_785" d="M46.1 90.65c-.054 0-.938-.106-1.5-.109a4.1 4.1 0 0 1 .019-.512c.381.163 1.419.601 1.481.621z" class="cls-17" data-name="Path 785"/>
                <path id="Path_786" d="M45.44 100.419c-.1.419-1.754.346-1.754.346l-.138.182a2.138 2.138 0 0 1-1.11.1 10.881 10.881 0 0 0-1.92-.109v-.454c0-.608.682-.806.682-.806a3.133 3.133 0 0 0 .771-.96 7.338 7.338 0 0 1 .432-.87s-.534-.64.9-.816.858 1.117.842 1.152c.022-.019.55-.5.845-.346.214.109.406 1.142.464 1.888a2.781 2.781 0 0 1-.01.7z" class="cls-22" data-name="Path 786"/>
                <path id="Path_787" d="M45.44 100.419c-.1.419-1.754.346-1.754.346l-.138.182a2.138 2.138 0 0 1-1.11.1 10.881 10.881 0 0 0-1.92-.109v-.454a11.3 11.3 0 0 0 3.014-.1 3.02 3.02 0 0 0 .579-.2c.093-.067 1.053-.381 1.334-.474a2.653 2.653 0 0 1-.006.714z" class="cls-17" data-name="Path 787"/>
                <path id="Path_788" d="M49.062 100.48a4.638 4.638 0 0 1-2.288-.2 1.021 1.021 0 0 1-.47-.7c-.08-.493-.835-.992-.835-.992s-.931.09-1.043-.182a1.216 1.216 0 0 1-.032-.355c0-.733.182-2.269.394-2.24s1.021 1.046 1.1 1.149c-.067-.109-.739-1.251.749-1.389 0 0 1.213-.685 1.091.915l.509 1.1s1 1.485 1.254 1.434c.122-.026.371.272.438.6s-.079.758-.867.86z" class="cls-22" data-name="Path 788"/>
                <path id="Path_789" d="M40.1 60.365a1.829 1.829 0 0 1 0 .189l-.061.026-.246.09a.416.416 0 0 1-.128.029.224.224 0 0 1-.176-.1.576.576 0 0 1-.077-.176l-.182-.71a.461.461 0 0 0-.253-.355.96.96 0 0 1-.138-.038c-.1-.048-.118-.157-.15-.25a1.085 1.085 0 0 0-.486-.518.89.89 0 0 0-.5-.16.448.448 0 0 0-.259.093.518.518 0 0 0-.115.5 1.5 1.5 0 0 1 0 .573 2.58 2.58 0 0 0-.131.362 1.527 1.527 0 0 1 0 .32.243.243 0 0 1-.192.234c0-.064-.1-.083-.16-.115-.134-.074-.141-.237-.138-.371 0-.2.022-.4.032-.6a9.6 9.6 0 0 1-.278 1.334.477.477 0 0 1-.1.2.192.192 0 0 1-.32-.08 1.475 1.475 0 0 1-.1-.742 4.317 4.317 0 0 1-.32.96.458.458 0 0 1-.32.278.64.64 0 0 0-.138.022.186.186 0 0 0-.048.035 2.589 2.589 0 1 1 4.966-1.027z" class="cls-17" data-name="Path 789"/>
                <path id="Path_790" d="M37.44 58.355a.432.432 0 0 1 .259-.1.89.89 0 0 1 .5.16 1.085 1.085 0 0 1 .486.518c.032.093.051.2.147.25l.134.038a.451.451 0 0 1 .253.358l.186.707a.534.534 0 0 0 .07.176.237.237 0 0 0 .179.1.32.32 0 0 0 .131-.029l.243-.09a.573.573 0 0 0 .32-.211.4.4 0 0 0 .029-.221 4.039 4.039 0 0 0-.1-.675l.282.192a.291.291 0 0 0 .234.067.176.176 0 0 0 .109-.115c.048-.141 0-.32.118-.422a.58.58 0 0 0 .077-.077c.1-.125 0-.291.022-.435a.186.186 0 0 0 .218-.061.368.368 0 0 0 .054-.208 1.661 1.661 0 0 0-.256-1.213c.054-.342-.32-.717-.71-.765-.1 0-.224-.016-.269-.093a.291.291 0 0 1-.019-.115.71.71 0 0 0-.179-.355.64.64 0 0 0-.122-.125.682.682 0 0 0-.486-.035q-.454.08-.9.182a.909.909 0 0 1 0-.445c.032-.112.083-.224.026-.32a.17.17 0 0 0-.147-.1.2.2 0 0 0-.189.115 2.326 2.326 0 0 0-.346.845.819.819 0 0 0-.781-.09.6.6 0 0 1-.2.074.342.342 0 0 1-.3-.173c-.08-.125-.118-.275-.278-.358a.24.24 0 0 0-.227 0c-.211.122.051.426-.106.586a.368.368 0 0 1-.147.08l-.39.144a2.083 2.083 0 0 1-.64.163 4.782 4.782 0 0 0-.771 0 .771.771 0 0 0 .387.234c.093.022.189.029.278.058a.262.262 0 0 1 .192.17c.019.106-.08.2-.061.32a.2.2 0 0 0 .221.131l-.461.3c-.083.051-.173.131-.144.214l.15.045-.4.573a.32.32 0 0 0-.083.211.144.144 0 0 0 .173.115 1.107 1.107 0 0 0-.224.346.138.138 0 0 0 0 .112.166.166 0 0 0 .141.051.445.445 0 0 0 .445-.32c.067.077 0 .163-.067.237a3.59 3.59 0 0 0-.64.96 1.069 1.069 0 0 0 .125 1.072 1.392 1.392 0 0 1 .147.192c.08.154.035.349.16.48a5.577 5.577 0 0 1 .362-.8 1.942 1.942 0 0 1-.038.269.214.214 0 0 0 .128.227c.131.048.266-.054.352-.147a.221.221 0 0 1 .077-.067.518.518 0 0 1 .141-.022.467.467 0 0 0 .32-.282 4.541 4.541 0 0 0 .32-.96 1.469 1.469 0 0 0 .1.742.189.189 0 0 0 .32.08.445.445 0 0 0 .1-.2 9.5 9.5 0 0 0 .278-1.334l-.029.6c0 .138 0 .3.138.371.061.032.147.054.16.115a.246.246 0 0 0 .192-.234 2.55 2.55 0 0 1-.016-.32 2.055 2.055 0 0 1 .131-.362 1.5 1.5 0 0 0 0-.573.5.5 0 0 1 .111-.528z" class="cls-23" data-name="Path 790"/>
                <path id="Path_791" d="M49.062 100.48a4.638 4.638 0 0 1-2.288-.2 1.021 1.021 0 0 1-.47-.7c-.08-.493-.835-.992-.835-.992s-.931.09-1.043-.182a1.216 1.216 0 0 1-.032-.355c.342.083 1.136.272 1.382.342.32.09 1.248 1.6 1.248 1.6.9.474 2.381-.134 2.9-.371.076.346-.074.756-.862.858z" class="cls-17" data-name="Path 791"/>
                <path id="Path_792" d="M42.4 97.834s-.458.7 1.738.339" class="cls-17" data-name="Path 792"/>
                <path id="Path_793" d="M45.885 96.934s2.317.506 1.84-.474" class="cls-17" data-name="Path 793"/>
                <g id="Group_189" class="cls-24" data-name="Group 189">
                    <path id="Path_794" d="M34.762 56.906a.221.221 0 0 0 0 .1.163.163 0 0 0 .07.1l.157-.1a.2.2 0 0 1-.227-.1z" data-name="Path 794"/>
                    <path id="Path_795" d="M34.336 56.47c.093.022.192.029.282.058a.32.32 0 0 1 .179.138.192.192 0 0 0 0-.1.259.259 0 0 0-.189-.17 2.754 2.754 0 0 0-.282-.061.755.755 0 0 1-.253-.115.96.96 0 0 0-.134.019.771.771 0 0 0 .4.234z" data-name="Path 795"/>
                    <path id="Path_796" d="M34.662 60.8a5.6 5.6 0 0 0-.365.8c-.125-.128-.077-.32-.16-.477a.96.96 0 0 0-.147-.192.96.96 0 0 1-.208-.547.96.96 0 0 0 .208.682 1.177 1.177 0 0 1 .147.192c.083.154.035.349.16.48a6.04 6.04 0 0 1 .339-.749.9.9 0 0 0 .026-.186z" data-name="Path 796"/>
                    <path id="Path_797" d="M34.048 58.384a.2.2 0 0 0-.016.1.154.154 0 0 0 .083.106.781.781 0 0 1 .1-.128.144.144 0 0 1-.17-.074z" data-name="Path 797"/>
                    <path id="Path_798" d="M38.438 55.466a.976.976 0 0 1 .026-.173.538.538 0 0 0 .045-.293.463.463 0 0 1-.045.147.941.941 0 0 0-.026.314z" data-name="Path 798"/>
                    <path id="Path_799" d="M35.939 55.382a.765.765 0 0 0 .022.256.765.765 0 0 0-.022-.256z" data-name="Path 799"/>
                    <path id="Path_800" d="M34.579 58.634a.461.461 0 0 1-.445.32.179.179 0 0 1-.134-.039.125.125 0 0 0 0 .112.163.163 0 0 0 .141.051.512.512 0 0 0 .246-.07l.134-.16a.835.835 0 0 0 .061-.086.115.115 0 0 0-.003-.128z" data-name="Path 800"/>
                    <path id="Path_801" d="M34.4 57.526a.122.122 0 0 0-.035.125l.07.019.077-.112z" data-name="Path 801"/>
                    <path id="Path_802" d="M41.11 58.826a.907.907 0 0 1-.08.077c-.106.115-.067.282-.118.419a.182.182 0 0 1-.109.118.291.291 0 0 1-.234-.067l-.278-.192.029.157.25.17a.32.32 0 0 0 .234.07.189.189 0 0 0 .109-.118c.051-.141 0-.32.118-.422a.907.907 0 0 0 .08-.077.256.256 0 0 0 .032-.2.176.176 0 0 1-.033.065z" data-name="Path 802"/>
                    <path id="Path_803" d="M40.384 59.978a.272.272 0 0 1-.029.1.579.579 0 0 1-.32.211l-.243.086a.374.374 0 0 1-.131.032.224.224 0 0 1-.176-.1.614.614 0 0 1-.077-.176l-.186-.71a.445.445 0 0 0-.25-.355.519.519 0 0 1-.138-.038c-.1-.048-.118-.16-.147-.25a1.091 1.091 0 0 0-.486-.522.9.9 0 0 0-.493-.157.429.429 0 0 0-.262.093.422.422 0 0 0-.125.384.349.349 0 0 1 .125-.246.432.432 0 0 1 .262-.1.886.886 0 0 1 .493.16 1.085 1.085 0 0 1 .486.518c.032.093.054.2.147.25a.961.961 0 0 0 .138.038.448.448 0 0 1 .25.355l.186.71a.509.509 0 0 0 .077.176.224.224 0 0 0 .176.1.458.458 0 0 0 .131-.029l.24-.09a.566.566 0 0 0 .32-.208.413.413 0 0 0 .032-.224z" data-name="Path 803"/>
                    <path id="Path_804" d="M41.4 58.125a.368.368 0 0 1-.054.208.186.186 0 0 1-.218.061.4.4 0 0 0 0 .15.186.186 0 0 0 .218-.061.362.362 0 0 0 .054-.208v-.15z" data-name="Path 804"/>
                    <path id="Path_805" d="M35.955 59.792a4.16 4.16 0 0 1-.32.96.451.451 0 0 1-.32.278.5.5 0 0 0-.138.026.23.23 0 0 0-.08.067c-.086.1-.221.2-.352.147a.2.2 0 0 1-.118-.144v.051a.214.214 0 0 0 .125.23c.131.048.266-.054.352-.15a.262.262 0 0 1 .08-.064.5.5 0 0 1 .138-.026.458.458 0 0 0 .32-.278 4.061 4.061 0 0 0 .32-.922q-.008-.087-.007-.175z" data-name="Path 805"/>
                    <path id="Path_806" d="M36.765 59.075a9.408 9.408 0 0 1-.278 1.334.445.445 0 0 1-.1.2.218.218 0 0 1-.237.048.227.227 0 0 1-.1-.128 1.466 1.466 0 0 1-.1-.48 1.456 1.456 0 0 0 .106.618.227.227 0 0 0 .093.125.214.214 0 0 0 .237-.045.416.416 0 0 0 .1-.2 8.583 8.583 0 0 0 .269-1.28z" data-name="Path 806"/>
                    <path id="Path_807" d="M37.338 59.267a2.736 2.736 0 0 0-.131.362.771.771 0 0 0 0 .122 3.019 3.019 0 0 1 .128-.346.675.675 0 0 0 .022-.266.429.429 0 0 1-.019.128z" data-name="Path 807"/>
                    <path id="Path_808" d="M37.03 60.16c0-.061-.1-.083-.16-.115a.288.288 0 0 1-.134-.253v.016c0 .138 0 .3.134.371.061.032.15.051.16.115a.243.243 0 0 0 .192-.234.583.583 0 0 0 0-.106.23.23 0 0 1-.192.2z" data-name="Path 808"/>
                </g>
                <path id="Path_809" d="M59.789 101.642h-6.967a.579.579 0 0 1-.582-.582.472.472 0 0 1 0-.067l1.7-14.416.035-.3a.582.582 0 0 1 .579-.515h3.658a.586.586 0 0 1 .579.522l.029.288L60.365 101a.582.582 0 0 1-.515.64z" class="cls-8" data-name="Path 809"/>
                <path id="Path_810" d="M54.419 87.482s.256 6.541-.733 9.03c0 0 .1.531.381 0a27.888 27.888 0 0 0 .774-8.938s-.095-.313-.422-.092z" class="cls-17" data-name="Path 810"/>
                <path id="Path_811" d="M55.648 87.482s.256 6.541-.733 9.03c0 0 .1.531.381 0a27.91 27.91 0 0 0 .771-8.938s-.089-.313-.419-.092z" class="cls-17" data-name="Path 811"/>
                <path id="Path_812" d="M58.634 87.482s-.256 6.541.733 9.03c0 0-.1.531-.381 0a27.888 27.888 0 0 1-.774-8.938s.088-.313.422-.092z" class="cls-17" data-name="Path 812"/>
                <path id="Path_813" d="M57.4 87.482s-.256 6.541.733 9.03c0 0-.1.531-.381 0a27.888 27.888 0 0 1-.774-8.938s.097-.313.422-.092z" class="cls-17" data-name="Path 813"/>
                <path id="Path_814" d="M56.355 44.614a1.658 1.658 0 0 1 1.658 1.658v37.619H54.7V46.272a1.658 1.658 0 0 1 1.654-1.658z" class="cls-8" data-name="Path 814"/>
                <path id="Path_815" d="M58.819 86.57a.641.641 0 0 1-.112.016h-4.768l.035-.3a.582.582 0 0 1 .579-.515h3.658a.582.582 0 0 1 .579.522z" class="cls-17" data-name="Path 815"/>
                <path id="Rectangle_406" d="M0 0h3.344v.576H0z" class="cls-17" data-name="Rectangle 406" transform="translate(54.701 83.315)"/>
                <rect id="Rectangle_407" width="5.578" height="3.05" class="cls-8" data-name="Rectangle 407" rx=".48" transform="translate(53.568 83.424)"/>
                <path id="Path_816" d="M58.2 61.05s-1.35-.419-1.146 1.069.726 1.578.726 1.578a.736.736 0 0 0 .511-.697 14.721 14.721 0 0 0-.091-1.95z" class="cls-20" data-name="Path 816"/>
                <path id="Path_817" d="M55.286 58.474a5.559 5.559 0 0 1-.2 1.651s-1.011-.854-1.13-1.226a.7.7 0 0 1 1.315-.486z" class="cls-8" data-name="Path 817"/>
                <path id="Path_818" d="M50.32 66.675a5.454 5.454 0 0 1-.2 1.651 5.641 5.641 0 0 1-1.13-1.222.7.7 0 0 1 1.334-.429z" class="cls-8" data-name="Path 818"/>
                <path id="Path_819" d="M60.781 63.059a5.54 5.54 0 0 1-.208 1.651s-1.008-.851-1.126-1.222a.7.7 0 0 1 1.334-.429z" class="cls-8" data-name="Path 819"/>
                <path id="Path_820" d="M66.189 69.258a5.454 5.454 0 0 1-.2 1.651 5.641 5.641 0 0 1-1.13-1.222.7.7 0 0 1 1.325-.458v.029z" class="cls-8" data-name="Path 820"/>
                <path id="Path_821" d="M62.538 59.078a5.926 5.926 0 0 1-1.37.944 5.59 5.59 0 0 1 .163-1.654.7.7 0 1 1 1.206.71z" class="cls-8" data-name="Path 821"/>
                <path id="Path_822" d="M75.773 58.08a5.994 5.994 0 0 1-1.37.944 5.591 5.591 0 0 1 .163-1.654.7.7 0 1 1 1.219.688z" class="cls-8" data-name="Path 822"/>
                <path id="Path_823" d="M49.123 60.65a5.572 5.572 0 0 1-1.635-.3 5.552 5.552 0 0 1 1.28-1.056.7.7 0 1 1 .352 1.357z" class="cls-8" data-name="Path 823"/>
                <path id="Path_824" d="M61.251 75.786a5.965 5.965 0 0 1-1.373.941 5.507 5.507 0 0 1 .166-1.654.694.694 0 0 1 .96-.246.7.7 0 0 1 .25.96z" class="cls-8" data-name="Path 824"/>
            </g>
        </g>
    </g>
</svg>
