<svg xmlns="http://www.w3.org/2000/svg" xmlns:xlink="http://www.w3.org/1999/xlink" viewBox="0 0 160 160">
  <defs>
    <style>
      .cls-1 {
        fill: #fff;
      }

      .cls-2 {
        clip-path: url(#clip-path);
      }

      .cls-3, .cls-4 {
        fill: #2b3991;
      }

      .cls-3, .cls-7, .cls-9 {
        opacity: 0.1;
      }

      .cls-5 {
        fill: url(#linear-gradient);
      }

      .cls-6 {
        fill: #333;
      }

      .cls-8 {
        fill: #535461;
      }

      .cls-10 {
        fill: #ced2df;
      }

      .cls-11 {
        fill: #3d213c;
      }

      .cls-12 {
        fill: #f7c1a3;
      }

      .cls-13 {
        fill: #ebf1f6;
      }

      .cls-14 {
        fill: #f7931d;
      }

      .cls-15 {
        fill: url(#linear-gradient-2);
      }

      .cls-16 {
        fill: #493545;
      }

      .cls-17 {
        fill: #3e3d77;
      }

      .cls-18, .cls-20 {
        fill: none;
        stroke-miterlimit: 10;
      }

      .cls-18 {
        stroke: #535461;
        stroke-width: 0.285px;
      }

      .cls-19 {
        fill: #dee3f3;
        opacity: 0.5;
      }

      .cls-20 {
        stroke: #2b3991;
        stroke-width: 0.141px;
      }

      .cls-21 {
        fill: #a8a8a8;
      }

      .cls-22 {
        opacity: 0.2;
      }
    </style>
    <clipPath id="clip-path">
      <rect id="Rectangle_2" data-name="Rectangle 2" class="cls-1" width="160" height="160" transform="translate(445 747)"/>
    </clipPath>
    <linearGradient id="linear-gradient" x1="1.491" y1="-1.208" x2="1.491" y2="-0.208" gradientUnits="objectBoundingBox">
      <stop offset="0" stop-color="gray" stop-opacity="0.251"/>
      <stop offset="0.54" stop-color="gray" stop-opacity="0.122"/>
      <stop offset="1" stop-color="gray" stop-opacity="0.102"/>
    </linearGradient>
    <linearGradient id="linear-gradient-2" x1="1.829" y1="-0.947" x2="1.829" y2="0.053" xlink:href="#linear-gradient"/>
  </defs>
  <g id="img-yunan-adalari" class="cls-2" transform="translate(-445 -747)">
    <g id="Homepage-Icons-11" transform="translate(444.783 748.798)">
      <path id="Path_1109" data-name="Path 1109" class="cls-3" d="M93.186,31.123c-10.26-.358-20.031-3.668-29.36-7.29s-18.562-7.639-28.582-9.559c-6.442-1.235-13.8-1.408-18.994,2.048-5,3.325-6.609,9.054-7.476,14.376-.64,4-1.037,8.218.752,11.966,1.242,2.6,3.447,4.8,4.97,7.284C19.8,58.62,16.053,69.315,10.3,77.79,7.61,81.758,4.48,85.55,2.4,89.775s-3.04,9.076-1.223,13.39,6.1,7.489,10.763,9.745c9.46,4.589,20.6,5.9,31.481,6.647,24.063,1.645,48.257.931,72.384.218,8.932-.262,17.9-.531,26.684-1.92,4.877-.768,9.921-1.984,13.441-4.922a11.271,11.271,0,0,0,2.6-14.721c-5.04-7.834-19-9.783-22.543-18.2-1.946-4.637.051-9.8,2.88-14.081,6.061-9.22,16.219-17.307,16.754-27.843.368-7.236-4.516-14.485-12.068-17.922-7.911-3.591-18.882-3.139-24.726,2.8C112.811,29.081,102.243,31.437,93.186,31.123Z"/>
      <path id="Path_1110" data-name="Path 1110" class="cls-4" d="M77.249,37.687a2.131,2.131,0,0,1,1.127.531,12.834,12.834,0,0,0,1.184.758c1.082.64,1.485.877,1.184,2.263a1.955,1.955,0,0,1-1.434,1.495c-.6.259-1.347.582-1.453,1.584a5.309,5.309,0,0,0,.246,1.773,3.553,3.553,0,0,1-.32,3.37c-.2.042-.5.138-1,.3a16.627,16.627,0,0,1-4.34.979,2.3,2.3,0,0,1-.813-.118,4.688,4.688,0,0,0-1.683-.282,10.561,10.561,0,0,0-1.4.112c-.176.022-.336.045-.467.054a1,1,0,0,0-.054-.941,1.972,1.972,0,0,0-1.722-.723,2.36,2.36,0,0,0-2.24,1.229c-.227.528-.506.64-.851.64a3.966,3.966,0,0,1-.765-.109,4.353,4.353,0,0,0-.851-.115A1.365,1.365,0,0,0,60.2,51.746c-.182.835-.64.893-1.523.931-.7.029-1.664.07-1.981,1.111-.08.275-.17.528-.246.752-.371,1.053-.691,1.965.96,2.791A2.24,2.24,0,0,1,58.466,58.5a2.993,2.993,0,0,1-.381-.3,4.22,4.22,0,0,0-2.416-1.28.746.746,0,0,0-.739.419c-.163.358,0,.8.442,1.315a3.273,3.273,0,0,1,.266.352,2.3,2.3,0,0,0-1.44-.672.768.768,0,0,0-.7.365.806.806,0,0,0,.074.842,1.741,1.741,0,0,1,.186.426,3.466,3.466,0,0,1-.666-.384c-.448-.32-.5-.458-.506-.458h0a.678.678,0,0,1,.054-.109.921.921,0,0,0-.3-1.319,2.131,2.131,0,0,0-1.36-.387,4.727,4.727,0,0,0-.675.032,3.737,3.737,0,0,1-.582.026c-.611,0-.694-.154-.742-.374-.365-1.651-1.043-2.071-3.037-2.56l-1.77-.448L45.537,55.2c.538.474.32,1.091-.083,2.051-.3.707-.64,1.514-.086,2.064.179.182.192.419.2.858a3.1,3.1,0,0,0,1.251,2.679,5.8,5.8,0,0,0,1.216.806c.32.166.39.2,1.383,2.083.445.851.9,1.6,1.28,2.183.506.819,1.024,1.664.925,1.92-.016.051-.115.125-.336.189l-.39.115c.774-1.21-.848-2.81-1.392-3.348a1.466,1.466,0,0,0-1.047-.41,1.658,1.658,0,0,0-1.491.883A2.007,2.007,0,0,0,47.4,69.45a9.282,9.282,0,0,1,.842,1.232,3.7,3.7,0,0,1-.32.2c-.147.08-.32.182-.534.32-.464.285-.874.579-.768,1.011s.586.486,1.3.538c.227.016.49.035.746.067.362.048.486.358.669,1.008.141.512.32,1.133.89,1.335a6.826,6.826,0,0,1-.32.925c-.342.883-.7,1.8-.3,2.378a1.034,1.034,0,0,0,.918.419h.16c.166,0,.32-.019.5-.019a4.45,4.45,0,0,1,3.565,1.411c.742,1.114,1.949,2.592,3.866,2.592,1.466,0,2,.73,3.6,2.9l.189.253c.986,1.344.918,1.645.755,2.368a6.89,6.89,0,0,0-.189,2.176,2.029,2.029,0,0,1-.035.64,6.952,6.952,0,0,1-1.859-2.157,1.515,1.515,0,0,0-1.418-.941,6.1,6.1,0,0,0-.864.093c-.32.051-.7.109-1.168.147l-.909.064c-2.093.131-3.287.243-3.469.96-.144.557.474.96.682,1.082a1.268,1.268,0,0,1,.614,1.559c-.067.451-.166,1.136.528,1.482a3,3,0,0,1,1.258.912,1.056,1.056,0,0,1-.384.173,4.879,4.879,0,0,0-2.093,1.728c-.118.141-.262.32-.384.445-.2-.96-.486-1.175-1.063-1.28a1.757,1.757,0,0,1-.96-.486,1.072,1.072,0,0,0-.688-.342.534.534,0,0,0-.528.416c-.192.726,1.043,2.826,1.971,3.354.221.125.25.208.093.893a3.31,3.31,0,0,0,.221,2.592,5.213,5.213,0,0,1,.64,1.92,2.522,2.522,0,0,0,.509,1.344,8.5,8.5,0,0,1,.912,1.872c-1.687-1.971-2.375-2.576-2.915-2.576a.64.64,0,0,0-.493.224,1.477,1.477,0,0,0-.138,1.226,1.6,1.6,0,0,1-.278,1.28.454.454,0,0,1-.291.189c-.138,0-.352-.32-.394-1.05-.106-1.827-.819-3.716-1.824-3.716-.342,0-.8.211-1.037,1.219-.15.64-.32.717-.32.717-.3,0-1.056-.877-1.6-1.52l-.17-.2a15.14,15.14,0,0,0-3.876-2.685c-.934-.518-2.343-1.3-2.368-1.626,0,0,.07-.163.64-.384a2.072,2.072,0,0,0,1.315-2.515c-.32-1.808-2.419-4.228-4.09-4.228a1.636,1.636,0,0,0-.522.083,3.927,3.927,0,0,0-2.1-2.912.8.8,0,0,1-.528-.842.557.557,0,0,1,.611-.39h.3c.81,0,1.37-.71,1.92-1.4.41-.522.832-1.059,1.207-1.059a.64.64,0,0,1,.365.138,1.7,1.7,0,0,0,1,.346,2.73,2.73,0,0,0,1.28-.435,3.015,3.015,0,0,1,1.482-.48,3.3,3.3,0,0,1,1.527.442,5.037,5.037,0,0,0,2.24.726,2.918,2.918,0,0,0,.64-.08,1.939,1.939,0,0,1,.39-.054,2.606,2.606,0,0,1,1.306.506l.355.214c2.743,1.651,3.28,1.943,3.6,1.943a.477.477,0,0,0,.448-.294c.138-.32-.138-.608-.339-.806-.691-.691-1.008-1.312-.918-1.8a1.357,1.357,0,0,1,.742-.851l.365-.147-.07-.362-.07-.365h-.5l-.08.032c-.029,0-.189.07-.566.179a3.37,3.37,0,0,0-1.546.851,1.008,1.008,0,0,1-.173.141,8,8,0,0,1-1.754-.938c-2.24-1.4-3.28-1.875-4.183-1.875a2.493,2.493,0,0,0-1.4.445,1.827,1.827,0,0,1-.96.32c-.7,0-1.232-.64-1.747-1.258-.464-.554-.9-1.082-1.495-1.082-.64,0-1.059.659-1.194.874a13.979,13.979,0,0,1-1.155,1.68,7.631,7.631,0,0,1-.262-.758A4.814,4.814,0,0,0,33.229,80c-.5-.429-1.024-.867-.982-1.181a1.475,1.475,0,0,1,1.4-1.463,2.941,2.941,0,0,1,1.027.224,4.343,4.343,0,0,0,1.4.355.614.614,0,0,0,.669-.435c.042-.166.173-.669-1.37-1.53a.929.929,0,0,1-.435-1.082.64.64,0,0,0-.106-.541l-.147-.157h-.2c-.256,0-.39.154-.787.6a.422.422,0,0,1-.32.182,1.843,1.843,0,0,1-.9-.47.96.96,0,0,0-.586-.291.483.483,0,0,0-.4.2c-.17.243-.083.531.08.979a1.847,1.847,0,0,1-.112,1.619c-.1.134-.186.186-.221.186s-.147-.064-.272-.378a4.746,4.746,0,0,0-1.482-1.8,4.485,4.485,0,0,1-1.68-2.295,2.346,2.346,0,0,0-1.453-1.789c-.426-.2-.733-.349-.931-1.363-.448-2.211-2.2-2.435-3.482-2.6a7.824,7.824,0,0,1-.826-.134h0c.035-.067.083-.147.118-.211a2.656,2.656,0,0,0,.246-.5,1.069,1.069,0,0,0,.64-.57,1.534,1.534,0,0,0-.262-1.331,2.974,2.974,0,0,1-.17-.32h0c1.552-.381,2.72-2.074,3.2-4.65a13.905,13.905,0,0,1,1-2.826A14.647,14.647,0,0,0,27.455,50.1c.778-.96,1.085-1.056,1.4-1.056a4.483,4.483,0,0,1,.525.048,8.3,8.3,0,0,0,1.175.09,8.123,8.123,0,0,0,.96-.058c.467-.058.941-.1,1.443-.141,2.432-.208,4.948-.426,6.516-2.416a10.4,10.4,0,0,0,1.21-2.019c.3-.6.474-.96.678-.96a2.112,2.112,0,0,1,1.011.5,5.04,5.04,0,0,0,2.672,1.28c1.248,0,1.568-1.466,1.69-2.023.1-.49.16-.848.2-1.111.026-.166.051-.336.074-.422l.262-.045c.17-.026.4-.064.7-.128a11.221,11.221,0,0,1,2.583-.3,16.468,16.468,0,0,1,1.786.115,10.985,10.985,0,0,0,1.136.083,2.288,2.288,0,0,0,1.92-.87c1.018-1.28,1.872-1.84,2.768-1.84a3.034,3.034,0,0,1,1.722.64,3.186,3.186,0,0,0,1.754.755,1.847,1.847,0,0,0,.691-.15.909.909,0,0,1,.346-.09,1.568,1.568,0,0,1,.742.291,3.428,3.428,0,0,0,1.991.618h.669a1.9,1.9,0,0,1,1.165.358,4.8,4.8,0,0,0,2.535.64c.534,0,1.811-.077,2.183-.794a.832.832,0,0,0,.077-.538c.346.026.832.1,1.344.176a18.7,18.7,0,0,0,2.464.23,1.831,1.831,0,0,0,1.559-.541,1.043,1.043,0,0,0,.026-1.034c-.442-1.03-.406-1.536-.32-1.674,0,0,.026-.042.118-.042Zm0-.448c-.7,0-.858.842-.218,2.339.32.736-.272.96-1.171.96-1.28,0-3.2-.448-4.052-.448-.346,0-.5.077-.346.3.467.659-.525,1.04-1.709,1.04a4.413,4.413,0,0,1-2.288-.563,2.323,2.323,0,0,0-1.411-.432c-.214,0-.429.016-.64.016a2.986,2.986,0,0,1-1.747-.547,1.9,1.9,0,0,0-.982-.365c-.4,0-.64.24-1.04.24a2.745,2.745,0,0,1-1.491-.669,3.431,3.431,0,0,0-1.984-.73,4.3,4.3,0,0,0-3.117,2.01,1.821,1.821,0,0,1-1.6.7c-.742,0-1.677-.2-2.922-.2a11.544,11.544,0,0,0-2.685.32c-1.6.346-1.1-.186-1.571,2.048-.253,1.155-.64,1.667-1.251,1.667a5.058,5.058,0,0,1-2.41-1.2,2.45,2.45,0,0,0-1.28-.586c-.867,0-.934,1.482-2.24,3.136-1.757,2.24-4.951,2.064-7.662,2.391a7.178,7.178,0,0,1-.893.054c-.794,0-1.28-.138-1.7-.138-.554,0-.989.24-1.856,1.354.15,3.981-2.093,6.692-2.56,9.233s-1.6,3.978-2.88,4.3,1.28,1.85-.486,2.327c-.038.57-.992,1.261-.093,1.485,1.28.32,3.495,0,3.981,2.391s1.754.96,2.391,3.2,2.541,2.56,3.178,4.138c.182.464.435.659.685.659.608,0,1.2-1.165.752-2.407-.157-.432-.179-.582-.1-.582.166,0,.819.762,1.485.762A.867.867,0,0,0,34,75.1c.285-.32.406-.448.451-.448.134,0-.39,1.127.672,1.719s1.475,1.13.918,1.13a4.16,4.16,0,0,1-1.239-.32,3.312,3.312,0,0,0-1.184-.253,1.892,1.892,0,0,0-1.84,1.84c-.15,1.114,2.221,1.92,2.707,3.5.224.733.378,1.162.64,1.162s.742-.589,1.6-1.965c.3-.477.563-.662.816-.662.9,0,1.648,2.339,3.242,2.339a2.24,2.24,0,0,0,1.194-.4,2.061,2.061,0,0,1,1.155-.378c.838,0,1.92.538,3.946,1.808,1.187.746,1.687,1,1.991,1,.474,0,.477-.621,1.84-1,.374-.109.557-.176.611-.2h0c-.221.1-2.24,1.111.022,3.38.237.234.291.32.208.32a27.228,27.228,0,0,1-3.719-2.093,3.089,3.089,0,0,0-1.539-.57c-.342,0-.618.138-1.04.138a4.545,4.545,0,0,1-2.039-.678,3.722,3.722,0,0,0-1.735-.493c-1.28,0-1.949.915-2.768.915a1.28,1.28,0,0,1-.746-.262,1.088,1.088,0,0,0-.621-.221c-1.184,0-1.92,2.458-3.117,2.458a.467.467,0,0,1-.093,0h-.2c-1.245,0-1.491,1.472-.282,2.077a3.569,3.569,0,0,1,1.92,3.344,1.059,1.059,0,0,1,.9-.467c2.045,0,5.441,4.784,2.615,5.876-3.344,1.28,3.178,2.88,5.418,5.409.851.986,1.571,1.869,2.112,1.869.32,0,.57-.3.749-1.062.141-.614.362-.877.6-.877.573,0,1.28,1.5,1.376,3.3.064,1.05.442,1.469.842,1.469.576,0,1.2-.861,1.011-1.984-.109-.64-.032-.928.189-.928.432,0,1.411,1.053,2.669,2.525.413.477.662.669.794.669.49,0-.611-2.6-1.111-3.219-.64-.794-.15-1.427-1.1-3.184s.64-3.018-.486-3.664c-.96-.541-2.128-2.931-1.664-2.931a.762.762,0,0,1,.394.234c1.28,1.1,1.6,0,1.92,1.6.064.32.163.458.291.458.5,0,1.459-1.984,2.736-2.365,1.6-.474.166-1.437-.8-1.92s.64-1.92-1.1-3.018,1.6-1.12,3.495-1.28c.96-.08,1.562-.237,2-.237s.714.157,1.03.714c.458.774,1.677,2.4,2.32,2.4.282,0,.454-.32.41-1.123-.17-2.711,1.1-2.394-.656-4.784s-2.391-3.335-4.16-3.335S55.695,81,55.058,80.049a4.868,4.868,0,0,0-3.936-1.6,4.214,4.214,0,0,0-.528.022h-.128c-1.831,0,.89-3.52-.042-3.668s-.467-2.24-1.757-2.391-2.391,0-1.1-.794,1.6-.477.147-2.394c-1.091-1.447-.157-2.346.707-2.346a1.027,1.027,0,0,1,.733.282c.8.794,1.92,2.064,1.28,2.88-.4.5-.547.746-.214.746a5.21,5.21,0,0,0,1.168-.269c1.6-.477,0-1.92-1.6-4.932s-.96-1.6-2.707-3.027-.64-2.711-1.421-3.5,1.6-2.88.15-4.138c1.9.477,2.391.794,2.707,2.24.134.6.608.723,1.181.723.4,0,.842-.058,1.258-.058a1.667,1.667,0,0,1,1.075.285c.96.794-.8.794.784,1.92a2.259,2.259,0,0,0,1.088.506c.451,0,.349-.608.035-1.143-.208-.339-.064-.531.243-.531a2.333,2.333,0,0,1,1.661,1.168c.253.381.442.538.557.538.32,0,.1-1.194-.7-2.125-.563-.64-.483-1-.042-1A3.826,3.826,0,0,1,57.769,58.6a1.651,1.651,0,0,0,.915.534c.6,0,.122-1.52-1.085-2.131-1.6-.794-.96-1.431-.486-3.018s3.047.16,3.52-2.074c.157-.717.512-.906.96-.906s1.072.227,1.616.227a1.27,1.27,0,0,0,1.261-.909,1.953,1.953,0,0,1,1.847-.96c.9,0,1.69.419,1.331,1.114-.218.438-.08.557.275.557.432,0,1.187-.176,2.032-.176a4.212,4.212,0,0,1,1.523.256,2.8,2.8,0,0,0,.96.147c2.016,0,5.12-1.309,5.556-1.309,0,0,.032-.029.042-.026,1.674-2.138.106-3.952.25-5.495s2.394-.8,2.88-3.027-.806-2.205-2.541-3.476a2.643,2.643,0,0,0-1.392-.618Z"/>
      <path id="Path_1111" data-name="Path 1111" class="cls-4" d="M40.417,100.2a17.8,17.8,0,0,1,4.3,2.88c1.347,1.562,2.375,2.88,2.861.806s1.831-.131,1.978,2.419,2.17,1.392,1.853-.515.96-.64,2.858,1.6.32-1.757-.32-2.56-.15-1.427-1.1-3.184a2.493,2.493,0,0,1-.32-1.466Z"/>
      <path id="Path_1112" data-name="Path 1112" class="cls-4" d="M51.56,87.339c.96.96-1.12-.32-3.52-1.757s-1.6.477-4.618-1.111H40.1c-.64.352-1.191.685-1.92.173a1.152,1.152,0,0,0-.368-.173H37.3c-1.069.32-1.8,2.531-2.951,2.4-1.421-.166-1.757,1.431-.486,2.067a3.582,3.582,0,0,1,1.92,3.344c.509-.71,1.392-.544,2.24.054H54.888c.064-.64.394-1.533-.784-2.279-1.757-1.12,1.6-1.12,3.495-1.28s2.394-.64,3.027.477,2.88,3.981,2.73,1.28,1.1-2.394-.656-4.784c-.362-.493-.672-.909-.96-1.28H50.859C50.408,84.974,50.129,85.909,51.56,87.339Z"/>
      <path id="Path_1113" data-name="Path 1113" class="cls-4" d="M57.129,53.909c.336-1.1,1.661-.608,2.6-.931H57.119v.96Z"/>
      <path id="Path_1114" data-name="Path 1114" class="cls-4" d="M78.641,37.856c-1.757-1.28-2.56-.5-1.6,1.722s-6.372-.32-5.569.8-2.56,1.427-4,.477-2.074.157-3.812-.96-1.28.8-3.52-.794-3.84-.32-5.1,1.28-3.027-.16-7.194.819c-1.6.346-1.1-.186-1.571,2.048s-1.437,2.064-3.661.467a2.315,2.315,0,0,0-1.309-.576v9.838H57.122V45.124H78.343a2.98,2.98,0,0,1-.042-.749c.17-1.6,2.394-.8,2.88-3.027S80.375,39.127,78.641,37.856Z"/>
      <path id="Path_1115" data-name="Path 1115" class="cls-4" d="M50.44,74.762c-.96-.157-.467-2.24-1.757-2.391s-2.391,0-1.1-.794,1.6-.477.147-2.394.64-2.858,1.44-2.064,1.92,2.064,1.28,2.88-.64.96.96.477,0-1.92-1.6-4.932-.96-1.6-2.707-3.027a2.605,2.605,0,0,1-1.037-1.658H41.3V76.6h8.846C50.482,75.709,50.885,74.836,50.44,74.762Z"/>
      <path id="Path_1116" data-name="Path 1116" class="cls-4" d="M50.168,84.459H47.585C49.6,85.688,49.093,85.048,50.168,84.459Z"/>
      <path id="Path_1117" data-name="Path 1117" class="cls-4" d="M57.605,56.927a3.707,3.707,0,0,1-.5-.291v1.354a6.952,6.952,0,0,1,.666.534C59.542,60.111,59.206,57.73,57.605,56.927Z"/>
      <path id="Path_1118" data-name="Path 1118" class="cls-4" d="M33.4,52.978V48.472c-.662.061-1.325.109-1.959.186-2.711.32-2.711-.96-4.448,1.28a10.638,10.638,0,0,1-.342,3.05Z"/>
      <path id="Path_1119" data-name="Path 1119" class="cls-4" d="M31.958,75.239c-.522-1.437.461.24,1.437.173V60.847H23.961a3.829,3.829,0,0,1-2.41,2.611c-1.28.32,1.28,1.85-.486,2.327-.038.57-.992,1.261-.093,1.485,1.28.32,3.495,0,3.981,2.391s1.754.96,2.391,3.2c.579,2.032,2.205,2.48,2.973,3.741h1.751a2.5,2.5,0,0,0-.109-1.363Z"/>
      <circle id="Ellipse_209" data-name="Ellipse 209" class="cls-4" cx="6.605" cy="6.605" r="6.605" transform="translate(123.384 30.646)"/>
      <path id="Path_1120" data-name="Path 1120" class="cls-5" d="M102.2,77.342c-.608-1.581-2.173-5.3-3.2-4.56-1.3.931,1.3,5.05,1.3,5.05.074.755-1.389,2.33-2.173,3.114v-.1a.349.349,0,0,1-.035.086l-.067-.035a.435.435,0,0,1-.09.17,1.205,1.205,0,0,0,0-.17c-.15.64-2.778,1.447-2.778,1.447h-.2a4.221,4.221,0,0,1-3.52-1.575,7.809,7.809,0,0,0-1.725-2.01,1.437,1.437,0,0,0-.816-.32,10.529,10.529,0,0,1-4.8-1.651l-.07-.051-.016.048c-.093-.134-.182-.275-.266-.419h0l-.045-.077a3.565,3.565,0,0,0,1.968-3.175v-.077A2.416,2.416,0,0,0,86,71.821V71.4l.554-.5a2.24,2.24,0,0,0,.64-.774.9.9,0,0,0,.067-.4A.685.685,0,0,0,87,69.11c-.426-.294-1.136,0-1.447-.41-.141-.186-.115-.438-.186-.64a1.162,1.162,0,0,0-1.127-.688,4.727,4.727,0,0,0-1.383.294,8.215,8.215,0,0,1-2.941.275,1.92,1.92,0,0,0-.806.029,1.1,1.1,0,0,0-.64.758,1.8,1.8,0,0,0-.061.4,2.445,2.445,0,0,0-.618,1.619V71.84a2.445,2.445,0,0,0,.589,1.6,3.549,3.549,0,0,0,1.488,2.592v.086h.019a5.914,5.914,0,0,1-.157,1v-.07a10.3,10.3,0,0,1-4.122,1.082h-.234a1.6,1.6,0,0,0-1.136.429c-.64.592-1.738,1.533-2.416,1.533-.144,0-3.728.7-4.324.816l-1.111-1.088-.032.064-.067-.064a2.818,2.818,0,0,0-.362.054,8.641,8.641,0,0,1-1.968-4.352s2.455-2.794,1.552-5.4c-.768-2.221-2.88,2.538-3.495,3.972a1.13,1.13,0,0,0-.035.787l1.994,6.426a3.034,3.034,0,0,0-.157,1.565h-.026l1.453,1.863a7.655,7.655,0,0,0,2.8.458,9.822,9.822,0,0,0,3.658-.71h.336l-.064.022h1.731l1.1,3.328a37.677,37.677,0,0,1-1,5.473,2.391,2.391,0,0,0-.166,1,7.53,7.53,0,0,0,.32,1.92l.96-.035-.035.077a49.986,49.986,0,0,0-2.986,7.437l-1.4,2.864,1.05,12.747h.125l.509.07-.083.144-2.317,3.84s-1.651,3.386,2,2.746c0,0,1.351-.39,1.92-2.7l2.4-2.256s.112-1.5-.57-2.1a16.334,16.334,0,0,1,.016-3.2c.2-.586-.851-7.361-.851-7.361s3.805-7.9,6.109-8.09a1.258,1.258,0,0,1,.5.064c1.895.618,4.189,5.2,4.864,6.621h0l.032.067h0l.026.054h0l.022.048h0l.019.045h0l.016.035h0v.029h0v.045h0v.019l.3,8.874h.029l-.026.186-.131.915s1.651,3.482,1.552,3.924a2.315,2.315,0,0,0,2.8,1.715c1.7-.49.7-3.162.7-3.162l-1.639-3.38-.074-.15a3.2,3.2,0,0,0,.461-.342s-.5-3.626,0-4.413.64-4.362.64-4.362a13.589,13.589,0,0,0-.96-3.52l-2.487-9a2.756,2.756,0,0,0,1.831.96h.083A1.242,1.242,0,0,0,90,95.535a1.633,1.633,0,0,0,.285-.2l.048-.048h0c.7-.589-.8-2.88-1.651-4.263s.32-4.912.394-5.178a1.249,1.249,0,0,1,.243-.144,1.581,1.581,0,0,1,.557-.122c.816.029,1.818.5,3.059.736a14.6,14.6,0,0,0,2.615.2h.97a1.527,1.527,0,0,0,.669-.182h0a1.948,1.948,0,0,0,.474-.384l2.179-2.461-.054.026a1.219,1.219,0,0,0,0-.864l2.3-3.981a1.527,1.527,0,0,0,.112-1.328Z"/>
      <path id="Path_1121" data-name="Path 1121" class="cls-6" d="M76.321,120.824,74,123.048c-.534,2.272-1.84,2.656-1.84,2.656-3.52.64-1.92-2.7-1.92-2.7l2.24-3.789.278-.467a5.985,5.985,0,0,1,2.656-.192.9.9,0,0,1,.365.2C76.43,119.333,76.321,120.824,76.321,120.824Z"/>
      <path id="Path_1122" data-name="Path 1122" class="cls-6" d="M90.629,122.805a2.226,2.226,0,0,1-2.7-1.693c.1-.438-1.5-3.863-1.5-3.863l.125-.9.115-.838,2.7.2.253.534,1.587,3.332S92.274,122.322,90.629,122.805Z"/>
      <path id="Path_1123" data-name="Path 1123" class="cls-7" d="M75.789,119.131c-.256.438-2.317.218-3.322.08l.275-.467a6,6,0,0,1,2.659-.192.867.867,0,0,1,.362.2C75.777,118.984,75.789,119.131,75.789,119.131Z"/>
      <path id="Path_1124" data-name="Path 1124" class="cls-7" d="M89.624,116.235a3.121,3.121,0,0,1-3.075.109l.115-.835,2.7.192Z"/>
      <path id="Path_1125" data-name="Path 1125" class="cls-8" d="M90,111.4c-.48.774,0,4.352,0,4.352a3.084,3.084,0,0,1-3.479.387l-.285-8.75s-3.143-7.217-5.364-7.012-5.9,7.978-5.9,7.978,1.014,6.669.819,7.245a19.3,19.3,0,0,0,0,3.386c-.336.579-3.866,0-3.866,0l-1.014-12.571,1.347-2.8a49.746,49.746,0,0,1,2.88-7.335c.39-.819.64-1.319.64-1.319l2.56-.538,8.35-1.728,3,10.919a14.1,14.1,0,0,1,.918,3.479S90.482,110.625,90,111.4Z"/>
      <g id="Group_198" data-name="Group 198" class="cls-9">
        <path id="Path_1126" data-name="Path 1126" d="M87.295,116.136l-.285-8.75s-3.143-7.2-5.367-7.012a1.133,1.133,0,0,0-.291.067c2.17.72,4.884,6.945,4.884,6.945l.285,8.75a3.443,3.443,0,0,0,1.92.352,3.521,3.521,0,0,1-1.146-.352Z"/>
        <path id="Path_1127" data-name="Path 1127" d="M72.695,118.987l-1.008-12.571,1.354-2.807a49.744,49.744,0,0,1,2.88-7.335c.39-.819.64-1.319.64-1.319l2.56-.538,7.623-1.584-.042-.15-8.34,1.725-2.56.538s-.262.5-.64,1.319a49.535,49.535,0,0,0-2.88,7.335l-1.354,2.8,1.014,12.568a18.328,18.328,0,0,0,3.069.25A22.42,22.42,0,0,1,72.695,118.987Z"/>
      </g>
      <path id="Path_1128" data-name="Path 1128" class="cls-10" d="M66.816,80.049a2.508,2.508,0,0,0-2.368,3.043l.771.1,1.162-1.258.579-1.062v-.243Z"/>
      <path id="Path_1129" data-name="Path 1129" class="cls-7" d="M66.816,80.049a2.508,2.508,0,0,0-2.368,3.043l.771.1,1.162-1.258.579-1.062v-.243Z"/>
      <path id="Path_1130" data-name="Path 1130" class="cls-10" d="M97.468,81.112s2.275,1.207,1.693,2.611L98.438,84l-.96-.531-.144-1.255.1-.87Z"/>
      <path id="Path_1131" data-name="Path 1131" class="cls-7" d="M97.468,81.112s2.275,1.207,1.693,2.611L98.438,84l-.96-.531-.144-1.255.1-.87Z"/>
      <path id="Path_1132" data-name="Path 1132" class="cls-11" d="M80.936,68.64h1.92a3,3,0,0,1,3,3h0a3,3,0,0,1-3,3h-1.92a3,3,0,0,1-3-3h0A3,3,0,0,1,80.936,68.64Z"/>
      <path id="Path_1133" data-name="Path 1133" class="cls-12" d="M66.8,80.459,65.1,83.16l-.141-.48-2.3-7.492a1.159,1.159,0,0,1,.038-.778C63.28,73,65.328,68.3,66.073,70.5c.867,2.56-1.5,5.316-1.5,5.316A8.548,8.548,0,0,0,66.6,80.238C66.72,80.385,66.8,80.459,66.8,80.459Z"/>
      <path id="Path_1134" data-name="Path 1134" class="cls-12" d="M97.107,81.608s2.659-2.512,2.56-3.52c0,0-2.512-4.061-1.255-4.973,1-.73,2.506,2.938,3.091,4.5a1.52,1.52,0,0,1-.1,1.28l-3.178,5.626Z"/>
      <path id="Path_1135" data-name="Path 1135" class="cls-12" d="M79.9,74.609s.483,3.095-.918,4.256,4.013,1.152,4.013,1.152l1.936-1.789s-2.224-2.077-1.549-3.623Z"/>
      <path id="Path_1136" data-name="Path 1136" class="cls-7" d="M79.8,78.138a3.393,3.393,0,0,0,4.16-.192l3.383,7.009-.192,8.558s-7.012,3.623-9.921,1.4-.477-3.386-.477-3.386l-.675-6.573L76.8,80.7s1.306-2.029,1.4-2.029S79.8,78.138,79.8,78.138Z"/>
      <path id="Path_1137" data-name="Path 1137" class="cls-13" d="M79.8,78.042a3.39,3.39,0,0,0,4.16-.2l3.386,7.012-.2,8.554s-7.009,3.626-9.921,1.4-.483-3.386-.483-3.386l-.678-6.573.739-4.253s1.3-2.032,1.4-2.032S79.8,78.042,79.8,78.042Z"/>
      <path id="Path_1138" data-name="Path 1138" class="cls-7" d="M79.8,77.319a8.948,8.948,0,0,1-4.109,1.066A1.514,1.514,0,0,0,74.6,78.8c-.608.586-1.677,1.511-2.336,1.511-.144,0-4.256.822-4.256.822l-1.088-1.088S65.3,83.217,64.524,83.07l1.4,1.837a8.439,8.439,0,0,0,6.138-.24H74.1l1.063,3.287a39.035,39.035,0,0,1-.96,5.415,5.457,5.457,0,0,0,.141,2.851l3.818-.141a6.979,6.979,0,0,1,.483-2.131c.288-.243-1.014-8.558-1.014-8.558s-.867-4.688,2.323-6.381Z"/>
      <path id="Path_1139" data-name="Path 1139" class="cls-7" d="M78.359,94.425a12.335,12.335,0,0,0-.3,1.744l-2.925.112c.39-.822.64-1.322.64-1.322Z"/>
      <path id="Path_1140" data-name="Path 1140" class="cls-7" d="M66.8,80.459,65.1,83.16l-.141-.48A12.983,12.983,0,0,0,66.6,80.235a2.37,2.37,0,0,0,.2.224Z"/>
      <path id="Path_1141" data-name="Path 1141" class="cls-14" d="M79.8,77.319a9.575,9.575,0,0,1-4.208,1.066A1.511,1.511,0,0,0,74.5,78.8c-.611.586-1.677,1.511-2.339,1.511-.141,0-4.253.822-4.253.822l-1.091-1.088S65.2,83.214,64.422,83.07l1.4,1.837a8.466,8.466,0,0,0,6.141-.24h2.029l1.063,3.284a39.034,39.034,0,0,1-.96,5.415,5.447,5.447,0,0,0,.144,2.851l3.818-.141a6.885,6.885,0,0,1,.483-2.131c.291-.243-1.014-8.558-1.014-8.558s-.87-4.688,2.32-6.381Z"/>
      <path id="Path_1142" data-name="Path 1142" class="cls-7" d="M83.957,77.025A9.415,9.415,0,0,0,88.565,78.7a1.392,1.392,0,0,1,.787.32,7.636,7.636,0,0,1,1.664,1.987c1.063,1.741,3.674,1.549,3.674,1.549s2.538-.8,2.682-1.421c0,0,.074,3.412,1.667,2.586l-2.1,2.419a1.488,1.488,0,0,1-1.059.509,15.53,15.53,0,0,1-3.315-.182c-1.741-.339-3-1.159-3.914-.435,0,0-1.21,3.77-.387,5.12s2.272,3.626,1.6,4.208-1.5.531-2.851-.87a6.757,6.757,0,0,1-1.5-3.77l.336-6.081s-1.3-4.592-2.56-5.511Z"/>
      <path id="Path_1143" data-name="Path 1143" class="cls-14" d="M99.232,83.649l-2.1,2.439a1.478,1.478,0,0,1-.509.378h0a1.472,1.472,0,0,1-.547.128,15.121,15.121,0,0,1-3.316-.182c-1.629-.32-2.832-1.056-3.735-.557a1.391,1.391,0,0,0-.182.122s-1.207,3.77-.387,5.12,2.275,3.626,1.6,4.205a1.479,1.479,0,0,1-.378.246c-.608.275-1.363.038-2.474-1.114a6.78,6.78,0,0,1-1.5-3.77l.339-6.081s-1.306-4.592-2.56-5.511l.554-1.981a10.049,10.049,0,0,0,4.631,1.629,1.427,1.427,0,0,1,.79.32,7.713,7.713,0,0,1,1.664,1.991c1.063,1.741,3.671,1.549,3.671,1.549a14.349,14.349,0,0,0,1.831-.73h0a2.8,2.8,0,0,0,.851-.566.413.413,0,0,0,.093-.173S97.638,84.488,99.232,83.649Z"/>
      <path id="Path_1144" data-name="Path 1144" class="cls-7" d="M83.422,74.682H79.867a8.449,8.449,0,0,1,.067,1.706,3.652,3.652,0,0,0,3.754.269A2.265,2.265,0,0,1,83.422,74.682Z"/>
      <circle id="Ellipse_210" data-name="Ellipse 210" class="cls-12" cx="3.53" cy="3.53" r="3.53" transform="translate(78.494 69.92)"/>
      <path id="Path_1145" data-name="Path 1145" class="cls-7" d="M81.288,72.82a3.77,3.77,0,0,1,1.175-.106c.352.07.64.32,1,.387a2.261,2.261,0,0,0,1.824-.826L86.4,71.267a2.288,2.288,0,0,0,.64-.765.768.768,0,0,0-.189-.9c-.406-.285-1.1,0-1.4-.4a2.221,2.221,0,0,1-.182-.64,1.126,1.126,0,0,0-1.088-.675,4.8,4.8,0,0,0-1.331.282,7.617,7.617,0,0,1-2.842.272,1.821,1.821,0,0,0-.778.029,1.085,1.085,0,0,0-.64.749,4.352,4.352,0,0,0,.528,2.711A2.277,2.277,0,0,0,81.288,72.82Z"/>
      <path id="Path_1146" data-name="Path 1146" class="cls-11" d="M81.288,72.724a3.872,3.872,0,0,1,1.175-.109c.352.074.64.32,1,.39a2.261,2.261,0,0,0,1.824-.826L86.4,71.171a2.288,2.288,0,0,0,.64-.765.768.768,0,0,0-.189-.9c-.406-.285-1.1,0-1.4-.406a2.173,2.173,0,0,1-.182-.64,1.13,1.13,0,0,0-1.088-.678,4.925,4.925,0,0,0-1.331.285,7.617,7.617,0,0,1-2.842.272,1.773,1.773,0,0,0-.778.029,1.085,1.085,0,0,0-.64.749,4.352,4.352,0,0,0,.528,2.711A2.292,2.292,0,0,0,81.288,72.724Z"/>
      <path id="Path_1147" data-name="Path 1147" class="cls-7" d="M75.137,87.976a1.991,1.991,0,0,1,1.159.579,2.1,2.1,0,0,0,1.063.64"/>
      <path id="Path_1148" data-name="Path 1148" class="cls-7" d="M68.166,81.608s.64,1.408.243,1.549-.243,1.162-.243,1.162"/>
      <g id="Group_199" data-name="Group 199" class="cls-9">
        <path id="Path_1149" data-name="Path 1149" d="M68.39,81.112s4.109-.822,4.25-.822c.662,0,1.728-.925,2.339-1.511a1.478,1.478,0,0,1,.662-.368h-.054a1.52,1.52,0,0,0-1.091.416c-.611.586-1.677,1.514-2.336,1.514-.115,0-2.746.522-3.812.733Z"/>
        <path id="Path_1150" data-name="Path 1150" d="M79.806,77.521v-.179a10.3,10.3,0,0,1-3.149,1.008,9.777,9.777,0,0,0,3.149-.829Z"/>
        <path id="Path_1151" data-name="Path 1151" d="M74.724,96.195a5.367,5.367,0,0,1-.141-2.855,37.6,37.6,0,0,0,.96-5.412l-1.059-3.287H72.445l-.122.048h1.671l1.056,3.287a39.035,39.035,0,0,1-.96,5.415,5.447,5.447,0,0,0,.144,2.851l3.818-.141V96.07Z"/>
      </g>
      <g id="Group_200" data-name="Group 200" class="cls-9">
        <path id="Path_1152" data-name="Path 1152" d="M90,94.575a1.939,1.939,0,0,1-.282.2c-.64.342-1.4.141-2.56-1.069a6.511,6.511,0,0,1-1.469-3.5l-.029.5a6.731,6.731,0,0,0,1.5,3.77c1.175,1.213,1.946,1.411,2.56,1.066a1.546,1.546,0,0,0,.282-.2c.2-.173.218-.5.109-.912A.39.39,0,0,1,90,94.575Z"/>
        <path id="Path_1153" data-name="Path 1153" d="M98.454,83.771l-1.37,1.581a1.408,1.408,0,0,1-.41.32h0a1.469,1.469,0,0,1-.64.179,15.361,15.361,0,0,1-3.315-.186c-1.571-.3-2.749-1-3.639-.6a1.52,1.52,0,0,0-.285.17,13.771,13.771,0,0,0-.662,4.1,16.107,16.107,0,0,1,.659-3.322,1.35,1.35,0,0,1,.285-.166c.89-.4,2.067.3,3.639.6a15.531,15.531,0,0,0,3.316.182,1.511,1.511,0,0,0,.64-.176h0a1.5,1.5,0,0,0,.41-.32l2.106-2.429A.832.832,0,0,1,98.454,83.771Z"/>
      </g>
      <path id="Path_1154" data-name="Path 1154" class="cls-15" d="M135.113,63.4h0v-.038a.1.1,0,0,0,0-.054h-.022v-.118c-.058-1.319-1.879-4.122-2.608-3.3-.64.72.32,2.538.816,3.357l.045.074h-.026s-2.032,6.065-2.272,6.3-1.92,5.005-4.122,5.543c-.435.1-.8.2-1.1.285l.026-.083a8.8,8.8,0,0,0,.387-1.421,1.842,1.842,0,0,0-.262-1.4c-.128-.125-.282-.141-.387-.339a1.542,1.542,0,0,1-.109-.547l-.189-2.3.131-.038a2.217,2.217,0,0,0,1.645-1.661l-.083.029a1.134,1.134,0,0,0,.026-.144c-.666.262-1.28-.426-1.92-.733-1.053-.518-2.256-.032-3.341.086-1.232.134-2.4-.378-3.661-.285-.685.054-1.447.518-1.411,1.194a4.783,4.783,0,0,0,.394,1.04c.272.861-.336,1.722-.867,2.455a3.645,3.645,0,0,0-.742,1.635,15.266,15.266,0,0,1-2.7-3.312l-3.54-6.065s-.083.09-.221.221c-.019-.067-.045-.144-.074-.221-.451-1.264-1.731-4.333-3.354-3.77s.672,3.706,1.671,4.96l.144.173a.451.451,0,0,1-.253,0l3.924,6.733a5.218,5.218,0,0,0,1.376,1.648s4.9,6.183,4.964,7.418,2.205,4.535,2.205,4.535.717,5.357-.538,6.3h.208c-.061.058-.122.122-.186.192-.928,1.03-2.119,3.242-.493,7a40.146,40.146,0,0,1,2.752,7.713s-4.548.237-5.441.413c-.794.157-3.876.266-4.58.285a1.257,1.257,0,0,0-2,0c-1.255,1.178-2.151,5.12-2.151,5.12s-.48,3.181,1.136,2.355c0,0,1.92-2.65,2.451-2.768.266-.058.55-.451.765-.829h0s.064-.029.15-.064h0a4.608,4.608,0,0,1,2.355-.349,43.35,43.35,0,0,0,4.631.125c-.48,1.149-1.341,4.119-1.341,4.119s-.358,2.771.835,2.656c.851-.083,2.16-2.263,2.842-3.5.493-.362,1.92-1.661,2.957-1.565l7.079-2.695s1.674-.941.778-4.064c-.71-2.48-2.733-7.559-3.52-9.537h0l-.026-.051c-.192-.48-.32-.765-.32-.765h0a11.816,11.816,0,0,1-.64-2.8l-.019-.227a1.338,1.338,0,0,0,.278-.16s-.659-6.653,0-7.361h0v-.016h0l.026-.032h0l.032-.038h0l.125-.176h0a4.877,4.877,0,0,0,.877-3.3h0a1.3,1.3,0,0,0-.029-.2h0a4.215,4.215,0,0,0-.41-1.155,3.091,3.091,0,0,1-.054-.454v-.4a1.382,1.382,0,0,1,.022-.2v-.026a.234.234,0,0,1,0-.08V78.7a.32.32,0,0,1,0-.077v-.026l.029-.1v-.019l.029-.083v-.032l.029-.067v-.035l.038-.077v-.022c.016-.032.035-.061.054-.093l.016-.022.045-.067.026-.029.048-.061.022-.026.08-.08c.778-.71,4.247-5.946,4.247-5.946a4.691,4.691,0,0,0,.835-1.943C133.772,69.834,135.261,64.905,135.113,63.4ZM125.8,107.421c-.086-.806-.17-1.8-.25-2.842l1.354,2.109s-.128.643-1.1.733Z"/>
      <path id="Path_1155" data-name="Path 1155" class="cls-6" d="M111.69,106.976a1.223,1.223,0,0,0-2.026-.115c-1.216,1.165-2.083,5.034-2.083,5.034s-.464,3.127,1.1,2.317c0,0,1.847-2.605,2.371-2.72s1.1-1.565,1.1-1.565Z"/>
      <path id="Path_1156" data-name="Path 1156" class="cls-16" d="M120.376,110.09s-1.1-.522-1.447-.115a37.156,37.156,0,0,0-1.5,4.458s-.349,2.663.81,2.56,3.181-4.288,3.181-4.288Z"/>
      <path id="Path_1157" data-name="Path 1157" class="cls-6" d="M120.376,110.09s-1.1-.522-1.447-.115a37.156,37.156,0,0,0-1.5,4.458s-.349,2.663.81,2.56,3.181-4.288,3.181-4.288Z"/>
      <path id="Path_1158" data-name="Path 1158" class="cls-17" d="M124.2,102.23l2.487,3.879s-.173.867-1.677.694l-5.152,3.242s-.448,3.946.982,3.588c.234-.058,1.847-1.738,3.011-1.619l6.829-2.663s1.619-.928.752-3.994-3.738-10.177-3.738-10.177l-4.538,2.538Z"/>
      <path id="Path_1159" data-name="Path 1159" class="cls-8" d="M124.2,102.23l2.487,3.879s-.173.867-1.677.694l-5.152,3.242s-.448,3.946.982,3.588c.234-.058,1.847-1.738,3.011-1.619l6.829-2.663s1.619-.928.752-3.994-3.738-10.177-3.738-10.177l-4.538,2.538Z"/>
      <path id="Path_1160" data-name="Path 1160" class="cls-8" d="M125.772,107.959a1.868,1.868,0,0,1-1.619,2.375s-8.858.173-9.9-.058a4.726,4.726,0,0,0-2.432.4c-1.8-1.1-.346-3.818-.346-3.818s3.7-.115,4.573-.285,5.242-.41,5.242-.41a39.248,39.248,0,0,0-2.663-7.582c-1.571-3.7-.426-5.869.48-6.884a3.841,3.841,0,0,1,.794-.7l7.121.346a9.281,9.281,0,0,0,.038,1.075,11.428,11.428,0,0,0,.96,3.556c-.406,0-3.011,2.429-3.011,2.429S125.41,105.76,125.772,107.959Z"/>
      <path id="Path_1161" data-name="Path 1161" class="cls-7" d="M111.982,107.092s3.706-.115,4.573-.285,5.268-.4,5.268-.4a39.158,39.158,0,0,0-2.663-7.582c-1.575-3.7-.426-5.869.477-6.884a3.841,3.841,0,0,1,.8-.7l6.6.32v-.2l-7.121-.349a3.841,3.841,0,0,0-.794.7c-.9,1.014-2.051,3.2-.48,6.881a38.9,38.9,0,0,1,2.666,7.578s-4.4.23-5.264.4-4.573.285-4.573.285-1.447,2.723.346,3.84l.144-.064C110.759,109.393,111.982,107.092,111.982,107.092Z"/>
      <rect id="Rectangle_436" data-name="Rectangle 436" class="cls-11" width="3.588" height="9.086" transform="translate(118.987 69.76)"/>
      <rect id="Rectangle_437" data-name="Rectangle 437" class="cls-7" width="3.588" height="9.086" transform="translate(118.987 69.76)"/>
      <path id="Path_1162" data-name="Path 1162" class="cls-11" d="M124.626,68.426c.125.035.262.038.346.211a1.2,1.2,0,0,1,.086.426l.224,2.807a1.53,1.53,0,0,0,.106.538c.1.192.253.214.378.336a1.87,1.87,0,0,1,.253,1.37,9.38,9.38,0,0,1-.374,1.4,13.39,13.39,0,0,1-.6,1.939c-.269.55-.765.851-1.082.387a5.356,5.356,0,0,1-.336-2.163c-.1-1.28-.6-2.381-.64-3.668a14.57,14.57,0,0,1,.426-3,20.748,20.748,0,0,1,.32-2.112C123.89,67.616,124.172,68.3,124.626,68.426Z"/>
      <path id="Path_1163" data-name="Path 1163" class="cls-7" d="M124.626,68.426c.125.035.262.038.346.211a1.2,1.2,0,0,1,.086.426l.224,2.807a1.53,1.53,0,0,0,.106.538c.1.192.253.214.378.336a1.87,1.87,0,0,1,.253,1.37,9.38,9.38,0,0,1-.374,1.4,13.39,13.39,0,0,1-.6,1.939c-.269.55-.765.851-1.082.387a5.356,5.356,0,0,1-.336-2.163c-.1-1.28-.6-2.381-.64-3.668a14.57,14.57,0,0,1,.426-3,20.748,20.748,0,0,1,.32-2.112C123.89,67.616,124.172,68.3,124.626,68.426Z"/>
      <path id="Path_1164" data-name="Path 1164" class="cls-12" d="M109.45,64.435l-1.4,1.171s-.166-.192-.41-.506c-.96-1.232-3.184-4.324-1.6-4.877s2.807,2.461,3.242,3.706C109.377,64.233,109.45,64.435,109.45,64.435Z"/>
      <path id="Path_1165" data-name="Path 1165" class="cls-12" d="M134.5,64.032c-.579.867-1.389,0-1.389,0s-.1-.157-.25-.406c-.477-.806-1.411-2.592-.79-3.3.71-.81,2.471,1.952,2.525,3.245A.8.8,0,0,1,134.5,64.032Z"/>
      <path id="Path_1166" data-name="Path 1166" class="cls-12" d="M120.261,73.405s1.155,3.706.81,4.8,2.49,2.378,2.49,2.378H126.8s1.159-2.371.87-3.069-2.778-1.213-2.778-1.213-1.447,0-1.389-3.879Z"/>
      <path id="Path_1167" data-name="Path 1167" class="cls-7" d="M109.45,64.435l-1.4,1.171s-.166-.192-.41-.506a4.565,4.565,0,0,0,1.629-1.171C109.377,64.233,109.45,64.435,109.45,64.435Z"/>
      <path id="Path_1168" data-name="Path 1168" class="cls-7" d="M134.5,64.032c-.579.867-1.389,0-1.389,0s-.1-.157-.25-.406l.019-.058c.374.269,1.539.038,1.715,0a.784.784,0,0,1-.1.464Z"/>
      <path id="Path_1169" data-name="Path 1169" class="cls-7" d="M127.068,92.425c-1.789.816-7.607-.64-7.956-.723a3.77,3.77,0,0,1,.794-.7l7.121.346a9.318,9.318,0,0,0,.042,1.079Z"/>
      <path id="Path_1170" data-name="Path 1170" class="cls-14" d="M121.013,76.59s-1.389.464-3.357-1.331c0,0-4.407-4.343-4.688-5.383l-3.412-5.969s-1.447,1.562-2.026,1.331l3.818,6.657a5.055,5.055,0,0,0,1.331,1.619s4.749,6.081,4.8,7.293,2.141,4.48,2.141,4.48.694,5.268-.522,6.2c0,0,6.769,1.735,8.218.576,0,0-.64-6.535,0-7.233a4.626,4.626,0,0,0,.64-4.861,2.531,2.531,0,0,1,.464-2.083c.746-.694,4.109-5.847,4.109-5.847a4.642,4.642,0,0,0,.81-1.92s1.507-5.092,1.28-6.423c0,0-1.331.282-1.738,0,0,0-1.968,5.969-2.2,6.193s-1.847,4.919-3.994,5.441a10.98,10.98,0,0,0-2.487.752s4.16,2.605,2.141,3.76S121.013,76.59,121.013,76.59Z"/>
      <path id="Path_1171" data-name="Path 1171" class="cls-7" d="M123.644,74.3a10.879,10.879,0,0,1-.083-1.645l-3.229.982a4.428,4.428,0,0,1,.2.666,3.863,3.863,0,0,0,1.3.55,2.951,2.951,0,0,0,1.808-.554Z"/>
      <circle id="Ellipse_211" data-name="Ellipse 211" class="cls-12" cx="3.008" cy="3.008" r="3.008" transform="translate(118.757 68.662)"/>
      <path id="Path_1172" data-name="Path 1172" class="cls-7" d="M118.184,67.033c-.662.051-1.4.509-1.367,1.171a4.612,4.612,0,0,0,.381,1.024c.262.845-.32,1.693-.838,2.416s-.992,1.677-.554,2.442a6.653,6.653,0,0,0,.406.531,7.518,7.518,0,0,1,.781,2.608,4.576,4.576,0,0,0,5.376,3.268,2.858,2.858,0,0,1-.6-1.936,3.346,3.346,0,0,0,0-1.5c-.253-.6-1-.838-1.376-1.363a2.183,2.183,0,0,1-.173-1.882c.186-.627.506-1.21.659-1.847a5.394,5.394,0,0,1,.141-.554,2.474,2.474,0,0,1,1.847-1.389c.781-.189,1.6-.2,2.368-.448a2.169,2.169,0,0,0,1.6-1.632c-.64.256-1.239-.413-1.859-.723-1.021-.506-2.183-.029-3.235.09C120.533,67.44,119.4,66.944,118.184,67.033Z"/>
      <path id="Path_1173" data-name="Path 1173" class="cls-11" d="M118.126,66.918c-.662.051-1.4.509-1.367,1.171a4.459,4.459,0,0,0,.381,1.024c.262.845-.32,1.693-.838,2.416s-1,1.677-.554,2.442a5.979,5.979,0,0,0,.422.531,7.446,7.446,0,0,1,.778,2.608,4.58,4.58,0,0,0,5.38,3.268,2.858,2.858,0,0,1-.6-1.92,3.346,3.346,0,0,0,0-1.5c-.253-.6-1-.838-1.376-1.363a2.183,2.183,0,0,1-.173-1.882c.186-.627.506-1.21.659-1.847a4.675,4.675,0,0,1,.141-.554,2.469,2.469,0,0,1,1.847-1.389c.781-.189,1.6-.2,2.368-.448a2.174,2.174,0,0,0,1.6-1.632c-.64.256-1.235-.413-1.856-.723-1.021-.506-2.186-.029-3.235.09C120.475,67.325,119.346,66.822,118.126,66.918Z"/>
      <path id="Path_1174" data-name="Path 1174" class="cls-7" d="M124.744,78.356a9.692,9.692,0,0,1,1.443,1.549"/>
      <path id="Path_1175" data-name="Path 1175" class="cls-7" d="M127.353,84.779a12.757,12.757,0,0,0-2.2.176,10.389,10.389,0,0,1-2.375,0"/>
      <g id="Group_201" data-name="Group 201" class="cls-9">
        <path id="Path_1176" data-name="Path 1176" d="M126.338,79.831a1.533,1.533,0,0,1-.416.16,1.6,1.6,0,0,0,1.111-.16c2.026-1.159-2.141-3.764-2.141-3.764h-.7S128.364,78.673,126.338,79.831Z"/>
        <path id="Path_1177" data-name="Path 1177" d="M134.627,63.788a.56.56,0,0,0,0-.106,6.211,6.211,0,0,1-.72.109A3.12,3.12,0,0,0,134.627,63.788Z"/>
        <path id="Path_1178" data-name="Path 1178" d="M119.8,91.465c1.216-.925.522-6.193.522-6.193s-2.083-3.242-2.141-4.455-4.8-7.293-4.8-7.293a5.112,5.112,0,0,1-1.331-1.619s-3.94-6.426-4.516-6.657l3.821,6.657a5.055,5.055,0,0,0,1.331,1.619s4.746,6.081,4.8,7.293,2.141,4.458,2.141,4.458.694,5.268-.522,6.2a30.362,30.362,0,0,0,6.657.96A34.3,34.3,0,0,1,119.8,91.465Z"/>
        <path id="Path_1179" data-name="Path 1179" d="M121.048,76.634l-.035-.045a.838.838,0,0,1-.122.029Z"/>
      </g>
      <g id="Group_202" data-name="Group 202" class="cls-9">
        <path id="Path_1180" data-name="Path 1180" d="M134.614,63.686h-.035a37.57,37.57,0,0,1-1.28,5.956,4.708,4.708,0,0,1-.81,1.92s-3.357,5.149-4.109,5.844a2.506,2.506,0,0,0-.464,2.083h0a2.1,2.1,0,0,1,.515-1.635c.752-.694,4.109-5.847,4.109-5.847a4.642,4.642,0,0,0,.81-1.92C133.34,70.109,134.845,65.014,134.614,63.686Z"/>
        <path id="Path_1181" data-name="Path 1181" d="M127.263,84.347c.086.49.029-.029.058.461a4.9,4.9,0,0,0,1.034-3.725,5.06,5.06,0,0,1-1.091,3.264Z"/>
      </g>
      <ellipse id="Ellipse_212" data-name="Ellipse 212" class="cls-3" cx="60.774" cy="5.837" rx="60.774" ry="5.837" transform="translate(22.652 131.263)"/>
      <path id="Path_1182" data-name="Path 1182" class="cls-18" d="M61.164,131.177s-2.067-7.041.39-12.2a11.086,11.086,0,0,0,.9-6.961,18.51,18.51,0,0,0-.986-3.271"/>
      <path id="Path_1183" data-name="Path 1183" class="cls-4" d="M63,105.482c0,.861-1.565,3.357-1.565,3.357s-1.562-2.5-1.562-3.357a1.563,1.563,0,0,1,3.117-.23,1.385,1.385,0,0,1,0,.23Z"/>
      <path id="Path_1184" data-name="Path 1184" class="cls-4" d="M65.571,110.25c-.467.723-3.133,1.971-3.133,1.971s.048-2.944.515-3.668a1.565,1.565,0,1,1,2.736,1.514,1.372,1.372,0,0,1-.118.182Z"/>
      <path id="Path_1185" data-name="Path 1185" class="cls-4" d="M65.459,118.411c-.768.387-3.7.118-3.7.118s1.53-2.519,2.3-2.906a1.565,1.565,0,0,1,1.6,2.682,1.747,1.747,0,0,1-.2.1Z"/>
      <path id="Path_1186" data-name="Path 1186" class="cls-4" d="M63.984,124.549c-.691.512-3.626.746-3.626.746s1.078-2.739,1.773-3.252a1.562,1.562,0,0,1,1.847,2.506Z"/>
      <path id="Path_1187" data-name="Path 1187" class="cls-4" d="M59.161,112.388c.618.6,3.495,1.223,3.495,1.223s-.71-2.858-1.322-3.46A1.565,1.565,0,0,0,59,112.234,1.459,1.459,0,0,0,59.161,112.388Z"/>
      <path id="Path_1188" data-name="Path 1188" class="cls-4" d="M57.529,119.6c.771.39,3.7.122,3.7.122s-1.523-2.519-2.291-2.9a1.565,1.565,0,0,0-1.4,2.784Z"/>
      <path id="Path_1189" data-name="Path 1189" class="cls-4" d="M56.9,126.831c.691.512,3.629.742,3.629.742s-1.082-2.739-1.773-3.252a1.565,1.565,0,0,0-2.074,2.343,1.816,1.816,0,0,0,.224.163Z"/>
      <path id="Path_1190" data-name="Path 1190" class="cls-3" d="M63,105.482c0,.861-1.565,3.357-1.565,3.357s-1.562-2.5-1.562-3.357a1.563,1.563,0,0,1,3.117-.23,1.385,1.385,0,0,1,0,.23Z"/>
      <path id="Path_1191" data-name="Path 1191" class="cls-3" d="M65.571,110.25c-.467.723-3.133,1.971-3.133,1.971s.048-2.944.515-3.668a1.565,1.565,0,1,1,2.736,1.514,1.372,1.372,0,0,1-.118.182Z"/>
      <path id="Path_1192" data-name="Path 1192" class="cls-3" d="M65.459,118.411c-.768.387-3.7.118-3.7.118s1.53-2.519,2.3-2.906a1.565,1.565,0,0,1,1.6,2.682,1.747,1.747,0,0,1-.2.1Z"/>
      <path id="Path_1193" data-name="Path 1193" class="cls-3" d="M63.984,124.549c-.691.512-3.626.746-3.626.746s1.078-2.739,1.773-3.252a1.562,1.562,0,0,1,1.847,2.506Z"/>
      <path id="Path_1194" data-name="Path 1194" class="cls-3" d="M59.161,112.388c.618.6,3.495,1.223,3.495,1.223s-.71-2.858-1.322-3.46A1.565,1.565,0,0,0,59,112.234,1.459,1.459,0,0,0,59.161,112.388Z"/>
      <path id="Path_1195" data-name="Path 1195" class="cls-3" d="M57.529,119.6c.771.39,3.7.122,3.7.122s-1.523-2.519-2.291-2.9a1.565,1.565,0,0,0-1.4,2.784Z"/>
      <path id="Path_1196" data-name="Path 1196" class="cls-3" d="M56.9,126.831c.691.512,3.629.742,3.629.742s-1.082-2.739-1.773-3.252a1.565,1.565,0,0,0-2.074,2.343,1.816,1.816,0,0,0,.224.163Z"/>
      <path id="Path_1197" data-name="Path 1197" class="cls-18" d="M101.737,131.279s-2.067-7.041.39-12.2a11.1,11.1,0,0,0,.9-6.964,18.478,18.478,0,0,0-.986-3.268"/>
      <path id="Path_1198" data-name="Path 1198" class="cls-4" d="M103.568,105.581c0,.861-1.565,3.357-1.565,3.357s-1.562-2.5-1.562-3.357a1.562,1.562,0,0,1,3.117,0Z"/>
      <path id="Path_1199" data-name="Path 1199" class="cls-4" d="M106.144,110.349c-.467.723-3.133,1.971-3.133,1.971s.048-2.944.515-3.668a1.565,1.565,0,0,1,2.736,1.514A1.371,1.371,0,0,1,106.144,110.349Z"/>
      <path id="Path_1200" data-name="Path 1200" class="cls-4" d="M106.039,118.5c-.771.387-3.7.118-3.7.118s1.527-2.515,2.3-2.906a1.562,1.562,0,0,1,1.6,2.675,2,2,0,0,1-.2.112Z"/>
      <path id="Path_1201" data-name="Path 1201" class="cls-4" d="M104.557,124.652c-.691.509-3.626.742-3.626.742s1.078-2.739,1.773-3.252a1.562,1.562,0,0,1,1.847,2.506Z"/>
      <path id="Path_1202" data-name="Path 1202" class="cls-4" d="M99.737,112.487c.618.6,3.495,1.223,3.495,1.223s-.71-2.858-1.322-3.456a1.563,1.563,0,0,0-2.333,2.08,1.46,1.46,0,0,0,.16.154Z"/>
      <path id="Path_1203" data-name="Path 1203" class="cls-4" d="M98.1,119.691c.771.39,3.7.122,3.7.122s-1.527-2.519-2.3-2.906a1.562,1.562,0,0,0-1.4,2.784Z"/>
      <path id="Path_1204" data-name="Path 1204" class="cls-4" d="M97.478,126.93c.694.512,3.629.742,3.629.742s-1.078-2.739-1.773-3.252a1.562,1.562,0,0,0-1.847,2.506Z"/>
      <path id="Path_1205" data-name="Path 1205" class="cls-3" d="M103.568,105.581c0,.861-1.565,3.357-1.565,3.357s-1.562-2.5-1.562-3.357a1.562,1.562,0,0,1,3.117,0Z"/>
      <path id="Path_1206" data-name="Path 1206" class="cls-3" d="M106.144,110.349c-.467.723-3.133,1.971-3.133,1.971s.048-2.944.515-3.668a1.565,1.565,0,0,1,2.736,1.514A1.371,1.371,0,0,1,106.144,110.349Z"/>
      <path id="Path_1207" data-name="Path 1207" class="cls-3" d="M106.039,118.5c-.771.387-3.7.118-3.7.118s1.527-2.515,2.3-2.906a1.562,1.562,0,0,1,1.6,2.675,2,2,0,0,1-.2.112Z"/>
      <path id="Path_1208" data-name="Path 1208" class="cls-3" d="M104.557,124.652c-.691.509-3.626.742-3.626.742s1.078-2.739,1.773-3.252a1.562,1.562,0,0,1,1.847,2.506Z"/>
      <path id="Path_1209" data-name="Path 1209" class="cls-3" d="M99.737,112.487c.618.6,3.495,1.223,3.495,1.223s-.71-2.858-1.322-3.456a1.563,1.563,0,0,0-2.333,2.08,1.46,1.46,0,0,0,.16.154Z"/>
      <path id="Path_1210" data-name="Path 1210" class="cls-3" d="M98.1,119.691c.771.39,3.7.122,3.7.122s-1.527-2.519-2.3-2.906a1.562,1.562,0,0,0-1.4,2.784Z"/>
      <path id="Path_1211" data-name="Path 1211" class="cls-3" d="M97.478,126.93c.694.512,3.629.742,3.629.742s-1.078-2.739-1.773-3.252a1.562,1.562,0,0,0-1.847,2.506Z"/>
      <path id="Path_1212" data-name="Path 1212" class="cls-19" d="M111.863,51.106h-.893a.64.64,0,1,0,.061-1.248h-7.3a.64.64,0,0,0,0,1.248h.893a.64.64,0,0,0,0,1.251H103.37a.64.64,0,1,0-.061,1.248h7.29a.64.64,0,0,0,.061-1.248h1.194a.64.64,0,0,0,0-1.251Z"/>
      <path id="Path_1213" data-name="Path 1213" class="cls-19" d="M70.051,54.751h-.678a.481.481,0,0,0,.051-.96H63.872a.48.48,0,0,0,0,.96h.678a.481.481,0,0,0-.051.96h-.9a.481.481,0,1,0-.051.96H69.1a.481.481,0,0,0,.054-.96h.9a.48.48,0,0,0,0-.96Z"/>
      <path id="Path_1214" data-name="Path 1214" class="cls-20" d="M23.868,122.082s2.487,4.88.461,7.553.186,9.947.186,9.947"/>
      <path id="Path_1215" data-name="Path 1215" class="cls-4" d="M24.61,120.555a2.88,2.88,0,0,1-.691,1.7,2.451,2.451,0,0,1,0-3.412,2.88,2.88,0,0,1,.691,1.715Z"/>
      <path id="Path_1216" data-name="Path 1216" class="cls-20" d="M25.158,122.082s-2.487,4.88-.461,7.553-.186,9.947-.186,9.947"/>
      <path id="Path_1217" data-name="Path 1217" class="cls-4" d="M24.421,120.555a2.88,2.88,0,0,0,.691,1.7,2.458,2.458,0,0,0,0-3.412,2.88,2.88,0,0,0-.691,1.715Z"/>
      <path id="Path_1218" data-name="Path 1218" class="cls-7" d="M24.421,120.555a2.88,2.88,0,0,0,.691,1.7,2.458,2.458,0,0,0,0-3.412,2.88,2.88,0,0,0-.691,1.715Z"/>
      <path id="Path_1219" data-name="Path 1219" class="cls-20" d="M26.172,122.082s2.487,4.88.461,7.553.186,9.947.186,9.947"/>
      <path id="Path_1220" data-name="Path 1220" class="cls-4" d="M26.908,120.555a2.88,2.88,0,0,1-.691,1.7,2.451,2.451,0,0,1,0-3.412A2.88,2.88,0,0,1,26.908,120.555Z"/>
      <path id="Path_1221" data-name="Path 1221" class="cls-4" d="M26.521,124.466a2.88,2.88,0,0,1-1.68.749A2.442,2.442,0,0,1,27.2,122.76a2.9,2.9,0,0,1-.682,1.706Z"/>
      <path id="Path_1222" data-name="Path 1222" class="cls-4" d="M26.585,127.836a2.88,2.88,0,0,1-1.68.749,2.448,2.448,0,0,1,2.365-2.455,2.88,2.88,0,0,1-.685,1.706Z"/>
      <path id="Path_1223" data-name="Path 1223" class="cls-4" d="M23.042,129.686a2.88,2.88,0,0,1,.6,1.741,2.448,2.448,0,0,1-2.24-2.56,2.855,2.855,0,0,1,1.645.819Z"/>
      <path id="Path_1224" data-name="Path 1224" class="cls-4" d="M23.615,122.507a2.88,2.88,0,0,1,1.027,1.52,2.88,2.88,0,0,1-1.8-.368,2.852,2.852,0,0,1-1.04-1.517,2.848,2.848,0,0,1,1.815.365Z"/>
      <path id="Path_1225" data-name="Path 1225" class="cls-7" d="M23.615,122.507a2.88,2.88,0,0,1,1.027,1.52,2.88,2.88,0,0,1-1.8-.368,2.852,2.852,0,0,1-1.04-1.517,2.848,2.848,0,0,1,1.815.365Z"/>
      <path id="Path_1226" data-name="Path 1226" class="cls-20" d="M27.459,122.082s-2.487,4.88-.461,7.553-.182,9.947-.182,9.947"/>
      <path id="Path_1227" data-name="Path 1227" class="cls-4" d="M26.722,120.555a2.88,2.88,0,0,0,.691,1.7,2.451,2.451,0,0,0,0-3.412A2.88,2.88,0,0,0,26.722,120.555Z"/>
      <path id="Path_1228" data-name="Path 1228" class="cls-7" d="M26.722,120.555a2.88,2.88,0,0,0,.691,1.7,2.451,2.451,0,0,0,0-3.412A2.88,2.88,0,0,0,26.722,120.555Z"/>
      <path id="Path_1229" data-name="Path 1229" class="cls-4" d="M26.921,124.54a2.925,2.925,0,0,0-.71,1.706,2.88,2.88,0,0,0,1.69-.73,2.925,2.925,0,0,0,.71-1.706,2.88,2.88,0,0,0-1.69.73Z"/>
      <path id="Path_1230" data-name="Path 1230" class="cls-7" d="M26.921,124.54a2.925,2.925,0,0,0-.71,1.706,2.88,2.88,0,0,0,1.69-.73,2.925,2.925,0,0,0,.71-1.706,2.88,2.88,0,0,0-1.69.73Z"/>
      <path id="Path_1231" data-name="Path 1231" class="cls-4" d="M28.217,129.2a2.88,2.88,0,0,0-.694,1.706,2.461,2.461,0,0,0,2.4-2.435,2.848,2.848,0,0,0-1.7.73Z"/>
      <path id="Path_1232" data-name="Path 1232" class="cls-20" d="M26.316,128.178s1.495-2.359,3.6-2.416"/>
      <path id="Path_1233" data-name="Path 1233" class="cls-20" d="M25.145,126.751s-1.495-2.359-3.6-2.416"/>
      <path id="Path_1234" data-name="Path 1234" class="cls-20" d="M24.962,130.121s1.5-2.359,3.6-2.416"/>
      <circle id="Ellipse_213" data-name="Ellipse 213" class="cls-4" cx="0.387" cy="0.387" r="0.387" transform="translate(29.452 125.362)"/>
      <circle id="Ellipse_214" data-name="Ellipse 214" class="cls-4" cx="0.387" cy="0.387" r="0.387" transform="translate(21.196 123.97)"/>
      <path id="Path_1235" data-name="Path 1235" class="cls-20" d="M26.054,130.892s-1.5-2.359-3.6-2.416"/>
      <circle id="Ellipse_215" data-name="Ellipse 215" class="cls-4" cx="0.387" cy="0.387" r="0.387" transform="translate(22.104 128.111)"/>
      <circle id="Ellipse_216" data-name="Ellipse 216" class="cls-4" cx="0.387" cy="0.387" r="0.387" transform="translate(28.191 127.337)"/>
      <path id="Path_1236" data-name="Path 1236" class="cls-21" d="M34.326,136.739s-3.6-.726-4.564-1.687-5.29-2.643-5.761-1.44-6.509,5.281-2.419,6.013,9.617.96,10.82.48S34.326,136.739,34.326,136.739Z"/>
      <path id="Path_1237" data-name="Path 1237" class="cls-22" d="M21.583,139.178c4.087.723,9.617.96,10.82.483.915-.368,1.552-2.135,1.8-2.947l.122.026s-.72,2.88-1.92,3.367-6.721.24-10.82-.48c-1.181-.208-1.52-.7-1.392-1.315C20.29,138.707,20.7,139.024,21.583,139.178Z"/>
      <path id="Path_1238" data-name="Path 1238" class="cls-4" d="M143.828,123.189s1.191,1.562-.55,3.908-3.175,4.336-2.6,5.8c0,0,2.627-4.368,4.765-4.429S146.18,125.813,143.828,123.189Z"/>
      <path id="Path_1239" data-name="Path 1239" class="cls-7" d="M143.828,123.189a1.979,1.979,0,0,1,.243.486c2.087,2.451,3.2,4.736,1.191,4.8-1.866.051-4.106,3.392-4.644,4.234.019.067.042.131.064.192,0,0,2.627-4.365,4.765-4.426S146.18,125.813,143.828,123.189Z"/>
      <path id="Path_1240" data-name="Path 1240" class="cls-14" d="M146.042,125.173c0,.547-.061.992-.144.992s-.141-.445-.141-.992.077-.285.15-.285S146.042,124.626,146.042,125.173Z"/>
      <path id="Path_1241" data-name="Path 1241" class="cls-14" d="M146.8,125.826c-.48.262-.9.426-.934.355s.32-.32.8-.6.294-.07.32,0S147.281,125.564,146.8,125.826Z"/>
      <path id="Path_1242" data-name="Path 1242" class="cls-4" d="M137.539,123.189s-1.191,1.562.547,3.908,3.178,4.336,2.6,5.8c0,0-2.624-4.368-4.762-4.429S135.187,125.813,137.539,123.189Z"/>
      <path id="Path_1243" data-name="Path 1243" class="cls-7" d="M137.539,123.189a1.872,1.872,0,0,0-.243.486c-2.087,2.451-3.2,4.736-1.194,4.8,1.869.051,4.106,3.392,4.644,4.234a1.225,1.225,0,0,1-.064.192s-2.624-4.365-4.762-4.426S135.187,125.813,137.539,123.189Z"/>
      <path id="Path_1244" data-name="Path 1244" class="cls-14" d="M135.325,125.173c0,.547.061.992.141.992s.144-.445.144-.992-.077-.285-.154-.285S135.325,124.626,135.325,125.173Z"/>
      <path id="Path_1245" data-name="Path 1245" class="cls-14" d="M134.563,125.826c.483.262.9.426.938.355s-.32-.32-.806-.6-.291-.07-.32,0S134.093,125.564,134.563,125.826Z"/>
      <path id="Path_1246" data-name="Path 1246" class="cls-21" d="M135.693,132.694s3.332-.1,4.333-.816,5.12-1.565,5.37-.429,5.005,5.7,1.245,5.732-8.734-.586-9.735-1.2S135.693,132.694,135.693,132.694Z"/>
      <path id="Path_1247" data-name="Path 1247" class="cls-22" d="M146.718,136.787c-3.757.029-8.734-.586-9.735-1.2-.762-.464-1.066-2.131-1.168-2.9h-.122s.211,2.685,1.213,3.3,5.978,1.226,9.735,1.194c1.088,0,1.459-.394,1.44-.96C147.94,136.563,147.534,136.778,146.718,136.787Z"/>
      <path id="Path_1248" data-name="Path 1248" class="cls-19" d="M141.741,38.474h-.893a.64.64,0,1,0,.061-1.248h-7.29a.64.64,0,0,0,0,1.248h.893a.64.64,0,0,0,0,1.248h-1.248a.64.64,0,0,0,0,1.251h7.229a.64.64,0,0,0,.061-1.251h1.187a.64.64,0,0,0,0-1.248Z"/>
    </g>
  </g>
</svg>
