<svg xmlns="http://www.w3.org/2000/svg" xmlns:xlink="http://www.w3.org/1999/xlink" viewBox="0 0 160 160">
  <defs>
    <style>
      .cls-1 {
        fill: #fff;
      }

      .cls-2 {
        clip-path: url(#clip-path);
      }

      .cls-12, .cls-3 {
        fill: #2b3991;
      }

      .cls-3 {
        opacity: 0.1;
      }

      .cls-4 {
        fill: #242449;
      }

      .cls-5 {
        fill: #f7931d;
      }

      .cls-6 {
        fill: #535461;
      }

      .cls-7 {
        fill: url(#linear-gradient);
      }

      .cls-8 {
        fill: #3d213c;
      }

      .cls-9 {
        fill: #f6c5b0;
      }

      .cls-10 {
        fill: #f7c1a3;
      }

      .cls-11 {
        fill: #333;
      }

      .cls-13 {
        fill: #edeef5;
      }
    </style>
    <clipPath id="clip-path">
      <rect id="Rectangle_2" data-name="Rectangle 2" class="cls-1" width="160" height="160" transform="translate(445 747)"/>
    </clipPath>
    <linearGradient id="linear-gradient" y1="0.5" x2="1.001" y2="0.5" gradientUnits="objectBoundingBox">
      <stop offset="0" stop-color="gray" stop-opacity="0.251"/>
      <stop offset="0.54" stop-color="gray" stop-opacity="0.122"/>
      <stop offset="1" stop-color="gray" stop-opacity="0.102"/>
    </linearGradient>
  </defs>
  <g id="img-yurtdisi-feribot" class="cls-2" transform="translate(-445 -747)">
    <g id="Homepage-Icons-12" transform="translate(444.783 749.176)">
      <path id="Path_995" data-name="Path 995" class="cls-3" d="M93.186,31.123c-10.26-.358-20.031-3.668-29.36-7.29s-18.562-7.639-28.582-9.559c-6.442-1.235-13.8-1.408-18.994,2.048-5,3.325-6.609,9.054-7.476,14.376-.64,4-1.037,8.218.752,11.966,1.242,2.6,3.447,4.8,4.97,7.284C19.8,58.62,16.053,69.315,10.3,77.79,7.61,81.758,4.48,85.55,2.4,89.775s-3.04,9.076-1.223,13.39,6.1,7.489,10.763,9.745c9.46,4.589,20.6,5.9,31.481,6.647,24.063,1.645,48.257.931,72.384.218,8.932-.262,17.9-.531,26.684-1.92,4.877-.768,9.921-1.984,13.441-4.922a11.271,11.271,0,0,0,2.6-14.721c-5.04-7.834-19-9.783-22.543-18.2-1.946-4.637.051-9.8,2.88-14.081,6.061-9.22,16.219-17.307,16.754-27.843.368-7.236-4.516-14.485-12.068-17.922-7.911-3.591-18.882-3.139-24.726,2.8C112.811,29.081,102.243,31.437,93.186,31.123Z"/>
      <path id="Path_996" data-name="Path 996" class="cls-4" d="M122.191,102.493V103.6l-2.842,1.421-1.418-1.421,1.418-1.418h.182l.048.31Z"/>
      <path id="Path_997" data-name="Path 997" class="cls-4" d="M129.186,102.182h.2L130.8,103.6l-1.421,1.421L126.54,103.6v-1.107h2.611Z"/>
      <path id="Path_998" data-name="Path 998" class="cls-5" d="M135.894,67.321c-.029-.8-.074-1.472-.08-1.712a62.27,62.27,0,0,0-.563-6.548c-.269-1.981-.6-3.965-.96-5.956a46.976,46.976,0,0,0-2.24-8.852,11,11,0,0,0-1.533-3.011,6.01,6.01,0,0,0-4.413-1.987c-.026.061-.138.765-.061.758h.25l1.719,3.6s.358,9.406.438,12.254a34.327,34.327,0,0,0,.691,4.586c.726,3.671,1.76,7.889,1.76,7.889s-.144.218-1.28.157a11.08,11.08,0,0,1,1.968.71,8.492,8.492,0,0,1,.874.5,24.825,24.825,0,0,0,2.391,1.527.694.694,0,0,0,.371.1C135.913,71.248,135.949,69,135.894,67.321Z"/>
      <path id="Path_999" data-name="Path 999" class="cls-5" d="M123.868,39.364a7.707,7.707,0,0,0-1.146.3,6.168,6.168,0,0,0-3.9,4.205q-.829,2.471-1.667,4.941c-.458,1.351-.912,2.7-1.309,4.077a70.036,70.036,0,0,0-2.1,11c-.227,1.859-.41,3.725-.589,5.588-.109,1.146.243.922,1.04.365a5.883,5.883,0,0,1,1.725-1.04l.342-.1a18.177,18.177,0,0,1,5-1.175h.534c-2.4-.182-4.064-.221-4.064-.221s.355-3.466.675-6.669c.2-2.026.371-3.949.426-4.829.138-2.317,3.92-15.758,3.92-15.758H124.1a1.075,1.075,0,0,1-.2-.557C123.884,39.437,123.877,39.392,123.868,39.364Z"/>
      <path id="Path_1000" data-name="Path 1000" class="cls-6" d="M116.264,68.691a18.177,18.177,0,0,1,5-1.175h.534l.454.035c1.12.09,2.378.211,3.69.371l.192.022a23.042,23.042,0,0,0,3.476.557,11.08,11.08,0,0,1,1.968.71,8.5,8.5,0,0,1,.874.5v1.827l-3.2,31h-2.627v.32h0l-2.88-20.8v-.118l-1.584,20.911h0v-.32h-2.64l-3.344-23.285Z"/>
      <path id="Path_1001" data-name="Path 1001" class="cls-7" d="M117.736,67.305s1.661.038,4.064.221l.454.035c1.12.093,2.378.211,3.69.371l.192.022a23.043,23.043,0,0,0,3.476.547c1.146.061,1.28-.157,1.28-.157s-1.034-4.218-1.76-7.889a34.324,34.324,0,0,1-.691-4.586c-.112-2.979-.182-5.962-.272-8.942q-.061-2.24-.154-4.48c-.029-.659.086-1.581-.451-2.08-.819-.758-1.863-.2-2.8-.227-.7-.022-1.744-.32-2.215.384a8.648,8.648,0,0,0-.49,1.959q-.662,2.419-1.306,4.848c-.714,2.717-1.767,5.642-1.936,8.465-.054.88-.23,2.8-.426,4.829C118.091,63.843,117.736,67.305,117.736,67.305Z"/>
      <path id="Path_1002" data-name="Path 1002" class="cls-8" d="M121.663,31.449a4.842,4.842,0,0,0-.47,2.205.7.7,0,0,1-.157.563c-.163.138,0,.41-.138.246a3.623,3.623,0,0,1-.64-.96,8,8,0,0,1-.077-1.517,2.24,2.24,0,0,1,.352-1.251,2.458,2.458,0,0,1,.586-.5,3.015,3.015,0,0,1,.989-.515c.624-.154,1.021.058.49.534A3.86,3.86,0,0,0,121.663,31.449Z"/>
      <path id="Path_1003" data-name="Path 1003" class="cls-9" d="M126.092,39.85a1.4,1.4,0,0,1-.189.688,1.453,1.453,0,0,1-.55.461,1.991,1.991,0,0,1-.861.285.96.96,0,0,1-.806-.32c-.544-.694-.544-2.186-.611-3.027-.762-.093-1.664-.294-1.962-1.085a2.64,2.64,0,0,1-.128-.794l-.192-3.344a3.284,3.284,0,0,1,.067-1.149,2.3,2.3,0,0,1,1.312-1.309,4.868,4.868,0,0,1,4.48.045,2.461,2.461,0,0,1,.944.87,3.847,3.847,0,0,1,.32,2.061q0,.986-.035,1.965a2.538,2.538,0,0,1-.64,2.048c-.294.227-.685.288-.934.573C125.861,38.359,126.114,39.156,126.092,39.85Z"/>
      <path id="Path_1004" data-name="Path 1004" class="cls-8" d="M120.824,36.711a2.73,2.73,0,0,0,1.107,1.693,3.8,3.8,0,0,0,2.192.378l1.226-.035a2.451,2.451,0,0,0,2.535-1.354,3.389,3.389,0,0,0,.2-1.7,1.078,1.078,0,0,0-.125-.451.381.381,0,0,0-.368-.2c-.182.038-.282.243-.394.406a.909.909,0,0,1-1.063.4,1.453,1.453,0,0,1-.32-.2l-.122-.093a2.611,2.611,0,0,0-1.367-.458c-.416-.032-1.03-.157-1.319.218l-.506.64a.96.96,0,0,1-.23.24.662.662,0,0,1-.32.093.675.675,0,0,1-.7-.374,1.446,1.446,0,0,1-.061-.394.618.618,0,0,0-.125-.365c-.32-.365-.381.243-.384.451a4.309,4.309,0,0,0,.144,1.1Zm2.829.045a1.136,1.136,0,0,0,1.04.061c.182-.067.278.246.093.32a1.411,1.411,0,0,1-1.28-.083C123.343,36.944,123.48,36.65,123.653,36.755Z"/>
      <path id="Path_1005" data-name="Path 1005" class="cls-8" d="M120.238,29.587a5.958,5.958,0,0,1-.2-.816,1.6,1.6,0,0,0,.8.029c0-.16-.016-.32-.022-.483s1.763-.32,1.92-.339a5.919,5.919,0,0,1,3.84.32,3.728,3.728,0,0,1,2.013,2.691,5.818,5.818,0,0,1-.7,3.712,7.093,7.093,0,0,0,.038-1.347,2.625,2.625,0,0,0-.32-.832,3.463,3.463,0,0,0-1.28-1.223,6.638,6.638,0,0,0-2.675-.762,7.082,7.082,0,0,0-2.7.138c-.394.131-.454.237-.717-.16a7.161,7.161,0,0,1-.4-.9Z"/>
      <path id="Path_1006" data-name="Path 1006" class="cls-5" d="M129.785,54.725a2.9,2.9,0,0,1-.176,1.6,12.84,12.84,0,0,1-2.307,3.127c-.358.374-.858.608-1.245.96-.214.189-.461.371-.371.64s.675.662.886.864c.15.144.531.694.723.723.25.035.685-.41.877-.554q.9-.662,1.735-1.4c1.757-1.565,2.826-3.45,4.314-5.226a1.434,1.434,0,0,0,.4-1.677l-2.218-7.93a7.368,7.368,0,0,0-1.677-3.469,1.262,1.262,0,0,0-1.344-.416c-.557.259-.589,1.021-.541,1.629q.272,3.335.541,6.669.141,1.671.272,3.335C129.679,53.957,129.747,54.338,129.785,54.725Z"/>
      <path id="Path_1007" data-name="Path 1007" class="cls-10" d="M22.793,56.274l2.317-3.453,1.936.835-.915,2.688,1.117.064L24.8,59.145l-2.141-.659Z"/>
      <path id="Path_1008" data-name="Path 1008" class="cls-5" d="M37.546,75.028l3.248,1.114,5.252,7.873,7.114-3.376,1.751,1.415-3.392,5.034-6.109,4.362-7.863-8.228Z"/>
      <g id="Group_194" data-name="Group 194">
        <path id="Path_1009" data-name="Path 1009" class="cls-6" d="M45.179,97.683l.23,19.986L43.278,143.4H40.385l-3.466-23.737L32.957,95.884Z"/>
      </g>
      <path id="Path_1010" data-name="Path 1010" class="cls-11" d="M40.4,144.618l3.13,1.565,1.565-1.565L43.53,143.05H40.4Z"/>
      <g id="Group_195" data-name="Group 195">
        <path id="Path_1011" data-name="Path 1011" class="cls-6" d="M25.324,97.683l-.058,11.563,1.952,34.15h2.9l4.845-22.661,2.586-24.85Z"/>
      </g>
      <path id="Path_1012" data-name="Path 1012" class="cls-11" d="M30.1,144.618l-3.13,1.565L25.4,144.618l1.568-1.568H30.1Z"/>
      <path id="Path_1013" data-name="Path 1013" class="cls-5" d="M22.312,104.65c-.064,1.834-.022,4.288.749,4.378a.736.736,0,0,0,.413-.109c1.341-.64,2.3-1.575,3.623-2.205a16.485,16.485,0,0,1,4.506-1.245,47.439,47.439,0,0,1,6.948-.608c1.991,0,4.058.89,5.937,1.389a6.708,6.708,0,0,1,1.92,1.133c.886.611,1.28.851,1.155-.4-.2-2.035-.4-4.071-.64-6.1a75.476,75.476,0,0,0-2.33-12.011c-.442-1.5-.96-2.973-1.453-4.452l-1.856-5.4a6.75,6.75,0,0,0-4.33-4.592,8.476,8.476,0,0,0-6.3.086c-2.119,1.053-3.127,4.634-4.16,6.548a40.853,40.853,0,0,0-2.375,8.058c-.406,2.176-.781,4.34-1.079,6.5a67.033,67.033,0,0,0-.64,7.149C22.4,103.05,22.341,103.77,22.312,104.65Z"/>
      <path id="Path_1014" data-name="Path 1014" class="cls-10" d="M35.152,74.913a.461.461,0,0,1-.16.09.848.848,0,0,1-.381,0l-1.552-.182c.17-1.584-.755-1.943-1.661-2.963s-.634-2.41-.579-3.69A2.685,2.685,0,0,1,31,67.133a2.262,2.262,0,0,1,1.463-1.053,5.492,5.492,0,0,1,4.557.5,2.435,2.435,0,0,1,.877.89,3.328,3.328,0,0,1,.138,1.92,6.445,6.445,0,0,1-.979,2.791c-.518.774-1.511,1.146-1.626,2.077A1.056,1.056,0,0,1,35.152,74.913Z"/>
      <path id="Path_1015" data-name="Path 1015" class="cls-8" d="M37.988,68.234a2.743,2.743,0,0,0-.176,1.2,2.314,2.314,0,0,0,1.28-1.52,2.355,2.355,0,0,0,.147-.928,1.082,1.082,0,0,0-.41-.81.7.7,0,0,0-1.072.3C37.645,66.921,38.119,67.635,37.988,68.234Z"/>
      <path id="Path_1016" data-name="Path 1016" class="cls-8" d="M41.348,64.736a1.424,1.424,0,0,0-.624-1.194,2.877,2.877,0,0,1-1.014-.848c-.173-.32-.2-.685-.371-.992a2.5,2.5,0,0,0-1.575-.909c-1.469-.474-2.259-1.018-3.818-.413-1.1.429-2.535.486-3.562,1.114a3.594,3.594,0,0,0-1.095,1.149,6.516,6.516,0,0,0-.611,5.594,7.079,7.079,0,0,0,.55,1.063,4.26,4.26,0,0,0,1.578,1.815c.045-.32.282-.49.352-.8a2.455,2.455,0,0,0,.026-.685c-.045-.89-.32-2.3.57-2.736,1.123-.56,3.232-.054,4.314.416.96.419,2.56.96,3.594.515A3.816,3.816,0,0,0,41.348,64.736Z"/>
      <path id="Path_1017" data-name="Path 1017" class="cls-5" d="M31.523,74.317l-9.934-2.928,3.677-12.42L22.236,56.8,14.923,71.175l2.023,4.976,9.492,4.9Z"/>
      <path id="Path_1018" data-name="Path 1018" d="M138.973,103.654a.858.858,0,0,1-.586,1.117c-1.05.381-2.115.73-3.175,1.085l-5.143,1.712c-1.584.534-3.162,1.1-4.759,1.6a5.823,5.823,0,0,1-1.4.074,2.56,2.56,0,0,0-2.384,1.84,2.394,2.394,0,0,0,.816,2.531,2.781,2.781,0,0,0,1.763.618h.557c.87,0,1.149.275,1.149,1.143v6.57c0,.723-.3,1.28-1.213,1.2a2.955,2.955,0,0,0-2.2.5,2.509,2.509,0,0,0-.877,2.656,2.474,2.474,0,0,0,2.458,1.786c.3,0,.608,0,.909.019a.878.878,0,0,1,.912.941v.2h0v1.623a.475.475,0,0,1,0,.067v2.88a.832.832,0,0,1-.832.835H32.342a1.116,1.116,0,0,1-1.229-1.245c.032-.96.026-1.92.019-2.88h0v-1.463a.893.893,0,0,1,.96-.96,8.5,8.5,0,0,0,1.555-.112,2.515,2.515,0,0,0,1.891-2.106,2.48,2.48,0,0,0-1.357-2.477,4.125,4.125,0,0,0-1.92-.32c-.752,0-1.114-.349-1.117-1.091v-1.152h0v-5.674a.893.893,0,0,1,.96-.96,8.793,8.793,0,0,0,1.555-.112,2.519,2.519,0,0,0,1.863-2.122,2.483,2.483,0,0,0-1.357-2.48,4.122,4.122,0,0,0-1.92-.3.97.97,0,0,1-1.117-1.095v-6.772a.96.96,0,0,1,1.027-1.046,5.666,5.666,0,0,0,1.744-.154,2.525,2.525,0,0,0,1.6-2.615,2.471,2.471,0,0,0-2.029-2.135c-.429-.058-.874-.042-1.309-.064a.953.953,0,0,1-1.046-1.072v-4.5a1.03,1.03,0,0,1,1.12-1.133c.96,0,1.888-.035,2.829,0a7.335,7.335,0,0,0,2.618-.374q3.725-1.19,7.441-2.336c2.394-.742,4.8-1.456,7.2-2.2,1.837-.57,3.664-1.171,5.5-1.744,1.744-.538,3.492-1.05,5.236-1.6,1.818-.56,3.632-1.149,5.441-1.712,1.741-.541,3.485-1.066,5.226-1.6,1.5-.464,3-.938,4.5-1.4L83.5,74.017l4.512-1.392,4.311-1.331,4.458-1.386,4.352-1.347,4.42-1.354,5.364-1.664c1.5-.467,3-.96,4.5-1.415,1.421-.442,2.845-.867,4.266-1.309,1.5-.464,3-.934,4.506-1.4a6.535,6.535,0,0,1,.768-.218.883.883,0,0,1,1.059.678L126.991,65c.138.422.3.845.429,1.28a.89.89,0,0,1-.621,1.191,8.641,8.641,0,0,0-1.456.56,2.519,2.519,0,0,0-1.2,2.56,2.487,2.487,0,0,0,2.023,1.978,4.1,4.1,0,0,0,1.92-.269.961.961,0,0,1,1.386.72c.166.547.32,1.107.5,1.651h0q.768,2.448,1.5,4.909c.192.64-.054.982-.7,1.2a3.4,3.4,0,0,0-2.077,1.2,2.49,2.49,0,0,0,.061,2.912,2.624,2.624,0,0,0,2.781.8c.048,0,.09-.045.138-.061,1.28-.442,1.6-.285,2.013,1,.5,1.6,1,3.181,1.507,4.768l.566,1.258a.842.842,0,0,1-.461,1.13l-.106.042a2.384,2.384,0,0,1-.64.227,2.647,2.647,0,0,0-1.991,1.44,2.41,2.41,0,0,0,.218,2.483,2.282,2.282,0,0,0,2.24.979,4.529,4.529,0,0,0,1.123-.269.982.982,0,0,1,1.5.72Q138.307,101.523,138.973,103.654Z"/>
      <path id="Path_1019" data-name="Path 1019" class="cls-12" d="M136.582,103.571c.4-.106.426-.352.32-.672q-.312-1.032-.64-2.064c-.077-.253-.218-.32-.493-.246A4.193,4.193,0,0,1,133.26,92.6c.32-.118.371-.269.285-.55q-.675-2.157-1.341-4.314c-.093-.294-.234-.384-.589-.32a4.17,4.17,0,0,1-2.445-7.956c.32-.118.387-.275.282-.608-.4-1.226-.774-2.461-1.149-3.7h0a4.561,4.561,0,0,0-.25-.678c-.17-.4-.394-.282-.64-.237a4.205,4.205,0,0,1-3.5-7.38,3.107,3.107,0,0,1,1.223-.675c.224-.051.3-.16.275-.346h0a1.978,1.978,0,0,0-.08-.3V65.5a.408.408,0,0,0-.035-.106c-.2-.64-.4-1.28-.586-1.92-.08-.282-.189-.365-.5-.266q-3.124,1.008-6.266,1.978c-2.413.742-4.829,1.472-7.242,2.208-.416.128-.826.282-1.245.39s-.5.32-.355.733c.32.918.56,1.856.874,2.775.109.32.016.416-.266.493-.371.1-.73.24-1.091.365-.262.093-.234-.157-.266-.259-.294-.906-.582-1.815-.848-2.73-.189-.666-.227-.694-.906-.483-2.56.794-5.12,1.578-7.681,2.378-2.794.87-5.581,1.76-8.375,2.624-2.733.848-5.469,1.664-8.2,2.509-2.16.669-4.3,1.37-6.461,2.039-2.4.742-4.8,1.456-7.2,2.2-2.157.669-4.3,1.367-6.458,2.039s-4.253,1.3-6.378,1.952q-4.362,1.344-8.724,2.7l-4.4,1.379a.477.477,0,0,0,.432.118q9.3,0,18.6.019a6.123,6.123,0,0,0,1.8-.438c2.464-.752,4.916-1.546,7.361-2.307s4.829-1.475,7.239-2.24c3.117-.96,6.221-1.959,9.338-2.925,3.066-.96,6.138-1.885,9.2-2.829.832-.259,1.655-.534,2.48-.806.41-.131.672-.048.726.426a2.674,2.674,0,0,0,.122.435c.227.71.214.694-.528.915-1.539.451-3.072.934-4.608,1.4-1.437.445-2.88.886-4.308,1.335-1.837.573-3.671,1.159-5.508,1.728-1.421.442-2.845.87-4.266,1.309-1.5.467-3,.944-4.5,1.411l-4.189,1.322c-1.194.368-2.384.742-3.645,1.136a.781.781,0,0,0,.582.122h5.521c11.131,0,22.264,0,33.4.074,1.683,0,3.364-.154,5.047,0,.48.042.538-.067.394-.518-.2-.64-.374-1.28-.6-1.92-.09-.256,0-.336.211-.384.083-.019.166-.026.246-.051,1.2-.355,1.2-.355,1.517.867.138.515.32,1.024.445,1.543a.6.6,0,0,0,.694.486c2.864-.016,5.729,0,8.59,0,1.1,0,1.325.227,1.325,1.331V94.2c0,.909-.291,1.2-1.216,1.2a3.23,3.23,0,0,0-2.029.413,2.531,2.531,0,0,0-1.095,2.56,2.56,2.56,0,0,0,2.09,1.92,10.721,10.721,0,0,0,1.158.058c.784.026,1.088.32,1.091,1.117v5.152c0,.47.118.522.554.374,2.986-1.015,5.981-2,8.977-3C135.757,103.846,136.163,103.69,136.582,103.571Z"/>
      <path id="Path_1020" data-name="Path 1020" class="cls-12" d="M136.912,102.9q-.312-1.032-.64-2.064c-.077-.253-.218-.32-.493-.246A4.193,4.193,0,0,1,133.27,92.6c.32-.118.371-.269.285-.55q-.675-2.157-1.341-4.314c-.093-.294-.234-.384-.589-.32a4.17,4.17,0,0,1-2.445-7.956c.32-.118.387-.275.282-.608-.4-1.226-.774-2.461-1.149-3.7h0a4.561,4.561,0,0,0-.25-.678c-.17-.4-.394-.282-.64-.237a4.205,4.205,0,0,1-3.5-7.38,3.107,3.107,0,0,1,1.223-.675c.224-.051.3-.16.275-.346h0a1.978,1.978,0,0,0-.08-.3V65.5a.408.408,0,0,0-.035-.106c-.2-.64-.4-1.28-.586-1.92-.08-.282-.189-.365-.5-.266q-3.124,1.008-6.266,1.978c-2.413.742-4.829,1.472-7.242,2.208-.416.128-.826.282-1.245.39s-.5.32-.355.733c.32.918.56,1.856.874,2.775.109.32.016.416-.266.493-.371.1-.73.24-1.091.365-.262.093-.234-.157-.266-.259-.294-.906-.582-1.815-.848-2.73-.189-.666-.227-.694-.906-.483-2.56.794-5.12,1.578-7.681,2.378-2.794.87-5.581,1.76-8.375,2.624-2.733.848-5.469,1.664-8.2,2.509-2.16.669-4.3,1.37-6.461,2.039-2.4.742-4.8,1.456-7.2,2.2-2.157.669-4.3,1.367-6.458,2.039s-4.253,1.3-6.378,1.952q-4.362,1.344-8.724,2.7l-4.4,1.379a.477.477,0,0,0,.432.118q9.3,0,18.6.019a6.123,6.123,0,0,0,1.8-.438c2.464-.752,4.916-1.546,7.361-2.307s4.829-1.475,7.239-2.24c3.117-.96,6.221-1.959,9.338-2.925,3.066-.96,6.138-1.885,9.2-2.829.832-.259,1.655-.534,2.48-.806.41-.131.672-.048.726.426a2.675,2.675,0,0,0,.122.435c.227.71.214.694-.528.915-1.539.451-3.072.934-4.608,1.4-1.437.445-2.88.886-4.308,1.335-1.837.573-3.671,1.159-5.508,1.728-1.421.442-2.845.87-4.266,1.309-1.5.467-3,.944-4.5,1.411l-4.2,1.322c-1.194.368-2.384.742-3.645,1.136a.781.781,0,0,0,.582.122h5.521c11.131,0,22.264,0,33.4.074,1.683,0,3.364-.154,5.047,0,.48.042.538-.067.394-.518-.2-.64-.374-1.28-.6-1.92-.09-.256,0-.336.211-.384.083-.019.166-.026.246-.051,1.2-.355,1.2-.355,1.517.867.138.515.32,1.024.445,1.543a.6.6,0,0,0,.694.486c2.864-.016,5.729,0,8.59,0,1.1,0,1.325.227,1.325,1.331V94.2c0,.909-.291,1.2-1.216,1.2a3.23,3.23,0,0,0-2.029.413,2.531,2.531,0,0,0-1.095,2.56,2.56,2.56,0,0,0,2.09,1.92,10.721,10.721,0,0,0,1.158.058c.784.026,1.088.32,1.091,1.117v5.152c0,.47.118.522.554.374,2.986-1.015,5.981-2,8.977-3a12.428,12.428,0,0,1,1.235-.413C137.021,103.485,137.008,103.219,136.912,102.9Z"/>
      <path id="Path_1021" data-name="Path 1021" class="cls-12" d="M124.085,90.994c.019-.451-.115-.6-.592-.6-6.029.016-12.059,0-18.088,0h-7.53c-.419,0-.557.118-.547.538.026,1,0,1.987,0,2.983,0,.32-.093.426-.426.426-1.3,0-1.3.019-1.3-1.28V90.837c0-.32-.093-.483-.435-.442a2.412,2.412,0,0,1-.3,0H33.622c-.832,0-.71-.115-.717.72v2.071c0,.3.086.4.394.432a4.16,4.16,0,0,1,3.447,2.151,4.25,4.25,0,0,1-1.994,5.911,4.986,4.986,0,0,1-1.463.339c-.262.026-.384.083-.384.381v4.7c0,.432.294.384.541.413a4.205,4.205,0,0,1,1.2,8.078,3.162,3.162,0,0,1-1.367.291c-.282-.019-.378.1-.378.387v4h0v.557h0v.141c0,.435.294.387.541.413a4.205,4.205,0,0,1,1.2,8.078,3.072,3.072,0,0,1-1.367.291c-.189,0-.291.038-.342.157h0a.157.157,0,0,0,0,.035h0a.723.723,0,0,0,0,.15h0v2.375c0,.253.061.381.32.355.2-.019.4,0,.6,0H57.477a.424.424,0,0,1,.093,0h1.315a2.138,2.138,0,0,1,.32,0h64.806c.016-.112.026-.224.032-.32.058-.771,0-1.549.022-2.323,0-.32-.118-.387-.416-.4a4.2,4.2,0,0,1-.541-8.321c.96-.176.96-.176.96-1.168,0-1.264-.019-2.528,0-3.792,0-.429-.128-.586-.554-.64a4.141,4.141,0,0,1-3.444-2.413,4.239,4.239,0,0,1,1.891-5.5,3.86,3.86,0,0,1,1.687-.435c.346,0,.426-.154.426-.464v-4.6c0-.282-.074-.416-.39-.442A4.206,4.206,0,0,1,122.117,94a3.869,3.869,0,0,1,1.5-.381c.39-.016.474-.182.461-.534C124.063,92.412,124.056,91.7,124.085,90.994Z"/>
      <path id="Path_1022" data-name="Path 1022" class="cls-12" d="M122.12,94.031a3.869,3.869,0,0,1,1.5-.381c.39-.016.474-.182.461-.534-.019-.7-.026-1.415,0-2.122.019-.451-.115-.6-.592-.6-6.029.016-12.059,0-18.088,0h-7.53c-.419,0-.557.118-.547.538.026,1,0,1.987,0,2.983,0,.32-.093.426-.426.426-1.3,0-1.3.019-1.3-1.28V90.837c0-.32-.093-.483-.435-.442a2.412,2.412,0,0,1-.3,0H33.619c-.832,0-.71-.115-.717.72v2.071c0,.3.086.4.394.432a4.16,4.16,0,0,1,3.447,2.151,4.25,4.25,0,0,1-1.994,5.911,4.986,4.986,0,0,1-1.463.339c-.262.026-.384.083-.384.381v4.7c0,.432.294.384.541.413a4.205,4.205,0,0,1,1.2,8.078,3.162,3.162,0,0,1-1.367.291c-.282-.019-.378.1-.378.387v4h0v.557h0v.141c0,.435.294.387.541.413a4.205,4.205,0,0,1,1.2,8.078,3.072,3.072,0,0,1-1.367.291c-.189,0-.291.038-.342.157h0a.157.157,0,0,0,0,.035h0a.724.724,0,0,0,0,.15h0v2.375c0,.253.061.381.32.355.2-.019.4,0,.6,0H57.474a.424.424,0,0,1,.093,0h1.318a2.138,2.138,0,0,1,.32,0h64.806c.016-.112.026-.224.032-.32.058-.771,0-1.549.022-2.323,0-.32-.118-.387-.416-.4a4.2,4.2,0,0,1-.541-8.321c.96-.176.96-.176.96-1.168,0-1.264-.019-2.528,0-3.792,0-.429-.128-.586-.554-.64a4.141,4.141,0,0,1-3.444-2.413,4.239,4.239,0,0,1,1.891-5.5,3.86,3.86,0,0,1,1.687-.435c.346,0,.426-.154.426-.464v-4.6c0-.282-.074-.416-.39-.442a4.183,4.183,0,0,1-1.565-7.975Z"/>
      <path id="Path_1023" data-name="Path 1023" class="cls-5" d="M116.833,96.038c.419,0,.6.086.6.554-.019,2.323,0,4.647,0,6.97v1.111c0,.554-.438.32-.714.365s-.413-.07-.41-.387c.016-1.383,0-2.762,0-4.144,0-1.312.019-2.624,0-3.94C116.283,96.134,116.427,96.035,116.833,96.038Z"/>
      <path id="Path_1024" data-name="Path 1024" class="cls-5" d="M115.262,110.276c.477,0,.589.144.579.592-.026,1.165,0,1.165-1.162,1.165H102.874c-.381,0-.522-.08-.515-.5.019-1.258,0-1.258,1.251-1.258C107.492,110.289,111.37,110.3,115.262,110.276Z"/>
      <path id="Path_1025" data-name="Path 1025" class="cls-5" d="M115.851,118.622c0,1.255.019,1.255-1.229,1.255H102.954c-.451,0-.6-.109-.586-.582.035-1.146,0-1.146,1.168-1.146h11.806C115.7,118.149,115.851,118.225,115.851,118.622Z"/>
      <path id="Path_1026" data-name="Path 1026" class="cls-5" d="M115.832,126.681c0,1.03,0,1.03-1.034,1.03H102.842c-.365,0-.49-.077-.486-.47.016-1.235,0-1.235,1.229-1.235h11.553C115.828,126.015,115.828,126.015,115.832,126.681Z"/>
      <path id="Path_1027" data-name="Path 1027" class="cls-5" d="M115.156,104.589c0,.186.061.438-.259.442s-.25-.256-.253-.438V100.56h0V96.524c0-.173-.109-.442.221-.464s.285.262.285.461Q115.163,100.553,115.156,104.589Z"/>
      <path id="Path_1028" data-name="Path 1028" class="cls-5" d="M113.483,104.624c0,.541-.371.387-.666.419-.349.038-.47-.086-.464-.448.019-1.363,0-2.727,0-4.09V96.463c0-.342.125-.454.438-.413s.688-.16.688.39Q113.476,100.537,113.483,104.624Z"/>
      <path id="Path_1029" data-name="Path 1029" d="M112.814,80.526c.019.16,0,.272-.1.32a4.964,4.964,0,0,1-1.347.442c-.109.019-.157-.09-.189-.2-.4-1.28-.8-2.579-1.2-3.869-.074-.24-.086-.445.256-.512a6,6,0,0,0,.96-.294c.234-.09.358-.074.438.2.384,1.28.784,2.56,1.181,3.824a.288.288,0,0,1,0,.09Z"/>
      <path id="Path_1030" data-name="Path 1030" class="cls-5" d="M111.21,96.518v8.065c0,.186.064.438-.253.448s-.253-.253-.256-.435V96.531c0-.189-.106-.486.266-.47S111.21,96.329,111.21,96.518Z"/>
      <path id="Path_1031" data-name="Path 1031" class="cls-5" d="M109.546,104.6c0,.525-.342.413-.64.442-.374.035-.493-.1-.486-.48.022-1.344,0-2.695,0-4.039V96.486c0-.371.134-.47.47-.438s.666-.118.662.422Q109.53,100.537,109.546,104.6Z"/>
      <path id="Path_1032" data-name="Path 1032" class="cls-5" d="M107.236,96.521V104.6c0,.186.07.445-.259.435s-.234-.24-.234-.413V96.492c0-.182-.074-.448.259-.432S107.236,96.345,107.236,96.521Z"/>
      <path id="Path_1033" data-name="Path 1033" class="cls-5" d="M105.61,104.6c0,.566-.381.416-.691.451-.381.038-.442-.147-.438-.474.016-1.347,0-2.695,0-4.042V96.489c0-.3.054-.493.41-.438.291.048.717-.173.717.416Q105.591,100.528,105.61,104.6Z"/>
      <path id="Path_1034" data-name="Path 1034" class="cls-5" d="M103.3,96.524v8.03c0,.192.1.493-.266.474s-.224-.288-.227-.467V96.534c0-.189-.106-.49.266-.47S103.293,96.351,103.3,96.524Z"/>
      <path id="Path_1035" data-name="Path 1035" class="cls-5" d="M101.635,104.6c0,.522-.32.426-.64.454-.381.032-.486-.112-.48-.486.019-1.344,0-2.691,0-4.036V96.492c0-.362.122-.48.464-.445s.64-.118.64.426Q101.613,100.534,101.635,104.6Z"/>
      <path id="Path_1036" data-name="Path 1036" d="M97.343,113.012c0,.358-.08.506-.474.506-1.251,0-1.251.022-1.251-1.239v-3.13c0-.275.09-.374.378-.39,1.344-.061,1.344-.07,1.344,1.28C97.337,111.028,97.321,112.01,97.343,113.012Z"/>
      <path id="Path_1037" data-name="Path 1037" d="M97.34,122.68c0,.349-.106.451-.458.451-1.28,0-1.28,0-1.28-1.255V118.75c0-.32.106-.435.438-.442,1.28-.026,1.28-.035,1.28,1.245C97.334,120.6,97.324,121.64,97.34,122.68Z"/>
      <path id="Path_1038" data-name="Path 1038" d="M97.34,132.278c0,.32-.1.4-.4.406-1.319.035-1.319.045-1.319-1.261V128.4c0-.32.115-.426.438-.432,1.28-.019,1.28-.032,1.28,1.239C97.337,130.23,97.324,131.254,97.34,132.278Z"/>
      <path id="Path_1039" data-name="Path 1039" d="M97.34,103.494c0,.32-.1.4-.4.413-1.319.051-1.319.061-1.319-1.28V99.648c0-.381.122-.477.493-.477,1.235,0,1.235,0,1.235,1.235v1.111C97.334,102.182,97.321,102.838,97.34,103.494Z"/>
      <path id="Path_1040" data-name="Path 1040" d="M91.714,114.526a1.2,1.2,0,0,1-.7,1.28,10.779,10.779,0,0,0-3.043,2.416,18.072,18.072,0,0,0-3.52,6c-.106.3-.221.592-.32.9-.134.451-.515.566-.96.563H64.588v-.019H51.3c-1.715,0-3.434,0-5.149-.019-.739,0-.835-.106-1.111-.826-.64-1.667-1.306-3.328-1.968-4.989-.525-1.319-1.123-2.611-1.578-3.956a4.765,4.765,0,0,1,.134-2.535c.365-1.687.675-3.383,1.024-5.072.1-.493.218-.982.32-1.479a1.259,1.259,0,0,1,1.322-.864.72.72,0,0,0,.848-.557c.227-.678.56-1.322.851-1.978a1.28,1.28,0,0,1,1.28-.851c1.213.016,2.426,0,3.639,0,.32,0,.454-.07.531-.422.211-.979.477-1.949.755-2.912a1.2,1.2,0,0,1,1.28-.922h.506a1.848,1.848,0,0,1,1.693.762c.928,1.075,1.92,2.109,2.855,3.168a.931.931,0,0,0,.778.336c1.885-.016,3.776.061,5.658-.026a8.7,8.7,0,0,1,6.02,1.92c.64.506,1.351.922,2.023,1.389s1.415.358,2.1.621a6.564,6.564,0,0,1,2.672,1.7q2.343,2.64,4.653,5.316a1.136,1.136,0,0,0,.96.426c2.375-.016,4.749,0,7.124,0C91.321,113.886,91.589,114.03,91.714,114.526Zm-3.149,1.146c.1-.08.282-.147.237-.294s-.259-.07-.394-.093a2.191,2.191,0,0,0-.355,0c-7.361,0-14.747.067-22.124.067H48.148c-1.6,0-3.232.016-4.848.016-.362,0-.454.1-.291.442s.349.8.509,1.2c.864,2.208,1.738,4.41,2.579,6.628a.826.826,0,0,0,.931.6q11.665-.022,23.33,0H82.382a.57.57,0,0,0,.659-.426,20.258,20.258,0,0,1,3.84-6.573,15.506,15.506,0,0,1,1.683-1.565Zm-7.831-1.843c.022-.163-.109-.24-.192-.32-1.078-1.235-2.17-2.451-3.236-3.7a5.968,5.968,0,0,0-2.323-1.84,10.552,10.552,0,0,0-4.106-.592c-.432,0-.39.141-.211.432,1.165,1.888,2.33,3.776,3.463,5.684a.778.778,0,0,0,.768.429h5.351a1.012,1.012,0,0,0,.486-.1Zm-8.19,0c.1-.154-.083-.288-.166-.422-1.1-1.811-2.24-3.607-3.29-5.441a1.04,1.04,0,0,0-1.062-.6c-4.445,0-8.887,0-13.332.022H53.128a.618.618,0,0,1-.23,0H44.779c-.349,0-.522.09-.57.451-.058.432-.17.854-.259,1.28-.291,1.411-.576,2.823-.877,4.231-.115.554-.093.6.5.6H57.81v-.022H72.052c.179-.022.4.042.493-.1Zm-2.24-8c-.109-.256-.349-.3-.512-.432a6.661,6.661,0,0,0-4.442-1.415q-8.34.083-16.674,0c-1.014,0-1.715.141-1.92,1.239,0,.029-.038.054-.054.083-.269.557-.246.6.39.6H69.8a.89.89,0,0,0,.522-.061Zm-13.624-3.3.064-.118c-.778-.861-1.543-1.731-2.333-2.56-.23-.246-.816-.166-.909.09a17.081,17.081,0,0,0-.6,2.323c-.032.17,0,.288.211.285,1.207-.013,2.394-.01,3.584-.01Z"/>
      <path id="Path_1041" data-name="Path 1041" class="cls-13" d="M88.053,115.281a2.191,2.191,0,0,1,.355,0c.134.022.32-.1.394.093s-.138.214-.237.294a15.506,15.506,0,0,0-1.671,1.571,20.258,20.258,0,0,0-3.84,6.573.57.57,0,0,1-.659.426H47.041a.826.826,0,0,1-.931-.6c-.842-2.218-1.715-4.42-2.579-6.628-.16-.4-.32-.81-.509-1.2s-.07-.445.291-.442c1.6,0,3.232-.016,4.848-.016H65.926"/>
      <path id="Path_1042" data-name="Path 1042" class="cls-5" d="M80.542,113.5c.083.093.214.17.192.32-.147.115-.32.074-.486.077H74.9a.778.778,0,0,1-.768-.429c-1.133-1.92-2.3-3.8-3.463-5.684-.179-.291-.221-.426.211-.432a10.552,10.552,0,0,1,4.106.592,5.969,5.969,0,0,1,2.323,1.84C78.372,111.05,79.463,112.26,80.542,113.5Z"/>
      <path id="Path_1043" data-name="Path 1043" class="cls-13" d="M72.378,113.406c.083.134.269.269.166.422s-.32.077-.48.077H57.823v.026H43.582c-.589,0-.611-.048-.5-.6.3-1.408.586-2.819.877-4.231.09-.426.2-.848.259-1.28.048-.362.221-.451.57-.451h8.119a.618.618,0,0,0,.23,0h1.565c4.445-.022,8.887,0,13.332-.022a1.04,1.04,0,0,1,1.063.6C70.147,109.8,71.274,111.594,72.378,113.406Zm-4.7-2.7c.029-.4-.157-.72-.589-.73q-1.584-.043-3.175,0a.685.685,0,0,0,.054,1.37H67.04a.6.6,0,0,0,.634-.64Zm-5.962,0a.614.614,0,0,0-.6-.726c-1.072-.032-2.147-.026-3.223,0a.6.6,0,0,0-.586.688.608.608,0,0,0,.64.675h3.072a.64.64,0,0,0,.7-.637Zm-6.026-.029a.592.592,0,0,0-.611-.7q-1.565-.038-3.13,0a.685.685,0,0,0,.054,1.37h3.031a.6.6,0,0,0,.656-.666Zm-6.679.659a.688.688,0,1,0,.022-1.373H45.959a.614.614,0,0,0-.64.726.6.6,0,0,0,.669.64H47.55c.48.01.966.022,1.453.006Z"/>
      <path id="Path_1044" data-name="Path 1044" class="cls-13" d="M69.808,105.405c.163.131.4.176.512.432a.89.89,0,0,1-.522.067H47.115c-.64,0-.659-.038-.39-.6.016-.029.048-.054.054-.083.2-1.1.9-1.248,1.92-1.239q8.34.077,16.674,0A6.675,6.675,0,0,1,69.808,105.405Z"/>
      <path id="Path_1045" data-name="Path 1045" d="M67.085,109.972c.432,0,.618.32.589.73a.6.6,0,0,1-.64.64H63.958a.685.685,0,1,1-.054-1.37C64.966,109.943,66.029,109.943,67.085,109.972Z"/>
      <path id="Path_1046" data-name="Path 1046" d="M61.126,109.975a.614.614,0,0,1,.6.726.64.64,0,0,1-.691.64H57.964a.608.608,0,0,1-.64-.675.6.6,0,0,1,.586-.688C58.962,109.949,60.038,109.943,61.126,109.975Z"/>
      <path id="Path_1047" data-name="Path 1047" class="cls-5" d="M56.76,102.41l-.064.118H53.128c-.227,0-.243-.115-.211-.285a17.081,17.081,0,0,1,.6-2.323c.093-.256.678-.336.909-.09C55.218,100.685,55.983,101.555,56.76,102.41Z"/>
      <path id="Path_1048" data-name="Path 1048" d="M55.071,109.969a.592.592,0,0,1,.611.7.6.6,0,0,1-.656.659H52a.685.685,0,1,1-.054-1.37Q53.506,109.933,55.071,109.969Z"/>
      <path id="Path_1049" data-name="Path 1049" d="M49.713,110.663a.64.64,0,0,1-.71.669c-.486.016-.96,0-1.459,0H45.982a.6.6,0,0,1-.669-.64.614.614,0,0,1,.64-.726c1.024-.019,2.048,0,3.069,0a.64.64,0,0,1,.691.7Z"/>
      <path id="Path_1050" data-name="Path 1050" class="cls-10" d="M53.16,80.638l3.316,1.245L57.3,85.4l-1.92.438-1.559-2.131-1.283-.08-1.287-2.08Z"/>
      <path id="Path_1051" data-name="Path 1051" class="cls-9" d="M124.936,61.388a.24.24,0,0,0-.118.1.256.256,0,0,0,0,.176l.115.454s.493-.067.576,0c.214.2.026.48-.134.64l-.883.877.451.6a.64.64,0,0,0,.141.15c.662.5,1.568-.566,1.863-1.037a6.433,6.433,0,0,0,.64-1.514.246.246,0,0,0,0-.134.25.25,0,0,0-.109-.122c-.346-.24-.784-.768-1.223-.784S125.3,61.2,124.936,61.388Z"/>
    </g>
  </g>
</svg>
