<svg xmlns="http://www.w3.org/2000/svg" xmlns:xlink="http://www.w3.org/1999/xlink" viewBox="0 0 160 160">
    <defs>
        <style>
            .cls-1,.cls-7{fill:#fff}.cls-12,.cls-13,.cls-2{fill:none}.cls-3{clip-path:url(#clip-path)}.cls-10,.cls-11,.cls-4,.cls-6{fill:#2b3991}.cls-15,.cls-22,.cls-4{opacity:.1}.cls-5{clip-path:url(#clip-path-2)}.cls-6{opacity:.15}.cls-7{opacity:.4}.cls-8{fill:#f2f2f2}.cls-9{fill:#cbdae3}.cls-10{opacity:.2}.cls-12,.cls-13{stroke:#535461;stroke-miterlimit:10}.cls-12{stroke-width:.166px}.cls-13{stroke-width:.336px}.cls-14{opacity:.25}.cls-15{fill:#252223}.cls-16{fill:url(#linear-gradient)}.cls-17{fill:url(#linear-gradient-2)}.cls-18{fill:url(#linear-gradient-3)}.cls-19{fill:#333}.cls-20{fill:#535461}.cls-21{opacity:.03}.cls-23{fill:#fda57d}.cls-24{fill:#f7931d}.cls-25{fill:#72351c}.cls-26{fill:#e9e9e9}.cls-27{fill:#f48681}.cls-28{opacity:.05}
        </style>
        <clipPath id="clip-path">
            <path id="Rectangle_2" d="M0 0h160v160H0z" class="cls-1" data-name="Rectangle 2" transform="translate(445 747)"/>
        </clipPath>
        <clipPath id="clip-path-2">
            <path id="Path_321" d="M93.186 31.123c-10.26-.358-20.031-3.668-29.36-7.29s-18.562-7.639-28.582-9.559c-6.442-1.235-13.8-1.408-18.994 2.048-5 3.325-6.609 9.054-7.476 14.376-.64 4-1.037 8.218.752 11.966 1.242 2.6 3.447 4.8 4.97 7.284C19.8 58.62 16.053 69.315 10.3 77.79c-2.69 3.968-5.82 7.76-7.9 11.985s-3.04 9.076-1.223 13.39 6.1 7.489 10.763 9.745c9.46 4.589 20.6 5.9 31.481 6.647 24.063 1.645 48.257.931 72.384.218 8.932-.262 17.9-.531 26.684-1.92 4.877-.768 9.921-1.984 13.441-4.922a11.271 11.271 0 0 0 2.6-14.721c-5.04-7.834-19-9.783-22.543-18.2-1.946-4.637.051-9.8 2.88-14.081 6.061-9.22 16.219-17.307 16.754-27.843.368-7.236-4.516-14.485-12.068-17.922-7.911-3.591-18.882-3.139-24.726 2.8-6.016 6.115-16.584 8.471-25.641 8.157z" class="cls-2" data-name="Path 321"/>
        </clipPath>
        <linearGradient id="linear-gradient" x1=".879" x2="1.879" y1=".107" y2=".107" gradientUnits="objectBoundingBox">
            <stop offset="0" stop-color="gray" stop-opacity=".251"/>
            <stop offset=".54" stop-color="gray" stop-opacity=".122"/>
            <stop offset="1" stop-color="gray" stop-opacity=".102"/>
        </linearGradient>
        <linearGradient id="linear-gradient-2" x1="197.582" x2="198.582" y1="-294.814" y2="-294.814" xlink:href="#linear-gradient"/>
        <linearGradient id="linear-gradient-3" x1="197.582" x2="198.582" y1="-297.014" y2="-297.014" xlink:href="#linear-gradient"/>
    </defs>
    <g id="img-piri" class="cls-3" transform="translate(-445 -747)">
        <g id="Homepage-Icons-01" transform="translate(444.783 751.117)">
            <path id="Path_317" d="M93.186 31.123c-10.26-.358-20.031-3.668-29.36-7.29s-18.562-7.639-28.582-9.559c-6.442-1.235-13.8-1.408-18.994 2.048-5 3.325-6.609 9.054-7.476 14.376-.64 4-1.037 8.218.752 11.966 1.242 2.6 3.447 4.8 4.97 7.284C19.8 58.62 16.053 69.315 10.3 77.79c-2.69 3.968-5.82 7.76-7.9 11.985s-3.04 9.076-1.223 13.39 6.1 7.489 10.763 9.745c9.46 4.589 20.6 5.9 31.481 6.647 24.063 1.645 48.257.931 72.384.218 8.932-.262 17.9-.531 26.684-1.92 4.877-.768 9.921-1.984 13.441-4.922a11.271 11.271 0 0 0 2.6-14.721c-5.04-7.834-19-9.783-22.543-18.2-1.946-4.637.051-9.8 2.88-14.081 6.061-9.22 16.219-17.307 16.754-27.843.368-7.236-4.516-14.485-12.068-17.922-7.911-3.591-18.882-3.139-24.726 2.8-6.016 6.115-16.584 8.471-25.641 8.157z" class="cls-4" data-name="Path 317"/>
            <g id="Group_94" class="cls-5" data-name="Group 94">
                <path id="Path_318" d="M152.475 66V55.276h-6.365V66h-7.543V49.409h-5.527v-12.4h-4.525V24.277h-9.383v12.734h-4.522v12.4h-5.364V34.5h-3.015v-7.54h-1.843v7.54H93.663v47.584h-8.209v-5.027h-5.027v5.028h-8.212V66H57.471V55.276h-6.365V66h-.336v20.61h-6.7V74.545h-8.047v12.061h-6.7v-37.2h-5.196v-12.4H5.028v12.4H0v65.517h160.015V66z" class="cls-6" data-name="Path 318"/>
                <path id="Rectangle_219" d="M0 0h7.037v4.023H0z" class="cls-7" data-name="Rectangle 219" transform="translate(3.184 53.263)"/>
                <path id="Rectangle_220" d="M0 0h7.037v4.023H0z" class="cls-7" data-name="Rectangle 220" transform="translate(18.933 53.263)"/>
                <path id="Rectangle_221" d="M0 0h7.037v4.023H0z" class="cls-7" data-name="Rectangle 221" transform="translate(3.184 61.139)"/>
                <path id="Rectangle_222" d="M0 0h7.037v4.023H0z" class="cls-7" data-name="Rectangle 222" transform="translate(18.933 61.139)"/>
                <path id="Rectangle_223" d="M0 0h7.037v4.023H0z" class="cls-7" data-name="Rectangle 223" transform="translate(3.184 69.014)"/>
                <path id="Rectangle_224" d="M0 0h7.037v4.023H0z" class="cls-7" data-name="Rectangle 224" transform="translate(18.933 69.014)"/>
                <path id="Rectangle_225" d="M0 0h7.037v4.023H0z" class="cls-7" data-name="Rectangle 225" transform="translate(3.184 76.89)"/>
                <path id="Rectangle_226" d="M0 0h7.037v4.023H0z" class="cls-7" data-name="Rectangle 226" transform="translate(18.933 76.89)"/>
                <path id="Rectangle_227" d="M0 0h7.037v4.023H0z" class="cls-7" data-name="Rectangle 227" transform="translate(3.184 84.763)"/>
                <path id="Rectangle_228" d="M0 0h7.037v4.023H0z" class="cls-7" data-name="Rectangle 228" transform="translate(18.933 84.763)"/>
                <path id="Rectangle_229" d="M0 0h7.037v4.023H0z" class="cls-7" data-name="Rectangle 229" transform="translate(3.184 92.639)"/>
                <path id="Rectangle_230" d="M0 0h7.037v4.023H0z" class="cls-7" data-name="Rectangle 230" transform="translate(18.933 92.639)"/>
                <path id="Rectangle_231" d="M0 0h7.037v4.023H0z" class="cls-7" data-name="Rectangle 231" transform="translate(3.184 100.515)"/>
                <path id="Rectangle_232" d="M0 0h7.037v4.023H0z" class="cls-7" data-name="Rectangle 232" transform="translate(18.933 100.515)"/>
                <path id="Rectangle_233" d="M0 0h16.421v2.01H0z" class="cls-7" data-name="Rectangle 233" transform="translate(31.837 90.629)"/>
                <path id="Rectangle_234" d="M0 0h16.421v2.01H0z" class="cls-7" data-name="Rectangle 234" transform="translate(31.837 93.644)"/>
                <path id="Rectangle_235" d="M0 0h16.421v2.01H0z" class="cls-7" data-name="Rectangle 235" transform="translate(31.837 96.662)"/>
                <path id="Rectangle_236" d="M0 0h16.421v2.01H0z" class="cls-7" data-name="Rectangle 236" transform="translate(74.73 91.634)"/>
                <path id="Rectangle_237" d="M0 0h16.421v2.01H0z" class="cls-7" data-name="Rectangle 237" transform="translate(74.73 94.649)"/>
                <path id="Rectangle_238" d="M0 0h16.421v2.01H0z" class="cls-7" data-name="Rectangle 238" transform="translate(74.73 97.667)"/>
                <path id="Rectangle_239" d="M0 0h16.421v2.01H0z" class="cls-7" data-name="Rectangle 239" transform="translate(31.837 99.676)"/>
                <path id="Rectangle_240" d="M0 0h16.421v2.01H0z" class="cls-7" data-name="Rectangle 240" transform="translate(31.837 102.691)"/>
                <path id="Rectangle_241" d="M0 0h16.421v2.01H0z" class="cls-7" data-name="Rectangle 241" transform="translate(31.837 105.709)"/>
                <path id="Rectangle_242" d="M0 0h4.525v5.863H0z" class="cls-7" data-name="Rectangle 242" transform="translate(54.287 69.853)"/>
                <path id="Rectangle_243" d="M0 0h4.525v5.863H0z" class="cls-7" data-name="Rectangle 243" transform="translate(64.172 69.853)"/>
                <path id="Rectangle_244" d="M0 0h4.525v5.863H0z" class="cls-7" data-name="Rectangle 244" transform="translate(54.287 79.236)"/>
                <path id="Rectangle_245" d="M0 0h4.525v5.863H0z" class="cls-7" data-name="Rectangle 245" transform="translate(64.172 79.236)"/>
                <path id="Rectangle_246" d="M0 0h4.525v5.863H0z" class="cls-7" data-name="Rectangle 246" transform="translate(54.287 88.619)"/>
                <path id="Rectangle_247" d="M0 0h4.525v5.863H0z" class="cls-7" data-name="Rectangle 247" transform="translate(64.172 88.619)"/>
                <path id="Rectangle_248" d="M0 0h4.525v5.863H0z" class="cls-7" data-name="Rectangle 248" transform="translate(54.287 98.003)"/>
                <path id="Rectangle_249" d="M0 0h4.525v5.863H0z" class="cls-7" data-name="Rectangle 249" transform="translate(64.172 98.003)"/>
                <path id="Rectangle_250" d="M0 0h6.033v7.706H0z" class="cls-7" data-name="Rectangle 250" transform="translate(93.663 38.352)"/>
                <path id="Rectangle_251" d="M0 0h6.033v7.706H0z" class="cls-7" data-name="Rectangle 251" transform="translate(93.663 49.409)"/>
                <path id="Rectangle_252" d="M0 0h6.033v7.706H0z" class="cls-7" data-name="Rectangle 252" transform="translate(93.663 60.47)"/>
                <path id="Rectangle_253" d="M0 0h6.033v7.706H0z" class="cls-7" data-name="Rectangle 253" transform="translate(93.663 71.527)"/>
                <path id="Rectangle_254" d="M0 0h6.033v7.706H0z" class="cls-7" data-name="Rectangle 254" transform="translate(93.663 82.587)"/>
                <path id="Rectangle_255" d="M0 0h6.033v7.706H0z" class="cls-7" data-name="Rectangle 255" transform="translate(93.663 93.644)"/>
                <path id="Rectangle_256" d="M0 0h22.453v6.535H0z" class="cls-7" data-name="Rectangle 256" transform="translate(112.679 54.101)"/>
                <path id="Rectangle_257" d="M0 0h22.453v6.535H0z" class="cls-7" data-name="Rectangle 257" transform="translate(112.766 68.176)"/>
                <path id="Rectangle_258" d="M0 0h22.453v6.535H0z" class="cls-7" data-name="Rectangle 258" transform="translate(112.849 82.251)"/>
                <path id="Rectangle_259" d="M0 0h22.453v6.535H0z" class="cls-7" data-name="Rectangle 259" transform="translate(112.932 96.326)"/>
                <path id="Rectangle_260" d="M0 0h3.015v6.369H0z" class="cls-7" data-name="Rectangle 260" transform="translate(5.028 40.529)"/>
                <path id="Rectangle_261" d="M0 0h7.54v9.719H0z" class="cls-7" data-name="Rectangle 261" transform="translate(152.475 69.853)"/>
                <path id="Rectangle_262" d="M0 0h7.54v9.719H0z" class="cls-7" data-name="Rectangle 262" transform="translate(152.475 83.928)"/>
                <path id="Rectangle_263" d="M0 0h7.54v9.719H0z" class="cls-7" data-name="Rectangle 263" transform="translate(152.475 98.003)"/>
                <path id="Path_319" d="M73.549 53.675s-2.061 1.987-3.133 1.3L68.95 58.62a16.712 16.712 0 0 0-1.194 7.041l.522 13.78 2.291-.3.765-13.07 1.146-7.946z" class="cls-8" data-name="Path 319"/>
                <rect id="Rectangle_264" width="2.599" height="6.343" class="cls-9" data-name="Rectangle 264" rx="1.299" transform="rotate(-25.71 194.231 -80.853)"/>
                <path id="Path_320" d="M55.73 75.613a1.338 1.338 0 0 1 1.786.621l1.6 3.306a1.338 1.338 0 0 1-.624 1.786 1.338 1.338 0 0 1-1.786-.64l-1.6-3.306a1.335 1.335 0 0 1 .624-1.767z" class="cls-9" data-name="Path 320"/>
                <path id="Rectangle_265" d="M0 0h2.019v4.813H0z" class="cls-8" data-name="Rectangle 265" transform="rotate(-25.71 194.957 -82.296)"/>
                <ellipse id="Ellipse_149" cx=".23" cy=".304" class="cls-8" data-name="Ellipse 149" rx=".23" ry=".304" transform="rotate(-25.71 205.596 -86.622)"/>
            </g>
            <path id="Path_322" d="M143.693 121.115c-1.194.614-2.442 1.146-3.677 1.677-4.554 1.92-9.178 3.863-14.081 4.522-9.191 1.223-18.677-2.128-27.708-.035-7.566 1.744-13.822 7.1-21.212 9.476A34.374 34.374 0 0 1 66.4 138.3h-.47c-.448 0-.89-.016-1.331-.032a72 72 0 0 1-10.916-1.373c-11.319-2.176-22.844-6.17-31.5-13.521 25.207-4.605 77.122-11.684 121.51-2.259z" class="cls-10" data-name="Path 322"/>
            <path id="Path_323" d="M8.321 104.627s-13.192 7.959 11.124 20.213c0 0 5.36-9.947-.566-18.056a8 8 0 0 0-10.359-2.269z" class="cls-11" data-name="Path 323"/>
            <path id="Path_324" d="M8.474 104.461s11.287 8.641 10.974 20.38" class="cls-12" data-name="Path 324"/>
            <path id="Path_325" d="M20.063 125.292s-4.135-14.033.774-24.364a22.143 22.143 0 0 0 1.792-13.905 37.213 37.213 0 0 0-1.968-6.535" class="cls-13" data-name="Path 325"/>
            <path id="Path_326" d="M23.708 73.968c0 1.719-3.114 6.7-3.114 6.7s-3.114-4.989-3.114-6.7a3.115 3.115 0 0 1 6.228-.147z" class="cls-11" data-name="Path 326"/>
            <path id="Path_327" d="M28.863 83.5c-.934 1.443-6.26 3.936-6.26 3.936s.1-5.879 1.03-7.325a3.117 3.117 0 0 1 5.229 3.386z" class="cls-11" data-name="Path 327"/>
            <path id="Path_328" d="M28.636 99.776c-1.536.774-7.389.24-7.389.24s3.05-5.028 4.586-5.8a3.117 3.117 0 0 1 2.807 5.562z" class="cls-11" data-name="Path 328"/>
            <path id="Path_329" d="M25.692 112.055c-1.383 1.024-7.245 1.485-7.245 1.485s2.16-5.469 3.543-6.493a3.115 3.115 0 0 1 3.744 4.98z" class="cls-11" data-name="Path 329"/>
            <path id="Path_330" d="M16.062 87.765c1.235 1.2 6.98 2.439 6.98 2.439S21.634 84.5 20.4 83.3a3.114 3.114 0 0 0-4.445 4.362l.106.106z" class="cls-11" data-name="Path 330"/>
            <path id="Path_331" d="M12.8 102.17c1.536.774 7.389.24 7.389.24s-3.05-5.028-4.589-5.8a3.114 3.114 0 1 0-2.8 5.562z" class="cls-11" data-name="Path 331"/>
            <path id="Path_332" d="M11.553 116.606c1.383 1.021 7.245 1.485 7.245 1.485s-2.157-5.469-3.54-6.493a3.115 3.115 0 1 0-3.706 5.008z" class="cls-11" data-name="Path 332"/>
            <path id="Path_333" d="M23.708 73.968c0 1.719-3.114 6.7-3.114 6.7s-3.114-4.989-3.114-6.7a3.115 3.115 0 0 1 6.228-.147z" class="cls-14" data-name="Path 333"/>
            <path id="Path_334" d="M28.863 83.5c-.934 1.443-6.26 3.936-6.26 3.936s.1-5.879 1.03-7.325a3.117 3.117 0 0 1 5.229 3.386z" class="cls-14" data-name="Path 334"/>
            <path id="Path_335" d="M28.636 99.776c-1.536.774-7.389.24-7.389.24s3.05-5.028 4.586-5.8a3.117 3.117 0 0 1 2.807 5.562z" class="cls-14" data-name="Path 335"/>
            <path id="Path_336" d="M25.692 112.055c-1.383 1.024-7.245 1.485-7.245 1.485s2.16-5.469 3.543-6.493a3.115 3.115 0 0 1 3.744 4.98z" class="cls-14" data-name="Path 336"/>
            <path id="Path_337" d="M16.062 87.765c1.235 1.2 6.98 2.439 6.98 2.439S21.634 84.5 20.4 83.3a3.114 3.114 0 0 0-4.445 4.362l.106.106z" class="cls-14" data-name="Path 337"/>
            <path id="Path_338" d="M12.8 102.17c1.536.774 7.389.24 7.389.24s-3.05-5.028-4.589-5.8a3.114 3.114 0 1 0-2.8 5.562z" class="cls-14" data-name="Path 338"/>
            <path id="Path_339" d="M11.553 116.606c1.383 1.021 7.245 1.485 7.245 1.485s-2.157-5.469-3.54-6.493a3.115 3.115 0 1 0-3.706 5.008z" class="cls-14" data-name="Path 339"/>
            <path id="Path_340" d="M149.086 121.669s-4.132-14.036.778-24.364a22.175 22.175 0 0 0 1.792-13.905 37.3 37.3 0 0 0-1.968-6.535" class="cls-13" data-name="Path 340"/>
            <path id="Path_341" d="M152.741 70.343c0 1.722-3.114 6.7-3.114 6.7s-3.114-4.986-3.114-6.7a3.115 3.115 0 1 1 6.228-.144v.144z" class="cls-11" data-name="Path 341"/>
            <path id="Path_342" d="M157.89 79.87c-.938 1.443-6.26 3.936-6.26 3.936s.1-5.879 1.024-7.319a3.114 3.114 0 1 1 5.313 3.252c-.026.045-.054.09-.083.134z" class="cls-11" data-name="Path 342"/>
            <path id="Path_343" d="M157.663 96.153c-1.536.771-7.389.237-7.389.237s3.05-5.024 4.589-5.8a3.114 3.114 0 1 1 2.8 5.562z" class="cls-11" data-name="Path 343"/>
            <path id="Path_344" d="M154.722 108.433c-1.383 1.021-7.245 1.485-7.245 1.485s2.157-5.469 3.54-6.493a3.115 3.115 0 0 1 3.706 5.008z" class="cls-11" data-name="Path 344"/>
            <path id="Path_345" d="M145.089 84.136c1.232 1.2 6.983 2.439 6.983 2.439s-1.408-5.706-2.64-6.906a3.12 3.12 0 1 0-4.343 4.48z" class="cls-11" data-name="Path 345"/>
            <path id="Path_346" d="M141.834 98.547c1.536.774 7.393.24 7.393.24s-3.053-5.018-4.573-5.8a3.114 3.114 0 1 0-2.8 5.562z" class="cls-11" data-name="Path 346"/>
            <path id="Path_347" d="M140.58 112.971c1.383 1.021 7.245 1.485 7.245 1.485s-2.157-5.469-3.54-6.493a3.115 3.115 0 0 0-3.706 5.008z" class="cls-11" data-name="Path 347"/>
            <path id="Path_348" d="M130.441 120.3s-2.221-7.54.419-13.092a11.918 11.918 0 0 0 .96-7.473 20.041 20.041 0 0 0-1.059-3.52" class="cls-13" data-name="Path 348"/>
            <path id="Path_349" d="M132.406 92.719c0 .925-1.677 3.6-1.677 3.6s-1.674-2.679-1.674-3.6a1.677 1.677 0 0 1 3.351 0z" class="cls-11" data-name="Path 349"/>
            <path id="Path_350" d="M135.171 97.84c-.5.778-3.364 2.119-3.364 2.119s.051-3.162.554-3.936a1.674 1.674 0 0 1 2.88 1.69.46.46 0 0 1-.07.127z" class="cls-11" data-name="Path 350"/>
            <path id="Path_351" d="M135.053 106.589c-.826.416-3.972.128-3.972.128s1.642-2.7 2.464-3.117a1.674 1.674 0 0 1 1.507 2.989z" class="cls-11" data-name="Path 351"/>
            <path id="Path_352" d="M133.468 113.188c-.746.55-3.895.8-3.895.8s1.159-2.938 1.9-3.488a1.677 1.677 0 0 1 1.991 2.691z" class="cls-11" data-name="Path 352"/>
            <path id="Path_353" d="M128.294 100.137c.669.64 3.751 1.309 3.751 1.309s-.755-3.066-1.418-3.709a1.677 1.677 0 1 0-2.445 2.291c.035.039.073.072.112.109z" class="cls-11" data-name="Path 353"/>
            <path id="Path_354" d="M126.54 107.876c.826.416 3.975.131 3.975.131s-1.642-2.7-2.464-3.117a1.677 1.677 0 0 0-1.511 2.989z" class="cls-11" data-name="Path 354"/>
            <path id="Path_355" d="M125.871 115.636c.742.55 3.895.8 3.895.8s-1.168-2.941-1.92-3.488a1.674 1.674 0 1 0-1.991 2.691z" class="cls-11" data-name="Path 355"/>
            <path id="Path_356" d="M44.35 32.265H43.2a.806.806 0 1 0 .074-1.6h-9.415a.806.806 0 0 0 0 1.6h1.152a.806.806 0 1 0-.074 1.6.282.282 0 0 0 .074 0h-1.6a.81.81 0 0 0-.074 1.6h9.409a.81.81 0 1 0 .074-1.6h1.543a.806.806 0 0 0 .074-1.6z" class="cls-15" data-name="Path 356"/>
            <path id="Path_357" d="M85.566 52.539h-1.152a.806.806 0 1 0 .074-1.6h-9.412a.806.806 0 0 0 0 1.6h1.152a.806.806 0 0 0-.074 1.6h-1.539a.81.81 0 0 0-.074 1.6h9.412a.81.81 0 0 0 .074-1.6h1.539a.806.806 0 1 0 .074-1.6z" class="cls-15" data-name="Path 357"/>
            <path id="Path_358" d="M150.184 34.8h-1.152a.806.806 0 1 0 .074-1.6h-9.412a.806.806 0 0 0 0 1.6h1.155a.81.81 0 0 0-.074 1.6h-1.543a.806.806 0 0 0-.074 1.6h9.412a.806.806 0 0 0 0-1.6h1.6a.81.81 0 1 0 .074-1.6z" class="cls-15" data-name="Path 358"/>
            <path id="Path_359" d="M91.849 119.227h.035S86 103.069 84.357 100.88a3.391 3.391 0 0 1-1.645-2.743L80.6 87.871l.086-.093.045-.048.051-.061a4.922 4.922 0 0 0 .7-1.1l.035-.077a5.015 5.015 0 0 0 .2-.557.573.573 0 0 0 .448-.022v-.141s-.019-.608-.019-1.562v-.87c.064-.237.118-.486.166-.749l-.086-.042v-.038l-.07-.032a32.845 32.845 0 0 1 .8-7.1c.019-.067.038-.138.061-.2a34.67 34.67 0 0 0 .838-6.97 7.315 7.315 0 0 1 .32.858 1.28 1.28 0 0 1 .317-.253l.64 5.268v6.2s-1.1 8 2.346 6.506.941-6.977.941-6.977a21.784 21.784 0 0 1 .47-4.624c.32-1.03.109-4.368-.064-6.535.336.061.531.106.531.106a3.591 3.591 0 0 0 .1-.96c.074-3.613-4.384-9.434-6.2-11.659a5.178 5.178 0 0 0-2.093-1.843L77.678 52.6a3.82 3.82 0 0 1-2.288-1.677.211.211 0 0 0-.019-.064c.074-.035.144-.067.214-.106a3.866 3.866 0 0 0 1.367-1.1 9.576 9.576 0 0 0 1.434-3.274 13.043 13.043 0 0 0 .749-4.16A4.39 4.39 0 0 0 77.29 38.6c-1.024-.64-2.448-.762-3.085-1.786a3.792 3.792 0 0 0-.5-.829.192.192 0 0 0-.154-.2l-1.751-.348a.2.2 0 0 0-.227.15v.022a10.615 10.615 0 0 0-4.512 1.149 10.458 10.458 0 0 0-1.427.835 2.888 2.888 0 0 0-1.37 1.843c-.048.39.048.79-.032 1.175-.211 1.024-1.584 1.69-1.383 2.717.134.7.925 1 1.664 1a5.569 5.569 0 0 0 3.858 6.872c.122.032.246.064.371.09a15.766 15.766 0 0 1 1.4 2.4c-.9.858-2.794 2.848-1.635 3.52L66.1 63.174l.237 6.145-1.018.909.224.275c-1.139 1.328-3.78 4.228-5.706 5a6.02 6.02 0 0 0-.8.394 3.28 3.28 0 0 1-1.155.454 3.383 3.383 0 0 0-.531.1l-.461-.96a.682.682 0 0 0-.915-.32l-.282.134-.669.32-.282.138-.211.1a.691.691 0 0 0-.32.918l.56 1.155c-.794.7-1.184 1.533-.1 2.311a2.33 2.33 0 0 0 1.429.453l.32.7a.688.688 0 0 0 .918.32l.493-.24.96-.458a.685.685 0 0 0 .32-.918l-.278-.576a11.435 11.435 0 0 0 1.7-1.635 10.78 10.78 0 0 1 2.275-1.1 24.2 24.2 0 0 0 3.725-2.24l.352 9.07a2.007 2.007 0 0 1-.266.32l.269-.192v.09q-.054.061-.115.125l.118-.086V84a1.6 1.6 0 0 1-.122.131l.125-.086.048.96.592-.979.035.979.138-.227a48.915 48.915 0 0 0-4.964 11.121 12.735 12.735 0 0 0-1.568 6.349l-3.293 15.918.064.022a10.944 10.944 0 0 1-5.549 2.24s-5.332-.157-3.84 1.018 14.721 2.9 14.721 2.9l.5-3.965.118.045v-.061l.166.061a3.812 3.812 0 0 1 .854-3.069c1.175-1.1 3.92-12.232 3.687-13.95a68.716 68.716 0 0 1 4.736-9.454l3.1 7.962 3.461 5.935s4.589 10.2 4.442 12.481c-.96 1.175-2.682 3.018-3.968 2.97 0 0-5.252 1.018-1.648 1.959s14.187-2.579 14.187-2.579zM68.893 82.744l.032-.019c-.17.253-.32.534-.528.838z" class="cls-16" data-name="Path 359"/>
            <path id="Path_360" d="M66.614 83.96l-.2.144a.807.807 0 0 0 .2-.144z" class="cls-17" data-name="Path 360"/>
            <path id="Path_361" d="M66.771 84.117l-.2.144a.96.96 0 0 0 .2-.144z" class="cls-18" data-name="Path 361"/>
            <path id="Path_362" d="M66.771 83.96l-.2.144a.96.96 0 0 0 .2-.144z" class="cls-17" data-name="Path 362"/>
            <path id="Path_363" d="M84.709 118.411s-2.752 3.9-4.586 3.821c0 0-5.12.992-1.6 1.92s13.825-2.541 13.825-2.541l-1.226-3.994z" class="cls-19" data-name="Path 363"/>
            <path id="Path_364" d="M72.4 91.34l3.9 10.014 3.386 5.815s4.624 10.276 4.32 12.264l7.361-1.184s-5.732-15.749-7.335-17.88a3.312 3.312 0 0 1-1.6-2.682l-2.074-10a3.975 3.975 0 0 0 .883-4.356 3.865 3.865 0 0 0-.2-.378C79.505 80.356 73.7 81.8 73.7 81.8z" class="cls-20" data-name="Path 364"/>
            <path id="Path_365" d="M72.4 91.34l3.9 10.014 3.386 5.815s4.624 10.276 4.32 12.264l7.361-1.184s-5.732-15.749-7.335-17.88a3.312 3.312 0 0 1-1.6-2.682l-2.074-10a3.975 3.975 0 0 0 .883-4.356 3.865 3.865 0 0 0-.2-.378C79.505 80.356 73.7 81.8 73.7 81.8z" class="cls-21" data-name="Path 365"/>
            <g id="Group_95" class="cls-22" data-name="Group 95">
                <path id="Path_366" d="M84.021 100.368a3.312 3.312 0 0 1-1.6-2.682l-2.067-10a3.975 3.975 0 0 0 .883-4.356 3.747 3.747 0 0 0-.2-.378c-.742-1.258-2.49-1.568-4.1-1.549 1.539 0 3.159.349 3.866 1.549.074.128.141.253.2.378a3.994 3.994 0 0 1-.886 4.356l2.064 10.017a3.33 3.33 0 0 0 1.6 2.679c1.6 2.141 7.335 17.883 7.335 17.883l-7.14 1.146v.038l7.361-1.184s-5.713-15.759-7.316-17.897z" data-name="Path 366"/>
            </g>
            <path id="Path_367" d="M58.885 116.721s-3.056 2.6-6.033 2.679c0 0-5.194-.15-3.744 1s14.36 2.816 14.36 2.816l.576-4.48z" class="cls-19" data-name="Path 367"/>
            <g id="Group_96" class="cls-22" data-name="Group 96">
                <path id="Path_368" d="M70.112 81.185s-5.044 7.108-7.041 14.293a12.434 12.434 0 0 0-1.53 6.189l-3.2 15.512 5.885 2.218a3.716 3.716 0 0 1 .838-2.983c1.143-1.062 3.821-11.921 3.591-13.6 0 0 3.668-9.169 7.338-12.763s5.492-4.42 6.029-7.521c.005-.001-8.622-4.174-11.91-1.345z" data-name="Path 368"/>
            </g>
            <path id="Path_369" d="M69.955 81.185s-5.044 7.108-7.041 14.293a12.4 12.4 0 0 0-1.53 6.189l-3.2 15.512 5.886 2.221a3.651 3.651 0 0 1 .838-2.983c1.159-1.062 3.818-11.921 3.591-13.6 0 0 3.668-9.169 7.335-12.763s5.495-4.42 6.033-7.521c.009-.004-8.622-4.177-11.912-1.348z" class="cls-20" data-name="Path 369"/>
            <g id="Group_97" class="cls-22" data-name="Group 97">
                <path id="Path_370" d="M73.216 80.126c3.789.045 8.506 2.327 8.506 2.327-.538 3.1-2.365 3.93-6.033 7.521s-7.335 12.756-7.335 12.756c.227 1.674-2.445 12.532-3.594 13.6a3.567 3.567 0 0 0-.851 2.88l.24.09a3.707 3.707 0 0 1 .838-2.979c1.143-1.059 3.84-11.928 3.594-13.6 0 0 3.668-9.172 7.338-12.763s5.492-4.423 6.029-7.524c.005.025-4.907-2.353-8.732-2.308z" data-name="Path 370"/>
            </g>
            <path id="Path_371" d="M66.214 70.106s-3.648 4.541-6.109 5.53a5.731 5.731 0 0 0-.784.384 3.175 3.175 0 0 1-1.127.442 2.7 2.7 0 0 0-.851.224c-1.28.589-4.234 2.176-2.285 3.584 2.445 1.757 5.732-2.291 5.732-2.291a10.6 10.6 0 0 1 2.218-1.072 36.392 36.392 0 0 0 4.583-2.823z" class="cls-23" data-name="Path 371"/>
            <path id="Path_372" d="M66.9 69.187l-1.453 1.3 2.141 2.675z" class="cls-24" data-name="Path 372"/>
            <g id="Group_98" class="cls-22" data-name="Group 98">
                <path id="Path_373" d="M66.9 69.187l-1.453 1.3 2.141 2.675z" data-name="Path 373"/>
            </g>
            <path id="Path_374" d="M70.579 53.976S67.1 56.956 68.56 57.8l-2.346 5.8.806 21.247 3.319-5.5-2.265-11.923s-.64-7.108 1.213-8.788l1.779-3.52z" class="cls-24" data-name="Path 374"/>
            <g id="Group_99" class="cls-22" data-name="Group 99">
                <path id="Path_375" d="M71.194 53.976s-3.479 2.979-2.023 3.821L66.825 63.6l.81 21.247 3.316-5.5-2.266-11.923s-.64-7.108 1.213-8.788l1.779-3.52z" data-name="Path 375"/>
            </g>
            <path id="Path_376" d="M67.894 50.846s2.829 3.437 2.752 5.441S76 52.85 76 52.85s-2.064-2.522-1.53-5.194-6.576 3.19-6.576 3.19z" class="cls-23" data-name="Path 376"/>
            <path id="Path_377" d="M84.021 68.118l.765 6.113v6.033s-1.072 7.8 2.291 6.343.931-6.8.931-6.8a21.15 21.15 0 0 1 .461-4.509c.461-1.53-.237-8.25-.237-8.25z" class="cls-23" data-name="Path 377"/>
            <g id="Group_100" class="cls-22" data-name="Group 100">
                <path id="Path_378" d="M75.271 51.573s-2.714 1.872-3.472 3.472a5.6 5.6 0 0 1-.688 2.522c-.608.765-1.223 4.586-1.376 9.169S68.9 77.447 68.9 77.447s-1.146 5.959-2.368 6.57c0 0 5.655-4.279 8.407-2.826s5.882 4.967 6.8 4.429c0 0-.221-6.7.781-10.27a3.54 3.54 0 0 1 .061-.2c1.069-3.52.381-8.321 1.6-10.388a32.131 32.131 0 0 0-.7-6.525 5.044 5.044 0 0 0-2.7-3.29l-3.4-1.648s-1.806-.273-2.11-1.726z" data-name="Path 378"/>
            </g>
            <g id="Group_101" class="cls-22" data-name="Group 101">
                <path id="Path_379" d="M75.271 51.573a14.623 14.623 0 0 0-3.325 3.627 5.558 5.558 0 0 1-.688 2.522c-.611.765-1.223 4.586-1.373 9.172s-.838 10.7-.838 10.7-1.146 5.959-2.368 6.57c0 0 5.655-4.279 8.4-2.829s5.885 4.97 6.8 4.432c0 0-.221-6.7.784-10.27l.058-.2c1.072-3.52.384-8.321 1.6-10.388a31.991 31.991 0 0 0-.707-6.525 5.04 5.04 0 0 0-2.7-3.293l-3.384-1.646s-1.955-.419-2.259-1.872z" data-name="Path 379"/>
            </g>
            <path id="Path_380" d="M75.233 51.525a13.616 13.616 0 0 0-3.287 3.52 5.558 5.558 0 0 1-.688 2.522c-.611.765-1.223 4.586-1.373 9.169s-.838 10.711-.838 10.711-1.146 5.959-2.368 6.57c0 0 5.655-4.279 8.4-2.826s5.879 4.957 6.8 4.429c0 0-.221-6.7.784-10.27l.058-.2c1.072-3.52.384-8.321 1.6-10.388a31.991 31.991 0 0 0-.707-6.525 5.04 5.04 0 0 0-2.7-3.293l-3.4-1.645a3.658 3.658 0 0 1-2.281-1.774z" class="cls-24" data-name="Path 380"/>
            <g id="Group_102" class="cls-22" data-name="Group 102">
                <path id="Path_381" d="M82.225 56.005s7.754 8.826 6.685 13.028c0 0-3.975-.915-5.044.3a8.723 8.723 0 0 0-3.366-4.425c-2.525-1.603-4.848-11.882 1.725-8.903z" data-name="Path 381"/>
            </g>
            <path id="Path_382" d="M82.225 55.852s7.754 8.826 6.685 13.032c0 0-3.975-.918-5.044.3a8.724 8.724 0 0 0-3.366-4.429c-2.525-1.604-4.848-11.883 1.725-8.903z" class="cls-24" data-name="Path 382"/>
            <g id="Group_103" class="cls-22" data-name="Group 103">
                <path id="Path_383" d="M74.66 49.358a2.479 2.479 0 0 1 .112-1.341c.534-2.682-6.57 3.2-6.57 3.2s.4.48.886 1.187a5.514 5.514 0 0 0 1.1.112c1.944.014 3.512-1.631 4.472-3.158z" data-name="Path 383"/>
            </g>
            <circle id="Ellipse_150" cx="5.425" cy="5.425" r="5.425" class="cls-23" data-name="Ellipse 150" transform="translate(64.457 41.293)"/>
            <g id="Group_104" class="cls-22" data-name="Group 104">
                <path id="Path_384" d="M65.008 45.236c-.8.106-1.818-.17-1.971-.96-.2-1 1.143-1.651 1.351-2.65.077-.374-.016-.765.029-1.146a2.811 2.811 0 0 1 1.341-1.8 10.292 10.292 0 0 1 6.842-1.822 1.565 1.565 0 0 1 .848.269 3.2 3.2 0 0 1 .544.858c.621 1 2.013 1.117 3.008 1.741a4.294 4.294 0 0 1 1.8 3.52 12.75 12.75 0 0 1-.73 4.045 9.266 9.266 0 0 1-1.4 3.2 3.127 3.127 0 0 1-3.063 1.28c.522-.374.144-1.245-.422-1.552a8.8 8.8 0 0 1-1.747-.781 3.277 3.277 0 0 1-.784-1.741 4.557 4.557 0 0 0-1.063-2.179c-1.146-1.111-3.191-.471-4.583-.282z" data-name="Path 384"/>
            </g>
            <path id="Path_385" d="M65.161 45.159c-.8.109-1.818-.166-1.971-.96-.2-1 1.143-1.651 1.347-2.65a9.068 9.068 0 0 0 .032-1.143 2.8 2.8 0 0 1 1.341-1.8 10.3 10.3 0 0 1 6.842-1.8 1.514 1.514 0 0 1 .848.269 3.107 3.107 0 0 1 .544.858c.621 1 2.01 1.117 3.005 1.741a4.292 4.292 0 0 1 1.8 3.52 12.627 12.627 0 0 1-.73 4.042 9.031 9.031 0 0 1-1.4 3.2 3.124 3.124 0 0 1-3.063 1.28c.522-.378.144-1.248-.422-1.555a8.8 8.8 0 0 1-1.747-.781 3.231 3.231 0 0 1-.794-1.741 4.548 4.548 0 0 0-1.062-2.176c-1.131-1.132-3.165-.492-4.57-.304z" class="cls-25" data-name="Path 385"/>
            <g id="Group_105" class="cls-22" data-name="Group 105">
                <circle id="Ellipse_151" cx="2.675" cy="2.675" r="2.675" data-name="Ellipse 151" transform="translate(67.933 44.161)"/>
            </g>
            <path id="Path_386" d="M73.159 39.655l.49-2.515a.186.186 0 0 0-.144-.218l-1.735-.336a.186.186 0 0 0-.218.144l-.506 2.515-1.673 6.215 3.072.6z" class="cls-9" data-name="Path 386"/>
            <circle id="Ellipse_152" cx="2.675" cy="2.675" r="2.675" class="cls-9" data-name="Ellipse 152" transform="translate(67.933 44.235)"/>
            <circle id="Ellipse_153" cx="1.754" cy="1.754" r="1.754" class="cls-26" data-name="Ellipse 153" transform="translate(68.854 45.156)"/>
            <circle id="Ellipse_154" cx=".534" cy=".534" r=".534" class="cls-27" data-name="Ellipse 154" transform="translate(70.074 46.376)"/>
            <path id="Rectangle_266" d="M0 0h.077v2.141H0z" class="cls-28" data-name="Rectangle 266" transform="rotate(-78.95 59.276 -23.612)"/>
            <g id="Group_106" class="cls-22" data-name="Group 106">
                <rect id="Rectangle_267" width="2.599" height="6.343" data-name="Rectangle 267" rx="1.299" transform="rotate(-25.71 194.231 -80.853)"/>
            </g>
        </g>
    </g>
</svg>
