<svg xmlns="http://www.w3.org/2000/svg" xmlns:xlink="http://www.w3.org/1999/xlink" viewBox="0 0 160 160">
  <defs>
    <style>
      .cls-1 {
        fill: #fff;
      }

      .cls-2 {
        clip-path: url(#clip-path);
      }

      .cls-3, .cls-4 {
        fill: #2b3991;
      }

      .cls-15, .cls-3, .cls-8 {
        opacity: 0.1;
      }

      .cls-5 {
        fill: #444053;
      }

      .cls-6 {
        fill: #f7c1a3;
      }

      .cls-7 {
        fill: #dce6f2;
      }

      .cls-9 {
        fill: #535461;
      }

      .cls-10 {
        fill: #575a89;
      }

      .cls-11 {
        fill: #f7931d;
      }

      .cls-12 {
        fill: #3d213c;
      }

      .cls-13, .cls-14 {
        fill: #333;
      }

      .cls-14, .cls-20 {
        opacity: 0.2;
      }

      .cls-16 {
        fill: #965d7b;
      }

      .cls-17 {
        fill: #e8f4ff;
      }

      .cls-18 {
        opacity: 0.05;
      }

      .cls-19 {
        fill: #a8a8a8;
      }
    </style>
    <clipPath id="clip-path">
      <rect id="Rectangle_2" data-name="Rectangle 2" class="cls-1" width="160" height="160" transform="translate(445 747)"/>
    </clipPath>
  </defs>
  <g id="img-secilmis-oteller" class="cls-2" transform="translate(-445 -747)">
    <g id="Homepage-Icons-17" transform="translate(444.783 749.383)">
      <g id="Layer_1" data-name="Layer 1" transform="translate(0 1)">
        <path id="Path_1990" data-name="Path 1990" class="cls-3" d="M93.186,31.123c-10.26-.358-20.031-3.668-29.36-7.29s-18.562-7.639-28.582-9.559c-6.442-1.235-13.8-1.408-18.994,2.048-5,3.325-6.609,9.054-7.476,14.376-.64,4-1.037,8.218.752,11.966,1.242,2.6,3.447,4.8,4.97,7.284C19.8,58.62,16.053,69.315,10.3,77.79,7.61,81.758,4.48,85.55,2.4,89.775s-3.04,9.076-1.223,13.39,6.1,7.489,10.763,9.745c9.46,4.589,20.6,5.9,31.481,6.647,24.063,1.645,48.257.931,72.384.218,8.932-.262,17.9-.531,26.684-1.92,4.877-.768,9.921-1.984,13.441-4.922a11.271,11.271,0,0,0,2.6-14.721c-5.04-7.834-19-9.783-22.543-18.2-1.946-4.637.051-9.8,2.88-14.081,6.061-9.22,16.219-17.307,16.754-27.843.368-7.236-4.516-14.485-12.068-17.922-7.911-3.591-18.882-3.139-24.726,2.8C112.811,29.081,102.243,31.437,93.186,31.123Z"/>
        <path id="Path_1991" data-name="Path 1991" class="cls-4" d="M25.6,124.748a5.489,5.489,0,0,1,4.695,1.6s-1.28,1.014-4.068-.39Z"/>
        <path id="Path_1992" data-name="Path 1992" class="cls-4" d="M25.282,124.7a5.5,5.5,0,0,0-.96,4.864s1.527-.608,1.693-3.719Z"/>
        <path id="Path_1993" data-name="Path 1993" class="cls-4" d="M23.593,120.914s1.175-2.151,5.866.861a2.652,2.652,0,0,1-2.7,1.328A3.2,3.2,0,0,1,23.593,120.914Z"/>
        <path id="Path_1994" data-name="Path 1994" class="cls-4" d="M23.289,120.76s-2.432-.282-2.669,5.293a2.639,2.639,0,0,0,2.64-1.443A3.165,3.165,0,0,0,23.289,120.76Z"/>
        <path id="Path_1995" data-name="Path 1995" class="cls-4" d="M21.877,116.315s1.37-3.8,6.337-1.095c0,0-1.136,3.479-5.828,2.384Z"/>
        <path id="Path_1996" data-name="Path 1996" class="cls-4" d="M20.341,110.641s2.583-3.84,7.159-.278c0,0-1.6,3.6-6.769,1.642Z"/>
        <path id="Path_1997" data-name="Path 1997" class="cls-4" d="M19.8,105.245s3.015-3.52,7.55,0c0,0-2.855,3.088-7.543.9Z"/>
        <path id="Path_1998" data-name="Path 1998" class="cls-4" d="M19.33,100.009s3.05-3.677,7.393-.2c0,0-3.444,3.245-7.393,1.056Z"/>
        <path id="Path_1999" data-name="Path 1999" class="cls-4" d="M19.6,95.35s3.2-4.733,7.277-1.527c0,0-3.444,4.068-7.277,2.426Z"/>
        <path id="Path_2000" data-name="Path 2000" class="cls-4" d="M20.341,89.928s3.405-4.695,7.361-1.1c0,0-4.029,4.068-7.361,1.959Z"/>
        <path id="Path_2001" data-name="Path 2001" class="cls-4" d="M21.48,85.051s4.029-4.4,7.543-2.653c0,0-4.2,4.682-7.719,3.824Z"/>
        <path id="Path_2002" data-name="Path 2002" class="cls-4" d="M22.889,80.452s4.653-5.4,7.361-3.6c0,0-3.428,4.189-7.681,4.608Z"/>
        <path id="Path_2003" data-name="Path 2003" class="cls-4" d="M24.921,75.1s4.071-4.41,7.041-3.309c0,0-3.479,4.58-7.588,4.695Z"/>
        <path id="Path_2004" data-name="Path 2004" class="cls-4" d="M26.767,70.106s4.48-4.224,6.452-3.482c0,0-3.245,4.692-6.647,4.42Z"/>
        <path id="Path_2005" data-name="Path 2005" class="cls-4" d="M28.559,65.491s3.872-5.047,5.985-4.656c0,0-2.346,4.5-5.985,5.168Z"/>
        <path id="Path_2006" data-name="Path 2006" class="cls-4" d="M30.512,59.27s3.424-3.869,5.271-3.86c0,0-2.7,5.165-5.412,5.12Z"/>
        <path id="Path_2007" data-name="Path 2007" class="cls-4" d="M31.683,55.125l3.3-8.055s.166,7.284-3.725,9.553Z"/>
        <path id="Path_2008" data-name="Path 2008" class="cls-4" d="M33.011,46.238s.547-6.721.2-7.274c0,0,2.365,5.588-.218,10.241Z"/>
        <path id="Path_2009" data-name="Path 2009" class="cls-4" d="M21.736,116.222s-3.428-2.125-5.645,3.075c0,0,3.05,2.023,6.049-1.747Z"/>
        <path id="Path_2010" data-name="Path 2010" class="cls-4" d="M20.235,110.426s-4.205-1.92-6.244,3.52c0,0,3.248,2.24,6.628-2.138Z"/>
        <path id="Path_2011" data-name="Path 2011" class="cls-4" d="M19.6,105.568s-3.011-3.52-7.543,0c0,0,2.855,3.088,7.543.9Z"/>
        <path id="Path_2012" data-name="Path 2012" class="cls-4" d="M19.224,100.009s-3.05-3.68-7.383-.2c0,0,3.44,3.245,7.393,1.056Z"/>
        <path id="Path_2013" data-name="Path 2013" class="cls-4" d="M19.6,95.481s-2.141-5.306-6.8-3.021c0,0,2.515,4.7,6.6,3.9Z"/>
        <path id="Path_2014" data-name="Path 2014" class="cls-4" d="M20.62,89.884S18.495,84.491,13.777,87c0,0,2.88,4.941,6.634,3.725Z"/>
        <path id="Path_2015" data-name="Path 2015" class="cls-4" d="M21.935,85.08s-.838-5.914-4.743-6.442c0,0,.829,6.234,4.221,7.508Z"/>
        <path id="Path_2016" data-name="Path 2016" class="cls-4" d="M22.994,80.452s-.32-7.124-3.559-7.361c0,0,.109,5.409,3.2,8.382Z"/>
        <path id="Path_2017" data-name="Path 2017" class="cls-4" d="M25.257,74.887s-.96-5.924-4.052-6.65c0,0,.384,5.738,3.748,8.1Z"/>
        <path id="Path_2018" data-name="Path 2018" class="cls-4" d="M27.126,70.147s-.032-6.17-1.92-7.076c0,0-1.171,5.585,1.373,7.863Z"/>
        <path id="Path_2019" data-name="Path 2019" class="cls-4" d="M28.7,65.421s-.262-6.356-2.218-7.252c0,0-.669,5.031,1.92,7.681Z"/>
        <path id="Path_2020" data-name="Path 2020" class="cls-4" d="M30.784,59.782s0-5.168-1.4-6.381c0,0-1.386,5.661.678,7.418Z"/>
        <path id="Path_2021" data-name="Path 2021" class="cls-4" d="M31.5,54.869l-1.354-8.6S28.3,53.307,31.571,56.428Z"/>
        <path id="Path_2022" data-name="Path 2022" class="cls-4" d="M31.769,46.321s-3.482-5.783-3.408-6.426c0,0,.368,6.061,4.749,9.079Z"/>
        <path id="Path_2023" data-name="Path 2023" class="cls-4" d="M32.179,44.612s-3.287-8.212-4.772-8.878a10.406,10.406,0,0,1,5.044,8.641Z"/>
        <path id="Path_2024" data-name="Path 2024" class="cls-5" d="M30.355,60.578l-.224-.07c2.771-9.041,3.463-14.8,1.946-16.251l.163-.17C33.846,45.611,33.19,51.314,30.355,60.578Z"/>
        <path id="Path_2025" data-name="Path 2025" class="cls-5" d="M22.722,81.742l-.32-.118c.294-.829.611-1.667.96-2.5,2.88-7.21,5.357-13.921,6.938-19.074l.288-.138c-1.6,5.168-4,12.129-6.9,19.349C23.327,80.081,23.01,80.916,22.722,81.742Z"/>
        <path id="Path_2026" data-name="Path 2026" class="cls-5" d="M29.715,131.513a45.964,45.964,0,0,1-7.681-13.761A50.852,50.852,0,0,1,19,102a59.469,59.469,0,0,1,3.613-21.048l.262.32c-5.425,15.3-3.271,28.419-.41,36.317A45.218,45.218,0,0,0,30.054,131.2Z"/>
        <ellipse id="Ellipse_221" data-name="Ellipse 221" class="cls-3" cx="62.435" cy="5.745" rx="62.435" ry="5.745" transform="translate(22.642 126.044)"/>
        <circle id="Ellipse_222" data-name="Ellipse 222" class="cls-4" cx="43.092" cy="43.092" r="43.092" transform="translate(38.036 48.862)"/>
        <path id="Path_2027" data-name="Path 2027" class="cls-6" d="M105.443,79.755l-1.571.166-.374.042s-5.028-.938-4.455-3.136c.41-1.6,3.29-.288,4.855.557.6.32,1,.579,1,.579Z"/>
        <path id="Path_2028" data-name="Path 2028" class="cls-7" d="M109.143,116.923l-1.722,1.482-.445.381-1.034.314-2.56-2.263,1.9-1.517.058-.045,1.539-1.226Z"/>
        <path id="Path_2029" data-name="Path 2029" class="cls-7" d="M136.525,125.954l-2.432.115.669,2.973.912.32,2.538-.211-.067-1.709a1.546,1.546,0,0,0-1.6-1.482Z"/>
        <path id="Path_2030" data-name="Path 2030" class="cls-8" d="M105.267,115.233a14.3,14.3,0,0,0-1.8-1.034,1.28,1.28,0,0,1,.838-.7C104.858,113.387,105.139,114.452,105.267,115.233Z"/>
        <path id="Path_2031" data-name="Path 2031" class="cls-8" d="M107.418,118.411c.106-1.242-.938-2.327-2.077-3.13l1.536-1.226,2.263,2.88Z"/>
        <path id="Path_2032" data-name="Path 2032" class="cls-9" d="M138.791,126.351c-.714,2.355-5.623,1.648-6.6.81s-1.69-5.623-1.69-5.623.269-1.376-.138-1.837-2.963-4.426-2.963-4.426a.32.32,0,0,0-.042-.035,10.736,10.736,0,0,1-.96-.915c-.787-.864-.8-1.28-.8-1.28a18.588,18.588,0,0,0-1.242-3.84,18.129,18.129,0,0,1-1.088-4.909c-.032-.374-.045-.6-.045-.6s-2.407,1.219-3.434,1.143-1.3.32-1.3.32.077.394-.509,1.021a2.765,2.765,0,0,0-.64.877,2.41,2.41,0,0,1-.454,1.351c-.438.509-.691.854-.691.854-1.4,2.535-4.823,4.727-4.823,4.727a5.028,5.028,0,0,1-.8,2.461l-1.046,1.075s-.429,1.309-1.117,1.527a9.315,9.315,0,0,0-1.536.717c2.829-3.4-4.16-6.081-4.16-6.081s1.171-1.216,1.85-1.248,1.066-.89,1.066-.89l2.327-1.571c.342-.944,3.629-3.405,3.629-3.405l1.207-2.205a12.6,12.6,0,0,1,.246-1.338c.154-.573,1.226-.742,1.226-.742a2.576,2.576,0,0,0,.544-.733c.086-.285.2-.573.2-.573s.762.093.826-.176.912-.541.912-.541a45.157,45.157,0,0,1,4.7-2.915s1.306-.765,1.13-1.178a2.243,2.243,0,0,1-.09-.259v-.022a.926.926,0,0,0-.045-.166c-.166-.64-.349-1.619-.349-1.619s6.356-3.693,8.439-2.755a2.423,2.423,0,0,1,1.152,1.837,14.387,14.387,0,0,1-.067,4.74,13.405,13.405,0,0,1-.381,1.77,19.058,19.058,0,0,0-.592,3.962s-.067,4.509-.227,5.617a2.739,2.739,0,0,0,.237,1.514,2.632,2.632,0,0,0,.269.47s-.115.762,1.1,2.157a23.085,23.085,0,0,1,2.589,4.65,19.759,19.759,0,0,1,1.562,2.947,9.8,9.8,0,0,0,.406,1.674s1.143.778,1.008,1.5,1.2,2.093,1.2,2.093S138.711,126.245,138.791,126.351Z"/>
        <path id="Path_2033" data-name="Path 2033" class="cls-8" d="M122.543,97.315s1.37.659,1.479,1.443S122.543,97.315,122.543,97.315Z"/>
        <path id="Path_2034" data-name="Path 2034" class="cls-8" d="M117.31,101.83l.749.874-.39-1.591-.822-.051Z"/>
        <path id="Path_2035" data-name="Path 2035" class="cls-8" d="M116.443,103.69c.08.064,1,2.115,1.245,2.138S116.443,103.69,116.443,103.69Z"/>
        <path id="Path_2036" data-name="Path 2036" class="cls-8" d="M131.6,97.929a13.759,13.759,0,0,1-.381,1.767,18.972,18.972,0,0,0-.6,3.965s-.064,4.506-.224,5.617a2.727,2.727,0,0,0,.237,1.511,4.225,4.225,0,0,0-1.728.506c-.749.483-.32,1.808-.32,1.808s-1.078.64-2.183,1.232c-.784-.861-.8-1.28-.8-1.28a18.523,18.523,0,0,0-1.242-3.84,18.259,18.259,0,0,1-1.085-4.909,21.761,21.761,0,0,1,1.575-3.133c.493-.688-.1-2.771-.506-3.994l-.112-.077h0l-1.338-.925h0l-.413-.278-.214-.141.163-.045,9.246-2.535A14.831,14.831,0,0,1,131.6,97.929Z"/>
        <path id="Path_2037" data-name="Path 2037" class="cls-10" d="M122.251,95.388l.64.419h0l1.347.906h0l.115.077c.41,1.219,1,3.3.506,3.994a30.473,30.473,0,0,0-1.968,4.026s2.1,8.43,1.28,9.761,4.439-1.843,4.439-1.843-.432-1.325.32-1.808a4.762,4.762,0,0,1,2-.528s.989-.17,1.034-.374a1.3,1.3,0,0,1,.339-.611c.186-.2-.538-4.084-.154-5.088s-.5-5.607-.5-5.607a1.014,1.014,0,0,1,.442-.7,1.238,1.238,0,0,1,.358-.173l.08-.022.141-.035h0c.6-.15,1.255-.282,1.4-.56l-.141-.211-.736-1.139h0a.9.9,0,0,1,.022-.32v-.067h0c.109-.723-.726-1.6-.726-1.6a4.578,4.578,0,0,1-.064-.64h0a1.562,1.562,0,0,1,.09-.64Z"/>
        <path id="Path_2038" data-name="Path 2038" class="cls-8" d="M124.613,96.995c-.07-.016,4.509.147,5.924,1.955C130.537,98.953,130.572,98.3,124.613,96.995Z"/>
        <path id="Path_2039" data-name="Path 2039" class="cls-8" d="M128.223,100.009s.915,6.564.71,7.71,1.066.406,1.066.406S131.292,98.595,128.223,100.009Z"/>
        <path id="Path_2040" data-name="Path 2040" class="cls-8" d="M134.064,97.215a.643.643,0,0,0-.032-.067c-.32-.515-.96-.624-.838-1.28h0a.423.423,0,0,1,.016-.083.96.96,0,0,0,.016-.32h0a2.921,2.921,0,0,0-.733-1.357,4.212,4.212,0,0,1-.061-.874m0,0a1.216,1.216,0,0,1,.1-.438.2.2,0,0,0,0-.214c-.17-.291-.925-.477-.925-.477l-5.12.81c-.6.208-1.181.419-1.709.624-1.578.6-2.7,1.1-2.7,1.1l.038.147c.032.141.09.358.157.608.022.086.445-.016.47.077l.157.342,1.13.32s.093.23.221.6a.319.319,0,0,0,.022.064h.093c2.135.262,5.095.682,7.722,1.213Z"/>
        <path id="Path_2041" data-name="Path 2041" class="cls-10" d="M132.518,97.811l-.08.022c-2.752-.576-5.937-1.024-8.174-1.3h0c-.141-.4-.24-.656-.24-.656l-1.687-.467-.045-.163c-.08-.291-.147-.557-.186-.71l-.038-.15s1.117-.5,2.7-1.1c.528-.2,1.107-.419,1.712-.621l5.12-.813a4.064,4.064,0,0,1,.544.192c.262.122.5.294.39.5a2.764,2.764,0,0,0-.035,1.315s.89.938.714,1.677.5.832.826,1.37S133.344,97.609,132.518,97.811Z"/>
        <path id="Path_2042" data-name="Path 2042" class="cls-6" d="M127.817,75.674s-6.721.541-5.946-.067c.384-.3.118-1.2-.243-2.029a15.169,15.169,0,0,0-.816-1.568s5.1-1.475,4.557-.64c-.16.25-.016.723.278,1.28a20.565,20.565,0,0,0,2.17,3.024Z"/>
        <path id="Path_2043" data-name="Path 2043" class="cls-8" d="M125.644,72.647c-.138.166-.5-.032-.675.106-.611.477-1.191,1.111-2.023,1.1a3.52,3.52,0,0,1-1.319-.278,14.805,14.805,0,0,0-.816-1.565s5.1-1.475,4.557-.64C125.208,71.626,125.352,72.1,125.644,72.647Z"/>
        <path id="Path_2044" data-name="Path 2044" class="cls-6" d="M126.517,70.256a3.52,3.52,0,1,1-3.469-3.568h0a3.52,3.52,0,0,1,3.469,3.546Z"/>
        <path id="Path_2045" data-name="Path 2045" class="cls-8" d="M132.2,92.639a7.111,7.111,0,0,1-1.645-.173,1.911,1.911,0,0,0-1.6.573,7.238,7.238,0,0,1-2.439.522c-.762-.118-4.1,1.629-4.1,1.629l-.141.054c-.08-.294-.147-.56-.186-.714l-.038-.15s1.117-.5,2.7-1.1c.525-.2,1.1-.419,1.709-.64l5.12-.81a3.229,3.229,0,0,1,.544.192A1.133,1.133,0,0,1,132.2,92.639Z"/>
        <path id="Path_2046" data-name="Path 2046" class="cls-8" d="M105.443,79.755l-1.571.166a19.291,19.291,0,0,1,.026-2.544c.6.32,1,.579,1,.579Z"/>
        <path id="Path_2047" data-name="Path 2047" class="cls-11" d="M126.572,73.514s-.992.32-1.552.534a27.921,27.921,0,0,1-3.36.467.378.378,0,0,1-.368.371,11.132,11.132,0,0,0-1.469.451,18.341,18.341,0,0,1-2.691,1.133,2.179,2.179,0,0,1-1.463.042s-.112.739-1.258.32-1.3.022-1.3.022a43.119,43.119,0,0,0-5.588.227,11,11,0,0,1-3.38.1s-.32,3.706.32,3.876a14.45,14.45,0,0,1,3.123.32,3.725,3.725,0,0,0,2-.141,1.319,1.319,0,0,1,.88.24,14.407,14.407,0,0,0,3.415.32s.2.045.941.262a6.238,6.238,0,0,0,2.039.029l3.04.4a11.72,11.72,0,0,1-.022,2.922,30.054,30.054,0,0,0-.045,4.612,36.412,36.412,0,0,1,.5,5.216c-.2.554,2.064-.4,2.064-.4s3.341-1.763,4.1-1.629a6.893,6.893,0,0,0,2.439-.518,1.893,1.893,0,0,1,1.6-.576,7.082,7.082,0,0,0,1.642.17s.243-1.171-1.235-1.338c0,0-.64-.442-.022-1.235s-.368-2.816-.368-2.816-.32-.829-.15-1.175a20.347,20.347,0,0,0-.2-3.4,12.229,12.229,0,0,0-.621-4.026c-.621-1.2-1.043-3.351-1.757-3.668a3.805,3.805,0,0,1-1.261-1.1Z"/>
        <path id="Path_2048" data-name="Path 2048" class="cls-8" d="M122.834,82.968s4.356,1.936,5.527,3.5S122.834,82.968,122.834,82.968Z"/>
        <path id="Path_2049" data-name="Path 2049" class="cls-8" d="M124.556,86.29s5.264,3.063,4.906,3.84S124.556,86.29,124.556,86.29Z"/>
        <path id="Path_2050" data-name="Path 2050" class="cls-8" d="M125.417,89.368a9.535,9.535,0,0,1,2.24,1.207C128,91.01,125.417,89.368,125.417,89.368Z"/>
        <path id="Path_2051" data-name="Path 2051" class="cls-8" d="M116.7,77.428s4.026,2.157,3.335,3.034S116.7,77.428,116.7,77.428Z"/>
        <path id="Path_2052" data-name="Path 2052" class="cls-8" d="M115.089,78.948a16.419,16.419,0,0,1,.675,1.8C115.78,81.012,114.551,79.166,115.089,78.948Z"/>
        <path id="Path_2053" data-name="Path 2053" class="cls-8" d="M112.391,79.367c0,.083,2.1,1.367,1.232,1.706S112.391,79.367,112.391,79.367Z"/>
        <path id="Path_2054" data-name="Path 2054" class="cls-8" d="M113.985,105.261a2.438,2.438,0,0,0,.96,1.248C115.627,106.871,113.985,105.261,113.985,105.261Z"/>
        <path id="Path_2055" data-name="Path 2055" class="cls-8" d="M107.7,111.37c0,.678-.125,2.839.429,3.072S107.7,111.37,107.7,111.37Z"/>
        <path id="Path_2056" data-name="Path 2056" class="cls-8" d="M109.236,113.291s1.28,2.141.829,2.5-.934-.518-.934-.518Z"/>
        <path id="Path_2057" data-name="Path 2057" class="cls-8" d="M131.772,117.931a7.1,7.1,0,0,0,1.562.125C134.182,118.027,131.772,117.931,131.772,117.931Z"/>
        <path id="Path_2058" data-name="Path 2058" class="cls-8" d="M131.11,116.891a4.994,4.994,0,0,0,2.119,0C133.788,116.6,131.11,116.891,131.11,116.891Z"/>
        <path id="Path_2059" data-name="Path 2059" class="cls-8" d="M130.5,115.233s1.562.128,1.879-.4S130.5,115.233,130.5,115.233Z"/>
        <path id="Path_2060" data-name="Path 2060" class="cls-8" d="M130.054,114.366s1.5.25,1.751-.1S130.054,114.366,130.054,114.366Z"/>
        <path id="Path_2061" data-name="Path 2061" class="cls-8" d="M128.594,111.217s1.616.762,1.792,1.2S128.594,111.217,128.594,111.217Z"/>
        <path id="Path_2062" data-name="Path 2062" class="cls-8" d="M126.517,70.256a3.52,3.52,0,0,1-1.354,2.711.414.414,0,0,1-.026-.054c-.154-.32-.2-.7-.32-1.027a.5.5,0,0,0-.25-.285c-.224-.09-.451.118-.6.3s-.371.4-.6.32a.579.579,0,0,1-.278-.294,3.056,3.056,0,0,1-.49-1.341,5.791,5.791,0,0,0,0-.707,1.5,1.5,0,0,0-.723-.986,8.9,8.9,0,0,0-1.152-.56,1.6,1.6,0,0,1-.486-.32,3.52,3.52,0,0,1,6.285,2.24Z"/>
        <path id="Path_2063" data-name="Path 2063" class="cls-12" d="M119.794,67.507c-.083.2.24.182.381.349a1.574,1.574,0,0,0,.544.368,9.108,9.108,0,0,1,1.152.56,1.52,1.52,0,0,1,.723.989,6.456,6.456,0,0,1,0,.7,3.072,3.072,0,0,0,.49,1.341.579.579,0,0,0,.278.294c.227.083.448-.125.6-.32s.374-.39.6-.3a.493.493,0,0,1,.246.285c.141.32.182.7.32,1.027a.893.893,0,0,0,.851.576.739.739,0,0,0,.522-.384,1.312,1.312,0,0,0,.141-.64,2.515,2.515,0,0,1,.016-.515,2.019,2.019,0,0,1,.406-.733,3.4,3.4,0,0,0,.618-1.559,2.388,2.388,0,0,0-.394-1.6,3.411,3.411,0,0,1-.477-.7c-.045-.118-.067-.246-.1-.368a1.824,1.824,0,0,0-1.546-1.274c-.582-.054-1.162.17-1.747.163-.682,0-1.386-.32-2.019-.083a2.007,2.007,0,0,0-.746.56,5.546,5.546,0,0,0-.861,1.258"/>
        <path id="Path_2064" data-name="Path 2064" class="cls-13" d="M105.015,120.264l-.08.058s.3.522-.41,1.258c-.32.342-1.037.186-1.693-.074a6.436,6.436,0,0,1-2.1-1.386c-1.226-1.2-3.712-3.738-3.959-4.749-.141-.582.352-.746,1.05-.71a11.556,11.556,0,0,1,2.794.64,3.811,3.811,0,0,0,2.64-.538,2.278,2.278,0,0,1,.2-.557,1.28,1.28,0,0,1,.838-.7c.547-.109.826.96.96,1.731a.432.432,0,0,0,0,.093c.061.387.083.682.083.682.96-.067,1.379,1.338,1.328,2.058s.282.726.282.726Z"/>
        <path id="Path_2065" data-name="Path 2065" class="cls-14" d="M104.935,120.331s.3.518-.41,1.258c-.32.342-1.037.186-1.693-.077a6.378,6.378,0,0,1-2.1-1.383c-1.226-1.2-3.712-3.738-3.959-4.749-.141-.586.352-.746,1.05-.71a3.64,3.64,0,0,0,.579,1.824c.64.73,2.423,3.184,4.669,3.2a3.488,3.488,0,0,1,1.943.56Z"/>
        <path id="Path_2066" data-name="Path 2066" class="cls-8" d="M100.873,118s2.163-1.655,3.984-.909A9.168,9.168,0,0,0,100.873,118Z"/>
        <path id="Path_2067" data-name="Path 2067" class="cls-8" d="M103.328,117.6a24.253,24.253,0,0,0,2.48.656A6.543,6.543,0,0,0,103.328,117.6Z"/>
        <path id="Path_2068" data-name="Path 2068" class="cls-8" d="M133.558,122.571s2.483.051,2.56.614-.928.531-.928.531Z"/>
        <path id="Path_2069" data-name="Path 2069" class="cls-13" d="M138.378,129.862v.086s.534.019.755.9c.1.419-.349.877-.854,1.258a5.735,5.735,0,0,1-2.035.941c-1.491.362-4.583,1.056-5.463.771-.509-.166-.4-.618-.045-1.133a10.3,10.3,0,0,1,1.8-1.815,3.422,3.422,0,0,0,.838-2.256s-.73-.666-.464-1.389,2.4.378,2.4.378c.4-.765,1.661-.419,2.183-.038s.682.131.682.131Z"/>
        <path id="Path_2070" data-name="Path 2070" class="cls-14" d="M138.387,129.948s.534.019.755.9c.1.419-.349.877-.854,1.258a5.735,5.735,0,0,1-2.035.941c-1.491.362-4.583,1.056-5.463.771-.509-.166-.4-.618-.045-1.133a3.268,3.268,0,0,0,1.658.419c.848-.141,3.556-.339,4.634-2.026a3.1,3.1,0,0,1,1.341-1.21Z"/>
        <path id="Path_2071" data-name="Path 2071" class="cls-8" d="M134.713,131.939s-.237-2.419,1.187-3.45A8.253,8.253,0,0,0,134.713,131.939Z"/>
        <path id="Path_2072" data-name="Path 2072" class="cls-8" d="M135.568,129.891a18.414,18.414,0,0,0,1.664-1.575C137.43,128,135.613,129.548,135.568,129.891Z"/>
        <path id="Path_2073" data-name="Path 2073" class="cls-8" d="M132.329,93.874a5.494,5.494,0,0,1-3.261.592C127.7,94.079,132.329,93.874,132.329,93.874Z"/>
        <path id="Path_2074" data-name="Path 2074" class="cls-8" d="M133,95.839s-.3.531-2.147.4S133,95.839,133,95.839Z"/>
        <g id="Group_226" data-name="Group 226" class="cls-15">
          <path id="Path_2075" data-name="Path 2075" d="M126.994,71.235l.077-.109c.058-.083.112-.17.163-.256a2.758,2.758,0,0,0-.24.365Z"/>
          <path id="Path_2076" data-name="Path 2076" class="cls-6" d="M126.21,73.05a.9.9,0,0,1-.851-.576c-.154-.32-.192-.7-.32-1.027a.493.493,0,0,0-.246-.285c-.227-.086-.451.122-.6.32s-.371.394-.6.32a.563.563,0,0,1-.282-.294,3.06,3.06,0,0,1-.49-1.338,6.517,6.517,0,0,0,0-.707,1.511,1.511,0,0,0-.723-.989,9.106,9.106,0,0,0-1.152-.557,1.542,1.542,0,0,1-.541-.371c-.141-.166-.467-.147-.381-.346.064-.128.141-.253.208-.378a5.761,5.761,0,0,0-.445.7c-.086.2.237.179.378.349a1.575,1.575,0,0,0,.544.368,9.547,9.547,0,0,1,1.152.557,1.507,1.507,0,0,1,.71.966,5.792,5.792,0,0,1,0,.707,3.072,3.072,0,0,0,.49,1.341.579.579,0,0,0,.278.294c.23.08.448-.128.6-.32s.378-.39.6-.32a.493.493,0,0,1,.246.285c.138.32.182.7.336,1.027a.9.9,0,0,0,.851.576.739.739,0,0,0,.522-.384,1.128,1.128,0,0,0,.058-.128A.7.7,0,0,1,126.21,73.05Z"/>
        </g>
        <path id="Path_2077" data-name="Path 2077" class="cls-8" d="M121.573,74.781s1.6-.08,2.679-.045a6.8,6.8,0,0,0,2.653-.826"/>
        <rect id="Rectangle_474" data-name="Rectangle 474" class="cls-16" width="2.49" height="3.888" transform="translate(31.657 73.392)"/>
        <rect id="Rectangle_475" data-name="Rectangle 475" class="cls-8" width="2.49" height="3.888" transform="translate(31.657 73.392)"/>
        <rect id="Rectangle_476" data-name="Rectangle 476" class="cls-17" width="2.266" height="3.05" transform="translate(25.372 125.522)"/>
        <path id="Path_2078" data-name="Path 2078" class="cls-6" d="M31.936,73.45a3.176,3.176,0,0,1,1.325,2.487,3.249,3.249,0,0,1-.531,1.248l.554-.058c.285-.038.659-.086,1.053-.147.32-.048.672-.106,1-.166.89-.163,1.6-.362,1.418-.541a.557.557,0,0,1-.1-.474,4.448,4.448,0,0,1,.32-1.05c.042-.112.09-.221.138-.32.2-.47.4-.838.4-.838s-1.9-.141-3.492-.2c-.544-.022-1.053-.038-1.44-.042h-.15C31.949,73.328,31.718,73.37,31.936,73.45Z"/>
        <path id="Path_2079" data-name="Path 2079" class="cls-9" d="M39.921,99.619s-.278,5.063-1.319,7.3-2.391,6.573-2.391,6.573a13.393,13.393,0,0,1-1.2,2.672,2.779,2.779,0,0,0-.659,1.386,24.487,24.487,0,0,1-2.3,4.874,9.292,9.292,0,0,0-1.319,2.989s-3.584,1.507-3.962,1.319.723-4.052.723-4.052-.346-4.586,1.226-6.186a12.522,12.522,0,0,0,2.423-4.244s.25-4.09.32-4.749.691-2.957.691-2.957a12.837,12.837,0,0,0-.029-2.88C31.913,101.2,39.921,99.619,39.921,99.619Z"/>
        <path id="Path_2080" data-name="Path 2080" class="cls-18" d="M39.921,99.619s-.278,5.063-1.319,7.3-2.391,6.573-2.391,6.573a13.393,13.393,0,0,1-1.2,2.672,2.779,2.779,0,0,0-.659,1.386,24.487,24.487,0,0,1-2.3,4.874,9.292,9.292,0,0,0-1.319,2.989s-3.584,1.507-3.962,1.319.723-4.052.723-4.052-.346-4.586,1.226-6.186a12.522,12.522,0,0,0,2.423-4.244s.25-4.09.32-4.749.691-2.957.691-2.957a12.837,12.837,0,0,0-.029-2.88C31.913,101.2,39.921,99.619,39.921,99.619Z"/>
        <path id="Path_2081" data-name="Path 2081" class="cls-5" d="M30.329,125.221l.1,2.717a1.663,1.663,0,0,0,.109,1.338c.387.5.486,1.165,1.338,1.165s3.978-.662,3.629.221-3.287,2.013-3.77,2.042-6.081.189-6.081.189a1.586,1.586,0,0,1-.32-1.335,27.514,27.514,0,0,0,.442-3.792S30.14,124.453,30.329,125.221Z"/>
        <path id="Path_2082" data-name="Path 2082" class="cls-18" d="M30.355,125.2l.093,2.72a1.663,1.663,0,0,0,.109,1.338c.387.5.49,1.165,1.338,1.165s3.978-.662,3.632.218-3.287,2.013-3.773,2.045-6.081.189-6.081.189a1.613,1.613,0,0,1-.32-1.338,28.385,28.385,0,0,0,.435-3.789S30.166,124.424,30.355,125.2Z"/>
        <path id="Path_2083" data-name="Path 2083" class="cls-9" d="M25.183,127.317c.378.189,3.959-1.328,3.959-1.328A9.292,9.292,0,0,1,30.464,123a25.114,25.114,0,0,0,2.295-4.877,2.917,2.917,0,0,1,.659-1.383,13.391,13.391,0,0,0,1.2-2.675s1.351-4.34,2.391-6.57a22.8,22.8,0,0,0,1.229-6.1c.064-.72.09-1.194.09-1.194s-8.02,1.536-7.8,2.013a2.947,2.947,0,0,1,.106.96c0,.858-.074,1.939-.074,1.939a29.675,29.675,0,0,0-.691,2.957c-.051.662-.32,4.749-.32,4.749a12.552,12.552,0,0,1-2.423,4.244c-1.571,1.6-1.226,6.2-1.226,6.2S24.812,127.129,25.183,127.317Z"/>
        <path id="Path_2084" data-name="Path 2084" class="cls-8" d="M33.6,105.584s-1.635-.442-2.2.061S33.6,105.584,33.6,105.584Z"/>
        <path id="Path_2085" data-name="Path 2085" class="cls-8" d="M33.581,107.658s-2.579-.557-2.611.253S33.581,107.658,33.581,107.658Z"/>
        <path id="Path_2086" data-name="Path 2086" class="cls-8" d="M32.541,109.927s-.886.752-1.443.5S32.541,109.927,32.541,109.927Z"/>
        <path id="Path_2087" data-name="Path 2087" class="cls-8" d="M30.153,114.011s1.792.662,1.383,1.354-.723.787-.88.6A12.856,12.856,0,0,1,30.153,114.011Z"/>
        <path id="Path_2088" data-name="Path 2088" class="cls-5" d="M28.735,125.807l.1,2.72a1.656,1.656,0,0,0,.109,1.335c.387.5.49,1.165,1.338,1.165s3.978-.659,3.632.221-3.287,2.013-3.773,2.045-6.081.189-6.081.189a1.59,1.59,0,0,1-.32-1.338,27.531,27.531,0,0,0,.442-3.789S28.547,125.036,28.735,125.807Z"/>
        <path id="Path_2089" data-name="Path 2089" class="cls-8" d="M27.823,129.455s-.077.534-1.76.016S27.823,129.455,27.823,129.455Z"/>
        <path id="Path_2090" data-name="Path 2090" class="cls-8" d="M24.758,129.849s-.378.518.96.755S24.758,129.849,24.758,129.849Z"/>
        <path id="Path_2091" data-name="Path 2091" class="cls-8" d="M25.119,129.439s1.322,1.149,1.728,1.149"/>
        <path id="Path_2092" data-name="Path 2092" class="cls-8" d="M32.419,73.328c.586,1.059,1.655.877,3.005,1.779.461.32,1.082-.131,1.546-.371.243-.608.541-1.162.541-1.162S33.853,73.316,32.419,73.328Z"/>
        <path id="Path_2093" data-name="Path 2093" class="cls-6" d="M32,71.427a3.412,3.412,0,1,0,0-.032Z"/>
        <path id="Path_2094" data-name="Path 2094" class="cls-8" d="M30.531,102.218a3.1,3.1,0,0,1,.1.96,11.566,11.566,0,0,1,7.6-1.77c.064-.723.093-1.2.093-1.2S30.31,101.747,30.531,102.218Z"/>
        <path id="Path_2095" data-name="Path 2095" class="cls-11" d="M28.732,99.625a6.884,6.884,0,0,0,1.28,3.693,11.171,11.171,0,0,1,10.318-1.664s.288-1.9.4-4.071a23.974,23.974,0,0,0-.022-3.322c-.179-1.92-1.331-5.741-1.111-9.153.1-1.5.678-2.9.659-4.058,0-.4-.022-.771-.054-1.1a4.442,4.442,0,0,0-.17-.893c-.32-1.094-1.05-1.443-1.779-2.128a6.669,6.669,0,0,0-1.6-1.143,3.2,3.2,0,0,0-3.4.147,3.841,3.841,0,0,0-.538.458,4.974,4.974,0,0,0-.57.7c-.029.038-.058.083-.083.122a4.445,4.445,0,0,0-.413,1.194,46.758,46.758,0,0,0-.749,5.412,46.17,46.17,0,0,0-.368,6.884,7.533,7.533,0,0,0,.211,1.514,4.542,4.542,0,0,1-1.354,4.16,6.778,6.778,0,0,0-.659,3.248Z"/>
        <path id="Path_2096" data-name="Path 2096" class="cls-6" d="M50.594,88.143s.32-.048.8-.141c1.229-.243,3.424-.816,3.242-1.754-.157-.819-1.639-.685-2.714-.477a11.331,11.331,0,0,0-1.13.282Z"/>
        <path id="Path_2097" data-name="Path 2097" class="cls-8" d="M34.31,81.659c.659.506,2.295,1.888,3.552,2.88.707.547,1.7,1.2,2.423,1.661.1-1.5.166-2.935.147-4.087a18.256,18.256,0,0,1-1.4-1.789,7.822,7.822,0,0,0-3.68-2.077C33.779,77.886,33.651,81.153,34.31,81.659Z"/>
        <path id="Path_2098" data-name="Path 2098" class="cls-8" d="M50.594,88.143s.32-.048.8-.141l.528-2.24a11.633,11.633,0,0,0-1.13.278Z"/>
        <path id="Path_2099" data-name="Path 2099" class="cls-17" d="M35.35,77.982a7.771,7.771,0,0,1,3.68,2.074c1.322,1.539.838.838,3.556,2.611a15.557,15.557,0,0,0,5.546,1.741,13.022,13.022,0,0,1,3.1.877l.506.211-.784,3.338s-.5-.346-3.428-.378a15.682,15.682,0,0,1-6.26-1.92s-2.138-1.28-3.4-2.266-2.88-2.362-3.556-2.864S33.779,77.636,35.35,77.982Z"/>
        <path id="Path_2100" data-name="Path 2100" class="cls-8" d="M31.654,78.66c.458.278,1.014.163,1.677-.659,1.786-2.224,4.749,0,6.721,1.312-.32-1.094-1.053-1.447-1.779-2.128-2.109-1.984-4.48-2.24-6.113.16a1.369,1.369,0,0,0-.083.122A4.231,4.231,0,0,0,31.654,78.66Z"/>
        <path id="Path_2101" data-name="Path 2101" class="cls-11" d="M31.654,78.407c.458.282,1.014.166,1.677-.656l.051-.064a2.474,2.474,0,0,1,.96-.717,2.423,2.423,0,0,1,1-.166c1.575.051,3.373,1.36,4.708,2.24C39.729,77.95,39,77.6,38.269,76.916a6.669,6.669,0,0,0-1.6-1.143,3.2,3.2,0,0,0-3.4.147,3.841,3.841,0,0,0-.538.458,4.973,4.973,0,0,0-.57.7,1.369,1.369,0,0,0-.083.122A4.231,4.231,0,0,0,31.654,78.407Z"/>
        <path id="Path_2102" data-name="Path 2102" class="cls-8" d="M28.732,99.372a6.9,6.9,0,0,0,1.28,3.7A11.167,11.167,0,0,1,40.33,101.4s.288-1.9.4-4.068c-2.074-.019-7.982.029-9.963,1.117a13.059,13.059,0,0,1-2.035.922Z"/>
        <path id="Path_2103" data-name="Path 2103" class="cls-17" d="M28.732,99.625a6.884,6.884,0,0,0,1.28,3.693,11.171,11.171,0,0,1,10.318-1.664s.288-1.9.4-4.071c-2.074-.019-7.982.032-9.963,1.117a13.077,13.077,0,0,1-2.035.925Z"/>
        <path id="Path_2104" data-name="Path 2104" class="cls-8" d="M30.537,90.706a4.087,4.087,0,0,0,.506-.624,8.6,8.6,0,0,0,1.075-6.721,2.7,2.7,0,0,1-.08-1.523c.25-.666,1.03-1.014,1.386-1.635a3.625,3.625,0,0,0-.042-2.535.5.5,0,0,0-.019-.1c-.029-.157-.054-.32-.07-.47a6.541,6.541,0,0,1,.288-2.8l.048-.141a4.247,4.247,0,0,1,.387-.806,2.32,2.32,0,0,1,1.367-1.1,1.136,1.136,0,0,0,.47-.176c.352-.32-.051-.838-.131-1.28a1.351,1.351,0,0,1,.813-1.309,7.473,7.473,0,0,1,1.341-.467,3.431,3.431,0,0,0-5.3,4.308h-.154c-.47,0-.7.038-.483.122.6.23.755,1.92.787,2.941a4.973,4.973,0,0,0-.57.7l-.083.125a4.4,4.4,0,0,0-.422,1.2,46.647,46.647,0,0,0-.749,5.408A46.467,46.467,0,0,0,30.537,90.706Z"/>
        <path id="Path_2105" data-name="Path 2105" class="cls-12" d="M38.4,67.971c.256.3-.16.71-.541.848a10.817,10.817,0,0,0-1.6.55,1.355,1.355,0,0,0-.813,1.306c.083.454.483.979.131,1.28a1.085,1.085,0,0,1-.47.179,2.777,2.777,0,0,0-1.751,1.92,6.458,6.458,0,0,0-.266,3.405c.17.886.512,1.847.061,2.637-.355.621-1.139.96-1.389,1.635a2.73,2.73,0,0,0,.08,1.523,8.681,8.681,0,0,1-1.075,6.721,3.076,3.076,0,0,1-1.008,1,3.424,3.424,0,0,1-1.92.291,10.241,10.241,0,0,1-2.154-.378,3.223,3.223,0,0,0,1.043-1.92c-.64-.2-1.418-.074-1.962-.467-.758-.544-.554-1.722,0-2.451a25.49,25.49,0,0,0,1.869-2.042c1.28-2.186-.816-5.12.32-7.386.294-.586.79-1.069,1.027-1.674a5.834,5.834,0,0,0,.131-2.311,9.355,9.355,0,0,1,1.046-4.624,5.242,5.242,0,0,1,1.879-2.147,2.957,2.957,0,0,1,2.807-.2c.384.2.7.5,1.1.675.762.32,1.728.154,2.4.64s.365,1.1,1.207,1.117"/>
        <path id="Path_2106" data-name="Path 2106" class="cls-8" d="M34.97,91.769a16.3,16.3,0,0,1-2.458,2.7C31.033,95.535,34.97,91.769,34.97,91.769Z"/>
        <path id="Path_2107" data-name="Path 2107" class="cls-8" d="M35.623,88.821s-1.882,3.93-4.093,4.5S35.623,88.821,35.623,88.821Z"/>
        <path id="Path_2108" data-name="Path 2108" class="cls-8" d="M39.1,98.361a9.358,9.358,0,0,0-.5,2.138C38.74,100.665,39.1,98.361,39.1,98.361Z"/>
        <path id="Path_2109" data-name="Path 2109" class="cls-8" d="M37.888,98.444a9.358,9.358,0,0,0-.5,2.138C37.524,100.749,37.888,98.444,37.888,98.444Z"/>
        <path id="Path_2110" data-name="Path 2110" class="cls-8" d="M36.506,98.4A9.525,9.525,0,0,0,36,100.541C36.135,100.707,36.506,98.4,36.506,98.4Z"/>
        <path id="Path_2111" data-name="Path 2111" class="cls-8" d="M29.788,99.961a9.981,9.981,0,0,0,.6,2.115C30.576,102.163,29.788,99.961,29.788,99.961Z"/>
        <path id="Path_2112" data-name="Path 2112" class="cls-8" d="M32.134,99.081a10.174,10.174,0,0,0,.6,2.115C32.918,101.283,32.134,99.081,32.134,99.081Z"/>
        <path id="Path_2113" data-name="Path 2113" class="cls-8" d="M30.793,99.67a10.174,10.174,0,0,0,.6,2.115C31.577,101.872,30.793,99.67,30.793,99.67Z"/>
        <path id="Path_2114" data-name="Path 2114" class="cls-8" d="M42.67,83.749c-.106.019.32,1.024-.883,1.088S42.67,83.749,42.67,83.749Z"/>
        <path id="Path_2115" data-name="Path 2115" class="cls-8" d="M50.7,86.283a2.318,2.318,0,0,1-1.216,1.152C48.728,87.627,50.7,86.283,50.7,86.283Z"/>
        <path id="Path_2116" data-name="Path 2116" class="cls-8" d="M47.073,85.675s1,1.05-.4,1.28S47.073,85.675,47.073,85.675Z"/>
        <path id="Path_2117" data-name="Path 2117" class="cls-8" d="M39.082,81.649s-2.055-.64-2.375-.166S39.082,81.649,39.082,81.649Z"/>
        <path id="Path_2118" data-name="Path 2118" class="cls-8" d="M35.488,84.225a16.3,16.3,0,0,1-2.458,2.7C31.552,87.992,35.488,84.225,35.488,84.225Z"/>
        <g id="Group_227" data-name="Group 227" class="cls-15">
          <path id="Path_2119" data-name="Path 2119" d="M34.262,66.016a9.919,9.919,0,0,1-1-.618,2.282,2.282,0,0,1,.528.2c.3.157.563.378.854.547A2.375,2.375,0,0,1,34.262,66.016Z"/>
          <path id="Path_2120" data-name="Path 2120" d="M38.5,68.022h-.09a.336.336,0,0,0-.064-.109Z"/>
          <path id="Path_2121" data-name="Path 2121" d="M26.041,88.648a.643.643,0,0,1-.029.131,2.707,2.707,0,0,1-1.3-.339,13.172,13.172,0,0,1,1.328.208Z"/>
          <path id="Path_2122" data-name="Path 2122" d="M27.171,90.949a3.4,3.4,0,0,0,1.92-.294,3.066,3.066,0,0,0,.992-1.011,8.577,8.577,0,0,0,1.075-6.7,2.731,2.731,0,0,1-.08-1.523c.25-.669,1.034-1.018,1.389-1.635.451-.79.106-1.751-.064-2.637a6.493,6.493,0,0,1,.266-3.405,2.852,2.852,0,0,1,1.754-1.92,1.079,1.079,0,0,0,.47-.176c.352-.32-.048-.838-.131-1.28a1.344,1.344,0,0,1,.813-1.306,11.579,11.579,0,0,1,1.6-.55c.339-.122.7-.458.6-.742h.09l-.15-.112a.3.3,0,0,1,.061.106c-.726-.061-.467-.64-1.117-1.117L36.6,66.6a1.92,1.92,0,0,1,.7.294c.64.464.39,1.05,1.117,1.117.1.278-.269.621-.6.742a10.766,10.766,0,0,0-1.6.547,1.354,1.354,0,0,0-.813,1.309c.083.451.483.976.131,1.28a1.133,1.133,0,0,1-.474.176,2.8,2.8,0,0,0-1.751,1.92A6.516,6.516,0,0,0,33.04,77.4c.17.883.512,1.847.061,2.634-.355.621-1.136.96-1.386,1.635a2.7,2.7,0,0,0,.08,1.523,8.645,8.645,0,0,1-1.075,6.7,3.1,3.1,0,0,1-1.014,1.014,3.459,3.459,0,0,1-1.92.294,10.241,10.241,0,0,1-2.173-.4l.074-.07a10.258,10.258,0,0,0,1.485.214Z"/>
        </g>
        <path id="Path_2123" data-name="Path 2123" class="cls-4" d="M124.492,38.1s-11.758-.707-10.372,7.534a2,2,0,0,0,1.043,2.115s.022-.608,1.207-.4a5.338,5.338,0,0,0,1.28.061,2.647,2.647,0,0,0,1.565-.64h0S122.52,45.4,123.8,40c0,0,.96-1.178.915-1.482l-1.984.848a3.532,3.532,0,0,1,.138,2.621s-.064-2.56-.445-2.515c-.077,0-1.034.5-1.034.5s1.168,2.5.282,4.308c0,0,.32-3.072-.64-4.128l-1.4.819s1.367,2.579.442,4.679c0,0,.237-3.223-.733-4.48l-1.28.986s1.3,2.56.512,4.288c0,0-.1-3.754-.774-4.039a7.926,7.926,0,0,0-1.28,1.379s.877,1.843.32,2.816c0,0-.32-2.5-.608-2.512a8.241,8.241,0,0,0-1.216,2.791,6.039,6.039,0,0,1,.96-2.951,3.3,3.3,0,0,0-1.69.877s.173-1.171,1.955-1.28a7.594,7.594,0,0,1,1.155-1.335,7.41,7.41,0,0,0-2.861.32s.96-1.1,3.2-.6L119,40.881a10.306,10.306,0,0,0-3.338.035s1.143-.979,3.674-.266l1.36-.816a12.572,12.572,0,0,0-3.2-.278,4.872,4.872,0,0,1,3.584.058l.979-.438s-1.463-.288-1.891-.32-.454-.163-.454-.163a5.089,5.089,0,0,1,2.752.32A11.753,11.753,0,0,0,124.492,38.1Z"/>
        <path id="Path_2124" data-name="Path 2124" class="cls-4" d="M112.442,34.435s-5.306-.32-4.688,3.4a.912.912,0,0,0,.474.96s0-.278.544-.179a2.5,2.5,0,0,0,.579.026,1.2,1.2,0,0,0,.7-.291h0a4.214,4.214,0,0,0,2.074-3.059s.432-.531.419-.669l-.9.384a1.6,1.6,0,0,1,.064,1.184s-.029-1.162-.2-1.133c-.038,0-.467.224-.467.224a2.658,2.658,0,0,1,.128,1.946s.154-1.389-.294-1.866l-.64.368a2.8,2.8,0,0,1,.2,2.115,4.022,4.022,0,0,0-.32-2.023l-.573.445a2.687,2.687,0,0,1,.224,1.92s-.045-1.7-.349-1.815a3.446,3.446,0,0,0-.576.621s.4.838.15,1.28c0,0-.15-1.13-.278-1.136a3.751,3.751,0,0,0-.544,1.264,2.72,2.72,0,0,1,.429-1.335,1.5,1.5,0,0,0-.765.4s.08-.531.89-.576a3.414,3.414,0,0,1,.522-.6,3.264,3.264,0,0,0-1.28.15,1.456,1.456,0,0,1,1.44-.282l.563-.461a5.259,5.259,0,0,0-1.507,0,1.835,1.835,0,0,1,1.661-.118l.614-.371a5.7,5.7,0,0,0-1.44-.125,2.112,2.112,0,0,1,1.619.029l.438-.2s-.659-.131-.854-.15-.2-.074-.2-.074a2.259,2.259,0,0,1,1.242.141A5.214,5.214,0,0,0,112.442,34.435Z"/>
        <ellipse id="Ellipse_223" data-name="Ellipse 223" class="cls-3" cx="3.76" cy="0.637" rx="3.76" ry="0.637" transform="translate(11.71 139.699)"/>
        <ellipse id="Ellipse_224" data-name="Ellipse 224" class="cls-3" cx="3.76" cy="0.637" rx="3.76" ry="0.637" transform="translate(33.549 140.496)"/>
        <ellipse id="Ellipse_225" data-name="Ellipse 225" class="cls-4" cx="5.617" cy="0.95" rx="5.617" ry="0.95" transform="translate(143.457 123.884)"/>
        <path id="Path_2125" data-name="Path 2125" class="cls-4" d="M151.393,123.282a1.632,1.632,0,0,0,.538-.806.723.723,0,0,0-.374-.826,1.05,1.05,0,0,0-.989.349,1.319,1.319,0,0,1-.96.464,1.469,1.469,0,0,0,.454-1.37.583.583,0,0,0-.128-.282c-.189-.2-.538-.115-.765.045a2.847,2.847,0,0,0-.931,2.384,4.523,4.523,0,0,1-.016-.96,1.011,1.011,0,0,0-.368-.87,1.123,1.123,0,0,0-.557-.138,1.158,1.158,0,0,0-.915.259.9.9,0,0,0,.035,1.117,3.61,3.61,0,0,0,.96.758,2.125,2.125,0,0,1,.675.64.461.461,0,0,1,.048.115h2.048A5.591,5.591,0,0,0,151.393,123.282Z"/>
        <path id="Path_2126" data-name="Path 2126" class="cls-4" d="M17.227,123.311s.765,1-.355,2.512-2.045,2.794-1.677,3.738c0,0,1.693-2.813,3.075-2.851S18.741,125,17.227,123.311Z"/>
        <path id="Path_2127" data-name="Path 2127" class="cls-8" d="M17.227,123.311a1.251,1.251,0,0,1,.157.32c1.341,1.578,2.058,3.05.768,3.088-1.2.035-2.65,2.186-2.992,2.73a.414.414,0,0,0,.038.122c.013.038,1.693-2.813,3.075-2.851S18.741,125,17.227,123.311Z"/>
        <path id="Path_2128" data-name="Path 2128" class="cls-11" d="M18.651,124.594c0,.352-.038.64-.086.64s-.09-.282-.09-.64.051-.186.1-.186S18.651,124.232,18.651,124.594Z"/>
        <path id="Path_2129" data-name="Path 2129" class="cls-11" d="M19.141,125.013c-.32.166-.579.269-.6.227s.211-.214.522-.384.189-.045.211,0S19.451,124.84,19.141,125.013Z"/>
        <path id="Path_2130" data-name="Path 2130" class="cls-4" d="M13.172,123.311s-.768,1,.355,2.512,2.045,2.794,1.677,3.738c0,0-1.693-2.813-3.075-2.851S11.659,125,13.172,123.311Z"/>
        <path id="Path_2131" data-name="Path 2131" class="cls-8" d="M13.172,123.311a1.251,1.251,0,0,0-.157.32c-1.344,1.578-2.058,3.05-.768,3.088,1.2.035,2.653,2.186,2.992,2.73a.547.547,0,0,1-.042.122s-1.69-2.813-3.072-2.851S11.659,125,13.172,123.311Z"/>
        <path id="Path_2132" data-name="Path 2132" class="cls-11" d="M11.745,124.594c0,.352.042.64.09.64s.09-.282.09-.64-.051-.186-.1-.186S11.745,124.232,11.745,124.594Z"/>
        <path id="Path_2133" data-name="Path 2133" class="cls-11" d="M11.262,125.013c.32.166.579.269.6.227s-.211-.214-.522-.384-.186-.045-.211,0S10.948,124.84,11.262,125.013Z"/>
        <path id="Path_2134" data-name="Path 2134" class="cls-19" d="M11.992,129.433a7.862,7.862,0,0,0,2.794-.525c.65-.461,3.3-1.011,3.456-.256s3.226,3.674.8,3.693-5.629-.378-6.273-.771S11.992,129.433,11.992,129.433Z"/>
        <path id="Path_2135" data-name="Path 2135" class="cls-20" d="M19.083,132.07c-2.423.022-5.626-.374-6.273-.768-.493-.3-.688-1.373-.752-1.869h-.074s.141,1.728.781,2.122,3.84.79,6.276.771c.7,0,.941-.256.925-.64C19.877,131.929,19.608,132.067,19.083,132.07Z"/>
        <path id="Path_2136" data-name="Path 2136" class="cls-11" d="M77.834,106.2,98.956,85.077a1.834,1.834,0,0,0,0-2.6h0l-2.6-2.583a1.834,1.834,0,0,0-2.589,0h0L76.542,97.126l-8.055-8.062a1.843,1.843,0,0,0-2.6,0l-2.6,2.615a1.843,1.843,0,0,0,0,2.6l11.94,11.937a1.834,1.834,0,0,0,2.6,0h0Z"/>
      </g>
    </g>
  </g>
</svg>
