<svg xmlns="http://www.w3.org/2000/svg" xmlns:xlink="http://www.w3.org/1999/xlink" viewBox="0 0 160 160">
  <defs>
    <style>
      .cls-1 {
        fill: #fff;
      }

      .cls-2 {
        clip-path: url(#clip-path);
      }

      .cls-17, .cls-3 {
        fill: #2b3991;
      }

      .cls-13, .cls-3, .cls-8 {
        opacity: 0.1;
      }

      .cls-4 {
        fill: url(#linear-gradient);
      }

      .cls-5 {
        fill: #fbbebe;
      }

      .cls-6 {
        fill: #333;
      }

      .cls-7 {
        fill: #535461;
      }

      .cls-9 {
        fill: #3f3d56;
      }

      .cls-10 {
        fill: #f7931d;
      }

      .cls-11 {
        fill: #e3e8f4;
      }

      .cls-12 {
        fill: #3d213c;
      }

      .cls-14 {
        fill: url(#linear-gradient-2);
      }

      .cls-15 {
        fill: #444053;
      }

      .cls-16 {
        fill: #e8e8f0;
      }

      .cls-18 {
        opacity: 0.3;
      }
    </style>
    <clipPath id="clip-path">
      <rect id="Rectangle_2" data-name="Rectangle 2" class="cls-1" width="160" height="160" transform="translate(445 747)"/>
    </clipPath>
    <linearGradient id="linear-gradient" x1="0.704" y1="-7.145" x2="0.704" y2="-6.145" gradientUnits="objectBoundingBox">
      <stop offset="0" stop-color="gray" stop-opacity="0.251"/>
      <stop offset="0.54" stop-color="gray" stop-opacity="0.122"/>
      <stop offset="1" stop-color="gray" stop-opacity="0.102"/>
    </linearGradient>
    <linearGradient id="linear-gradient-2" x1="0.236" y1="-6.11" x2="1.236" y2="-6.11" xlink:href="#linear-gradient"/>
  </defs>
  <g id="img-vize" class="cls-2" transform="translate(-445 -747)">
    <g id="Homepage-Icons-18" transform="translate(445 746.404)">
      <path id="Path_2137" data-name="Path 2137" class="cls-3" d="M92.96,36.237c-10.256-.355-20.026-3.667-29.354-7.29s-18.56-7.638-28.579-9.558c-6.442-1.235-13.8-1.408-18.992,2.051-5,3.328-6.608,9.056-7.475,14.378-.64,4-1.037,8.218.752,11.965,1.242,2.6,3.446,4.8,4.97,7.283,5.306,8.672,1.555,19.366-4.192,27.84C7.4,86.88,4.266,90.672,2.186,94.9S-.858,103.958.96,108.272s6.1,7.488,10.762,9.747c9.462,4.586,20.6,5.9,31.478,6.643,24.064,1.645,48.253.931,72.381.221,8.928-.266,17.9-.534,26.678-1.92,4.88-.768,9.92-1.984,13.456-4.922a11.269,11.269,0,0,0,2.6-14.72c-5.053-7.843-19.021-9.792-22.557-18.208-1.942-4.634.054-9.8,2.88-14.08,6.061-9.219,16.218-17.306,16.752-27.84.368-7.235-4.515-14.483-12.067-17.92-7.914-3.59-18.88-3.139-24.723,2.8C112.582,34.2,102.019,36.55,92.96,36.237Z"/>
      <path id="Path_2138" data-name="Path 2138" class="cls-4" d="M143.277,83.062a1.92,1.92,0,0,0-.832-.365c-.32-.074-.64-.118-.96-.17l-4.2-.608a4.839,4.839,0,0,0-1.28-.067,1.632,1.632,0,0,0-1.12.579.88.88,0,0,0-.2.547,1.417,1.417,0,0,0,.192.566,1.9,1.9,0,0,1,.1.253c.042.192.093.384.15.573a.522.522,0,0,0,.074.112v.029c-.048.237.1.483.035.71s-.246.32-.368.474a.71.71,0,0,0,0,.787c.128.2.362.336.426.563.09.3-.147.586-.358.816a12.775,12.775,0,0,0-1.069,1.35.8.8,0,0,0-.17.4c-.019.3.266.56.214.854-.038.234-.266.374-.461.512a2.88,2.88,0,0,0-1.37,2.118,7.424,7.424,0,0,0-1.651-3.76,2.65,2.65,0,0,1-.614-.96,4.3,4.3,0,0,0-.1-.451c-.17-.454-.714-.64-.96-1.066-.173-.294-.173-.672-.384-.931s-.544-.32-.73-.563a3.879,3.879,0,0,1-.23-.528,1.162,1.162,0,0,0-.32-.378.461.461,0,0,0-.08-.058.272.272,0,0,0,.093-.2c0-.2-.2-.32-.371-.432a7.491,7.491,0,0,1-.64-.4,1.511,1.511,0,0,0,.582-.477,1.565,1.565,0,0,0,.224-1.027,1.28,1.28,0,0,0-.32-.784c-.106-.112-.243-.2-.355-.32a2.5,2.5,0,0,1-.512-1.1,2.24,2.24,0,0,0-.88-1.322c-.224-.131-.49-.192-.71-.32a.64.64,0,0,1-.32-.64c.051-.17.211-.288.32-.435a.858.858,0,0,0-.218-1.194c-.125-.08-.282-.15-.32-.3a.55.55,0,0,1-.4-.422,1.619,1.619,0,0,1,0-.608l.134-.96a.608.608,0,0,0,.474,0,4.186,4.186,0,0,0,.512.672,6.7,6.7,0,0,1,1.2,2.077,1.238,1.238,0,0,0,.448.723c.09.048.189.074.272.128a1.034,1.034,0,0,1,.269.272l.611.816v.038a.186.186,0,0,0,.026.07.234.234,0,0,0,.147.074,2.481,2.481,0,0,0,1.878-.064c.493-.32.707-.915,1.126-1.322.294-.291.714-.515.8-.922a2.485,2.485,0,0,1-.294-.106c.086-.086.173-.186.288-.3a3.842,3.842,0,0,0,.454-.541,3.587,3.587,0,0,0,.342-.768c.32-.938.659-1.878.992-2.816.157-.445.32-.893.512-1.325s.448-.918.672-1.379a18.389,18.389,0,0,0,1.309-3.738,1.363,1.363,0,0,0,.054-.544,1.434,1.434,0,0,0-.486-.739,3.651,3.651,0,0,0-.726-.6,1.21,1.21,0,0,0-.915-.144,1.325,1.325,0,0,0-.813,1.024,10.822,10.822,0,0,0-.106,1.366c-.061.659-.288,1.28-.342,1.955-.029.381,0,.765-.045,1.146a4.237,4.237,0,0,1-.512,1.418,9.235,9.235,0,0,1-2.211,2.723c-.1.086-.211.17-.32.266a1.77,1.77,0,0,1,.022-.224,1.353,1.353,0,0,0-.218.077.64.64,0,0,0-.026-.256c-.138-.41-.746-.512-.854-.928a1.7,1.7,0,0,1-.029-.32,8.2,8.2,0,0,0-.368-1.027,4.279,4.279,0,0,0-.173-.986,2.659,2.659,0,0,0-.454-.512,2.009,2.009,0,0,1-.432-.816c-.022-.083-.042-.17-.067-.253a1.165,1.165,0,0,0-.061-.563c-.157-.387-.557-.64-.7-1.024-.115-.3-.064-.685-.278-.922a1,1,0,0,0-.406-.243,8.96,8.96,0,0,0-2.438-.576,2.073,2.073,0,0,1-1.318-.4c-.39-.381-.41-1.072-.867-1.366a1.029,1.029,0,0,0-1.28.3,1.4,1.4,0,0,0-.131.17,1.846,1.846,0,0,1-.035-.7v-.17a3.411,3.411,0,0,0,1.853-1.466h0l.022.051c.048.125.128.246.243.259h0a.342.342,0,0,0,.211-.077,1.9,1.9,0,0,0,.285-.246c.042-.048.083-.1.122-.15a1.824,1.824,0,0,0,.2-.339,2.007,2.007,0,0,0,.173-.573c.029-.2.032-.4.067-.6a3.621,3.621,0,0,1,.125-.451.558.558,0,0,1,.051-.15c.016-.051.035-.115.054-.17a4.02,4.02,0,0,0,.17-1.085V57a1.811,1.811,0,0,0-.573-1.28c-.294-.24-.685-.342-.9-.669a3.04,3.04,0,0,1-.253-.755,1.715,1.715,0,0,0-1.315-1.181,1.5,1.5,0,0,0-1.062.291h0l-.026.019h0a1.705,1.705,0,0,0-.422.474,1.45,1.45,0,0,1-.6-.342c-.17-.16-.3-.358-.477-.512a1.216,1.216,0,0,0-1.216-.256,1.453,1.453,0,0,0-.87,1,3.47,3.47,0,0,1-.272,1.05c-.15.23-.4.342-.576.55a1.008,1.008,0,0,0-.214.458h0a1.062,1.062,0,0,0-.029.285h0a.534.534,0,0,0,0,.125v.022a1.052,1.052,0,0,0,.029.138h0a1.155,1.155,0,0,0,.256.467,1.075,1.075,0,0,0,.41.3,1.434,1.434,0,0,0,.2.064l.2.048.07.016a3.414,3.414,0,0,0-.1,3.008,1.1,1.1,0,0,1-.016.144,11.8,11.8,0,0,0,.09,2.016,1.094,1.094,0,0,1-.125.765,1.369,1.369,0,0,1-.25.221l.282-.355a1.219,1.219,0,0,0-.96-.25,4.48,4.48,0,0,0-1.878.576,2.109,2.109,0,0,1-1.213.461c-.259-.029-.515-.17-.765-.1a1.549,1.549,0,0,0-.39.23.538.538,0,0,1-.32.1,6.688,6.688,0,0,0-1-.819,7.911,7.911,0,0,1-1-1.072c-.554-.669-1.107-1.338-1.648-2.013a3.846,3.846,0,0,1-1.008-1.92,1.655,1.655,0,0,1,0-.218,5.5,5.5,0,0,1,.128-1.024.47.47,0,0,0,0-.25c-.051-.17-.246-.234-.416-.272h0c.022-.131.038-.266.048-.394a31.035,31.035,0,0,1,.3-4.4,2.97,2.97,0,0,1,.71-1.514c.624-.64,1.667-.784,2.144-1.53a1.744,1.744,0,0,0-.259-2.051A2.589,2.589,0,0,0,105.1,45.9a1.056,1.056,0,0,0-.589.157,1.28,1.28,0,0,0-.355.541l-.733,1.782a10.822,10.822,0,0,0-.534,1.43c-.2.749-.253,1.539-.416,2.294a5.952,5.952,0,0,1-.579,1.84c-.227.6-.477,1.2-.682,1.811-.051.154-.23.608-.342,1.024a.774.774,0,0,0-.115.086,2.976,2.976,0,0,0-.243.362c-.157.2-.41.32-.579.512s-.208.563.029.662a.788.788,0,0,0,.15.032.47.47,0,0,1,.093.016.579.579,0,0,1,.32.659c-.038.269-.173.515-.2.781a2.092,2.092,0,0,0,.5,1.306,10.714,10.714,0,0,0,.912,1.229c.24.272.512.515.755.774.925.96,1.658,2.061,2.49,3.091A6.761,6.761,0,0,0,106,67.35a7.779,7.779,0,0,0,.768.528l1.43.906a1.488,1.488,0,0,0,.538.256.64.64,0,0,0,.192,0,.648.648,0,0,0,.026.128,7.529,7.529,0,0,1,.384,1.309c.029.454,0,.925.019,1.386s.125.854.147,1.28a8.15,8.15,0,0,1-.342,2.39,14.17,14.17,0,0,1-1.024,3.382,1.99,1.99,0,0,0-.342.912.492.492,0,0,0,0,.118h0l-.256.147-.218.128a1.85,1.85,0,0,0-.806.813c-.106.294-.058.64-.186.922a.239.239,0,0,1-.022.038c-.134.266-.406.464-.47.755h0c-.045.224.045.461,0,.685h0a2.561,2.561,0,0,0-.09.342.351.351,0,0,0,0,.115.64.64,0,0,0,.2.32,1.334,1.334,0,0,0,.2.157c.074.048.15.093.227.134l.045.022.2.1.045.019.234.093.054.016.189.054h.083l.17.035h.064l.23.032h.56a2.084,2.084,0,0,0,.243-.022h.026a1.007,1.007,0,0,0,.214-.038h.054a1.551,1.551,0,0,0,.2-.051h.035a2.061,2.061,0,0,0,.237-.08,6.474,6.474,0,0,0,.79-.39c.173-.1.342-.192.512-.278a3.791,3.791,0,0,1,.39-.17,2.215,2.215,0,0,1,1.027-.173,4.69,4.69,0,0,1,.512.106v.058q.2,1.229.41,2.461a4.69,4.69,0,0,1,.71-.426,1.564,1.564,0,0,0-.093.384,1.6,1.6,0,0,0,0,.3.64.64,0,0,1-.048.47c-.058.08-.17.125-.2.211a.685.685,0,0,0-.019.278.445.445,0,0,1-.406.416.64.64,0,0,1-.256.762.845.845,0,0,0-.2.128.573.573,0,0,0-.115.259,4.585,4.585,0,0,1-1.338,2.2,4.517,4.517,0,0,0-.662.64,2.993,2.993,0,0,0-.3.589q-.688,1.677-1.389,3.344a7.488,7.488,0,0,0-.6,1.92c-.2,1.843-1.843,3.4-1.536,5.232a2.56,2.56,0,0,0,.531,1.251,3.174,3.174,0,0,0,1.366.838,24.925,24.925,0,0,0,4.09,1.146l2.173.445a9.336,9.336,0,0,0,1.3.2,8.613,8.613,0,0,1,1.574.122,4.889,4.889,0,0,0,.944.25c.282.016.64-.045.79.186s.038.531.2.733c.253.32.87,0,1.146.32a1.437,1.437,0,0,1,.17.378.739.739,0,0,0,.173.214,1.484,1.484,0,0,1,.019.291,5,5,0,0,1-.246,1.165q-.32,1.04-.611,2.083a4.411,4.411,0,0,0-.173.752,1.83,1.83,0,0,0,0,.374,1.021,1.021,0,0,0,.614.89,1.117,1.117,0,0,0,.829-.1,3.667,3.667,0,0,0,.685-.461,4.72,4.72,0,0,0,.986-1.018c.854-1.28.579-3,1.178-4.419a21.046,21.046,0,0,0,1.43-2.7,1.059,1.059,0,0,0,.022-.582,1.216,1.216,0,0,0-.813-.662H124.8a7.041,7.041,0,0,0-.854-.243c-.07-.016-.144-.026-.218-.038a1.357,1.357,0,0,1-.378-.493,1.146,1.146,0,0,0-.08-.294.32.32,0,0,0-.246-.138c-.17-.016-.4.045-.586.032-.381-.029-.64-.4-.976-.576a1.987,1.987,0,0,0-1.075-.1,1,1,0,0,1-.39-.026,1.459,1.459,0,0,1-.41-.282,1.725,1.725,0,0,0-1.507-.3,1.657,1.657,0,0,1-.512.118c-.32-.019-.57-.32-.816-.544a9.907,9.907,0,0,0-2.448-1.184.544.544,0,0,1-.294-.253c-.093-.23.118-.464.32-.64l1.4-1.165c1.536-1.28,3.459-2.24,4.16-4.115a2.476,2.476,0,0,1,.342-.7.961.961,0,0,1,.189-.17,1.437,1.437,0,0,1,1.053-.2,3.5,3.5,0,0,1,1.235.541c.614.368,1.21.768,1.789,1.194a15.557,15.557,0,0,1,1.629,1.341c.9.854,1.645,1.869,2.48,2.79a7.959,7.959,0,0,0,2.954,2.221,3.787,3.787,0,0,0,3.558-.32c1.149-.854,1.52-2.381,1.808-3.782a6.129,6.129,0,0,0,1.149-2.39c.2-.528.448-1.027.659-1.552.253-.621.451-1.258.64-1.894a9.183,9.183,0,0,0,.454-1.978,15.385,15.385,0,0,1,.1-3.2,12.118,12.118,0,0,0,1.139-.442,5.693,5.693,0,0,1,1.808-.154h.042a.928.928,0,0,0,.6-.144.96.96,0,0,0,.246-.726A2.14,2.14,0,0,0,143.277,83.062ZM118.518,53.914a1.229,1.229,0,0,1-.432.032Z"/>
      <path id="Path_2139" data-name="Path 2139" class="cls-5" d="M119.194,64.723a1.862,1.862,0,0,1-.71.378l-1.213.435a4.48,4.48,0,0,1-2.038.384,6.719,6.719,0,0,1-2.3-.6c-.384-.467.96-1.155,1.414-1.549a1.987,1.987,0,0,0,.288-.253,1.05,1.05,0,0,0,.125-.765,12.082,12.082,0,0,1-.09-2.013,4.081,4.081,0,0,1,.07-.477c.17-.784.9-.5,1.478-.288a11.478,11.478,0,0,1,2.006.867,1.469,1.469,0,0,1,.5.422,2.129,2.129,0,0,1,.112,1.366,1.28,1.28,0,0,0,.2,1,2.5,2.5,0,0,1,.32.342A.64.64,0,0,1,119.194,64.723Z"/>
      <path id="Path_2140" data-name="Path 2140" class="cls-5" d="M102.458,52.41c.17-.758.208-1.539.413-2.288a10.213,10.213,0,0,1,.538-1.427l.752-1.76a1.28,1.28,0,0,1,.355-.538,1.053,1.053,0,0,1,.586-.157,2.621,2.621,0,0,1,2.013.742,1.725,1.725,0,0,1,.262,2.038c-.477.749-1.523.9-2.147,1.526a3,3,0,0,0-.707,1.514,28.679,28.679,0,0,0-.3,4.39,1.451,1.451,0,0,1-.512,1.213,1.5,1.5,0,0,1-.765.147l-1.12.019c-.189,0-.87.118-1-.022-.221-.25.278-1.482.371-1.757.2-.611.448-1.206.682-1.8A6.048,6.048,0,0,0,102.458,52.41Z"/>
      <path id="Path_2141" data-name="Path 2141" class="cls-6" d="M125.6,106.093a21.207,21.207,0,0,1-1.434,2.7c-.6,1.411-.32,3.136-1.178,4.41a4.646,4.646,0,0,1-.986,1.018,3.629,3.629,0,0,1-.682.458,1.114,1.114,0,0,1-.832.1,1.024,1.024,0,0,1-.614-.886,1.8,1.8,0,0,1,0-.371,4.657,4.657,0,0,1,.173-.752q.32-1.037.611-2.077a4.977,4.977,0,0,0,.246-1.162c.022-.432-.25-.992-.134-1.392.054-.182.253-.342.342-.5a2.855,2.855,0,0,0,.294-.7,4.445,4.445,0,0,1,.528-1.389,3.261,3.261,0,0,1,.669-.624,1.769,1.769,0,0,1,.64-.355,1.549,1.549,0,0,1,.685.032,6.653,6.653,0,0,1,.854.243h.013a1.187,1.187,0,0,1,.81.64A1.072,1.072,0,0,1,125.6,106.093Z"/>
      <path id="Path_2142" data-name="Path 2142" class="cls-6" d="M143.786,85.085a.96.96,0,0,1-.25.726.928.928,0,0,1-.6.141h-.045a5.78,5.78,0,0,0-1.808.157,6.883,6.883,0,0,1-1.3.464A3.138,3.138,0,0,1,138,86a17.789,17.789,0,0,0-1.616-.771c-.365-.147-1.1-.243-1.28-.64a4.975,4.975,0,0,1-.15-.57,1.92,1.92,0,0,0-.106-.253,1.472,1.472,0,0,1-.192-.563.886.886,0,0,1,.2-.547,1.642,1.642,0,0,1,1.12-.576,4.838,4.838,0,0,1,1.28.067l4.2.6c.32.048.64.093.96.173a1.856,1.856,0,0,1,.832.365A2.085,2.085,0,0,1,143.786,85.085Z"/>
      <path id="Path_2143" data-name="Path 2143" class="cls-7" d="M140.086,86.179c-.512,1.082-.144,2.362-.237,3.558a9.085,9.085,0,0,1-.454,1.971c-.2.64-.4,1.28-.64,1.888-.211.515-.461,1.027-.659,1.549a6.321,6.321,0,0,1-1.146,2.394c-.291,1.4-.659,2.925-1.811,3.773a3.786,3.786,0,0,1-3.558.32,7.931,7.931,0,0,1-2.95-2.221c-.835-.922-1.584-1.92-2.48-2.781a15.207,15.207,0,0,0-1.635-1.338c-.579-.422-1.174-.816-1.786-1.187a3.568,3.568,0,0,0-1.238-.538,1.43,1.43,0,0,0-1.05.2.96.96,0,0,0-.189.17,2.339,2.339,0,0,0-.342.7c-.717,1.869-2.643,2.829-4.182,4.106l-1.4,1.165c-.192.157-.4.39-.32.621a.582.582,0,0,0,.294.253,9.809,9.809,0,0,1,2.451,1.181c.243.224.48.522.813.541a1.75,1.75,0,0,0,.518-.109,1.731,1.731,0,0,1,1.507.3,1.507,1.507,0,0,0,.41.282,1,1,0,0,0,.39.022,2.067,2.067,0,0,1,1.075.106c.32.163.6.544.976.573.186,0,.41-.048.586-.032a.32.32,0,0,1,.246.138,1.031,1.031,0,0,1,.08.294c.07.24.32.387.461.586a1.619,1.619,0,0,1,.246,1.1,4.7,4.7,0,0,1-1.5,3.149,1.833,1.833,0,0,1-.922.512.851.851,0,0,1-.912-.4,1.485,1.485,0,0,0-.17-.378c-.275-.3-.893.019-1.146-.3-.157-.2-.045-.525-.2-.733s-.512-.17-.79-.182a4.765,4.765,0,0,1-.96-.253,8.577,8.577,0,0,0-1.571-.118,9.261,9.261,0,0,1-1.3-.2l-2.173-.445a25.573,25.573,0,0,1-4.093-1.072,3.274,3.274,0,0,1-1.366-.835,2.611,2.611,0,0,1-.534-1.248c-.32-1.824,1.331-3.382,1.539-5.219a7.321,7.321,0,0,1,.6-1.92q.7-1.67,1.386-3.338a3.081,3.081,0,0,1,.291-.592,4.342,4.342,0,0,1,.662-.64,4.576,4.576,0,0,0,1.338-2.2.611.611,0,0,1,.115-.259,1.168,1.168,0,0,1,.2-.128.64.64,0,0,0,.256-.758.448.448,0,0,0,.41-.413.681.681,0,0,1,.016-.278c.042-.09.144-.134.2-.211a.64.64,0,0,0,.048-.467,1.643,1.643,0,0,1,0-.32,1.6,1.6,0,0,1,.458-.96c.41-.4.992-.294,1.555-.39a9,9,0,0,0,1.642-.525,16.016,16.016,0,0,1,4.63-1.072,10.093,10.093,0,0,1,4.678.746,2.669,2.669,0,0,1,.6.339,1.143,1.143,0,0,1,.32.381,3.447,3.447,0,0,0,.23.522c.182.25.528.32.73.566s.218.64.381.928c.24.416.787.608.96,1.062.051.144.058.3.1.448a2.535,2.535,0,0,0,.611.96,7.36,7.36,0,0,1,1.654,3.76,2.858,2.858,0,0,1,1.366-2.112c.2-.128.426-.269.464-.5.051-.294-.237-.554-.218-.854a.832.832,0,0,1,.173-.4,12.707,12.707,0,0,1,1.069-1.344c.211-.23.445-.512.358-.816-.067-.227-.3-.362-.426-.56a.71.71,0,0,1,.016-.787c.118-.16.32-.278.368-.474s-.083-.47-.035-.707a.867.867,0,0,1,.352-.454,2.81,2.81,0,0,1,.762-.5,2.88,2.88,0,0,1,1.434-.042,2.918,2.918,0,0,1,2.147.96,1.629,1.629,0,0,1,.218,1.494Z"/>
      <path id="Path_2144" data-name="Path 2144" class="cls-8" d="M143.786,85.085a.96.96,0,0,1-.25.726.928.928,0,0,1-.6.141h-.045c.07-.355.5-.557.576-.918a.813.813,0,0,0-.189-.621,3.075,3.075,0,0,0-1.536-.96,10.186,10.186,0,0,0-5.136-.384,5.119,5.119,0,0,0-1.35.416,4.091,4.091,0,0,0-.41.288,1.421,1.421,0,0,1-.192-.563.867.867,0,0,1,.2-.547,1.642,1.642,0,0,1,1.117-.576,4.839,4.839,0,0,1,1.28.067l4.208.6c.32.048.64.093.96.173a1.885,1.885,0,0,1,.835.365A2.073,2.073,0,0,1,143.786,85.085Z"/>
      <path id="Path_2145" data-name="Path 2145" class="cls-8" d="M125.6,106.093a21.207,21.207,0,0,1-1.434,2.7c-.6,1.411-.32,3.136-1.178,4.41a4.646,4.646,0,0,1-.986,1.018,3.629,3.629,0,0,1-.682.458,1.114,1.114,0,0,1-.832.1,1.024,1.024,0,0,1-.614-.886,1.8,1.8,0,0,1,0-.371v.026c.147.362.39.736.771.8a1.053,1.053,0,0,0,.79-.278,4.931,4.931,0,0,0,1.206-1.779,7.387,7.387,0,0,0,.576-1.475c.07-.291.1-.589.173-.877.32-1.414,1.43-2.56,1.674-3.994a.96.96,0,0,0,0-.3,1.382,1.382,0,0,0-.147-.371,1.9,1.9,0,0,1-.128-.416,1.2,1.2,0,0,1,.81.659A1.078,1.078,0,0,1,125.6,106.093Z"/>
      <path id="Path_2146" data-name="Path 2146" class="cls-8" d="M123.021,103.642a2.448,2.448,0,0,1-.768,1.053,3.773,3.773,0,0,1-1.661.72,1.645,1.645,0,0,1-.854,0c-.378-.131-.64-.486-1.04-.589a6.954,6.954,0,0,0-.854-.048,3,3,0,0,1-1.3-.765c-1.245-.934-2.88-1.238-4.128-2.173a.4.4,0,0,1-.131-.141.355.355,0,0,1-.026-.192,3.885,3.885,0,0,1,.384-1.667,5.731,5.731,0,0,1,.7-1,30.549,30.549,0,0,1,3.571-3.9,5.4,5.4,0,0,1,1.882-1.152,2.81,2.81,0,0,1,1.645-.032.88.88,0,0,0-.189.173,2.34,2.34,0,0,0-.342.7c-.717,1.869-2.643,2.829-4.182,4.106l-1.4,1.165c-.192.157-.4.39-.32.621a.582.582,0,0,0,.294.253,9.809,9.809,0,0,1,2.451,1.181c.243.224.48.522.813.541a1.751,1.751,0,0,0,.518-.093,1.731,1.731,0,0,1,1.507.3,1.507,1.507,0,0,0,.41.282,1,1,0,0,0,.39.022,2.067,2.067,0,0,1,1.075.106c.32.163.6.544.976.573A5.2,5.2,0,0,1,123.021,103.642Z"/>
      <path id="Path_2147" data-name="Path 2147" class="cls-9" d="M107.306,80.451a1.827,1.827,0,0,0-.8.806c-.109.294-.058.64-.189.922s-.429.486-.493.794c-.045.224.045.461,0,.685a2.63,2.63,0,0,0-.093.355c-.019.253.2.461.416.6a3.466,3.466,0,0,0,3.1.342,13.577,13.577,0,0,0,1.306-.669,2.56,2.56,0,0,1,1.4-.342c.282.032.554.134.835.173a.88.88,0,0,0,.781-.234.979.979,0,0,0,.17-.4,6,6,0,0,0-.1-2.88c-.224-.944-.566-1.85-.806-2.79a13.009,13.009,0,0,0-.589-2.064,2.7,2.7,0,0,0-1.437-1.507.243.243,0,0,0-.17-.022.259.259,0,0,0-.112.08,5.264,5.264,0,0,0-1.171,1.971c-.269.819-.342,1.69-.589,2.509a2.586,2.586,0,0,1-.512,1.062,5.965,5.965,0,0,1-.957.611Z"/>
      <path id="Path_2148" data-name="Path 2148" class="cls-10" d="M113.75,83.475a1.008,1.008,0,0,1-.179.406.867.867,0,0,1-.781.23c-.282-.035-.55-.141-.832-.173a2.586,2.586,0,0,0-1.408.342c-.435.218-.854.49-1.306.666a3.427,3.427,0,0,1-2.074.118,3.261,3.261,0,0,1-1.024-.451.736.736,0,0,1-.416-.6,2.629,2.629,0,0,1,.093-.355c.045-.224-.045-.458,0-.682.067-.32.362-.515.493-.8s.08-.624.189-.922a1.827,1.827,0,0,1,.8-.806,6.185,6.185,0,0,0,.96-.64.883.883,0,0,0,.09-.125,3.152,3.152,0,0,0,.406-.941c.25-.826.32-1.69.586-2.512a5.312,5.312,0,0,1,1.174-1.971.211.211,0,0,1,.282-.061,2.733,2.733,0,0,1,1.437,1.523,13.712,13.712,0,0,1,.586,2.064c.24.938.582,1.85.81,2.79a6.109,6.109,0,0,1,.112,2.9Z"/>
      <path id="Path_2149" data-name="Path 2149" class="cls-8" d="M118.832,62.634a3.418,3.418,0,0,1-4.16-1.878,3.98,3.98,0,0,1,.07-.477c.17-.787.9-.5,1.478-.291a11.738,11.738,0,0,1,2.006.87,1.424,1.424,0,0,1,.5.419A2.123,2.123,0,0,1,118.832,62.634Z"/>
      <circle id="Ellipse_226" data-name="Ellipse 226" class="cls-5" cx="3.418" cy="3.418" r="3.418" transform="translate(114.381 55.789)"/>
      <path id="Path_2150" data-name="Path 2150" class="cls-8" d="M127.075,84.746c0,.285-.387.374-.672.358a22.313,22.313,0,0,0-3.043-.256c-1.28.118-2.461.826-3.747.893a11.574,11.574,0,0,0-1.491.042c-.64.118-1.194.5-1.84.557-.557.048-1.11-.163-1.667-.141a2.662,2.662,0,0,0-1.117.32,1.568,1.568,0,0,1,.458-.96c.41-.4.989-.3,1.552-.394a8.916,8.916,0,0,0,1.642-.525,16.225,16.225,0,0,1,4.634-1.072,10.125,10.125,0,0,1,4.675.742,2.669,2.669,0,0,1,.6.339A.32.32,0,0,1,127.075,84.746Z"/>
      <path id="Path_2151" data-name="Path 2151" class="cls-11" d="M116.221,65.446l-1.386-.512-.586-.214a2.829,2.829,0,0,0-.742-.2,1.891,1.891,0,0,0-1.658.96,5.2,5.2,0,0,0-.608,1.92q-.237,1.354-.4,2.723a17.894,17.894,0,0,0-.179,2.483,29.367,29.367,0,0,0,.979,6.262,22.081,22.081,0,0,1,.544,2.778c.042.384.061.771.1,1.162s.115.864.189,1.3l.41,2.458a3.251,3.251,0,0,1,1.728-.7c.557-.019,1.11.189,1.667.141.64-.051,1.21-.438,1.84-.554a11.025,11.025,0,0,1,1.491-.045c1.28-.064,2.467-.774,3.747-.89a20.417,20.417,0,0,1,3.046.256c.282.016.669-.074.669-.362,0-.2-.2-.32-.371-.429a17.892,17.892,0,0,1-2.317-1.651,7.85,7.85,0,0,1-1.821-1.8c-1.114-1.734-.733-4.08-1.683-5.91-.774-1.485,0-3.434,0-5.12a7.818,7.818,0,0,0-.656-3.84L119.565,64a.3.3,0,0,0-.08-.128.288.288,0,0,0-.154-.045,1.6,1.6,0,0,0-1.1.352c-.32.256-.515.621-.822.886A1.279,1.279,0,0,1,116.221,65.446Z"/>
      <path id="Path_2152" data-name="Path 2152" class="cls-10" d="M118.451,64.477a3.1,3.1,0,0,1,.541-1.322,1.043,1.043,0,0,1,1.28-.3c.458.3.477.986.87,1.37a2.142,2.142,0,0,0,1.318.394,9,9,0,0,1,2.438.576.982.982,0,0,1,.4.243c.214.24.173.614.278.915.144.39.547.64.7,1.027a2.2,2.2,0,0,1-.141,1.354c-.259.8-.422,1.622-.672,2.419a5.4,5.4,0,0,1-1.2,2.186c-.259.266-.64.512-.989.352l-.131.96a1.6,1.6,0,0,0,0,.6.55.55,0,0,0,.4.422c.026.147.182.218.32.3a.854.854,0,0,1,.224,1.187h0a1.66,1.66,0,0,0-.32.435.611.611,0,0,0,.32.64c.224.138.483.2.71.32a2.2,2.2,0,0,1,.88,1.318,2.422,2.422,0,0,0,.512,1.094c.112.109.246.189.355.3a1.3,1.3,0,0,1,.32.784,1.558,1.558,0,0,1-.224,1.024,3.051,3.051,0,0,1-1.536.854,13.192,13.192,0,0,0-2.454,1.6,2.662,2.662,0,0,1-1.12.528,10.1,10.1,0,0,1-1.654-.2,4.109,4.109,0,0,0-.989.131l-1.024.221a6.4,6.4,0,0,0-.64-2.349,11.616,11.616,0,0,1-.429-4.419,34.64,34.64,0,0,1,.714-4.432,28.485,28.485,0,0,1,.512-3.094,19.367,19.367,0,0,0,.9-2.88C119.168,67.437,118.08,66.07,118.451,64.477Z"/>
      <path id="Path_2153" data-name="Path 2153" class="cls-10" d="M126.227,67.635a1.921,1.921,0,0,1,.2.557,2.019,2.019,0,0,0,.432.813,2.659,2.659,0,0,1,.454.512,3.856,3.856,0,0,1,.173.986c.074.326.32.662.368,1.024a1.674,1.674,0,0,0,.029.32c.112.416.72.515.854.928.09.269-.064.56-.035.842a.825.825,0,0,1,.016.266.541.541,0,0,1-.2.25,3.949,3.949,0,0,0-1.126,2,11.433,11.433,0,0,0-.256,2.31l-.669-.883a1.021,1.021,0,0,0-.266-.272c-.086-.051-.186-.077-.272-.128a1.248,1.248,0,0,1-.451-.723,6.643,6.643,0,0,0-1.2-2.07,2.288,2.288,0,0,1-.64-1.056,2,2,0,0,1,.032-.57,9.676,9.676,0,0,1,.9-3.261c.253-.464.582-.883.829-1.357C125.558,67.8,125.789,66.992,126.227,67.635Z"/>
      <path id="Path_2154" data-name="Path 2154" class="cls-10" d="M109.37,68.71a.79.79,0,0,1-.106.41.541.541,0,0,1-.541.173,1.552,1.552,0,0,1-.541-.253l-1.427-.906a8.341,8.341,0,0,1-.768-.525,6.93,6.93,0,0,1-1.027-1.05c-.829-1.024-1.565-2.138-2.49-3.075-.25-.256-.512-.5-.755-.771a11.372,11.372,0,0,1-.912-1.226,2.088,2.088,0,0,1-.5-1.306c.026-.266.154-.512.192-.778a.579.579,0,0,0-.32-.659h-.093a.608.608,0,0,1-.147-.032c-.237-.1-.2-.467-.032-.659s.426-.3.579-.512a3.4,3.4,0,0,1,.243-.362.941.941,0,0,1,.4-.2,6.153,6.153,0,0,1,3.03-.115c.173.038.368.106.419.272a.535.535,0,0,1,0,.246,5.5,5.5,0,0,0-.131,1.024,1.654,1.654,0,0,0,0,.218,3.853,3.853,0,0,0,1.008,1.9q.816,1.011,1.648,2.01a7.911,7.911,0,0,0,1,1.069,5.636,5.636,0,0,1,1.05.877,1.888,1.888,0,0,1,.17,1.046,23.361,23.361,0,0,1,.045,3.181Z"/>
      <path id="Path_2155" data-name="Path 2155" class="cls-5" d="M131.072,75.84a3.84,3.84,0,0,0,.454-.538,3.639,3.639,0,0,0,.339-.765l.992-2.81c.157-.445.32-.89.512-1.325s.448-.915.672-1.366a18.24,18.24,0,0,0,1.318-3.715,1.373,1.373,0,0,0,.054-.547,1.44,1.44,0,0,0-.486-.736,3.745,3.745,0,0,0-.726-.6,1.21,1.21,0,0,0-.915-.147,1.325,1.325,0,0,0-.806,1.03,10.771,10.771,0,0,0-.106,1.366c-.061.656-.288,1.28-.342,1.949-.029.381,0,.765-.045,1.146a4.2,4.2,0,0,1-.512,1.411,9.168,9.168,0,0,1-2.211,2.717,3.568,3.568,0,0,0-.662.64,2.131,2.131,0,0,0-.32.8,1.843,1.843,0,0,0,.138,1.28,1.9,1.9,0,0,0,1.325.79C130.438,76.566,130.6,76.33,131.072,75.84Z"/>
      <path id="Path_2156" data-name="Path 2156" class="cls-12" d="M117.821,54.256a1.6,1.6,0,0,1,1.549-.842,1.709,1.709,0,0,1,1.341,1.206,3.324,3.324,0,0,0,.253.755c.214.32.608.426.9.666a1.8,1.8,0,0,1,.576,1.28,3.872,3.872,0,0,1-.227,1.44,4.8,4.8,0,0,0-.173.6c-.032.2-.035.4-.067.6a1.952,1.952,0,0,1-.784,1.28.362.362,0,0,1-.211.077c-.134,0-.218-.173-.266-.32-.272-.787-.208-1.744-.707-2.371a2.586,2.586,0,0,0-.81-.6,1.059,1.059,0,0,0-.416-.157,1.094,1.094,0,0,0-.6.221,3.738,3.738,0,0,1-1.184.522,1.456,1.456,0,0,1-1.222-.262,5.724,5.724,0,0,0-.669-.64,5.12,5.12,0,0,0-.794-.246,1.178,1.178,0,0,1-.621-1.542,1.161,1.161,0,0,1,.147-.25c.17-.2.422-.32.576-.547a3.471,3.471,0,0,0,.272-1.05,1.453,1.453,0,0,1,.87-1,1.226,1.226,0,0,1,1.216.256c.17.154.32.352.477.512a1.36,1.36,0,0,0,1.264.342"/>
      <path id="Path_2157" data-name="Path 2157" class="cls-8" d="M120.64,79.408a.662.662,0,0,0-.182.723,16.018,16.018,0,0,0,1.987-.285c.464-.067,1.28-.035,1.6-.461.557-.752-1.168-.586-1.485-.557A3.205,3.205,0,0,0,120.64,79.408Z"/>
      <path id="Path_2158" data-name="Path 2158" class="cls-10" d="M104.589,57.363a5.276,5.276,0,0,0-.131,1.024,2.96,2.96,0,0,1-1.539-.237l-1.411-.48a.4.4,0,0,0-.541.1,11.521,11.521,0,0,1-.854.96.576.576,0,0,1-.147-.032c-.24-.1-.2-.467-.032-.659s.422-.3.579-.512a3.4,3.4,0,0,1,.243-.362.931.931,0,0,1,.4-.2,6.166,6.166,0,0,1,3.034-.115c.173.038.365.106.416.272A.486.486,0,0,1,104.589,57.363Z"/>
      <path id="Path_2159" data-name="Path 2159" class="cls-8" d="M104.589,57.363a5.276,5.276,0,0,0-.131,1.024,2.96,2.96,0,0,1-1.539-.237l-1.411-.48a.4.4,0,0,0-.541.1,11.521,11.521,0,0,1-.854.96.576.576,0,0,1-.147-.032c-.24-.1-.2-.467-.032-.659s.422-.3.579-.512a3.4,3.4,0,0,1,.243-.362.931.931,0,0,1,.4-.2,6.166,6.166,0,0,1,3.034-.115c.173.038.365.106.416.272A.486.486,0,0,1,104.589,57.363Z"/>
      <path id="Path_2160" data-name="Path 2160" class="cls-8" d="M117.514,89.8a.858.858,0,0,1,.6.448l-1.981-.5-1.024-.262c-.182-.045-.832-.1-.96-.24-.17-.208.435-.064.544-.051.32.051.666.1,1,.163C116.317,89.469,116.915,89.651,117.514,89.8Z"/>
      <path id="Path_2161" data-name="Path 2161" class="cls-8" d="M118.282,91.555a3.924,3.924,0,0,0-.87-.15c-.32-.074-.611-.17-.912-.262-.614-.2-1.222-.429-1.853-.576-.118-.026-.512-.032-.5-.179s.4-.2.493-.2a4.836,4.836,0,0,1,1.773.406A7.884,7.884,0,0,1,118.282,91.555Z"/>
      <path id="Path_2162" data-name="Path 2162" class="cls-8" d="M117.027,88.243a14.153,14.153,0,0,0-1.843-.64.742.742,0,0,1-.467-.144.541.541,0,0,1-.154-.272,3.181,3.181,0,0,1,1.328.32,3.983,3.983,0,0,1,.621.32A2.626,2.626,0,0,0,117.027,88.243Z"/>
      <path id="Path_2163" data-name="Path 2163" class="cls-10" d="M128.982,72.941a2.992,2.992,0,0,0,2.1,3.306c-.083.4-.5.64-.8.915-.416.406-.64,1.014-1.123,1.322a2.515,2.515,0,0,1-1.878.064.227.227,0,0,1-.147-.077.249.249,0,0,1-.029-.067,4.387,4.387,0,0,1-.131-2.323,7.707,7.707,0,0,1,.912-1.766C128.211,73.744,128.24,73.13,128.982,72.941Z"/>
      <path id="Path_2164" data-name="Path 2164" class="cls-10" d="M113.7,63.142a4.525,4.525,0,0,0-1.878.573,2.079,2.079,0,0,1-1.213.461c-.259-.029-.512-.17-.765-.1a1.472,1.472,0,0,0-.39.234.445.445,0,0,1-.432.067l-.17,2.365a8.736,8.736,0,0,0,.086,2.694,7.612,7.612,0,0,1,.384,1.309c.029.454,0,.918.019,1.379s.125.845.147,1.28a8.054,8.054,0,0,1-.342,2.381,14.028,14.028,0,0,1-1.024,3.37,2,2,0,0,0-.342.912.48.48,0,0,0,0,.118c-.17.1-.32.182-.474.275a1.827,1.827,0,0,0-.806.81c-.106.294-.058.64-.186.918s-.429.49-.493.8c-.048.224.042.461,0,.685a2.712,2.712,0,0,0-.093.352.739.739,0,0,0,.413.6,3.43,3.43,0,0,0,1.027.451l1.018-4.051h0a32.569,32.569,0,0,0,2.314-5.376,11.392,11.392,0,0,1,.669-1.773,8.236,8.236,0,0,0,.512-1,7.556,7.556,0,0,0,.246-1.35,9.723,9.723,0,0,1,.4-1.562,6.669,6.669,0,0,0,.438-1.67,7.657,7.657,0,0,1,.074-2.454,3.219,3.219,0,0,1,.522-.784c.442-.541.842-1.107,1.28-1.648A1.2,1.2,0,0,0,113.7,63.142Z"/>
      <g id="Group_228" data-name="Group 228" class="cls-13">
        <path id="Path_2165" data-name="Path 2165" d="M118.518,53.693l-.211.016h-.026a1.171,1.171,0,0,0,.237-.016Z"/>
        <path id="Path_2166" data-name="Path 2166" d="M122.429,57.242a4.608,4.608,0,0,1-.218,1,5.121,5.121,0,0,0-.173.6c-.032.2-.035.4-.067.6a1.946,1.946,0,0,1-.784,1.28.346.346,0,0,1-.211.08c-.134-.016-.218-.173-.266-.32-.272-.784-.208-1.741-.707-2.368a2.538,2.538,0,0,0-.81-.6,1.011,1.011,0,0,0-.416-.157,1.117,1.117,0,0,0-.6.218,3.744,3.744,0,0,1-1.184.525,1.469,1.469,0,0,1-1.222-.262c-.234-.2-.406-.49-.669-.64a5.153,5.153,0,0,0-.794-.25,1.155,1.155,0,0,1-.666-.762.378.378,0,0,1,0-.064,1.184,1.184,0,0,0,0,.579,1.171,1.171,0,0,0,.666.762,5.565,5.565,0,0,1,.794.246,6.221,6.221,0,0,1,.669.64A1.456,1.456,0,0,0,117,58.6a3.738,3.738,0,0,0,1.184-.522,1.094,1.094,0,0,1,.6-.221,1.059,1.059,0,0,1,.416.157,2.589,2.589,0,0,1,.8.608c.5.624.435,1.584.707,2.368.051.141.131.294.266.32a.355.355,0,0,0,.224-.08,1.962,1.962,0,0,0,.787-1.3c.029-.2.032-.4.067-.6a4.3,4.3,0,0,1,.17-.6,3.84,3.84,0,0,0,.227-1.437Z"/>
      </g>
      <path id="Path_2167" data-name="Path 2167" class="cls-14" d="M47.165,86.938c-.394-.131-2.72-1.971-2.88-2.8s1.229-8.586,1.229-8.586a3.128,3.128,0,0,1-.339-.026V75.4l.288-10.182s1.184-6.835-1.053-6.438-.835,6.438-.835,6.438-.253,3.066-.432,3.984-.96,4.5-.422,5.622a1.071,1.071,0,0,0,.067.115h0s.086,3.84-.877,4.381-1.306,3.021-1.338,3.245l-.048-.019h0a2.71,2.71,0,0,1-.714-.64.745.745,0,0,1-.054-.083,3.757,3.757,0,0,0-.1-5.1,3.8,3.8,0,0,0-1.056-.771,2.477,2.477,0,0,0-.227-.96c-.445-.96-2.906-2.192-4.653-2.221-.806-.022-1.469.2-1.709.835a4.72,4.72,0,0,0-.138,1.014,2.56,2.56,0,0,1-1.107,1.645,7.36,7.36,0,0,0-.736-.71A16.03,16.03,0,0,1,28.32,73.67s-3.552-3.68-3.814-4.688-3.814-7.062-4.6-6.006,2.717,5.648,2.717,5.648a10.9,10.9,0,0,0,1.181,2.24c.512.57,4.442,6.272,4.442,6.272l.189.39a3.354,3.354,0,0,0-1.856,1.862c-.394,1.28.464,2.56,1.059,3.757a7.458,7.458,0,0,1-.17,7.446c-1.341,1.882-3.664,2.778-5.84,3.558a5.728,5.728,0,0,0,3.69,1.226c-.5,1.456-2.282,1.939-3.8,2.208a5.386,5.386,0,0,0,3.03,1.213,8.866,8.866,0,0,0,1.619.128h.269a4.541,4.541,0,0,0,.55-.07,2.88,2.88,0,0,0,1.962-1.28c.339-.6.461-1.411,1.082-1.709a1.351,1.351,0,0,1,.512-.122h.32l2.586.026h.32a2.134,2.134,0,0,0,1.878-.749,2.077,2.077,0,0,0,.237-.96c.054-.819,0-1.661.022-2.486.218,1.5.451,3.84-.1,4.707a7.955,7.955,0,0,1-1.6,1.738,3.2,3.2,0,0,0-.422.435c-.083.061-.134.093-.134.093l-.051.16a3.027,3.027,0,0,0-.419.96.723.723,0,0,0-.032.275c.061.122-.426.621-.285.832a7.537,7.537,0,0,0-1.446,3.587l-2.24,3.373c-1.139,3-2.848,3.309-2.848,3.309s-4.016-2.694-4.125-2.826a15.534,15.534,0,0,0-1.642-.79,1.741,1.741,0,0,0-.79-.72c-.528-.221-.573-1.027-.573-1.027-.064-1.9-1.184-2.048-1.184-2.048a3.622,3.622,0,0,0-2.1.368H15.75c-.774.064-1.709.134-2.733.2-2.851.189-3.52,2.035-3.52,2.035a.57.57,0,0,0,.109.822c.461.429,3.4,0,3.52,0a1.882,1.882,0,0,1-.669-.045c.464-.019,1.1-.035,1.645-.035h.131a7.164,7.164,0,0,0-.051.867c0,.547,1.514.9,1.514.9l4.6,4.1A17.81,17.81,0,0,1,25.037,116a2.353,2.353,0,0,0,3.472.256c1.949-.483,7.558-7.267,7.565-7.274h0c0,.2.118,6.8.342,8.118h0a.854.854,0,0,0,.048.2,6.5,6.5,0,0,1-.24,2.781,7.626,7.626,0,0,0-.112,1.664s-2.1,8.032-1.92,8.736-1.139,3.984-1.139,3.984V137.2h.23a1.208,1.208,0,0,0-.083.138v.029a9.8,9.8,0,0,0,2.32.234,6.472,6.472,0,0,1,2.56.726,7.177,7.177,0,0,0,2.24.368c1.69.109,1.69-.742,1.69-.742-.192-1.165-2.861-1.555-2.944-1.565-.214-.138-.416-.285-.582-.41l-.032-.029.029-.077c.285-1.162-1.28-1.667-1.28-1.667v-.285c1.027-.525,1.229-4.138,1.229-4.138s1.539-4.48,1.754-5.213a4.87,4.87,0,0,0,0-1.859l.154-.96a4.746,4.746,0,0,0,.32-.787,1.965,1.965,0,0,1,.374-.922c.24-.285-.262-.96-.262-.96l.438-1.139v-1.248l1.024-4.531s1.075-5.28.7-7.008a2.975,2.975,0,0,1,.438-2.6,2.056,2.056,0,0,1-.227.1,6.575,6.575,0,0,0,.266-.726l2.307.285v.035h.832S46.288,99,46.288,97.69s.886-6.006.886-6.006S47.558,87.069,47.165,86.938Zm-10.24-3.792a2.435,2.435,0,0,1-.022.4l-.045.07-.086-.074-.1.163-.032.016c-.224-.115-.342-.781-.5-.64l-.022.019c-.038-.042-.074-.054-.112-.019l-.032.029v-.154a3.839,3.839,0,0,0,.96.122Zm7.68,15.12h.051l-.083.218a1.672,1.672,0,0,1,.022-.218ZM36.16,137.018l-.32-.08.17-.029.16.106h.019Zm3.2-.461c-.1-.054-.208-.118-.32-.182a1.681,1.681,0,0,1,.346.182Z"/>
      <path id="Path_2168" data-name="Path 2168" class="cls-10" d="M45.731,95.04l-2.07,5.392h.5l-1.946,1.552,3.514.435Z"/>
      <path id="Path_2169" data-name="Path 2169" class="cls-8" d="M45.731,95.04l-2.07,5.392-.522-.141-.922,1.693,3.514.435Z"/>
      <path id="Path_2170" data-name="Path 2170" class="cls-10" d="M42.486,98.49h3.245l1.19-9.8H42.486Z"/>
      <path id="Path_2171" data-name="Path 2171" class="cls-8" d="M42.486,98.49h3.245l1.19-9.8H42.486Z"/>
      <path id="Path_2172" data-name="Path 2172" class="cls-5" d="M36.16,91.008l.7-.115,1.6-.275s4.835-1.091,5.834-1.178a6.3,6.3,0,0,0,1.75-.5c.259-.112.426-.2.426-.2L44.73,85.562l-2.7-2A4.692,4.692,0,0,1,39.6,82.2a1.6,1.6,0,0,1-.224-1.52c.442-1.366-2.634,1.309-2.634,1.309s.029.64,0,1.456a3,3,0,0,1-.029.5,3.083,3.083,0,0,1-.026.342,5.526,5.526,0,0,1-.534,2.147C35.4,87.654,36.16,91.008,36.16,91.008Z"/>
      <path id="Path_2173" data-name="Path 2173" class="cls-8" d="M36.736,83.52H36.8c.125,0,.224-.262.342-.275a3.527,3.527,0,0,0,2.451-.976,1.6,1.6,0,0,1-.224-1.514c.442-1.366-2.634,1.306-2.634,1.306S36.771,82.7,36.736,83.52Z"/>
      <path id="Path_2174" data-name="Path 2174" class="cls-5" d="M33,79.642a3.741,3.741,0,0,0,3.741,3.744h0a2.757,2.757,0,0,0,.365-.016,3.747,3.747,0,1,0-4.109-3.728Z"/>
      <path id="Path_2175" data-name="Path 2175" class="cls-12" d="M31.843,73.955a4.608,4.608,0,0,0-.134,1.011c-.182,1.213-1.418,1.942-2.534,2.451s-2.381,1.114-2.736,2.285c-.39,1.28.461,2.544,1.053,3.734a7.419,7.419,0,0,1-.17,7.4C26,92.72,23.7,93.613,21.53,94.394A5.718,5.718,0,0,0,25.2,95.616c-.5,1.446-2.266,1.92-3.773,2.192a5.4,5.4,0,0,0,3.008,1.206,6.762,6.762,0,0,0,2.394.045,2.88,2.88,0,0,0,1.946-1.28c.339-.6.458-1.4,1.072-1.7a1.952,1.952,0,0,1,.877-.128l2.56.029c.8,0,1.744-.061,2.157-.746a2.054,2.054,0,0,0,.23-.941c.112-1.683-.211-3.459.48-5,.211-.461-1.13-1.194-.989-1.686a15.68,15.68,0,0,0,.6-4.768c0-1.36.883-2.528,1.6-3.677s1.341-2.592.765-3.824C37.488,73.968,32.611,71.974,31.843,73.955Z"/>
      <path id="Path_2176" data-name="Path 2176" class="cls-5" d="M35.258,136.525l.64.432.1.067h.019l.774.512,1.808.32,1.6-.109s.461-.96-.259-.934a1.485,1.485,0,0,1-.64-.192l-.1-.048h0a3.417,3.417,0,0,1-.32-.182h0c-.214-.134-.416-.282-.579-.406-.24-.182-.4-.32-.4-.32Z"/>
      <path id="Path_2177" data-name="Path 2177" class="cls-8" d="M35.917,136.96l.1.067h.019l.774.512,1.8.32,1.6-.109s.458-.96-.262-.934a1.485,1.485,0,0,1-.64-.192c.128.1.234.208.243.3.029.246-1.174.685-1.174.685l-1.7-.448s-.288-.083-.685-.186h-.035Z"/>
      <path id="Path_2178" data-name="Path 2178" class="cls-6" d="M33.011,137.373a9.495,9.495,0,0,0,2.33.218,6.636,6.636,0,0,1,2.56.72,7.137,7.137,0,0,0,2.221.365c1.677.109,1.677-.739,1.677-.739-.192-1.158-2.838-1.539-2.922-1.555h0a3.261,3.261,0,0,1,.32.179h0c.189.125.39.285.406.416.029.24-1.174.682-1.174.682l-1.7-.448s-.288-.083-.685-.186H36.01a14.677,14.677,0,0,0-1.782-.368,1.238,1.238,0,0,0-1.181.685Z"/>
      <path id="Path_2179" data-name="Path 2179" class="cls-5" d="M11.062,106.646l.739.554.538-.022h.1c.458-.016,1.091-.032,1.632-.032a5.159,5.159,0,0,1,1.04.058c.368.128,1.024-2.112,1.024-2.112l-.742-.173-.243-.058-.173-.038-.6-.144-1.83.208-1.28.829Z"/>
      <path id="Path_2180" data-name="Path 2180" class="cls-8" d="M11.062,106.646l.739.554.538-.022a.614.614,0,0,1-.342-.32c-.48-1.328,1.894-1.894,1.894-1.894l1.1-.048h.387l-.246-.058-.17-.038-.6-.144-1.827.208-1.28.829Z"/>
      <path id="Path_2181" data-name="Path 2181" class="cls-6" d="M9.6,107.245c.448.413,3.379,0,3.5,0a1.776,1.776,0,0,1-.662-.048.742.742,0,0,1-.515-.365c-.477-1.331,1.9-1.9,1.9-1.9l1.1-.048h.214l2.688-.115.128-.739s-.87.08-2.24.189c-.771.064-1.709.134-2.72.2-2.832.189-3.52,2.026-3.52,2.026a.566.566,0,0,0,.125.8Z"/>
      <path id="Path_2182" data-name="Path 2182" class="cls-5" d="M42.486,75.171a.831.831,0,0,0,.067.115l.64.96,1.7.173v-.675l.288-10.128s1.219-6.8-1.021-6.416-.829,6.4-.829,6.4-.253,3.046-.429,3.962S41.958,74.061,42.486,75.171Z"/>
      <path id="Path_2183" data-name="Path 2183" class="cls-5" d="M38.675,100.33l.483.829,1.082,1.85s1.962.72,2.464.173a7.1,7.1,0,0,0,.781-2.224c.173-.71.288-1.309.288-1.309Z"/>
      <path id="Path_2184" data-name="Path 2184" class="cls-8" d="M38.675,100.33l.483.829a.531.531,0,0,0,.083-.086c.547-.7,2.954-.15,4.243-.106.173-.71.288-1.312.288-1.312Z"/>
      <path id="Path_2185" data-name="Path 2185" class="cls-8" d="M14.08,107.155a5.159,5.159,0,0,1,1.04.058c.368.128,1.024-2.112,1.024-2.112l-.986-.234,2.685-.115.131-.739s-.874.08-2.24.189a2.749,2.749,0,0,0-.746.624l-.042.051a4.48,4.48,0,0,0-.867,2.278Z"/>
      <path id="Path_2186" data-name="Path 2186" class="cls-8" d="M35.258,136.525l.752.5c1.123-.2,2.15-.522,2.272-1.024v-.026c-.237-.186-.4-.32-.4-.32Z"/>
      <path id="Path_2187" data-name="Path 2187" class="cls-8" d="M33.027,137.344a25.488,25.488,0,0,0,2.963-.32,14.685,14.685,0,0,0-1.782-.371A1.235,1.235,0,0,0,33.027,137.344Z"/>
      <path id="Path_2188" data-name="Path 2188" class="cls-7" d="M14.154,108.016c0,.547,1.5.9,1.5.9l4.573,4.07a17.848,17.848,0,0,1,4.7,3.136,2.336,2.336,0,0,0,3.44.262c1.939-.48,7.52-7.232,7.52-7.232s.128,7.712.39,8.278a6.378,6.378,0,0,1-.24,2.765,7.75,7.75,0,0,0-.109,1.654s-2.09,8-1.92,8.688-1.133,3.965-1.133,3.965v2.723s5.12-.2,5.4-1.35S37,134.218,37,134.218v-.285c1.024-.522,1.219-4.115,1.219-4.115s1.523-4.442,1.741-5.181a4.832,4.832,0,0,0,0-1.853l.154-.96a4.841,4.841,0,0,0,.32-.784,1.92,1.92,0,0,1,.371-.915c.237-.285-.262-.96-.262-.96l.435-1.133V116.8l1.027-4.509s1.066-5.251.694-6.97a2.951,2.951,0,0,1,.438-2.592c-1.75.915-2.63-1.123-2.918-2-.074-.224-.112-.374-.112-.374a12.212,12.212,0,0,0-4.634-.675,5.4,5.4,0,0,0-1.331.285c-2.483.893-2.88,4.592-2.88,4.592l-2.2,3.357c-1.123,2.979-2.829,3.283-2.829,3.283s-3.984-2.678-4.1-2.81a16.268,16.268,0,0,0-1.635-.784,1.718,1.718,0,0,0-.778-.723c-.522-.221-.566-1.027-.566-1.027-.064-1.894-1.174-2.048-1.174-2.048C14.131,103.488,14.154,107.475,14.154,108.016Z"/>
      <rect id="Rectangle_477" data-name="Rectangle 477" class="cls-10" width="2.352" height="7.296" transform="translate(36.323 90.074)"/>
      <rect id="Rectangle_478" data-name="Rectangle 478" class="cls-8" width="2.352" height="7.296" transform="translate(36.323 90.074)"/>
      <path id="Path_2189" data-name="Path 2189" class="cls-8" d="M42.486,75.155h0a.81.81,0,0,0,.064.115l.64.96,1.7.173.019-.675A6.544,6.544,0,0,1,42.486,75.155Z"/>
      <path id="Path_2190" data-name="Path 2190" class="cls-10" d="M42.56,75.286s.086,3.84-.874,4.355-1.338,3.238-1.338,3.238A25.183,25.183,0,0,1,43.9,85.632c.65.832,2.134,2.845,1.827,3.322s.742,2.659.742,2.659-1.92,3.92-1.482,5.4a30.616,30.616,0,0,1,.477,5.4H46.3s-.259-3.222-.259-4.531.867-5.965.867-5.965.394-4.573,0-4.7-2.7-1.958-2.88-2.787,1.219-8.544,1.219-8.544A7.521,7.521,0,0,1,42.56,75.286Z"/>
      <path id="Path_2191" data-name="Path 2191" class="cls-8" d="M36.278,89.4a3.77,3.77,0,0,0,.57,1.494l1.6-.275s4.835-1.091,5.834-1.178a6.3,6.3,0,0,0,1.75-.5A7.725,7.725,0,0,0,43.869,85.4l-.614-.57a10.24,10.24,0,0,0-3.091-1.978c.07.061,5.142,4.39,4.032,5.238s-4.1-1.216-4.1-1.216l-3.4-2.925-.125-.106-.2.32a2.438,2.438,0,0,1,.291.141,5,5,0,0,1,2.394,2.973C39.766,89.6,36.278,89.4,36.278,89.4Z"/>
      <path id="Path_2192" data-name="Path 2192" class="cls-15" d="M35.235,100.288s3.222,1.786,4,.784a1.334,1.334,0,0,1,.982-.342c-.074-.227-.109-.378-.109-.378a12.265,12.265,0,0,0-4.637-.672C35.328,100.048,35.235,100.288,35.235,100.288Z"/>
      <path id="Path_2193" data-name="Path 2193" class="cls-16" d="M36.717,83.84l3.52,3.034s2.979,2.074,4.1,1.216-4.019-5.235-4.019-5.235h0a10.362,10.362,0,0,1,3.091,1.971l.614.57c1.6,1.494,1.978,1.494,2.032,3.693a3.182,3.182,0,0,1-.32,1.459c-.522.512-.89,4.237-.81,4.672s-.96,4.2-.64,5.242-4.272-.522-5.053.48-4-.781-4-.781,1.786-4.576,2.221-4.88a3.54,3.54,0,0,0,0-3.744A4.042,4.042,0,0,1,36.413,89.4s3.485.214,2.787-2.134a4.931,4.931,0,0,0-2.682-3.114Z"/>
      <path id="Path_2194" data-name="Path 2194" class="cls-8" d="M41.421,91.555s-1.354,2.56-3.1,3.2l-.17.054C36.323,95.376,41.555,92.342,41.421,91.555Z"/>
      <path id="Path_2195" data-name="Path 2195" class="cls-5" d="M22.518,69.014a9.666,9.666,0,0,0,1.174,2.221c.534.566,4.4,6.227,4.4,6.227l.32.685.282.582,2.483-.262.17-1-.093-.115A11.908,11.908,0,0,0,29.866,75.9a16.054,16.054,0,0,1-1.7-1.869s-3.53-3.661-3.782-4.662S20.6,62.358,19.814,63.4,22.518,69.014,22.518,69.014Z"/>
      <g id="Group_229" data-name="Group 229" class="cls-13">
        <path id="Path_2196" data-name="Path 2196" d="M29.722,95.949a1.952,1.952,0,0,0-.877.128c-.614.3-.733,1.107-1.072,1.7a2.88,2.88,0,0,1-1.949,1.28,4.618,4.618,0,0,1-.47.064,5.463,5.463,0,0,0,1.5-.064,2.88,2.88,0,0,0,1.946-1.28c.342-.592.458-1.4,1.072-1.7a1.366,1.366,0,0,1,.515-.122Z"/>
        <path id="Path_2197" data-name="Path 2197" d="M35.792,82.842c0-1.36.883-2.528,1.6-3.677s1.341-2.592.765-3.824c-.493-1.05-3.459-2.461-5.171-2.182,1.677.218,3.744,1.322,4.16,2.182.576,1.232-.038,2.678-.765,3.824s-1.616,2.317-1.6,3.677a16,16,0,0,1-.6,4.768c-.138.49,1.2,1.226.992,1.686-.694,1.536-.371,3.312-.48,4.992a2.064,2.064,0,0,1-.237.96,1.992,1.992,0,0,1-1.722.739h.6c.8,0,1.741-.064,2.154-.746a2.1,2.1,0,0,0,.234-.941c.112-1.683-.214-3.459.48-5,.208-.461-1.13-1.2-.992-1.683a15.738,15.738,0,0,0,.586-4.781Z"/>
      </g>
      <path id="Path_2198" data-name="Path 2198" class="cls-8" d="M28.419,78.144l.282.582,2.483-.262.17-1-.093-.115C31,77.478,29.011,78.432,28.419,78.144Z"/>
      <path id="Path_2199" data-name="Path 2199" class="cls-8" d="M37.587,84.694s-.611-.96-.96-.7-.483-.784-.682-.611-.784.659-1.027-.019c-.189-.538-2.24-3.955-3.091-5.328l-.349-.576s-2.352,1.178-2.918.787v.826l.48.045L31.6,83.9s.806,1.28.752,1.731a7.726,7.726,0,0,0,1.206,2.538c.173.131,2.051,2.307,2.051,2.307s.96,4.707.131,6.013a8.9,8.9,0,0,1-2.266,2.266,7.237,7.237,0,0,0-.368,1.392c.064.131-.5.7-.24.874s.608,1.392.608,1.392,1.219-1.962,1.882-2.266,1.5-4.31,1.5-4.31.24-2.362.259-3.888S37.066,84.694,37.587,84.694Z"/>
      <path id="Path_2200" data-name="Path 2200" class="cls-10" d="M37.456,84.694s-.608-.96-.96-.7-.486-.784-.685-.611-.781.659-1.024-.019c-.192-.538-2.24-3.955-3.091-5.328l-.352-.576S29,78.64,28.426,78.25v.826l.48.045,2.56,4.784s.81,1.28.752,1.731a7.483,7.483,0,0,0,1.21,2.538c.182.131,2.051,2.307,2.051,2.307s.96,4.707.131,6.013a8.115,8.115,0,0,1-1.578,1.747A3.062,3.062,0,0,0,33,99.885a.64.64,0,0,0-.029.272c.064.131-.5.7-.24.87s.611,1.4.611,1.4,1.222-1.958,1.882-2.262,1.5-4.314,1.5-4.314.24-2.362.259-3.888S36.944,84.694,37.456,84.694Z"/>
      <path id="Path_2201" data-name="Path 2201" class="cls-8" d="M31.488,104.512a8.727,8.727,0,0,1,2.56.87c.73.528-2.787-.829-2.787-.829Z"/>
      <path id="Path_2202" data-name="Path 2202" class="cls-8" d="M35.888,109.149s1.92,1.6,1.568,3.03-1.226,5.053-1.226,5.053Z"/>
      <path id="Path_2203" data-name="Path 2203" class="cls-8" d="M19.2,106.093s-2.688.291-2.515.64,2.515-.32,2.515-.32Z"/>
      <path id="Path_2204" data-name="Path 2204" class="cls-8" d="M39.846,119.322s.173.218-.826,0-.262-.886-.262-.886Z"/>
      <path id="Path_2205" data-name="Path 2205" class="cls-8" d="M39.507,122.326a6.355,6.355,0,0,1-2.1,0C36.672,122.109,39.507,122.326,39.507,122.326Z"/>
      <path id="Path_2206" data-name="Path 2206" class="cls-8" d="M36.694,134.08s-.24-.262-1.437.218-1.677.5-2.026.342S36.694,134.08,36.694,134.08Z"/>
      <path id="Path_2207" data-name="Path 2207" class="cls-8" d="M38.022,105.722l-1.7,2.362S37.238,106.016,38.022,105.722Z"/>
      <path id="Path_2208" data-name="Path 2208" class="cls-8" d="M34.72,84s-.074.784-1.168,1.091a3.01,3.01,0,0,0-1.3.554"/>
      <path id="Path_2209" data-name="Path 2209" class="cls-8" d="M31.875,78.31a4.687,4.687,0,0,1-2.957.81"/>
      <path id="Path_2210" data-name="Path 2210" class="cls-8" d="M32.976,100.266s.422.262,1.434-.9"/>
      <path id="Path_2211" data-name="Path 2211" class="cls-8" d="M43.5,87.981a.758.758,0,0,0-.246-.576l-.282-.342a1.5,1.5,0,0,0-.189-.189c-.17-.131-.387-.173-.566-.291"/>
      <path id="Path_2212" data-name="Path 2212" class="cls-3" d="M144.755,33.654s-14.384-.867-12.694,9.216a2.451,2.451,0,0,0,1.28,2.589s.026-.746,1.475-.49a6.932,6.932,0,0,0,1.565.074,3.254,3.254,0,0,0,1.92-.79h0s4.045-1.67,5.616-8.278c0,0,1.165-1.443,1.117-1.814L142.6,35.2a4.318,4.318,0,0,1,.17,3.2s-.08-3.142-.544-3.075c-.1,0-1.264.608-1.264.608s1.427,3.05.352,5.267c0,0,.41-3.76-.8-5.046l-1.709,1s1.674,3.168.538,5.728c0,0,.291-3.946-.9-5.482l-1.546,1.21s1.565,3.107.611,5.238c0,0-.125-4.592-.96-4.938a9.506,9.506,0,0,0-1.562,1.683s1.072,2.24.406,3.446c0,0-.41-3.059-.742-3.075a10.152,10.152,0,0,0-1.491,3.418,7.351,7.351,0,0,1,1.165-3.61,4.07,4.07,0,0,0-2.067,1.069s.208-1.43,2.4-1.555a9.529,9.529,0,0,1,1.411-1.632,8.866,8.866,0,0,0-3.5.4s1.162-1.354,3.9-.736L138,37.069a12.678,12.678,0,0,0-4.083.042s1.4-1.2,4.5-.32l1.664-1a15.2,15.2,0,0,0-3.9-.342s1.539-.829,4.39.07l1.2-.534s-1.792-.352-2.317-.41-.55-.2-.55-.2a6.2,6.2,0,0,1,3.363.374A15.112,15.112,0,0,0,144.755,33.654Z"/>
      <path id="Path_2213" data-name="Path 2213" class="cls-3" d="M127.011,36.221s-6.493-.381-5.731,4.163a1.11,1.11,0,0,0,.576,1.171s0-.342.669-.224a3.04,3.04,0,0,0,.7.035,1.462,1.462,0,0,0,.864-.358h0s1.827-.752,2.538-3.741c0,0,.525-.64.506-.819l-1.1.467a1.962,1.962,0,0,1,.08,1.453s-.035-1.424-.246-1.389c-.042,0-.57.275-.57.275a3.274,3.274,0,0,1,.16,2.381s.182-1.7-.362-2.282l-.771.451a3.393,3.393,0,0,1,.24,2.586,4.866,4.866,0,0,0-.4-2.477l-.7.554a3.346,3.346,0,0,1,.278,2.365s-.058-2.074-.429-2.24a4.326,4.326,0,0,0-.707.765s.486,1.024.186,1.555c0,0-.186-1.382-.342-1.389a4.613,4.613,0,0,0-.672,1.539,3.315,3.315,0,0,1,.525-1.632,1.818,1.818,0,0,0-.934.483s.1-.64,1.085-.7a4.7,4.7,0,0,1,.64-.739,4.013,4.013,0,0,0-1.581.186,1.781,1.781,0,0,1,1.763-.342l.682-.563a6.283,6.283,0,0,0-1.846,0,2.261,2.261,0,0,1,2.032-.144l.752-.451a6.672,6.672,0,0,0-1.763-.15,2.694,2.694,0,0,1,1.984.029l.538-.24s-.81-.16-1.046-.186-.25-.09-.25-.09a2.8,2.8,0,0,1,1.52.17A6.6,6.6,0,0,0,127.011,36.221Z"/>
      <path id="Path_2214" data-name="Path 2214" class="cls-3" d="M21.712,39.254a6.208,6.208,0,0,1,3.366-.374s-.029.144-.554.2-2.314.406-2.314.406l1.194.534c2.854-.9,4.39-.07,4.39-.07a15.359,15.359,0,0,0-3.9.342l1.664,1c3.1-.87,4.48.32,4.48.32a12.64,12.64,0,0,0-4.083-.038l1.53,1.248c2.736-.614,3.9.736,3.9.736a8.866,8.866,0,0,0-3.5-.4A9.424,9.424,0,0,1,29.3,44.784c2.189.125,2.4,1.558,2.4,1.558a4.059,4.059,0,0,0-2.067-1.072,7.368,7.368,0,0,1,1.162,3.61,10.1,10.1,0,0,0-1.488-3.418c-.32,0-.746,3.075-.746,3.075-.666-1.187.406-3.443.406-3.443A9.435,9.435,0,0,0,27.4,43.408c-.819.349-.96,4.938-.96,4.938-.96-2.131.611-5.238.611-5.238L25.539,41.92c-1.187,1.536-.9,5.478-.9,5.478-1.133-2.56.534-5.722.534-5.722l-1.709-1c-1.2,1.28-.8,5.046-.8,5.046-1.075-2.218.352-5.267.352-5.267s-1.168-.592-1.261-.6c-.467-.07-.547,3.075-.547,3.075a4.306,4.306,0,0,1,.173-3.2L18.96,38.691c-.045.371,1.117,1.814,1.117,1.814,1.574,6.608,5.619,8.282,5.619,8.282h0a3.235,3.235,0,0,0,1.92.787,6.72,6.72,0,0,0,1.562-.074c1.45-.256,1.478.493,1.478.493a2.456,2.456,0,0,0,1.28-2.592c1.693-10.083-12.694-9.213-12.694-9.213A17.643,17.643,0,0,0,21.712,39.254Z"/>
      <path id="Path_2215" data-name="Path 2215" class="cls-3" d="M37.146,45.7a2.806,2.806,0,0,1,1.52-.173s0,.067-.25.093-1.046.182-1.046.182l.538.24a2.7,2.7,0,0,1,1.984-.029,6.819,6.819,0,0,0-1.763.15l.752.451a2.246,2.246,0,0,1,2.032.147,5.833,5.833,0,0,0-1.846-.019l.685.563a1.786,1.786,0,0,1,1.76.342,3.987,3.987,0,0,0-1.581-.182,4.553,4.553,0,0,1,.64.736c.989.058,1.085.7,1.085.7a1.84,1.84,0,0,0-.934-.483,3.328,3.328,0,0,1,.525,1.632,4.613,4.613,0,0,0-.672-1.539c-.157,0-.342,1.389-.342,1.389-.3-.531.186-1.555.186-1.555a4.282,4.282,0,0,0-.707-.762c-.371.154-.429,2.24-.429,2.24a3.356,3.356,0,0,1,.278-2.368l-.7-.554a4.866,4.866,0,0,0-.4,2.477,3.4,3.4,0,0,1,.243-2.586l-.774-.451c-.544.582-.358,2.282-.358,2.282a3.231,3.231,0,0,1,.157-2.381s-.528-.275-.57-.275c-.211-.032-.246,1.389-.246,1.389a1.971,1.971,0,0,1,.08-1.45l-1.1-.467c-.019.17.506.822.506.822C37.1,49.248,38.931,50,38.931,50h0a1.485,1.485,0,0,0,.864.355,2.909,2.909,0,0,0,.707-.035c.656-.115.666.224.666.224a1.11,1.11,0,0,0,.576-1.171c.762-4.557-5.731-4.16-5.731-4.16A8.18,8.18,0,0,0,37.146,45.7Z"/>
      <ellipse id="Ellipse_227" data-name="Ellipse 227" class="cls-17" cx="6.87" cy="1.162" rx="6.87" ry="1.162" transform="translate(133.315 137.27)"/>
      <path id="Path_2216" data-name="Path 2216" class="cls-17" d="M143.04,136.531a1.975,1.975,0,0,0,.656-.989.883.883,0,0,0-.458-1.008,1.287,1.287,0,0,0-1.21.426c-.339.294-.733.64-1.178.566a1.786,1.786,0,0,0,.554-1.677.672.672,0,0,0-.154-.339c-.234-.25-.656-.144-.934.051a3.509,3.509,0,0,0-1.142,2.918,5.539,5.539,0,0,1-.016-1.2,1.226,1.226,0,0,0-.451-1.062,1.312,1.312,0,0,0-.685-.16,1.424,1.424,0,0,0-1.117.32,1.1,1.1,0,0,0,.045,1.366,4.291,4.291,0,0,0,1.155.925,2.531,2.531,0,0,1,.826.79.6.6,0,0,1,.061.141H141.5a6.954,6.954,0,0,0,1.542-1.072Z"/>
      <ellipse id="Ellipse_228" data-name="Ellipse 228" class="cls-17" cx="4.08" cy="0.691" rx="4.08" ry="0.691" transform="translate(10.074 128.256)"/>
      <path id="Path_2217" data-name="Path 2217" class="cls-17" d="M15.84,127.821a1.206,1.206,0,0,0,.39-.589.525.525,0,0,0-.272-.6.768.768,0,0,0-.72.25.96.96,0,0,1-.7.339,1.062,1.062,0,0,0,.32-1,.413.413,0,0,0-.093-.2c-.138-.147-.387-.083-.554.032a2.072,2.072,0,0,0-.678,1.734,3.3,3.3,0,0,1,0-.71.73.73,0,0,0-.269-.64.81.81,0,0,0-.406-.1.861.861,0,0,0-.662.189.659.659,0,0,0,.026.826,2.634,2.634,0,0,0,.688.55,1.485,1.485,0,0,1,.49.467.272.272,0,0,1,.035.083h1.488a4.1,4.1,0,0,0,.915-.64Z"/>
      <rect id="Rectangle_479" data-name="Rectangle 479" class="cls-10" width="38.138" height="18.346" rx="1.77" transform="translate(74.544 107.168) rotate(-90)"/>
      <rect id="Rectangle_480" data-name="Rectangle 480" class="cls-1" width="21.488" height="3.994" rx="1.174" transform="translate(77.834 93.613) rotate(-90)"/>
      <path id="Path_2218" data-name="Path 2218" class="cls-17" d="M91.12,108.16H76.314a2.752,2.752,0,0,1-2.752-2.749V70.8a2.755,2.755,0,0,1,2.752-2.752H91.12A2.755,2.755,0,0,1,93.872,70.8v34.6a2.752,2.752,0,0,1-2.752,2.762ZM76.314,70.01a.787.787,0,0,0-.787.787v34.6a.787.787,0,0,0,.787.784H91.12a.787.787,0,0,0,.787-.784V70.8a.787.787,0,0,0-.787-.787Z"/>
      <path id="Path_2219" data-name="Path 2219" class="cls-17" d="M80.64,94.6H79.008a2.16,2.16,0,0,1-2.157-2.157V73.3a2.16,2.16,0,0,1,2.157-2.157H80.64A2.157,2.157,0,0,1,82.8,73.3V92.438A2.157,2.157,0,0,1,80.64,94.6ZM79,73.107a.192.192,0,0,0-.192.192V92.438A.192.192,0,0,0,79,92.63H80.64a.192.192,0,0,0,.192-.192V73.3a.192.192,0,0,0-.192-.192Z"/>
      <rect id="Rectangle_481" data-name="Rectangle 481" class="cls-17" width="1.965" height="12.294" transform="translate(84.771 72.125)"/>
      <rect id="Rectangle_482" data-name="Rectangle 482" class="cls-17" width="1.965" height="12.294" transform="translate(87.84 72.125)"/>
      <path id="Path_2220" data-name="Path 2220" class="cls-18" d="M91.12,108.16H76.314a2.752,2.752,0,0,1-2.752-2.749V70.8a2.755,2.755,0,0,1,2.752-2.752H91.12A2.755,2.755,0,0,1,93.872,70.8v34.6a2.752,2.752,0,0,1-2.752,2.762ZM76.314,70.01a.787.787,0,0,0-.787.787v34.6a.787.787,0,0,0,.787.784H91.12a.787.787,0,0,0,.787-.784V70.8a.787.787,0,0,0-.787-.787Z"/>
      <path id="Path_2221" data-name="Path 2221" class="cls-18" d="M80.64,94.6H79.008a2.16,2.16,0,0,1-2.157-2.157V73.3a2.16,2.16,0,0,1,2.157-2.157H80.64A2.157,2.157,0,0,1,82.8,73.3V92.438A2.157,2.157,0,0,1,80.64,94.6ZM79,73.107a.192.192,0,0,0-.192.192V92.438A.192.192,0,0,0,79,92.63H80.64a.192.192,0,0,0,.192-.192V73.3a.192.192,0,0,0-.192-.192Z"/>
      <rect id="Rectangle_483" data-name="Rectangle 483" class="cls-18" width="1.965" height="12.294" transform="translate(84.771 72.125)"/>
      <rect id="Rectangle_484" data-name="Rectangle 484" class="cls-18" width="1.965" height="12.294" transform="translate(87.84 72.125)"/>
      <path id="Path_2222" data-name="Path 2222" class="cls-10" d="M112.221,87.75,97.984,119.29a1.766,1.766,0,0,1-2.339.883l-13.5-6.08a1.766,1.766,0,0,1-.883-2.339L95.5,80.218a1.77,1.77,0,0,1,2.339-.886l13.5,6.08a1.77,1.77,0,0,1,.883,2.339Z"/>
      <path id="Path_2223" data-name="Path 2223" class="cls-1" d="M101.12,85.482l-7.875,17.446a1.168,1.168,0,0,1-1.552.586l-1.5-.675a1.178,1.178,0,0,1-.589-1.555L97.469,83.84a1.178,1.178,0,0,1,1.555-.589l1.5.678a1.171,1.171,0,0,1,.6,1.552Z"/>
      <line id="Line_78" data-name="Line 78" class="cls-1" y1="11.203" x2="5.059" transform="translate(100.112 86.029)"/>
      <line id="Line_79" data-name="Line 79" class="cls-17" y1="11.206" x2="5.059" transform="translate(102.909 87.29)"/>
      <rect id="Rectangle_485" data-name="Rectangle 485" class="cls-17" width="12.294" height="1.965" transform="translate(102.016 98.098) rotate(-65.7)"/>
      <path id="Path_2224" data-name="Path 2224" class="cls-17" d="M96.371,121.312a2.739,2.739,0,0,1-1.13-.243l-13.5-6.08a2.755,2.755,0,0,1-1.376-3.638L94.6,79.811a2.752,2.752,0,0,1,3.635-1.386l13.5,6.08a2.755,2.755,0,0,1,1.376,3.638L98.88,119.68a2.736,2.736,0,0,1-1.536,1.44A2.685,2.685,0,0,1,96.371,121.312Zm.742-41.168a.79.79,0,0,0-.72.464L82.16,112.144a.784.784,0,0,0,.4,1.04l13.494,6.08a.784.784,0,0,0,.6.019.771.771,0,0,0,.438-.413l14.23-31.51a.787.787,0,0,0-.394-1.04l-13.5-6.08a.752.752,0,0,0-.32-.1Z"/>
      <path id="Path_2225" data-name="Path 2225" class="cls-17" d="M92.16,104.6a2.138,2.138,0,0,1-.886-.192l-1.5-.675a2.163,2.163,0,0,1-1.078-2.854L96.57,83.434a2.16,2.16,0,0,1,2.854-1.075l1.5.675A2.16,2.16,0,0,1,102,85.888l-7.875,17.443a2.128,2.128,0,0,1-1.2,1.13,2.1,2.1,0,0,1-.762.141Zm6.378-20.48a.179.179,0,0,0-.067,0,.186.186,0,0,0-.109.1l-7.875,17.446a.192.192,0,0,0,.1.253l1.5.675a.182.182,0,0,0,.147,0,.2.2,0,0,0,.109-.1l7.875-17.446a.192.192,0,0,0-.1-.253l-1.5-.637a.176.176,0,0,0-.077-.029Z"/>
      <rect id="Rectangle_486" data-name="Rectangle 486" class="cls-17" width="12.294" height="1.965" transform="translate(99.22 96.837) rotate(-65.7)"/>
      <path id="Path_2226" data-name="Path 2226" class="cls-18" d="M96.371,121.312a2.739,2.739,0,0,1-1.13-.243l-13.5-6.08a2.755,2.755,0,0,1-1.376-3.638L94.6,79.811a2.752,2.752,0,0,1,3.635-1.386l13.5,6.08a2.755,2.755,0,0,1,1.376,3.638L98.88,119.68a2.736,2.736,0,0,1-1.536,1.44A2.685,2.685,0,0,1,96.371,121.312Zm.742-41.168a.79.79,0,0,0-.72.464L82.16,112.144a.784.784,0,0,0,.4,1.04l13.494,6.08a.784.784,0,0,0,.6.019.771.771,0,0,0,.438-.413l14.23-31.51a.787.787,0,0,0-.394-1.04l-13.5-6.08a.752.752,0,0,0-.32-.1Z"/>
      <path id="Path_2227" data-name="Path 2227" class="cls-18" d="M92.16,104.6a2.138,2.138,0,0,1-.886-.192l-1.5-.675a2.163,2.163,0,0,1-1.078-2.854L96.57,83.434a2.16,2.16,0,0,1,2.854-1.075l1.5.675A2.16,2.16,0,0,1,102,85.888l-7.875,17.443a2.128,2.128,0,0,1-1.2,1.13,2.1,2.1,0,0,1-.762.141Zm6.378-20.48a.179.179,0,0,0-.067,0,.186.186,0,0,0-.109.1l-7.875,17.446a.192.192,0,0,0,.1.253l1.5.675a.182.182,0,0,0,.147,0,.2.2,0,0,0,.109-.1l7.875-17.446a.192.192,0,0,0-.1-.253l-1.5-.637a.176.176,0,0,0-.077-.029Z"/>
      <rect id="Rectangle_487" data-name="Rectangle 487" class="cls-18" width="12.294" height="1.965" transform="translate(99.22 96.837) rotate(-65.7)"/>
      <rect id="Rectangle_488" data-name="Rectangle 488" class="cls-17" width="38.992" height="57.363" rx="5.245" transform="translate(40.232 102.048) rotate(-45)"/>
      <path id="Path_2228" data-name="Path 2228" class="cls-17" d="M80.79,141.418a6.179,6.179,0,0,1-4.4-1.821L43.242,106.451a6.237,6.237,0,0,1,0-8.806L63.4,77.485a6.227,6.227,0,0,1,8.806,0l33.142,33.149a6.237,6.237,0,0,1,0,8.806L85.19,139.6a6.186,6.186,0,0,1-4.4,1.818ZM67.8,77.632a4.23,4.23,0,0,0-3.014,1.248L44.627,99.04a4.266,4.266,0,0,0,0,6.026L77.779,138.2a4.259,4.259,0,0,0,6.026,0l20.16-20.16a4.259,4.259,0,0,0,0-6.026L70.813,78.88A4.218,4.218,0,0,0,67.8,77.632Z"/>
      <path id="Path_2229" data-name="Path 2229" class="cls-18" d="M80.79,141.418a6.179,6.179,0,0,1-4.4-1.821L43.242,106.451a6.237,6.237,0,0,1,0-8.806L63.4,77.485a6.227,6.227,0,0,1,8.806,0l33.142,33.149a6.237,6.237,0,0,1,0,8.806L85.19,139.6a6.186,6.186,0,0,1-4.4,1.818ZM67.8,77.632a4.23,4.23,0,0,0-3.014,1.248L44.627,99.04a4.266,4.266,0,0,0,0,6.026L77.779,138.2a4.259,4.259,0,0,0,6.026,0l20.16-20.16a4.259,4.259,0,0,0,0-6.026L70.813,78.88A4.218,4.218,0,0,0,67.8,77.632Z"/>
      <path id="Path_2230" data-name="Path 2230" class="cls-1" d="M69.373,113.77a10.154,10.154,0,1,1,7.181-2.97A10.154,10.154,0,0,1,69.373,113.77Zm0-18.739a3.557,3.557,0,1,1,0,.01Z"/>
      <path id="Path_2231" data-name="Path 2231" class="cls-1" d="M60.563,104.608l-.47-1.494a13.418,13.418,0,0,0,8.774-8.774l1.494.47a15.011,15.011,0,0,1-9.8,9.8Z"/>
      <path id="Path_2232" data-name="Path 2232" class="cls-1" d="M65.978,112.989l-.237-1.546A13.68,13.68,0,0,0,77.2,99.987l1.546.237a15.251,15.251,0,0,1-12.765,12.765Z"/>
      <path id="Path_2233" data-name="Path 2233" class="cls-1" d="M61.44,109.264l-.141-1.558a13.44,13.44,0,0,0,12.16-12.16l1.558.144A15.018,15.018,0,0,1,61.44,109.264Z"/>
      <path id="Path_2234" data-name="Path 2234" class="cls-1" d="M73.6,111.891c-2.445,0-5.571-1.507-8.288-4.224-4.026-4.029-5.4-8.96-3.133-11.232h0c2.269-2.269,7.2-.893,11.229,3.136a15.319,15.319,0,0,1,3.859,6.032c.682,2.2.422,4.048-.726,5.2a4.029,4.029,0,0,1-2.941,1.091ZM63.3,97.542c-1.421,1.421-.5,5.382,3.136,9.018s7.6,4.554,9.018,3.136c.707-.71.829-2.032.32-3.629a13.69,13.69,0,0,0-3.469-5.389c-3.635-3.635-7.6-4.554-9.018-3.136Z"/>
      <rect id="Rectangle_489" data-name="Rectangle 489" class="cls-1" width="1.565" height="18.749" transform="translate(62.192 97.543) rotate(-45)"/>
      <path id="Path_2235" data-name="Path 2235" class="cls-1" d="M75.923,124.822l5.213,2.618-2.634-5.2,1.344-1.344,3.427,7.6L82.2,129.571l-7.642-3.4Z"/>
      <path id="Path_2236" data-name="Path 2236" class="cls-1" d="M79.907,119.779l-1.062-1.059,1.12-1.12,1.062,1.066Zm5.968,6.122-5.517-5.514,1.28-1.28,5.517,5.514Z"/>
      <path id="Path_2237" data-name="Path 2237" class="cls-1" d="M86.938,122.925l-.566-6.314-2.765,2.765-1.12-1.117,4.234-4.234.96.96.707,6.176,2.765-2.765,1.12,1.117L87.9,123.888Z"/>
      <path id="Path_2238" data-name="Path 2238" class="cls-1" d="M95.818,113.722l1.117,1.117-3.875,3.882L87.546,113.2l3.8-3.8,1.12,1.117-2.534,2.534,1.072,1.072,2.176-2.176,1.034,1.034-2.176,2.176,1.174,1.171Z"/>
      <rect id="Rectangle_490" data-name="Rectangle 490" class="cls-18" width="12.294" height="1.965" transform="translate(102.016 98.098) rotate(-65.7)"/>
      <path id="Path_2239" data-name="Path 2239" class="cls-18" d="M54.026,110.33h0a.982.982,0,0,1,1.389,0L67.085,122a.982.982,0,0,1,0,1.389h0a.982.982,0,0,1-1.389,0l-11.67-11.67a.982.982,0,0,1,0-1.389Z"/>
      <path id="Path_2240" data-name="Path 2240" class="cls-18" d="M47.946,104.246h0a.982.982,0,0,1,1.389,0l3.174,3.174a.986.986,0,0,1,0,1.392h0a.982.982,0,0,1-1.389,0l-3.174-3.174a.986.986,0,0,1,0-1.392Z"/>
    </g>
  </g>
</svg>
