<svg xmlns="http://www.w3.org/2000/svg" xmlns:xlink="http://www.w3.org/1999/xlink" viewBox="0 0 160 160">
  <defs>
    <style>
      .cls-1 {
        fill: #fff;
      }

      .cls-2 {
        clip-path: url(#clip-path);
      }

      .cls-10, .cls-11, .cls-17, .cls-26, .cls-3, .cls-4 {
        fill: #2b3991;
      }

      .cls-20, .cls-3, .cls-30 {
        opacity: 0.1;
      }

      .cls-10, .cls-11, .cls-12, .cls-13, .cls-14, .cls-4 {
        stroke: #353535;
      }

      .cls-10, .cls-13, .cls-14, .cls-4, .cls-6, .cls-7, .cls-8, .cls-9 {
        stroke-linecap: round;
        stroke-linejoin: round;
      }

      .cls-11, .cls-12, .cls-13, .cls-4 {
        stroke-width: 0.832px;
      }

      .cls-5 {
        opacity: 0.2;
      }

      .cls-6, .cls-7, .cls-8, .cls-9 {
        fill: none;
        stroke: #2b3991;
      }

      .cls-6 {
        stroke-width: 0.39px;
      }

      .cls-10, .cls-7, .cls-8, .cls-9 {
        stroke-width: 0.557px;
      }

      .cls-8 {
        stroke-dasharray: 4.19 4.19;
      }

      .cls-9 {
        stroke-dasharray: 4.12 4.12;
      }

      .cls-11, .cls-12 {
        stroke-miterlimit: 10;
      }

      .cls-12, .cls-13, .cls-14, .cls-15 {
        fill: #f7931d;
      }

      .cls-14 {
        stroke-width: 0.723px;
      }

      .cls-16 {
        fill: #353535;
      }

      .cls-17 {
        opacity: 0.3;
      }

      .cls-18 {
        fill: url(#linear-gradient);
      }

      .cls-19 {
        fill: #f6c5b0;
      }

      .cls-21 {
        opacity: 0.05;
      }

      .cls-22 {
        fill: #b07473;
      }

      .cls-23 {
        fill: #231f20;
      }

      .cls-24 {
        fill: #535461;
      }

      .cls-25 {
        fill: #332d2f;
      }

      .cls-27 {
        fill: #e1e7ef;
      }

      .cls-28 {
        fill: url(#linear-gradient-2);
      }

      .cls-29 {
        fill: #3d213c;
      }
    </style>
    <clipPath id="clip-path">
      <rect id="Rectangle_2" data-name="Rectangle 2" class="cls-1" width="160" height="160" transform="translate(445 747)"/>
    </clipPath>
    <linearGradient id="linear-gradient" x1="0.731" y1="-9.862" x2="0.731" y2="-9.24" gradientUnits="objectBoundingBox">
      <stop offset="0" stop-color="gray" stop-opacity="0.251"/>
      <stop offset="0.54" stop-color="gray" stop-opacity="0.122"/>
      <stop offset="1" stop-color="gray" stop-opacity="0.102"/>
    </linearGradient>
    <linearGradient id="linear-gradient-2" x1="-5.578" y1="-44.266" x2="-4.55" y2="-44.266" xlink:href="#linear-gradient"/>
  </defs>
  <g id="img-hava-taksi" class="cls-2" transform="translate(-445 -747)">
    <g id="Homepage-Icons-14" transform="translate(444.783 755.671)">
      <path id="Path_1325" data-name="Path 1325" class="cls-3" d="M93.186,31.123c-10.26-.358-20.031-3.668-29.36-7.29s-18.562-7.639-28.582-9.559c-6.442-1.235-13.8-1.408-18.994,2.048-5,3.325-6.609,9.054-7.476,14.376-.64,4-1.037,8.218.752,11.966,1.242,2.6,3.447,4.8,4.97,7.284C19.8,58.62,16.053,69.315,10.3,77.79,7.61,81.758,4.48,85.55,2.4,89.775s-3.04,9.076-1.223,13.39,6.1,7.489,10.763,9.745c9.46,4.589,20.6,5.9,31.481,6.647,24.063,1.645,48.257.931,72.384.218,8.932-.262,17.9-.531,26.684-1.92,4.877-.768,9.921-1.984,13.441-4.922a11.271,11.271,0,0,0,2.6-14.721c-5.04-7.834-19-9.783-22.543-18.2-1.946-4.637.051-9.8,2.88-14.081,6.061-9.22,16.219-17.307,16.754-27.843.368-7.236-4.516-14.485-12.068-17.922-7.911-3.591-18.882-3.139-24.726,2.8C112.811,29.081,102.243,31.437,93.186,31.123Z"/>
      <path id="Path_1326" data-name="Path 1326" class="cls-4" d="M92.085,104.339,70.509,93.487H62.8l14.641,10.852"/>
      <g id="Group_209" data-name="Group 209" class="cls-5">
        <line id="Line_39" data-name="Line 39" class="cls-6" x2="0.486" transform="translate(52.475 93.487)"/>
        <line id="Line_40" data-name="Line 40" class="cls-6" x2="3.463" transform="translate(53.931 93.487)"/>
        <line id="Line_41" data-name="Line 41" class="cls-6" x2="1.133" transform="translate(60.45 94.556)"/>
        <line id="Line_42" data-name="Line 42" class="cls-6" x2="4.25" transform="translate(55.269 94.556)"/>
        <line id="Line_43" data-name="Line 43" class="cls-6" x2="0.586" transform="translate(57.913 95.628)"/>
        <line id="Line_44" data-name="Line 44" class="cls-6" x2="2.509" transform="translate(53.922 95.628)"/>
      </g>
      <g id="Group_210" data-name="Group 210" class="cls-5">
        <line id="Line_45" data-name="Line 45" class="cls-6" x2="1.85" y2="0.592" transform="translate(71.072 45.966)"/>
        <line id="Line_46" data-name="Line 46" class="cls-6" x2="13.14" y2="4.196" transform="translate(76.602 47.732)"/>
        <line id="Line_47" data-name="Line 47" class="cls-6" x2="4.292" y2="1.37" transform="translate(100.038 59.686)"/>
        <line id="Line_48" data-name="Line 48" class="cls-6" x2="16.13" y2="5.149" transform="translate(80.382 53.41)"/>
        <line id="Line_49" data-name="Line 49" class="cls-6" x2="2.215" y2="0.707" transform="translate(89.116 60.671)"/>
        <line id="Line_50" data-name="Line 50" class="cls-6" x2="9.518" y2="3.04" transform="translate(73.972 55.836)"/>
      </g>
      <g id="Group_211" data-name="Group 211" class="cls-5">
        <line id="Line_51" data-name="Line 51" class="cls-6" x2="1.767" y2="0.803" transform="translate(36.512 44.228)"/>
        <line id="Line_52" data-name="Line 52" class="cls-6" x2="12.558" y2="5.709" transform="translate(41.796 46.628)"/>
        <line id="Line_53" data-name="Line 53" class="cls-6" x2="4.103" y2="1.866" transform="translate(63.667 61.247)"/>
        <line id="Line_54" data-name="Line 54" class="cls-6" x2="15.413" y2="7.005" transform="translate(44.884 52.712)"/>
        <line id="Line_55" data-name="Line 55" class="cls-6" x2="2.119" y2="0.963" transform="translate(52.703 60.946)"/>
        <line id="Line_56" data-name="Line 56" class="cls-6" x2="9.095" y2="4.135" transform="translate(38.231 54.367)"/>
      </g>
      <g id="Group_212" data-name="Group 212" class="cls-5">
        <line id="Line_57" data-name="Line 57" class="cls-7" x2="0.698" transform="translate(93.116 85.413)"/>
        <line id="Line_58" data-name="Line 58" class="cls-8" x2="18.11" transform="translate(95.154 85.413)"/>
        <line id="Line_59" data-name="Line 59" class="cls-7" x2="0.694" transform="translate(113.934 85.413)"/>
      </g>
      <g id="Group_213" data-name="Group 213" class="cls-5">
        <line id="Line_60" data-name="Line 60" class="cls-7" x2="0.694" transform="translate(79.671 127.942)"/>
        <line id="Line_61" data-name="Line 61" class="cls-9" x2="9.895" transform="translate(81.688 127.942)"/>
        <line id="Line_62" data-name="Line 62" class="cls-7" x2="0.694" transform="translate(92.242 127.942)"/>
      </g>
      <g id="Group_214" data-name="Group 214" class="cls-5">
        <line id="Line_63" data-name="Line 63" class="cls-7" x2="0.694" transform="translate(9.23 114.375)"/>
        <line id="Line_64" data-name="Line 64" class="cls-8" x2="18.11" transform="translate(11.268 114.375)"/>
        <line id="Line_65" data-name="Line 65" class="cls-7" x2="0.694" transform="translate(30.048 114.375)"/>
      </g>
      <path id="Path_1327" data-name="Path 1327" class="cls-10" d="M53.333,83.937a1.869,1.869,0,0,0-.928.246,2.448,2.448,0,0,0-2.362-1.811,2.419,2.419,0,0,0-.889.17,2.7,2.7,0,0,0-4.577,2.88h10.6A1.9,1.9,0,0,0,53.333,83.937Z"/>
      <path id="Path_1328" data-name="Path 1328" class="cls-10" d="M142.541,91.314a1.565,1.565,0,0,0-.768.214,2.058,2.058,0,0,0-2.733-1.379,2.269,2.269,0,0,0-3.84,2.413h8.9a1.6,1.6,0,0,0-1.562-1.248Z"/>
      <path id="Path_1329" data-name="Path 1329" class="cls-11" d="M118.065,96.195h-.045L30.841,99.353l-2.509-6.205-6.621-2.3v10.779a3.722,3.722,0,0,0,2.333,3.277l32,9.985a17.6,17.6,0,0,0,4.8.81H139.7c3.9,0,3.895-2.717,3.895-2.717C143.591,99.894,126.066,96.195,118.065,96.195Z"/>
      <path id="Path_1330" data-name="Path 1330" class="cls-12" d="M54.127,104.33a2.138,2.138,0,1,1-.625-1.514A2.141,2.141,0,0,1,54.127,104.33Z"/>
      <path id="Path_1331" data-name="Path 1331" class="cls-12" d="M62.543,104.33a2.138,2.138,0,1,1-.626-1.515,2.141,2.141,0,0,1,.626,1.515Z"/>
      <path id="Path_1332" data-name="Path 1332" class="cls-12" d="M70.957,104.33a2.138,2.138,0,1,1-.625-1.514A2.141,2.141,0,0,1,70.957,104.33Z"/>
      <path id="Path_1333" data-name="Path 1333" class="cls-12" d="M104.621,104.33a2.138,2.138,0,1,1-.626-1.515,2.141,2.141,0,0,1,.626,1.515Z"/>
      <path id="Path_1334" data-name="Path 1334" class="cls-12" d="M113.035,104.33a2.138,2.138,0,1,1-.625-1.514,2.141,2.141,0,0,1,.625,1.514Z"/>
      <path id="Path_1335" data-name="Path 1335" class="cls-12" d="M121.451,104.33a2.138,2.138,0,1,1-.625-1.514A2.141,2.141,0,0,1,121.451,104.33Z"/>
      <path id="Path_1336" data-name="Path 1336" class="cls-13" d="M143.591,112.4H48.078l-5.8-1.808H143.386Z"/>
      <path id="Path_1337" data-name="Path 1337" class="cls-14" d="M141.895,106.487h-5.677a2.71,2.71,0,0,1-3.047-2.656V99.35S139.373,102.061,141.895,106.487Z"/>
      <path id="Path_1338" data-name="Path 1338" class="cls-13" d="M31.705,102.2l-9.995,5.514H17.387l6.42-5.514Z"/>
      <path id="Path_1339" data-name="Path 1339" class="cls-4" d="M97.91,109.914,60.4,128.777H47l25.455-18.863"/>
      <g id="Group_215" data-name="Group 215" class="cls-5">
        <line id="Line_66" data-name="Line 66" class="cls-6" x2="0.326" transform="translate(18.165 95.782)"/>
        <line id="Line_67" data-name="Line 67" class="cls-6" x2="2.339" transform="translate(19.147 95.782)"/>
        <line id="Line_68" data-name="Line 68" class="cls-6" x2="0.765" transform="translate(23.548 96.851)"/>
        <line id="Line_69" data-name="Line 69" class="cls-6" x2="2.871" transform="translate(20.05 96.851)"/>
        <line id="Line_70" data-name="Line 70" class="cls-6" x2="0.394" transform="translate(21.836 97.92)"/>
        <line id="Line_71" data-name="Line 71" class="cls-6" x2="1.693" transform="translate(19.141 97.92)"/>
      </g>
      <g id="Group_216" data-name="Group 216" class="cls-5">
        <line id="Line_72" data-name="Line 72" class="cls-6" x1="0.659" transform="translate(57.765 123.183)"/>
        <line id="Line_73" data-name="Line 73" class="cls-6" x1="4.685" transform="translate(51.768 123.183)"/>
        <line id="Line_74" data-name="Line 74" class="cls-6" x1="1.533" transform="translate(46.104 122.111)"/>
        <line id="Line_75" data-name="Line 75" class="cls-6" x1="5.751" transform="translate(48.894 122.111)"/>
        <line id="Line_76" data-name="Line 76" class="cls-6" x1="0.79" transform="translate(50.277 121.042)"/>
        <line id="Line_77" data-name="Line 77" class="cls-6" x1="3.396" transform="translate(53.074 121.042)"/>
      </g>
      <path id="Path_1340" data-name="Path 1340" class="cls-15" d="M75.857,107.335v-4.269H74.519v-1.373h4.314v1.373H77.5v4.269Z"/>
      <path id="Path_1341" data-name="Path 1341" class="cls-16" d="M78.753,101.769v1.213H77.418v4.266H75.937v-4.263H74.6v-1.216h4.16m.163-.163h-4.48v1.539h1.338v4.266h1.808v-4.263h1.335v-1.539Z"/>
      <path id="Path_1342" data-name="Path 1342" class="cls-15" d="M82.833,107.335l-.269-1.027H80.91l-.278,1.027h-1.8l1.84-5.665h2.093l1.866,5.665Zm-.621-2.407-.208-.8c-.054-.2-.122-.458-.2-.774-.029-.115-.051-.214-.074-.3a1.357,1.357,0,0,1-.054.25c-.064.282-.2.813-.416,1.626Z"/>
      <path id="Path_1343" data-name="Path 1343" class="cls-16" d="M82.705,101.75l1.808,5.5H82.888l-.272-1.027H80.836l-.275,1.027H78.932l1.789-5.5H82.7m-1.552,3.261h1.165l-.234-.9c-.058-.2-.122-.458-.2-.774s-.131-.544-.157-.682c-.022.125-.067.336-.131.64s-.214.867-.442,1.728m1.671-3.424H80.6l-.038.115-1.776,5.495-.07.214H80.7l.032-.122.243-.906H82.5l.237.906.032.122h1.971l-.07-.214-1.811-5.5-.035-.112Zm-1.456,3.261c.176-.678.3-1.149.365-1.437.077.3.141.55.192.746l.182.691Z"/>
      <path id="Path_1344" data-name="Path 1344" class="cls-15" d="M88.066,107.335,87,105.29l-.32.192v1.869H85.029v-5.658H86.68v2.16A4.477,4.477,0,0,1,87,103.4l1.175-1.712h1.818L88.2,104.234l1.741,3.1Z"/>
      <path id="Path_1345" data-name="Path 1345" class="cls-16" d="M89.816,101.769l-1.728,2.455,1.7,3.024H88.114l-1.066-2.09-.438.262v1.831H85.122v-5.482H86.61v2.381a6.4,6.4,0,0,1,.454-.7l1.149-1.68h1.619m.32-.163H88.133l-.048.07-1.171,1.693-.157.221v-1.981H84.942v5.805h1.815v-1.9l.211-.128,1,1.943.045.086h2.051l-.138-.243-1.645-2.935,1.667-2.368.179-.259Z"/>
      <path id="Path_1346" data-name="Path 1346" class="cls-15" d="M91.813,107.408a4.557,4.557,0,0,1-.935-.08,3.466,3.466,0,0,1-.79-.272l-.048-.022v-1.5l.122.061a4.424,4.424,0,0,0,.864.32,3.139,3.139,0,0,0,.816.118.726.726,0,0,0,.435-.1.269.269,0,0,0,.122-.227.234.234,0,0,0-.048-.147.618.618,0,0,0-.176-.15,6.77,6.77,0,0,0-.717-.346,3.556,3.556,0,0,1-.822-.486,1.507,1.507,0,0,1-.419-.554,1.792,1.792,0,0,1-.138-.733,1.488,1.488,0,0,1,.582-1.245,2.525,2.525,0,0,1,1.565-.442,4.336,4.336,0,0,1,1.767.4l.07.032-.512,1.3-.08-.035a3.229,3.229,0,0,0-1.28-.346.614.614,0,0,0-.371.086.224.224,0,0,0-.1.186.291.291,0,0,0,.134.224,6.327,6.327,0,0,0,.89.454,2.6,2.6,0,0,1,1.014.707,1.571,1.571,0,0,1,.291.96,1.686,1.686,0,0,1-.272.96,1.757,1.757,0,0,1-.781.64,2.848,2.848,0,0,1-1.184.243Z"/>
      <path id="Path_1347" data-name="Path 1347" class="cls-16" d="M92.226,101.7a4.256,4.256,0,0,1,1.735.394l-.454,1.143a3.3,3.3,0,0,0-1.325-.352.707.707,0,0,0-.422.1.32.32,0,0,0-.128.253.365.365,0,0,0,.166.288,6.058,6.058,0,0,0,.9.464,2.509,2.509,0,0,1,.986.685,1.491,1.491,0,0,1,.275.918,1.6,1.6,0,0,1-.259.906,1.719,1.719,0,0,1-.746.614,2.759,2.759,0,0,1-1.143.218,4.622,4.622,0,0,1-.918-.077,3.2,3.2,0,0,1-.771-.266v-1.319A4.589,4.589,0,0,0,91,106a3.335,3.335,0,0,0,.838.122.806.806,0,0,0,.483-.115.355.355,0,0,0,.154-.294.32.32,0,0,0-.061-.2.73.73,0,0,0-.2-.173c-.093-.058-.336-.173-.73-.352a3.539,3.539,0,0,1-.8-.47,1.472,1.472,0,0,1-.4-.525,1.744,1.744,0,0,1-.128-.7,1.4,1.4,0,0,1,.55-1.181,2.426,2.426,0,0,1,1.514-.422m0-.163a2.6,2.6,0,0,0-1.616.458A1.565,1.565,0,0,0,90,103.3a1.885,1.885,0,0,0,.144.765,1.651,1.651,0,0,0,.429.586,3.613,3.613,0,0,0,.842.5,7.2,7.2,0,0,1,.71.342.544.544,0,0,1,.154.128.166.166,0,0,1,.029.1.189.189,0,0,1-.086.163.64.64,0,0,1-.387.083,3.162,3.162,0,0,1-.8-.118,4.337,4.337,0,0,1-.848-.32l-.237-.122v1.69l.093.045a3.546,3.546,0,0,0,.81.282,4.948,4.948,0,0,0,.96.08,2.967,2.967,0,0,0,1.21-.234,1.882,1.882,0,0,0,.816-.675,1.792,1.792,0,0,0,.285-1,1.651,1.651,0,0,0-.32-1.018,2.6,2.6,0,0,0-1.046-.733,5.715,5.715,0,0,1-.87-.448c-.1-.077-.1-.138-.1-.157a.138.138,0,0,1,.067-.122.522.522,0,0,1,.32-.067,3.146,3.146,0,0,1,1.258.32l.157.074.064-.16.451-1.143.058-.147-.144-.064a4.436,4.436,0,0,0-1.8-.406Z"/>
      <rect id="Rectangle_449" data-name="Rectangle 449" class="cls-15" width="1.651" height="3.6" transform="translate(94.726 103.734)"/>
      <path id="Path_1348" data-name="Path 1348" class="cls-16" d="M96.294,103.814v3.437H94.806v-3.437h1.488m.163-.163H94.642v3.764h1.815Z"/>
      <rect id="Rectangle_450" data-name="Rectangle 450" class="cls-15" width="1.651" height="1.357" transform="translate(94.726 101.693)"/>
      <path id="Path_1349" data-name="Path 1349" class="cls-16" d="M96.294,101.769v1.194H94.806v-1.194h1.488m.163-.163H94.642v1.52h1.815v-1.517Z"/>
      <circle id="Ellipse_220" data-name="Ellipse 220" class="cls-15" cx="5.444" cy="5.444" r="5.444" transform="translate(130.326 31.904)"/>
      <path id="Path_1350" data-name="Path 1350" class="cls-17" d="M95.164,50.165a.349.349,0,0,0-.112-.454l-.032-.026h0a.182.182,0,0,1,0-.253.189.189,0,0,1,.163-.042h.035a.358.358,0,0,0,.47-.106l.026-.029h0a.173.173,0,0,1,.25,0,.179.179,0,0,1,.042.163h0a.173.173,0,0,1-.016.035.355.355,0,0,0,.115.458l.032.026h0a.182.182,0,0,1-.016.253.173.173,0,0,1-.16.038h0a.1.1,0,0,1-.038,0,.358.358,0,0,0-.458.115.125.125,0,0,1-.026.032h0a.173.173,0,0,1-.25,0,.17.17,0,0,1-.042-.163h0S95.161,50.177,95.164,50.165Z"/>
      <path id="Path_1351" data-name="Path 1351" class="cls-17" d="M119.5,44.615a.349.349,0,0,0-.115-.454l-.029-.026h0a.179.179,0,0,1,0-.253.186.186,0,0,1,.16-.042h0a.138.138,0,0,1,.038,0,.355.355,0,0,0,.458-.115l.026-.029h0a.176.176,0,0,1,.291.176h0a.242.242,0,0,1,0,.035.355.355,0,0,0,.115.458l.029.026h0a.176.176,0,0,1-.176.291h0a.07.07,0,0,1-.035,0,.358.358,0,0,0-.458.115.138.138,0,0,1-.029.032h0a.176.176,0,0,1-.25-.016.179.179,0,0,1-.042-.16h0Z"/>
      <path id="Path_1352" data-name="Path 1352" class="cls-17" d="M27.571,43.137a.352.352,0,0,0-.112-.458.125.125,0,0,1-.032-.026h0a.179.179,0,0,1,0-.25.176.176,0,0,1,.166-.042h0a.07.07,0,0,1,.035,0,.362.362,0,0,0,.461-.115.115.115,0,0,1,.022-.032h0a.179.179,0,0,1,.294.176h0a.2.2,0,0,1-.016.038.349.349,0,0,0,.115.454l.029.029h0a.173.173,0,0,1,0,.25.189.189,0,0,1-.163.042h0l-.038-.016a.355.355,0,0,0-.458.115l-.026.029h0a.172.172,0,0,1-.291-.163h0A.2.2,0,0,0,27.571,43.137Z"/>
      <path id="Path_1353" data-name="Path 1353" class="cls-17" d="M66.989,35.763a.355.355,0,0,0-.166-.442.074.074,0,0,1-.032-.022h0a.176.176,0,0,1,.138-.32h0a.087.087,0,0,1,.038,0,.358.358,0,0,0,.442-.166l.022-.035h0a.182.182,0,0,1,.253,0,.173.173,0,0,1,.058.157h0v.038a.355.355,0,0,0,.166.442l.032.022h0a.179.179,0,0,1-.138.32h-.038a.352.352,0,0,0-.442.166.2.2,0,0,1-.022.032h0a.182.182,0,0,1-.253,0,.189.189,0,0,1-.058-.157h0Z"/>
      <path id="Path_1354" data-name="Path 1354" class="cls-17" d="M48.081,68.486a.5.5,0,0,0,.275-.592.272.272,0,0,1,0-.054h0a.246.246,0,0,1,.24-.256.253.253,0,0,1,.2.093h0a.348.348,0,0,1,.026.048.49.49,0,0,0,.6.275h.054a.246.246,0,0,1,.253.243.259.259,0,0,1-.09.2h0l-.048.026a.49.49,0,0,0-.275.6.151.151,0,0,1,0,.054h0a.25.25,0,0,1-.442.163h0a.35.35,0,0,1-.026-.048.5.5,0,0,0-.6-.275.15.15,0,0,1-.054,0h0a.25.25,0,0,1-.163-.442h0Z"/>
      <path id="Path_1355" data-name="Path 1355" class="cls-17" d="M75.927,77.671a.49.49,0,0,0,.275-.592.437.437,0,0,1,0-.054h0a.25.25,0,0,1,.243-.256.246.246,0,0,1,.2.093h0a.169.169,0,0,1,.026.048.5.5,0,0,0,.6.272.163.163,0,0,1,.054,0h0a.25.25,0,0,1,.163.442h0l-.048.029a.486.486,0,0,0-.275.592.321.321,0,0,1,0,.054h0a.25.25,0,0,1-.445.163h0a.348.348,0,0,1-.026-.048.5.5,0,0,0-.6-.275.15.15,0,0,1-.054,0h0a.25.25,0,0,1-.163-.442h0Z"/>
      <path id="Path_1356" data-name="Path 1356" class="cls-18" d="M43.844,53.765c-.112,1.808,2.362.528,3.1.106a1.014,1.014,0,0,0,.051.294c.211.614,1,.5,1.741.23a9.152,9.152,0,0,0,1.511-.736l.371-.048c.054,0,.1.022.15.026.029.246.054.4.054.4.96,1.239,4.4,2.1,4.951,1.984a3.175,3.175,0,0,1,1.216.061l5.732,3.415a3.836,3.836,0,0,0,1.709,1.133,15.468,15.468,0,0,1,3.056,1.655l2.042,1.034a7.919,7.919,0,0,0,1.315,1.261c.381.176,2.528,1.066,2.528,1.066s3.357,2.394,4.452,2.989a7.554,7.554,0,0,0,3.719.672,17.914,17.914,0,0,1,2.88,0l.365.019a2.561,2.561,0,0,0,.24.518s.64-.112,1.095.854a2.112,2.112,0,0,0,2.56.672,3.47,3.47,0,0,1,2.186-.224c.432.16,6.122.96,6.122.96s5.178.426,7.089-1.991a2.945,2.945,0,0,0,.221-.3h0a9.433,9.433,0,0,1,1.459.493l.147.067a4.016,4.016,0,0,0,7.332.166h0l.026-.061v.061a1.7,1.7,0,0,0,0,.256.659.659,0,0,0,.253.5,1.386,1.386,0,0,0,.275.157c.1.038.2.074.3.1l.086.026.1.022a.928.928,0,0,0,.528,0,.672.672,0,0,0,.134-.07.64.64,0,0,0,.115-.1,1.148,1.148,0,0,0,.1-.112,1.12,1.12,0,0,0,.086-.128h0a1.278,1.278,0,0,0,.083-.144l.032-.061h0c.451-.915.243-2.067.544-3.069a2.842,2.842,0,0,0,.285-1.376,2.334,2.334,0,0,0-.906-1.143,6.036,6.036,0,0,1-1.357-1.773,2.784,2.784,0,0,0-.64-.989,1.92,1.92,0,0,0-1.325-.32,6.518,6.518,0,0,1-1.389.038c-.285-.045-.557-.154-.842-.208a4.986,4.986,0,0,0-1-.054,2.768,2.768,0,0,0-1.168.182,1.6,1.6,0,0,0-.557.454h0a2.707,2.707,0,0,0-.272.422h0a4.238,4.238,0,0,0-.208.461v.029l-.045.122v.035c0,.013-.035.1-.051.147h0a7.594,7.594,0,0,1-.419,1.066,2.458,2.458,0,0,1-.259.394c-.086-.355-.166-.64-.166-.64l-.858-.32a17.32,17.32,0,0,1-2.6-2.151c-.15-.368-3.495-1.072-5.853-1.095-1.68-.32-5-.96-5.12-.989s-2.026-.886-2.205-1A4.711,4.711,0,0,0,85.8,57.829a9.045,9.045,0,0,1-3.085-.64l-.045.112-.109-.1c-1.261-1.168-4.615-4.084-4.826-2.266-.154,1.335,1.568,2.73,2.992,3.642-.5-.291-2.147-.218-3.8-.083-.96-.371-1.831-.461-2.083.192l-.6.054-4.09-1.357a49.39,49.39,0,0,0-5.812-3.732c-1.651-.691-4.554-1.7-4.8-1.853a5.732,5.732,0,0,0-1.5-.394,4.818,4.818,0,0,1-1.847-.678l.038-.115s.032-1.92-.666-2.311a.582.582,0,0,0-.467-.035,14.516,14.516,0,0,0-2.135.982c-.147-.57-.429-1.053-.96-.893-1.178.352-3.287,1.731-3.84,1.725S43.966,51.656,43.844,53.765Z"/>
      <path id="Path_1357" data-name="Path 1357" class="cls-19" d="M104.01,65.065a5.736,5.736,0,0,0,2.3.762c.736.138,1.357.2,1.357.2s1.245,6.234-.867,4.89a9.732,9.732,0,0,0-1.4-.739,7.793,7.793,0,0,0-2.56-.675S103.334,64.419,104.01,65.065Z"/>
      <path id="Path_1358" data-name="Path 1358" class="cls-19" d="M82.494,57.26c.288.272.467.448.467.448l-.5,1.92s-.282-.134-.707-.368c-1.363-.752-4.215-2.538-4.02-4.228C77.94,53.231,81.24,56.108,82.494,57.26Z"/>
      <path id="Path_1359" data-name="Path 1359" class="cls-20" d="M82.494,57.26c.288.272.467.448.467.448l-.5,1.92s-.282-.134-.707-.368Z"/>
      <path id="Path_1360" data-name="Path 1360" class="cls-15" d="M95.5,62.793,81.684,59.817l.96-2.56a8.825,8.825,0,0,0,3.043.64A4.653,4.653,0,0,1,88.8,59.254c.176.112,2.029.96,2.183.992s5.985,1.146,5.985,1.146Z"/>
      <path id="Path_1361" data-name="Path 1361" class="cls-21" d="M95.5,62.793,81.684,59.817l.96-2.56a8.825,8.825,0,0,0,3.043.64A4.653,4.653,0,0,1,88.8,59.254c.176.112,2.029.96,2.183.992s5.985,1.146,5.985,1.146Z"/>
      <path id="Path_1362" data-name="Path 1362" class="cls-22" d="M54.555,53.765c-.912-.419-3.911,0-3.911,0s-3.389,2.109-3.261.016,3.664-3.664,4.221-3.652,2.64-1.357,3.8-1.7,1.114,2.314,1.114,2.314S55.471,54.184,54.555,53.765Z"/>
      <path id="Path_1363" data-name="Path 1363" class="cls-23" d="M51.6,50.142c.56,0,2.64-1.354,3.8-1.7s1.114,2.311,1.114,2.311l-.067.211a10.087,10.087,0,0,1-1.088,2.368c-.253.355-.544.557-.8.435-.915-.416-3.911,0-3.911,0s-3.392,2.109-3.261.016S51.042,50.136,51.6,50.142Z"/>
      <path id="Path_1364" data-name="Path 1364" class="cls-20" d="M56.12,50.635c0,.112.141.224.32.32a9.876,9.876,0,0,1-1.085,2.368c-1-.579-1.639-1.034-1.712-1.28C53.247,50.587,56.079,50.261,56.12,50.635Z"/>
      <path id="Path_1365" data-name="Path 1365" class="cls-24" d="M73.248,61.622S54.312,53.57,53.906,52.11s2.423-1.783,2.464-1.4,1.386.746,1.92.832a5.616,5.616,0,0,1,1.479.39c.24.147,3.091,1.146,4.733,1.827a48,48,0,0,1,5.745,3.68l6.289,2.09Z"/>
      <path id="Path_1366" data-name="Path 1366" class="cls-20" d="M73.248,61.622S54.312,53.57,53.906,52.11s2.423-1.783,2.464-1.4,1.386.746,1.92.832a5.616,5.616,0,0,1,1.479.39c.24.147,3.091,1.146,4.733,1.827a48,48,0,0,1,5.745,3.68l6.289,2.09Z"/>
      <path id="Path_1367" data-name="Path 1367" class="cls-25" d="M48.539,50.225c.557.016,2.64-1.351,3.8-1.7.87-.256,1.063,1.159,1.1,1.895v.419s-1.05,3.434-1.959,3.015a2.1,2.1,0,0,0-.6-.144,17.044,17.044,0,0,0-3.319.154s-3.389,2.109-3.258.016S47.982,50.213,48.539,50.225Z"/>
      <path id="Path_1368" data-name="Path 1368" class="cls-20" d="M52.034,49.969s.64.218,1.411.461a2.935,2.935,0,0,1,0,.419s-1.05,3.434-1.959,3.015a2.1,2.1,0,0,0-.6-.144C50.786,52.7,50.587,49.889,52.034,49.969Z"/>
      <path id="Path_1369" data-name="Path 1369" class="cls-24" d="M52.3,50.037s2.56.854,3.575,1.1a30.04,30.04,0,0,0,3.946,1.111c1.293.131,7.322,4.372,7.322,4.372A48.26,48.26,0,0,0,73.1,58.841c1,.08,6.612-.8,7.588-.214A39.625,39.625,0,0,0,85.038,60.3c1.127.387,2.023.682,2.023.682l-1.933,8.266-.771-.042a18.014,18.014,0,0,0-2.826,0,7.493,7.493,0,0,1-3.668-.662c-1.082-.586-4.4-2.935-4.4-2.935s-2.122-.877-2.5-1.05a7.763,7.763,0,0,1-1.3-1.261l-2.016-1.014a15.421,15.421,0,0,0-3.015-1.632,3.817,3.817,0,0,1-1.687-1.117l-5.668-3.367a3.063,3.063,0,0,0-1.194-.054c-.544.112-3.952-.739-4.887-1.962C51.2,54.149,50.53,49.941,52.3,50.037Z"/>
      <path id="Path_1370" data-name="Path 1370" class="cls-20" d="M106.3,65.827c.736.138,1.357.2,1.357.2s1.245,6.234-.867,4.89a9.73,9.73,0,0,0-1.4-.739A3.956,3.956,0,0,1,106.3,65.827Z"/>
      <path id="Path_1371" data-name="Path 1371" class="cls-19" d="M105.479,67.321a3.965,3.965,0,0,1,7.546,2.394,3.88,3.88,0,0,1-.166.493l-.086.2h0A3.962,3.962,0,0,1,105.36,67.7a3.171,3.171,0,0,1,.118-.374Z"/>
      <path id="Path_1372" data-name="Path 1372" class="cls-20" d="M84.92,60.271l.118.019c1.127.39,2.023.685,2.023.685l-1.933,8.263-.771-.042a3.84,3.84,0,0,1,.451-3.556C86.222,63.452,84.92,60.271,84.92,60.271Z"/>
      <path id="Path_1373" data-name="Path 1373" class="cls-15" d="M85.3,60.364l3.373.64a41.171,41.171,0,0,0,6.4.246c2.24-.224,6.538.64,6.721,1.043a18.823,18.823,0,0,0,2.56,2.119l.848.32s.173.6.288,1.191a3.2,3.2,0,0,1,.08.96,18.668,18.668,0,0,1-1.623,2.816,3.4,3.4,0,0,1-.214.3c-1.888,2.384-7,1.962-7,1.962s-5.613-.778-6.039-.938a3.371,3.371,0,0,0-2.154.224,2.071,2.071,0,0,1-2.525-.659c-.445-.957-1.082-.842-1.082-.842a3.76,3.76,0,0,1,.262-3.984C86.619,63.571,85.3,60.364,85.3,60.364Z"/>
      <path id="Path_1374" data-name="Path 1374" class="cls-20" d="M88.389,69.357a10.11,10.11,0,0,0,1.408.861S87.653,68.806,88.389,69.357Z"/>
      <path id="Path_1375" data-name="Path 1375" class="cls-20" d="M95.17,63.151s-4.717-.89-4.973-1.018-3.319-.656-3.575-.909a10.456,10.456,0,0,0-3.78-.24c-.058.221-3.069-.714-3.069-.714.448.32-.755,2.432-.755,2.432s3.05.96,3.616,1.207,1.28.525,1.8.685a24.563,24.563,0,0,1,2.743,1.165,28.033,28.033,0,0,0,3.92.842,12.561,12.561,0,0,1,6.237.893,4.557,4.557,0,0,0,5.463-1.568C102.6,60.962,95.17,63.151,95.17,63.151Z"/>
      <path id="Path_1376" data-name="Path 1376" class="cls-19" d="M79.806,62.348s-5.4-1.328-4.983-3.463,5.7,1.68,5.7,1.68Z"/>
      <path id="Path_1377" data-name="Path 1377" class="cls-20" d="M95.142,62.726s-4.714-.89-4.97-1.018A33.254,33.254,0,0,1,86.6,60.8a10.107,10.107,0,0,0-3.78-.24c-.061.221-3.069-.714-3.069-.714.448.32-.758,2.432-.758,2.432s3.053.96,3.616,1.207a19.047,19.047,0,0,0,1.8.685,25.2,25.2,0,0,1,2.746,1.162,28.023,28.023,0,0,0,3.92.845,12.559,12.559,0,0,1,6.237.893,4.56,4.56,0,0,0,5.463-1.565C102.573,60.537,95.142,62.726,95.142,62.726Z"/>
      <path id="Path_1378" data-name="Path 1378" class="cls-15" d="M95.241,62.889S90.533,62,90.268,61.871s-3.319-.656-3.575-.909a10.452,10.452,0,0,0-3.78-.24c-.061.221-3.069-.714-3.069-.714.448.32-.758,2.432-.758,2.432s3.053.96,3.62,1.2,1.28.528,1.8.688A24.962,24.962,0,0,1,87.247,65.5a27.939,27.939,0,0,0,3.92.842,12.561,12.561,0,0,1,6.237.893,4.557,4.557,0,0,0,5.463-1.565C102.669,60.7,95.241,62.889,95.241,62.889Z"/>
      <path id="Path_1379" data-name="Path 1379" class="cls-20" d="M83.992,61.487s2.919,1.123,4.666,1.645,2.659.541,2.592.682C90.741,64.86,83.992,61.487,83.992,61.487Z"/>
      <path id="Path_1380" data-name="Path 1380" class="cls-20" d="M98.931,64.352c-.819-.611-.71-.845-.71-.845"/>
      <path id="Path_1381" data-name="Path 1381" class="cls-20" d="M96.883,64.883a.96.96,0,0,1-.522-1.2"/>
      <path id="Path_1382" data-name="Path 1382" class="cls-20" d="M102.746,69.987,101.389,70l-1.248-.32-5.018-6.209-2.435.147-.1,1.536,2.81,2.672s1.527,1.821,2.314,2.538a2.029,2.029,0,0,0,1.674.534l-.845.96,1.859-.928s1.507.189,1.6-.019.893-.509.893-.509l.758-.576Z"/>
      <path id="Path_1383" data-name="Path 1383" class="cls-26" d="M102.912,69.9l-1.36.016-1.245-.32-5.028-6.209-2.435.147-.1,1.533,2.813,2.669s1.527,1.818,2.314,2.538a2.029,2.029,0,0,0,1.674.534l-.845.96,1.859-.928s1.507.189,1.6-.019.886-.534.886-.534l.755-.576Z"/>
      <path id="Path_1384" data-name="Path 1384" class="cls-20" d="M105.2,65.974a3.2,3.2,0,0,1,.08.96,18.667,18.667,0,0,1-1.623,2.816,2.878,2.878,0,0,1-.214.3l-1.459-.845Z"/>
      <path id="Path_1385" data-name="Path 1385" class="cls-27" d="M105.495,65.926a3.264,3.264,0,0,1,.083.96,18.921,18.921,0,0,1-1.626,2.816,2.45,2.45,0,0,1-.214.3l-1.459-.842Z"/>
      <path id="Path_1386" data-name="Path 1386" class="cls-28" d="M105.488,67.321a3.965,3.965,0,0,1,7.546,2.394,3.674,3.674,0,0,1-.166.49c-.029.067-.054.134-.086.2.045-.371.109-.755-.243-1.04-.806-.64-1.6,0-2.448.042a1.03,1.03,0,0,1-.96-.438.682.682,0,0,0-.253-.941,1.687,1.687,0,0,0-1.072-.15,2.144,2.144,0,0,1-.573,0c-.266-.048-.515-.218-.774-.256s-.547.045-.774-.09a.717.717,0,0,1-.218-.221Z"/>
      <path id="Path_1387" data-name="Path 1387" class="cls-29" d="M112.571,69.229c-.806-.64-1.6,0-2.448.042a1.031,1.031,0,0,1-.96-.438.688.688,0,0,0-.256-.941,1.671,1.671,0,0,0-1.062-.15,2.02,2.02,0,0,1-.573,0c-.269-.048-.515-.221-.774-.256s-.55.045-.774-.09a.909.909,0,0,1-.291-.32L104.9,66.2a.416.416,0,0,1-.086-.32.49.49,0,0,1,.208-.211,3.3,3.3,0,0,0,1.011-1.76,2.621,2.621,0,0,1,1.143-1.651,2.743,2.743,0,0,1,1.152-.182,4.653,4.653,0,0,1,.989.058c.278.054.547.157.829.2a6.34,6.34,0,0,0,1.37-.035,1.882,1.882,0,0,1,1.3.32,2.829,2.829,0,0,1,.64.976,5.9,5.9,0,0,0,1.322,1.728,2.379,2.379,0,0,1,.89,1.13,2.881,2.881,0,0,1-.282,1.354c-.32,1.066-.054,2.3-.64,3.239a.906.906,0,0,1-.432.394,1.1,1.1,0,0,1-.7-.038,1.636,1.636,0,0,1-.57-.256C112.414,70.656,113.223,69.767,112.571,69.229Z"/>
      <g id="Group_217" data-name="Group 217" class="cls-30">
        <path id="Path_1388" data-name="Path 1388" d="M106.634,62.726a3.953,3.953,0,0,0-.6,1.2,6.836,6.836,0,0,1-.413,1.047,4.583,4.583,0,0,0,.669-1.437,4.9,4.9,0,0,1,.339-.813Z"/>
        <path id="Path_1389" data-name="Path 1389" d="M104.829,65.885a.39.39,0,0,0,.086.32l.531.877a.931.931,0,0,0,.288.32c.227.134.5.051.774.09s.509.208.778.256a2,2,0,0,0,.57,0,1.68,1.68,0,0,1,1.066.15.685.685,0,0,1,.253.941,1.03,1.03,0,0,0,.96.438c.867-.032,1.648-.691,2.448-.042.662.534-.147,1.424.474,1.92a1.7,1.7,0,0,0,.57.259,1.142,1.142,0,0,0,.7.038.928.928,0,0,0,.432-.4,2.06,2.06,0,0,0,.115-.2.745.745,0,0,1-.294.211,1.1,1.1,0,0,1-.7-.038,1.6,1.6,0,0,1-.566-.256c-.624-.486.186-1.376-.474-1.92-.806-.64-1.6,0-2.448.042a1.03,1.03,0,0,1-.96-.442.678.678,0,0,0-.253-.938,1.687,1.687,0,0,0-1.072-.154,2,2,0,0,1-.57.016c-.269-.048-.518-.221-.778-.259s-.547.048-.774-.086a.912.912,0,0,1-.288-.336l-.531-.874a.759.759,0,0,1-.083-.179l-.048.035a.461.461,0,0,0-.2.208Z"/>
      </g>
      <path id="Path_1390" data-name="Path 1390" class="cls-20" d="M72.756,62.876c-.192-.32,1.047-2.109,1.047-2.109S72.948,63.212,72.756,62.876Z"/>
      <path id="Path_1391" data-name="Path 1391" class="cls-20" d="M69.738,61.206c-.112-.243.666-1.335.666-1.335"/>
      <path id="Path_1392" data-name="Path 1392" class="cls-20" d="M66.137,57.641c-.246-.378.57-.838.57-.838"/>
      <path id="Path_1393" data-name="Path 1393" class="cls-20" d="M65.168,57.877c-.291-.355.8-1.447.8-1.447"/>
      <path id="Path_1394" data-name="Path 1394" class="cls-20" d="M52.014,53.589c.566.227.912-1.747.912-1.747S51.445,53.362,52.014,53.589Z"/>
    </g>
  </g>
</svg>
