<svg xmlns="http://www.w3.org/2000/svg" xmlns:xlink="http://www.w3.org/1999/xlink" viewBox="0 0 160 160">
  <defs>
    <style>
      .cls-1 {
        fill: #fff;
      }

      .cls-2 {
        clip-path: url(#clip-path);
      }

      .cls-19, .cls-21, .cls-22, .cls-3 {
        fill: #2b3991;
      }

      .cls-13, .cls-3, .cls-7 {
        opacity: 0.1;
      }

      .cls-4 {
        fill: url(#linear-gradient);
      }

      .cls-5 {
        fill: #ff7590;
      }

      .cls-6 {
        fill: #f6c5b0;
      }

      .cls-8 {
        fill: #535461;
      }

      .cls-9 {
        fill: #333;
      }

      .cls-10, .cls-23, .cls-24, .cls-25, .cls-27 {
        fill: #f7931d;
      }

      .cls-11 {
        fill: #362133;
      }

      .cls-12 {
        fill: #575988;
      }

      .cls-14 {
        opacity: 0.2;
      }

      .cls-15, .cls-16, .cls-17, .cls-28 {
        fill: none;
      }

      .cls-15 {
        stroke: #2b3991;
      }

      .cls-15, .cls-16, .cls-17, .cls-18, .cls-19, .cls-20, .cls-21, .cls-25, .cls-26, .cls-27, .cls-28, .cls-32 {
        stroke-linecap: round;
        stroke-linejoin: round;
      }

      .cls-15, .cls-18 {
        stroke-width: 0.39px;
      }

      .cls-16, .cls-17, .cls-18, .cls-20 {
        stroke: #302d2d;
      }

      .cls-16, .cls-17 {
        stroke-width: 0.426px;
      }

      .cls-17 {
        stroke-dasharray: 3.37 3.37;
      }

      .cls-18, .cls-20 {
        fill: #636363;
      }

      .cls-19, .cls-21, .cls-22, .cls-23, .cls-24, .cls-25, .cls-26, .cls-27, .cls-28, .cls-30, .cls-31, .cls-32 {
        stroke: #353535;
      }

      .cls-19, .cls-25, .cls-28, .cls-32 {
        stroke-width: 0.435px;
      }

      .cls-20 {
        stroke-width: 0.483px;
      }

      .cls-21 {
        stroke-width: 0.538px;
      }

      .cls-22, .cls-23, .cls-24, .cls-30, .cls-31 {
        stroke-miterlimit: 10;
      }

      .cls-22 {
        stroke-width: 0.832px;
      }

      .cls-23, .cls-26, .cls-27, .cls-30, .cls-31 {
        stroke-width: 0.65px;
      }

      .cls-24 {
        stroke-width: 0.65px;
      }

      .cls-26 {
        fill: #595959;
      }

      .cls-29, .cls-30 {
        fill: #edeef5;
      }

      .cls-31, .cls-32 {
        fill: #f5f5f5;
      }
    </style>
    <clipPath id="clip-path">
      <rect id="Rectangle_2" data-name="Rectangle 2" class="cls-1" width="160" height="160" transform="translate(445 747)"/>
    </clipPath>
    <linearGradient id="linear-gradient" x1="1.227" y1="-0.664" x2="1.227" y2="0.336" gradientUnits="objectBoundingBox">
      <stop offset="0" stop-color="gray" stop-opacity="0.251"/>
      <stop offset="0.54" stop-color="gray" stop-opacity="0.122"/>
      <stop offset="1" stop-color="gray" stop-opacity="0.102"/>
    </linearGradient>
  </defs>
  <g id="img-vizesiz-gemi-turlari" class="cls-2" transform="translate(-445 -747)">
    <g id="Homepage-Icons-13" transform="translate(445 749.462)">
      <path id="Path_1249" data-name="Path 1249" class="cls-3" d="M92.96,31.222c-10.256-.355-20.026-3.667-29.354-7.29s-18.56-7.638-28.579-9.555c-6.442-1.235-13.8-1.411-18.992,2.042-5,3.328-6.608,9.059-7.475,14.381-.64,4-1.037,8.218.752,11.965,1.242,2.6,3.446,4.8,4.97,7.28,5.306,8.672,1.555,19.37-4.192,27.84-2.694,3.971-5.824,7.766-7.9,11.99S-.858,98.944.96,103.261s6.1,7.485,10.762,9.744c9.462,4.589,20.6,5.9,31.478,6.643,24.064,1.648,48.253.934,72.381.221,8.928-.266,17.9-.531,26.678-1.92,4.88-.765,9.92-1.981,13.456-4.922a11.268,11.268,0,0,0,2.6-14.72c-5.053-7.843-19.021-9.789-22.557-18.208-1.942-4.634.054-9.8,2.88-14.08,6.061-9.216,16.218-17.306,16.752-27.84.368-7.238-4.515-14.486-12.067-17.92-7.914-3.587-18.88-3.139-24.723,2.8C112.582,29.184,102.019,31.536,92.96,31.222Z"/>
      <path id="Path_1250" data-name="Path 1250" class="cls-3" d="M55.562,83.331a3.091,3.091,0,0,0-.765,1.843,2.656,2.656,0,0,0,2.6-2.637A3.136,3.136,0,0,0,55.562,83.331Z"/>
      <path id="Path_1251" data-name="Path 1251" class="cls-3" d="M58.458,65.344a3.117,3.117,0,0,0,1.187,1.6,2.653,2.653,0,0,0-.918-3.584A3.091,3.091,0,0,0,58.458,65.344Z"/>
      <path id="Path_1252" data-name="Path 1252" class="cls-3" d="M100.573,68.07a3.091,3.091,0,0,0-.765,1.843,2.662,2.662,0,0,0,2.6-2.637A3.136,3.136,0,0,0,100.573,68.07Z"/>
      <path id="Path_1253" data-name="Path 1253" class="cls-3" d="M78.624,78.272a3.11,3.11,0,0,0,.6,1.92,2.656,2.656,0,0,0,.32-3.686A3.117,3.117,0,0,0,78.624,78.272Z"/>
      <path id="Path_1254" data-name="Path 1254" class="cls-3" d="M102.25,92.55a3.12,3.12,0,0,0,.6,1.92,2.659,2.659,0,0,0,.3-3.69,3.114,3.114,0,0,0-.9,1.77Z"/>
      <path id="Path_1255" data-name="Path 1255" class="cls-4" d="M100.71,80.32a.64.64,0,0,0-.442.39h-.07l-.269-.042s-1.424-.118-1.69-.1a.538.538,0,0,1-.432-.246l-1.059-.893-.08-.074.186-.064s-2.838-3.52-3.453-3.6a4.752,4.752,0,0,1-1.632-.9v-.054c-.022-.118-.038-.24-.051-.362l.15.093h0a.817.817,0,0,1,0-.125h0a2.288,2.288,0,0,1,.422-1.21A5.711,5.711,0,0,0,93.2,71.93a1.712,1.712,0,0,0,.093-.64,2.083,2.083,0,0,0-.294-1.1,1.376,1.376,0,0,0-.928-.64,1.391,1.391,0,0,1-.3-.042c-.592-.141-.81-.931-1.382-1.126a1.174,1.174,0,0,0-.826.08c-.259.112-.493.275-.746.4a4.333,4.333,0,0,0-.768.39l-.074.064h0l-.045.042h0a1.727,1.727,0,0,0-.246.32v.016l-.019.038a.15.15,0,0,0-.016.032V69.8l-.016.035V70a.161.161,0,0,1,0,.038.086.086,0,0,0,0,.029V70.2a.413.413,0,0,0,0,.061h0a1.235,1.235,0,0,0,.275.387l-.035.032a2.518,2.518,0,0,0-.768,1.808,2.336,2.336,0,0,0,.042.448,2.449,2.449,0,0,0-.419-.256,3.67,3.67,0,0,0-1.562-.358,10.668,10.668,0,0,1-2.122-.342.813.813,0,0,1,.07.192l-.176-.1a5.12,5.12,0,0,0-1.654-.554s-.368.051-.419-.72a3.123,3.123,0,0,0-.128-.71,11.911,11.911,0,0,1-.435-2.16L80.173,66.8a14.247,14.247,0,0,0,.221-4.211.87.87,0,0,0-.32-1.018c-1.4-1.027-2.8,2.97-2.8,2.97l-.525.509a1.165,1.165,0,0,0-.442-.17,2.474,2.474,0,0,0-.477,1.075,5.206,5.206,0,0,1-1.456,1.674c-.454.4-.893.813-1.331,1.229a4.751,4.751,0,0,1-2.621,1l-.678.109a2.125,2.125,0,0,0-1.6-2.656.481.481,0,0,0-.16-.438A3.069,3.069,0,0,0,66.8,65.843a1.514,1.514,0,0,0-.64-.1h-.24a1.635,1.635,0,0,0-1.2.624,8.7,8.7,0,0,0-.438.771,3.427,3.427,0,0,1-1.19,1.114c-.285.173-.586.32-.854.515a3.2,3.2,0,0,0-1.178,3.2,4.9,4.9,0,0,1,.275,1.542,2.7,2.7,0,0,1-.486,1.107A3.482,3.482,0,0,0,60.3,75.7a1.085,1.085,0,0,0,.339,1.107,2.72,2.72,0,0,1,.374.25,1.152,1.152,0,0,1,.173.272,2.7,2.7,0,0,0,1.677,1.3,1.235,1.235,0,0,0,.342.038h.035a.573.573,0,0,0,.621-.288.809.809,0,0,1,.061-.154.182.182,0,0,1,.106-.07.976.976,0,0,1,.243.093,3.13,3.13,0,0,0,1.187.339h.208a.925.925,0,0,0,.426-.061.938.938,0,0,0,.32-.278l.054-.074a5.833,5.833,0,0,1-.531,1.658,3,3,0,0,0-.4,1.446,1.434,1.434,0,0,0,.163.762.487.487,0,0,1,.035-.08,6.215,6.215,0,0,0,.8,1.1,8.048,8.048,0,0,1-.074,1.722,3.542,3.542,0,0,0,1.357,3.91l.451.989-1.859.131c-.189-.026-2.618-.352-2.63.125s.368,5.312,1.629,4.986c1.174-.3.787-1.709.726-1.9h0l.941-.89a.429.429,0,0,0-.074-.32h0l2.272.1.531,1.158a2.558,2.558,0,0,1,.173,2.534,11.6,11.6,0,0,0-1.61,4.045,4.45,4.45,0,0,1-1,2.07c-.426.144-2.058.787-1.4,1.757.746,1.11,3.168,3.222,4.16,3.152s.586-.787.586-.787l-.816-.794a20.1,20.1,0,0,1-.086-2.186.506.506,0,0,0-.362-.518,5.475,5.475,0,0,1,.691-2.173c.589-.81,2.474-4.371,2.474-4.371s.6-.531.464-2.112c-.054-.64-.086-1.2-.1-1.642l2.134.1s2.288-.23.733-2.682a22.549,22.549,0,0,0-4.858-4.854L70.941,83.1l.237.058L71.142,83h.035a33.114,33.114,0,0,1-.624-3.709l.134.061c1.421,1.642,2.378.253,2.378.253s3-4.211,2.7-4.019a.266.266,0,0,1-.2,0l.218-.688a1.474,1.474,0,0,0-.4-2.115c-1.05-.621-1.021,1.325-.976,2.061l-.051-.045s-1,1.514-1.542,2.355-.992.288-.992.288l-.682-.765a2.659,2.659,0,0,0,.163-.96,1.635,1.635,0,0,0-.461-1.245,2.157,2.157,0,0,1-.685-1.437,1.507,1.507,0,0,1,.134-.592l3.536-1.872s.746,0,1.75-1.533a26.637,26.637,0,0,1,2.141-2.826.811.811,0,0,0-.058-.08c.038-.042.058-.067.058-.067l-.112-.15.547-.64a7.611,7.611,0,0,0,0,.854l.282.96L78.6,72.4s-.173.506.928,1.014c.931.432,2.41,1.152,2.838,1.366l-.026.061h.147A1.825,1.825,0,0,1,84.57,76.8s.144,4.371-.512,5.891a8.768,8.768,0,0,0-.563,3.4s.064-.32.432.1a.21.21,0,0,1-.026.118c-.211,1.053-.64,3.293-.73,4.2a14.778,14.778,0,0,1-.477,2.448l-.214,4.022,1.376.067-.016.144a.451.451,0,0,1-.234.349c-.47.256-1.584,1.152-1.494,3.92l-.048.445a5.6,5.6,0,0,1-.672,2.147,1.54,1.54,0,0,0-.083.16.125.125,0,0,1,.038-.077s-.717.15-.57,2.08.368,2.272.662,2.294,1.728.374,1.651-.336a13.18,13.18,0,0,1-.051-2.538c.093-.243.486-.893.115-1.05h0a5.494,5.494,0,0,0,.157-1.354,8.807,8.807,0,0,1,1.235-1.555,3.47,3.47,0,0,0,.976-2.067c0-.061,1.52-1.062,1.3-1.894-.038-.144-.064-.272-.086-.387a.962.962,0,0,0-.026-.144h.013l.32-1.834v1.786l.182.026v.144l-.077,1.712a2.813,2.813,0,0,1-.218.96,9.514,9.514,0,0,0-.758,4.323l-.016,1.645c-.054,0-.8.186-.659,2.051.144,1.92.368,2.272.662,2.294s1.728.374,1.651-.336a13.181,13.181,0,0,1-.051-2.538c.093-.243.269-.877-.1-1.037a1.4,1.4,0,0,1,.154-.621c.163-.272.7-1.578,1.107-2.579a9.28,9.28,0,0,0,.678-3.2v-.038a3.011,3.011,0,0,1,.234-1.072,7.039,7.039,0,0,0,.394-1.184.8.8,0,0,1,.026-.144l.352.048L91.8,92.4a25.994,25.994,0,0,0,.17-4.083.317.317,0,0,0-.022-.147h.07a11.047,11.047,0,0,0,.173-3.309c-.074-2.669.49-3.52.49-3.52.32-.96.64-1.28.835-1.392h0a.358.358,0,0,1,.166-.058l.883,1.066h0l.166.192h0l.074.086a.9.9,0,0,1,0-.131c.486.282,1.6.941,2.272,1.414a2.076,2.076,0,0,0,1.872.48,5.088,5.088,0,0,0,1.507-.5l.038-.019a1.722,1.722,0,0,0,.355.144s1.229,1.043,1.347-.858S100.71,80.32,100.71,80.32ZM68.8,102.477a1.972,1.972,0,0,1-.358-.15ZM66.88,81.891v.269h-.019A1.253,1.253,0,0,0,66.88,81.891Zm19.235,24.1v.106a.077.077,0,0,1,.006-.106Z"/>
      <rect id="Rectangle_438" data-name="Rectangle 438" class="cls-5" width="2.09" height="2.195" transform="translate(87.958 74.352)"/>
      <path id="Path_1256" data-name="Path 1256" class="cls-6" d="M85.421,99.712a3.469,3.469,0,0,1-.96,2.054,8.823,8.823,0,0,0-1.21,1.546,3.132,3.132,0,0,1-.41,1.958l-.41.106H81.424a4.912,4.912,0,0,1-.214-.8.935.935,0,0,1,.157-.448,5.571,5.571,0,0,0,.659-2.134l.048-.442c-.086-2.749,1.008-3.642,1.466-3.894a.451.451,0,0,0,.23-.349h0l.08-.787,2.714.134a2.166,2.166,0,0,0,.045.794c.019.112.048.24.086.381C86.909,98.656,85.44,99.651,85.421,99.712Z"/>
      <path id="Path_1257" data-name="Path 1257" class="cls-6" d="M90.019,97.814a6.9,6.9,0,0,1-.384,1.174,3.062,3.062,0,0,0-.23,1.069v.035a9.305,9.305,0,0,1-.666,3.174c-.4,1-.928,2.294-1.085,2.56a2.138,2.138,0,0,0-.109,1.226l-1.526-.109.026-2.56a9.6,9.6,0,0,1,.746-4.294,2.832,2.832,0,0,0,.218-.96l.07-1.706.022-.5s2.7-.384,2.928.227a1.328,1.328,0,0,1-.01.666Z"/>
      <path id="Path_1258" data-name="Path 1258" class="cls-7" d="M86.608,97.446l-2.842-.141.08-.787,2.717.134A2.07,2.07,0,0,0,86.608,97.446Z"/>
      <path id="Path_1259" data-name="Path 1259" class="cls-7" d="M90.019,97.814l-2.941-.4.022-.5s2.7-.384,2.925.227A1.28,1.28,0,0,1,90.019,97.814Z"/>
      <path id="Path_1260" data-name="Path 1260" class="cls-8" d="M91.568,92.56,90.39,97.718l-3.482-.467V95.475l-.3,1.827-4.16-.2.218-4a14.719,14.719,0,0,0,.467-2.438c.08-.9.509-3.13.717-4.176.07-.346.112-.563.112-.563s7.152,1.488,7.622,2.029a1.139,1.139,0,0,1,.163.547A26.575,26.575,0,0,1,91.568,92.56Z"/>
      <path id="Path_1261" data-name="Path 1261" class="cls-7" d="M83.2,92.9s2.816-1.478,3.5-1.165Z"/>
      <path id="Path_1262" data-name="Path 1262" class="cls-7" d="M84.749,88.07s2.342,1.776,2.413,2.24Z"/>
      <path id="Path_1263" data-name="Path 1263" class="cls-7" d="M84.112,94.192a4.908,4.908,0,0,1,2.24.358Z"/>
      <path id="Path_1264" data-name="Path 1264" class="cls-7" d="M87.162,92.291s.8,2.634.454,3.354-.707-.17-.707-.17Z"/>
      <path id="Path_1265" data-name="Path 1265" class="cls-9" d="M86.032,106.013s-.794.122-.64,2.042.362,2.256.64,2.282,1.693.371,1.619-.336a12.968,12.968,0,0,1-.048-2.522c.1-.24.262-.874-.1-1.03l-.077.371s-.768-.71-1.226-.192a2.1,2.1,0,0,0-.093-.371C86.061,106.144,85.962,106.086,86.032,106.013Z"/>
      <path id="Path_1266" data-name="Path 1266" class="cls-6" d="M100.528,82.454s-.182.1-.448.227a5,5,0,0,1-1.478.493,2.016,2.016,0,0,1-1.837-.477c-.656-.47-1.754-1.123-2.24-1.4l-.208-.122h-.022l.4-1.088,1.4-.749.349.3,1.037.89a.518.518,0,0,0,.426.24c.259,0,1.654.1,1.654.1l.266.045.554.09Z"/>
      <path id="Path_1267" data-name="Path 1267" class="cls-7" d="M100.528,82.454s-.182.1-.448.227c-.282-.144-.64-.413-.5-.858s.154-.71.253-.938l.557.093Z"/>
      <path id="Path_1268" data-name="Path 1268" class="cls-6" d="M100.339,80.509s1.568-.448,1.45,1.44-1.325.858-1.325.858-1.024-.272-.81-.982S99.808,80.682,100.339,80.509Z"/>
      <path id="Path_1269" data-name="Path 1269" class="cls-6" d="M84.1,74.387l-1.632.688h-.045l-.1-.051c-.419-.208-1.872-.928-2.784-1.357-1.078-.5-.912-1.008-.912-1.008l-.154-5.28-.278-.96s-.2-3.2,1.37-4.022.55,4.659.55,4.659l.122,1.133a12.234,12.234,0,0,0,.429,2.144,3.52,3.52,0,0,1,.128.707c.048.768.406.717.406.717a5.021,5.021,0,0,1,1.622.55,4.227,4.227,0,0,1,.538.339Z"/>
      <path id="Path_1270" data-name="Path 1270" class="cls-6" d="M89.92,76.909l-1.392-.144a5.344,5.344,0,0,0,.589-1.2,2.379,2.379,0,0,0,.064-.25A.835.835,0,0,0,89.1,74.7c-.41-.6,2.422-1.44,2.422-1.44a6.94,6.94,0,0,0-.029,1,4.959,4.959,0,0,0,.07.691,1.712,1.712,0,0,0,.582,1.13C93.03,76.694,89.92,76.909,89.92,76.909Z"/>
      <path id="Path_1271" data-name="Path 1271" class="cls-7" d="M89.92,76.909l-1.392-.144a5.344,5.344,0,0,0,.589-1.2.506.506,0,0,0,.442.266,2.058,2.058,0,0,0,2.013-.877,1.712,1.712,0,0,0,.582,1.13C93.03,76.694,89.92,76.909,89.92,76.909Z"/>
      <path id="Path_1272" data-name="Path 1272" class="cls-7" d="M94.538,81.28a.563.563,0,0,0,0,.128l-.218-.25-.019-.022.4-1.088,1.4-.749.349.3C95.958,79.8,94.56,80.406,94.538,81.28Z"/>
      <path id="Path_1273" data-name="Path 1273" class="cls-7" d="M84.1,74.387l-1.632.688H82.3a.487.487,0,0,0,.022-.058,5.275,5.275,0,0,0,.5-2.707,3.92,3.92,0,0,1,.538.342Z"/>
      <path id="Path_1274" data-name="Path 1274" class="cls-7" d="M91.731,88.5c-.64-.058-6.989-.64-7.581-1.581a3.567,3.567,0,0,0-.32-.432c.07-.346.112-.563.112-.563s7.152,1.488,7.622,2.029a1.114,1.114,0,0,1,.166.547Z"/>
      <path id="Path_1275" data-name="Path 1275" class="cls-10" d="M89.549,75.9a2.059,2.059,0,0,0,2.022-.893,4.692,4.692,0,0,0,1.6.893c.6.07,3.386,3.578,3.386,3.578s-2.24.72-2.09,1.872l-1.056-1.226s-.528-.022-.982,1.44c0,0-.554.842-.483,3.5a11.284,11.284,0,0,1-.166,3.29s-7.008-.6-7.632-1.584-.72-.506-.72-.506a8.787,8.787,0,0,1,.554-3.389c.64-1.514.506-5.856.506-5.856a1.809,1.809,0,0,0-2.042-1.946s.89-2.064.48-2.858a10.56,10.56,0,0,0,2.08.342,3.52,3.52,0,0,1,1.533.358,1.725,1.725,0,0,1,.64.48.931.931,0,0,0,1.078.32,11.2,11.2,0,0,0,.64,1.536l.086.154a1.989,1.989,0,0,0,.128.2.518.518,0,0,0,.438.288Z"/>
      <path id="Path_1276" data-name="Path 1276" class="cls-7" d="M91.488,74.256a2.6,2.6,0,0,1-.256.32,2.512,2.512,0,0,1-1.8.758,2.36,2.36,0,0,1-.262,0,.822.822,0,0,0-.077-.611c-.406-.6,2.426-1.44,2.426-1.44a6.941,6.941,0,0,0-.032.973Z"/>
      <path id="Path_1277" data-name="Path 1277" class="cls-6" d="M91.949,72.733a2.512,2.512,0,1,1,0-.019Z"/>
      <path id="Path_1278" data-name="Path 1278" class="cls-7" d="M93.2,78.493l.051,1.686s.752-.6.774-1.181S93.2,78.493,93.2,78.493Z"/>
      <path id="Path_1279" data-name="Path 1279" class="cls-7" d="M87.126,80.179s1.981,2.72,3.133,3S87.558,81.062,87.126,80.179Z"/>
      <path id="Path_1280" data-name="Path 1280" class="cls-7" d="M89.226,80.464a5.153,5.153,0,0,0,1.9,1.4Z"/>
      <path id="Path_1281" data-name="Path 1281" class="cls-7" d="M85.338,83.606s2.016,1.981,3.168,2.1Z"/>
      <path id="Path_1282" data-name="Path 1282" class="cls-7" d="M91.949,72.733a2.486,2.486,0,0,1-.72,1.76l-.275-.173a.752.752,0,0,1-.269-.234.922.922,0,0,1-.058-.522,1.222,1.222,0,0,0-.384-1.018c-.477-.384-1.242-.173-1.728-.547a1.818,1.818,0,0,1-.32-.339l-.442-.621c-.026-.035-.061-.074-.1-.115a2.522,2.522,0,0,1,4.288,1.8Z"/>
      <path id="Path_1283" data-name="Path 1283" class="cls-11" d="M87.91,69.5a4.425,4.425,0,0,1,.755-.387c.253-.128.477-.291.73-.4a1.149,1.149,0,0,1,.81-.083c.563.2.778.982,1.357,1.12.1.022.2.026.3.042a1.35,1.35,0,0,1,.912.64,2.154,2.154,0,0,1,.288,1.094,1.753,1.753,0,0,1-.093.64,5.589,5.589,0,0,1-.89,1.2,2.288,2.288,0,0,0-.419,1.331l-.7-.461a.733.733,0,0,1-.269-.234.9.9,0,0,1-.058-.522,1.238,1.238,0,0,0-.384-1.021c-.477-.384-1.245-.17-1.728-.547a1.629,1.629,0,0,1-.32-.339l-.454-.611a1.68,1.68,0,0,1-.32-.458C87.331,70.176,87.658,69.7,87.91,69.5Z"/>
      <path id="Path_1284" data-name="Path 1284" class="cls-7" d="M91.034,74.17a.752.752,0,0,1-.269-.234.922.922,0,0,1-.058-.522,1.219,1.219,0,0,0-.384-1.018c-.477-.384-1.242-.173-1.728-.547a1.8,1.8,0,0,1-.3-.339l-.458-.611a1.68,1.68,0,0,1-.32-.458,1.053,1.053,0,0,1,.32-.874,1.136,1.136,0,0,0-.413.96,1.782,1.782,0,0,0,.32.458l.454.611a1.629,1.629,0,0,0,.32.339c.483.378,1.248.166,1.728.547a1.226,1.226,0,0,1,.381,1.021.96.96,0,0,0,.058.522.752.752,0,0,0,.269.234l.7.438v-.125Z"/>
      <path id="Path_1285" data-name="Path 1285" class="cls-9" d="M81.322,104.208s-.7.147-.557,2.07.362,2.256.64,2.278,1.69.374,1.619-.336a13.2,13.2,0,0,1-.048-2.518c.1-.24.477-.886.112-1.043l-.291.381s-.771-.707-1.226-.192C81.581,104.848,81.155,104.378,81.322,104.208Z"/>
      <path id="Path_1286" data-name="Path 1286" class="cls-7" d="M81.766,105.4c.15.074.294.16.445.234a1,1,0,0,0,.483.112.346.346,0,0,0,.2-.067"/>
      <path id="Path_1287" data-name="Path 1287" class="cls-7" d="M86.381,107.283a2.2,2.2,0,0,0,.262.256.931.931,0,0,0,.506.106.2.2,0,0,0,.086,0,.282.282,0,0,0,.077-.074l.093-.122"/>
      <path id="Path_1288" data-name="Path 1288" class="cls-6" d="M74.56,75.347s-.32-3.072.938-2.314a1.475,1.475,0,0,1,.394,2.1l-.3.96Z"/>
      <path id="Path_1289" data-name="Path 1289" class="cls-6" d="M76.563,65.533l.72-.707s1.382-3.974,2.749-2.954-1.731,3.6-1.731,3.6l-.822.96Z"/>
      <path id="Path_1290" data-name="Path 1290" class="cls-10" d="M66.026,81.242l-.035.816s.659,1.152.938,1.238.25-2.438.25-2.438Z"/>
      <path id="Path_1291" data-name="Path 1291" class="cls-7" d="M66.026,81.242l-.035.816s.659,1.152.938,1.238.25-2.438.25-2.438Z"/>
      <path id="Path_1292" data-name="Path 1292" class="cls-6" d="M67.13,80.346l.051,3.008h3.347l-.253-1.75Z"/>
      <path id="Path_1293" data-name="Path 1293" class="cls-12" d="M67.91,87.856l.157.96,1.955,4.342a2.573,2.573,0,0,1,.17,2.522,11.766,11.766,0,0,0-1.584,4.045,4.684,4.684,0,0,1-1.069,2.16l2.064.877a6.462,6.462,0,0,1,.72-2.522c.576-.8,2.426-4.346,2.426-4.346s.589-.528.454-2.1-.118-2.675-.118-2.675l-.2-2.509Z"/>
      <path id="Path_1294" data-name="Path 1294" class="cls-8" d="M67.91,87.856l.157.96,1.955,4.342a2.573,2.573,0,0,1,.17,2.522,11.766,11.766,0,0,0-1.584,4.045,4.684,4.684,0,0,1-1.069,2.16l2.064.877a6.462,6.462,0,0,1,.72-2.522c.576-.8,2.426-4.346,2.426-4.346s.589-.528.454-2.1-.118-2.675-.118-2.675l-.2-2.509Z"/>
      <path id="Path_1295" data-name="Path 1295" class="cls-9" d="M67.718,101.76s-2.208.672-1.475,1.776,3.107,3.2,4.067,3.133.576-.781.576-.781l-.806-.8a19.221,19.221,0,0,1-.083-2.17c.061-.493-.685-.72-.781-.432S67.718,101.76,67.718,101.76Z"/>
      <path id="Path_1296" data-name="Path 1296" class="cls-8" d="M69.12,82.077l-1.75.192a.64.64,0,0,0-.56.64,9.781,9.781,0,0,1-.067,2.019,3.558,3.558,0,0,0,1.334,3.888l2.6.829-4.16.3.131,2.317.64-.358,7.907.358s2.24-.227.72-2.662a22.162,22.162,0,0,0-4.765-4.826l-.035-1.9-.24-.55Z"/>
      <path id="Path_1297" data-name="Path 1297" class="cls-7" d="M71.283,89.6a2.262,2.262,0,0,1,1.8,0Z"/>
      <path id="Path_1298" data-name="Path 1298" class="cls-9" d="M66.7,89.92s-2.579-.371-2.592.122.362,5.28,1.6,4.957.707-1.92.707-1.92l.925-.886s.1-.493-.515-.445Z"/>
      <path id="Path_1299" data-name="Path 1299" class="cls-10" d="M70.973,76.5,72,77.664s.445.554.96-.288,1.514-2.339,1.514-2.339,1.091.96,1.379.768-2.653,4-2.653,4-.934,1.379-2.33-.253l-.406-.192Z"/>
      <path id="Path_1300" data-name="Path 1300" class="cls-7" d="M70.973,76.5,72,77.664s.445.554.96-.288,1.514-2.339,1.514-2.339,1.091.96,1.379.768-2.653,4-2.653,4-.934,1.379-2.33-.253l-.406-.192Z"/>
      <circle id="Ellipse_217" data-name="Ellipse 217" class="cls-6" cx="2.125" cy="2.125" r="2.125" transform="translate(65.728 67.52)"/>
      <path id="Path_1301" data-name="Path 1301" class="cls-7" d="M67.84,70.787s-1.827.864-1.6,2.378a33.581,33.581,0,0,1,.25,3.421s.829,1.222-.269,3.565a2.436,2.436,0,0,0-.234,2.051s.518-1.37,1.862-.358a10.627,10.627,0,0,0,3.51,1.475s-1.114-4.9-.432-5.581c0,0,1.19-1.763.109-2.88A1.9,1.9,0,0,1,70.5,72.7l3.469-1.862s.733,0,1.718-1.523a26.394,26.394,0,0,1,2.1-2.81s-.746-1.114-1.44-1.2a2.451,2.451,0,0,0-.467,1.069,5.161,5.161,0,0,1-1.427,1.664c-.445.4-.877.806-1.306,1.226a4.775,4.775,0,0,1-2.56.992A14.245,14.245,0,0,0,67.84,70.787Z"/>
      <path id="Path_1302" data-name="Path 1302" class="cls-10" d="M67.84,70.643s-1.827.864-1.6,2.378a33.579,33.579,0,0,1,.25,3.421s.829,1.222-.269,3.565a2.436,2.436,0,0,0-.234,2.051s.518-1.37,1.862-.358a10.627,10.627,0,0,0,3.51,1.475s-1.114-4.9-.432-5.581c0,0,1.19-1.766.109-2.88a1.9,1.9,0,0,1-.541-2.16l3.469-1.862s.733,0,1.718-1.523a26.394,26.394,0,0,1,2.1-2.81s-.746-1.114-1.44-1.2a2.451,2.451,0,0,0-.467,1.069,5.16,5.16,0,0,1-1.427,1.664c-.445.4-.877.806-1.306,1.226a4.775,4.775,0,0,1-2.56.992A14.246,14.246,0,0,0,67.84,70.643Z"/>
      <path id="Path_1303" data-name="Path 1303" class="cls-7" d="M69.44,79.68a17.61,17.61,0,0,1,1.45,2.448C70.877,82.141,70.659,79.9,69.44,79.68Z"/>
      <path id="Path_1304" data-name="Path 1304" class="cls-7" d="M67.565,72.659a1.738,1.738,0,0,0,2.413.192A3.05,3.05,0,0,1,67.565,72.659Z"/>
      <path id="Path_1305" data-name="Path 1305" class="cls-7" d="M68.33,67.424a.621.621,0,0,0-.157-.288,3.021,3.021,0,0,0-1.165-1.021,1.6,1.6,0,0,0-1.834.522,8.5,8.5,0,0,0-.429.765,3.35,3.35,0,0,1-1.171,1.107c-.278.173-.573.32-.835.512a3.2,3.2,0,0,0-1.155,3.168,5.218,5.218,0,0,1,.269,1.533,2.7,2.7,0,0,1-.477,1.1,3.485,3.485,0,0,0-.534,1.082,1.078,1.078,0,0,0,.32,1.1,2.477,2.477,0,0,1,.368.25,1.229,1.229,0,0,1,.17.269,2.643,2.643,0,0,0,1.661,1.3c.32.08.723.051.838-.246a.64.64,0,0,1,.058-.154c.1-.144.32-.064.486.019a3.015,3.015,0,0,0,1.162.32.762.762,0,0,0,.8-.333,3.421,3.421,0,0,0,.55-1.757,4.032,4.032,0,0,0,0-1.21,7.017,7.017,0,0,1-.454-1.882c.058-.646.624-1.254.707-1.942a1.472,1.472,0,0,0-.253-1.024,1.459,1.459,0,0,1-.192-.3.32.32,0,0,1,.058-.32.547.547,0,0,1,.15-.074A1.235,1.235,0,0,0,68,68.8a2.364,2.364,0,0,1,.051-.522C68.131,68.01,68.371,67.712,68.33,67.424Z"/>
      <path id="Path_1306" data-name="Path 1306" class="cls-11" d="M68.186,67.424a.621.621,0,0,0-.157-.288,3.021,3.021,0,0,0-1.165-1.021,1.6,1.6,0,0,0-1.834.522,8.5,8.5,0,0,0-.429.765,3.35,3.35,0,0,1-1.171,1.107c-.278.173-.573.32-.835.512a3.2,3.2,0,0,0-1.155,3.168,5.218,5.218,0,0,1,.269,1.533,2.7,2.7,0,0,1-.477,1.1A3.485,3.485,0,0,0,60.7,75.9a1.078,1.078,0,0,0,.32,1.1,2.477,2.477,0,0,1,.368.25,1.229,1.229,0,0,1,.17.269,2.643,2.643,0,0,0,1.645,1.3c.32.08.723.051.838-.246a.64.64,0,0,1,.058-.154c.1-.144.32-.064.486.019a3,3,0,0,0,1.162.32.727.727,0,0,0,.816-.314,3.421,3.421,0,0,0,.55-1.757,4.032,4.032,0,0,0,0-1.21,7.017,7.017,0,0,1-.454-1.882c.058-.646.64-1.254.707-1.942a1.472,1.472,0,0,0-.253-1.024,1.459,1.459,0,0,1-.192-.3.32.32,0,0,1,.058-.32.547.547,0,0,1,.15-.074,1.235,1.235,0,0,0,.742-1.114,2.364,2.364,0,0,1,.051-.522C67.987,68.01,68.227,67.712,68.186,67.424Z"/>
      <g id="Group_203" data-name="Group 203" class="cls-13">
        <path id="Path_1307" data-name="Path 1307" d="M63.891,78.4a.87.87,0,0,0-.061.15.477.477,0,0,1-.435.282.582.582,0,0,0,.64-.282.663.663,0,0,1,.058-.15.192.192,0,0,1,.074-.061.246.246,0,0,0-.275.061Z"/>
        <path id="Path_1308" data-name="Path 1308" d="M68.189,67.421a.64.64,0,0,0-.157-.288,3.066,3.066,0,0,0-1.152-1.021,1.562,1.562,0,0,0-.662-.1,1.543,1.543,0,0,1,.445.1,3.075,3.075,0,0,1,1.165,1.021.64.64,0,0,1,.154.288c.042.288-.2.589-.275.854a2.2,2.2,0,0,0-.051.522,1.245,1.245,0,0,1-.742,1.117.5.5,0,0,0-.15.07.3.3,0,0,0-.058.32,1.411,1.411,0,0,0,.192.3,1.466,1.466,0,0,1,.253,1.021c-.086.688-.64,1.254-.707,1.946a6.088,6.088,0,0,0,.451,1.878,4.141,4.141,0,0,1,0,1.21,3.382,3.382,0,0,1-.554,1.757.867.867,0,0,1-.32.278.736.736,0,0,1-.234.058.96.96,0,0,0,.454-.032.877.877,0,0,0,.32-.272,3.392,3.392,0,0,0,.554-1.757,4.032,4.032,0,0,0,0-1.21,7.132,7.132,0,0,1-.451-1.882c.058-.646.621-1.254.707-1.942a1.462,1.462,0,0,0-.253-1.021,1.434,1.434,0,0,1-.192-.3.294.294,0,0,1,.058-.32.506.506,0,0,1,.15-.074,1.235,1.235,0,0,0,.742-1.114,2.365,2.365,0,0,1,.051-.522C67.99,68.01,68.23,67.712,68.189,67.421Z"/>
      </g>
      <path id="Path_1309" data-name="Path 1309" class="cls-7" d="M65.462,92.835a.96.96,0,0,0,1,.275"/>
      <path id="Path_1310" data-name="Path 1310" class="cls-7" d="M70.08,105.149a.6.6,0,0,1-.5.128"/>
      <g id="Group_204" data-name="Group 204" class="cls-14">
        <line id="Line_4" data-name="Line 4" class="cls-15" x2="0.883" transform="translate(108.995 72.16)"/>
        <line id="Line_5" data-name="Line 5" class="cls-15" x2="6.288" transform="translate(111.638 72.16)"/>
        <line id="Line_6" data-name="Line 6" class="cls-15" x2="2.054" transform="translate(123.472 75.037)"/>
        <line id="Line_7" data-name="Line 7" class="cls-15" x2="7.718" transform="translate(114.067 75.037)"/>
        <line id="Line_8" data-name="Line 8" class="cls-15" x2="1.059" transform="translate(118.867 77.914)"/>
        <line id="Line_9" data-name="Line 9" class="cls-15" x2="4.557" transform="translate(111.619 77.914)"/>
      </g>
      <g id="Group_205" data-name="Group 205" class="cls-14">
        <line id="Line_10" data-name="Line 10" class="cls-15" x2="0.288" transform="translate(132.566 112.717)"/>
        <line id="Line_11" data-name="Line 11" class="cls-15" x2="2.058" transform="translate(133.43 112.717)"/>
        <line id="Line_12" data-name="Line 12" class="cls-15" x2="0.672" transform="translate(137.299 113.658)"/>
        <line id="Line_13" data-name="Line 13" class="cls-15" x2="2.525" transform="translate(134.224 113.658)"/>
        <line id="Line_14" data-name="Line 14" class="cls-15" x2="0.346" transform="translate(135.795 114.598)"/>
        <line id="Line_15" data-name="Line 15" class="cls-15" x2="1.491" transform="translate(133.424 114.598)"/>
      </g>
      <g id="Group_206" data-name="Group 206" class="cls-14">
        <line id="Line_16" data-name="Line 16" class="cls-15" x2="1.098" transform="translate(20.288 33.091)"/>
        <line id="Line_17" data-name="Line 17" class="cls-15" x2="7.798" transform="translate(23.568 33.091)"/>
        <line id="Line_18" data-name="Line 18" class="cls-15" x2="2.55" transform="translate(38.243 36.659)"/>
        <line id="Line_19" data-name="Line 19" class="cls-15" x2="9.568" transform="translate(26.582 36.659)"/>
        <line id="Line_20" data-name="Line 20" class="cls-15" x2="1.315" transform="translate(32.531 40.227)"/>
        <line id="Line_21" data-name="Line 21" class="cls-15" x2="5.648" transform="translate(23.546 40.227)"/>
      </g>
      <g id="Group_207" data-name="Group 207" class="cls-14">
        <line id="Line_22" data-name="Line 22" class="cls-15" x2="0.598" transform="translate(9.914 106)"/>
        <line id="Line_23" data-name="Line 23" class="cls-15" x2="4.246" transform="translate(11.702 106)"/>
        <line id="Line_24" data-name="Line 24" class="cls-15" x2="1.389" transform="translate(19.693 107.942)"/>
        <line id="Line_25" data-name="Line 25" class="cls-15" x2="5.213" transform="translate(13.341 107.942)"/>
        <line id="Line_26" data-name="Line 26" class="cls-15" x2="0.717" transform="translate(16.582 109.885)"/>
        <line id="Line_27" data-name="Line 27" class="cls-15" x2="3.075" transform="translate(11.69 109.885)"/>
      </g>
      <g id="Group_208" data-name="Group 208" class="cls-14">
        <line id="Line_28" data-name="Line 28" class="cls-16" x2="0.528" transform="translate(47.69 87.146)"/>
        <line id="Line_29" data-name="Line 29" class="cls-17" x2="12.397" transform="translate(49.296 87.146)"/>
        <line id="Line_30" data-name="Line 30" class="cls-16" x2="0.531" transform="translate(62.23 87.146)"/>
      </g>
      <line id="Line_31" data-name="Line 31" class="cls-18" x2="11.446" transform="translate(112.618 61.411)"/>
      <path id="Path_1311" data-name="Path 1311" class="cls-19" d="M121.472,60.115a1.632,1.632,0,0,0-.816.214,2.15,2.15,0,0,0-2.077-1.6,2.185,2.185,0,0,0-.781.147,2.375,2.375,0,1,0-4.022,2.525h9.315A1.661,1.661,0,0,0,121.472,60.115Z"/>
      <line id="Line_32" data-name="Line 32" class="cls-20" x2="14.141" transform="translate(27.958 64.957)"/>
      <path id="Path_1312" data-name="Path 1312" class="cls-21" d="M38.9,63.36a2.032,2.032,0,0,0-1.008.266,2.653,2.653,0,0,0-2.56-1.965,2.688,2.688,0,0,0-.96.182,2.937,2.937,0,0,0-4.979,3.117h11.52A2.048,2.048,0,0,0,38.9,63.36Z"/>
      <path id="Path_1313" data-name="Path 1313" class="cls-22" d="M24.09,108.016l6.365,14.608H110.88l23.578-17.936H106.685l-3.1,3.328Z"/>
      <path id="Path_1314" data-name="Path 1314" class="cls-23" d="M117.523,117.491H28.218l-1.386-3.184h94.982Z"/>
      <circle id="Ellipse_218" data-name="Ellipse 218" class="cls-24" cx="1.619" cy="1.619" r="1.619" transform="translate(110.594 107.523) rotate(-21.15)"/>
      <line id="Line_33" data-name="Line 33" class="cls-25" x1="2.022" transform="translate(109.107 108.883)"/>
      <line id="Line_34" data-name="Line 34" class="cls-25" x1="3.142" transform="translate(107.987 108.016)"/>
      <line id="Line_35" data-name="Line 35" class="cls-25" x1="0.902" transform="translate(106.339 108.016)"/>
      <line id="Line_36" data-name="Line 36" class="cls-25" x1="0.451" transform="translate(107.987 108.883)"/>
      <rect id="Rectangle_439" data-name="Rectangle 439" class="cls-26" width="2.096" height="20.758" transform="translate(99.229 87.258)"/>
      <rect id="Rectangle_440" data-name="Rectangle 440" class="cls-27" width="2.096" height="1.59" transform="translate(99.229 85.667)"/>
      <line id="Line_37" data-name="Line 37" class="cls-28" y1="3.581" transform="translate(100.189 90.349)"/>
      <line id="Line_38" data-name="Line 38" class="cls-28" y1="0.451" transform="translate(100.189 89.229)"/>
      <path id="Path_1315" data-name="Path 1315" class="cls-29" d="M137.84,125.36h0a3.312,3.312,0,0,0-2.739-3.123c-3.062-.544-3.91-1.962-8.346-1.962-5.485,0-5.485,2.17-10.966,2.17s-5.482-2.17-10.963-2.17-5.485,2.17-10.966,2.17-5.482-2.17-10.963-2.17-5.485,2.17-10.966,2.17-5.482-2.17-10.963-2.17-5.482,2.17-10.966,2.17-5.482-2.17-10.963-2.17-5.482,2.17-10.966,2.17a13.4,13.4,0,0,1-5.8-1.213,3.8,3.8,0,0,0-5.165,3.539v.784h.019l.016.2a3.69,3.69,0,0,0,4.669,3.232,17.863,17.863,0,0,1,6.477-1.181c5.482,0,5.626,1.706,11.107,1.706S44.73,127.8,50.211,127.8s5.629,1.706,11.11,1.706,5.338-1.706,10.819-1.706,5.629,1.706,11.11,1.706S88.589,127.8,94.07,127.8s5.629,1.706,11.11,1.706S110.518,127.8,116,127.8s5.629,1.706,11.11,1.706c4.586,0,5.235-1.19,8.531-1.581a2.506,2.506,0,0,0,2.211-2.56Z"/>
      <rect id="Rectangle_441" data-name="Rectangle 441" class="cls-30" width="31.389" height="6.038" transform="translate(25.754 101.904)"/>
      <rect id="Rectangle_442" data-name="Rectangle 442" class="cls-31" width="12.73" height="6.038" transform="translate(42.099 95.866)"/>
      <rect id="Rectangle_443" data-name="Rectangle 443" class="cls-31" width="2.352" height="2.243" transform="translate(43.546 97.635)"/>
      <rect id="Rectangle_444" data-name="Rectangle 444" class="cls-31" width="2.352" height="2.243" transform="translate(47.29 97.635)"/>
      <rect id="Rectangle_445" data-name="Rectangle 445" class="cls-31" width="2.352" height="2.243" transform="translate(51.03 97.635)"/>
      <rect id="Rectangle_446" data-name="Rectangle 446" class="cls-31" width="15.984" height="1.59" transform="translate(40.362 94.275)"/>
      <path id="Path_1316" data-name="Path 1316" class="cls-23" d="M48.019,91.648A1.616,1.616,0,0,0,46.4,93.267v1.008h3.235V93.267a1.616,1.616,0,0,0-1.619-1.619Z"/>
      <rect id="Rectangle_447" data-name="Rectangle 447" class="cls-31" width="1.05" height="9.04" transform="translate(43.219 85.232)"/>
      <rect id="Rectangle_448" data-name="Rectangle 448" class="cls-23" width="31.389" height="1.302" transform="translate(25.754 101.904)"/>
      <path id="Path_1317" data-name="Path 1317" class="cls-25" d="M121,99.84a2.392,2.392,0,0,1,.042-.374l-1.8-1.84a4.429,4.429,0,0,0-.07,4.355l1.853-1.811a2.186,2.186,0,0,1-.026-.33Z"/>
      <path id="Path_1318" data-name="Path 1318" class="cls-25" d="M125.174,99.9a2.063,2.063,0,0,1-.038.374l1.8,1.843a4.435,4.435,0,0,0,.032-4.429l-1.83,1.789A1.853,1.853,0,0,1,125.174,99.9Z"/>
      <path id="Path_1319" data-name="Path 1319" class="cls-25" d="M123.117,97.8a1.821,1.821,0,0,1,.32.032l1.856-1.811a4.432,4.432,0,0,0-4.358-.032l1.8,1.843a1.843,1.843,0,0,1,.384-.032Z"/>
      <path id="Path_1320" data-name="Path 1320" class="cls-25" d="M123.066,101.965a2.306,2.306,0,0,1-.422-.048l-1.827,1.786a4.445,4.445,0,0,0,4.426.074l-1.8-1.843a2.437,2.437,0,0,1-.378.032Z"/>
      <path id="Path_1321" data-name="Path 1321" class="cls-32" d="M125.136,100.278a2.083,2.083,0,0,1-1.693,1.654l1.8,1.843a4.48,4.48,0,0,0,.96-.714,4.365,4.365,0,0,0,.736-.941Z"/>
      <path id="Path_1322" data-name="Path 1322" class="cls-32" d="M120.941,96a4.438,4.438,0,0,0-1.693,1.654l1.8,1.84a2.074,2.074,0,0,1,1.693-1.651Z"/>
      <path id="Path_1323" data-name="Path 1323" class="cls-32" d="M121.574,101.306a2.086,2.086,0,0,1-.544-1.123l-1.853,1.811a4.442,4.442,0,0,0,1.638,1.709l1.827-1.786a2.09,2.09,0,0,1-1.069-.611Z"/>
      <path id="Path_1324" data-name="Path 1324" class="cls-32" d="M126.246,96.742a4.461,4.461,0,0,0-.96-.726l-1.856,1.811a2.083,2.083,0,0,1,1.693,1.654l1.83-1.789a4.428,4.428,0,0,0-.707-.95Z"/>
      <circle id="Ellipse_219" data-name="Ellipse 219" class="cls-10" cx="5.443" cy="5.443" r="5.443" transform="translate(130.314 31.901)"/>
    </g>
  </g>
</svg>
