<svg xmlns="http://www.w3.org/2000/svg" height="186.72" width="782.147"><path d="M509.787 3.452c3.546-1.959 7.48-3.693 11.626-3.425 12.414.266 24.84.52 37.254.745 2.545-.092 4.84 1.081 7.105 2.081-1.24 1.146-2.625 2.16-4.399 1.852-12.466 0-24.948-.025-37.413-.025-5.213-.267-9.547 3.147-14.415 4.385-2.85-.718-.745-4.052.242-5.613M449.72 33.705c17.265-8 34.187-16.798 51.773-24.078-1.16 3.2-3.866 5.038-6.906 6.158-18.375 8.202-36.414 17.134-54.892 25.08 1.837-4.118 6.358-5.292 10.025-7.16M562.853 10.96c7.054-.707 14.175-.307 21.252-.307 3.547-.4 5.455 3.079 7.135 5.587-7.28.227-14.613.373-21.867-.28-2.32-1.107-6.614-1.855-6.52-5M522.4 26.732c6.132-1.785 12.333-7.052 18.893-4.227 8.534 2.8 17.174 5.254 25.667 8.148-1.453 3.64-3.188 7.174-5.265 10.494-8.39-2.815-16.882-5.32-25.15-8.455-2.85.64-5.705 1.215-8.573 1.747-1.959-2.492-3.852-5.052-5.572-7.707m69.64-3.492c3.533-.068 7.385-1.175 10.655.72 7.145 3.653 14.372 7.2 21.517 10.867-1.252 2.478-.932 7.238-4.025 7.893-7.548-2.867-14.334-7.44-21.84-10.388-8.827-.16-17.588 2.453-26.4 1.427 1.492-3.12 2.918-6.279 4.88-9.146 4.96-1.161 10.145-.828 15.213-1.373m-12.055 28.907c24.043-.547 48.082-1.028 72.12-1.642 8.082-1.012 15.188 3.774 22.2 7.014.12.627.347 1.88.467 2.507 33.788.013 67.59.093 101.375.147 2.04-.027 4.026.453 6 .973-3.214 3.76-7.094 6.84-10.815 10.053-39.292 34.106-78.599 68.2-117.893 102.306-2.812 2.415-5.479 5-8.519 7.134-.52-.252-1.588-.787-2.107-1.052 2.279-3.295 5.44-5.814 8.279-8.588 34.828-33.452 69.667-66.865 104.481-100.32-40.268.32-80.52.773-120.786 1.16-8.455-.12-16.934.56-25.374-.026-11.466-5.347-22.493-11.667-33.786-17.374.798-1.8 2.44-2.52 4.358-2.292M193.933 62.173c4.934-1.067 11.067.173 13.72 4.893 3.2 6.16-.346 14.133-6.546 16.787-6.147 3.053-15.84 2.533-18.76-4.667-2.814-7.84 3.786-16.013 11.586-17.013m-167.04 6.013c10.96-7.493 27.614-8.84 37.76.76-3.2 4.733-6.4 9.467-9.613 14.2-3.667-2.107-8.36-4.054-12.387-1.72-3.6 1.867-4.16 6.213-5.093 9.734 5.547.053 11.093.026 16.653.026-1.067 6.093-2.093 12.2-3.307 18.253-5.453 0-10.906 0-16.36.013-2.587 14.654-5.147 29.321-7.72 43.988H3.08c2.548-14.667 5.148-29.321 7.707-44H0a3981.515 3981.515 0 0 1 3.213-18.254h10.68c1.253-8.934 5.253-17.907 13-23m212.374 40.64c-8.107 3.214-12.747 13.987-8.48 21.813 2.773 5.014 9.506 5.973 14.453 3.908 8.613-3.054 12.573-14.64 7.973-22.428-2.92-4.532-9.28-5.186-13.946-3.293zM216.44 63.6h23.76c-1.853 10.466-3.547 20.973-5.533 31.427 10.666-8.801 28.6-8.974 38.066 1.666 7.054 8.08 7.347 19.732 5.28 29.732-2.2 11.214-10.053 21.307-20.893 25.307-10.8 4.227-24.987 4.773-33.267-4.667-.693 2.134-1.386 4.267-2.093 6.415-7.04-.068-14.093-.04-21.133-.04 5.266-29.947 10.546-59.894 15.813-89.84m152.32 11.2c8.013-1.16 16.093-1.814 24.133-2.734-1.066 6.12-2.133 12.253-3.213 18.373h14.267a9617.316 9617.316 0 0 1-3.227 18.16c-4.8.014-9.6.014-14.4.014-1.08 7.812-3.44 15.493-3.68 23.4 1.72 5.587 8.707 2.893 12.613 1.454.626 5.812 1.334 11.625 2.04 17.425-9.04 4.042-19.68 5.655-29.2 2.468-7.08-2.388-10.373-10.242-9.76-17.268.747-9.253 3.054-18.306 4.48-27.48H352.68c1.053-6.053 2.133-12.106 3.213-18.16 3.387-.013 6.774-.013 10.16-.013.947-5.213 1.88-10.413 2.707-15.64m-295.827 38.32c7.92.28 15.866.173 23.786.094-.8-2.267-1.4-5.027-3.893-6.04-6.88-3.428-16.093-.84-19.893 5.946zm-20.974-4.933c8.6-14.973 27.44-21.693 44-19.147 8.334 1.134 16.84 5.706 20.254 13.747 3.586 8.24 1.654 17.547-1.28 25.666-14.933.028-29.88-.12-44.813.08 1.346 2.587 2.907 5.32 5.84 6.36 8.106 3.455 17.306.72 24.6-3.44 3.08 4.321 6.173 8.627 9.253 12.96-12.333 9.575-29.253 12.975-44.267 8.601-7.853-2.213-14.866-8.08-17.173-16.08-2.693-9.52-1.253-20.147 3.586-28.747m95.614-11.599c7.694-9.801 23.547-10.881 32.28-1.907.107-.907.32-2.734.427-3.654 7.973-.013 15.96-.013 23.933 0-3.68 20.8-7.373 41.613-11.066 62.414h-23.88c3.493-19.293 6.68-38.654 10.4-57.908-3.76 5.734-8.04 11.12-12.067 16.68-3.053-2.026-6.44-4-10.267-3.612-6.12-.148-11.453 4.666-12.546 10.573-2.32 11.359-4.027 22.854-6.147 34.267h-23.747c3.733-21.135 7.453-42.28 11.2-63.427 7.107.026 14.214 0 21.32.026l.16 6.548" fill="#2d3993"/><path d="M313.867 108.666c-9 2.32-14.387 13.773-9.787 22.014 3.027 5.333 10.387 5.92 15.52 3.545 7.947-3.292 12.067-13.92 7.6-21.466-2.64-4.533-8.64-5.519-13.333-4.093zm-5.24-18.467c10.146-2.373 21.44-2.466 30.853 2.494 6.413 3.32 11.147 9.626 12.493 16.732 2.294 11.961-1.226 25.228-10.213 33.667-9.96 9.36-24.373 13.133-37.773 11.533-8.547-1.013-17.214-5.2-21.627-12.852-4.933-8.574-4.227-19.254-1.253-28.36 4.093-12.066 15.426-20.36 27.52-23.214m267.413 75.88c19.988-.88 39.973-2.467 59.959-2.932 3.574.478-.36 3.653-1.467 4.692-4.987 3.613-8.867 9.24-14.599 11.521-127.238 2.599-254.493 4.919-381.733 7.36-.027-.655-.053-1.974-.08-2.628 112.64-6 225.28-12 337.92-18.013" fill="#2d3993"/><path d="M521.347 10.613c3.573-1.706 7.625-1.04 11.373-.308-2.188 2.962-4.213 6.467-7.893 7.72-25.055 10.322-49.774 21.4-74.654 32.122-4.613 1.866-9 4.612-14.04 5.146.027-2.306.094-4.613.172-6.906C464.627 35.732 493 23.213 521.347 10.613m-71.468 52.733c6.653-3.347 17.773-1.373 18.641 7.333 1.785 12.654-16.72 19.934-24.907 11.067-4.893-6.227-.748-15.854 6.266-18.4m-35.746.187H437.6c-5.281 29.973-10.615 59.934-15.92 89.907-7.84.012-15.667.012-23.493 0 5.32-29.973 10.613-59.947 15.946-89.907m78.306 33.133c8.268-7.28 20.294-10.333 30.828-6.613 5.385 1.853 9.306 6.8 10.385 12.333 1.841 8.48-.44 17.066-1.825 25.427-1.494 8.519-3.014 17.039-4.454 25.574-7.934.118-15.853.038-23.786.053 1.933-11.148 3.933-22.293 5.893-33.426.467-3.228 1.172-7.028-1.055-9.788-2.73-3.08-7.532-2.613-10.945-1.04-4.36 1.906-6.907 6.414-7.68 10.96-2.028 11.08-3.921 22.186-5.907 33.28-7.84.014-15.666.014-23.493.026 3.705-21.147 7.453-42.292 11.187-63.426 7.013 0 14.026-.013 21.04 0-.067 2.214-.134 4.426-.188 6.64m77.628 9.694c-3.774.813-6.44 3.732-8.522 6.787 7.894.226 15.802.145 23.695.052-.815-7.227-9.427-8.653-15.173-6.839zm-19.56-9.281c10.546-7.653 24.493-10.306 37.173-7.426 7.32 1.68 14.373 6.306 17.24 13.494 3.385 8.158 1.427 17.252-1.36 25.265-15.028.2-30.053-.24-45.067.24 1.667 2.52 3.334 5.427 6.414 6.427 8.04 3.146 17 .48 24.173-3.64 3.119 4.306 6.213 8.626 9.281 12.973-12.428 9.615-29.468 13.013-44.548 8.522-7.48-2.202-14.174-7.709-16.653-15.24-4.493-14.508.787-31.802 13.347-40.615m78.653-7.013c12.787-3.04 27.32-2.04 38.159 6a1524.584 1524.584 0 0 1-12.479 14.133c-6.12-2.533-13.053-4.787-19.653-3.013-2.72.693-2.454 5.333.56 5.054 8.585 1.12 18.933 1.12 24.746 8.693 5.535 8.293 2.574 20.48-5.026 26.547-7.28 5.867-16.974 7.638-26.106 7.654-10.228-.107-20.681-2.349-29.241-8.175 3.6-5.812 7.253-11.586 10.893-17.372 6.88 4.76 15.227 7.573 23.652 6.838 2.135-.026 4.082-1.133 5-3.093-1.24-3.185-5.052-2.8-7.8-3.292-6.692-.588-13.918-2.026-18.705-7.133-4.933-5.241-4.773-13.508-1.987-19.747 3.214-7.16 10.654-11.268 17.987-13.094m-189.055.96c7.962-.013 15.908 0 23.855 0-3.667 20.8-7.373 41.6-11.053 62.414-7.96.012-15.922.012-23.867 0 3.693-20.801 7.36-41.614 11.065-62.414" fill="#f68814"/></svg>