<svg version="1.1" id="svg2" xmlns="http://www.w3.org/2000/svg" x="0" y="0" viewBox="467.6 130.4 30 7.2" xml:space="preserve"><style>.st0{fill:#fff}</style><g id="g10" transform="matrix(1.33333 0 0 -1.33333 0 186.72)"><g id="g12" transform="scale(.1)"><path id="path14" class="st0" d="M3653.7 421.6c1 .6 2.2 1.1 3.3 1 3.6-.1 7.1-.1 10.7-.2.7 0 1.4-.3 2-.6-.4-.3-.8-.6-1.3-.5h-10.8c-1.5.1-2.7-.9-4.1-1.3-.6.2 0 1.1.2 1.6"/><path id="path16" class="st0" d="M3636.5 412.9c5 2.3 9.8 4.8 14.9 6.9-.3-.9-1.1-1.4-2-1.8-5.3-2.4-10.5-4.9-15.8-7.2.5 1.2 1.8 1.5 2.9 2.1"/><path id="path18" class="st0" d="M3669 419.4c2 .2 4.1.1 6.1.1 1 .1 1.6-.9 2.1-1.6-2.1-.1-4.2-.1-6.3.1-.7.3-1.9.5-1.9 1.4"/><path id="path20" class="st0" d="M3657.4 414.9c1.8.5 3.5 2 5.4 1.2 2.5-.8 4.9-1.5 7.4-2.3-.4-1-.9-2.1-1.5-3-2.4.8-4.9 1.5-7.2 2.4-.8-.2-1.6-.3-2.5-.5-.6.7-1.1 1.4-1.6 2.2"/><path id="path22" class="st0" d="M3677.4 415.9c1 0 2.1.3 3.1-.2 2.1-1.1 4.1-2.1 6.2-3.1-.4-.7-.3-2.1-1.2-2.3-2.2.8-4.1 2.1-6.3 3-2.5 0-5.1-.7-7.6-.4.4.9.8 1.8 1.4 2.6 1.5.3 2.9.2 4.4.4"/><path id="path24" class="st0" d="M3673.9 407.6c6.9.2 13.8.3 20.7.5 2.3.3 4.4-1.1 6.4-2 0-.2.1-.5.1-.7h29.2c.6 0 1.2-.1 1.7-.3-.9-1.1-2-2-3.1-2.9l-33.9-29.4c-.8-.7-1.6-1.4-2.5-2.1-.1.1-.5.2-.6.3.7.9 1.6 1.7 2.4 2.5 10 9.6 20 19.2 30.1 28.9l-34.7-.3c-2.4 0-4.9-.2-7.3 0-3.3 1.5-6.5 3.4-9.7 5 .2.3.7.5 1.2.5"/><path id="path26" class="st0" d="M3562.9 404.7c1.4.3 3.2 0 3.9-1.4.9-1.8-.1-4.1-1.9-4.8-1.8-.9-4.6-.7-5.4 1.3-.8 2.2 1.1 4.6 3.4 4.9"/><path id="path28" class="st0" d="M3514.8 402.9c3.2 2.2 7.9 2.5 10.9-.2-.9-1.4-1.8-2.7-2.8-4.1-1.1.6-2.4 1.2-3.6.5-1-.5-1.2-1.8-1.5-2.8h4.8c-.3-1.8-.6-3.5-1-5.3h-4.7c-.7-4.2-1.5-8.4-2.2-12.7h-6.8c.7 4.2 1.5 8.4 2.2 12.7h-3.1c.3 1.8.6 3.5.9 5.3h3.1c.4 2.6 1.6 5.2 3.8 6.6"/><path id="path30" class="st0" d="M3575.9 391.3c-2.3-.9-3.7-4-2.4-6.3.8-1.4 2.7-1.7 4.2-1.1 2.5.9 3.6 4.2 2.3 6.5-.9 1.2-2.7 1.4-4.1.9zm-6.5 13h6.8c-.5-3-1-6-1.6-9 3.1 2.5 8.2 2.6 11-.5 2-2.3 2.1-5.7 1.5-8.6-.6-3.2-2.9-6.1-6-7.3-3.1-1.2-7.2-1.4-9.6 1.3l-.6-1.8h-6.1c1.5 8.6 3 17.3 4.6 25.9"/><path id="path32" class="st0" d="M3613.2 401c2.3.3 4.6.5 6.9.8-.3-1.8-.6-3.5-.9-5.3h4.1c-.3-1.7-.6-3.5-.9-5.2h-4.1c-.3-2.2-1-4.5-1.1-6.7.5-1.6 2.5-.8 3.6-.4.2-1.7.4-3.3.6-5-2.6-1.2-5.7-1.6-8.4-.7-2 .7-3 2.9-2.8 5 .2 2.7.9 5.3 1.3 7.9h-2.9c.3 1.7.6 3.5.9 5.2h2.9c.3 1.4.5 2.9.8 4.4"/><path id="path34" class="st0" d="M3528.1 390c2.3-.1 4.6 0 6.8 0-.2.7-.4 1.4-1.1 1.7-2 1-4.6.3-5.7-1.7zm-6.1 1.4c2.5 4.3 7.9 6.2 12.7 5.5 2.4-.3 4.8-1.6 5.8-4s.5-5-.4-7.4h-12.9c.4-.7.8-1.5 1.7-1.8 2.3-1 5-.2 7.1 1 .9-1.2 1.8-2.5 2.7-3.7-3.5-2.8-8.4-3.7-12.7-2.5-2.3.6-4.3 2.3-4.9 4.6-.9 2.8-.5 5.9.9 8.3"/><path id="path36" class="st0" d="M3549.5 394.8c2.2 2.8 6.8 3.1 9.3.5 0 .3.1.8.1 1.1h6.9c-1.1-6-2.1-12-3.2-18h-6.9c1 5.6 1.9 11.1 3 16.7-1.1-1.6-2.3-3.2-3.5-4.8-.9.6-1.9 1.2-3 1-1.8 0-3.3-1.3-3.6-3-.7-3.3-1.2-6.6-1.8-9.9h-6.8c1.1 6.1 2.1 12.2 3.2 18.2h6.1c.2-.6.2-1.2.2-1.8"/><path id="path38" class="st0" d="M3597.4 391.3c-2.6-.7-4.1-4-2.8-6.3.9-1.5 3-1.7 4.5-1 2.3.9 3.5 4 2.2 6.2-.8 1.2-2.6 1.5-3.9 1.1zm-1.5 5.3c2.9.7 6.2.7 8.9-.7 1.8-1 3.2-2.8 3.6-4.8.7-3.4-.4-7.3-2.9-9.7-2.9-2.7-7-3.8-10.9-3.3-2.5.3-5 1.5-6.2 3.7-1.4 2.5-1.2 5.5-.4 8.2 1.1 3.4 4.4 5.8 7.9 6.6"/><path id="path40" class="st0" d="M3672.8 374.8c5.8.3 11.5.7 17.2.8 1-.1-.1-1.1-.4-1.3-1.4-1-2.6-2.7-4.2-3.3l-109.8-2.1v.8c32.4 1.6 64.8 3.4 97.2 5.1"/><path id="path42" class="st0" d="M3657.1 419.5c1 .5 2.2.3 3.3.1-.6-.9-1.2-1.9-2.3-2.2-7.2-3-14.3-6.2-21.5-9.2-1.3-.5-2.6-1.3-4-1.5v2c8.1 3.6 16.3 7.2 24.5 10.8"/><path id="path44" class="st0" d="M3636.5 404.3c1.9 1 5.1.4 5.4-2.1.5-3.6-4.8-5.7-7.2-3.2-1.4 1.8-.2 4.6 1.8 5.3"/><path id="path46" class="st0" d="M3626.2 404.3h6.8c-1.5-8.6-3.1-17.2-4.6-25.9h-6.8c1.6 8.6 3.1 17.3 4.6 25.9"/><path id="path48" class="st0" d="M3648.8 394.8c2.4 2.1 5.8 3 8.9 1.9 1.5-.5 2.7-2 3-3.5.5-2.4-.1-4.9-.5-7.3-.4-2.5-.9-4.9-1.3-7.4h-6.8c.6 3.2 1.1 6.4 1.7 9.6.1.9.3 2-.3 2.8-.8.9-2.2.8-3.1.3-1.3-.5-2-1.8-2.2-3.2-.6-3.2-1.1-6.4-1.7-9.6h-6.8c1.1 6.1 2.1 12.2 3.2 18.2h6.1c-.2-.6-.2-1.2-.2-1.8"/><path id="path50" class="st0" d="M3671.1 392c-1.1-.2-1.9-1.1-2.5-2 2.3-.1 4.5 0 6.8 0-.2 2.1-2.7 2.5-4.3 2zm-5.6 2.6c3 2.2 7 3 10.7 2.1 2.1-.5 4.1-1.8 5-3.9 1-2.3.4-5-.4-7.3-4.3-.1-8.6.1-13-.1.5-.7 1-1.6 1.8-1.8 2.3-.9 4.9-.1 7 1 .9-1.2 1.8-2.5 2.7-3.7-3.6-2.8-8.5-3.7-12.8-2.5-2.2.6-4.1 2.2-4.8 4.4-1.4 4.3.1 9.3 3.8 11.8"/><path id="path52" class="st0" d="M3688.1 396.7c3.7.9 7.9.6 11-1.7-1.2-1.4-2.4-2.7-3.6-4.1-1.8.7-3.8 1.4-5.7.9-.8-.2-.7-1.5.2-1.5 2.5-.3 5.4-.3 7.1-2.5 1.6-2.4.7-5.9-1.4-7.6-2.1-1.7-4.9-2.2-7.5-2.2-2.9 0-5.9.7-8.4 2.4 1 1.7 2.1 3.3 3.1 5 2-1.4 4.4-2.2 6.8-2 .6 0 1.2.3 1.4.9-.4.9-1.5.8-2.2.9-1.9.2-4 .6-5.4 2.1-1.4 1.5-1.4 3.9-.6 5.7.9 1.9 3.1 3.1 5.2 3.7"/><path id="path54" class="st0" d="M3633.7 396.4h6.9c-1.1-6-2.1-12-3.2-18h-6.9c1.1 6 2.1 12 3.2 18"/></g></g></svg>