<svg xmlns="http://www.w3.org/2000/svg" width="127.13" height="30.349" viewBox="0 0 127.13 30.349">
    <defs>
        <style>
            .cls-1{fill:#fff}.cls-2{fill:#f68814}
        </style>
    </defs>
    <g id="Logo-home">
        <g id="Group_248" data-name="Group 248">
            <path id="path14" d="M508.382.561A3.522 3.522 0 0 1 510.271 0q3.027.065 6.055.121a2.67 2.67 0 0 1 1.155.338.845.845 0 0 1-.715.3h-6.081c-.847-.043-1.552.512-2.343.713-.463-.117-.121-.659.039-.912" class="cls-1" transform="translate(-425.521)"/>
            <path id="path16" d="M441.324 13.541c2.806-1.3 5.557-2.73 8.415-3.914a1.74 1.74 0 0 1-1.122 1c-2.987 1.333-5.919 2.785-8.922 4.076.3-.669 1.033-.86 1.629-1.164" class="cls-1" transform="translate(-368.227 -8.062)"/>
            <path id="path18" d="M562.852 10.608c1.146-.115 2.3-.05 3.454-.05.577-.065.887.5 1.16.908a29.464 29.464 0 0 1-3.554-.046c-.377-.18-1.075-.3-1.06-.813" class="cls-1" transform="translate(-471.366 -8.827)"/>
            <path id="path20" d="M522.4 22.508c1-.29 2-1.146 3.071-.687 1.387.455 2.791.854 4.172 1.324a10.671 10.671 0 0 1-.856 1.706c-1.364-.458-2.744-.865-4.088-1.374-.463.1-.927.2-1.393.284a17.106 17.106 0 0 1-.906-1.253" class="cls-1" transform="translate(-437.489 -18.163)"/>
            <path id="path22" d="M575.213 22.919a3.187 3.187 0 0 1 1.732.117c1.161.594 2.336 1.17 3.5 1.766-.2.4-.151 1.176-.654 1.283-1.227-.466-2.33-1.209-3.55-1.688-1.435-.026-2.859.4-4.291.232a10.922 10.922 0 0 1 .793-1.487 20.3 20.3 0 0 1 2.473-.223" class="cls-1" transform="translate(-478.983 -19.142)"/>
            <path id="path24" d="M576.335 50.656c3.908-.089 7.815-.167 11.722-.267 1.314-.164 2.469.613 3.608 1.14.02.1.056.306.076.407q8.238 0 16.477.024a3.653 3.653 0 0 1 .975.158 15.852 15.852 0 0 1-1.758 1.634q-9.58 8.315-19.162 16.629c-.457.393-.891.813-1.385 1.16a21.795 21.795 0 0 1-.342-.171 10.105 10.105 0 0 1 1.346-1.4q8.491-8.156 16.982-16.306-9.818.078-19.632.189c-1.374-.02-2.752.091-4.124 0-1.864-.869-3.656-1.9-5.492-2.824a.638.638 0 0 1 .708-.373" class="cls-1" transform="translate(-482.065 -42.18)"/>
            <path id="path26" d="M183.676 61.874a2.038 2.038 0 0 1 2.23.8 2.059 2.059 0 0 1-1.064 2.729c-1 .5-2.575.412-3.049-.759a2.2 2.2 0 0 1 1.883-2.765" class="cls-1" transform="translate(-152.155 -51.769)"/>
            <path id="path28" d="M4.371 63.135c1.781-1.218 4.488-1.437 6.137.124l-1.562 2.308a2.04 2.04 0 0 0-2.013-.28c-.585.3-.676 1.01-.828 1.582.9.009 1.8 0 2.707 0-.173.99-.34 1.983-.538 2.967H5.615q-.631 3.573-1.255 7.15H.5c.414-2.384.837-4.766 1.253-7.152H0q.257-1.485.522-2.967h1.736a5.243 5.243 0 0 1 2.113-3.738" class="cls-1" transform="translate(0 -52.052)"/>
            <path id="path30" d="M206.908 70.951a2.65 2.65 0 0 0-1.378 3.545 1.866 1.866 0 0 0 2.349.635 2.615 2.615 0 0 0 1.3-3.645 1.875 1.875 0 0 0-2.267-.535zM203.2 63.6h3.862c-.3 1.7-.577 3.409-.9 5.108a4.632 4.632 0 0 1 6.187.271 5.587 5.587 0 0 1 .858 4.833 5.527 5.527 0 0 1-3.4 4.113c-1.755.687-4.061.776-5.407-.759-.113.347-.225.694-.34 1.043-1.144-.011-2.291-.006-3.435-.006l2.57-14.6" class="cls-1" transform="translate(-168.017 -53.262)"/>
            <path id="path32" d="M355.294 72.51c1.3-.189 2.616-.295 3.923-.444l-.522 2.986h2.319q-.26 1.476-.525 2.952h-2.341a36.017 36.017 0 0 0-.6 3.8c.28.908 1.415.47 2.05.236.1.945.217 1.89.332 2.832a6.644 6.644 0 0 1-4.746.4 2.647 2.647 0 0 1-1.586-2.807c.121-1.5.5-2.975.728-4.466h-1.646q.257-1.476.522-2.952h1.651c.154-.847.306-1.693.44-2.542" class="cls-1" transform="translate(-295.356 -60.352)"/>
            <path id="path34" d="M51.241 92.511c1.287.046 2.579.028 3.866.015-.13-.368-.227-.817-.633-.982a2.515 2.515 0 0 0-3.233.967zm-3.409-.8a7.07 7.07 0 0 1 7.151-3.111 4.088 4.088 0 0 1 3.292 2.234A5.688 5.688 0 0 1 58.067 95c-2.427 0-4.857-.019-7.284.013a1.891 1.891 0 0 0 .949 1.034 4.6 4.6 0 0 0 4-.559c.5.7 1 1.4 1.5 2.107a8.189 8.189 0 0 1-7.2 1.4 3.985 3.985 0 0 1-2.791-2.613 6.224 6.224 0 0 1 .583-4.673" class="cls-1" transform="translate(-39.386 -74.125)"/>
            <path id="path36" d="M120.2 89.855a3.586 3.586 0 0 1 5.247-.31l.069-.594h3.89l-1.8 10.145h-3.881c.568-3.136 1.086-6.283 1.69-9.412-.611.932-1.307 1.808-1.961 2.711a2.61 2.61 0 0 0-1.669-.587 2.093 2.093 0 0 0-2.039 1.719c-.377 1.846-.655 3.715-1 5.57h-3.86l1.82-10.309h3.465l.026 1.064" class="cls-1" transform="translate(-96.218 -74.156)"/>
            <path id="path38" d="M284.47 91.879a2.572 2.572 0 0 0-1.591 3.578 1.963 1.963 0 0 0 2.523.576 2.541 2.541 0 0 0 1.235-3.489 1.865 1.865 0 0 0-2.167-.665zm-.852-3a7.27 7.27 0 0 1 5.015.405A3.928 3.928 0 0 1 290.664 92 6.035 6.035 0 0 1 289 97.475a7.707 7.707 0 0 1-6.14 1.875 4.624 4.624 0 0 1-3.515-2.089 5.753 5.753 0 0 1-.2-4.61 6.128 6.128 0 0 1 4.473-3.773" class="cls-1" transform="translate(-233.454 -74.216)"/>
            <path id="path40" d="M293.045 163.624c3.249-.143 6.5-.4 9.746-.477.581.078-.059.594-.238.763-.811.587-1.441 1.5-2.373 1.873q-31.022.634-62.047 1.2c0-.106-.009-.321-.013-.427q27.463-1.463 54.925-2.928" class="cls-1" transform="translate(-199.416 -136.629)"/>
        </g>
        <path id="path42" d="M449.984 9.714a2.946 2.946 0 0 1 1.849-.05c-.356.481-.685 1.051-1.283 1.255-4.072 1.678-8.09 3.478-12.134 5.221a8.712 8.712 0 0 1-2.282.836c0-.375.015-.75.028-1.122 4.6-2.057 9.215-4.092 13.823-6.14" class="cls-2" transform="translate(-365.244 -7.99)"/>
        <path id="path44" d="M442.848 62.058c1.081-.544 2.889-.223 3.03 1.192.29 2.057-2.718 3.24-4.048 1.8a2.023 2.023 0 0 1 1.018-2.991" class="cls-2" transform="translate(-369.725 -51.762)"/>
        <path id="path46" d="M400.779 63.533h3.814q-1.288 7.308-2.588 14.613h-3.818q1.3-7.308 2.592-14.613" class="cls-2" transform="translate(-333.466 -53.207)"/>
        <path id="path48" d="M465.608 89.8a5.138 5.138 0 0 1 5.011-1.075 2.659 2.659 0 0 1 1.688 2 11.012 11.012 0 0 1-.3 4.133c-.243 1.385-.49 2.77-.724 4.157-1.29.019-2.577.006-3.866.009.314-1.812.639-3.623.958-5.433a2.007 2.007 0 0 0-.169-1.591 1.537 1.537 0 0 0-1.779-.169 2.315 2.315 0 0 0-1.248 1.782c-.33 1.8-.637 3.606-.96 5.409H460.4q.9-5.156 1.818-10.309h3.42c-.011.36-.022.719-.031 1.079" class="cls-2" transform="translate(-385.567 -74.085)"/>
        <path id="path50" d="M541.185 91.419a2.376 2.376 0 0 0-1.385 1.1c1.283.037 2.568.024 3.851.008-.133-1.171-1.532-1.403-2.466-1.108zm-3.179-1.509a7.572 7.572 0 0 1 6.042-1.207 3.883 3.883 0 0 1 2.8 2.193 5.809 5.809 0 0 1-.219 4.104c-2.443.033-4.885-.039-7.325.039a2.217 2.217 0 0 0 1.042 1.044 4.649 4.649 0 0 0 3.929-.592q.76 1.05 1.508 2.109a8.2 8.2 0 0 1-7.241 1.385 4 4 0 0 1-2.707-2.477 6.056 6.056 0 0 1 2.169-6.6" class="cls-2" transform="translate(-448.526 -74.132)"/>
        <path id="path52" d="M604.84 88.741a7.53 7.53 0 0 1 6.2.975q-1.007 1.154-2.028 2.3a5.078 5.078 0 0 0-3.194-.49c-.442.113-.4.867.091.821 1.4.182 3.077.182 4.022 1.413a3.375 3.375 0 0 1-.817 4.315 6.723 6.723 0 0 1-4.243 1.244 8.566 8.566 0 0 1-4.753-1.329c.585-.945 1.179-1.883 1.771-2.824a5.928 5.928 0 0 0 3.844 1.111.889.889 0 0 0 .813-.5c-.2-.518-.821-.455-1.268-.535a4.579 4.579 0 0 1-3.04-1.159 2.98 2.98 0 0 1-.323-3.21 4.186 4.186 0 0 1 2.924-2.128" class="cls-2" transform="translate(-502.577 -74.102)"/>
        <path id="path54" d="M430.839 91.021h3.877q-.894 5.071-1.8 10.145h-3.879l1.8-10.145" class="cls-2" transform="translate(-359.304 -76.226)"/>
    </g>
</svg>
