<svg xmlns="http://www.w3.org/2000/svg" viewBox="0 0 48 48"><defs><style>.cls-2{fill:#fff}</style></defs><g id="biletine-ulas-icon" transform="translate(-1137 -303)"><circle id="Ellipse_148" cx="24" cy="24" r="24" data-name="Ellipse 148" transform="translate(1137 303)" fill="#f7931d"/><g id="park-tickets-couple" transform="translate(1149.033 316.239)"><path id="Path_607" d="M61.069 485.682a1.218 1.218 0 0 1-1.162.959.4.4 0 0 0-.152.754 1.217 1.217 0 0 1 .7 1.333l-.1.514a1.282 1.282 0 0 1-1.539.94c-.184-.044-.372-.078-.558-.115l-.822-.164-1.086-.218-1.294-.259-1.446-.291c-.514-.1-1.03-.206-1.544-.311l-1.583-.318-1.568-.316-1.5-.3-1.37-.274-1.187-.237-.949-.191-.653-.132-.3-.061h-.015a1.24 1.24 0 0 1-.088.781 1.254 1.254 0 0 1-1.375.7.369.369 0 0 0-.414.181l-.22.477a.37.37 0 0 0 .13.433c.024.02 17.661 8.15 17.69 8.157a.369.369 0 0 0 .414-.181l.22-.477a.37.37 0 0 0-.13-.433 1.252 1.252 0 0 1 1.02-2.207.369.369 0 0 0 .413-.181l.22-.477a.37.37 0 0 0-.13-.433 1.252 1.252 0 0 1 1.02-2.207.369.369 0 0 0 .414-.181l.22-.477a.37.37 0 0 0-.13-.433 1.252 1.252 0 0 1 1.02-2.207.369.369 0 0 0 .413-.181l.242-.529a.3.3 0 0 0-.147-.4l-2.633-1.22z" class="cls-2" data-name="Path 607" transform="translate(-39.618 -473.625)"/><path id="Path_608" d="M.436 11.888c.029.015 19.068 3.834 19.1 3.834a.37.37 0 0 0 .36-.272l.1-.514a.371.371 0 0 0-.228-.391 1.253 1.253 0 0 1 .48-2.386.37.37 0 0 0 .36-.272l.076-.377.027-.139a.371.371 0 0 0-.228-.391 1.253 1.253 0 0 1 .48-2.386.37.37 0 0 0 .36-.272l.1-.514a.371.371 0 0 0-.228-.391 1.253 1.253 0 0 1 .48-2.386.37.37 0 0 0 .36-.272l.115-.57a.3.3 0 0 0-.237-.355S2.785 0 2.765 0a.3.3 0 0 0-.3.242l-.115.57a.371.371 0 0 0 .228.391A1.253 1.253 0 0 1 2.1 3.588a.37.37 0 0 0-.36.272l-.1.514a.371.371 0 0 0 .228.391 1.253 1.253 0 0 1-.48 2.386.37.37 0 0 0-.36.272l-.1.514a.371.371 0 0 0 .228.391 1.253 1.253 0 0 1-.48 2.386.37.37 0 0 0-.36.272l-.1.514a.363.363 0 0 0 .22.388zm16.308-6.271a.611.611 0 1 1 1.2.24l-.807 4.018-.5 2.476a.612.612 0 0 1-.6.492.664.664 0 0 1-.12-.012.612.612 0 0 1-.48-.719L16 9.348zM5.714 3.4a.611.611 0 1 1 1.2.24l-.28 1.39-.316 1.57-.254 1.27-.453 2.266a.612.612 0 0 1-.6.492.664.664 0 0 1-.12-.012.291.291 0 0 1-.049-.012.61.61 0 0 1-.427-.704l.091-.458.237-1.184z" class="cls-2" data-name="Path 608"/></g></g></svg>