<svg xmlns="http://www.w3.org/2000/svg" width="30" height="30" viewBox="0 0 30 30">
    <defs>
        <style>
            .cls-1{fill:#2b3991}.cls-2{clip-path:url(#clip-path)}
        </style>
        <clipPath id="clip-path">
            <path id="Rectangle_574" d="M0 0h30v30H0z" class="cls-1" data-name="Rectangle 574" transform="translate(311 154)"/>
        </clipPath>
    </defs>
    <g id="campaign-icon" class="cls-2" transform="translate(-311 -154)">
        <g id="confetti_2_" data-name="confetti (2)" transform="translate(311.057 154)">
            <path id="Path_2647" d="M3.4 20L.147 27.543a1.736 1.736 0 0 0 .331 1.9A1.735 1.735 0 0 0 1.751 30a1.788 1.788 0 0 0 .6-.1L7.3 28.134zm0 0" class="cls-1" data-name="Path 2647"/>
            <path id="Path_2648" d="M6.49 12.838l-2.165 5.02 4.645 9.684 3.907-1.389zm0 0" class="cls-1" data-name="Path 2648"/>
            <path id="Path_2649" d="M28.274 5.871a.879.879 0 0 0-.745.994c.025.177.046.349.064.518a6.587 6.587 0 0 1-.764 4.479 3.978 3.978 0 0 1-3.626 1.7 3.684 3.684 0 0 1-.945-.233q.083-.144.154-.294a3.61 3.61 0 0 0 .319-1.773A3.769 3.769 0 0 0 22.38 9.9a2.9 2.9 0 0 0-1.916-1.636 1.98 1.98 0 0 0-2.255 1.359 3.092 3.092 0 0 0 .167 2.165 5.653 5.653 0 0 0 1.147 1.774 4.837 4.837 0 0 1-1.523.492.879.879 0 1 0 .274 1.736 6.26 6.26 0 0 0 2.734-1.1 5.551 5.551 0 0 0 2 .618 5.392 5.392 0 0 0 .576.031 5.718 5.718 0 0 0 4.694-2.494c1.041-1.542 1.362-3.58.983-6.23a.879.879 0 0 0-.987-.744zm-8.4 4.31a.364.364 0 0 1 .183-.205 1.215 1.215 0 0 1 .733.68 1.977 1.977 0 0 1 .03 1.629l-.029.058a3.871 3.871 0 0 1-.789-1.213 1.46 1.46 0 0 1-.126-.949zm0 0" class="cls-1" data-name="Path 2649"/>
            <path id="Path_2650" d="M23.57 18.672a1.093 1.093 0 1 0-1.093 1.105 1.1 1.1 0 0 0 1.093-1.105zm0 0" class="cls-1" data-name="Path 2650"/>
            <path id="Path_2651" d="M25.2 6.751a1.093 1.093 0 1 0-1.09 1.105 1.1 1.1 0 0 0 1.09-1.105zm0 0" class="cls-1" data-name="Path 2651"/>
            <path id="Path_2652" d="M27.4 5a2.5 2.5 0 1 0-2.482-2.5A2.495 2.495 0 0 0 27.4 5zm0 0" class="cls-1" data-name="Path 2652"/>
            <path id="Path_2653" d="M15.759 10.528a1.093 1.093 0 1 0-1.093 1.105 1.1 1.1 0 0 0 1.093-1.105zm0 0" class="cls-1" data-name="Path 2653"/>
            <path id="Path_2654" d="M21.455 2.361a1.093 1.093 0 1 0-1.093 1.105 1.1 1.1 0 0 0 1.093-1.105zm0 0" class="cls-1" data-name="Path 2654"/>
            <path id="Path_2655" d="M14.26 5.992h.411v.427a.879.879 0 1 0 1.758 0v-.427h.411a.879.879 0 0 0 0-1.758h-.411v-.427a.879.879 0 0 0-1.758 0v.427h-.411a.879.879 0 0 0 0 1.758zm0 0" class="cls-1" data-name="Path 2655"/>
            <path id="Path_2656" d="M8.8 8.114A.879.879 0 1 0 7.508 9.3l.345.376-.44 1.02 7.13 14.863 5.942-2.112.252.274a.879.879 0 0 0 1.3-1.188zm0 0" class="cls-1" data-name="Path 2656"/>
        </g>
    </g>
</svg>
