<svg xmlns="http://www.w3.org/2000/svg" width="30" height="30" viewBox="0 0 30 30">
    <defs>
        <style>
            .cls-1{fill:#2b3991}.cls-2{clip-path:url(#clip-path)}
        </style>
        <clipPath id="clip-path">
            <path id="Rectangle_574" d="M0 0h30v30H0z" class="cls-1" data-name="Rectangle 574" transform="translate(311 154)"/>
        </clipPath>
    </defs>
    <g id="contact-icon" class="cls-2" transform="translate(-311 -154)">
        <g id="money-bag-with-dollar-symbol" transform="translate(324.242 157.806)">
            <g id="Group_286" data-name="Group 286">
                <path id="Path_2685" d="M16.758 6.68c-.275.9-.475 1.811-.7 2.713-.633 2.5-1.254 5.01-1.881 7.518a1.378 1.378 0 0 1-1.488 1.137H-2.133a1.388 1.388 0 0 1-1.436-1.857c.762-3.064 1.535-6.129 2.3-9.188.076-.311.158-.621.246-.961.146.07.205.2.287.3q2.751 3.463 5.5 6.92a1.392 1.392 0 0 0 2.136.308q4.755-3.366 9.5-6.738a1.167 1.167 0 0 1 .346-.211.181.181 0 0 1 .012.059z" class="cls-1" data-name="Path 2685"/>
                <path id="Path_2686" d="M-13.242 16.523c.211-.709.3-1.447.463-2.162.117-.51-.006-.416.5-.416 2.314-.006 4.623 0 6.938-.006.27 0 .328.053.264.322-.158.7-.3 1.412-.422 2.121-.041.24-.123.316-.369.316-2.344-.012-4.682-.006-7.025-.006-.117 0-.234.012-.352.012z" class="cls-1" data-name="Path 2686"/>
                <path id="Path_2687" d="M1.184 4.342h13.892c.023.1-.064.111-.111.146q-4.271 3.032-8.543 6.059c-.105.07-.182.164-.3.006a7145.53 7145.53 0 0 1-4.938-6.211z" class="cls-1" data-name="Path 2687"/>
                <path id="Path_2688" d="M-7.295 9.82c.973 0 1.951.006 2.924-.006.193 0 .258.041.211.246a76.668 76.668 0 0 0-.457 2.291c-.035.188-.123.211-.275.211-.826-.006-1.658-.006-2.484-.006-1.1 0-2.2 0-3.3.006-.205 0-.293-.018-.234-.27.164-.732.3-1.471.439-2.209.041-.223.141-.27.352-.27.932.013 1.875.007 2.824.007z" class="cls-1" data-name="Path 2688"/>
                <path id="Path_2689" d="M-5.566 8.443c-.516 0-1.037-.006-1.553.006-.193.006-.229-.059-.187-.24.158-.762.311-1.529.457-2.291A.23.23 0 0 1-6.58 5.7c1.037.006 2.068.006 3.105 0 .176 0 .246.023.205.229-.164.779-.322 1.564-.469 2.35-.029.164-.111.176-.24.176-.533-.012-1.06-.012-1.587-.012z" class="cls-1" data-name="Path 2689"/>
            </g>
        </g>
    </g>
</svg>
