<svg xmlns="http://www.w3.org/2000/svg" viewBox="0 0 48 48"><defs><style>.cls-2{fill:#fff}</style></defs><g id="en-iyi-fiyat-icon" transform="translate(-1137 -303)"><circle id="Ellipse_148" cx="24" cy="24" r="24" data-name="Ellipse 148" transform="translate(1137 303)" fill="#f7931d"/><g id="like_1_" data-name="like (1)" transform="translate(1120.755 315.353)"><g id="Group_142" data-name="Group 142" transform="translate(45.137 3.976)"><g id="Group_141" data-name="Group 141"><path id="Path_587" d="M363.2 90.17h-1.33a.663.663 0 0 0 0 1.326h1.33a.663.663 0 0 0 0-1.326z" class="cls-2" data-name="Path 587" transform="translate(-361.207 -90.17)"/></g></g><g id="Group_144" data-name="Group 144" transform="translate(38.509)"><g id="Group_143" data-name="Group 143"><path id="Path_588" d="M212.826 1.692l-.663-1.326a.663.663 0 1 0-1.186.593l.663 1.326a.663.663 0 1 0 1.186-.593z" class="cls-2" data-name="Path 588" transform="translate(-210.907)"/></g></g><g id="Group_146" data-name="Group 146" transform="translate(43.149)"><g id="Group_145" data-name="Group 145"><path id="Path_589" d="M317.735.07a.664.664 0 0 0-.889.3l-.663 1.326a.663.663 0 1 0 1.186.593l.663-1.326a.663.663 0 0 0-.297-.893z" class="cls-2" data-name="Path 589" transform="translate(-316.112)"/></g></g><g id="Group_148" data-name="Group 148" transform="translate(35.858 3.976)"><g id="Group_147" data-name="Group 147"><path id="Path_590" d="M152.781 90.17h-1.326a.663.663 0 0 0 0 1.326h1.326a.663.663 0 1 0 0-1.326z" class="cls-2" data-name="Path 590" transform="translate(-150.793 -90.17)"/></g></g><g id="Group_150" data-name="Group 150" transform="translate(30.556 10.648)"><g id="Group_149" data-name="Group 149"><path id="Path_591" d="M33.87 241.468h-2.651a.663.663 0 0 0-.663.663v10.6a.663.663 0 0 0 .663.663h2.651a.663.663 0 0 0 .663-.663v-10.6a.663.663 0 0 0-.663-.663z" class="cls-2" data-name="Path 591" transform="translate(-30.556 -241.468)"/></g></g><g id="Group_152" data-name="Group 152" transform="translate(35.858 4.021)"><g id="Group_151" data-name="Group 151"><path id="Path_592" d="M165.362 99.557a2.085 2.085 0 0 0-2.112-1.757h-5.167a11.444 11.444 0 0 0 .664-3.919 2.76 2.76 0 0 0-2.767-2.709h-.547a.662.662 0 0 0-.663.663c0 1.533-.6 4.3-1.722 5.425a7.342 7.342 0 0 1-2.254 1.456v9.945a15.483 15.483 0 0 0 5.467 1.069h4.339a2.015 2.015 0 0 0 1.988-2.721 1.989 1.989 0 0 0 1.326-2.651 1.989 1.989 0 0 0 .958-3.244 1.984 1.984 0 0 0 .49-1.557z" class="cls-2" data-name="Path 592" transform="translate(-150.794 -91.172)"/></g></g></g></g></svg>