<svg xmlns="http://www.w3.org/2000/svg" viewBox="0 0 26.9 31"><path d="M26.9 14.4c.2-.5.1-1-.2-1.5-.3-.4-.8-.7-1.3-.7h-3.5V8c0-.9-.7-1.6-1.6-1.6h-3V1.6c0-.9-.7-1.6-1.6-1.6h-4.3c-.9 0-1.6.7-1.6 1.6v4.8h-3c-.9 0-1.7.7-1.7 1.6v4.2H1.6c-.5 0-1 .3-1.3.7-.3.4-.4 1-.2 1.5 0 0 4.5 12.1 4.5 12.2-.5.2-1 .3-1.5.3-.9 0-1.6.7-1.6 1.6 0 .9.7 1.6 1.6 1.6 1.9 0 3.7-.7 5.2-2 1.5 1.3 3.3 2 5.2 2 1.9 0 3.7-.7 5.2-2 1.5 1.3 3.3 2 5.2 2 .9 0 1.6-.7 1.6-1.6 0-.9-.7-1.6-1.6-1.6-.5 0-1-.1-1.5-.3 0-.1 4.5-12.2 4.5-12.2zm-8.3-4.8v2.6h-3.5V9.6h3.5zm-10.3 0h3.5v2.6H8.3V9.6zm0 0" fill="#2a3b90"/></svg>