<svg xmlns="http://www.w3.org/2000/svg" viewBox="0 0 48 48"><g transform="translate(-1137 -303)"><circle cx="24" cy="24" r="24" data-name="Ellipse 148" transform="translate(1137 303)" fill="#f7931d"/><g data-name="ferry (1)"><g data-name="Group 155"><path d="M1171.25 326.842a1.2 1.2 0 0 0-1.133-1.621h-2.67v-3.19a1.207 1.207 0 0 0-1.206-1.206h-2.266v-3.619a1.207 1.207 0 0 0-1.209-1.206h-3.213a1.207 1.207 0 0 0-1.206 1.206v3.619h-2.265a1.207 1.207 0 0 0-1.206 1.206v3.189h-2.67a1.206 1.206 0 0 0-1.133 1.621s3.363 9.107 3.424 9.191a3.108 3.108 0 0 1-1.113.212 1.206 1.206 0 1 0 0 2.412 5.865 5.865 0 0 0 3.889-1.54 5.864 5.864 0 0 0 3.889 1.54 5.863 5.863 0 0 0 3.888-1.54 5.863 5.863 0 0 0 3.889 1.54 1.206 1.206 0 1 0 0-2.412 3.105 3.105 0 0 1-1.113-.212c.059-.083 3.424-9.19 3.424-9.19zm-6.216-3.605v1.983h-2.668v-1.983zm-7.746 0h2.668v1.983h-2.667z" data-name="Path 606" fill="#fff"/></g></g></g></svg>