<svg xmlns="http://www.w3.org/2000/svg" width="55" height="55" viewBox="0 0 55 55">
  <g id="ferry-icon" transform="translate(-27 -128)">
    <circle id="Ellipse_279" data-name="Ellipse 279" cx="27.5" cy="27.5" r="27.5" transform="translate(27 128)" fill="#fff"/>
    <g id="ferry-icon-2" data-name="ferry-icon" transform="translate(41.71 143.717)">
      <g id="Group_250" data-name="Group 250" transform="translate(1.934)">
        <path id="Path_2616" data-name="Path 2616" d="M23.269,11.423a1.27,1.27,0,0,0-1.193-1.708H19.262V6.354a1.271,1.271,0,0,0-1.271-1.271H15.6V1.271A1.271,1.271,0,0,0,14.334,0H10.946A1.271,1.271,0,0,0,9.675,1.271V5.083H7.288A1.271,1.271,0,0,0,6.018,6.354V9.715H3.2a1.27,1.27,0,0,0-1.193,1.708s3.544,9.6,3.607,9.683a3.274,3.274,0,0,1-1.173.223,1.271,1.271,0,0,0,0,2.542,6.18,6.18,0,0,0,4.1-1.623,6.178,6.178,0,0,0,4.1,1.623,6.178,6.178,0,0,0,4.1-1.623,6.177,6.177,0,0,0,4.1,1.623,1.271,1.271,0,1,0,0-2.542,3.271,3.271,0,0,1-1.173-.223C19.724,21.018,23.269,11.423,23.269,11.423Zm-6.548-3.8v2.09H13.91V7.625Zm-8.161,0h2.81v2.09H8.56V7.625Z" transform="translate(-1.934)" fill="#2b3991"/>
      </g>
    </g>
  </g>
</svg>
