<svg xmlns="http://www.w3.org/2000/svg" xmlns:xlink="http://www.w3.org/1999/xlink" viewBox="0 0 160 160">
    <defs>
        <style>
            .cls-1{fill:#fff}.cls-2{clip-path:url(#clip-path)}.cls-3,.cls-5{fill:#2b3991}.cls-10,.cls-14,.cls-3{opacity:.1}.cls-4{fill:#3a3768}.cls-6{fill:#e6e8ec}.cls-7{fill:url(#linear-gradient)}.cls-8{fill:url(#linear-gradient-2)}.cls-9{fill:#ffbdc6}.cls-11{fill:#474463}.cls-12{fill:#f2f1e0}.cls-13{fill:#f7931d}
        </style>
        <clipPath id="clip-path">
            <path id="Rectangle_2" d="M0 0h160v160H0z" class="cls-1" data-name="Rectangle 2" transform="translate(445 747)"/>
        </clipPath>
        <linearGradient id="linear-gradient" x1="176.854" x2="176.854" y1="-415.883" y2="-414.862" gradientUnits="objectBoundingBox">
            <stop offset="0" stop-color="gray" stop-opacity=".251"/>
            <stop offset=".54" stop-color="gray" stop-opacity=".122"/>
            <stop offset="1" stop-color="gray" stop-opacity=".102"/>
        </linearGradient>
        <linearGradient id="linear-gradient-2" x1="1.145" x2="1.145" y1=".035" y2="1.035" xlink:href="#linear-gradient"/>
    </defs>
    <g id="img-online-iptal" class="cls-2" transform="translate(-445 -747)">
        <g id="Homepage-Icons-03" transform="translate(445 751.001)">
            <path id="Path_156" d="M92.96 31.12c-10.256-.358-20.026-3.667-29.354-7.29s-18.56-7.638-28.579-9.558c-6.442-1.235-13.8-1.408-18.992 2.048-5 3.325-6.608 9.053-7.475 14.374-.64 4-1.037 8.218.752 11.965 1.242 2.6 3.446 4.8 4.97 7.283 5.306 8.672 1.555 19.366-4.192 27.84-2.694 3.974-5.824 7.766-7.9 11.99s-3.048 9.07-1.23 13.383 6.1 7.488 10.762 9.744c9.462 4.589 20.6 5.9 31.478 6.646 24.064 1.645 48.253.931 72.381.218 8.928-.262 17.9-.531 26.678-1.92 4.88-.768 9.92-1.984 13.456-4.922a11.27 11.27 0 0 0 2.6-14.72c-5.053-7.843-19.021-9.792-22.557-18.208-1.942-4.637.054-9.8 2.88-14.08 6.061-9.219 16.218-17.306 16.752-27.84.368-7.235-4.515-14.483-12.067-17.92-7.914-3.59-18.88-3.139-24.723 2.8-6.018 6.125-16.581 8.481-25.64 8.167z" class="cls-3" data-name="Path 156"/>
            <ellipse id="Ellipse_70" cx="48.176" cy="6.518" class="cls-3" data-name="Ellipse 70" rx="48.176" ry="6.518" transform="translate(28.451 130.723)"/>
            <rect id="Rectangle_105" width="1.405" height="11.571" class="cls-4" data-name="Rectangle 105" rx=".362" transform="translate(101.875 59.395)"/>
            <rect id="Rectangle_106" width=".787" height="3.811" class="cls-4" data-name="Rectangle 106" rx=".362" transform="translate(55.213 50.33)"/>
            <rect id="Rectangle_107" width=".886" height="6.63" class="cls-4" data-name="Rectangle 107" rx=".362" transform="translate(55.184 57.306)"/>
            <rect id="Rectangle_108" width=".845" height="6.688" class="cls-4" data-name="Rectangle 108" rx=".362" transform="translate(55.2 66.259)"/>
            <rect id="Rectangle_109" width="46.976" height="95.472" class="cls-4" data-name="Rectangle 109" rx="6.179" transform="translate(55.658 37.741)"/>
            <path id="Path_157" d="M96 40.221h-5.382v.64a3.069 3.069 0 0 1-3.069 3.072H70.4a3.075 3.075 0 0 1-3.075-3.069v-.64h-5.034a3.731 3.731 0 0 0-3.731 3.728v83.04a3.731 3.731 0 0 0 3.731 3.731H96a3.731 3.731 0 0 0 3.731-3.731V43.958A3.731 3.731 0 0 0 96 40.221z" class="cls-5" data-name="Path 157"/>
            <rect id="Rectangle_110" width="6.56" height="1.331" class="cls-6" data-name="Rectangle 110" rx=".614" transform="translate(74.614 40.592)"/>
            <circle id="Ellipse_71" cx=".755" cy=".755" r=".755" class="cls-6" data-name="Ellipse 71" transform="translate(82.166 40.502)"/>
            <path id="Path_158" d="M118.9 33.552s-13.347-.806-11.773 8.547a2.264 2.264 0 0 0 1.184 2.4s.026-.691 1.37-.454a6.288 6.288 0 0 0 1.45.07 3.027 3.027 0 0 0 1.773-.726s3.75-1.549 5.21-7.68c0 0 1.078-1.338 1.037-1.68l-2.24.96a4.019 4.019 0 0 1 .16 2.976s-.074-2.915-.506-2.854c-.09 0-1.171.563-1.171.563s1.325 2.829.32 4.886c0 0 .378-3.485-.739-4.682l-1.59.922s1.546 2.925.5 5.309c0 0 .269-3.658-.832-5.082l-1.437 1.12s1.456 2.88.57 4.858c0 0-.118-4.256-.88-4.579a8.9 8.9 0 0 0-1.446 1.562s1 2.093.374 3.2c0 0-.378-2.838-.688-2.854a9.46 9.46 0 0 0-1.382 3.171 6.829 6.829 0 0 1 1.078-3.347 3.776 3.776 0 0 0-1.92.992s.2-1.328 2.24-1.446a8.531 8.531 0 0 1 1.312-1.51 8.213 8.213 0 0 0-3.245.374s1.078-1.254 3.613-.685l1.421-1.158a11.777 11.777 0 0 0-3.789.038s1.3-1.11 4.16-.3l1.546-.922a14.2 14.2 0 0 0-3.619-.32s1.427-.771 4.07.064l1.11-.5s-1.661-.32-2.147-.378-.512-.186-.512-.186a5.76 5.76 0 0 1 3.12.346 14.11 14.11 0 0 0 2.298-1.015z" class="cls-5" data-name="Path 158"/>
            <path id="Path_159" d="M105.21 29.392s-6.01-.362-5.318 3.862a1.034 1.034 0 0 0 .534 1.088s0-.32.621-.208a2.784 2.784 0 0 0 .64.032 1.373 1.373 0 0 0 .8-.32s1.693-.7 2.352-3.472c0 0 .49-.6.47-.758l-.992.426a1.834 1.834 0 0 1 .074 1.344s-.035-1.318-.227-1.28c-.042 0-.531.256-.531.256a3.009 3.009 0 0 1 .147 2.208s.173-1.574-.32-2.115l-.742.416a3.161 3.161 0 0 1 .224 2.4 4.511 4.511 0 0 0-.374-2.3l-.64.509a3.093 3.093 0 0 1 .256 2.2s-.051-1.92-.4-2.07a3.888 3.888 0 0 0-.64.707s.448.96.17 1.443c0 0-.17-1.28-.32-1.28a4.262 4.262 0 0 0-.624 1.427 3.091 3.091 0 0 1 .486-1.51 1.683 1.683 0 0 0-.864.448s.086-.6 1-.64a4.381 4.381 0 0 1 .592-.685 3.7 3.7 0 0 0-1.466.17 1.661 1.661 0 0 1 1.632-.32l.64-.522a5.836 5.836 0 0 0-1.712 0 2.09 2.09 0 0 1 1.885-.134l.7-.419a6.31 6.31 0 0 0-1.635-.141 2.516 2.516 0 0 1 1.84.029l.5-.224s-.752-.147-.96-.17-.234-.083-.234-.083a2.592 2.592 0 0 1 1.411.157 6.046 6.046 0 0 0 1.025-.471z" class="cls-5" data-name="Path 159"/>
            <ellipse id="Ellipse_72" cx="4.269" cy=".72" class="cls-3" data-name="Ellipse 72" rx="4.269" ry=".72" transform="translate(132.691 135.309)"/>
            <ellipse id="Ellipse_73" cx="4.269" cy=".72" class="cls-3" data-name="Ellipse 73" rx="4.269" ry=".72" transform="translate(10.17 141.226)"/>
            <ellipse id="Ellipse_74" cx="4.269" cy=".72" class="cls-3" data-name="Ellipse 74" rx="4.269" ry=".72" transform="translate(26.678 145.094)"/>
            <ellipse id="Ellipse_75" cx="6.371" cy="1.078" class="cls-5" data-name="Ellipse 75" rx="6.371" ry="1.078" transform="translate(121.248 142.678)"/>
            <path id="Path_160" d="M130.24 141.994a1.85 1.85 0 0 0 .608-.918.816.816 0 0 0-.426-.931c-.39-.15-.806.122-1.12.394a1.489 1.489 0 0 1-1.094.525 1.645 1.645 0 0 0 .528-1.542.64.64 0 0 0-.144-.32c-.214-.234-.608-.134-.867.048a3.245 3.245 0 0 0-1.059 2.707 5.152 5.152 0 0 1-.016-1.11 1.142 1.142 0 0 0-.416-.986 1.251 1.251 0 0 0-.64-.15 1.322 1.322 0 0 0-1.037.294 1.018 1.018 0 0 0 .042 1.28 4.032 4.032 0 0 0 1.072.861 2.349 2.349 0 0 1 .765.73.528.528 0 0 1 .058.131h2.317a6.425 6.425 0 0 0 1.429-1.013z" class="cls-5" data-name="Path 160"/>
            <ellipse id="Ellipse_76" cx="6.371" cy="1.078" class="cls-5" data-name="Ellipse 76" rx="6.371" ry="1.078" transform="translate(13.936 132.576)"/>
            <path id="Path_161" d="M22.941 131.894a1.879 1.879 0 0 0 .608-.918.819.819 0 0 0-.426-.934 1.188 1.188 0 0 0-1.12.4 1.489 1.489 0 0 1-1.094.525 1.651 1.651 0 0 0 .531-1.555.64.64 0 0 0-.144-.32c-.214-.23-.608-.134-.867.051a3.242 3.242 0 0 0-1.059 2.7 5.12 5.12 0 0 1 0-1.107 1.155 1.155 0 0 0-.419-.989 1.216 1.216 0 0 0-.64-.147 1.309 1.309 0 0 0-1.037.294 1.018 1.018 0 0 0 .042 1.28 3.958 3.958 0 0 0 1.072.858 2.358 2.358 0 0 1 .765.733.48.48 0 0 1 .058.131H21.5a6.534 6.534 0 0 0 1.441-1.002z" class="cls-5" data-name="Path 161"/>
            <path id="Path_162" d="M44.73 83.942a.147.147 0 0 0 .173.022.64.64 0 0 1-.173-.022z" class="cls-7" data-name="Path 162"/>
            <path id="Path_163" d="M63.722 52.4c-.32-.1-.81-.256-1.386-.458a7.392 7.392 0 0 0 1.28-2.621l-.048.019c.016-.058.035-.115.048-.176-1.1.454-2.317-.32-3.091-1.3s-1.3-2.211-2.15-3.117a9.871 9.871 0 0 0-1.139-1 1.53 1.53 0 0 0-.829-.41c-.5-.016-.883.474-1.36.624a1.875 1.875 0 0 1-.96-.035 33.3 33.3 0 0 0-3.67-.96 4.256 4.256 0 0 0-1.99.227c-.64.246-.918.73-1.427 1.11a5.56 5.56 0 0 1-2.291.477 16.732 16.732 0 0 1-2.368.1 5.261 5.261 0 0 0-1.363.051 5.2 5.2 0 0 0-2.4 1.7 1.28 1.28 0 0 0-.4.64.755.755 0 0 0 0 .208 1.366 1.366 0 0 0 .1.554 7.238 7.238 0 0 0 .9 1.85 5.53 5.53 0 0 1 .79 1.306 2.5 2.5 0 0 1 .125.752 5.692 5.692 0 0 1-.086.81 10.406 10.406 0 0 1-.608 2.154 4.192 4.192 0 0 0-.358 1.136v.243c-.048 1.242 1.19 2.134 1.427 3.37a2.49 2.49 0 0 1 .035.32A2.115 2.115 0 0 1 39.4 61.8l.17.061a1.772 1.772 0 0 1-.17.1 4.1 4.1 0 0 0 .355.118 8.291 8.291 0 0 0-1.808 2.24C35.814 68.358 21.277 76.3 21.277 76.3l.214.125a3.08 3.08 0 0 0-.173.112c-1.261.851-4.214 3.328-1.542 6.454a34.176 34.176 0 0 1 3.542-4.755l.192-.176a.429.429 0 0 1 .058.342l9.562-5.44s3.4-2.413 4.346-2.96a7.875 7.875 0 0 1 2.154-.934l-.112.048a4.25 4.25 0 0 1 1.1-.157c1.693.026 3.52 1.28 4.131 6.259.81 6.666.432 7.869.173 8.032a.32.32 0 0 1-.1-.016l.026.019a.529.529 0 0 1-.1-.019.144.144 0 0 0 .138.035.134.134 0 0 0 .106 0h.131a1.814 1.814 0 0 1 0 .186s-.077.035 0 .042c-.019.374-.016.79 0 1.213-.842.045-1.68.1-2.419.144l.067-.355.032-.157c.64-.054 1.258-.246 1.328-.778.16-1.168-1.427-1.789-2.765-1.866s-9.4.467-9.4.467-1.206 1.584 2.627 2.077l.352.2a43.008 43.008 0 0 1 4.505 3.238l.134.109-.438.355c2.378.544 4.666 9.728 5.926 13.93s4.028 4.044 6.328 3.426c2.147-.586 2.422-6.906 2.448-7.7v-.083l3.818 4.774.288.362.32.166a3.694 3.694 0 0 0 5.178-4.323 80.8 80.8 0 0 0-3.286-9.552c-.794-1.6-1.824-4.278-2.448-5.955a1.6 1.6 0 0 0 .234-.115.882.882 0 0 0-.038-.211l.038-.019a59.2 59.2 0 0 1-.96-8.282v-.291c.691-.16 1.13-.224 1.13-.224V73.9h-.08l.387-4.458s1.411-3.04.32-4.307a2.688 2.688 0 0 1-.64-1.318c-.182-1.165 0-3.107 2.515-4.723a21.6 21.6 0 0 0 5.373-4.512s.096-1.462-2.275-2.182zm-7.68 3.1v-2.06c.717-.035 1.453.051 2.173 0a5.533 5.533 0 0 0 1.05-.176l.173.122a19.066 19.066 0 0 1-3.4 2.112zM45.056 87.8l.848.614c.176 1.018.32 1.734.339 1.786a14.3 14.3 0 0 0-1.187-2.4z" class="cls-8" data-name="Path 163"/>
            <path id="Path_164" d="M51.261 86.5l-.17.928-.131.71-.24 1.3-2.32 1.624-.554-.464a41.146 41.146 0 0 0-4.419-3.238 4.97 4.97 0 0 0-1.213-.56z" class="cls-9" data-name="Path 164"/>
            <path id="Path_165" d="M51.261 86.5l-.17.928a7.239 7.239 0 0 1-1.533-.08l-5.4.077a13.51 13.51 0 0 1-.72-.058 4.97 4.97 0 0 0-1.213-.56z" class="cls-10" data-name="Path 165"/>
            <path id="Path_166" d="M49.558 87.19s2.707.464 2.864-.691-1.392-1.782-2.707-1.859-9.2.48-9.2.48-1.389 1.856 3.635 2.166z" class="cls-11" data-name="Path 166"/>
            <path id="Path_167" d="M51.261 86.5l-.17.928-.131.71-.24 1.3-2.32 1.624-.554-.464a41.146 41.146 0 0 0-4.419-3.238 4.97 4.97 0 0 0-1.213-.56z" class="cls-10" data-name="Path 167"/>
            <path id="Path_168" d="M51.261 86.5l-.17.928a7.239 7.239 0 0 1-1.533-.08l-5.4.077a13.51 13.51 0 0 1-.72-.058 4.97 4.97 0 0 0-1.213-.56z" class="cls-10" data-name="Path 168"/>
            <path id="Path_169" d="M49.558 87.187s2.707.461 2.864-.7-1.392-1.779-2.707-1.856-9.2.464-9.2.464-1.392 1.856 3.635 2.163z" class="cls-10" data-name="Path 169"/>
            <path id="Rectangle_111" d="M0 0h14.154v16.781H0z" class="cls-11" data-name="Rectangle 111" transform="translate(41.322 49.062)"/>
            <path id="Rectangle_112" d="M0 0h14.154v16.781H0z" class="cls-10" data-name="Rectangle 112" transform="translate(41.322 49.139)"/>
            <path id="Path_170" d="M24.736 77.792a2.24 2.24 0 0 0-.861.608 34.152 34.152 0 0 0-3.475 4.726c-2.611-3.114.282-5.571 1.51-6.4.3-.2.5-.32.5-.32z" class="cls-9" data-name="Path 170"/>
            <path id="Path_171" d="M51.107 54.362s.694 4.87 3.094 6.032-3.094 3.328-3.094 3.328l-7.5-2.787s4.253-1.392 3.4-5.491z" class="cls-9" data-name="Path 171"/>
            <path id="Path_172" d="M43.062 83.67l-.17.925-.138.714-.24 1.3L40.2 88.23s-.208-.176-.554-.458a40 40 0 0 0-4.419-3.232 4.742 4.742 0 0 0-1.213-.56z" class="cls-9" data-name="Path 172"/>
            <path id="Path_173" d="M43.062 83.67l-.17.925a7.193 7.193 0 0 1-1.53-.077l-5.414.077q-.384-.026-.72-.058a4.742 4.742 0 0 0-1.213-.56z" class="cls-10" data-name="Path 173"/>
            <path id="Path_174" d="M41.363 84.368s2.707.461 2.861-.7-1.392-1.779-2.707-1.856-9.2.464-9.2.464-1.392 1.856 3.635 2.166z" class="cls-11" data-name="Path 174"/>
            <path id="Path_175" d="M42.755 85.309l-.24 1.3L40.2 88.23s-.208-.176-.554-.458l3.069-2.518z" class="cls-10" data-name="Path 175"/>
            <path id="Path_176" d="M58.08 103.014l-.32-.16-.285-.358-3.744-4.746v.083c-.022.794-.294 7.072-2.394 7.651-2.24.618-4.95.774-6.182-3.4s-3.488-13.3-5.8-13.846l3.445-2.824a20.467 20.467 0 0 1 3.2 5.22c-.032-.16-1.6-7.514-.32-8.813h11.29s1.744 4.963 2.938 7.424a83.3 83.3 0 0 1 3.226 9.482 3.626 3.626 0 0 1-5.053 4.288z" class="cls-11" data-name="Path 176"/>
            <path id="Path_177" d="M57.757 83.2c-1.741 1.03-9.4.611-11.885.445l-.678-.051c-.074 0 0-.042 0-.042l.07-.7 1.856-4.717 9.939-5.76a8.64 8.64 0 0 0-.253 2.6 61.039 61.039 0 0 0 .951 8.225z" class="cls-10" data-name="Path 177"/>
            <path id="Path_178" d="M57.757 82.973c-1.741 1.034-9.4.611-11.885.445l-.678-.048h-.112l.122-.032.614-.157 1.312-5.261 9.939-5.76a8.64 8.64 0 0 0-.253 2.6 60.254 60.254 0 0 0 .941 8.213z" class="cls-12" data-name="Path 178"/>
            <path id="Path_179" d="M56.81 74.746c-2.022.467-6.467 1.834-8.176 5.12a8.482 8.482 0 0 1-2.768 3.534l-.678-.048v-.042l.614-.157 1.312-5.261 9.939-5.76a8.6 8.6 0 0 0-.243 2.611z" class="cls-10" data-name="Path 179"/>
            <path id="Path_180" d="M22.416 76.4l2.32 1.392a2.24 2.24 0 0 0-.861.608c-.2-.566-1.408-1.354-1.962-1.69.301-.198.503-.31.503-.31z" class="cls-10" data-name="Path 180"/>
            <path id="Path_181" d="M44.774 83.459a.134.134 0 0 1-.16-.022.538.538 0 0 0 .16.022z" class="cls-10" data-name="Path 181"/>
            <path id="Path_182" d="M50.026 60.083a4.6 4.6 0 0 1-3.558-1.315s-6.182 1.779-8.275 5.8-16.32 11.91-16.32 11.91 2.477 1.389 2.24 2.086l9.36-5.414s3.328-2.4 4.253-2.938 6.032-3.869 7.114 5.181 0 7.965 0 7.965 1.562.541 3.8-3.789 9.187-5.331 9.187-5.331l.387-4.56s1.379-3.024.32-4.278a2.7 2.7 0 0 1-.621-1.309c-.173-1.162 0-3.091 2.464-4.694a21.365 21.365 0 0 0 5.258-4.48s.08-1.469-2.24-2.166-11.757-4.48-11.757-4.48l-.32 1.315 7.443 5.254s-3.709 3.011-6.656 2.938c.001-.015.548 2.228-2.079 2.305z" class="cls-13" data-name="Path 182"/>
            <path id="Path_183" d="M51.456 56.48a14.758 14.758 0 0 1-.426-1.888l-4.1 1.088a4.528 4.528 0 0 1-.093 2.365 4.4 4.4 0 0 0 4.618-1.558z" class="cls-10" data-name="Path 183"/>
            <circle id="Ellipse_77" cx="4.406" cy="4.406" r="4.406" class="cls-9" data-name="Ellipse 77" transform="translate(43.645 49.142)"/>
            <path id="Path_184" d="M50.4 43.52a29.616 29.616 0 0 1 3.59.96 1.757 1.757 0 0 0 .928.038c.467-.147.848-.64 1.331-.621a1.418 1.418 0 0 1 .81.41 9.846 9.846 0 0 1 1.11.989c.829.9 1.344 2.115 2.1 3.094s1.952 1.744 3.027 1.28a6.762 6.762 0 0 1-5.725 5.2 13.666 13.666 0 0 0-3.094.16 2.653 2.653 0 0 1-.781.189c-.579 0-1.043-.528-1.4-1.043-.845-1.21-1.51-2.586-2.461-3.69a2.029 2.029 0 0 0-1.126-.781 2.093 2.093 0 0 0-1.245.349 5.859 5.859 0 0 0-1.824 1.28 2.522 2.522 0 0 0-.614 2.218A5.322 5.322 0 0 1 45.4 54.8c0 .7-.611 1.219-.736 1.92a7.77 7.77 0 0 0-.029.864 3.542 3.542 0 0 1-1.309 2.3 1.642 1.642 0 0 0-.6.829c-.048.24 0 .5-.032.742a1.351 1.351 0 0 1-1.235 1 3.581 3.581 0 0 1-1.859-.221 2.144 2.144 0 0 0 1.04-2.272c-.24-1.254-1.5-2.157-1.392-3.434a3.91 3.91 0 0 1 .349-1.133 10.288 10.288 0 0 0 .6-2.138 3.584 3.584 0 0 0-.038-1.709 5.29 5.29 0 0 0-.768-1.28 7.36 7.36 0 0 1-.893-1.83 1.28 1.28 0 0 1-.086-.6 1.251 1.251 0 0 1 .39-.64 5.077 5.077 0 0 1 2.349-1.683 5.181 5.181 0 0 1 1.334-.051 15.62 15.62 0 0 0 2.32-.1 5.008 5.008 0 0 0 2.24-.477c.534-.413.784-.864 1.4-1.107a4.106 4.106 0 0 1 1.955-.26z" class="cls-10" data-name="Path 184"/>
            <path id="Path_185" d="M52.848 89.046s2.56 5.027 1.776 6.57" class="cls-10" data-name="Path 185"/>
            <path id="Path_186" d="M57.472 102.49l-3.738-4.74v.083s-.214-1.536.5-1.021c1.562 1.13 4.054 2.979 4.109 3.3a9.025 9.025 0 0 1-.871 2.378z" class="cls-10" data-name="Path 186"/>
            <g id="Group_30" class="cls-14" data-name="Group 30">
                <path id="Path_187" d="M52.189 57.763a1.885 1.885 0 0 1-.7 1.958 1.766 1.766 0 0 0 1.6-2.019 5.066 5.066 0 0 1-.9.061z" data-name="Path 187"/>
                <path id="Path_188" d="M22.8 76.16s14.227-7.885 16.32-11.907c1.5-2.88 5.12-4.618 7.04-5.366-1.4.477-6.109 2.269-7.878 5.677-2.086 4.019-16.32 11.91-16.32 11.91z" data-name="Path 188"/>
                <path id="Path_189" d="M54.96 57.149a16.81 16.81 0 0 0 4.74-2.634l-7.43-5.261.17-.72-.714-.285-.32 1.315 7.424 5.258a17.872 17.872 0 0 1-3.87 2.327z" data-name="Path 189"/>
                <path id="Path_190" d="M55 74.97a18.71 18.71 0 0 1 2.918-.73v-.147A19.439 19.439 0 0 0 55 74.97z" data-name="Path 190"/>
                <path id="Path_191" d="M46 83.072h-.067a.147.147 0 0 1-.16-.022.537.537 0 0 0 .16.022c.253-.147.64-1.3-.16-8-.851-7.133-4.208-6.576-6.042-5.76 1.875-.515 4.458-.067 5.19 6.064.8 6.685.419 7.84.16 8a1.686 1.686 0 0 0 .918-.3z" data-name="Path 191"/>
                <path id="Path_192" d="M45.085 83.382a.538.538 0 0 1-.16-.022.141.141 0 0 0 .16.022z" data-name="Path 192"/>
            </g>
            <path id="Path_193" d="M50.4 43.37a29.04 29.04 0 0 1 3.59.96 1.792 1.792 0 0 0 .928.035c.467-.144.848-.64 1.331-.621a1.494 1.494 0 0 1 .81.406 10.2 10.2 0 0 1 1.11.992c.829.9 1.344 2.115 2.1 3.094s1.952 1.744 3.027 1.28a6.762 6.762 0 0 1-5.725 5.2 13.853 13.853 0 0 0-3.094.16 2.653 2.653 0 0 1-.781.189c-.579 0-1.043-.528-1.4-1.043-.845-1.21-1.51-2.586-2.461-3.69a2.029 2.029 0 0 0-1.126-.781 2.1 2.1 0 0 0-1.245.352 5.8 5.8 0 0 0-1.824 1.28 2.525 2.525 0 0 0-.614 2.218 5.3 5.3 0 0 1 .374 1.249c0 .7-.611 1.216-.736 1.9a7.794 7.794 0 0 0-.029.864 3.534 3.534 0 0 1-1.309 2.3 1.654 1.654 0 0 0-.6.829c-.048.243 0 .5-.032.742a1.347 1.347 0 0 1-1.235 1 3.581 3.581 0 0 1-1.859-.221 2.144 2.144 0 0 0 1.04-2.272c-.24-1.254-1.5-2.157-1.392-3.434a3.92 3.92 0 0 1 .349-1.13 10.371 10.371 0 0 0 .6-2.141 3.584 3.584 0 0 0-.038-1.709 5.35 5.35 0 0 0-.768-1.3 7.389 7.389 0 0 1-.893-1.827 1.3 1.3 0 0 1-.086-.6 1.232 1.232 0 0 1 .39-.64 5.108 5.108 0 0 1 2.349-1.686 5.325 5.325 0 0 1 1.334-.048 16.064 16.064 0 0 0 2.32-.1 5.008 5.008 0 0 0 2.24-.477c.534-.413.784-.864 1.4-1.107a4.07 4.07 0 0 1 1.955-.223z" class="cls-11" data-name="Path 193"/>
            <circle id="Ellipse_78" cx="8.886" cy="8.886" r="8.886" class="cls-1" data-name="Ellipse 78" transform="translate(70.547 77.76)"/>
            <path id="Path_194" d="M91.107 85.475A11.878 11.878 0 1 1 79.231 73.6a11.878 11.878 0 0 1 11.876 11.875zm-13.248 6.288l8.81-8.81a.768.768 0 0 0 0-1.085l-1.085-1.075a.762.762 0 0 0-1.078 0l-7.184 7.184-3.357-3.363a.771.771 0 0 0-1.085 0l-1.08 1.092a.765.765 0 0 0 0 1.085l4.979 4.979a.768.768 0 0 0 1.085 0z" class="cls-13" data-name="Path 194"/>
        </g>
    </g>
</svg>
