<svg xmlns="http://www.w3.org/2000/svg" viewBox="0 0 160 160">
    <defs>
        <style>
            .cls-1{fill:#fff}.cls-2{clip-path:url(#clip-path)}.cls-3,.cls-5{fill:#2b3991}.cls-3,.cls-4{opacity:.1}.cls-6{fill:#f7931d}.cls-7{fill:#535461}.cls-8{fill:#333}.cls-9{fill:#f7c1a3}.cls-10{fill:#242449}.cls-11{fill:#be6753}.cls-12,.cls-15{opacity:.3}.cls-13{opacity:.62}.cls-14{fill:#f1f1f2}
        </style>
        <clipPath id="clip-path">
            <path id="Rectangle_2" d="M0 0h160v160H0z" class="cls-1" data-name="Rectangle 2" transform="translate(445 747)"/>
        </clipPath>
    </defs>
    <g id="img-yanmaz-bilet" class="cls-2" transform="translate(-445 -747)">
        <g id="Homepage-Icons-04" transform="translate(445 751.175)">
            <path id="Path_609" d="M92.96 31.12c-10.256-.358-20.026-3.667-29.354-7.29s-18.56-7.638-28.579-9.558c-6.442-1.235-13.8-1.408-18.992 2.048-5 3.325-6.608 9.053-7.475 14.374-.64 4-1.037 8.218.752 11.965 1.242 2.6 3.446 4.8 4.97 7.283 5.306 8.672 1.555 19.366-4.192 27.84-2.694 3.974-5.824 7.766-7.9 11.99s-3.048 9.07-1.23 13.383 6.1 7.488 10.762 9.744c9.462 4.589 20.6 5.9 31.478 6.646 24.064 1.645 48.253.931 72.381.218 8.928-.262 17.9-.531 26.678-1.92 4.88-.768 9.92-1.984 13.456-4.922a11.27 11.27 0 0 0 2.6-14.72c-5.053-7.843-19.021-9.792-22.557-18.208-1.942-4.637.054-9.8 2.88-14.08 6.061-9.219 16.218-17.306 16.752-27.84.368-7.235-4.515-14.483-12.067-17.92-7.914-3.59-18.88-3.139-24.723 2.8-6.018 6.125-16.581 8.481-25.64 8.167z" class="cls-3" data-name="Path 609"/>
            <g id="Group_165" class="cls-4" data-name="Group 165">
                <path id="Path_610" d="M71.814 129.683a123.5 123.5 0 0 0-12.48.534c-1.568.16-3.1.515-4.675.659-3.139.288-6.224.822-9.373 1.069-2.538.2-5.085.32-7.616.57a28.841 28.841 0 0 1-7.36-.208c-1.744-.291-3.494-.454-5.206-.918a22.894 22.894 0 0 0-6-.877 26.156 26.156 0 0 0-8.342.938 8.281 8.281 0 0 0-2.854 1.53c-1.664 1.546-1.888 5.408-.227 7.011 2.8 2.7 8.765 3.76 12.685 3.811 4.294.054 8.467-.24 12.768-.416 4-.16 8-.39 11.987-.381 8.176.016 16.355 0 24.518-.509 7.68-.477 15.36-.32 23.04-.32a190 190 0 0 1 23.533 1.03c3.408.422 6.883.573 10.307.867a53.079 53.079 0 0 0 9.075-.25 22.883 22.883 0 0 0 7.443-1.846c1.846-.816 5.136-3.36 5.7-5.312 1.584-5.478-22.362-5.347-26.038-5.334-4.112 0-8.259.138-12.368 0a30.966 30.966 0 0 1-5.12-.72 44.026 44.026 0 0 0-5.078-.4c-7.107-.6-14.23-.512-21.36-.512-2.315.001-4.639-.022-6.959-.016z" class="cls-5" data-name="Path 610"/>
            </g>
            <path id="Path_611" d="M128.554 64.714l13.027 14.122-9.9 8.406-1.466-1.763 3.878-8.061-7.593-6.695z" class="cls-6" data-name="Path 611"/>
            <g id="Group_166" data-name="Group 166">
                <path id="Path_612" d="M131.8 99.907l.589 13.638-1.725 23.19-2.579.182-3.133-21.062-4.336-17.821z" class="cls-7" data-name="Path 612"/>
            </g>
            <path id="Path_613" d="M128.173 138.006l2.89 1.194 1.3-1.491-1.494-1.3-2.79.2z" class="cls-8" data-name="Path 613"/>
            <g id="Group_167" data-name="Group 167">
                <path id="Path_614" d="M113.539 95.082l-.566 10.31 1.68 30.65 2.582.131 3.869-20.106 3.414-22.045z" class="cls-7" data-name="Path 614"/>
            </g>
            <path id="Path_615" d="M117.165 137.261l-2.864 1.254-1.325-1.466 1.466-1.325 2.794.138z" class="cls-8" data-name="Path 615"/>
            <path id="Path_616" d="M128.554 64.714l-8.054-.864s-4.48.48-7.526 11.126c-1.693 5.923-2.208 15.254-2.333 22.371.192 1.014 1.3 5.459 5.974 4.707 8.029-1.3 12.3-2.592 15.8-1.942 2.979.64 2.726-3.456 2.4-6.586l-1.187-9.686z" class="cls-6" data-name="Path 616"/>
            <path id="Path_617" d="M127 54.682a15.173 15.173 0 0 0-6.157-.448 1.7 1.7 0 0 0-1.165.64 1.748 1.748 0 0 0-.189.49c-.512 1.92-1.165 4.736.093 6.493a3.107 3.107 0 0 0 .906.816 4.419 4.419 0 0 0 1.5.589 8.259 8.259 0 0 1-.454 1.379c.464.7 2.634.787 3.034.115l.067-1.747a4.262 4.262 0 0 0 .758-.394 4.9 4.9 0 0 0 1.894-2.56c.384-1.13.928-2.2 1.28-3.354a1.6 1.6 0 0 0 0-1.28 1.779 1.779 0 0 0-1.2-.64z" class="cls-9" data-name="Path 617"/>
            <path id="Path_618" d="M120.237 55.773a6.336 6.336 0 0 1 3.453-.858c2.854.208 3.9 2.3 4.054 4.928.784-1 2.259-2.24 2.349-3.542a5.986 5.986 0 0 0-.662-3.4c-.55-.851-1.962-1.318-2.8-1.811l-2.374-1.4a1.194 1.194 0 0 0-1.187-.15L117.459 51c-.358.093-.768.23-.9.576a1.181 1.181 0 0 0 .016.666 27.659 27.659 0 0 1 .72 2.947c.112.57.454 3.5 1.466 3.162a13.206 13.206 0 0 0 .573-1.6 2.32 2.32 0 0 1 .903-.978z" class="cls-10" data-name="Path 618"/>
            <path id="Path_619" d="M120.5 63.85l-2.979.906-10.88 11.4-.646 3.754 5.2 8.589 1.4-3.149-2.201-6.35 3.5-2.461 4.662-10.49z" class="cls-6" data-name="Path 619"/>
            <path id="Path_620" d="M96.509 49.526l.538-3.309-1.4-.291-.87 2.186-.6-.448-.115 2.886 1.418.5z" class="cls-9" data-name="Path 620"/>
            <path id="Path_621" d="M78.944 68.624l9.312-7.834 5.8-10.24 1.926.515-2.9 12.71-9.837 11.87z" class="cls-6" data-name="Path 621"/>
            <path id="Path_622" d="M77.574 137.712l.138 1.424 2.88 1.232 1.235-1.517-1.51-1.328-2.88-1.235z" class="cls-8" data-name="Path 622"/>
            <g id="Group_168" data-name="Group 168">
                <path id="Path_623" d="M75.168 108.88l2.221 28.384 2.774.378 2.3-24.2 1.9-7.674z" class="cls-7" data-name="Path 623"/>
            </g>
            <g id="Group_169" data-name="Group 169">
                <path id="Path_624" d="M68.531 101.43l-1.661 33.728 2.531.477 5.274-25.523 2.9-7.389z" class="cls-7" data-name="Path 624"/>
            </g>
            <path id="Path_625" d="M69.174 136.752l-3.008.918-1.1-1.69 1.638-1.181 2.739.518z" class="cls-8" data-name="Path 625"/>
            <path id="Path_626" d="M72.112 65c2.051-1.7 6.992-.72 9.6-.72-.25 0 8.093 32.79 8.685 34.666a26.759 26.759 0 0 1 .7 9.984c-2.79.765-5.4 2.2-8.275 2.576a33.006 33.006 0 0 1-7.117-.339c-2.8-.25-5.629-.182-8.435-.4a20.52 20.52 0 0 1-8.131-2.058 40.716 40.716 0 0 0 2.682-6.72 40.686 40.686 0 0 0 1.872-7.235c.234-2.16.272-4.358.586-6.55.368-2.56.806-5.091 1.418-7.594a57.279 57.279 0 0 1 2.749-8.39c.864-2.07 1.891-5.462 3.52-7.056a.606.606 0 0 1 .146-.164z" class="cls-6" data-name="Path 626"/>
            <path id="Path_627" d="M76.48 57.155a4.164 4.164 0 0 0-3.2 2.714c-.15.659.064 1.28-.125 1.968-.368 1.379 1.3 3.414-.352 4.374a4.338 4.338 0 0 1-2.88.16.723.723 0 0 1-.32-.122.5.5 0 0 1-.118-.541 2.06 2.06 0 0 1 .288-.509c1.139-1.709.864-4.16 1.306-6.106a6.3 6.3 0 0 1 3.408-4.675 4.406 4.406 0 0 1 1.894 2.752z" class="cls-10" data-name="Path 627"/>
            <path id="Path_628" d="M74.838 65.517a4.3 4.3 0 0 1-2.349-3.139 8.493 8.493 0 0 1 .32-4.026c1.222-4.352 6.688-3.1 7.962.618 1.101 3.244-2.301 8.099-5.933 6.547z" class="cls-9" data-name="Path 628"/>
            <path id="Path_629" d="M81.2 67.91a3.836 3.836 0 0 1-1.568-1.491c-.576-1.152-.32-2.941-.4-4.189a5.747 5.747 0 0 0-1.094-3.712A3.07 3.07 0 0 0 76 57.635c-.56-.054-.6.154-1.05-.186a2.411 2.411 0 0 1-.64-1.389 2.342 2.342 0 0 1 .746-1.878 3.283 3.283 0 0 1 2.662-1.027 7.344 7.344 0 0 1 6.95 6.3c.349 1.76-.182 3.642.208 5.341.237 1.046.835 1.782 1 2.88.448 2.88 1.7 6.621 1.331 9.526a.406.406 0 0 1-.125.291c-.176.131-.406-.067-.538-.246q-1.126-1.571-2.262-3.136a5.514 5.514 0 0 1-.768-1.3c-.426-1.187-.029-2.637-.768-3.661a5.011 5.011 0 0 0-1.546-1.24z" class="cls-10" data-name="Path 629"/>
            <path id="Path_630" d="M54.973 52.4l-.906-3.226 1.363-.448 1.11 2.074.544-.512.442 2.858-1.354.656z" class="cls-9" data-name="Path 630"/>
            <path id="Path_631" d="M74.573 69.408l-10.131-6.739-6.915-9.523-1.856.726 4.307 12.3 11.11 10.691z" class="cls-6" data-name="Path 631"/>
            <path id="Path_632" d="M17.574 48.413l2.317-3.453 1.936.838-.915 2.685 1.117.064-2.445 2.736-2.141-.659z" class="cls-9" data-name="Path 632"/>
            <path id="Path_633" d="M32.326 67.168l3.245 1.114 5.254 7.872 7.114-3.376 1.75 1.411-3.389 5.033-6.109 4.362-7.862-8.227z" class="cls-6" data-name="Path 633"/>
            <g id="Group_170" data-name="Group 170">
                <path id="Path_634" d="M39.958 89.821l.23 19.981-2.131 25.725h-2.892L31.7 111.8l-3.966-23.781z" class="cls-7" data-name="Path 634"/>
            </g>
            <path id="Path_635" d="M35.181 136.749l3.13 1.565 1.565-1.565-1.565-1.568h-3.13z" class="cls-8" data-name="Path 635"/>
            <g id="Group_171" data-name="Group 171">
                <path id="Path_636" d="M20.106 89.821l-.058 11.558L22 135.526h2.9l4.845-22.659 2.586-24.848z" class="cls-7" data-name="Path 636"/>
            </g>
            <path id="Path_637" d="M24.88 136.749l-3.133 1.565-1.565-1.565 1.565-1.568h3.133z" class="cls-8" data-name="Path 637"/>
            <path id="Path_638" d="M17.094 96.781c-.064 1.834-.022 4.288.749 4.381a.79.79 0 0 0 .413-.109c1.341-.64 2.3-1.578 3.622-2.208a16.483 16.483 0 0 1 4.506-1.245 47.4 47.4 0 0 1 6.947-.608c1.99-.016 4.058.89 5.936 1.389a6.707 6.707 0 0 1 1.92 1.133c.886.611 1.28.854 1.155-.394-.2-2.038-.4-4.074-.64-6.1A75.439 75.439 0 0 0 39.36 81c-.442-1.5-.96-2.973-1.456-4.451q-.922-2.691-1.85-5.392a6.738 6.738 0 0 0-4.33-4.589 8.475 8.475 0 0 0-6.3.083c-2.118 1.053-3.126 4.634-4.16 6.547a41.1 41.1 0 0 0-2.384 8.058c-.406 2.176-.784 4.339-1.078 6.5a67.027 67.027 0 0 0-.624 7.149c0 .266-.055.995-.084 1.876z" class="cls-6" data-name="Path 638"/>
            <path id="Path_639" d="M29.933 67.05a.461.461 0 0 1-.16.09.9.9 0 0 1-.381 0l-1.552-.173c.17-1.6-.755-1.942-1.661-2.963s-.64-2.426-.582-3.69a2.7 2.7 0 0 1 .182-1.037 2.263 2.263 0 0 1 1.459-1.053 5.51 5.51 0 0 1 4.56.5 2.4 2.4 0 0 1 .877.886 3.338 3.338 0 0 1 .138 1.92 6.429 6.429 0 0 1-.979 2.787c-.518.774-1.51 1.146-1.626 2.077a1.056 1.056 0 0 1-.275.656z" class="cls-9" data-name="Path 639"/>
            <path id="Path_640" d="M32.768 60.371a2.658 2.658 0 0 0-.176 1.2 2.315 2.315 0 0 0 1.28-1.517 2.381 2.381 0 0 0 .147-.931 1.1 1.1 0 0 0-.41-.81.7.7 0 0 0-1.072.3c-.111.443.363 1.16.231 1.758z" class="cls-10" data-name="Path 640"/>
            <path id="Path_641" d="M36.128 56.874a1.427 1.427 0 0 0-.64-1.194 2.849 2.849 0 0 1-1.014-.848c-.173-.32-.2-.685-.371-.992a2.515 2.515 0 0 0-1.574-.909c-1.469-.474-2.259-1.018-3.818-.413-1.1.429-2.534.486-3.562 1.114a3.629 3.629 0 0 0-1.094 1.149 6.522 6.522 0 0 0-.611 5.6A7.2 7.2 0 0 0 24 61.44a4.26 4.26 0 0 0 1.578 1.814c.045-.32.278-.49.352-.8a2.451 2.451 0 0 0 .026-.685c-.045-.89-.32-2.294.57-2.736 1.123-.56 3.232-.054 4.314.416.96.419 2.56.96 3.594.515a3.811 3.811 0 0 0 1.694-3.09z" class="cls-10" data-name="Path 641"/>
            <path id="Path_642" d="M26.3 66.454l-9.933-2.928 3.677-12.419-3.03-2.173-7.308 14.378 2.022 4.979 9.491 4.9z" class="cls-6" data-name="Path 642"/>
            <path id="Path_643" d="M113.754 75.846l.771 1.7-2.806 1.219-2.6-1.8 1.366-2.355z" class="cls-11" data-name="Path 643"/>
            <path id="Path_644" d="M39.168 76.186l-22.912.838c0 .061.016.125.019.186a2.861 2.861 0 0 1-2.95 2.79l.058 1.21a1.011 1.011 0 0 1 .755.89.979.979 0 0 1-.666.941l.07 1.459a1.014 1.014 0 0 1 .755.89.982.982 0 0 1-.669.941l.074 1.459a1.014 1.014 0 0 1 .755.89.992.992 0 0 1-.669.941l.07 1.459a1.018 1.018 0 0 1 .758.89.992.992 0 0 1-.669.941l.07 1.459a1.018 1.018 0 0 1 .758.89.992.992 0 0 1-.669.941l.07 1.459a1.008 1.008 0 0 1 .755.9.986.986 0 0 1-.666.944l.07 1.459a1.011 1.011 0 0 1 .755.886.989.989 0 0 1-.666.944l.07 1.456a1.018 1.018 0 0 1 .755.89.992.992 0 0 1-.669.944l.07 1.437a1.021 1.021 0 0 1 .758.89.986.986 0 0 1-.669.941l.064 1.341a2.927 2.927 0 0 1 3.2 2.56l22.9-.838a3.269 3.269 0 0 0 3.36-3.178L42.813 79.1a3.331 3.331 0 0 0-3.645-2.914z" class="cls-5" data-name="Path 644"/>
            <path id="Path_645" d="M120.259 105.565a1.085 1.085 0 0 1-1.184-.944 1.056 1.056 0 0 1 1.088-1.03h.09l-.064-1.325h-.09a1.085 1.085 0 0 1-1.184-.944 1.059 1.059 0 0 1 1.088-1.03h.09l-.064-1.325h-.09a1.085 1.085 0 0 1-1.184-.944A1.056 1.056 0 0 1 119.843 97h.09l-.064-1.325h-.09a1.091 1.091 0 0 1-1.184-.96 1.056 1.056 0 0 1 1.088-1.027h.093l-.064-1.325h-.093a1.085 1.085 0 0 1-1.181-.96 1.05 1.05 0 0 1 1.088-1.027h.09l-.064-1.325h-.09a1.085 1.085 0 0 1-1.184-.96 1.053 1.053 0 0 1 1.088-1.027h.09l-.064-1.325h-.09a1.085 1.085 0 0 1-1.184-.96 1.056 1.056 0 0 1 1.088-1.027h.09l-.064-1.322h-.09a1.085 1.085 0 0 1-1.184-.96 1.056 1.056 0 0 1 1.088-1.027h.09l-.064-1.322h-.09a1.088 1.088 0 0 1-1.184-.96 1.056 1.056 0 0 1 1.088-1.027h.093l-.058-1.149h-.2a2.925 2.925 0 0 1-3.2-2.56v-.186L42.688 75.9l1.757 36.237 72.826-2.666a2.864 2.864 0 0 1 2.954-2.79h.2l-.061-1.28z" class="cls-5" data-name="Path 645"/>
            <path id="Rectangle_387" d="M0 0h83.744v5.581H0z" class="cls-12" data-name="Rectangle 387" transform="rotate(-2.17 2147.394 -1087.93)"/>
            <g id="Group_172" class="cls-13" data-name="Group 172">
                <path id="Path_646" d="M44.528 108.97l-.509.019-.064-1.325.509-.019zm-.15-3.094l-.509.019-.086-1.766.509-.019zm-.173-3.52l-.506.016-.086-1.766.509-.019zm-.17-3.536l-.509.019-.086-1.77.509-.019zm-.173-3.52l-.506.019-.086-1.77.509-.016zm-.17-3.536l-.509.019-.083-1.767.506-.016zM43.52 88.2l-.509.019-.083-1.766.509-.019zm-.17-3.52l-.509.016-.086-1.766.509-.019zm-.173-3.52l-.509.019-.083-1.77.509-.019z" class="cls-14" data-name="Path 646"/>
            </g>
            <path id="Path_647" d="M151.7 70.262c-13.92 3-20.986-3.434-21.939-4.381 0 0-.019-.1-.058-.058-.035-.038-.054.058-.054.058-.96.96-8.019 7.376-21.939 4.381 0 0-2.138 24.89 5.978 35.04 8.666 10.845 15.981 14.125 16.016 14.1.038.029 7.414-3.2 16.019-14.1 8.047-10.202 5.977-35.04 5.977-35.04z" class="cls-6" data-name="Path 647"/>
            <g id="Group_173" class="cls-4" data-name="Group 173">
                <path id="Path_648" d="M151.7 70.262c-13.92 3-20.986-3.434-21.939-4.381 0 0-.019-.1-.058-.058-.035-.038-.054.058-.054.058-.96.96-8.019 7.376-21.939 4.381 0 0-2.138 24.89 5.978 35.04 8.666 10.845 15.981 14.125 16.016 14.1.038.029 7.414-3.2 16.019-14.1 8.047-10.202 5.977-35.04 5.977-35.04z" class="cls-6" data-name="Path 648"/>
            </g>
            <g id="Group_174" class="cls-4" data-name="Group 174">
                <path id="Path_649" d="M151.7 70.262c-13.92 3-20.986-3.434-21.939-4.381 0 0-.019-.1-.058-.058-.035-.038-.054.058-.054.058-.96.96-8.019 7.376-21.939 4.381 0 0-2.138 24.89 5.978 35.04 8.666 10.845 15.981 14.125 16.016 14.1.038.029 7.414-3.2 16.019-14.1 8.047-10.202 5.977-35.04 5.977-35.04z" data-name="Path 649"/>
            </g>
            <g id="Group_175" data-name="Group 175">
                <path id="Path_650" d="M150.72 71.254c-13.3 2.88-20.051-3.28-20.963-4.186 0 0-.019-.09-.054-.054-.035-.035-.051.054-.051.054-.912.906-7.664 7.04-20.963 4.186 0 0-2.045 23.782 5.709 33.485 8.282 10.362 15.27 13.494 15.306 13.469.035.026 7.085-3.046 15.306-13.469 7.69-9.75 5.71-33.485 5.71-33.485z" class="cls-6" data-name="Path 650"/>
            </g>
            <path id="Path_651" d="M129.7 115.155c-1.056-.6-6.643-3.965-13.277-12.115-6.106-7.491-5.248-25.117-5.027-28.419a29.532 29.532 0 0 0 5.59.579c7.29 0 11.43-3.062 12.7-4.182 1.28 1.12 5.414 4.182 12.7 4.182a29.5 29.5 0 0 0 5.587-.56c.214 3.3 1.024 20.9-5.027 28.422-6.533 8.154-12.2 11.514-13.246 12.093z" class="cls-6" data-name="Path 651"/>
            <path id="Path_652" d="M129.741 71.654c1.632 1.325 5.789 4.013 12.678 4.013a29.44 29.44 0 0 0 5.142-.467c.237 4.31.717 20.5-4.957 27.552-6.029 7.5-11.318 10.922-12.842 11.814l-.1-.067-.064.048c-1.552-.928-6.762-4.371-12.8-11.8-3.408-4.186-4.56-11.7-4.925-17.28a86.66 86.66 0 0 1-.032-10.282 29.51 29.51 0 0 0 5.149.47c6.886 0 11.043-2.688 12.675-4.01l.042.042.042-.045m-.026-1.325a.019.019 0 0 0-.016 0l-.035.054c-.659.64-4.771 4.323-12.669 4.323a29.169 29.169 0 0 1-6.032-.659s-1.821 20.8 5.1 29.3c7.36 9.037 13.568 12.346 13.645 12.346.077 0 6.352-3.258 13.661-12.346 6.861-8.534 5.094-29.3 5.094-29.3a29.136 29.136 0 0 1-6.029.659c-7.9 0-12.01-3.68-12.672-4.323 0 0 0-.054-.032-.054z" class="cls-1" data-name="Path 652"/>
            <path id="Path_653" d="M149.414 69.354l1.539 1.059-1.766 2.49-3.152-.2-.048-2.723z" class="cls-9" data-name="Path 653"/>
            <path id="Path_654" d="M47.939 72.778l3.315 1.242.826 3.517-1.923.438-1.557-2.132-1.283-.08-1.286-2.08z" class="cls-9" data-name="Path 654"/>
            <path id="Path_655" d="M128.253 96.9l9.238-9.238a.8.8 0 0 0 0-1.136l-1.136-1.13a.8.8 0 0 0-1.133 0l-7.542 7.536-3.52-3.52a.8.8 0 0 0-1.136 0l-1.13 1.149a.8.8 0 0 0 0 1.136l5.222 5.222a.806.806 0 0 0 1.136 0z" class="cls-1" data-name="Path 655"/>
            <rect id="Rectangle_388" width="18.723" height="6.474" class="cls-12" data-name="Rectangle 388" rx="1.354" transform="rotate(-2.29 2565.366 -454.991)"/>
            <g id="Group_176" class="cls-15" data-name="Group 176">
                <rect id="Rectangle_389" width="40.49" height="1.808" data-name="Rectangle 389" rx=".904" transform="rotate(-2.1 2476.75 -1199.103)"/>
                <rect id="Rectangle_390" width="26.758" height="1.808" data-name="Rectangle 390" rx=".736" transform="rotate(-2.1 2602.544 -1201.383)"/>
                <rect id="Rectangle_391" width="20.16" height="1.808" data-name="Rectangle 391" rx=".637" transform="rotate(-2.1 2728.42 -1203.715)"/>
                <rect id="Rectangle_392" width="26.758" height="1.808" data-name="Rectangle 392" rx=".736" transform="rotate(-2.1 2586.11 -2095.944)"/>
                <rect id="Rectangle_393" width="20.16" height="1.808" data-name="Rectangle 393" rx=".637" transform="rotate(-2.1 2712.066 -2098.193)"/>
            </g>
        </g>
    </g>
</svg>
