<svg xmlns="http://www.w3.org/2000/svg" xmlns:xlink="http://www.w3.org/1999/xlink" viewBox="0 0 160 160">
    <defs>
        <style>
            .cls-1,.cls-20{fill:#fff}.cls-2{clip-path:url(#clip-path)}.cls-3,.cls-9{fill:#2b3991}.cls-14,.cls-16,.cls-3{opacity:.1}.cls-4{fill:none;stroke:#535461;stroke-miterlimit:10;stroke-width:.329px}.cls-5{fill:#8ed16f}.cls-6,.cls-7{opacity:.3}.cls-8{fill:url(#linear-gradient)}.cls-10{fill:#d6d6e3}.cls-11{fill:url(#linear-gradient-2)}.cls-12{fill:#333}.cls-13{fill:#535461}.cls-15{fill:#f7c4a7}.cls-17{fill:#f7931d}.cls-18{fill:#281c1c}.cls-19{fill:#618fd8}.cls-20{opacity:.4}.cls-21{opacity:.05}
        </style>
        <clipPath id="clip-path">
            <path id="Rectangle_2" d="M0 0h160v160H0z" class="cls-1" data-name="Rectangle 2" transform="translate(445 747)"/>
        </clipPath>
        <linearGradient id="linear-gradient" x1=".885" x2=".885" y1="-.981" y2=".019" gradientUnits="objectBoundingBox">
            <stop offset="0" stop-color="gray" stop-opacity=".251"/>
            <stop offset=".54" stop-color="gray" stop-opacity=".122"/>
            <stop offset="1" stop-color="gray" stop-opacity=".102"/>
        </linearGradient>
        <linearGradient id="linear-gradient-2" x1="15.649" x2="15.649" y1="-.435" y2=".565" xlink:href="#linear-gradient"/>
    </defs>
    <g id="img-tatil-firsati" class="cls-2" transform="translate(-445 -747)">
        <g id="Homepage-Icons-02" transform="translate(445 751.567)">
            <path id="Path_263" d="M93.06 31.081c-10.246-.358-20-3.663-29.32-7.28S45.2 16.172 35.2 14.254c-6.436-1.234-13.787-1.406-18.971 2.046-4.989 3.321-6.6 9.041-7.466 14.356-.639 4-1.035 8.207.751 11.95 1.24 2.6 3.442 4.794 4.963 7.274 5.3 8.661 1.553 19.342-4.187 27.8-2.69 3.967-5.816 7.755-7.89 11.973s-3.036 9.064-1.221 13.372 6.095 7.479 10.748 9.732c9.447 4.583 20.576 5.893 31.439 6.638 24.03 1.643 48.192.93 72.286.217 8.92-.262 17.875-.531 26.648-1.918 4.871-.767 9.907-1.982 13.423-4.915a11.255 11.255 0 0 0 2.6-14.7c-5.034-7.824-18.971-9.77-22.512-18.179-1.943-4.631.051-9.783 2.876-14.062 6.053-9.208 16.2-17.284 16.731-27.8.368-7.226-4.51-14.465-12.052-17.9-7.9-3.586-18.856-3.135-24.692 2.8-6.016 6.104-16.574 8.456-25.614 8.143z" class="cls-3" data-name="Path 263"/>
            <path id="Path_264" d="M51.167 28.853s-6.341 8.421-1.8 18.236-7.907 25.587-7.907 25.587" class="cls-4" data-name="Path 264"/>
            <path id="Path_265" d="M54.012 25.7a6.252 6.252 0 0 1-2.912 3.46s-1.6-2.237-1.087-4.391 1.806-3.717 2.915-3.458 1.589 2.224 1.084 4.389z" class="cls-5" data-name="Path 265"/>
            <ellipse id="Ellipse_85" cx="1.266" cy=".473" class="cls-5" data-name="Ellipse 85" rx="1.266" ry=".473" transform="rotate(-76.9 42.179 -19.059)"/>
            <ellipse id="Ellipse_86" cx="1.266" cy=".473" class="cls-6" data-name="Ellipse 86" rx="1.266" ry=".473" transform="rotate(-76.9 42.179 -19.059)"/>
            <path id="Path_266" d="M52.916 35.331a6.206 6.206 0 0 1-4.474-.569s1-2.557 3.1-3.3 4.1-.492 4.474.569-1.007 2.543-3.1 3.3z" class="cls-5" data-name="Path 266"/>
            <ellipse id="Ellipse_87" cx="1.266" cy=".473" class="cls-5" data-name="Ellipse 87" rx="1.266" ry=".473" transform="rotate(-19.89 120.066 -128.312)"/>
            <ellipse id="Ellipse_88" cx="1.266" cy=".473" class="cls-6" data-name="Ellipse 88" rx="1.266" ry=".473" transform="rotate(-19.89 120.066 -128.312)"/>
            <path id="Path_267" d="M52.43 43a6.206 6.206 0 0 1-4.474-.569s1-2.557 3.094-3.3 4.1-.492 4.474.569-1.001 2.551-3.094 3.3z" class="cls-5" data-name="Path 267"/>
            <ellipse id="Ellipse_89" cx="1.266" cy=".473" class="cls-5" data-name="Ellipse 89" rx="1.266" ry=".473" transform="rotate(-19.8 142.597 -123.765)"/>
            <ellipse id="Ellipse_90" cx="1.266" cy=".473" class="cls-6" data-name="Ellipse 90" rx="1.266" ry=".473" transform="rotate(-19.8 142.597 -123.765)"/>
            <path id="Path_268" d="M54.875 52a6.212 6.212 0 0 1-4.474-.566s1-2.557 3.1-3.3 4.1-.492 4.474.566-1.007 2.557-3.1 3.3z" class="cls-5" data-name="Path 268"/>
            <ellipse id="Ellipse_91" cx="1.266" cy=".473" class="cls-5" data-name="Ellipse 91" rx="1.266" ry=".473" transform="rotate(-19.8 169.613 -126.262)"/>
            <ellipse id="Ellipse_92" cx="1.266" cy=".473" class="cls-6" data-name="Ellipse 92" rx="1.266" ry=".473" transform="rotate(-19.8 169.613 -126.262)"/>
            <path id="Path_269" d="M53.283 60.238a6.212 6.212 0 0 1-4.474-.566s1-2.557 3.1-3.3 4.1-.492 4.474.566-1.003 2.549-3.1 3.3z" class="cls-5" data-name="Path 269"/>
            <ellipse id="Ellipse_93" cx="1.266" cy=".473" class="cls-5" data-name="Ellipse 93" rx="1.266" ry=".473" transform="rotate(-19.89 191.238 -117.012)"/>
            <ellipse id="Ellipse_94" cx="1.266" cy=".473" class="cls-6" data-name="Ellipse 94" rx="1.266" ry=".473" transform="rotate(-19.89 191.238 -117.012)"/>
            <path id="Path_270" d="M43.465 37.511a6.279 6.279 0 0 0 4.276 1.477 6.263 6.263 0 0 0-1.32-4.327c-1.544-1.6-3.461-2.26-4.279-1.477s-.224 2.726 1.323 4.327z" class="cls-5" data-name="Path 270"/>
            <ellipse id="Ellipse_95" cx=".473" cy="1.266" class="cls-5" data-name="Ellipse 95" rx=".473" ry="1.266" transform="rotate(-43.99 65.771 -36.473)"/>
            <ellipse id="Ellipse_96" cx=".473" cy="1.266" class="cls-6" data-name="Ellipse 96" rx=".473" ry="1.266" transform="rotate(-43.99 65.771 -36.473)"/>
            <path id="Path_271" d="M42.577 62.938a6.279 6.279 0 0 0 4.276 1.477 6.238 6.238 0 0 0-1.32-4.324c-1.547-1.6-3.461-2.263-4.276-1.477s-.227 2.723 1.32 4.324z" class="cls-5" data-name="Path 271"/>
            <ellipse id="Ellipse_97" cx=".473" cy="1.266" class="cls-5" data-name="Ellipse 97" rx=".473" ry="1.266" transform="rotate(-43.99 96.806 -22.652)"/>
            <ellipse id="Ellipse_98" cx=".473" cy="1.266" class="cls-6" data-name="Ellipse 98" rx=".473" ry="1.266" transform="rotate(-43.99 96.806 -22.652)"/>
            <path id="Path_272" d="M44.625 46.5a6.25 6.25 0 0 0 4.522-.038 6.255 6.255 0 0 0-2.685-3.637c-1.988-.994-4.017-.984-4.525.038s.697 2.637 2.688 3.637z" class="cls-5" data-name="Path 272"/>
            <ellipse id="Ellipse_99" cx=".473" cy="1.266" class="cls-5" data-name="Ellipse 99" rx=".473" ry="1.266" transform="rotate(-63.48 58.043 -13.53)"/>
            <ellipse id="Ellipse_100" cx=".473" cy="1.266" class="cls-6" data-name="Ellipse 100" rx=".473" ry="1.266" transform="rotate(-63.48 58.043 -13.53)"/>
            <path id="Path_273" d="M45.459 55.45a6.257 6.257 0 0 0 4.525-.038 6.271 6.271 0 0 0-2.684-3.637c-1.985-.994-4.017-.984-4.522.038s.687 2.653 2.681 3.637z" class="cls-5" data-name="Path 273"/>
            <ellipse id="Ellipse_101" cx=".473" cy="1.266" class="cls-5" data-name="Ellipse 101" rx=".473" ry="1.266" transform="rotate(-63.48 65.697 -9.731)"/>
            <ellipse id="Ellipse_102" cx=".473" cy="1.266" class="cls-6" data-name="Ellipse 102" rx=".473" ry="1.266" transform="rotate(-63.48 65.697 -9.731)"/>
            <path id="Path_274" d="M20.627 46.955a27.646 27.646 0 0 1 5.043 28.764c-6.539 17.181 11.208 45.763 11.208 45.763l-.543-.089a33.716 33.716 0 0 1-22.372-51.615c4.893-7.511 8.949-16.322 6.664-22.823z" class="cls-5" data-name="Path 274"/>
            <path id="Path_275" d="M0 93.8s13.215-2.1 14.42 9.754 25.411 13.484 25.411 13.484l-.454.32c-19.988 13.094-39.1 8.329-36.217-9.1C4.235 101.779 4.155 95.275 0 93.8z" class="cls-5" data-name="Path 275"/>
            <g id="Group_43" class="cls-7" data-name="Group 43">
                <path id="Path_276" d="M0 93.8s13.215-2.1 14.42 9.754 25.411 13.484 25.411 13.484l-.454.32c-19.988 13.094-39.1 8.329-36.217-9.1C4.235 101.779 4.155 95.275 0 93.8z" class="cls-1" data-name="Path 276"/>
            </g>
            <ellipse id="Ellipse_103" cx="3.634" cy="9.482" class="cls-5" data-name="Ellipse 103" rx="3.634" ry="9.482" transform="translate(13.65 74.687)"/>
            <ellipse id="Ellipse_104" cx="3.634" cy="9.482" class="cls-6" data-name="Ellipse 104" rx="3.634" ry="9.482" transform="translate(13.65 74.687)"/>
            <ellipse id="Ellipse_105" cx="2.448" cy="5.452" class="cls-5" data-name="Ellipse 105" rx="2.448" ry="5.452" transform="rotate(-45 139.703 47.249)"/>
            <ellipse id="Ellipse_106" cx="2.448" cy="5.452" class="cls-6" data-name="Ellipse 106" rx="2.448" ry="5.452" transform="rotate(-45 139.703 47.249)"/>
            <path id="Path_277" d="M118.765 64.837H32.739a3.921 3.921 0 0 0-3.921 3.918v50.423a3.921 3.921 0 0 0 3.921 3.918h86.026a3.918 3.918 0 0 0 3.918-3.918V68.755a3.918 3.918 0 0 0-3.918-3.918z" class="cls-8" data-name="Path 277"/>
            <rect id="Rectangle_162" width="91.654" height="56.888" class="cls-9" data-name="Rectangle 162" rx="4.072" transform="translate(29.924 65.521)"/>
            <path id="Rectangle_163" d="M0 0h91.654v10.428H0z" class="cls-9" data-name="Rectangle 163" transform="translate(29.924 75.476)"/>
            <path id="Rectangle_164" d="M0 0h91.654v10.428H0z" class="cls-6" data-name="Rectangle 164" transform="translate(29.924 75.476)"/>
            <path id="Rectangle_165" d="M0 0h74.271v5.056H0z" class="cls-10" data-name="Rectangle 165" transform="translate(38.617 93.651)"/>
            <circle id="Ellipse_107" cx="7.271" cy="7.271" r="7.271" class="cls-9" data-name="Ellipse 107" transform="translate(37.508 104.08)"/>
            <circle id="Ellipse_108" cx="7.271" cy="7.271" r="7.271" class="cls-6" data-name="Ellipse 108" transform="translate(37.508 104.08)"/>
            <path id="Path_278" d="M116.368 51.493a1.569 1.569 0 0 0 .7.885c1.508 1 4.794.786 5.181.786.083 0 .192.147.32.4a27.738 27.738 0 0 1 1.537 5.484c.08.959.959 5.414 2.416 7.076l.131.141c1.422 1.429 3.094-.141 3.094-.141l.24-.834c-.07.32-.144.713-.221 1.141-.038.214-.074.441-.112.678a26.162 26.162 0 0 0-.339 4 13.894 13.894 0 0 0 .064 1.457 2.734 2.734 0 0 0 .045.4 14.337 14.337 0 0 1 .109 1.777 46.776 46.776 0 0 1-.914 7.923h.035c-.022.109-.035.163-.035.163l.051-.016c-.026.163-.048.32-.07.5-.32 2.215-.483 4.973-.566 6.565a13.208 13.208 0 0 0 .112 2.512l1.6 11.272v5.251a9.31 9.31 0 0 0 .288 2.359c.524 1.985.093 8.907-.147 12.193-.067.895-.121 1.521-.134 1.7v.054l.045-.019v.058a.822.822 0 0 1 .214-.061c-.639.984-1.787 2.611-2.669 2.876a2.768 2.768 0 0 0-1.336.882l-.022.032-.032.045a.959.959 0 0 0-.192.5.9.9 0 0 1-.032-.1c-.067.368.153.7.844.863a5.606 5.606 0 0 0 1.224.1c2.394 0 6.644-.735 7.114-1.528v-2.736l.077.026v.026l.294.1.805-2.7c.959-.716.163-13.516 0-16.459-.147-2.681 1.512-13.343 1.806-15.222l-.038-.048.042-.275a1.453 1.453 0 0 1 .166.144 2.214 2.214 0 0 1 .249.371 5.033 5.033 0 0 1 .358.735c1.62 4.043 2.349 15.6 2.349 16.641v10.866a11.3 11.3 0 0 0 .444 3.17 14.582 14.582 0 0 1 .345 1.652c.032.217.064.435.089.639s.058.441.08.639a1.089 1.089 0 0 0 0 .147.448.448 0 0 1 0 .067c.045.428.067.706.067.706a.173.173 0 0 1 .032-.064v.105a.182.182 0 0 1 .064-.1 1.444 1.444 0 0 1 .214-.179v1.384l-.038-.032v.24c1.671 1.259 4.388 1.64 6.475 1.627a8.329 8.329 0 0 0 2.832-.355c.543-.268.246-.892-.249-1.368a1.983 1.983 0 0 0-1.2-.639c-.527.058-2.336-1.988-3.282-3.106l.109-.048.15-.067V106.64s.243-7.156.959-14.235a25.146 25.146 0 0 0-1.237-10.547l-.026-.067.221.035.358.058a1.6 1.6 0 0 0 0-.166s-.281-3.068-.284-6.922c0-4.372.368-9.7 1.9-12.717a9.005 9.005 0 0 0 1.151-4.206 4.411 4.411 0 0 0-.786-2.691 2.135 2.135 0 0 0-.9-.716h-.048a2.253 2.253 0 0 0-.831-.166h-3.269a2.205 2.205 0 0 1-1.09-.288l-1.278-.732a6.549 6.549 0 0 1-.4-3.2c0-.086.016-.176.022-.259l.1-.1c.07-.077.137-.163.2-.237a.778.778 0 0 1-.016.192c-.016.064-.045.163-.086.179a2.828 2.828 0 0 0 1.918-.777l.051-.067a3.568 3.568 0 0 0 .32-.658 1.892 1.892 0 0 1 .243-.438c.109-.141.249-.256.364-.39l.019-.026a2.837 2.837 0 0 0 .444-1.841c0-1.56-.038-3.279-1.083-4.452a4.936 4.936 0 0 0-3.567-1.387c-1.314-.045-2.624.195-3.937.2-.892 0-1.969-.016-2.461.722-.24.364-.272.837-.534 1.186-.15.2-.38.374-.4.623a.639.639 0 0 0 .086.32 2.33 2.33 0 0 0 1.7 1.141 4.513 4.513 0 0 0-.32.451 4.33 4.33 0 0 0-.655 2.3 2.732 2.732 0 0 0 0 .281 4.334 4.334 0 0 0 1.374 2.876 1.584 1.584 0 0 1-.042.275l.032.026a2.97 2.97 0 0 0 .291.24l.035.029v.678l-.022-.019-1.6-1.339-2.576-2.384s-6.443-4.692-6.769-2.461a1.617 1.617 0 0 0 .32 1.112c1.186 1.8 5.251 3.34 5.251 3.34a34.351 34.351 0 0 1 4.049 5.328l-.176.089a7.606 7.606 0 0 1-3.551.387c-2.435.38-2.653 3.046-2.64 4.123v.224l-3.231-7.581v-.026a1.6 1.6 0 0 0-1.2-.959c-2.231-.345-7.626-1.101-7.176.492zm13.516 73.664l.144-.026-.016.022z" class="cls-11" data-name="Path 278"/>
            <path id="Path_279" d="M146.017 123.607s3.059 3.835 3.765 3.765 2.352 1.493 1.413 1.969-6.354.786-9.022-1.253v-3.075z" class="cls-12" data-name="Path 279"/>
            <path id="Path_280" d="M130.565 123.844s-1.806 3.215-3.059 3.608-2.352 1.806-.706 2.2 7.53-.47 8.079-1.409v-4.155z" class="cls-12" data-name="Path 280"/>
            <path id="Path_281" d="M128.3 92.252l1.56 11.122v5.168a9.2 9.2 0 0 0 .281 2.327c.508 1.959.089 8.786-.147 12.026a164.244 164.244 0 0 1-.134 1.732c1.016-.47 5.331 1.02 5.331 1.02l.438-1.486.348-1.179c.94-.706.163-13.334 0-16.242-.109-1.988.78-8.428 1.345-12.288.166-1.093.3-1.969.377-2.5l.08-.508a1.7 1.7 0 0 1 .422.508 4.873 4.873 0 0 1 .348.725c1.579 3.989 2.295 15.392 2.295 16.408v10.722a11.39 11.39 0 0 0 .431 3.129 15.905 15.905 0 0 1 .425 2.26c.112.85.166 1.537.166 1.537.077-.473 4.941-2.589 4.941-2.589v-17.9s.233-7.053.943-14.04a25.031 25.031 0 0 0-.9-9.431 23.024 23.024 0 0 0-.559-1.681c-.288-.764-.492-1.186-.492-1.186h-16.024c-.268.051-.492.594-.694 1.416-.131.55-.246 1.227-.348 1.969-.3 2.183-.467 4.9-.55 6.472a12.968 12.968 0 0 0 .115 2.486z" class="cls-13" data-name="Path 281"/>
            <g id="Group_44" class="cls-14" data-name="Group 44">
                <path id="Path_282" d="M146.525 124.2v-17.9s.233-7.054.94-14.04a24.424 24.424 0 0 0-1.965-12.316h.32a24.567 24.567 0 0 1 1.969 12.314c-.7 6.98-.94 14.04-.94 14.04v17.9s-4.864 2.116-4.944 2.589a2.626 2.626 0 0 0-.022-.288 45.118 45.118 0 0 1 4.642-2.299z" data-name="Path 282"/>
                <path id="Path_283" d="M130.328 124.579a1.25 1.25 0 0 0-.431.086v-.077a2.433 2.433 0 0 1 .431-.01z" data-name="Path 283"/>
                <path id="Path_284" d="M135.7 123.019c.943-.706.163-13.334 0-16.242s1.806-15.3 1.806-15.3a1.317 1.317 0 0 1 .268.281c-.288 1.85-1.9 12.372-1.758 15.021.163 2.9.94 15.529 0 16.242l-.786 2.665-.284-.1z" data-name="Path 284"/>
            </g>
            <path id="Path_285" d="M131.5 60.544l-1.64 5.8s-1.726 1.643-3.138 0-2.279-6.037-2.365-6.98-1.336-5.8-1.806-5.8-5.174.32-5.724-1.64c-.441-1.572 4.813-.821 6.916-.47a1.563 1.563 0 0 1 1.176.936l3.234 7.693s1.706-1.971 3.347.461z" class="cls-15" data-name="Path 285"/>
            <path id="Path_286" d="M142.093 47.054s-2.039 5.727.55 7.766-9.268 2.589-9.268 2.589l1.6-1.531a21.692 21.692 0 0 0 .355-8.274z" class="cls-15" data-name="Path 286"/>
            <path id="Path_287" d="M139.584 54.82s2.077-.511 2.077-1.058l1.844 1.058h4.628s3.372 1.879.55 7.53-1.569 19.524-1.569 19.524-10.039-1.806-18.354.94c0 0 1.256-6.194.783-9.725s.786-8.469.786-8.469l.706-2.982s-.042-2.79-2.943-1.374c0 0-.431-4.037 2.557-4.51 0 0 3.445.473 4.474-1.253a5.213 5.213 0 0 0 4.461.319z" class="cls-16" data-name="Path 287"/>
            <path id="Path_288" d="M139.584 54.651s2.077-.511 2.077-1.058l1.352.777a2.154 2.154 0 0 0 1.058.281h3.238a2.132 2.132 0 0 1 1.735.882c.741 1.045 1.409 3.106-.361 6.648-2.825 5.647-1.569 19.524-1.569 19.524s-10.039-1.806-18.354.943c0 0 1.256-6.2.783-9.725s.786-8.46.786-8.46l.706-2.982s-.042-2.79-2.943-1.374c0 0-.419-3.928 2.426-4.474a.78.78 0 0 1 .243 0c.607.064 3.445.268 4.353-1.278a5.281 5.281 0 0 0 4.47.296z" class="cls-17" data-name="Path 288"/>
            <path id="Path_289" d="M147.507 61.8s-2.512 1.569-6.59 0c0 0-4.474-1.64-5.884-4.864s7.137.55 7.137.55a6.246 6.246 0 0 0 2.352-.39c.546-.39 4.41 2.988 2.985 4.704z" class="cls-16" data-name="Path 289"/>
            <path id="Path_290" d="M147.507 61.487s-2.512 1.569-6.59 0c0 0-4.474-1.64-5.884-4.864a29.725 29.725 0 0 0-4.7-6.75s-5.727-2.2-5.414-4.391 6.587 2.429 6.587 2.429l2.512 2.355 8.156 6.9a6.246 6.246 0 0 0 2.352-.39c.542-.39 4.406 2.989 2.981 4.711z" class="cls-15" data-name="Path 290"/>
            <path id="Path_291" d="M135.269 47.837l6.743-.55a15.659 15.659 0 0 0-.7 3.2 4.308 4.308 0 0 1-6.037.163 7.616 7.616 0 0 0 0-2.809z" class="cls-16" data-name="Path 291"/>
            <circle id="Ellipse_109" cx="4.315" cy="4.315" r="4.315" class="cls-15" data-name="Ellipse 109" transform="translate(133.975 42.938)"/>
            <path id="Path_292" d="M140.658 48.189c-.252-.419.262-.959.093-1.416s-.777-.492-.984-.885c-.166-.32 0-.706-.067-1.055a1.08 1.08 0 0 0-1.039-.754 3.669 3.669 0 0 0-1.346.3 5.155 5.155 0 0 1-2.212.339 2.32 2.32 0 0 1-1.828-1.157.662.662 0 0 1-.083-.32c0-.246.24-.415.384-.614.256-.342.288-.809.518-1.167.476-.729 1.521-.71 2.391-.713 1.278 0 2.557-.24 3.835-.2a4.762 4.762 0 0 1 3.471 1.368c1.02 1.157 1.064 2.848 1.055 4.391a2.781 2.781 0 0 1-.431 1.815c-.118.144-.262.262-.374.406-.246.32-.32.751-.543 1.083a2.648 2.648 0 0 1-1.918.831c.211-.029.035-1.435 0-1.563-.146-.644-.296-.619-.922-.689z" class="cls-16" data-name="Path 292"/>
            <path id="Path_293" d="M140.658 48.032c-.252-.415.262-.959.093-1.416s-.777-.492-.984-.885c-.166-.32 0-.706-.067-1.055a1.08 1.08 0 0 0-1.039-.754 3.736 3.736 0 0 0-1.346.3 5.206 5.206 0 0 1-2.212.342 2.323 2.323 0 0 1-1.831-1.16.662.662 0 0 1-.083-.32c0-.246.24-.415.384-.61.256-.345.288-.812.518-1.17.476-.729 1.521-.71 2.391-.713 1.278 0 2.557-.24 3.835-.2a4.762 4.762 0 0 1 3.471 1.368c1.02 1.157 1.064 2.851 1.055 4.391a2.781 2.781 0 0 1-.431 1.815c-.118.144-.262.262-.374.409-.246.32-.32.748-.543 1.08a2.635 2.635 0 0 1-1.918.831c.211-.026.035-1.432 0-1.563-.143-.655-.293-.635-.919-.69z" class="cls-18" data-name="Path 293"/>
            <path id="Path_294" d="M147.465 62s-2.116-5.494-3.765-5.647 3.138 0 3.138 0l1.566 2.822z" class="cls-16" data-name="Path 294"/>
            <path id="Path_295" d="M147.625 62s-2.119-5.494-3.768-5.647 3.138 0 3.138 0l1.569 2.822z" class="cls-17" data-name="Path 295"/>
            <path id="Path_296" d="M141.693 125.208c.112.85.166 1.537.166 1.537.077-.47 4.941-2.589 4.941-2.589v-1.278a1.793 1.793 0 0 0-.371.019 6.986 6.986 0 0 0-2.611 1.074 23.947 23.947 0 0 1-2.125 1.237z" class="cls-19" data-name="Path 296"/>
            <path id="Path_297" d="M141.693 125.208c.112.85.166 1.537.166 1.537.077-.47 4.941-2.589 4.941-2.589v-1.278a1.793 1.793 0 0 0-.371.019 6.986 6.986 0 0 0-2.611 1.074 23.947 23.947 0 0 1-2.125 1.237z" class="cls-13" data-name="Path 297"/>
            <path id="Path_298" d="M129.859 124.643c1.016-.47 5.331 1.02 5.331 1.02l.438-1.486a22.481 22.481 0 0 1-2.237-.569 7.564 7.564 0 0 1-1-.371 6.639 6.639 0 0 0-.668-.32 3.468 3.468 0 0 0-1.726-.016c-.081 1.051-.138 1.742-.138 1.742z" class="cls-19" data-name="Path 298"/>
            <path id="Path_299" d="M129.859 124.643c1.016-.47 5.331 1.02 5.331 1.02l.438-1.486a22.481 22.481 0 0 1-2.237-.569 7.564 7.564 0 0 1-1-.371 6.639 6.639 0 0 0-.668-.32 3.468 3.468 0 0 0-1.726-.016c-.081 1.051-.138 1.742-.138 1.742z" class="cls-13" data-name="Path 299"/>
            <path id="Path_300" d="M151.169 129.1a.479.479 0 0 0 .268-.32.457.457 0 0 1-.268.546c-.943.473-6.354.786-9.025-1.253v-.233c2.656 2.041 8.066 1.728 9.025 1.26z" class="cls-20" data-name="Path 300"/>
            <path id="Path_301" d="M126.758 129.411c1.643.393 7.533-.47 8.079-1.413v.233c-.55.943-6.43 1.806-8.079 1.413-.671-.163-.885-.492-.818-.85.051.266.301.486.818.617z" class="cls-20" data-name="Path 301"/>
            <path id="Path_302" d="M136.327 72.274s-1.726-.55-2.2 0-4.5 1.838-4.5 1.838" class="cls-16" data-name="Path 302"/>
            <path id="Rectangle_166" d="M0 0h8.393v.176H0z" class="cls-5" data-name="Rectangle 166" transform="translate(116.8 50.544)"/>
            <path id="Rectangle_167" d="M0 0h8.393v.176H0z" class="cls-5" data-name="Rectangle 167" transform="translate(116.8 50.72)"/>
            <path id="Rectangle_168" d="M0 0h8.393v.176H0z" class="cls-16" data-name="Rectangle 168" transform="translate(116.8 50.72)"/>
            <path id="Rectangle_169" d="M0 0h8.393v.176H0z" class="cls-5" data-name="Rectangle 169" transform="translate(116.8 50.899)"/>
            <path id="Rectangle_170" d="M0 0h8.393v.176H0z" class="cls-5" data-name="Rectangle 170" transform="translate(116.8 51.075)"/>
            <path id="Rectangle_171" d="M0 0h8.393v.176H0z" class="cls-16" data-name="Rectangle 171" transform="translate(116.8 51.075)"/>
            <path id="Rectangle_172" d="M0 0h8.393v.176H0z" class="cls-5" data-name="Rectangle 172" transform="translate(116.8 51.251)"/>
            <path id="Rectangle_173" d="M0 0h8.393v.176H0z" class="cls-5" data-name="Rectangle 173" transform="translate(116.8 51.426)"/>
            <path id="Rectangle_174" d="M0 0h8.393v.176H0z" class="cls-16" data-name="Rectangle 174" transform="translate(116.8 51.426)"/>
            <path id="Rectangle_175" d="M0 0h8.393v.176H0z" class="cls-5" data-name="Rectangle 175" transform="translate(116.8 51.605)"/>
            <path id="Rectangle_176" d="M0 0h8.393v.176H0z" class="cls-5" data-name="Rectangle 176" transform="translate(116.8 51.778)"/>
            <path id="Rectangle_177" d="M0 0h8.393v.176H0z" class="cls-16" data-name="Rectangle 177" transform="translate(116.8 51.778)"/>
            <path id="Rectangle_178" d="M0 0h8.393v.176H0z" class="cls-5" data-name="Rectangle 178" transform="translate(116.8 49.132)"/>
            <path id="Rectangle_179" d="M0 0h.176v8.393H0z" class="cls-5" data-name="Rectangle 179" transform="rotate(-50.25 109.47 -108.3)"/>
            <path id="Rectangle_180" d="M0 0h.176v8.393H0z" class="cls-5" data-name="Rectangle 180" transform="rotate(-50.25 103.516 -103.438)"/>
            <path id="Rectangle_181" d="M0 0h8.393v.176H0z" class="cls-5" data-name="Rectangle 181" transform="translate(116.8 49.307)"/>
            <path id="Rectangle_182" d="M0 0h8.393v.176H0z" class="cls-16" data-name="Rectangle 182" transform="translate(116.8 49.307)"/>
            <path id="Rectangle_183" d="M0 0h8.393v.176H0z" class="cls-5" data-name="Rectangle 183" transform="translate(116.8 49.486)"/>
            <path id="Rectangle_184" d="M0 0h8.393v.176H0z" class="cls-5" data-name="Rectangle 184" transform="translate(116.8 49.662)"/>
            <path id="Rectangle_185" d="M0 0h8.393v.176H0z" class="cls-16" data-name="Rectangle 185" transform="translate(116.8 49.662)"/>
            <path id="Rectangle_186" d="M0 0h8.393v.176H0z" class="cls-5" data-name="Rectangle 186" transform="translate(116.8 49.838)"/>
            <path id="Rectangle_187" d="M0 0h8.393v.176H0z" class="cls-5" data-name="Rectangle 187" transform="translate(116.8 50.017)"/>
            <path id="Rectangle_188" d="M0 0h8.393v.176H0z" class="cls-16" data-name="Rectangle 188" transform="translate(116.8 50.017)"/>
            <path id="Rectangle_189" d="M0 0h8.393v.176H0z" class="cls-5" data-name="Rectangle 189" transform="translate(116.8 50.193)"/>
            <path id="Rectangle_190" d="M0 0h8.393v.176H0z" class="cls-5" data-name="Rectangle 190" transform="translate(116.8 50.368)"/>
            <path id="Rectangle_191" d="M0 0h8.393v.176H0z" class="cls-16" data-name="Rectangle 191" transform="translate(116.8 50.368)"/>
            <path id="Rectangle_192" d="M0 0h5.96v3.059H0z" class="cls-5" data-name="Rectangle 192" transform="rotate(-79.48 92.403 -40.889)"/>
            <ellipse id="Ellipse_110" cx="1.256" cy=".626" class="cls-5" data-name="Ellipse 110" rx="1.256" ry=".626" transform="rotate(-79.48 92.114 -42.394)"/>
            <ellipse id="Ellipse_111" cx="1.256" cy=".626" class="cls-16" data-name="Ellipse 111" rx="1.256" ry=".626" transform="rotate(-79.48 92.114 -42.394)"/>
            <path id="Rectangle_193" d="M0 0h5.96v3.059H0z" class="cls-5" data-name="Rectangle 193" transform="rotate(-79.48 100.098 -35.015)"/>
            <ellipse id="Ellipse_112" cx="1.256" cy=".626" class="cls-5" data-name="Ellipse 112" rx="1.256" ry=".626" transform="rotate(-79.48 99.81 -36.519)"/>
            <ellipse id="Ellipse_113" cx="1.256" cy=".626" class="cls-16" data-name="Ellipse 113" rx="1.256" ry=".626" transform="rotate(-79.48 99.81 -36.519)"/>
            <path id="Rectangle_194" d="M0 0h3.059v5.96H0z" class="cls-5" data-name="Rectangle 194" transform="rotate(-61.58 87.268 -66.155)"/>
            <ellipse id="Ellipse_114" cx=".63" cy="1.259" class="cls-5" data-name="Ellipse 114" rx=".63" ry="1.259" transform="rotate(-61.38 88.732 -68.5)"/>
            <ellipse id="Ellipse_115" cx=".63" cy="1.259" class="cls-16" data-name="Ellipse 115" rx=".63" ry="1.259" transform="rotate(-61.38 88.732 -68.5)"/>
            <path id="Rectangle_195" d="M0 0h3.059v5.96H0z" class="cls-5" data-name="Rectangle 195" transform="rotate(-61.58 126.05 -29.962)"/>
            <ellipse id="Ellipse_116" cx=".626" cy="1.256" class="cls-5" data-name="Ellipse 116" rx=".626" ry="1.256" transform="rotate(-61.58 127.067 -31.548)"/>
            <ellipse id="Ellipse_117" cx=".626" cy="1.256" class="cls-16" data-name="Ellipse 117" rx=".626" ry="1.256" transform="rotate(-61.58 127.067 -31.548)"/>
            <path id="Rectangle_196" d="M0 0h3.059v5.96H0z" class="cls-5" data-name="Rectangle 196" transform="rotate(-61.58 85.777 -45.95)"/>
            <ellipse id="Ellipse_118" cx=".626" cy="1.256" class="cls-5" data-name="Ellipse 118" rx=".626" ry="1.256" transform="rotate(-61.58 86.79 -47.54)"/>
            <ellipse id="Ellipse_119" cx=".626" cy="1.256" class="cls-16" data-name="Ellipse 119" rx=".626" ry="1.256" transform="rotate(-61.58 86.79 -47.54)"/>
            <path id="Rectangle_197" d="M0 0h3.059v5.96H0z" class="cls-5" data-name="Rectangle 197" transform="rotate(-61.58 82.405 -57.998)"/>
            <ellipse id="Ellipse_120" cx=".626" cy="1.256" class="cls-5" data-name="Ellipse 120" rx=".626" ry="1.256" transform="rotate(-61.58 83.42 -59.586)"/>
            <ellipse id="Ellipse_121" cx=".626" cy="1.256" class="cls-16" data-name="Ellipse 121" rx=".626" ry="1.256" transform="rotate(-61.58 83.42 -59.586)"/>
            <path id="Rectangle_198" d="M0 0h3.059v5.961H0z" class="cls-5" data-name="Rectangle 198" transform="rotate(-6.28 514.495 -902.156)"/>
            <ellipse id="Ellipse_122" cx=".626" cy="1.256" class="cls-5" data-name="Ellipse 122" rx=".626" ry="1.256" transform="rotate(-6.28 529.892 -910.877)"/>
            <ellipse id="Ellipse_123" cx=".626" cy="1.256" class="cls-16" data-name="Ellipse 123" rx=".626" ry="1.256" transform="rotate(-6.28 529.892 -910.877)"/>
            <path id="Rectangle_199" d="M0 0h3.059v5.961H0z" class="cls-5" data-name="Rectangle 199" transform="rotate(-6.28 821.758 -1076.435)"/>
            <ellipse id="Ellipse_124" cx=".624" cy="1.251" class="cls-5" data-name="Ellipse 124" rx=".624" ry="1.251" transform="rotate(-6.34 821.865 -1067.558)"/>
            <ellipse id="Ellipse_125" cx=".624" cy="1.251" class="cls-16" data-name="Ellipse 125" rx=".624" ry="1.251" transform="rotate(-6.34 821.865 -1067.558)"/>
            <path id="Rectangle_200" d="M0 0h3.059v5.96H0z" class="cls-5" data-name="Rectangle 200" transform="rotate(-61.58 100.603 -43.637)"/>
            <ellipse id="Ellipse_126" cx=".626" cy="1.256" class="cls-5" data-name="Ellipse 126" rx=".626" ry="1.256" transform="rotate(-61.58 101.621 -45.221)"/>
            <ellipse id="Ellipse_127" cx=".626" cy="1.256" class="cls-16" data-name="Ellipse 127" rx=".626" ry="1.256" transform="rotate(-61.58 101.621 -45.221)"/>
            <path id="Rectangle_201" d="M0 0h3.059v5.96H0z" class="cls-5" data-name="Rectangle 201" transform="rotate(-61.58 90.822 -34.421)"/>
            <ellipse id="Ellipse_128" cx=".63" cy="1.259" class="cls-5" data-name="Ellipse 128" rx=".63" ry="1.259" transform="rotate(-61.38 92.384 -36.558)"/>
            <ellipse id="Ellipse_129" cx=".63" cy="1.259" class="cls-16" data-name="Ellipse 129" rx=".63" ry="1.259" transform="rotate(-61.38 92.384 -36.558)"/>
            <path id="Rectangle_202" d="M0 0h3.059v5.96H0z" class="cls-5" data-name="Rectangle 202" transform="rotate(-61.58 142.075 .935)"/>
            <ellipse id="Ellipse_130" cx=".626" cy="1.256" class="cls-5" data-name="Ellipse 130" rx=".626" ry="1.256" transform="rotate(-61.58 143.092 -.65)"/>
            <ellipse id="Ellipse_131" cx=".626" cy="1.256" class="cls-16" data-name="Ellipse 131" rx=".626" ry="1.256" transform="rotate(-61.58 143.092 -.65)"/>
            <path id="Rectangle_203" d="M0 0h3.059v5.96H0z" class="cls-5" data-name="Rectangle 203" transform="rotate(-79.49 111.6 20.876)"/>
            <path id="Rectangle_204" d="M0 0h3.059v5.96H0z" class="cls-21" data-name="Rectangle 204" transform="rotate(-79.49 111.6 20.876)"/>
            <ellipse id="Ellipse_132" cx=".626" cy="1.256" class="cls-5" data-name="Ellipse 132" rx=".626" ry="1.256" transform="rotate(-79.49 112.21 19.494)"/>
            <ellipse id="Ellipse_133" cx=".626" cy="1.256" class="cls-16" data-name="Ellipse 133" rx=".626" ry="1.256" transform="rotate(-79.49 112.21 19.494)"/>
            <path id="Rectangle_205" d="M0 0h3.059v5.96H0z" class="cls-5" data-name="Rectangle 205" transform="rotate(-79.49 112.963 21.447)"/>
            <ellipse id="Ellipse_134" cx=".626" cy="1.256" class="cls-5" data-name="Ellipse 134" rx=".626" ry="1.256" transform="rotate(-79.49 113.566 20.067)"/>
            <ellipse id="Ellipse_135" cx=".626" cy="1.256" class="cls-16" data-name="Ellipse 135" rx=".626" ry="1.256" transform="rotate(-79.49 113.566 20.067)"/>
            <path id="Rectangle_206" d="M0 0h3.059v5.96H0z" class="cls-5" data-name="Rectangle 206" transform="rotate(-61.58 151.653 -.39)"/>
            <ellipse id="Ellipse_136" cx=".626" cy="1.256" class="cls-5" data-name="Ellipse 136" rx=".626" ry="1.256" transform="rotate(-61.58 152.67 -1.978)"/>
            <ellipse id="Ellipse_137" cx=".626" cy="1.256" class="cls-16" data-name="Ellipse 137" rx=".626" ry="1.256" transform="rotate(-61.58 152.67 -1.978)"/>
            <path id="Rectangle_207" d="M0 0h3.059v5.96H0z" class="cls-5" data-name="Rectangle 207" transform="rotate(-79.49 119.343 21.02)"/>
            <path id="Rectangle_208" d="M0 0h3.059v5.96H0z" class="cls-21" data-name="Rectangle 208" transform="rotate(-79.49 119.343 21.02)"/>
            <ellipse id="Ellipse_138" cx=".626" cy="1.256" class="cls-5" data-name="Ellipse 138" rx=".626" ry="1.256" transform="rotate(-79.49 119.946 19.64)"/>
            <ellipse id="Ellipse_139" cx=".626" cy="1.256" class="cls-16" data-name="Ellipse 139" rx=".626" ry="1.256" transform="rotate(-79.49 119.946 19.64)"/>
            <path id="Rectangle_209" d="M0 0h3.059v5.96H0z" class="cls-5" data-name="Rectangle 209" transform="rotate(-79.49 120.701 21.595)"/>
            <ellipse id="Ellipse_140" cx=".626" cy="1.256" class="cls-5" data-name="Ellipse 140" rx=".626" ry="1.256" transform="rotate(-79.49 121.308 20.21)"/>
            <ellipse id="Ellipse_141" cx=".626" cy="1.256" class="cls-16" data-name="Ellipse 141" rx=".626" ry="1.256" transform="rotate(-79.49 121.308 20.21)"/>
            <path id="Rectangle_210" d="M0 0h3.059v5.96H0z" class="cls-5" data-name="Rectangle 210" transform="rotate(-61.58 152.115 -10.661)"/>
            <ellipse id="Ellipse_142" cx=".626" cy="1.256" class="cls-5" data-name="Ellipse 142" rx=".626" ry="1.256" transform="rotate(-61.58 153.128 -12.25)"/>
            <ellipse id="Ellipse_143" cx=".626" cy="1.256" class="cls-16" data-name="Ellipse 143" rx=".626" ry="1.256" transform="rotate(-61.58 153.128 -12.25)"/>
            <path id="Rectangle_211" d="M0 0h3.059v5.96H0z" class="cls-5" data-name="Rectangle 211" transform="rotate(-79.49 120.985 12.954)"/>
            <path id="Rectangle_212" d="M0 0h3.059v5.96H0z" class="cls-21" data-name="Rectangle 212" transform="rotate(-79.49 120.985 12.954)"/>
            <ellipse id="Ellipse_144" cx=".626" cy="1.256" class="cls-5" data-name="Ellipse 144" rx=".626" ry="1.256" transform="rotate(-79.49 121.59 11.573)"/>
            <ellipse id="Ellipse_145" cx=".626" cy="1.256" class="cls-16" data-name="Ellipse 145" rx=".626" ry="1.256" transform="rotate(-79.49 121.59 11.573)"/>
            <path id="Rectangle_213" d="M0 0h3.059v5.96H0z" class="cls-5" data-name="Rectangle 213" transform="rotate(-79.49 122.345 13.527)"/>
            <ellipse id="Ellipse_146" cx=".626" cy="1.256" class="cls-5" data-name="Ellipse 146" rx=".626" ry="1.256" transform="rotate(-79.49 122.95 12.143)"/>
            <ellipse id="Ellipse_147" cx=".626" cy="1.256" class="cls-16" data-name="Ellipse 147" rx=".626" ry="1.256" transform="rotate(-79.49 122.95 12.143)"/>
        </g>
    </g>
</svg>
