<svg version="1.1" id="Layer_1" xmlns="http://www.w3.org/2000/svg" x="0" y="0" viewBox="0 0 15.9 14.2" xml:space="preserve"><style>.st0{fill:#2a3b90}</style><path class="st0" d="M12 0c-.1 0-.3.1-.4.3 0 0-1.4 1.8-4.9 2.9-.2 0-.5.1-.9.2h-.2C5.5 3.1 5.3 3 5 3H1.6c-.3 0-.6.3-.6.6v.2C1 4 .9 4 .9 4H.8c-.4 0-.8.4-.8.8v2.3c0 .5.4.9.8.9h.1s.1 0 .1.1v.2c0 .4.3.7.6.7h.3c.1 0 .1.1.1.1l1 4.3c.1.4.5.8.9.8H5c.2 0 .4-.1.6-.3.1-.2.2-.4.1-.6l-.9-4.2s0-.1.1-.1H5c.2 0 .4-.1.5-.3.1-.1.2-.1.2-.1.3.1.7.1.9.2 3.5 1.1 4.9 2.9 4.9 2.9.1.2.3.3.4.3.1 0 .2-.1.3-.2 0-.1.1-.2.1-.3V.5c0-.5-.3-.5-.3-.5zm2.9 2.9c-.1-.2-.4-.2-.6-.1-.2.1-.2.4-.1.6.5.8.8 1.7.8 2.7 0 1-.3 2-.8 2.8-.1.2-.1.4.1.6.1 0 .2.1.2.1.1 0 .3-.1.3-.2.6-.9 1-2 1-3.2.1-1.2-.2-2.4-.9-3.3zm0 0"/><path class="st0" d="M13.6 4.1c-.1-.2-.4-.3-.6-.1-.2.1-.2.4-.1.6.3.5.5 1 .5 1.6 0 .6-.2 1.2-.5 1.6-.1.2-.1.4.1.6.1 0 .2.1.2.1.1 0 .3-.1.3-.2.4-.6.6-1.3.6-2.1.1-.8-.1-1.5-.5-2.1zm0 0"/></svg>