<svg xmlns="http://www.w3.org/2000/svg" width="48" height="48" viewBox="0 0 48 48">
    <defs>
        <style>
            .cls-1{fill:#2b3991}.cls-2{fill:#fff}
        </style>
    </defs>
    <g id="biletini-al-icon" transform="translate(-1137 -303)">
        <circle id="Ellipse_148" cx="24" cy="24" r="24" class="cls-1" data-name="Ellipse 148" transform="translate(1137 303)"/>
        <g id="stopwatch" transform="translate(1145.806 313.058)">
            <path id="Path_593" d="M31.313 28.806l4.387-6.063a.469.469 0 0 0-.654-.654l-6.066 4.387a1.669 1.669 0 1 0 2.333 2.33z" class="cls-2" data-name="Path 593" transform="translate(-14.353 -11.696)"/>
            <path id="Path_594" d="M38.457 9.164c0-.01 0-.02-.01-.03l-.021-.023a12.733 12.733 0 0 0-1.67-2.253l1.006-1.006.662.662 1.987-1.987-1.986-1.987-1.987 1.987.663.662L36.095 6.2a12.719 12.719 0 0 0-2.253-1.67c-.009-.006-.014-.015-.023-.021s-.02-.005-.03-.01A12.558 12.558 0 0 0 28.978 2.9v-.558h.7a1.171 1.171 0 1 0 0-2.342h-4.214a1.171 1.171 0 0 0 0 2.342h.7v.541a12.883 12.883 0 0 0-1.51.251.468.468 0 1 0 .209.913 11.9 11.9 0 0 1 1.34-.227l.464-.035c.157-.012.3-.02.433-.027v.926a.468.468 0 1 0 .937 0v-.923a11.619 11.619 0 0 1 4.9 1.333l-.462.8a.468.468 0 1 0 .811.468l.46-.8a11.8 11.8 0 0 1 3.64 3.64l-.8.46a.469.469 0 0 0 .47.811l.8-.462a11.625 11.625 0 0 1 1.334 4.974h-.925a.468.468 0 1 0 0 .937h.925a11.625 11.625 0 0 1-1.331 4.978l-.8-.462a.468.468 0 1 0-.468.811l.8.46a11.8 11.8 0 0 1-3.64 3.64l-.46-.8a.468.468 0 0 0-.811.468l.462.8a11.619 11.619 0 0 1-4.9 1.333v-.92a.468.468 0 0 0-.937 0v.926a11.82 11.82 0 0 1-2.237-.289.468.468 0 0 0-.209.913 12.657 12.657 0 0 0 2.841.32H27.587a12.565 12.565 0 0 0 6.192-1.674.4.4 0 0 0 .044-.018c.009-.006.015-.015.023-.021a12.739 12.739 0 0 0 4.578-4.572.444.444 0 0 0 .028-.037c.006-.01.005-.02.01-.03a12.6 12.6 0 0 0 0-12.587z" class="cls-2" data-name="Path 594" transform="translate(-12.227)"/>
            <path id="Path_595" d="M18.572 13H16.23a.937.937 0 0 0 0 1.874h2.342a.937.937 0 1 0 0-1.874z" class="cls-2" data-name="Path 595" transform="translate(-7.442 -6.911)"/>
            <path id="Path_596" d="M15.914 20H11.23a.937.937 0 1 0 0 1.874h4.684a.937.937 0 1 0 0-1.874z" class="cls-2" data-name="Path 596" transform="translate(-4.784 -10.632)"/>
            <path id="Path_597" d="M13.256 27H6.23a.937.937 0 1 0 0 1.874h7.026a.937.937 0 1 0 0-1.874z" class="cls-2" data-name="Path 597" transform="translate(-2.126 -14.353)"/>
            <path id="Path_598" d="M11.129 34H2.23a.937.937 0 0 0 0 1.874h8.9a.937.937 0 0 0 0-1.874z" class="cls-2" data-name="Path 598" transform="translate(0 -18.075)"/>
            <path id="Path_599" d="M14.319 41H8.23a.937.937 0 0 0 0 1.874h6.089a.937.937 0 1 0 0-1.874z" class="cls-2" data-name="Path 599" transform="translate(-3.19 -21.796)"/>
            <path id="Path_600" d="M17.509 48H14.23a.937.937 0 0 0 0 1.874h3.279a.937.937 0 0 0 0-1.874z" class="cls-2" data-name="Path 600" transform="translate(-6.379 -25.517)"/>
        </g>
    </g>
</svg>
