<svg xmlns="http://www.w3.org/2000/svg" width="48" height="48" viewBox="0 0 48 48">
    <defs>
        <style>
            .cls-1{fill:#2b3991}.cls-2{fill:#fff}
        </style>
    </defs>
    <g id="guvenli-odeme-icon" transform="translate(-1137 -303)">
        <circle id="Ellipse_148" cx="24" cy="24" r="24" class="cls-1" data-name="Ellipse 148" transform="translate(1137 303)"/>
        <g id="Group_154" data-name="Group 154" transform="translate(1146.753 316.82)">
            <g id="Group_153" data-name="Group 153" transform="translate(0 -.005)">
                <path id="Path_601" d="M0 100.452a1.91 1.91 0 0 1 1.6-1.365c.2-.023.194-.171.193-.319 0-.49-.006-.98 0-1.47a3.559 3.559 0 0 1 7.118-.056c.015.49.013.98 0 1.47-.007.244.057.354.323.408a1.7 1.7 0 0 1 1.446 1.736 89.792 89.792 0 0 1 0 3.558 1.714 1.714 0 0 1-1.78 1.774 511.64 511.64 0 0 1-7.117 0A1.87 1.87 0 0 1 0 104.821zm5.36-1.381c.473 0 .947-.011 1.42 0 .27.01.358-.089.349-.355-.018-.488.007-.978-.009-1.468a1.775 1.775 0 0 0-1.72-1.734 1.744 1.744 0 0 0-1.818 1.621c-.043.533-.009 1.072-.025 1.608-.007.247.092.335.334.33.491-.01.98-.002 1.469-.002zm-.032 4.9a1.567 1.567 0 0 1 .189 0c.483.065.855.009.729-.633-.03-.156.094-.256.172-.374a1.329 1.329 0 0 0-1.955-1.776 1.294 1.294 0 0 0-.178 1.791.6.6 0 0 1 .17.468c-.082.448.124.588.54.525a2.283 2.283 0 0 1 .333-.003z" class="cls-2" data-name="Path 601" transform="translate(0 -84.822)"/>
                <path id="Path_602" d="M48.975 7.122c-3.671 0-7.344-.008-11.015.009-.436 0-.559-.119-.553-.554.026-1.535.006-3.07.011-4.605A1.782 1.782 0 0 1 39.389 0q10.492-.009 20.986 0a1.8 1.8 0 0 1 1.975 2.016v13.769a1.807 1.807 0 0 1-2.016 2.023c-4.51 0-9.021 0-13.531.01-.392 0-.545-.1-.493-.5.055-.417-.183-.959.1-1.227.26-.242.786-.07 1.195-.071 4.146 0 8.293-.01 12.44.008.417 0 .526-.1.522-.521q-.031-3.941 0-7.881c0-.437-.135-.516-.535-.515-3.682.017-7.369.011-11.057.011zm.932-5.351h-9.45c-.406 0-.93-.18-1.185.087s-.035.787-.088 1.19c-.056.433.117.518.524.517q9.783-.02 19.566-.011c.408 0 .939.173 1.193-.069.279-.266.048-.809.1-1.227.048-.4-.1-.5-.5-.5-3.384.02-6.773.014-10.16.014z" class="cls-2" data-name="Path 602" transform="translate(-33.854 .005)"/>
                <path id="Path_603" d="M168.77 96.284a2.574 2.574 0 0 1 1.392-2.3 2.5 2.5 0 0 1 2.735.121.481.481 0 0 0 .65 0 2.618 2.618 0 0 1 3.473.467 2.682 2.682 0 0 1 .015 3.481 2.63 2.63 0 0 1-3.47.493.51.51 0 0 0-.688 0 2.5 2.5 0 0 1-2.738.1 2.583 2.583 0 0 1-1.369-2.362z" class="cls-2" data-name="Path 603" transform="translate(-152.739 -84.738)"/>
            </g>
        </g>
    </g>
</svg>
