<svg xmlns="http://www.w3.org/2000/svg" viewBox="0 0 48 48"><defs><style>.cls-2{fill:#fff}</style></defs><g id="online-iptal-icon" transform="translate(-1137 -303)"><circle id="Ellipse_148" cx="24" cy="24" r="24" data-name="Ellipse 148" transform="translate(1137 303)" fill="#f7931d"/><g id="exchange" transform="translate(1149.711 313.814)"><path id="Path_604" d="M11.931 10.305v1.3a1.98 1.98 0 0 0 .246 1.032 1.167 1.167 0 0 0 1.014.587 1.74 1.74 0 0 0 1.214-.595l4.305-4.301a2.427 2.427 0 0 0 0-3.429L14.4.595A1.74 1.74 0 0 0 13.191 0c-.627 0-1.26.5-1.26 1.619V2.8A12.788 12.788 0 0 0 .007 14a.76.76 0 0 0 1.367.541 10.716 10.716 0 0 1 10.558-4.232zm0 0" class="cls-2" data-name="Path 604"/><path id="Path_605" d="M83.19 218.818a.759.759 0 0 0-.892.258 10.716 10.716 0 0 1-10.557 4.232V222c0-1.119-.633-1.619-1.26-1.619a1.741 1.741 0 0 0-1.214.595l-4.305 4.305a2.428 2.428 0 0 0 0 3.429l4.305 4.305a1.74 1.74 0 0 0 1.214.595c.627 0 1.26-.5 1.26-1.619v-1.181a12.788 12.788 0 0 0 11.924-11.193.759.759 0 0 0-.475-.799zm0 0" class="cls-2" data-name="Path 605" transform="translate(-60.998 -207.688)"/></g></g></svg>