<svg xmlns="http://www.w3.org/2000/svg" width="30" height="30" viewBox="0 0 30 30">
    <defs>
        <style>
            .cls-1{fill:#2b3991}.cls-2{clip-path:url(#clip-path)}
        </style>
        <clipPath id="clip-path">
            <path id="Rectangle_576" d="M0 0h30v30H0z" class="cls-1" data-name="Rectangle 576" transform="translate(311 154)"/>
        </clipPath>
    </defs>
    <g id="sss-icon" class="cls-2" transform="translate(-311 -154)">
        <g id="question_1_" data-name="question (1)" transform="translate(311 154)">
            <g id="Group_288" data-name="Group 288">
                <g id="Group_287" data-name="Group 287">
                    <path id="Path_2690" d="M15 0A12.763 12.763 0 0 0 2.109 12.648 12.553 12.553 0 0 0 7.317 22.8v6.024a1.172 1.172 0 0 0 1.965.863l4.818-4.423c.3.021.606.031.9.031a12.763 12.763 0 0 0 12.891-12.648A12.763 12.763 0 0 0 15 0zm0 22.951a10.98 10.98 0 0 1-1.189-.066 1.171 1.171 0 0 0-.921.3l-3.229 2.97V22.19a1.172 1.172 0 0 0-.529-.98 10.235 10.235 0 0 1-4.678-8.562A10.439 10.439 0 0 1 15 2.344a10.439 10.439 0 0 1 10.547 10.3A10.439 10.439 0 0 1 15 22.951z" class="cls-1" data-name="Path 2690"/>
                </g>
            </g>
            <g id="Group_290" data-name="Group 290">
                <g id="Group_289" data-name="Group 289">
                    <path id="Path_2691" d="M15.586 5.794h-4.1a1.172 1.172 0 1 0 0 2.344h4.1a1.758 1.758 0 0 1 0 3.516h-1.172a1.172 1.172 0 0 0-1.172 1.172v1.687a1.172 1.172 0 0 0 2.344 0V14a4.1 4.1 0 1 0 0-8.2z" class="cls-1" data-name="Path 2691"/>
                </g>
            </g>
            <g id="Group_292" data-name="Group 292">
                <g id="Group_291" data-name="Group 291">
                    <circle id="Ellipse_296" cx="1.582" cy="1.582" r="1.582" class="cls-1" data-name="Ellipse 296" transform="translate(12.832 17.119)"/>
                </g>
            </g>
        </g>
    </g>
</svg>
