<svg xmlns="http://www.w3.org/2000/svg" width="30" height="30" viewBox="0 0 30 30">
    <defs>
        <style>
            .cls-1{fill:#4a4a4a}.cls-2{clip-path:url(#clip-path)}
        </style>
        <clipPath id="clip-path">
            <path id="Rectangle_574" d="M0 0h30v30H0z" class="cls-1" data-name="Rectangle 574" transform="translate(311 154)"/>
        </clipPath>
    </defs>
    <g id="ticket-icon" class="cls-2" transform="translate(-311 -154)">
        <path id="ticket-alt" d="M6.667 69.706h16.668v10H6.667zm20.833 5a2.5 2.5 0 0 0 2.5 2.5v5a2.5 2.5 0 0 1-2.5 2.5h-25a2.5 2.5 0 0 1-2.5-2.5v-5a2.5 2.5 0 0 0 2.5-2.5 2.5 2.5 0 0 0-2.5-2.5v-5a2.5 2.5 0 0 1 2.5-2.5h25a2.5 2.5 0 0 1 2.5 2.5v5a2.5 2.5 0 0 0-2.5 2.5zM25 69.289a1.25 1.25 0 0 0-1.248-1.248H6.25A1.25 1.25 0 0 0 5 69.291v10.832a1.25 1.25 0 0 0 1.25 1.25h17.5a1.25 1.25 0 0 0 1.25-1.25z" class="cls-1" transform="translate(311 94.294)"/>
    </g>
</svg>
