<svg xmlns="http://www.w3.org/2000/svg" width="30.001" height="29.961" viewBox="0 0 30.001 29.961">
  <g id="tour-icon" transform="translate(0 -0.327)">
    <g id="Group_1638" data-name="Group 1638" transform="translate(0 9.105)">
      <g id="Group_1637" data-name="Group 1637">
        <path id="Path_9858" data-name="Path 9858" d="M9.869,148.7l2-1.054-2-1.054,1.207-1.914-2.261.089L8.9,142.5,6.99,143.712l-1.054-2-1.054,2L2.968,142.5l.089,2.261L.8,144.677,2,146.591l-2,1.054L2,148.7.8,150.613l2.261-.089-.089,2.261,1.914-1.207,1.054,2,1.054-2L8.9,152.786l-.089-2.261,2.261.089Zm-3.933,1.914A2.968,2.968,0,1,1,8.9,147.645,2.968,2.968,0,0,1,5.936,150.613Z" transform="translate(0 -141.709)" fill="#2b3991"/>
      </g>
    </g>
    <g id="Group_1640" data-name="Group 1640" transform="translate(0 27.051)">
      <g id="Group_1639" data-name="Group 1639">
        <path id="Path_9859" data-name="Path 9859" d="M26.992,452.637a3.334,3.334,0,0,1-3.989,0,5.2,5.2,0,0,0-6.011,0,3.334,3.334,0,0,1-3.988,0A4.945,4.945,0,0,0,10,451.68a4.945,4.945,0,0,0-3.005.957A3.111,3.111,0,0,1,5,453.3a3.11,3.11,0,0,1-1.994-.662A4.944,4.944,0,0,0,0,451.68V453.3a3.111,3.111,0,0,1,1.994.662A4.945,4.945,0,0,0,5,454.918,4.945,4.945,0,0,0,8,453.961,3.111,3.111,0,0,1,10,453.3a3.11,3.11,0,0,1,1.994.662,4.945,4.945,0,0,0,3.005.957A4.944,4.944,0,0,0,18,453.961a3.334,3.334,0,0,1,3.989,0,5.2,5.2,0,0,0,6.011,0A3.112,3.112,0,0,1,30,453.3V451.68A4.945,4.945,0,0,0,26.992,452.637Z" transform="translate(0 -451.68)" fill="#2b3991"/>
      </g>
    </g>
    <g id="Group_1642" data-name="Group 1642" transform="translate(2.29 0.327)">
      <g id="Group_1641" data-name="Group 1641" transform="translate(0 0)">
        <path id="Path_9860" data-name="Path 9860" d="M69.222,6.794a9.679,9.679,0,0,0-4.676-4.709l.417-1.15L63.3.327l-.418,1.151a9.742,9.742,0,0,0-11.633,6.1l-.357.985,1.027.192a15.2,15.2,0,0,1,4.717,1.723l.207.117.237,0h.09a9.163,9.163,0,0,1,2.3.293l-4.125,11.37c-.1,0-.209,0-.313,0a24.3,24.3,0,0,0-12.6,3.5,7.763,7.763,0,0,1,1.541.892c.518.365.572.4.99.4s.473-.038.99-.4a6.645,6.645,0,0,1,8.089,0c.518.365.572.4.99.4s.473-.038.99-.4a6.646,6.646,0,0,1,8.09,0c.518.365.572.4.99.4s.473-.038.99-.4a7.765,7.765,0,0,1,1.541-.893,24.255,24.255,0,0,0-10.438-3.4L61.132,11.5a9.192,9.192,0,0,1,2.018,1.316l.18.155.233.044a15.2,15.2,0,0,1,4.717,1.723l.91.516.357-.985A9.734,9.734,0,0,0,69.222,6.794Z" transform="translate(-42.429 -0.327)" fill="#2b3991"/>
      </g>
    </g>
  </g>
</svg>
