<svg xmlns="http://www.w3.org/2000/svg" width="55" height="55" viewBox="0 0 55 55">
  <g id="tour-icon" transform="translate(-27 -128)">
    <circle id="Ellipse_279" data-name="Ellipse 279" cx="27.5" cy="27.5" r="27.5" transform="translate(27 128)" fill="#fff"/>
    <g id="tour-icon-2" data-name="tour-icon" transform="translate(41.724 143.396)">
      <g id="Group_53" data-name="Group 53" transform="translate(0 6.935)">
        <g id="Group_52" data-name="Group 52">
          <path id="Path_306" data-name="Path 306" d="M8.548,147.763l1.734-.913-1.734-.913,1.046-1.658-1.958.077.077-1.958-1.658,1.046-.913-1.734-.913,1.734L2.571,142.4l.077,1.958-1.958-.077,1.046,1.658L0,146.85l1.734.913L.689,149.421l1.958-.077L2.571,151.3l1.658-1.046.913,1.734.913-1.734L7.712,151.3l-.077-1.958,1.958.077Zm-3.407,1.658a2.571,2.571,0,1,1,2.571-2.57A2.571,2.571,0,0,1,5.141,149.421Z" transform="translate(0 -141.709)" fill="#2b3991"/>
        </g>
      </g>
      <g id="Group_55" data-name="Group 55" transform="translate(0 21.424)">
        <g id="Group_54" data-name="Group 54">
          <path id="Path_307" data-name="Path 307" d="M21.532,452.509a2.493,2.493,0,0,1-3.182,0,3.882,3.882,0,0,0-4.795,0,2.493,2.493,0,0,1-3.182,0,3.746,3.746,0,0,0-2.4-.829,3.746,3.746,0,0,0-2.4.829,2.359,2.359,0,0,1-1.591.574,2.359,2.359,0,0,1-1.591-.574A3.746,3.746,0,0,0,0,451.68v1.4a2.359,2.359,0,0,1,1.591.573,3.746,3.746,0,0,0,2.4.829,3.746,3.746,0,0,0,2.4-.829,2.36,2.36,0,0,1,1.591-.573,2.359,2.359,0,0,1,1.591.573,3.882,3.882,0,0,0,4.795,0,2.493,2.493,0,0,1,3.182,0,3.882,3.882,0,0,0,4.795,0,2.36,2.36,0,0,1,1.591-.573v-1.4A3.746,3.746,0,0,0,21.532,452.509Z" transform="translate(0 -451.68)" fill="#2b3991"/>
        </g>
      </g>
      <g id="Group_57" data-name="Group 57" transform="translate(1.983 0.327)">
        <g id="Group_56" data-name="Group 56" transform="translate(0 0)">
          <path id="Path_308" data-name="Path 308" d="M63.651,5.433a7.653,7.653,0,0,0-3.7-3.718l.331-.908L58.96.327l-.331.909a7.722,7.722,0,0,0-9.214,4.819l-.283.778.814.151a12.065,12.065,0,0,1,3.736,1.36l.164.092.188,0H54.1a7.281,7.281,0,0,1,1.821.232l-3.267,8.976-.248,0A19.293,19.293,0,0,0,42.429,20.4a6.154,6.154,0,0,1,1.22.7c.41.288.453.318.784.318s.374-.03.784-.318a5.277,5.277,0,0,1,6.407,0c.41.288.453.318.784.318s.374-.03.784-.318a5.278,5.278,0,0,1,6.408,0c.41.288.453.318.784.318s.375-.03.784-.318a6.155,6.155,0,0,1,1.221-.7,19.255,19.255,0,0,0-8.268-2.687l3.119-8.569a7.284,7.284,0,0,1,1.6,1.039l.143.122.185.034A12.066,12.066,0,0,1,62.9,11.7l.721.407.283-.778A7.661,7.661,0,0,0,63.651,5.433Z" transform="translate(-42.429 -0.327)" fill="#2b3991"/>
        </g>
      </g>
    </g>
  </g>
</svg>
