<svg xmlns="http://www.w3.org/2000/svg" xmlns:xlink="http://www.w3.org/1999/xlink" width="30" height="30" viewBox="0 0 30 30">
  <defs>
    <clipPath id="clip-path">
      <rect id="visa-icon" width="30" height="30" transform="translate(-9237 -7253)" fill="#2b3991"/>
    </clipPath>
  </defs>
  <g id="visa-icon-2" data-name="visa-icon" transform="translate(9237 7253)" clip-path="url(#clip-path)">
    <g id="vize-icon" transform="translate(-9313.514 -7253)">
      <g id="Group_59" data-name="Group 59" transform="translate(90.774 11.818)">
        <g id="Group_58" data-name="Group 58" transform="translate(0)">
          <path id="Path_309" data-name="Path 309" d="M236.549,196.433a5.831,5.831,0,0,0-.963,2.921h1.926A5.831,5.831,0,0,0,236.549,196.433Z" transform="translate(-235.586 -196.433)" fill="#2b3991"/>
        </g>
      </g>
      <g id="Group_61" data-name="Group 61" transform="translate(94.146 17.348)">
        <g id="Group_60" data-name="Group 60" transform="translate(0)">
          <path id="Path_310" data-name="Path 310" d="M291.279,288.336a7.812,7.812,0,0,1-.754,2.927,4,4,0,0,0,2.291-2.927Z" transform="translate(-290.525 -288.336)" fill="#2b3991"/>
        </g>
      </g>
      <g id="Group_63" data-name="Group 63" transform="translate(90.775 17.346)">
        <g id="Group_62" data-name="Group 62" transform="translate(0)">
          <path id="Path_311" data-name="Path 311" d="M235.6,288.336a5.9,5.9,0,0,0,.965,2.917,5.834,5.834,0,0,0,.96-2.917Z" transform="translate(-235.601 -288.336)" fill="#2b3991"/>
        </g>
      </g>
      <g id="Group_65" data-name="Group 65" transform="translate(94.146 11.811)">
        <g id="Group_64" data-name="Group 64" transform="translate(0)">
          <path id="Path_312" data-name="Path 312" d="M290.525,196.314a7.812,7.812,0,0,1,.754,2.927h1.537A4,4,0,0,0,290.525,196.314Z" transform="translate(-290.525 -196.314)" fill="#2b3991"/>
        </g>
      </g>
      <g id="Group_67" data-name="Group 67" transform="translate(87.039 17.348)">
        <g id="Group_66" data-name="Group 66" transform="translate(0)">
          <path id="Path_313" data-name="Path 313" d="M174.467,288.336H172.93a4,4,0,0,0,2.291,2.926A7.811,7.811,0,0,1,174.467,288.336Z" transform="translate(-172.93 -288.336)" fill="#2b3991"/>
        </g>
      </g>
      <g id="Group_69" data-name="Group 69" transform="translate(87.039 11.812)">
        <g id="Group_68" data-name="Group 68" transform="translate(0)">
          <path id="Path_314" data-name="Path 314" d="M172.93,199.242h1.537a7.81,7.81,0,0,1,.754-2.926A4,4,0,0,0,172.93,199.242Z" transform="translate(-172.93 -196.316)" fill="#2b3991"/>
        </g>
      </g>
      <g id="Group_71" data-name="Group 71" transform="translate(81.514 4.469)">
        <g id="Group_70" data-name="Group 70" transform="translate(0)">
          <path id="Path_315" data-name="Path 315" d="M81.514,94.7V120.23h20.448V94.7Zm16.05,21.6H85.912v-1.836H97.564V116.3Zm-5.826-3.674a7.008,7.008,0,1,1,6.705-7A6.866,6.866,0,0,1,91.738,112.63Z" transform="translate(-81.514 -94.699)" fill="#2b3991"/>
        </g>
      </g>
      <g id="Group_73" data-name="Group 73" transform="translate(82.148)">
        <g id="Group_72" data-name="Group 72" transform="translate(0)">
          <path id="Path_316" data-name="Path 316" d="M94.944,3.053h18.4V0Z" transform="translate(-94.944)" fill="#2b3991"/>
        </g>
      </g>
    </g>
  </g>
</svg>
