<svg xmlns="http://www.w3.org/2000/svg" width="55" height="55" viewBox="0 0 55 55">
  <g id="vize-icon" transform="translate(-27 -128)">
    <circle id="Ellipse_279" data-name="Ellipse 279" cx="27.5" cy="27.5" r="27.5" transform="translate(27 128)" fill="#fff"/>
    <g id="vize-icon-2" data-name="vize-icon" transform="translate(-35.514 143)">
      <g id="Group_59" data-name="Group 59" transform="translate(88.784 9.269)">
        <g id="Group_58" data-name="Group 58" transform="translate(0)">
          <path id="Path_309" data-name="Path 309" d="M236.549,196.433a5.831,5.831,0,0,0-.963,2.921h1.926A5.831,5.831,0,0,0,236.549,196.433Z" transform="translate(-235.586 -196.433)" fill="#2b3991"/>
        </g>
      </g>
      <g id="Group_61" data-name="Group 61" transform="translate(91.377 13.606)">
        <g id="Group_60" data-name="Group 60" transform="translate(0)">
          <path id="Path_310" data-name="Path 310" d="M291.279,288.336a7.812,7.812,0,0,1-.754,2.927,4,4,0,0,0,2.291-2.927Z" transform="translate(-290.525 -288.336)" fill="#2b3991"/>
        </g>
      </g>
      <g id="Group_63" data-name="Group 63" transform="translate(88.785 13.606)">
        <g id="Group_62" data-name="Group 62" transform="translate(0)">
          <path id="Path_311" data-name="Path 311" d="M235.6,288.336a5.9,5.9,0,0,0,.965,2.917,5.834,5.834,0,0,0,.96-2.917Z" transform="translate(-235.601 -288.336)" fill="#2b3991"/>
        </g>
      </g>
      <g id="Group_65" data-name="Group 65" transform="translate(91.377 9.264)">
        <g id="Group_64" data-name="Group 64" transform="translate(0)">
          <path id="Path_312" data-name="Path 312" d="M290.525,196.314a7.812,7.812,0,0,1,.754,2.927h1.537A4,4,0,0,0,290.525,196.314Z" transform="translate(-290.525 -196.314)" fill="#2b3991"/>
        </g>
      </g>
      <g id="Group_67" data-name="Group 67" transform="translate(85.828 13.606)">
        <g id="Group_66" data-name="Group 66" transform="translate(0)">
          <path id="Path_313" data-name="Path 313" d="M174.467,288.336H172.93a4,4,0,0,0,2.291,2.926A7.811,7.811,0,0,1,174.467,288.336Z" transform="translate(-172.93 -288.336)" fill="#2b3991"/>
        </g>
      </g>
      <g id="Group_69" data-name="Group 69" transform="translate(85.828 9.264)">
        <g id="Group_68" data-name="Group 68" transform="translate(0)">
          <path id="Path_314" data-name="Path 314" d="M172.93,199.242h1.537a7.81,7.81,0,0,1,.754-2.926A4,4,0,0,0,172.93,199.242Z" transform="translate(-172.93 -196.316)" fill="#2b3991"/>
        </g>
      </g>
      <g id="Group_71" data-name="Group 71" transform="translate(81.514 4.469)">
        <g id="Group_70" data-name="Group 70" transform="translate(0)">
          <path id="Path_315" data-name="Path 315" d="M81.514,94.7V114.39H97.981V94.7ZM94.44,111.362H85.056v-1.416h9.384v1.416Zm-4.692-2.834a5.4,5.4,0,1,1,5.4-5.4A5.406,5.406,0,0,1,89.748,108.528Z" transform="translate(-81.514 -94.699)" fill="#2b3991"/>
        </g>
      </g>
      <g id="Group_73" data-name="Group 73" transform="translate(82.148)">
        <g id="Group_72" data-name="Group 72" transform="translate(0)">
          <path id="Path_316" data-name="Path 316" d="M94.944,3.053H109.36V0Z" transform="translate(-94.944)" fill="#2b3991"/>
        </g>
      </g>
    </g>
  </g>
</svg>
